<svg xmlns="http://www.w3.org/2000/svg" xmlns:xlink="http://www.w3.org/1999/xlink" viewBox="0 0 612 792"><defs><style>.a,.d,.e{fill:none;}.b{fill:#f9f3e0;}.c{clip-path:url(#a);}.d{stroke:#d4d4d4;}.d,.e{stroke-width:0.6px;}.e{stroke:#696769;}</style><clipPath id="a"><rect class="a" width="612" height="792"/></clipPath></defs><title>Yellow</title><rect class="b" width="612" height="792"/><g class="c"><line class="d" y1="77.65" x2="612" y2="77.65"/><line class="d" y1="417.81" x2="612" y2="417.81"/><line class="d" y1="439.07" x2="612" y2="439.07"/><line class="d" y1="460.33" x2="612" y2="460.33"/><line class="d" y1="481.59" x2="612" y2="481.59"/><line class="d" y1="502.85" x2="612" y2="502.85"/><line class="d" y1="524.11" x2="612" y2="524.11"/><line class="d" y1="545.37" x2="612" y2="545.37"/><line class="d" y1="566.63" x2="612" y2="566.63"/><line class="d" y1="587.89" x2="612" y2="587.89"/><line class="d" y1="609.15" x2="612" y2="609.15"/><line class="d" y1="630.41" x2="612" y2="630.41"/><line class="d" y1="651.67" x2="612" y2="651.67"/><line class="d" y1="672.93" x2="612" y2="672.93"/><line class="d" y1="694.19" x2="612" y2="694.19"/><line class="d" y1="715.45" x2="612" y2="715.45"/><path class="e" d="M612,629.75"/><path class="e" d="M0,629.75"/><path class="e" d="M612,651"/><path class="e" d="M0,651"/><path class="e" d="M612,672.27"/><path class="e" d="M0,672.27"/><path class="e" d="M612,693.53"/><path class="e" d="M0,693.53"/><path class="e" d="M612,714.79"/><path class="e" d="M0,714.79"/><line class="d" y1="736.05" x2="612" y2="736.05"/><line class="d" y1="757.31" x2="612" y2="757.31"/><line class="d" y1="778.57" x2="612" y2="778.57"/></g></svg>