<svg xmlns="http://www.w3.org/2000/svg" xmlns:xlink="http://www.w3.org/1999/xlink" viewBox="0 0 867.99 1080.27"><defs><style>.a{fill:none;}.b{clip-path:url(#a);}.c{fill:#e5e5e5;}.d{fill:#939598;}.e{fill:#58595b;}.f{clip-path:url(#b);}.g{fill:#c2e3d9;}.h{fill:#bdd13b;}.i{fill:#fac2bf;}.j{fill:#82baa8;}</style><clipPath id="a"><rect class="a" y="0.23" width="868" height="1080.25"/></clipPath><clipPath id="b"><rect class="a" x="0.25" y="0.82" width="868" height="1080.25"/></clipPath></defs><title>10 Flowers</title><g class="b"><path class="c" d="M838,1080.23H774V.48h64a30.08,30.08,0,0,1,30,30V1050.23a30.09,30.09,0,0,1-30,30"/><path class="d" d="M807.5,1080.23H0V.48H807.5a30.08,30.08,0,0,1,30,30V1050.23a30.09,30.09,0,0,1-30,30"/></g><rect class="e" x="733.5" y="0.82" width="24" height="1080"/><g class="f"><path class="g" d="M235.24,119.72c-78.92-40.13-81,35.78,0,0"/><path class="g" d="M235.86,120.8c-74.23,48.29-9.5,88,0,0"/><path class="g" d="M235.9,118.66c-4.73-88.41-71.5-52.25,0,0"/><path class="g" d="M237.08,120.84c4.75,88.41,71.49,52.25,0,0"/><path class="g" d="M237.14,118.71c74.21-48.29,9.47-88,0,0"/><path class="g" d="M237.72,119.79c78.94,40.13,81-35.79,0,0"/><path class="h" d="M630.25,130.33a11.7,11.7,0,1,1-11.7-11.7,11.7,11.7,0,0,1,11.7,11.7"/><path class="i" d="M249.42,266.19a11.7,11.7,0,1,1-11.7-11.71,11.69,11.69,0,0,1,11.7,11.71"/><path class="h" d="M304.26,1069.38a11.7,11.7,0,1,1-11.7-11.71,11.7,11.7,0,0,1,11.7,11.71"/><path class="j" d="M352.7,146.69s97.45,37.84,59.83,111.88c0,0-77.47,1.77-59.83-111.88"/><path class="j" d="M515.11,132.31s5.49,104.44-77.45,100.53c0,0-33.39-70,77.45-100.53"/><path class="g" d="M556.5,270.07s-78.75-68.8-126.83-1.09c0,0,34.36,69.37,126.83,1.09"/><path class="g" d="M311.36,219.69s98.21,35.87,62.07,110.64c0,0-77.41,3.31-62.07-110.64"/><path class="j" d="M517.64,338.93s-80.12-67.18-126.85,1.45c0,0,35.76,68.73,126.85-1.45"/><path class="j" d="M278.73,304.89S378.86,335,347.13,411.75c0,0-77.08,7.78-68.4-106.86"/><path class="g" d="M491.57,411.94S407.69,349.5,365,420.72c0,0,39.68,66.54,126.54-8.78"/><path class="g" d="M249.94,394.66s103.34,16,82.46,96.4c0,0-75.24,18.33-82.46-96.4"/><path class="j" d="M475.52,471.32S383.83,421,351.39,497.5c0,0,48.49,60.41,124.13-26.18"/><path class="g" d="M231.19,485.92s104.52,2.26,94.42,84.69c0,0-72.18,28.1-94.42-84.69"/><path class="g" d="M464.9,532.24s-97.54-37.76-119.62,42.3c0,0,56,53.47,119.62-42.3"/><path class="j" d="M226.51,582.49s104.08-9.94,103.67,73.15c0,0-68.43,36.31-103.67-73.15"/><path class="j" d="M464,601.24s-101.25-26.1-113.87,56c0,0,61.87,46.6,113.87-56"/><path class="g" d="M231.23,688.46s101.45-25.23,113.38,56.92c0,0-62.28,46.06-113.38-56.92"/><path class="g" d="M468.91,671.76S364.91,661,364.62,744c0,0,68.11,36.9,104.29-72.2"/><path class="g" d="M250.91,784.31S349.65,750,369,830.71c0,0-57.83,51.53-118.08-46.4"/><path class="j" d="M486.08,746.1s-104.56-1.35-97.3,81.41c0,0,71.16,30.56,97.3-81.41"/><path class="j" d="M285.18,882.33s94.06-45.6,122.64,32.33c0,0-51.41,57.91-122.64-32.33"/><path class="g" d="M514.31,817s-104,10.85-87.17,92.17c0,0,74.23,22.06,87.17-92.17"/><path class="g" d="M328,977.54s89.45-54.08,125.13,20.87c0,0-45.84,62.43-125.13-20.87"/><path class="j" d="M550.05,891.33s-102.54,20.4-78.3,99.81c0,0,76,15.15,78.3-99.81"/><path class="j" d="M523.15,1069.37C375.92,870,340.65,694.52,343.73,566.52c4.93-205,106-336.11,107-337.41A7.4,7.4,0,0,0,439.15,220c-1,1.35-104.87,135.7-110.18,345.32-3.26,128.62,31.23,304,175.13,503.09Z"/></g></svg>