<svg xmlns="http://www.w3.org/2000/svg" xmlns:xlink="http://www.w3.org/1999/xlink" viewBox="0 0 613 793"><defs><style>.a,.d,.e,.f{fill:none;}.a,.d{stroke:#d4d4d4;}.a{stroke-miterlimit:10;}.b{fill:#faf5e1;}.c{clip-path:url(#a);}.d,.e,.f{stroke-width:0.6px;}.e{stroke:#424142;}.f{stroke:#303030;}</style><clipPath id="a" transform="translate(0.5 0.5)"><rect class="a" width="612" height="792"/></clipPath></defs><title>Yellow</title><rect class="b" x="0.5" y="0.5" width="612" height="792"/><g class="c"><line class="d" x1="0.5" y1="78.15" x2="612.5" y2="78.15"/><line class="d" x1="0.5" y1="99.41" x2="612.5" y2="99.41"/><line class="d" x1="0.5" y1="141.93" x2="612.5" y2="141.93"/><line class="d" x1="0.5" y1="120.96" x2="612.5" y2="120.96"/><line class="d" x1="0.5" y1="14" x2="612.5" y2="14"/><line class="d" x1="0.5" y1="35.26" x2="612.5" y2="35.26"/><path class="e" d="M612,77.28" transform="translate(0.5 0.5)"/><path class="e" d="M0,77.28" transform="translate(0.5 0.5)"/><line class="d" x1="0.5" y1="56.81" x2="612.5" y2="56.81"/><line class="d" x1="0.5" y1="163.19" x2="612.5" y2="163.19"/><line class="d" x1="0.5" y1="184.45" x2="612.5" y2="184.45"/><line class="d" x1="0.5" y1="205.71" x2="612.5" y2="205.71"/><line class="d" x1="0.5" y1="226.97" x2="612.5" y2="226.97"/><line class="d" x1="0.5" y1="248.23" x2="612.5" y2="248.23"/><line class="d" x1="0.5" y1="269.49" x2="612.5" y2="269.49"/><line class="d" x1="0.5" y1="290.75" x2="612.5" y2="290.75"/><line class="d" x1="0.5" y1="312.01" x2="612.5" y2="312.01"/><line class="d" x1="0.5" y1="333.27" x2="612.5" y2="333.27"/><line class="d" x1="0.5" y1="354.53" x2="612.5" y2="354.53"/><line class="d" x1="0.5" y1="375.79" x2="612.5" y2="375.79"/><line class="d" x1="0.5" y1="397.05" x2="612.5" y2="397.05"/><line class="d" x1="0.5" y1="418.31" x2="612.5" y2="418.31"/><line class="d" x1="0.5" y1="439.57" x2="612.5" y2="439.57"/><line class="d" x1="0.5" y1="460.83" x2="612.5" y2="460.83"/><line class="d" x1="0.5" y1="482.09" x2="612.5" y2="482.09"/><line class="d" x1="0.5" y1="503.35" x2="612.5" y2="503.35"/><line class="d" x1="0.5" y1="524.61" x2="612.5" y2="524.61"/><line class="d" x1="0.5" y1="545.87" x2="612.5" y2="545.87"/><line class="d" x1="0.5" y1="567.13" x2="612.5" y2="567.13"/><line class="d" x1="0.5" y1="588.39" x2="612.5" y2="588.39"/><line class="d" x1="0.5" y1="609.65" x2="612.5" y2="609.65"/><line class="f" x1="0.5" y1="630.91" x2="612.5" y2="630.91"/><line class="d" x1="0.5" y1="652.17" x2="612.5" y2="652.17"/><line class="d" x1="0.5" y1="673.43" x2="612.5" y2="673.43"/><line class="d" x1="0.5" y1="694.69" x2="612.5" y2="694.69"/><line class="d" x1="0.5" y1="715.95" x2="612.5" y2="715.95"/><line class="d" x1="0.5" y1="716.05" x2="612.5" y2="716.05"/><line class="d" x1="0.5" y1="737.31" x2="612.5" y2="737.31"/><line class="d" x1="0.5" y1="758.56" x2="612.5" y2="758.56"/><line class="d" x1="0.5" y1="779.82" x2="612.5" y2="779.82"/></g><rect class="a" x="0.5" y="0.5" width="612" height="792"/><line class="f" x1="185.05" y1="0.5" x2="185.05" y2="631.49"/></svg>