<svg xmlns="http://www.w3.org/2000/svg" xmlns:xlink="http://www.w3.org/1999/xlink" viewBox="0 0 868.16 1079.99"><defs><style>.a{fill:none;}.b{fill:#fff;}.c{clip-path:url(#a);}.d{fill:#f7a388;}.e{fill:#5cbd7e;}.f{fill:#ffd880;}.g{fill:#231f20;}.h{fill:#bae5f7;}.i{clip-path:url(#b);}.j{fill:#e5e5e5;}.k{fill:#fbae17;}</style><clipPath id="a"><rect class="a" x="-0.42" y="-0.01" width="838" height="1080"/></clipPath><clipPath id="b"><rect class="a" x="807.66" y="-0.01" width="60.5" height="1080.08"/></clipPath></defs><title>11 Pattern</title><rect class="b" x="-0.42" y="-0.01" width="838" height="1080"/><g class="c"><line class="d" x1="743.86" y1="760.65" x2="704.16" y2="724.73"/><path class="e" d="M745.37,759.29l-39.7-35.92c-1.95-1.76-5,1-3,2.73q19.86,18,39.71,35.92c1.95,1.76,5-1,3-2.73Z"/><path class="e" d="M871.36,858.09c-16,1.28-35.18-10.45-39.05-24.62-.66-2.42-4.78-1.39-4.12,1,4.3,15.73,25.37,28.88,43.17,27.46,2.72-.22,2.75-4.08,0-3.86Z"/><path class="e" d="M828.26,850c-8.1-6.79-13-18.21-10.56-28.11.61-2.43-3.51-3.45-4.12-1-2.81,11.23,2.41,24.11,11.66,31.87,2,1.69,5-1,3-2.73Z"/><path class="e" d="M870.39,740.31c-6.36-.16-13.24-.83-18-5.09-3.81-3.44-4.91-8.85-5.85-13.43-1.17-5.67-2.37-10.31-7.62-14-4.94-3.53-11.39-4.92-17.49-5.72-2.78-.36-5.65-.36-8.39-.86-3.71-.67-6.38-3.58-8.27-6.31-4.06-5.88-3.44-12.1-4.7-18.58C797.82,664.46,785,661.36,773.48,661a1.93,1.93,0,1,0,0,3.86c6.27.18,13.21.79,18.11,4.71,5.3,4.25,4.2,10.53,5.23,16.18a27.74,27.74,0,0,0,7.69,15.08c4.6,4.52,10.61,4.21,16.79,5,6.33.83,12.94,2.51,17.39,6.9s3.77,11.82,5.67,17.15c3.85,10.8,14.37,14,26,14.24a1.93,1.93,0,1,0,0-3.85Z"/><polygon class="d" points="769.83 840.55 766.27 843.71 701.63 784.57 705.19 781.4 769.83 840.55"/><polygon class="f" points="798.82 594.26 793.86 598.67 753.4 561.65 758.36 557.23 798.82 594.26"/><polygon class="g" points="805.39 562.46 799.26 567.92 793.95 563.07 800.09 557.61 805.39 562.46"/><path class="g" d="M802.37,559.74l-6.13,5.46h6L797,560.34v5.45l6.14-5.46h-6.05l5.31,4.86c3.88,3.55,9.92-1.91,6-5.45l-5.31-4.86a4.65,4.65,0,0,0-6.05,0l-6.13,5.46a3.62,3.62,0,0,0,0,5.45l5.31,4.86a4.65,4.65,0,0,0,6,0l6.14-5.46C812.35,561.69,806.3,556.24,802.37,559.74Z"/><path class="g" d="M804.64,912.68c9.65-11,17.84-23.28,26.3-35.08l-3.35.39c11.11,10.28,23.15,20.44,32.8,31.9l1.84-2.91q-29.55,1.15-59.1,2.41c-2.74.12-2.76,4,0,3.85q29.55-1.31,59.1-2.4c1.45-.05,2.9-1.66,1.85-2.9-9.88-11.73-22.08-22.15-33.47-32.68a2.32,2.32,0,0,0-3.36.39C819,887.17,811,899.17,801.62,910,799.93,911.88,802.94,914.63,804.64,912.68Z"/><path class="f" d="M705.27,688.42c13.15.08,26.23,1.63,39.21-1a2,2,0,0,0,1.57-1.86c-.6-11.65-1.11-23.31-1.61-35a2.08,2.08,0,0,0-2.14-1.93c-13-.54-26.52-1.32-39.45.28a1.93,1.93,0,0,0-1.5,2.37c2.16,11.76-.57,23.86,1.86,35.68.51,2.44,4.63,1.4,4.13-1-2.44-11.8.3-23.9-1.86-35.68l-1.5,2.38c12.52-1.55,25.73-.67,38.32-.15l-2.14-1.92c.5,11.66,1,23.32,1.62,35l1.56-1.86c-12.57,2.53-25.33.92-38.07.84A1.93,1.93,0,1,0,705.27,688.42Z"/><path class="h" d="M750.21,908.34c10.35-9.34,22-16.86,29.91-28.44-11-9-32.2-26.74-32.2-26.74s-23.59,19.38-30.74,28.06C725.28,886.25,738.34,901.19,750.21,908.34Z"/><path class="e" d="M839.15,639.31c5.87-5.21,12.33-9.77,16.84-16.08a1.78,1.78,0,0,0-.34-2.34q-8.92-7.33-17.77-14.75a2.34,2.34,0,0,0-3,0c-6,5-12.31,10-17.29,15.87-.76.89-.08,2.08.77,2.64,6.64,4.38,11.42,10.68,18.22,15a2,2,0,1,0,2.16-3.33c-6.79-4.27-11.57-10.57-18.23-15,.26.88.52,1.76.77,2.64,4.74-5.57,10.89-10.38,16.62-15.1h-3q8.86,7.41,17.77,14.76l-.33-2.34c-4.3,6-10.58,10.35-16.18,15.3C834.16,638.33,837.18,641.06,839.15,639.31Z"/><path class="g" d="M675.53,758.19c6.56-4,11.35-10.52,8.2-17.75-3.38-7.74-12.35-8.08-20.16-9.18-6.51-.93-10.61-5.22-10.7-11.2-.07-4.32,1-8.09-1-12.21-2.94-5.93-11.38-6.7-17.55-5.73-17.62,2.77-15.17,20.07-9.24,31.19,4.38,8.22,11.58,13.79,19.83,18.76,7.72,4.64,17.79,9.63,27.37,7.43a14.67,14.67,0,0,0,3.29-1.31c2.41-1.21.26-4.54-2.15-3.33-7.67,3.84-17.28-1.12-23.89-4.71-7.71-4.19-14.46-9.07-19.14-16.08-3.55-5.32-5.87-11.63-5.69-17.87.16-6.06,4.56-9.16,10.76-10.36,7.22-1.41,13.7,1.61,13.58,8.74-.07,3.65-.73,7,.35,10.55.95,3.16,3.59,5.83,6.46,7.69,5.85,3.78,14,1.58,20.07,4.88,8.34,4.54,3.79,13.34-2.5,17.16C671.1,756.24,673.24,759.58,675.53,758.19Z"/><path class="g" d="M904.74,601c-10.39.43-20.78-1.37-31-2.79.42.95.85,1.89,1.27,2.84,4.72-7.2,6.29-15.61,8.94-23.52a1.91,1.91,0,0,0-1.5-2.37c-13-1.77-26.13-3-39.23-4.16l2.07,2.44c3.18-7.09,6.62-14.1,10.09-21.08a1.9,1.9,0,0,0-1.27-2.83c-11.52-2.32-23.21-3.37-34.86-4.95-2.7-.36-3.86,3.35-1.14,3.72,11.65,1.57,23.35,2.63,34.86,5l-1.28-2.84c-3.63,7.29-7.2,14.6-10.53,22-.57,1.27.83,2.33,2.06,2.44,12.71,1.16,25.46,2.3,38.1,4l-1.5-2.38c-2.54,7.58-4,15.7-8.5,22.6a1.89,1.89,0,0,0,1.28,2.83c10.59,1.47,21.39,3.37,32.15,2.93a1.93,1.93,0,1,0,0-3.86Z"/><path class="g" d="M829.4,765.3c-6,4.16-12.15,9.1-19.53,11.15-3.22.89-7,0-7-3.62,0-2.68,3.74-5.29,5.66-6.93,3.21-2.73,9.33-7.17,6.53-11.78-2.93-4.81-8.88-4.63-14-3.14-5.89,1.73-12.51,6.11-19,5.07-2.34-.37-5.83-2.6-4.44-4.95s4.41-4.33,6.64-6.15c3.4-2.77,9-7.42,6.2-12.07-3.2-5.28-9.37-4.48-14.57-2.4-3.59,1.43-6.91,3.33-10.66,4.45-3.5,1-9.47.8-10.88-3-1-2.69,5.51-5.91,7.36-6.94,2.86-1.6,5.93-2.89,8.82-4.46,2.36-1.27.21-4.61-2.16-3.33-5.62,3-12.37,5.31-16.5,10.12-4.35,5.05.28,9.93,6,11.66,6.66,2,13.78-2.31,19.47-4.81,2.74-1.21,6.14-2.52,8.69-.35s-.82,5-2.47,6.5c-3.42,3.15-10.22,6.69-10.6,11.6-.4,5.17,6.51,8.23,11.35,8.15,6.55-.11,12.56-3.76,18.63-5.55,2.57-.75,5.5-1.25,7.63.58,2.39,2.05-1.24,4.79-2.8,6.17-3.28,2.91-7,5.51-8.75,9.46-1.58,3.52.92,7.76,4.51,9.31,4.51,2,10-.41,13.94-2.36,5.07-2.48,9.54-5.86,14.11-9,2.16-1.48,0-4.84-2.16-3.33Z"/><path class="h" d="M774.32,619.08c-7.29-.08-15.25-1-18.8-7.45-2.82-5.14-1.64-11.22-3.6-16.54-2.12-5.73-8.59-9.74-14.15-12.52-6.25-3.12-13.83-5.51-21.06-5.19-2.74.12-2.75,4,0,3.86,7.63-.34,15.35,2.61,21.73,6.15a25.43,25.43,0,0,1,8.47,7.15c1.91,2.7,1.78,6.25,2.22,9.33.68,4.82,1.78,9.52,5.35,13.32,4.7,5,13.11,5.67,19.84,5.74a1.93,1.93,0,1,0,0-3.85Z"/><path class="h" d="M771.68,627.42c-13.66,2.31-27-7.41-29.78-19.16-.58-2.44-4.7-1.4-4.13,1,3.3,14,19.18,24.54,35,21.86,2.71-.45,1.56-4.17-1.13-3.72Z"/><path class="f" d="M708.08,815.92c-10.76,1.25-21.27-1.42-27.55-9.82-5.57-7.46-5.61-17.13-2.18-25.32,1-2.33-3.15-3.33-4.12-1-4,9.54-3.27,20.42,3.13,29,6.83,9.15,19,12.4,30.72,11,2.69-.31,2.72-4.17,0-3.85Z"/><path class="f" d="M672.36,813.25c-9.74-7.06-10.78-18.48-9.71-29,.25-2.48-4-2.46-4.27,0-1.18,11.44.4,24.05,11,31.71,2.12,1.54,5.17-1.17,3-2.73Z"/><path class="f" d="M703.37,830.34c5.77,0,12.35,1,18-.54a2,2,0,1,0-1.14-3.72c-5.22,1.39-11.5.42-16.85.4a1.93,1.93,0,1,0,0,3.86Z"/><path class="d" d="M876.18,807.09c-1.87-4-5.87-7-10.57-4.23-3.53,2.08-5.27,6.73-2.79,10,3.37,4.48,12,3.91,16.51,1.44a9.57,9.57,0,0,0,3.93-13c-3.26-6.44-13-7.51-19.66-5.95-6.94,1.62-13.2,7.76-11.93,14.54,1.4,7.5,9.31,12.81,17.31,13.76,7.76.92,15.4-3.17,19.89-8.6a16.74,16.74,0,0,0-4-24.83c-7.88-4.89-19.14-3.82-27.33-.26-9.86,4.29-15.15,13.69-13.42,23.38,2.58,14.54,21.89,19.33,35.58,16,2.66-.64,1.53-4.36-1.14-3.72-9.22,2.21-19.67.71-26.35-5.81-5.42-5.28-5.29-13.62-1.38-19.55,5.72-8.68,20.49-12,30.33-7.57,5.19,2.34,7.38,6.91,7.11,12-.45,8.41-8.09,14.84-17.32,15.17-10.15.37-20.3-10.74-11.59-18.21,5.74-4.92,21.26-4.47,20.83,4.82-.23,5.16-10.65,8.49-14,4.06-2.07-2.74,3.47-7.49,5.83-2.43,1.05,2.25,5.19,1.26,4.12-1Z"/><path class="d" d="M864.65,669.84c0-7.46-12.82-7.46-12.82,0s12.82,7.46,12.82,0Z"/><path class="d" d="M834.52,662.74c0-5-8.55-5-8.55,0s8.55,5,8.55,0Z"/><path class="g" d="M771.93,800.05c0-7.46-12.82-7.46-12.82,0s12.82,7.46,12.82,0Z"/><path class="g" d="M767.17,775.59c0-5-8.55-5-8.55,0s8.55,5,8.55,0Z"/><path class="g" d="M786,793.74c0-2.49-4.28-2.49-4.28,0s4.28,2.48,4.28,0Z"/><path class="g" d="M740.54,781.9c0-2.49-4.28-2.49-4.28,0s4.28,2.49,4.28,0Z"/><path class="g" d="M679.16,674.52c.05-10.19,1.05-20.38-.66-30.5-.42-2.46-4.54-1.41-4.13,1,1.66,9.75.56,19.67.51,29.48,0,2.48,4.26,2.48,4.28,0Z"/><path class="e" d="M705,615.43c-7.52,0-15.12.06-22.55-1.08-5.89-.9-12.9-3-12.6-9.45.24-5.1,8.95-6.49,13.11-7.17,7-1.14,14.34-1.06,21.46-1.07a1.93,1.93,0,1,0,0-3.85c-8.55,0-17.23.05-25.61,1.75-6.22,1.27-12.33,4.16-13.24,10.34C663.23,621,694.93,619.28,705,619.29a1.93,1.93,0,1,0,0-3.86Z"/><path class="d" d="M680.59,572c5.12-9.41,14.62-16,21.88-24,1.73-1.91-1.28-4.66-3-2.73C692,553.45,682.18,560.29,676.9,570c-1.21,2.22,2.47,4.18,3.69,2Z"/><path class="h" d="M640.1,782.75c-.54-8.38-17-9.47-23.58-10.06-9-.81-24.64-2.17-30,6.2-3.69,5.79,3.6,10.66,9,11.81,2.66.56,5.64.37,8.35.55,3.21.22,6.42.46,9.64.62,8.05.42,26,1.61,26.54-9.12.12-2.49-4.16-2.48-4.28,0-.34,7.19-17.28,5.5-22.26,5.27-4.19-.2-8.36-.58-12.54-.81-2.91-.16-5.5-.22-8.15-1.52-3.65-1.78-3.55-5.54,0-7.44,2.72-1.48,6.55-1.67,9.62-1.9a91.8,91.8,0,0,1,14.07.2,67.14,67.14,0,0,1,12.63,2.17c1.86.52,6.53,1.76,6.67,4C636,785.22,640.25,785.23,640.1,782.75Z"/><line class="d" x1="890.82" y1="111.99" x2="851.11" y2="76.07"/><path class="e" d="M892.33,110.63,852.62,74.71c-2-1.77-5,1-3,2.72l39.7,35.92c2,1.77,5-1,3-2.72Z"/><polygon class="d" points="916.78 191.88 913.22 195.05 848.58 135.91 852.14 132.74 916.78 191.88"/><path class="f" d="M852.23,39.76c13.14.08,26.22,1.62,39.2-1A2,2,0,0,0,893,36.92c-.6-11.65-1.11-23.32-1.61-35A2.09,2.09,0,0,0,889.25,0c-13-.54-26.52-1.32-39.45.28a1.94,1.94,0,0,0-1.49,2.38c2.16,11.76-.58,23.86,1.86,35.67.5,2.45,4.62,1.41,4.12-1-2.43-11.8.3-23.9-1.86-35.68L850.93,4c12.52-1.55,25.74-.66,38.32-.14l-2.13-1.93c.5,11.66,1,23.33,1.61,35l1.57-1.86c-12.58,2.52-25.34.92-38.07.84A1.93,1.93,0,1,0,852.23,39.76Z"/><path class="h" d="M897.16,259.68c10.36-9.34,22-16.87,29.92-28.44-11-9-32.21-26.74-32.21-26.74s-23.59,19.38-30.73,28.06C872.23,237.59,885.29,252.53,897.16,259.68Z"/><path class="g" d="M822.49,109.53c6.55-4,11.35-10.53,8.19-17.75-3.38-7.75-12.35-8.08-20.16-9.19-6.51-.92-10.6-5.21-10.7-11.19-.07-4.33,1-8.09-1-12.21-2.95-5.93-11.39-6.71-17.55-5.74-17.63,2.77-15.17,20.08-9.25,31.2,4.38,8.21,11.58,13.79,19.83,18.76,7.72,4.64,17.79,9.63,27.37,7.43a15,15,0,0,0,3.3-1.31c2.41-1.21.25-4.54-2.16-3.33-7.67,3.84-17.28-1.12-23.89-4.71C788.73,97.3,782,92.41,777.3,85.41c-3.55-5.32-5.86-11.63-5.69-17.87.17-6.06,4.57-9.16,10.76-10.37,7.22-1.41,13.7,1.61,13.58,8.75-.06,3.64-.72,7,.36,10.55.94,3.16,3.59,5.83,6.46,7.69,5.85,3.78,14,1.58,20.06,4.88,8.35,4.54,3.8,13.34-2.5,17.16C818.05,107.58,820.19,110.92,822.49,109.53Z"/><path class="f" d="M855,167.25c-10.75,1.26-21.27-1.41-27.54-9.81-5.58-7.46-5.62-17.13-2.18-25.32,1-2.33-3.16-3.33-4.13-1-4,9.55-3.27,20.42,3.13,29,6.84,9.15,19,12.39,30.72,11,2.69-.31,2.73-4.17,0-3.86Z"/><path class="f" d="M819.31,164.59c-9.74-7.07-10.78-18.48-9.71-29,.26-2.48-4-2.46-4.27,0-1.17,11.44.4,24,11,31.71,2.13,1.54,5.17-1.17,3-2.73Z"/><path class="f" d="M850.32,181.68c5.78,0,12.35,1,18-.54a2,2,0,1,0-1.14-3.72c-5.21,1.39-11.5.41-16.85.4a1.93,1.93,0,1,0,0,3.86Z"/><path class="g" d="M826.11,25.85c0-10.18,1.06-20.37-.66-30.5-.42-2.45-4.53-1.4-4.12,1,1.65,9.75.56,19.66.5,29.47,0,2.49,4.27,2.49,4.28,0Z"/><path class="h" d="M787.05,134.08c-.53-8.37-17-9.46-23.58-10.05-9-.81-24.64-2.17-30,6.2-3.68,5.79,3.6,10.65,9,11.8,2.65.57,5.63.38,8.35.56,3.21.21,6.41.45,9.63.62,8.06.41,26,1.6,26.54-9.13.12-2.48-4.16-2.47-4.28,0-.34,7.2-17.28,5.5-22.26,5.27-4.19-.19-8.36-.57-12.54-.8-2.91-.16-5.5-.22-8.15-1.52-3.65-1.79-3.54-5.54,0-7.45,2.72-1.47,6.55-1.66,9.62-1.89a93.08,93.08,0,0,1,14.07.19,67.15,67.15,0,0,1,12.63,2.18c1.86.51,6.53,1.76,6.67,4C782.93,136.56,787.21,136.57,787.05,134.08Z"/><line class="d" x1="532.63" y1="1028.15" x2="492.92" y2="992.23"/><path class="e" d="M534.14,1026.79l-39.71-35.92c-1.94-1.76-5,1-3,2.73l39.71,35.92c1.94,1.76,5-1,3-2.73Z"/><path class="e" d="M659.16,1007.81c-6.36-.16-13.25-.83-18-5.09-3.81-3.44-4.91-8.85-5.85-13.43-1.17-5.67-2.37-10.31-7.62-14-4.94-3.53-11.4-4.92-17.5-5.72-2.77-.36-5.64-.36-8.39-.86-3.7-.67-6.38-3.58-8.27-6.31-4.06-5.88-3.44-12.09-4.7-18.58-2.28-11.81-15.12-14.91-26.62-15.25a1.93,1.93,0,1,0,0,3.86c6.27.18,13.2.79,18.1,4.71,5.31,4.25,4.21,10.53,5.23,16.19a27.76,27.76,0,0,0,7.7,15.07c4.59,4.52,10.6,4.21,16.79,5s12.94,2.51,17.38,6.9,3.78,11.82,5.68,17.15c3.85,10.8,14.37,14,26,14.24a1.93,1.93,0,1,0,0-3.85Z"/><polygon class="d" points="558.59 1108.05 555.04 1111.21 490.39 1052.07 493.95 1048.9 558.59 1108.05"/><polygon class="f" points="587.59 861.76 582.63 866.17 542.16 829.15 547.13 824.74 587.59 861.76"/><polygon class="g" points="594.16 829.97 588.02 835.42 582.71 830.57 588.85 825.11 594.16 829.97"/><path class="g" d="M591.14,827.24,585,832.7h6l-5.31-4.86v5.45l6.13-5.46h-6l5.31,4.86c3.87,3.55,9.92-1.91,6-5.45l-5.31-4.86a4.64,4.64,0,0,0-6,0l-6.14,5.46a3.62,3.62,0,0,0,0,5.45l5.31,4.86a4.65,4.65,0,0,0,6,0l6.13-5.46C601.11,829.2,595.07,823.74,591.14,827.24Z"/><path class="f" d="M661.94,969.66c-.14,7.26,7.26,7.76,13.56,8.24,2.83.21,7.22.91,8.47,3.62,1,2.26-.07,5.13-.74,7.34-1.53,5.06-3.22,10.19-.49,15.17,2.94,5.35,10.19,7.05,16.18,7.62,4.82.46,13.88.19,15.57-5.15a7.41,7.41,0,0,0-1.81-7.4c-2.49-2.18-5.67-2.15-8.95-2.17a12.76,12.76,0,0,1-6.18-1.29c-1.6-.85-.74-2.89-.37-4.11,1.16-3.79,2.42-7.25,2-11.24-.77-6.74-6.52-11.4-13-14-6.08-2.48-22.82-6-24.2,3.41-.36,2.46,3.92,2.43,4.28,0,.65-4.41,13.38-1.45,15.78-.75,8.4,2.45,14.44,8.37,12.6,16.72-1.19,5.43-4.9,11.15,2.55,14.16,3.15,1.27,6.67.89,10,1.07a3.47,3.47,0,0,1,3.37,4.09c-.24,1.56-2.34,2.14-3.76,2.5-6.2,1.58-14.93.25-19.39-4.09-4.16-4.06-.74-10.82.5-15.31s1-8.7-3.37-11.6c-2.54-1.67-6-2.14-9-2.41-3.7-.33-9.37.19-9.28-4.38C666.27,967.17,662,967.18,661.94,969.66Z"/><path class="d" d="M718.86,952.88c1.1-8.88-10.64-7.09-17.42-8.84-23.88-6.17,9.66-26.82-12.16-38.59-6.94-3.74-28.88-5.92-27.5,3.95s11.81,3.53,19.26,8.42c7,4.61-5.26,12.53-.61,24.71C686,957.19,717.72,962.06,718.86,952.88Z"/><path class="f" d="M494,955.92c13.15.08,26.22,1.63,39.21-1a2,2,0,0,0,1.57-1.86c-.61-11.65-1.11-23.31-1.62-35a2.07,2.07,0,0,0-2.13-1.93c-13-.54-26.52-1.32-39.46.28a1.93,1.93,0,0,0-1.49,2.37c2.16,11.76-.58,23.86,1.86,35.68.5,2.44,4.62,1.4,4.12-1-2.43-11.8.3-23.9-1.86-35.68l-1.49,2.38c12.51-1.55,25.73-.67,38.32-.14l-2.14-1.93c.5,11.66,1,23.32,1.61,35l1.57-1.85c-12.58,2.52-25.34.91-38.07.84A1.93,1.93,0,1,0,494,955.92Z"/><path class="e" d="M627.91,906.81c5.88-5.2,12.34-9.77,16.84-16.08a1.79,1.79,0,0,0-.33-2.34q-8.92-7.33-17.77-14.75a2.34,2.34,0,0,0-3,0c-6,5-12.32,10-17.29,15.87-.77.89-.08,2.08.76,2.64,6.64,4.38,11.42,10.68,18.22,15a2,2,0,1,0,2.16-3.33c-6.78-4.27-11.57-10.57-18.22-15,.26.88.51,1.76.77,2.64,4.73-5.57,10.88-10.38,16.62-15.09h-3q8.85,7.39,17.77,14.75l-.34-2.34c-4.29,6-10.57,10.35-16.17,15.3C622.92,905.83,626,908.56,627.91,906.81Z"/><path class="g" d="M464.3,1025.69c6.55-4,11.35-10.52,8.2-17.74-3.38-7.75-12.35-8.09-20.16-9.19-6.52-.92-10.61-5.22-10.7-11.2-.07-4.32,1-8.09-1-12.21-2.94-5.93-11.39-6.7-17.55-5.73-17.63,2.77-15.17,20.07-9.24,31.19,4.37,8.22,11.57,13.79,19.82,18.76,7.72,4.64,17.8,9.63,27.37,7.44a15.07,15.07,0,0,0,3.3-1.32c2.41-1.21.25-4.54-2.16-3.33-7.67,3.84-17.28-1.12-23.88-4.71-7.72-4.19-14.46-9.07-19.14-16.08-3.56-5.32-5.87-11.62-5.7-17.87.17-6.06,4.57-9.15,10.76-10.36,7.23-1.41,13.71,1.61,13.58,8.74-.06,3.65-.72,7,.36,10.56.94,3.15,3.59,5.82,6.46,7.68,5.85,3.78,14,1.58,20.06,4.88,8.35,4.54,3.8,13.34-2.5,17.16C459.87,1023.74,462,1027.08,464.3,1025.69Z"/><path class="g" d="M693.51,868.5c-10.4.42-20.79-1.38-31-2.8l1.28,2.84c4.71-7.2,6.28-15.61,8.93-23.52a1.91,1.91,0,0,0-1.49-2.37c-13-1.77-26.14-3-39.23-4.16l2.06,2.45c3.19-7.1,6.62-14.11,10.1-21.09a1.91,1.91,0,0,0-1.28-2.83c-11.51-2.32-23.21-3.37-34.86-4.95-2.7-.36-3.85,3.35-1.14,3.72,11.65,1.58,23.35,2.63,34.87,5-.43-1-.86-1.89-1.28-2.83-3.63,7.28-7.21,14.6-10.53,22-.57,1.27.83,2.33,2.06,2.44,12.71,1.17,25.46,2.3,38.09,4L668.58,844c-2.54,7.58-4,15.7-8.5,22.6a1.89,1.89,0,0,0,1.27,2.83c10.6,1.47,21.4,3.37,32.16,2.93,2.74-.11,2.76-4,0-3.85Z"/><path class="g" d="M618.17,1032.8c-6,4.16-12.16,9.1-19.54,11.15-3.22.9-7,0-7-3.62,0-2.68,3.74-5.29,5.67-6.93,3.21-2.73,9.33-7.17,6.52-11.78-2.92-4.81-8.87-4.63-13.95-3.14-5.9,1.73-12.51,6.11-19,5.07-2.34-.37-5.83-2.6-4.45-4.95s4.42-4.33,6.64-6.15c3.4-2.77,9-7.42,6.21-12.07-3.21-5.28-9.37-4.48-14.58-2.4-3.59,1.43-6.91,3.33-10.66,4.45-3.49,1-9.47.8-10.88-3-1-2.69,5.52-5.9,7.36-6.94,2.87-1.6,5.93-2.89,8.82-4.45,2.36-1.28.22-4.62-2.16-3.33-5.62,3-12.36,5.3-16.5,10.11-4.34,5.05.28,9.93,6,11.67,6.66,2,13.77-2.32,19.47-4.82,2.74-1.21,6.14-2.51,8.68-.34s-.81,5-2.46,6.49c-3.43,3.15-10.22,6.69-10.6,11.6-.4,5.17,6.5,8.23,11.35,8.15,6.55-.11,12.55-3.76,18.63-5.54,2.57-.76,5.49-1.25,7.63.57,2.39,2-1.24,4.79-2.8,6.17-3.29,2.91-7,5.51-8.75,9.46-1.58,3.52.91,7.76,4.51,9.32,4.5,2,10-.42,13.93-2.37,5.08-2.48,9.55-5.86,14.12-9,2.16-1.48,0-4.84-2.16-3.33Z"/><path class="h" d="M563.08,886.58c-7.28-.08-15.24-1-18.8-7.44-2.81-5.15-1.63-11.23-3.6-16.55-2.11-5.73-8.58-9.74-14.14-12.52-6.26-3.12-13.83-5.51-21.06-5.19-2.75.12-2.76,4,0,3.86,7.63-.34,15.35,2.61,21.72,6.15a25.28,25.28,0,0,1,8.48,7.16c1.9,2.69,1.78,6.24,2.21,9.32.69,4.82,1.79,9.52,5.36,13.32,4.7,5,13.11,5.67,19.83,5.74a1.93,1.93,0,1,0,0-3.85Z"/><path class="h" d="M560.44,894.92c-13.65,2.31-27-7.41-29.78-19.16-.57-2.43-4.69-1.4-4.12,1,3.3,14,19.18,24.55,35,21.86,2.71-.45,1.56-4.17-1.14-3.72Z"/><path class="f" d="M496.84,1083.42c-10.75,1.25-21.27-1.42-27.54-9.82-5.58-7.46-5.62-17.13-2.18-25.32,1-2.33-3.16-3.33-4.12-1-4,9.54-3.27,20.42,3.12,29,6.84,9.15,19,12.4,30.72,11,2.7-.31,2.73-4.17,0-3.85Z"/><path class="f" d="M461.13,1080.75c-9.75-7.06-10.79-18.48-9.71-29,.25-2.48-4-2.45-4.28,0-1.17,11.44.4,24,11,31.71,2.13,1.54,5.17-1.17,3-2.73Z"/><path class="d" d="M665,1074.59c-1.87-4-5.88-7-10.57-4.23-3.53,2.08-5.27,6.73-2.8,10,3.38,4.48,12,3.91,16.51,1.44a9.56,9.56,0,0,0,3.94-13c-3.26-6.44-13-7.51-19.67-6-6.94,1.62-13.19,7.76-11.93,14.54,1.4,7.5,9.31,12.81,17.31,13.76,7.76.92,15.41-3.17,19.89-8.6a16.74,16.74,0,0,0-4-24.83c-7.89-4.89-19.15-3.82-27.34-.26-9.85,4.29-15.14,13.69-13.42,23.38,2.59,14.54,21.89,19.33,35.59,16,2.66-.64,1.53-4.36-1.14-3.72-9.23,2.22-19.68.71-26.36-5.81-5.41-5.28-5.28-13.62-1.37-19.54,5.72-8.69,20.48-12,30.33-7.58,5.19,2.34,7.37,6.91,7.1,12-.44,8.41-8.08,14.84-17.31,15.17-10.16.37-20.31-10.73-11.59-18.21,5.74-4.92,21.25-4.47,20.83,4.82-.24,5.16-10.65,8.49-14,4.06-2.07-2.74,3.48-7.49,5.84-2.43,1,2.25,5.19,1.26,4.12-1Z"/><path class="d" d="M653.42,937.34c0-7.46-12.83-7.46-12.83,0s12.83,7.46,12.83,0Z"/><path class="d" d="M623.29,930.24c0-5-8.55-5-8.55,0s8.55,5,8.55,0Z"/><path class="g" d="M560.7,1067.55c0-7.46-12.83-7.46-12.83,0s12.83,7.46,12.83,0Z"/><path class="g" d="M555.94,1043.09c0-5-8.56-5-8.56,0s8.56,5,8.56,0Z"/><path class="g" d="M574.79,1061.24c0-2.49-4.27-2.49-4.27,0s4.27,2.48,4.27,0Z"/><path class="g" d="M529.31,1049.4c0-2.49-4.28-2.49-4.28,0s4.28,2.49,4.28,0Z"/><path class="h" d="M718.45,1031.34c0-7.46-12.83-7.46-12.83,0s12.83,7.46,12.83,0Z"/><path class="h" d="M702.07,1052.29c0-5-8.55-5-8.55,0s8.55,5,8.55,0Z"/><path class="h" d="M684.8,1033.5c0-2.49-4.28-2.49-4.28,0s4.28,2.49,4.28,0Z"/><path class="h" d="M728.74,1050.19c0-2.49-4.27-2.49-4.27,0s4.27,2.49,4.27,0Z"/><path class="g" d="M467.92,942c.06-10.19,1.06-20.38-.66-30.5-.41-2.45-4.53-1.41-4.12,1,1.65,9.75.56,19.67.51,29.48,0,2.49,4.26,2.48,4.27,0Z"/><path class="e" d="M493.78,882.93c-7.52,0-15.13.06-22.56-1.08-5.88-.9-12.9-3-12.59-9.45.24-5.09,8.95-6.49,13.11-7.17,7-1.14,14.33-1.06,21.45-1.06a1.93,1.93,0,1,0,0-3.86c-8.55,0-17.22.05-25.6,1.75-6.23,1.27-12.34,4.16-13.24,10.34-2.35,16.11,29.35,14.38,39.43,14.39a1.93,1.93,0,1,0,0-3.86Z"/><path class="d" d="M469.35,839.45c5.12-9.41,14.63-16,21.88-24,1.73-1.91-1.27-4.65-3-2.73-7.48,8.23-17.27,15.07-22.55,24.78-1.21,2.22,2.48,4.18,3.69,2Z"/><path class="e" d="M746.79,931.52A126.92,126.92,0,0,1,734,921.27c-1.93-1.79-5,.94-3,2.72a127.85,127.85,0,0,0,12.83,10.26c2.14,1.52,5.19-1.19,3-2.73Z"/><path class="f" d="M719.57,911.11a59.89,59.89,0,0,1-5.87-5c-1.86-1.84-4.88.9-3,2.72a60,60,0,0,0,5.87,5,2.36,2.36,0,0,0,3,0,1.8,1.8,0,0,0,0-2.73Z"/><path class="h" d="M428.86,1050.25c-.53-8.38-17-9.47-23.58-10.06-9-.81-24.64-2.16-30,6.2-3.68,5.79,3.6,10.66,9,11.81,2.65.56,5.63.37,8.35.55,3.21.22,6.42.46,9.63.62,8.06.42,26,1.61,26.54-9.12.12-2.49-4.15-2.48-4.27,0-.35,7.2-17.28,5.5-22.27,5.27-4.18-.2-8.35-.58-12.54-.81-2.9-.15-5.49-.22-8.14-1.52-3.65-1.78-3.55-5.54-.05-7.44,2.73-1.48,6.55-1.67,9.63-1.89a90.41,90.41,0,0,1,14.06.19,67.38,67.38,0,0,1,12.64,2.17c1.85.52,6.52,1.77,6.67,4C424.74,1052.72,429,1052.73,428.86,1050.25Z"/><line class="d" x1="452.35" y1="647.89" x2="412.64" y2="611.97"/><path class="e" d="M453.86,646.53l-39.7-35.92c-2-1.76-5,1-3,2.73l39.71,35.92c2,1.76,5-1,3-2.73Z"/><path class="e" d="M579.85,745.33c-16,1.28-35.18-10.45-39.05-24.62-.66-2.42-4.79-1.39-4.13,1,4.3,15.73,25.38,28.88,43.18,27.46,2.72-.22,2.74-4.08,0-3.86Z"/><path class="e" d="M536.75,737.22c-8.11-6.79-13-18.21-10.56-28.11.6-2.42-3.52-3.45-4.12-1-2.81,11.23,2.41,24.12,11.65,31.87,2,1.69,5-1,3-2.73Z"/><path class="e" d="M595.59,748.4c3.09,0,6.12-.17,8.51-2.14,2-1.68-1-4.41-3-2.73-1.43,1.18-3.68,1-5.49,1a1.93,1.93,0,1,0,0,3.86Z"/><path class="e" d="M578.88,627.55c-6.36-.16-13.24-.83-18-5.09-3.81-3.44-4.91-8.85-5.85-13.43-1.17-5.67-2.37-10.31-7.62-14-4.94-3.53-11.39-4.92-17.5-5.72-2.77-.36-5.64-.36-8.38-.86-3.71-.67-6.39-3.58-8.28-6.31-4-5.88-3.44-12.09-4.69-18.58-2.29-11.81-15.13-14.91-26.63-15.25a1.93,1.93,0,1,0,0,3.86c6.27.18,13.21.79,18.1,4.71,5.31,4.25,4.21,10.53,5.23,16.19a27.83,27.83,0,0,0,7.7,15.07c4.59,4.52,10.6,4.21,16.79,5s12.94,2.51,17.38,6.9,3.78,11.82,5.68,17.15c3.85,10.8,14.37,14,26,14.24a1.93,1.93,0,1,0,0-3.85Z"/><polygon class="d" points="478.31 727.79 474.76 730.95 410.12 671.81 413.67 668.64 478.31 727.79"/><polygon class="f" points="507.31 481.5 502.35 485.91 461.88 448.89 466.85 444.48 507.31 481.5"/><polygon class="g" points="513.88 449.7 507.75 455.16 502.44 450.31 508.57 444.85 513.88 449.7"/><path class="g" d="M510.86,447l-6.14,5.46h6l-5.31-4.86V453l6.14-5.46h-6.05l5.31,4.86c3.88,3.55,9.92-1.91,6-5.45l-5.31-4.86a4.65,4.65,0,0,0-6.05,0l-6.14,5.46a3.63,3.63,0,0,0,0,5.45l5.31,4.86a4.65,4.65,0,0,0,6,0l6.14-5.46C520.84,448.94,514.79,443.48,510.86,447Z"/><path class="f" d="M581.67,589.4c-.15,7.26,7.25,7.76,13.55,8.24,2.84.21,7.22.91,8.47,3.62,1,2.26-.07,5.13-.74,7.34-1.53,5.06-3.22,10.19-.49,15.17,2.94,5.35,10.19,7.05,16.18,7.62,4.82.46,13.88.19,15.57-5.15a7.41,7.41,0,0,0-1.81-7.4c-2.49-2.18-5.67-2.15-8.95-2.17a12.78,12.78,0,0,1-6.18-1.29c-1.6-.85-.74-2.89-.37-4.11,1.16-3.79,2.42-7.25,2-11.24-.76-6.74-6.52-11.4-13-14-6.08-2.48-22.82-6-24.19,3.41-.36,2.46,3.92,2.43,4.27,0,.65-4.41,13.38-1.45,15.78-.75,8.4,2.45,14.44,8.37,12.6,16.72-1.19,5.43-4.9,11.15,2.56,14.16,3.14,1.27,6.66.89,10,1.07a3.48,3.48,0,0,1,3.38,4.09c-.25,1.56-2.35,2.14-3.76,2.5-6.2,1.58-14.94.25-19.4-4.09-4.16-4.06-.74-10.82.51-15.31s1-8.7-3.38-11.6c-2.53-1.67-6-2.14-9-2.41-3.7-.33-9.37.18-9.28-4.38C586,586.91,581.72,586.92,581.67,589.4Z"/><path class="d" d="M638.58,572.62c1.11-8.88-10.64-7.09-17.42-8.84-23.88-6.17,9.66-26.82-12.16-38.59-6.94-3.74-28.88-5.92-27.5,3.95s11.82,3.53,19.26,8.42c7,4.61-5.26,12.53-.61,24.71C605.74,576.93,637.44,581.8,638.58,572.62Z"/><path class="g" d="M513.13,799.92c9.65-11,17.84-23.28,26.3-35.08l-3.36.39c11.12,10.28,23.16,20.44,32.81,31.9l1.84-2.91q-29.55,1.15-59.1,2.41c-2.74.12-2.76,4,0,3.85q29.55-1.31,59.1-2.4c1.45-.05,2.9-1.66,1.85-2.9-9.88-11.73-22.09-22.14-33.47-32.68a2.32,2.32,0,0,0-3.36.39c-8.26,11.52-16.22,23.52-25.63,34.3C508.42,799.12,511.42,801.87,513.13,799.92Z"/><path class="f" d="M413.76,575.66c13.15.08,26.22,1.63,39.21-1a2,2,0,0,0,1.57-1.86c-.61-11.65-1.11-23.31-1.61-35a2.08,2.08,0,0,0-2.14-1.93c-13-.54-26.52-1.32-39.46.28a1.94,1.94,0,0,0-1.49,2.37c2.16,11.76-.58,23.86,1.86,35.68.5,2.44,4.62,1.4,4.12-1-2.43-11.8.31-23.9-1.86-35.68l-1.49,2.38c12.52-1.55,25.73-.67,38.32-.14l-2.14-1.93c.5,11.66,1,23.32,1.61,35l1.57-1.85c-12.58,2.52-25.33.91-38.07.84A1.93,1.93,0,1,0,413.76,575.66Z"/><path class="h" d="M458.7,795.58c10.35-9.34,22-16.86,29.91-28.44-11-9-32.21-26.74-32.21-26.74s-23.58,19.38-30.73,28.06C433.77,773.49,446.83,788.43,458.7,795.58Z"/><path class="e" d="M547.64,526.55c5.87-5.2,12.33-9.77,16.84-16.08a1.79,1.79,0,0,0-.34-2.34q-8.92-7.33-17.77-14.75a2.34,2.34,0,0,0-3,0c-6,5-12.32,10-17.29,15.87-.76.89-.08,2.08.76,2.64,6.64,4.38,11.42,10.68,18.22,15a2,2,0,1,0,2.16-3.33c-6.78-4.27-11.56-10.57-18.22-15,.26.88.51,1.76.77,2.64,4.73-5.57,10.89-10.38,16.62-15.09h-3q8.86,7.39,17.77,14.75l-.34-2.34c-4.29,6-10.57,10.35-16.17,15.3C542.64,525.57,545.67,528.3,547.64,526.55Z"/><path class="g" d="M384,645.43c6.55-4,11.35-10.52,8.2-17.74-3.38-7.75-12.35-8.09-20.16-9.19-6.51-.92-10.61-5.22-10.7-11.2-.07-4.32,1-8.09-1-12.21-2.94-5.93-11.38-6.7-17.55-5.73-17.62,2.77-15.17,20.07-9.24,31.19,4.37,8.22,11.58,13.79,19.83,18.76,7.71,4.64,17.79,9.63,27.37,7.44a15.19,15.19,0,0,0,3.29-1.32c2.41-1.21.26-4.54-2.16-3.33-7.67,3.84-17.28-1.12-23.88-4.71-7.71-4.19-14.46-9.07-19.14-16.08-3.56-5.32-5.87-11.62-5.7-17.87.17-6.06,4.57-9.15,10.77-10.36,7.22-1.41,13.7,1.61,13.57,8.74-.06,3.65-.72,7,.36,10.56,1,3.15,3.59,5.82,6.46,7.68,5.85,3.78,14,1.58,20.07,4.88,8.34,4.54,3.79,13.34-2.51,17.16C379.59,643.48,381.73,646.82,384,645.43Z"/><path class="g" d="M613.23,488.24c-10.4.42-20.78-1.38-31-2.8l1.28,2.84c4.71-7.2,6.28-15.61,8.93-23.52a1.91,1.91,0,0,0-1.49-2.37c-13-1.77-26.14-3-39.23-4.16l2.06,2.44c3.19-7.09,6.62-14.1,10.1-21.08a1.9,1.9,0,0,0-1.28-2.83c-11.51-2.32-23.21-3.37-34.86-4.95-2.69-.36-3.85,3.35-1.13,3.72,11.64,1.58,23.34,2.63,34.86,5-.43-1-.85-1.89-1.28-2.83-3.63,7.28-7.21,14.6-10.53,22-.57,1.27.83,2.33,2.06,2.44,12.71,1.17,25.46,2.3,38.09,4l-1.49-2.38c-2.54,7.58-4,15.7-8.5,22.6a1.89,1.89,0,0,0,1.28,2.83c10.59,1.47,21.39,3.37,32.15,2.93a1.93,1.93,0,1,0,0-3.85Z"/><path class="g" d="M537.89,652.54c-6,4.16-12.16,9.1-19.54,11.15-3.22.89-7,0-7-3.62,0-2.68,3.73-5.29,5.66-6.93,3.21-2.73,9.33-7.17,6.52-11.78-2.92-4.81-8.87-4.63-13.95-3.14-5.9,1.73-12.51,6.11-19,5.07-2.34-.37-5.83-2.6-4.44-4.95s4.41-4.33,6.64-6.15c3.39-2.77,9-7.42,6.2-12.07-3.21-5.28-9.37-4.48-14.57-2.4-3.6,1.43-6.91,3.33-10.67,4.45-3.49,1-9.47.8-10.88-3-1-2.69,5.52-5.91,7.37-6.94,2.86-1.6,5.92-2.89,8.81-4.45,2.37-1.28.22-4.62-2.15-3.34-5.62,3-12.37,5.31-16.5,10.12-4.35,5.05.27,9.93,5.95,11.66,6.66,2,13.78-2.31,19.47-4.81,2.74-1.21,6.14-2.51,8.68-.34s-.81,5-2.46,6.49c-3.42,3.15-10.22,6.69-10.6,11.6-.4,5.17,6.51,8.23,11.35,8.15,6.55-.11,12.55-3.76,18.63-5.54,2.57-.76,5.5-1.26,7.63.57,2.39,2.05-1.24,4.79-2.8,6.17-3.28,2.91-7,5.51-8.75,9.46-1.58,3.52.92,7.76,4.51,9.31,4.5,2,10-.41,13.93-2.36,5.08-2.48,9.55-5.86,14.12-9,2.16-1.48,0-4.84-2.16-3.33Z"/><path class="h" d="M482.81,506.32c-7.29-.08-15.25-.95-18.8-7.44-2.82-5.15-1.64-11.23-3.61-16.55-2.11-5.73-8.58-9.74-14.14-12.52-6.26-3.12-13.83-5.51-21.06-5.19-2.74.12-2.76,4,0,3.86,7.63-.34,15.35,2.61,21.72,6.15a25.37,25.37,0,0,1,8.48,7.15c1.91,2.7,1.78,6.25,2.22,9.33.68,4.82,1.78,9.52,5.35,13.32,4.7,5,13.11,5.67,19.84,5.74a1.93,1.93,0,1,0,0-3.85Z"/><path class="h" d="M480.16,514.66c-13.65,2.31-27-7.41-29.78-19.16-.57-2.44-4.69-1.4-4.12,1,3.3,14,19.18,24.54,35,21.86,2.71-.45,1.56-4.17-1.14-3.72Z"/><path class="f" d="M416.56,703.16c-10.75,1.25-21.27-1.42-27.54-9.82-5.58-7.46-5.62-17.13-2.18-25.32,1-2.33-3.15-3.33-4.12-1-4,9.54-3.27,20.42,3.12,29,6.84,9.15,19,12.4,30.72,11,2.7-.31,2.73-4.17,0-3.85Z"/><path class="f" d="M380.85,700.49c-9.74-7.06-10.79-18.48-9.71-29,.25-2.48-4-2.45-4.28,0-1.17,11.44.4,24,11,31.71,2.13,1.54,5.18-1.17,3-2.73Z"/><path class="f" d="M411.85,717.58c5.78,0,12.35,1,18-.54a2,2,0,1,0-1.13-3.72c-5.22,1.39-11.51.42-16.86.4a1.93,1.93,0,1,0,0,3.86Z"/><path class="d" d="M584.67,694.33c-1.87-4-5.87-7-10.57-4.23-3.53,2.08-5.27,6.73-2.8,10,3.38,4.48,12,3.91,16.52,1.44a9.57,9.57,0,0,0,3.93-13c-3.26-6.44-13-7.51-19.66-5.95-6.94,1.62-13.2,7.76-11.94,14.54,1.4,7.5,9.31,12.81,17.31,13.76,7.77.92,15.41-3.17,19.9-8.6a16.75,16.75,0,0,0-4-24.83c-7.89-4.89-19.15-3.82-27.34-.26-9.85,4.29-15.14,13.69-13.42,23.38,2.59,14.54,21.89,19.33,35.59,16,2.66-.64,1.53-4.36-1.14-3.72-9.23,2.22-19.68.71-26.35-5.81-5.42-5.28-5.29-13.62-1.38-19.54,5.72-8.69,20.49-12,30.33-7.58,5.19,2.34,7.37,6.91,7.11,12-.45,8.41-8.09,14.84-17.32,15.17-10.15.37-20.31-10.73-11.59-18.21,5.74-4.92,21.25-4.47,20.83,4.82-.23,5.16-10.65,8.49-14,4.06-2.06-2.74,3.48-7.49,5.84-2.43,1.05,2.25,5.19,1.26,4.12-1Z"/><path class="d" d="M573.14,557.08c0-7.46-12.83-7.46-12.83,0s12.83,7.46,12.83,0Z"/><path class="d" d="M543,550c0-5-8.55-5-8.55,0s8.55,5,8.55,0Z"/><path class="g" d="M480.42,687.29c0-7.46-12.83-7.46-12.83,0s12.83,7.46,12.83,0Z"/><path class="g" d="M475.66,662.83c0-5-8.55-5-8.55,0s8.55,5,8.55,0Z"/><path class="g" d="M494.51,681c0-2.49-4.27-2.49-4.27,0s4.27,2.48,4.27,0Z"/><path class="g" d="M449,669.14c0-2.49-4.28-2.49-4.28,0s4.28,2.49,4.28,0Z"/><path class="h" d="M638.17,651.08c0-7.46-12.82-7.46-12.82,0s12.82,7.46,12.82,0Z"/><path class="h" d="M621.79,672c0-5-8.55-5-8.55,0s8.55,5,8.55,0Z"/><path class="h" d="M604.52,653.24c0-2.49-4.27-2.49-4.27,0s4.27,2.49,4.27,0Z"/><path class="h" d="M648.46,669.93c0-2.49-4.27-2.49-4.27,0s4.27,2.49,4.27,0Z"/><path class="g" d="M387.64,561.76c.06-10.19,1.06-20.38-.66-30.5-.41-2.45-4.53-1.41-4.12,1,1.65,9.75.56,19.67.51,29.48,0,2.49,4.26,2.48,4.27,0Z"/><path class="e" d="M413.5,502.67c-7.52,0-15.12.06-22.56-1.08-5.88-.9-12.9-3-12.59-9.45.24-5.1,8.95-6.49,13.11-7.17,7-1.14,14.34-1.06,21.45-1.06a1.93,1.93,0,1,0,0-3.86c-8.55,0-17.22.05-25.6,1.75-6.23,1.27-12.34,4.16-13.24,10.34-2.35,16.11,29.35,14.38,39.43,14.39a1.93,1.93,0,1,0,0-3.86Z"/><path class="d" d="M389.08,459.19c5.11-9.41,14.62-16,21.87-24,1.74-1.91-1.27-4.65-3-2.73-7.48,8.23-17.26,15.07-22.55,24.78-1.21,2.22,2.48,4.18,3.7,1.95Z"/><path class="e" d="M666.51,551.26A128,128,0,0,1,653.68,541c-1.92-1.79-4.95.94-3,2.72A125.63,125.63,0,0,0,663.49,554c2.13,1.52,5.18-1.19,3-2.73Z"/><path class="f" d="M639.29,530.85a58.62,58.62,0,0,1-5.86-5c-1.87-1.84-4.89.9-3,2.72a60,60,0,0,0,5.87,5,2.36,2.36,0,0,0,3,0,1.8,1.8,0,0,0,0-2.73Z"/><path class="h" d="M348.58,670c-.53-8.38-17-9.47-23.58-10.06-9-.81-24.64-2.16-30,6.2-3.68,5.79,3.61,10.66,9,11.81,2.65.56,5.64.37,8.35.55,3.21.22,6.42.46,9.63.62,8.06.42,26,1.61,26.54-9.12.12-2.49-4.15-2.48-4.27,0-.35,7.2-17.28,5.5-22.27,5.27-4.18-.2-8.35-.58-12.54-.81-2.9-.16-5.49-.22-8.14-1.52-3.65-1.78-3.55-5.54,0-7.44,2.72-1.48,6.55-1.67,9.62-1.89a90.41,90.41,0,0,1,14.06.19A67.1,67.1,0,0,1,337.64,666c1.85.52,6.52,1.77,6.67,4C344.47,672.46,348.74,672.47,348.58,670Z"/><line class="d" x1="241.12" y1="915.39" x2="201.41" y2="879.47"/><path class="e" d="M242.63,914l-39.71-35.92c-1.95-1.76-5,1-3,2.73l39.7,35.92c2,1.76,5-1,3-2.73Z"/><path class="e" d="M368.61,1012.83c-16,1.28-35.17-10.44-39.05-24.62-.66-2.41-4.78-1.39-4.12,1,4.3,15.73,25.38,28.88,43.17,27.46,2.73-.22,2.75-4.08,0-3.86Z"/><path class="e" d="M325.51,1004.72c-8.1-6.79-13-18.21-10.56-28.11.61-2.42-3.51-3.45-4.12-1-2.8,11.23,2.41,24.12,11.66,31.87,2,1.69,5.05-1,3-2.73Z"/><path class="e" d="M384.36,1015.9c3.09,0,6.12-.17,8.51-2.14,2-1.68-1-4.4-3-2.73-1.43,1.19-3.68,1-5.48,1a1.93,1.93,0,1,0,0,3.85Z"/><path class="e" d="M367.65,895.05c-6.36-.16-13.25-.83-18-5.09-3.8-3.44-4.91-8.85-5.85-13.43-1.16-5.67-2.36-10.31-7.62-14-4.94-3.53-11.39-4.91-17.49-5.72-2.77-.36-5.64-.36-8.39-.86-3.71-.67-6.38-3.58-8.27-6.31-4.06-5.88-3.44-12.09-4.7-18.58-2.29-11.81-15.12-14.91-26.63-15.25a1.93,1.93,0,1,0,0,3.86c6.28.18,13.21.79,18.11,4.71,5.31,4.25,4.21,10.53,5.23,16.19a27.81,27.81,0,0,0,7.69,15.07c4.6,4.52,10.61,4.21,16.79,5s12.95,2.51,17.39,6.9,3.77,11.82,5.67,17.16c3.85,10.79,14.38,14,26,14.23a1.93,1.93,0,1,0,0-3.85Z"/><polygon class="d" points="267.08 995.29 263.52 998.45 198.88 939.31 202.44 936.14 267.08 995.29"/><polygon class="f" points="296.08 749 291.11 753.41 250.65 716.39 255.61 711.98 296.08 749"/><polygon class="g" points="302.65 717.21 296.51 722.66 291.2 717.81 297.34 712.35 302.65 717.21"/><path class="g" d="M299.62,714.48l-6.13,5.46h6l-5.31-4.86v5.45l6.14-5.46h-6l5.3,4.86c3.88,3.55,9.92-1.91,6.05-5.45l-5.31-4.86a4.65,4.65,0,0,0-6,0l-6.14,5.46a3.62,3.62,0,0,0,0,5.45l5.31,4.86a4.64,4.64,0,0,0,6,0l6.14-5.46C309.6,716.44,303.55,711,299.62,714.48Z"/><path class="f" d="M370.43,856.9c-.14,7.26,7.26,7.76,13.56,8.24,2.83.21,7.22.91,8.47,3.62,1.05,2.26-.08,5.13-.75,7.34-1.53,5.06-3.22,10.19-.48,15.17,2.94,5.35,10.18,7.05,16.17,7.62,4.83.46,13.89.2,15.58-5.15a7.41,7.41,0,0,0-1.81-7.4c-2.49-2.18-5.68-2.15-9-2.17a12.74,12.74,0,0,1-6.17-1.29c-1.6-.85-.75-2.89-.37-4.11,1.16-3.79,2.41-7.25,2-11.24-.77-6.74-6.52-11.4-13-14-6.08-2.48-22.82-6-24.19,3.41-.36,2.46,3.92,2.43,4.28,0,.64-4.41,13.38-1.45,15.78-.75,8.4,2.45,14.43,8.37,12.6,16.72-1.2,5.43-4.9,11.15,2.55,14.16,3.15,1.27,6.67.89,10,1.07a3.47,3.47,0,0,1,3.37,4.09c-.24,1.57-2.35,2.14-3.76,2.5-6.2,1.58-14.93.25-19.39-4.09-4.16-4.06-.75-10.82.5-15.31s1-8.7-3.38-11.6c-2.53-1.67-6-2.14-9-2.41-3.7-.33-9.37.19-9.28-4.38C374.76,854.41,370.48,854.42,370.43,856.9Z"/><path class="d" d="M427.35,840.12c1.1-8.88-10.64-7.09-17.42-8.84-23.88-6.17,9.66-26.82-12.17-38.59-6.93-3.74-28.87-5.92-27.49,3.95s11.81,3.53,19.26,8.42c7,4.62-5.26,12.53-.62,24.71C394.51,844.43,426.21,849.3,427.35,840.12Z"/><path class="g" d="M301.9,1067.42c9.65-11,17.84-23.28,26.3-35.08l-3.36.39c11.12,10.29,23.16,20.44,32.8,31.9.62-1,1.23-1.94,1.85-2.9q-29.55,1.14-59.11,2.4c-2.74.12-2.75,4,0,3.85,19.7-.87,39.41-1.63,59.11-2.4,1.44,0,2.89-1.66,1.84-2.9-9.87-11.73-22.08-22.14-33.47-32.68a2.3,2.3,0,0,0-3.35.39c-8.26,11.52-16.22,23.52-25.64,34.3C297.19,1066.62,300.19,1069.37,301.9,1067.42Z"/><path class="f" d="M202.53,843.16c13.14.08,26.22,1.63,39.2-1a2,2,0,0,0,1.57-1.86c-.6-11.66-1.11-23.32-1.61-35a2.08,2.08,0,0,0-2.14-1.93c-13-.54-26.52-1.32-39.45.28a1.93,1.93,0,0,0-1.49,2.37c2.16,11.76-.58,23.86,1.86,35.68.5,2.44,4.62,1.4,4.12-1-2.43-11.8.3-23.9-1.86-35.68l-1.5,2.38c12.52-1.55,25.74-.67,38.32-.14l-2.13-1.93c.5,11.66,1,23.32,1.61,35l1.57-1.86c-12.58,2.52-25.34.91-38.07.84A1.93,1.93,0,1,0,202.53,843.16Z"/><path class="h" d="M247.46,1063.08c10.36-9.34,22-16.86,29.92-28.44-11-9-32.21-26.74-32.21-26.74s-23.59,19.38-30.73,28.06C222.53,1041,235.59,1055.94,247.46,1063.08Z"/><path class="e" d="M336.4,794.05c5.88-5.2,12.33-9.76,16.84-16.08a1.79,1.79,0,0,0-.33-2.34q-8.93-7.33-17.77-14.75a2.36,2.36,0,0,0-3,0c-6,5-12.31,10-17.29,15.87-.76.9-.08,2.08.77,2.64,6.64,4.38,11.42,10.68,18.22,15A2,2,0,1,0,336,791c-6.79-4.27-11.57-10.57-18.22-15,.25.88.51,1.76.76,2.64,4.74-5.57,10.89-10.37,16.63-15.09h-3Q341,771,349.88,778.36l-.33-2.34c-4.3,6-10.58,10.35-16.17,15.31C331.41,793.07,334.43,795.8,336.4,794.05Z"/><path class="g" d="M172.79,912.93c6.55-4,11.35-10.52,8.19-17.74-3.38-7.75-12.35-8.09-20.16-9.19-6.51-.92-10.6-5.22-10.7-11.2-.07-4.32,1-8.09-1-12.2-3-5.94-11.39-6.71-17.55-5.74-17.63,2.77-15.17,20.07-9.25,31.19,4.38,8.22,11.58,13.79,19.83,18.76,7.72,4.65,17.79,9.63,27.37,7.44a15.07,15.07,0,0,0,3.3-1.32c2.41-1.21.25-4.54-2.16-3.33-7.67,3.84-17.28-1.12-23.89-4.71-7.71-4.19-14.45-9.07-19.14-16.08-3.55-5.32-5.86-11.62-5.69-17.87.17-6.06,4.57-9.15,10.76-10.36,7.22-1.41,13.7,1.61,13.58,8.74-.06,3.65-.72,7,.35,10.56,1,3.15,3.6,5.82,6.47,7.68,5.85,3.78,14,1.58,20.06,4.89,8.35,4.53,3.8,13.33-2.5,17.15C168.35,911,170.49,914.32,172.79,912.93Z"/><path class="g" d="M402,755.74c-10.4.42-20.79-1.38-31-2.79.42.94.85,1.88,1.28,2.83,4.71-7.2,6.28-15.61,8.93-23.52a1.91,1.91,0,0,0-1.49-2.37c-13-1.77-26.14-3-39.23-4.16.68.82,1.37,1.63,2.06,2.45,3.18-7.1,6.62-14.11,10.1-21.09a1.91,1.91,0,0,0-1.28-2.83c-11.52-2.32-23.21-3.37-34.86-5-2.7-.36-3.86,3.35-1.14,3.72,11.65,1.58,23.35,2.63,34.86,5-.42-1-.85-1.89-1.27-2.83-3.63,7.28-7.21,14.6-10.53,22-.57,1.27.83,2.33,2.06,2.44,12.71,1.17,25.45,2.31,38.09,4-.5-.79-1-1.58-1.49-2.37-2.54,7.57-4,15.69-8.51,22.59a1.89,1.89,0,0,0,1.28,2.83c10.59,1.47,21.4,3.37,32.16,2.93,2.74-.11,2.75-4,0-3.85Z"/><path class="g" d="M326.66,920c-6,4.16-12.16,9.1-19.54,11.15-3.22.9-7,0-7-3.62,0-2.68,3.74-5.29,5.67-6.93,3.2-2.72,9.32-7.17,6.52-11.78-2.93-4.81-8.88-4.63-13.95-3.14-5.9,1.73-12.52,6.11-19,5.07-2.33-.37-5.82-2.6-4.44-4.95s4.41-4.33,6.64-6.15c3.4-2.77,9-7.42,6.2-12.07-3.2-5.28-9.36-4.48-14.57-2.4-3.59,1.44-6.91,3.33-10.66,4.45-3.49,1-9.47.8-10.88-3-1-2.69,5.51-5.9,7.36-6.94,2.87-1.6,5.93-2.89,8.82-4.45,2.36-1.28.21-4.62-2.16-3.33-5.62,3-12.36,5.3-16.5,10.11-4.34,5.05.28,9.93,6,11.67,6.65,2,13.77-2.32,19.46-4.82,2.75-1.21,6.14-2.51,8.69-.34s-.81,5-2.46,6.5c-3.43,3.14-10.23,6.68-10.61,11.59-.4,5.17,6.51,8.23,11.35,8.15,6.55-.11,12.56-3.76,18.63-5.54,2.57-.76,5.5-1.25,7.64.57,2.39,2.05-1.25,4.79-2.81,6.17-3.28,2.91-7,5.51-8.75,9.46-1.58,3.52.92,7.76,4.52,9.32,4.5,2,10-.42,13.93-2.36,5.07-2.49,9.54-5.87,14.11-9,2.16-1.48,0-4.84-2.15-3.33Z"/><path class="h" d="M271.57,773.82c-7.29-.08-15.25-1-18.8-7.44-2.82-5.15-1.64-11.23-3.6-16.55-2.11-5.73-8.59-9.74-14.15-12.52-6.25-3.12-13.82-5.5-21.05-5.19-2.75.12-2.76,4,0,3.86,7.63-.34,15.35,2.61,21.72,6.15a25.24,25.24,0,0,1,8.47,7.16c1.91,2.69,1.78,6.24,2.22,9.32.69,4.82,1.79,9.52,5.35,13.32,4.71,5,13.12,5.67,19.84,5.74a1.93,1.93,0,1,0,0-3.85Z"/><path class="h" d="M268.93,782.17c-13.66,2.3-27-7.42-29.78-19.17-.57-2.43-4.7-1.4-4.12,1,3.29,14,19.18,24.55,35,21.86,2.7-.45,1.55-4.17-1.14-3.71Z"/><path class="f" d="M205.33,970.66c-10.76,1.25-21.27-1.42-27.54-9.82-5.58-7.46-5.62-17.13-2.18-25.32,1-2.33-3.16-3.32-4.13-1-4,9.54-3.27,20.42,3.13,29,6.84,9.15,19,12.4,30.72,11,2.69-.31,2.73-4.17,0-3.85Z"/><path class="f" d="M169.61,968c-9.74-7.06-10.78-18.48-9.71-29,.26-2.48-4-2.45-4.27,0-1.17,11.44.4,24,11,31.71,2.13,1.54,5.17-1.17,3-2.73Z"/><path class="f" d="M200.62,985.08c5.78,0,12.35,1,18-.54a2,2,0,1,0-1.14-3.72c-5.21,1.39-11.5.42-16.85.41a1.93,1.93,0,1,0,0,3.85Z"/><path class="d" d="M373.44,961.83c-1.87-4-5.88-7-10.57-4.23-3.53,2.08-5.27,6.73-2.8,10,3.38,4.48,12,3.91,16.51,1.45a9.57,9.57,0,0,0,3.93-13c-3.25-6.44-13-7.5-19.66-5.95-6.94,1.62-13.2,7.76-11.93,14.54,1.4,7.5,9.31,12.81,17.31,13.76,7.76.93,15.41-3.17,19.89-8.6a16.74,16.74,0,0,0-4-24.83c-7.89-4.89-19.15-3.82-27.34-.26-9.86,4.29-15.14,13.69-13.42,23.38,2.58,14.54,21.89,19.33,35.58,16,2.66-.64,1.53-4.36-1.13-3.72-9.23,2.22-19.68.71-26.36-5.81-5.42-5.28-5.28-13.62-1.38-19.54,5.73-8.69,20.49-12,30.34-7.58,5.19,2.34,7.37,6.91,7.1,12-.44,8.41-8.09,14.84-17.31,15.17-10.16.37-20.31-10.73-11.6-18.21,5.74-4.92,21.26-4.47,20.84,4.83-.24,5.15-10.65,8.48-14,4-2.07-2.74,3.47-7.49,5.83-2.43,1.06,2.25,5.2,1.26,4.13-1Z"/><path class="d" d="M361.91,824.58c0-7.46-12.83-7.46-12.83,0s12.83,7.47,12.83,0Z"/><path class="d" d="M331.78,817.48c0-5-8.55-5-8.55,0s8.55,5,8.55,0Z"/><path class="g" d="M269.18,954.79c0-7.46-12.82-7.46-12.82,0s12.82,7.46,12.82,0Z"/><path class="g" d="M264.42,930.33c0-5-8.55-5-8.55,0s8.55,5,8.55,0Z"/><path class="g" d="M283.28,948.48c0-2.49-4.28-2.49-4.28,0s4.28,2.48,4.28,0Z"/><path class="g" d="M237.79,936.64c0-2.49-4.27-2.49-4.27,0s4.27,2.49,4.27,0Z"/><path class="h" d="M426.94,918.58c0-7.46-12.83-7.46-12.83,0s12.83,7.46,12.83,0Z"/><path class="h" d="M410.56,939.53c0-5-8.55-5-8.55,0s8.55,5,8.55,0Z"/><path class="h" d="M393.29,920.74c0-2.49-4.28-2.49-4.28,0s4.28,2.49,4.28,0Z"/><path class="h" d="M437.23,937.43c0-2.49-4.28-2.49-4.28,0s4.28,2.49,4.28,0Z"/><path class="g" d="M176.41,829.26c.05-10.19,1.06-20.38-.66-30.5-.42-2.45-4.53-1.41-4.12,1,1.65,9.75.56,19.67.5,29.48,0,2.49,4.27,2.48,4.28,0Z"/><path class="e" d="M202.26,770.17c-7.51,0-15.12.06-22.55-1.08-5.89-.9-12.9-3-12.6-9.45.24-5.09,8.95-6.49,13.12-7.17,7-1.14,14.33-1.06,21.45-1.06a1.93,1.93,0,1,0,0-3.86c-8.55,0-17.22.05-25.61,1.75-6.22,1.27-12.33,4.16-13.23,10.34C160.48,775.75,192.19,774,202.26,774a1.93,1.93,0,1,0,0-3.86Z"/><path class="d" d="M177.84,726.69c5.12-9.4,14.63-16,21.88-24,1.73-1.91-1.28-4.65-3-2.73-7.48,8.23-17.26,15.08-22.54,24.78-1.21,2.23,2.48,4.18,3.69,2Z"/><path class="e" d="M455.27,818.76a126.52,126.52,0,0,1-12.82-10.25c-1.93-1.79-4.95.94-3,2.72a126.73,126.73,0,0,0,12.83,10.26c2.14,1.52,5.19-1.19,3-2.73Z"/><path class="f" d="M428.06,798.35a59.89,59.89,0,0,1-5.87-5c-1.87-1.84-4.88.9-3,2.73a61.3,61.3,0,0,0,5.87,5,2.36,2.36,0,0,0,3,0,1.81,1.81,0,0,0,0-2.73Z"/><path class="h" d="M137.35,937.49c-.53-8.38-17-9.47-23.58-10.06-9-.81-24.64-2.16-30,6.2-3.68,5.79,3.6,10.66,9,11.81,2.65.56,5.63.37,8.35.55,3.21.22,6.41.46,9.63.62,8.06.42,26,1.61,26.54-9.12.12-2.49-4.16-2.48-4.28,0-.34,7.2-17.28,5.5-22.26,5.27-4.19-.2-8.36-.57-12.54-.8-2.91-.16-5.5-.23-8.15-1.53-3.65-1.78-3.54-5.54,0-7.44,2.72-1.48,6.55-1.67,9.62-1.89a91.79,91.79,0,0,1,14.07.19,67.14,67.14,0,0,1,12.63,2.17c1.86.52,6.53,1.77,6.67,4C133.23,940,137.51,940,137.35,937.49Z"/><line class="d" x1="373.87" y1="263.53" x2="334.17" y2="227.61"/><path class="e" d="M375.39,262.16l-39.71-35.92c-1.95-1.76-5,1-3,2.73l39.7,35.92c1.95,1.76,5-1,3-2.73Z"/><path class="e" d="M501.37,361c-16,1.27-35.17-10.45-39.05-24.63-.66-2.41-4.78-1.39-4.12,1,4.3,15.72,25.38,28.88,43.17,27.46,2.73-.22,2.75-4.08,0-3.86Z"/><path class="e" d="M458.27,352.85c-8.1-6.79-13-18.21-10.56-28.11.61-2.42-3.51-3.45-4.12-1-2.8,11.22,2.41,24.11,11.66,31.86,2,1.69,5.05-1,3-2.73Z"/><path class="e" d="M517.12,364c3.09,0,6.12-.17,8.51-2.15,2-1.68-1-4.4-3-2.72-1.43,1.18-3.68,1-5.48,1a1.93,1.93,0,1,0,0,3.86Z"/><path class="e" d="M500.41,243.18c-6.37-.16-13.25-.83-18-5.09-3.81-3.44-4.91-8.84-5.85-13.42-1.16-5.67-2.37-10.31-7.62-14.06-4.94-3.52-11.39-4.91-17.49-5.71-2.78-.37-5.65-.37-8.39-.86-3.71-.68-6.38-3.59-8.27-6.32-4.06-5.88-3.44-12.09-4.7-18.58-2.29-11.81-15.12-14.91-26.63-15.25a1.93,1.93,0,1,0,0,3.86c6.27.18,13.21.79,18.11,4.72,5.31,4.24,4.2,10.52,5.23,16.18a27.81,27.81,0,0,0,7.69,15.07c4.6,4.52,10.61,4.21,16.79,5s12.94,2.51,17.39,6.9,3.77,11.82,5.67,17.16c3.85,10.79,14.38,13.95,26,14.24a1.93,1.93,0,1,0,0-3.86Z"/><polygon class="d" points="399.84 343.42 396.28 346.58 331.64 287.44 335.2 284.28 399.84 343.42"/><polygon class="f" points="428.83 97.13 423.87 101.54 383.41 64.52 388.37 60.11 428.83 97.13"/><polygon class="g" points="435.41 65.34 429.27 70.8 423.96 65.94 430.1 60.48 435.41 65.34"/><path class="g" d="M432.38,62.61l-6.13,5.46h6L427,63.21v5.46l6.14-5.46h-6.05l5.31,4.86c3.88,3.54,9.92-1.91,6.05-5.46l-5.31-4.86a4.68,4.68,0,0,0-6.05,0l-6.13,5.46a3.63,3.63,0,0,0,0,5.46l5.31,4.85a4.64,4.64,0,0,0,6,0l6.14-5.45C442.36,64.57,436.31,59.12,432.38,62.61Z"/><path class="f" d="M503.19,205c-.15,7.26,7.26,7.75,13.55,8.23,2.84.22,7.23.92,8.48,3.62,1,2.26-.08,5.13-.75,7.34-1.53,5.06-3.22,10.19-.48,15.17,2.94,5.35,10.18,7.06,16.17,7.62,4.83.46,13.89.2,15.58-5.15a7.4,7.4,0,0,0-1.81-7.39c-2.49-2.19-5.68-2.16-9-2.18A12.74,12.74,0,0,1,538.8,231c-1.6-.85-.75-2.89-.37-4.11,1.16-3.78,2.41-7.25,2-11.24-.77-6.74-6.52-11.4-13-14-6.08-2.48-22.82-6-24.19,3.42-.36,2.46,3.92,2.43,4.28,0,.64-4.42,13.38-1.46,15.78-.76,8.4,2.45,14.43,8.37,12.6,16.73-1.2,5.42-4.9,11.15,2.55,14.15,3.14,1.27,6.67.89,10,1.08a3.46,3.46,0,0,1,3.37,4.08c-.24,1.57-2.35,2.14-3.76,2.5-6.2,1.59-14.93.26-19.39-4.09-4.16-4-.75-10.82.5-15.31s1-8.7-3.38-11.59c-2.53-1.68-6-2.14-9-2.42-3.69-.33-9.37.19-9.27-4.37C507.52,202.55,503.24,202.55,503.19,205Z"/><path class="d" d="M560.11,188.26c1.1-8.89-10.64-7.1-17.42-8.85-23.88-6.16,9.66-26.82-12.17-38.59-6.93-3.74-28.88-5.91-27.5,4s11.82,3.54,19.27,8.43c7,4.61-5.26,12.52-.62,24.7C527.27,192.57,559,197.44,560.11,188.26Z"/><path class="g" d="M434.66,415.55c9.64-11,17.83-23.28,26.3-35.08l-3.36.39c11.12,10.29,23.16,20.45,32.8,31.9l1.85-2.9q-29.56,1.14-59.11,2.4c-2.74.12-2.75,4,0,3.86q29.55-1.31,59.11-2.4c1.44-.06,2.89-1.66,1.84-2.91-9.88-11.73-22.08-22.14-33.47-32.67a2.31,2.31,0,0,0-3.36.39c-8.25,11.51-16.21,23.52-25.63,34.3C430,414.76,433,417.51,434.66,415.55Z"/><path class="f" d="M335.29,191.3c13.14.07,26.22,1.62,39.2-1a2,2,0,0,0,1.57-1.86c-.6-11.66-1.11-23.32-1.61-35a2.08,2.08,0,0,0-2.14-1.93c-13-.54-26.52-1.32-39.45.28a1.94,1.94,0,0,0-1.5,2.37c2.16,11.76-.57,23.86,1.86,35.68.51,2.44,4.63,1.41,4.13-1-2.43-11.8.3-23.9-1.86-35.68l-1.5,2.37c12.52-1.55,25.74-.66,38.32-.14l-2.14-1.93c.51,11.66,1,23.32,1.62,35l1.57-1.86c-12.58,2.52-25.34.91-38.07.84A1.93,1.93,0,1,0,335.29,191.3Z"/><path class="h" d="M380.22,411.22c10.35-9.34,22-16.87,29.92-28.44-11-9-32.21-26.74-32.21-26.74s-23.59,19.38-30.73,28C355.29,389.13,368.35,404.07,380.22,411.22Z"/><path class="e" d="M469.16,142.19C475,137,481.49,132.42,486,126.1a1.78,1.78,0,0,0-.33-2.33q-8.93-7.33-17.78-14.76a2.34,2.34,0,0,0-3,0c-6,5-12.31,10-17.29,15.87-.76.9-.08,2.09.77,2.64,6.64,4.38,11.42,10.69,18.22,15a2,2,0,1,0,2.16-3.33c-6.79-4.28-11.57-10.58-18.22-15,.25.88.51,1.76.76,2.64,4.74-5.57,10.89-10.37,16.62-15.09h-3q8.86,7.4,17.77,14.76l-.33-2.34c-4.3,6-10.58,10.34-16.17,15.3C464.17,141.2,467.19,143.93,469.16,142.19Z"/><path class="g" d="M305.55,261.07c6.55-4,11.34-10.53,8.19-17.75-3.38-7.75-12.35-8.08-20.16-9.19-6.51-.92-10.6-5.22-10.7-11.19-.07-4.33,1-8.1-1-12.21-3-5.93-11.39-6.71-17.56-5.74-17.62,2.77-15.16,20.07-9.24,31.2,4.38,8.21,11.58,13.79,19.83,18.75,7.72,4.65,17.79,9.63,27.37,7.44a15.55,15.55,0,0,0,3.3-1.31c2.41-1.21.25-4.54-2.16-3.33-7.67,3.84-17.28-1.13-23.89-4.71-7.71-4.19-14.45-9.08-19.14-16.09-3.55-5.31-5.86-11.62-5.69-17.87.16-6.06,4.57-9.15,10.76-10.36,7.22-1.41,13.7,1.61,13.58,8.75-.06,3.64-.72,6.95.35,10.55.95,3.15,3.6,5.82,6.47,7.68,5.85,3.79,14,1.59,20.06,4.89,8.35,4.54,3.79,13.34-2.5,17.16C301.11,259.11,303.25,262.46,305.55,261.07Z"/><path class="g" d="M534.76,103.87c-10.4.43-20.79-1.38-31-2.79.42.94.85,1.89,1.28,2.83,4.71-7.2,6.28-15.61,8.93-23.52a1.92,1.92,0,0,0-1.5-2.37c-13-1.76-26.13-3-39.22-4.15l2.06,2.44c3.18-7.1,6.62-14.1,10.1-21.08a1.91,1.91,0,0,0-1.28-2.84c-11.52-2.31-23.21-3.37-34.86-4.94-2.7-.37-3.86,3.35-1.14,3.72,11.65,1.57,23.35,2.63,34.86,4.94-.42-.94-.85-1.89-1.28-2.83-3.62,7.28-7.2,14.6-10.52,22-.57,1.27.83,2.33,2.06,2.45,12.71,1.16,25.45,2.3,38.09,4l-1.5-2.37c-2.54,7.58-4,15.7-8.5,22.6a1.89,1.89,0,0,0,1.28,2.83c10.59,1.46,21.4,3.37,32.16,2.93a1.93,1.93,0,1,0,0-3.86Z"/><path class="g" d="M459.41,268.18c-6,4.15-12.15,9.1-19.53,11.15-3.22.89-7-.05-7-3.62,0-2.68,3.74-5.29,5.66-6.93,3.21-2.73,9.33-7.18,6.53-11.79-2.93-4.81-8.88-4.63-13.95-3.14-5.9,1.73-12.52,6.11-19,5.08-2.34-.38-5.82-2.6-4.44-5s4.41-4.33,6.64-6.15c3.4-2.77,9-7.42,6.2-12.06-3.2-5.29-9.36-4.49-14.57-2.41-3.59,1.44-6.91,3.34-10.66,4.45-3.5,1-9.47.8-10.88-3-1-2.69,5.51-5.9,7.36-6.94,2.87-1.6,5.93-2.89,8.82-4.45,2.36-1.28.21-4.61-2.16-3.33-5.62,3-12.37,5.31-16.5,10.11-4.34,5.06.28,9.93,5.95,11.67,6.66,2,13.78-2.31,19.47-4.82,2.75-1.2,6.14-2.51,8.69-.34s-.81,5-2.47,6.5c-3.42,3.15-10.22,6.68-10.6,11.6-.4,5.17,6.51,8.22,11.35,8.14,6.55-.11,12.56-3.76,18.63-5.54,2.57-.75,5.5-1.25,7.64.58,2.39,2-1.25,4.78-2.81,6.17-3.28,2.91-7,5.5-8.75,9.45-1.58,3.52.92,7.76,4.52,9.32,4.5,1.95,10-.42,13.93-2.36,5.07-2.49,9.54-5.87,14.11-9,2.16-1.49,0-4.84-2.16-3.33Z"/><path class="h" d="M404.33,122c-7.29-.08-15.25-1-18.8-7.44-2.82-5.15-1.64-11.23-3.6-16.54-2.12-5.73-8.59-9.75-14.15-12.52-6.25-3.13-13.82-5.51-21-5.2-2.75.12-2.76,4,0,3.86,7.62-.33,15.34,2.62,21.72,6.15a25.34,25.34,0,0,1,8.47,7.16c1.91,2.69,1.78,6.25,2.22,9.32.69,4.82,1.79,9.53,5.35,13.32,4.71,5,13.11,5.68,19.84,5.75a1.93,1.93,0,1,0,0-3.86Z"/><path class="h" d="M401.69,130.3c-13.66,2.31-27-7.42-29.78-19.17-.58-2.43-4.7-1.4-4.12,1,3.29,13.94,19.18,24.54,35,21.86,2.71-.46,1.56-4.18-1.13-3.72Z"/><path class="f" d="M338.09,318.79c-10.76,1.25-21.27-1.41-27.55-9.81-5.57-7.47-5.61-17.14-2.17-25.32,1-2.33-3.16-3.33-4.13-1-4,9.55-3.27,20.42,3.13,29,6.84,9.16,19,12.4,30.72,11,2.69-.32,2.73-4.18,0-3.86Z"/><path class="f" d="M302.37,316.13c-9.74-7.07-10.78-18.48-9.71-29,.26-2.47-4-2.45-4.27,0-1.17,11.44.4,24.05,11,31.72,2.13,1.54,5.17-1.17,3-2.73Z"/><path class="f" d="M333.38,333.22c5.78,0,12.35.95,18-.54a2,2,0,1,0-1.14-3.72c-5.22,1.38-11.5.41-16.85.4a1.93,1.93,0,1,0,0,3.86Z"/><path class="d" d="M506.19,310c-1.86-4-5.87-7-10.57-4.24-3.52,2.08-5.27,6.73-2.79,10,3.38,4.49,12,3.92,16.51,1.45a9.58,9.58,0,0,0,3.93-13c-3.25-6.43-13-7.5-19.66-5.95-6.94,1.62-13.2,7.76-11.93,14.54,1.4,7.51,9.31,12.81,17.31,13.77,7.76.92,15.4-3.18,19.89-8.61a16.74,16.74,0,0,0-4-24.83c-7.89-4.89-19.15-3.81-27.34-.25-9.86,4.28-15.14,13.69-13.42,23.37,2.58,14.54,21.89,19.33,35.58,16,2.66-.64,1.53-4.36-1.13-3.72-9.23,2.21-19.68.7-26.36-5.81-5.42-5.29-5.28-13.62-1.38-19.55,5.73-8.69,20.49-12,30.34-7.58,5.19,2.34,7.37,6.92,7.1,12-.44,8.41-8.09,14.84-17.32,15.18-10.15.37-20.3-10.74-11.59-18.21,5.74-4.92,21.26-4.48,20.84,4.82-.24,5.15-10.65,8.48-14,4.06-2.07-2.75,3.47-7.49,5.83-2.44,1.06,2.26,5.19,1.27,4.12-1Z"/><path class="d" d="M494.66,172.72c0-7.47-12.82-7.47-12.82,0s12.82,7.46,12.82,0Z"/><path class="d" d="M464.54,165.61c0-5-8.56-5-8.56,0s8.56,5,8.56,0Z"/><path class="g" d="M401.94,302.92c0-7.46-12.82-7.46-12.82,0s12.82,7.46,12.82,0Z"/><path class="g" d="M397.18,278.46c0-5-8.55-5-8.55,0s8.55,5,8.55,0Z"/><path class="g" d="M416,296.61c0-2.49-4.28-2.49-4.28,0s4.28,2.49,4.28,0Z"/><path class="g" d="M370.55,284.77c0-2.48-4.27-2.48-4.27,0s4.27,2.49,4.27,0Z"/><path class="h" d="M559.7,266.71c0-7.46-12.83-7.46-12.83,0s12.83,7.47,12.83,0Z"/><path class="h" d="M543.32,287.67c0-5-8.55-5-8.55,0s8.55,5,8.55,0Z"/><path class="h" d="M526.05,268.87c0-2.48-4.28-2.48-4.28,0s4.28,2.49,4.28,0Z"/><path class="h" d="M570,285.56c0-2.49-4.28-2.49-4.28,0s4.28,2.49,4.28,0Z"/><path class="g" d="M309.17,177.39c.05-10.19,1.06-20.37-.66-30.5-.42-2.45-4.54-1.4-4.12,1,1.65,9.75.55,19.66.5,29.47,0,2.49,4.27,2.49,4.28,0Z"/><path class="e" d="M335,118.3c-7.52,0-15.12.06-22.55-1.08-5.89-.9-12.9-3-12.6-9.45.24-5.09,8.95-6.49,13.11-7.16,7-1.15,14.34-1.07,21.46-1.07a1.93,1.93,0,1,0,0-3.86c-8.55,0-17.22.06-25.61,1.76-6.22,1.26-12.33,4.15-13.23,10.33C293.24,123.88,325,122.16,335,122.16a1.93,1.93,0,1,0,0-3.86Z"/><path class="d" d="M310.6,74.82c5.12-9.4,14.63-16,21.88-24,1.73-1.9-1.28-4.65-3-2.73-7.48,8.23-17.26,15.08-22.54,24.78-1.21,2.23,2.48,4.18,3.69,1.95Z"/><path class="e" d="M588,166.9a127.85,127.85,0,0,1-12.83-10.26c-1.92-1.79-4.94.94-3,2.73A128.14,128.14,0,0,0,585,169.63c2.14,1.52,5.19-1.19,3-2.73Z"/><path class="f" d="M560.82,146.48a59.89,59.89,0,0,1-5.87-5c-1.87-1.84-4.88.9-3,2.73a61,61,0,0,0,5.86,5,2.36,2.36,0,0,0,3,0,1.81,1.81,0,0,0,0-2.73Z"/><path class="h" d="M270.11,285.62c-.53-8.37-17-9.46-23.58-10.06-9-.8-24.64-2.16-30,6.21-3.68,5.78,3.6,10.65,9,11.8,2.65.56,5.63.37,8.35.56,3.21.21,6.41.45,9.63.62,8.05.41,26,1.6,26.54-9.13.12-2.49-4.16-2.48-4.28,0-.34,7.2-17.28,5.5-22.26,5.27-4.19-.19-8.36-.57-12.54-.8-2.91-.16-5.5-.23-8.15-1.52-3.65-1.79-3.54-5.55,0-7.45,2.72-1.48,6.55-1.67,9.62-1.89a91.79,91.79,0,0,1,14.07.19,68,68,0,0,1,12.63,2.17c1.86.52,6.53,1.77,6.67,4C266,288.09,270.27,288.11,270.11,285.62Z"/><line class="d" x1="673.03" y1="380.32" x2="633.32" y2="344.4"/><path class="e" d="M674.54,379,634.83,343c-1.94-1.77-5,1-3,2.72l39.71,35.92c2,1.76,5-1,3-2.73Z"/><path class="e" d="M800.53,477.76c-16,1.27-35.18-10.45-39-24.63-.66-2.41-4.79-1.39-4.13,1,4.3,15.72,25.38,28.88,43.18,27.46,2.72-.22,2.74-4.08,0-3.86Z"/><path class="e" d="M757.43,469.64c-8.11-6.79-13-18.21-10.56-28.11.6-2.42-3.52-3.45-4.12-1-2.81,11.22,2.4,24.11,11.65,31.86,2,1.69,5.05-1,3-2.73Z"/><path class="e" d="M816.27,480.83c3.09,0,6.12-.17,8.51-2.15,2-1.68-1-4.4-3-2.72-1.43,1.18-3.68,1-5.49,1a1.93,1.93,0,1,0,0,3.86Z"/><path class="e" d="M799.56,360c-6.36-.16-13.25-.83-18-5.09-3.81-3.43-4.91-8.84-5.85-13.42-1.17-5.67-2.37-10.31-7.62-14.06-4.94-3.52-11.39-4.91-17.5-5.71-2.77-.37-5.64-.37-8.39-.86-3.7-.68-6.38-3.58-8.27-6.32-4.05-5.87-3.44-12.09-4.69-18.58C727,284.12,714.15,281,702.65,280.68a1.93,1.93,0,1,0,0,3.86c6.27.19,13.2.79,18.1,4.72,5.31,4.24,4.21,10.52,5.23,16.18a27.76,27.76,0,0,0,7.7,15.07c4.59,4.52,10.6,4.21,16.79,5s12.94,2.52,17.38,6.9,3.78,11.82,5.68,17.16c3.85,10.79,14.37,14,26,14.24a1.93,1.93,0,1,0,0-3.86Z"/><polygon class="d" points="698.99 460.21 695.44 463.38 630.8 404.23 634.35 401.07 698.99 460.21"/><polygon class="f" points="727.99 213.92 723.03 218.34 682.56 181.31 687.53 176.9 727.99 213.92"/><polygon class="g" points="734.56 182.13 728.42 187.59 723.12 182.73 729.25 177.27 734.56 182.13"/><path class="g" d="M731.54,179.4l-6.14,5.46h6.05L726.14,180v5.46l6.13-5.46h-6l5.31,4.86c3.87,3.54,9.92-1.91,6-5.46l-5.31-4.86a4.66,4.66,0,0,0-6,0L720.09,180a3.63,3.63,0,0,0,0,5.46l5.31,4.86a4.68,4.68,0,0,0,6.05,0l6.13-5.46C741.52,181.36,735.47,175.91,731.54,179.4Z"/><path class="f" d="M802.34,321.83c-.14,7.26,7.26,7.76,13.56,8.23,2.83.22,7.22.92,8.47,3.62,1,2.26-.07,5.13-.74,7.34-1.53,5.06-3.22,10.19-.49,15.17,2.94,5.35,10.19,7.06,16.18,7.62,4.82.46,13.88.2,15.57-5.15a7.4,7.4,0,0,0-1.81-7.39c-2.49-2.19-5.67-2.16-9-2.17a12.76,12.76,0,0,1-6.18-1.3c-1.6-.85-.74-2.89-.37-4.1,1.16-3.79,2.42-7.26,2-11.25-.77-6.74-6.52-11.39-13-14-6.08-2.48-22.82-6-24.2,3.42-.35,2.46,3.93,2.43,4.28,0,.65-4.42,13.38-1.46,15.78-.76,8.4,2.46,14.44,8.37,12.6,16.73-1.19,5.42-4.9,11.15,2.55,14.15,3.15,1.27,6.67.89,10,1.08a3.47,3.47,0,0,1,3.37,4.08c-.24,1.57-2.34,2.14-3.76,2.5-6.2,1.59-14.93.26-19.39-4.09-4.16-4-.74-10.81.5-15.3s1-8.71-3.37-11.6c-2.53-1.68-6-2.14-9-2.42-3.7-.33-9.37.19-9.28-4.37C806.67,319.34,802.39,319.34,802.34,321.83Z"/><path class="d" d="M859.26,305.05c1.1-8.89-10.64-7.1-17.42-8.85C818,290,851.5,269.38,829.68,257.61c-6.94-3.74-28.88-5.91-27.5,3.95S814,265.1,821.44,270c7,4.61-5.26,12.52-.61,24.7C826.42,309.36,858.12,314.23,859.26,305.05Z"/><path class="g" d="M733.81,532.34c9.65-11,17.84-23.28,26.3-35.07l-3.36.39c11.12,10.28,23.16,20.44,32.81,31.89l1.84-2.9q-29.55,1.14-59.1,2.4c-2.75.12-2.76,4,0,3.86q29.55-1.3,59.1-2.4c1.45-.06,2.89-1.66,1.85-2.91-9.88-11.73-22.09-22.14-33.47-32.67a2.31,2.31,0,0,0-3.36.39c-8.26,11.51-16.22,23.52-25.63,34.3C729.1,531.55,732.1,534.3,733.81,532.34Z"/><path class="f" d="M634.44,308.09c13.15.07,26.22,1.62,39.21-1a2,2,0,0,0,1.57-1.86c-.61-11.66-1.11-23.32-1.62-35a2.07,2.07,0,0,0-2.13-1.93c-13-.54-26.52-1.32-39.46.28a1.93,1.93,0,0,0-1.49,2.37c2.16,11.76-.58,23.87,1.86,35.68.5,2.45,4.62,1.41,4.12-1-2.43-11.8.31-23.9-1.86-35.68l-1.49,2.37c12.52-1.55,25.73-.66,38.32-.14l-2.14-1.93c.5,11.66,1,23.32,1.61,35l1.57-1.86c-12.58,2.52-25.34.91-38.07.84A1.93,1.93,0,1,0,634.44,308.09Z"/><path class="h" d="M679.37,528c10.36-9.34,22-16.87,29.92-28.44-11-9-32.21-26.74-32.21-26.74s-23.58,19.38-30.73,28.05C654.45,505.92,667.51,520.86,679.37,528Z"/><path class="e" d="M768.31,259c5.88-5.21,12.34-9.77,16.84-16.08a1.79,1.79,0,0,0-.33-2.34q-8.93-7.34-17.77-14.76a2.34,2.34,0,0,0-3,0c-6,5-12.32,10-17.29,15.87-.77.9-.08,2.09.76,2.64,6.64,4.38,11.42,10.69,18.22,15a2,2,0,1,0,2.16-3.33c-6.78-4.27-11.57-10.58-18.22-15,.26.88.51,1.76.77,2.64,4.73-5.57,10.89-10.37,16.62-15.09h-3q8.85,7.4,17.77,14.76l-.34-2.34c-4.29,6-10.57,10.34-16.17,15.3C763.32,258,766.35,260.72,768.31,259Z"/><path class="g" d="M604.7,377.86c6.55-4,11.35-10.53,8.2-17.75-3.38-7.75-12.35-8.08-20.16-9.19-6.52-.92-10.61-5.21-10.7-11.19-.07-4.33,1-8.1-1-12.21-2.94-5.93-11.38-6.71-17.55-5.74-17.62,2.77-15.17,20.07-9.24,31.2,4.37,8.21,11.57,13.79,19.82,18.75,7.72,4.65,17.8,9.63,27.38,7.44a15.16,15.16,0,0,0,3.29-1.31c2.41-1.21.26-4.54-2.16-3.33-7.67,3.84-17.28-1.13-23.88-4.71-7.72-4.19-14.46-9.08-19.14-16.09-3.56-5.31-5.87-11.62-5.7-17.86.17-6.07,4.57-9.16,10.77-10.37,7.22-1.41,13.7,1.61,13.57,8.75-.06,3.64-.72,7,.36,10.55.94,3.15,3.59,5.83,6.46,7.68,5.85,3.79,14,1.59,20.06,4.89,8.35,4.54,3.8,13.34-2.5,17.16C600.27,375.91,602.41,379.25,604.7,377.86Z"/><path class="g" d="M833.91,220.66c-10.4.43-20.78-1.38-31-2.79.43.94.85,1.89,1.28,2.83,4.71-7.2,6.28-15.61,8.93-23.51a1.92,1.92,0,0,0-1.49-2.38c-13-1.76-26.14-2.95-39.23-4.15l2.06,2.44c3.19-7.1,6.62-14.1,10.1-21.08a1.91,1.91,0,0,0-1.28-2.84c-11.51-2.31-23.21-3.37-34.86-4.94-2.69-.37-3.85,3.35-1.14,3.72,11.65,1.57,23.35,2.63,34.87,4.94-.43-.94-.86-1.89-1.28-2.83-3.63,7.29-7.21,14.6-10.53,22-.57,1.27.83,2.33,2.06,2.45,12.71,1.16,25.46,2.3,38.09,4L809,196.16c-2.54,7.58-4,15.7-8.5,22.6a1.89,1.89,0,0,0,1.28,2.83c10.59,1.46,21.39,3.37,32.15,2.93a1.93,1.93,0,1,0,0-3.86Z"/><path class="g" d="M758.57,385c-6,4.15-12.16,9.1-19.54,11.15-3.22.89-7-.05-7-3.62,0-2.68,3.74-5.29,5.67-6.93,3.21-2.73,9.33-7.17,6.52-11.79-2.92-4.81-8.87-4.63-13.95-3.14-5.9,1.73-12.51,6.11-19,5.08-2.34-.38-5.83-2.6-4.45-5s4.42-4.33,6.65-6.15c3.39-2.77,9-7.42,6.2-12.06-3.21-5.29-9.37-4.49-14.57-2.41-3.6,1.44-6.92,3.34-10.67,4.45-3.49,1-9.47.8-10.88-3-1-2.69,5.52-5.9,7.36-6.93,2.87-1.61,5.93-2.9,8.82-4.46,2.36-1.28.22-4.61-2.16-3.33-5.61,3-12.36,5.31-16.49,10.11-4.35,5.06.27,9.93,5.95,11.67,6.66,2,13.78-2.31,19.47-4.82,2.74-1.2,6.14-2.51,8.68-.34s-.81,5-2.46,6.5c-3.43,3.15-10.22,6.68-10.6,11.6-.4,5.17,6.5,8.22,11.35,8.14,6.55-.11,12.55-3.76,18.63-5.54,2.57-.75,5.49-1.25,7.63.58,2.39,2-1.24,4.78-2.8,6.17-3.29,2.91-7,5.5-8.75,9.45-1.58,3.53.91,7.76,4.51,9.32,4.5,1.95,10-.42,13.93-2.36,5.08-2.49,9.55-5.86,14.12-9,2.16-1.49,0-4.84-2.16-3.33Z"/><path class="h" d="M703.48,238.74c-7.28-.08-15.24-1-18.8-7.44-2.81-5.15-1.63-11.23-3.6-16.54C679,209,672.5,205,666.94,202.24c-6.26-3.13-13.83-5.51-21.06-5.19-2.74.12-2.76,4,0,3.85,7.63-.33,15.35,2.62,21.72,6.16a25.14,25.14,0,0,1,8.48,7.15c1.91,2.69,1.78,6.25,2.22,9.32.68,4.83,1.78,9.53,5.35,13.32,4.7,5,13.11,5.68,19.83,5.75a1.93,1.93,0,1,0,0-3.86Z"/><path class="h" d="M700.84,247.09c-13.65,2.31-27-7.42-29.78-19.17-.57-2.43-4.69-1.4-4.12,1,3.3,13.94,19.18,24.54,35,21.86,2.71-.46,1.56-4.18-1.14-3.72Z"/><path class="f" d="M637.24,435.58c-10.75,1.25-21.27-1.41-27.54-9.81-5.58-7.47-5.62-17.14-2.18-25.32,1-2.33-3.15-3.33-4.12-1-4,9.55-3.27,20.42,3.12,29,6.84,9.15,19,12.39,30.72,11,2.7-.32,2.73-4.18,0-3.86Z"/><path class="f" d="M601.53,432.92c-9.74-7.07-10.79-18.48-9.71-29,.25-2.48-4-2.46-4.28,0-1.17,11.43.4,24,11,31.71,2.13,1.54,5.18-1.17,3-2.73Z"/><path class="f" d="M632.53,450c5.78,0,12.35,1,18-.54a2,2,0,1,0-1.13-3.72c-5.22,1.38-11.51.41-16.86.4a1.93,1.93,0,1,0,0,3.86Z"/><path class="d" d="M805.35,426.76c-1.87-4-5.88-7-10.57-4.24-3.53,2.08-5.27,6.74-2.8,10,3.38,4.49,12,3.92,16.51,1.45a9.57,9.57,0,0,0,3.94-13c-3.26-6.43-13-7.5-19.67-6-6.94,1.63-13.19,7.76-11.93,14.54,1.4,7.51,9.31,12.82,17.31,13.77,7.76.92,15.41-3.18,19.9-8.6a16.75,16.75,0,0,0-4-24.83c-7.89-4.9-19.15-3.82-27.34-.26-9.85,4.28-15.14,13.69-13.42,23.37,2.59,14.54,21.89,19.33,35.59,16.05,2.66-.64,1.53-4.36-1.14-3.72-9.23,2.21-19.68.7-26.36-5.81C776,434.24,776.1,425.91,780,420c5.72-8.68,20.49-12,30.33-7.58,5.19,2.34,7.37,6.92,7.11,12-.45,8.4-8.09,14.84-17.32,15.17-10.15.37-20.31-10.74-11.59-18.21,5.74-4.92,21.25-4.48,20.83,4.82-.24,5.16-10.65,8.48-14,4.06-2.06-2.75,3.48-7.49,5.84-2.44,1,2.26,5.19,1.27,4.12-1Z"/><path class="d" d="M793.82,289.51c0-7.46-12.83-7.46-12.83,0s12.83,7.46,12.83,0Z"/><path class="d" d="M763.69,282.41c0-5-8.55-5-8.55,0s8.55,5,8.55,0Z"/><path class="g" d="M701.1,419.71c0-7.46-12.83-7.46-12.83,0s12.83,7.47,12.83,0Z"/><path class="g" d="M696.34,395.25c0-5-8.55-5-8.55,0s8.55,5,8.55,0Z"/><path class="g" d="M715.19,413.4c0-2.49-4.27-2.49-4.27,0s4.27,2.49,4.27,0Z"/><path class="g" d="M669.71,401.56c0-2.48-4.28-2.48-4.28,0s4.28,2.49,4.28,0Z"/><path class="h" d="M858.85,383.51c0-7.47-12.83-7.47-12.83,0s12.83,7.46,12.83,0Z"/><path class="h" d="M842.47,404.46c0-5-8.55-5-8.55,0s8.55,5,8.55,0Z"/><path class="h" d="M825.2,385.66c0-2.48-4.27-2.48-4.27,0s4.27,2.49,4.27,0Z"/><path class="h" d="M869.14,402.35c0-2.48-4.27-2.48-4.27,0s4.27,2.49,4.27,0Z"/><path class="g" d="M608.32,294.18c.06-10.18,1.06-20.37-.66-30.5-.41-2.45-4.53-1.4-4.12,1,1.65,9.75.56,19.66.51,29.47,0,2.49,4.26,2.49,4.27,0Z"/><path class="e" d="M634.18,235.09c-7.52,0-15.12.06-22.56-1.08-5.88-.9-12.9-3-12.59-9.45.24-5.09,9-6.48,13.11-7.16,7-1.15,14.33-1.07,21.45-1.07a1.93,1.93,0,1,0,0-3.86c-8.55,0-17.22.06-25.6,1.76-6.23,1.26-12.34,4.15-13.24,10.33C592.4,240.68,624.1,239,634.18,239a1.93,1.93,0,1,0,0-3.86Z"/><path class="d" d="M609.76,191.61c5.11-9.4,14.62-16,21.87-24,1.73-1.9-1.27-4.65-3-2.72-7.48,8.22-17.27,15.07-22.55,24.78-1.21,2.22,2.48,4.18,3.7,1.94Z"/><path class="f" d="M860,263.27a58.62,58.62,0,0,1-5.86-5c-1.87-1.83-4.89.9-3,2.73a59.89,59.89,0,0,0,5.87,5,2.34,2.34,0,0,0,3,0,1.8,1.8,0,0,0,0-2.73Z"/><path class="h" d="M569.26,402.41c-.53-8.37-17-9.46-23.58-10.06-9-.8-24.64-2.16-30,6.21-3.68,5.78,3.6,10.65,9,11.8,2.65.56,5.64.37,8.35.56,3.21.21,6.42.45,9.63.62,8.06.41,26,1.6,26.54-9.13.12-2.49-4.15-2.48-4.27,0-.35,7.2-17.28,5.5-22.27,5.27-4.18-.19-8.35-.57-12.54-.8-2.9-.16-5.49-.23-8.14-1.52-3.65-1.79-3.55-5.55,0-7.45,2.72-1.48,6.54-1.67,9.62-1.89a91.66,91.66,0,0,1,14.06.19,68.06,68.06,0,0,1,12.64,2.17c1.85.52,6.52,1.77,6.67,4C565.14,404.88,569.42,404.9,569.26,402.41Z"/><line class="d" x1="597.8" y1="4.69" x2="558.1" y2="-31.23"/><path class="e" d="M599.31,3.33l-39.7-35.92c-2-1.76-5,1-3,2.73l39.7,35.92c2,1.76,5-1,3-2.73Z"/><path class="e" d="M725.3,102.13c-16,1.28-35.17-10.44-39-24.62-.66-2.42-4.78-1.39-4.12,1,4.3,15.73,25.37,28.88,43.17,27.46,2.72-.22,2.75-4.08,0-3.86Z"/><path class="e" d="M682.2,94c-8.1-6.79-13-18.21-10.56-28.11.61-2.42-3.51-3.45-4.12-1-2.81,11.23,2.41,24.12,11.66,31.87,2,1.69,5.05-1,3-2.73Z"/><path class="e" d="M741.05,105.2c3.09,0,6.12-.17,8.5-2.14,2-1.68-1-4.4-3-2.73-1.43,1.19-3.68,1-5.48,1a1.93,1.93,0,1,0,0,3.85Z"/><polygon class="d" points="623.77 84.59 620.21 87.75 555.57 28.61 559.13 25.45 623.77 84.59"/><path class="g" d="M658.58,156.72c9.65-11.05,17.84-23.28,26.3-35.08l-3.35.39c11.12,10.29,23.15,20.44,32.8,31.9.61-1,1.23-1.94,1.85-2.9q-29.56,1.14-59.11,2.4c-2.74.12-2.76,4,0,3.85,19.7-.87,39.4-1.63,59.11-2.4,1.44,0,2.89-1.66,1.84-2.9-9.88-11.73-22.08-22.14-33.47-32.68a2.32,2.32,0,0,0-3.36.39c-8.26,11.52-16.21,23.52-25.63,34.3C653.87,155.92,656.88,158.67,658.58,156.72Z"/><path class="h" d="M604.15,152.38c10.35-9.34,22-16.86,29.91-28.44-11-9-32.2-26.74-32.2-26.74s-23.59,19.38-30.74,28.06C579.22,130.29,592.28,145.23,604.15,152.38Z"/><path class="g" d="M529.47,2.23c6.56-4,11.35-10.52,8.2-17.74-3.38-7.75-12.35-8.09-20.16-9.19-6.51-.92-10.61-5.22-10.7-11.2-.07-4.32,1-8.09-1-12.21-2.94-5.93-11.38-6.7-17.55-5.73C470.6-51.07,473.05-33.77,479-22.65c4.38,8.22,11.58,13.79,19.83,18.76,7.72,4.65,17.79,9.63,27.37,7.44a15.19,15.19,0,0,0,3.29-1.32c2.42-1.21.26-4.54-2.15-3.33C519.65,2.74,510-2.22,503.43-5.81,495.72-10,489-14.88,484.29-21.89c-3.55-5.32-5.87-11.62-5.69-17.87.16-6.06,4.56-9.15,10.76-10.36,7.22-1.41,13.7,1.61,13.58,8.74-.07,3.65-.73,7,.35,10.56.95,3.15,3.59,5.82,6.46,7.68,5.85,3.78,14,1.58,20.07,4.89,8.34,4.53,3.79,13.33-2.5,17.15C525,.28,527.18,3.62,529.47,2.23Z"/><path class="g" d="M683.34,9.34c-6,4.16-12.15,9.1-19.53,11.15-3.22.9-7,0-7-3.62,0-2.68,3.74-5.29,5.66-6.93,3.21-2.73,9.33-7.17,6.53-11.78C666-6.65,660.08-6.47,655-5c-5.89,1.73-12.51,6.11-19,5.07-2.34-.37-5.83-2.6-4.44-4.95S636-9.19,638.23-11c3.4-2.77,9-7.42,6.2-12.07-3.2-5.28-9.37-4.48-14.57-2.4C626.27-24,623-22.15,619.2-21c-3.5,1-9.47.8-10.88-3-1-2.69,5.51-5.9,7.36-6.94,2.86-1.6,5.93-2.89,8.82-4.45,2.36-1.28.21-4.62-2.16-3.33-5.62,3-12.37,5.3-16.5,10.11-4.35,5.05.28,9.93,5.95,11.67,6.66,2,13.78-2.32,19.47-4.82C634-23,637.4-24.34,640-22.17s-.82,5-2.47,6.49c-3.42,3.15-10.22,6.69-10.6,11.6-.4,5.17,6.51,8.23,11.35,8.15C644.78,4,650.79.31,656.86-1.47c2.57-.76,5.5-1.25,7.63.57,2.39,2.05-1.24,4.79-2.8,6.17-3.28,2.91-7,5.51-8.75,9.46-1.58,3.52.92,7.76,4.51,9.32,4.51,1.95,10-.42,13.94-2.36,5.07-2.49,9.54-5.87,14.11-9,2.16-1.48,0-4.84-2.16-3.33Z"/><path class="f" d="M562,60c-10.76,1.25-21.27-1.42-27.55-9.82-5.57-7.46-5.61-17.13-2.18-25.32,1-2.33-3.15-3.33-4.12-1-4,9.54-3.27,20.42,3.13,29,6.83,9.15,19,12.4,30.72,11,2.69-.31,2.72-4.17,0-3.85Z"/><path class="f" d="M526.3,57.29c-9.74-7.06-10.78-18.48-9.71-29,.25-2.48-4-2.45-4.27,0-1.17,11.44.4,24.05,11,31.71,2.12,1.54,5.17-1.17,3-2.73Z"/><path class="f" d="M557.31,74.38c5.77,0,12.35,1,18-.54a2,2,0,1,0-1.14-3.72c-5.22,1.39-11.5.42-16.85.4a1.93,1.93,0,1,0,0,3.86Z"/><path class="d" d="M730.12,51.13c-1.87-4-5.87-7-10.57-4.23-3.53,2.08-5.27,6.73-2.79,10,3.37,4.48,12,3.91,16.51,1.44a9.57,9.57,0,0,0,3.93-13c-3.26-6.44-13-7.5-19.66-6-6.94,1.62-13.2,7.76-11.93,14.54,1.4,7.5,9.31,12.81,17.31,13.76,7.76.93,15.4-3.17,19.89-8.6a16.74,16.74,0,0,0-4-24.83c-7.88-4.89-19.14-3.82-27.33-.26-9.86,4.29-15.15,13.69-13.42,23.38,2.58,14.54,21.89,19.33,35.58,16,2.66-.64,1.53-4.36-1.14-3.72-9.22,2.22-19.67.71-26.35-5.81-5.42-5.28-5.29-13.62-1.38-19.54,5.72-8.69,20.49-12,30.34-7.58,5.18,2.34,7.37,6.91,7.1,12-.45,8.41-8.09,14.84-17.32,15.17-10.15.37-20.3-10.73-11.59-18.21,5.74-4.92,21.26-4.47,20.83,4.83-.23,5.15-10.65,8.48-14,4.05-2.07-2.74,3.47-7.49,5.83-2.43,1,2.25,5.19,1.26,4.12-1Z"/><path class="g" d="M625.87,44.09c0-7.46-12.82-7.46-12.82,0s12.82,7.46,12.82,0Z"/><path class="g" d="M621.11,19.63c0-5-8.55-5-8.55,0s8.55,5,8.55,0Z"/><path class="g" d="M640,37.78c0-2.49-4.28-2.49-4.28,0s4.28,2.48,4.28,0Z"/><path class="g" d="M594.48,25.94c0-2.49-4.28-2.49-4.28,0s4.28,2.49,4.28,0Z"/><path class="h" d="M783.62,7.88c0-7.46-12.82-7.46-12.82,0s12.82,7.46,12.82,0Z"/><path class="h" d="M767.25,28.83c0-5-8.55-5-8.55,0s8.55,5,8.55,0Z"/><path class="h" d="M750,10c0-2.49-4.27-2.49-4.27,0S750,12.53,750,10Z"/><path class="h" d="M793.92,26.73c0-2.49-4.28-2.49-4.28,0s4.28,2.49,4.28,0Z"/><path class="h" d="M494,26.79c-.54-8.38-17-9.47-23.58-10.06-9-.81-24.64-2.16-30,6.2-3.69,5.79,3.6,10.66,9,11.81,2.66.56,5.64.37,8.35.55,3.21.22,6.42.46,9.64.62,8.05.42,26,1.61,26.54-9.12.12-2.49-4.16-2.48-4.28,0-.34,7.2-17.28,5.5-22.26,5.27-4.19-.2-8.36-.57-12.54-.8-2.91-.16-5.5-.23-8.15-1.53-3.65-1.78-3.55-5.54,0-7.44,2.72-1.48,6.55-1.67,9.62-1.89a91.79,91.79,0,0,1,14.07.19,67.14,67.14,0,0,1,12.63,2.17c1.86.52,6.53,1.77,6.67,4C489.92,29.26,494.2,29.27,494,26.79Z"/><path class="g" d="M368.18,41.51c9.65-11,17.84-23.28,26.3-35.08l-3.36.39c11.12,10.28,23.16,20.44,32.8,31.89.62-1,1.23-1.93,1.85-2.9-19.7.77-39.41,1.53-59.11,2.4-2.74.13-2.75,4,0,3.86q29.55-1.3,59.11-2.4c1.44-.06,2.89-1.66,1.84-2.9C417.74,25,405.53,14.62,394.14,4.09a2.3,2.3,0,0,0-3.35.39C382.53,16,374.57,28,365.15,38.78,363.47,40.71,366.47,43.46,368.18,41.51Z"/><path class="h" d="M313.74,37.17c10.36-9.34,22-16.86,29.92-28.44-11-9-32.21-26.74-32.21-26.74S287.86,1.37,280.72,10.05C288.81,15.08,301.87,30,313.74,37.17Z"/><path class="e" d="M78,894.42C62,895.69,42.83,884,39,869.79c-.66-2.41-4.79-1.39-4.13,1,4.3,15.72,25.38,28.88,43.18,27.46,2.72-.22,2.74-4.08,0-3.86Z"/><path class="e" d="M34.91,886.3c-8.11-6.79-13-18.21-10.56-28.11.6-2.42-3.52-3.45-4.12-1-2.81,11.22,2.41,24.11,11.65,31.86,2,1.69,5.05-1,3-2.73Z"/><path class="e" d="M93.75,897.49c3.09,0,6.12-.17,8.51-2.15,2-1.68-1-4.4-3-2.72-1.43,1.18-3.68,1-5.49,1a1.93,1.93,0,1,0,0,3.86Z"/><path class="e" d="M77,776.63c-6.36-.16-13.24-.83-18-5.09-3.81-3.44-4.91-8.84-5.85-13.42-1.17-5.67-2.37-10.31-7.62-14.06-4.94-3.52-11.39-4.91-17.5-5.71-2.77-.37-5.64-.37-8.38-.86-3.71-.68-6.39-3.59-8.28-6.32-4-5.88-3.44-12.09-4.69-18.58-2.29-11.81-15.13-14.91-26.63-15.25a1.93,1.93,0,1,0,0,3.86c6.27.18,13.21.79,18.1,4.72,5.31,4.24,4.21,10.52,5.23,16.18a27.83,27.83,0,0,0,7.7,15.07c4.59,4.52,10.6,4.21,16.79,5s12.94,2.51,17.38,6.9,3.78,11.82,5.68,17.16c3.85,10.79,14.37,14,26,14.24a1.93,1.93,0,1,0,0-3.86Z"/><polygon class="f" points="5.47 630.58 0.51 634.99 -39.95 597.97 -34.99 593.56 5.47 630.58"/><polygon class="g" points="12.04 598.79 5.91 604.25 0.6 599.39 6.73 593.93 12.04 598.79"/><path class="g" d="M9,596.06l-6.14,5.46H8.93l-5.31-4.86v5.46l6.14-5.46h-6L9,601.52c3.88,3.54,9.92-1.91,6.05-5.46L9.76,591.2a4.68,4.68,0,0,0-6,0l-6.14,5.46a3.64,3.64,0,0,0,0,5.46L2.88,607a4.65,4.65,0,0,0,6.05,0l6.14-5.45C19,598,13,592.57,9,596.06Z"/><path class="f" d="M79.83,738.49c-.15,7.26,7.25,7.75,13.55,8.23,2.84.22,7.22.92,8.47,3.62,1.05,2.26-.07,5.13-.74,7.34-1.53,5.06-3.22,10.19-.49,15.17,2.94,5.35,10.19,7.06,16.18,7.62,4.82.46,13.88.2,15.57-5.15a7.4,7.4,0,0,0-1.81-7.39c-2.49-2.19-5.67-2.16-9-2.18a12.78,12.78,0,0,1-6.18-1.29c-1.6-.85-.74-2.89-.37-4.11,1.16-3.78,2.42-7.25,2-11.24-.76-6.74-6.52-11.4-13-14-6.08-2.48-22.82-6-24.19,3.42-.36,2.46,3.92,2.43,4.27,0,.65-4.42,13.38-1.46,15.78-.76,8.4,2.45,14.44,8.37,12.6,16.73-1.19,5.42-4.9,11.15,2.55,14.15,3.15,1.27,6.67.89,10,1.08a3.47,3.47,0,0,1,3.38,4.08c-.25,1.57-2.35,2.14-3.76,2.5-6.2,1.59-14.94.26-19.4-4.09-4.16-4-.74-10.82.51-15.31s1-8.7-3.38-11.59c-2.53-1.68-6-2.14-9-2.42-3.7-.33-9.37.19-9.28-4.37C84.15,736,79.88,736,79.83,738.49Z"/><path class="d" d="M136.74,721.71c1.11-8.89-10.64-7.1-17.42-8.85C95.44,706.7,129,686,107.16,674.27c-6.94-3.74-28.88-5.91-27.5,4s11.82,3.54,19.26,8.43c7,4.61-5.26,12.52-.61,24.7C103.9,726,135.6,730.89,136.74,721.71Z"/><path class="g" d="M11.29,949c9.65-11,17.84-23.28,26.3-35.08l-3.36.39C45.35,924.6,57.39,934.76,67,946.21l1.84-2.9q-29.55,1.14-59.1,2.4c-2.74.12-2.76,4,0,3.86q29.55-1.3,59.1-2.4c1.45-.06,2.9-1.66,1.85-2.91-9.88-11.73-22.09-22.14-33.47-32.67a2.31,2.31,0,0,0-3.36.39c-8.26,11.51-16.22,23.52-25.63,34.3C6.58,948.21,9.58,951,11.29,949Z"/><path class="e" d="M45.8,675.64c5.87-5.21,12.33-9.77,16.84-16.09a1.79,1.79,0,0,0-.34-2.33q-8.92-7.34-17.77-14.76a2.34,2.34,0,0,0-3,0c-6,5-12.32,10-17.29,15.87-.76.9-.08,2.09.76,2.64,6.64,4.38,11.42,10.69,18.22,15a2,2,0,1,0,2.16-3.33c-6.78-4.28-11.56-10.58-18.22-15,.26.88.51,1.76.77,2.64,4.73-5.57,10.89-10.37,16.62-15.09h-3q8.87,7.39,17.77,14.76l-.34-2.34c-4.29,6-10.57,10.34-16.17,15.3C40.8,674.65,43.83,677.38,45.8,675.64Z"/><path class="g" d="M111.39,637.32c-10.4.43-20.78-1.38-31-2.79.43.94.85,1.89,1.28,2.83,4.71-7.2,6.28-15.61,8.93-23.52a1.92,1.92,0,0,0-1.49-2.37c-13-1.76-26.14-3-39.23-4.15l2.06,2.44c3.19-7.1,6.62-14.1,10.1-21.08a1.91,1.91,0,0,0-1.28-2.84c-11.51-2.31-23.21-3.37-34.86-4.94-2.69-.37-3.85,3.35-1.13,3.72,11.64,1.57,23.34,2.63,34.86,4.94-.43-.94-.85-1.89-1.28-2.83-3.63,7.28-7.21,14.6-10.53,22-.57,1.27.83,2.33,2.06,2.45,12.71,1.16,25.46,2.3,38.09,4-.49-.79-1-1.58-1.49-2.37-2.54,7.58-4,15.7-8.5,22.6a1.89,1.89,0,0,0,1.28,2.83c10.59,1.46,21.39,3.37,32.15,2.93a1.93,1.93,0,1,0,0-3.86Z"/><path class="g" d="M36.05,801.63c-6,4.15-12.16,9.1-19.54,11.15-3.22.89-7,0-7-3.62,0-2.68,3.73-5.29,5.66-6.93,3.21-2.73,9.33-7.18,6.52-11.79-2.92-4.81-8.87-4.63-13.95-3.14-5.9,1.73-12.51,6.11-19,5.08-2.34-.38-5.83-2.6-4.45-5s4.42-4.33,6.65-6.15c3.39-2.77,9-7.42,6.2-12.06-3.21-5.29-9.37-4.49-14.57-2.41-3.6,1.44-6.91,3.34-10.67,4.45-3.49,1-9.47.8-10.88-3-1-2.69,5.52-5.9,7.37-6.94,2.86-1.6,5.92-2.89,8.81-4.45,2.37-1.28.22-4.61-2.15-3.33-5.62,3-12.37,5.31-16.5,10.11-4.35,5.06.27,9.93,6,11.67,6.66,2,13.78-2.31,19.47-4.82,2.74-1.2,6.14-2.51,8.68-.34s-.81,5-2.46,6.5c-3.42,3.15-10.22,6.68-10.6,11.6-.4,5.17,6.51,8.22,11.35,8.14,6.55-.11,12.55-3.76,18.63-5.54,2.57-.75,5.5-1.25,7.63.58,2.39,2-1.24,4.78-2.8,6.17-3.28,2.91-7,5.5-8.75,9.45-1.58,3.52.92,7.76,4.51,9.32,4.5,1.95,10-.42,13.93-2.36,5.08-2.49,9.55-5.87,14.12-9,2.16-1.49,0-4.84-2.16-3.33Z"/><path class="d" d="M82.83,843.42c-1.87-4-5.87-7-10.57-4.24-3.53,2.08-5.27,6.73-2.8,10,3.38,4.49,12,3.91,16.52,1.45a9.58,9.58,0,0,0,3.93-13c-3.26-6.43-13-7.5-19.66-6-6.94,1.62-13.2,7.76-11.94,14.54,1.4,7.51,9.31,12.81,17.31,13.77,7.77.92,15.41-3.18,19.9-8.61a16.75,16.75,0,0,0-4-24.83c-7.89-4.89-19.15-3.81-27.34-.25-9.85,4.28-15.14,13.69-13.42,23.37,2.59,14.54,21.89,19.33,35.59,16.05,2.66-.64,1.53-4.36-1.14-3.72-9.23,2.21-19.68.7-26.35-5.81-5.42-5.29-5.29-13.62-1.38-19.55,5.72-8.69,20.49-12,30.33-7.58,5.19,2.34,7.37,6.92,7.11,12-.45,8.41-8.09,14.84-17.32,15.18C67.46,856.58,57.3,845.47,66,838c5.74-4.92,21.25-4.48,20.83,4.82-.23,5.15-10.65,8.48-14,4.06-2.06-2.75,3.48-7.49,5.84-2.44,1.05,2.26,5.19,1.27,4.12-1Z"/><path class="d" d="M71.3,706.17c0-7.47-12.83-7.47-12.83,0s12.83,7.46,12.83,0Z"/><path class="d" d="M41.17,699.06c0-5-8.55-5-8.55,0s8.55,5,8.55,0Z"/><path class="h" d="M136.33,800.16c0-7.46-12.83-7.46-12.83,0s12.83,7.47,12.83,0Z"/><path class="h" d="M120,821.12c0-5-8.55-5-8.55,0s8.55,5,8.55,0Z"/><path class="h" d="M102.68,802.32c0-2.48-4.27-2.48-4.27,0s4.27,2.49,4.27,0Z"/><path class="h" d="M146.62,819c0-2.49-4.27-2.49-4.27,0s4.27,2.49,4.27,0Z"/><path class="e" d="M164.67,700.35a126.73,126.73,0,0,1-12.83-10.26c-1.93-1.79-5,.94-3,2.73a127,127,0,0,0,12.83,10.26c2.13,1.52,5.18-1.19,3-2.73Z"/><path class="f" d="M137.45,679.93a58.62,58.62,0,0,1-5.86-5c-1.87-1.84-4.89.9-3,2.73a59.89,59.89,0,0,0,5.87,5,2.34,2.34,0,0,0,3,0,1.8,1.8,0,0,0,0-2.73Z"/><path class="e" d="M157.52,1155.41c-6.37-.16-13.25-.83-18-5.09-3.81-3.43-4.91-8.84-5.85-13.42-1.16-5.67-2.37-10.31-7.62-14.06-4.94-3.52-11.39-4.91-17.49-5.71-2.78-.37-5.65-.37-8.39-.86-3.71-.68-6.38-3.58-8.27-6.32-4.06-5.87-3.44-12.09-4.7-18.58-2.29-11.81-15.12-14.91-26.63-15.24a1.93,1.93,0,1,0,0,3.85c6.27.19,13.21.79,18.11,4.72,5.31,4.24,4.2,10.52,5.23,16.18A27.81,27.81,0,0,0,91.63,1116c4.6,4.52,10.61,4.21,16.79,5s12.94,2.52,17.39,6.9,3.77,11.82,5.67,17.16c3.85,10.79,14.38,14,26,14.24a1.93,1.93,0,1,0,0-3.86Z"/><polygon class="f" points="85.94 1009.36 80.98 1013.77 40.52 976.75 45.48 972.34 85.94 1009.36"/><polygon class="g" points="92.52 977.57 86.38 983.03 81.07 978.17 87.21 972.71 92.52 977.57"/><path class="g" d="M89.49,974.84l-6.13,5.46h6l-5.31-4.86v5.46l6.14-5.46h-6l5.31,4.86c3.88,3.54,9.92-1.91,6.05-5.46L90.23,970a4.68,4.68,0,0,0-6,0l-6.13,5.46a3.63,3.63,0,0,0,0,5.46l5.31,4.86a4.66,4.66,0,0,0,6,0l6.14-5.46C99.47,976.8,93.42,971.35,89.49,974.84Z"/><path class="d" d="M217.22,1100.49c1.1-8.89-10.64-7.1-17.42-8.85-23.88-6.16,9.66-26.82-12.17-38.59-6.93-3.74-28.88-5.91-27.5,4s11.82,3.54,19.26,8.43c7,4.61-5.25,12.52-.61,24.7C184.38,1104.8,216.07,1109.67,217.22,1100.49Z"/><path class="f" d="M-7.6,1103.53c13.14.07,26.22,1.62,39.2-1a2,2,0,0,0,1.57-1.86c-.6-11.66-1.11-23.32-1.61-35a2.08,2.08,0,0,0-2.14-1.93c-13-.54-26.52-1.32-39.45.28a1.94,1.94,0,0,0-1.5,2.37c2.16,11.76-.57,23.87,1.86,35.68.51,2.45,4.63,1.41,4.13-1-2.44-11.8.3-23.9-1.86-35.68l-1.5,2.37c12.52-1.55,25.74-.66,38.32-.14l-2.14-1.93c.51,11.66,1,23.32,1.62,35l1.57-1.86c-12.58,2.52-25.34.91-38.07.84A1.93,1.93,0,1,0-7.6,1103.53Z"/><path class="e" d="M126.27,1054.42c5.87-5.21,12.33-9.77,16.84-16.08a1.79,1.79,0,0,0-.33-2.34q-8.94-7.34-17.78-14.76a2.34,2.34,0,0,0-3,0c-6,5-12.31,10-17.29,15.87-.76.9-.08,2.09.77,2.64,6.64,4.38,11.42,10.69,18.22,15a2,2,0,1,0,2.16-3.33c-6.79-4.27-11.57-10.58-18.22-15,.25.88.51,1.76.76,2.64,4.74-5.57,10.89-10.37,16.62-15.09h-3q8.86,7.4,17.77,14.76l-.33-2.34c-4.3,6-10.58,10.34-16.17,15.3C121.28,1053.44,124.3,1056.16,126.27,1054.42Z"/><path class="g" d="M191.87,1016.1c-10.4.43-20.79-1.38-31-2.79l1.27,2.83c4.72-7.2,6.29-15.61,8.94-23.51a1.93,1.93,0,0,0-1.5-2.38c-13-1.76-26.13-3-39.22-4.15l2.06,2.44c3.18-7.1,6.62-14.1,10.1-21.08a1.91,1.91,0,0,0-1.28-2.84c-11.52-2.31-23.21-3.37-34.86-4.94-2.7-.37-3.86,3.35-1.14,3.72,11.65,1.57,23.35,2.63,34.86,4.94-.42-.94-.85-1.89-1.28-2.83-3.62,7.29-7.2,14.6-10.53,22-.56,1.27.84,2.33,2.07,2.45,12.71,1.16,25.45,2.3,38.09,4l-1.5-2.37c-2.54,7.58-4,15.7-8.5,22.6a1.89,1.89,0,0,0,1.28,2.83c10.59,1.46,21.39,3.37,32.16,2.93a1.93,1.93,0,1,0,0-3.86Z"/><path class="h" d="M61.44,1034.18c-7.29-.08-15.25-1-18.8-7.44-2.82-5.15-1.64-11.23-3.6-16.54-2.12-5.73-8.59-9.74-14.15-12.52-6.25-3.13-13.82-5.51-21.06-5.19-2.74.12-2.75,4,0,3.85,7.63-.33,15.35,2.62,21.73,6.16a25.2,25.2,0,0,1,8.47,7.15c1.91,2.69,1.78,6.25,2.22,9.32.69,4.83,1.78,9.53,5.35,13.32,4.71,5,13.11,5.68,19.84,5.75a1.93,1.93,0,1,0,0-3.86Z"/><path class="h" d="M58.8,1042.53c-13.66,2.31-27-7.42-29.78-19.17-.58-2.43-4.7-1.4-4.12,1,3.29,13.94,19.18,24.54,35,21.86,2.71-.46,1.56-4.18-1.13-3.72Z"/><path class="d" d="M151.77,1085c0-7.46-12.82-7.46-12.82,0s12.82,7.46,12.82,0Z"/><path class="d" d="M121.65,1077.85c0-5-8.56-5-8.56,0s8.56,5,8.56,0Z"/><path class="e" d="M245.14,1079.13a127.85,127.85,0,0,1-12.83-10.26c-1.92-1.79-4.94.94-3,2.73a128.14,128.14,0,0,0,12.83,10.26c2.14,1.52,5.19-1.19,3-2.73Z"/><path class="f" d="M217.93,1058.71a58.55,58.55,0,0,1-5.87-5c-1.87-1.83-4.88.9-3,2.73a59.77,59.77,0,0,0,5.86,5,2.36,2.36,0,0,0,3,0,1.81,1.81,0,0,0,0-2.73Z"/><path class="e" d="M948.26,1116c-6.36-.15-13.24-.82-18-5.08-3.81-3.44-4.91-8.85-5.85-13.43-1.17-5.67-2.37-10.31-7.62-14.06-4.94-3.52-11.39-4.91-17.5-5.71-2.77-.36-5.64-.36-8.38-.86-3.71-.67-6.39-3.58-8.27-6.31-4.06-5.88-3.45-12.1-4.7-18.58-2.29-11.82-15.13-14.91-26.63-15.25a1.93,1.93,0,1,0,0,3.86c6.27.18,13.21.79,18.11,4.71,5.3,4.25,4.2,10.53,5.23,16.18a27.74,27.74,0,0,0,7.69,15.08c4.59,4.51,10.61,4.21,16.79,5,6.33.83,12.94,2.51,17.39,6.89s3.77,11.83,5.67,17.16c3.85,10.8,14.37,14,26,14.24a1.93,1.93,0,1,0,0-3.86Z"/><polygon class="f" points="876.69 969.9 871.73 974.32 831.27 937.3 836.23 932.88 876.69 969.9"/><path class="g" d="M880.24,935.39l-6.14,5.45h6L874.84,936v5.45L881,936h-6.05l5.31,4.86c3.88,3.55,9.92-1.91,6-5.45L881,930.53a4.65,4.65,0,0,0-6.05,0L868.79,936a3.63,3.63,0,0,0,0,5.45l5.31,4.86a4.66,4.66,0,0,0,6,0l6.14-5.46C890.22,937.34,884.17,931.89,880.24,935.39Z"/><path class="f" d="M783.14,1064.07c13.15.08,26.22,1.63,39.21-1a2,2,0,0,0,1.57-1.86c-.6-11.65-1.11-23.31-1.61-35a2.08,2.08,0,0,0-2.14-1.93c-13-.54-26.52-1.33-39.46.28a1.93,1.93,0,0,0-1.49,2.37c2.16,11.76-.57,23.86,1.86,35.68.51,2.44,4.63,1.4,4.12-1-2.43-11.8.31-23.9-1.86-35.68-.49.79-1,1.58-1.49,2.37,12.52-1.54,25.73-.66,38.32-.14l-2.14-1.92c.5,11.66,1,23.32,1.61,35l1.57-1.86c-12.57,2.52-25.33.92-38.07.84A1.93,1.93,0,1,0,783.14,1064.07Z"/><path class="g" d="M753.4,1133.84c6.56-4,11.35-10.52,8.2-17.75-3.38-7.74-12.35-8.08-20.16-9.18-6.51-.93-10.61-5.22-10.7-11.2-.07-4.32,1-8.09-1-12.21-2.94-5.93-11.38-6.7-17.55-5.73-17.62,2.77-15.17,20.07-9.24,31.19,4.38,8.21,11.58,13.79,19.83,18.76,7.71,4.64,17.79,9.63,27.37,7.43a14.67,14.67,0,0,0,3.29-1.31c2.41-1.21.26-4.54-2.15-3.33-7.68,3.84-17.29-1.12-23.89-4.71-7.71-4.19-14.46-9.07-19.14-16.08-3.55-5.32-5.87-11.63-5.7-17.87.17-6.06,4.57-9.16,10.77-10.36,7.22-1.41,13.7,1.61,13.58,8.74-.07,3.65-.73,7,.35,10.55.95,3.16,3.59,5.83,6.46,7.69,5.85,3.78,14,1.58,20.07,4.88,8.34,4.54,3.79,13.34-2.5,17.16C749,1131.89,751.11,1135.23,753.4,1133.84Z"/><path class="h" d="M852.19,994.73c-7.29-.08-15.25-1-18.8-7.45-2.82-5.14-1.64-11.22-3.6-16.54-2.12-5.73-8.59-9.74-14.15-12.52-6.26-3.12-13.83-5.51-21.06-5.19-2.74.12-2.76,4,0,3.86,7.63-.34,15.35,2.61,21.73,6.15a25.31,25.31,0,0,1,8.47,7.15c1.91,2.7,1.78,6.25,2.22,9.33.68,4.82,1.78,9.52,5.35,13.32,4.7,5,13.11,5.67,19.84,5.74a1.93,1.93,0,1,0,0-3.85Z"/><path class="h" d="M849.54,1003.07c-13.65,2.31-27-7.42-29.77-19.16-.58-2.44-4.7-1.4-4.13,1,3.3,14,19.18,24.54,35,21.86,2.71-.45,1.56-4.17-1.14-3.72Z"/><path class="g" d="M757,1050.17c.05-10.19,1.05-20.38-.66-30.5-.42-2.46-4.54-1.41-4.13,1,1.66,9.75.56,19.67.51,29.48,0,2.48,4.26,2.48,4.28,0Z"/><path class="e" d="M782.88,991.08c-7.52,0-15.12.06-22.56-1.08-5.88-.9-12.89-3-12.59-9.45.24-5.1,8.95-6.49,13.11-7.17,7-1.14,14.34-1.06,21.46-1.07a1.93,1.93,0,1,0,0-3.85c-8.55,0-17.23,0-25.61,1.75-6.23,1.26-12.33,4.15-13.24,10.34-2.35,16.11,29.35,14.38,39.43,14.39a1.93,1.93,0,1,0,0-3.86Z"/><path class="d" d="M758.46,947.6c5.11-9.41,14.62-16,21.87-24,1.74-1.91-1.27-4.66-3-2.73-7.48,8.23-17.26,15.07-22.54,24.78-1.21,2.22,2.47,4.18,3.69,2Z"/><line class="d" x1="162.64" y1="531.03" x2="122.93" y2="495.11"/><path class="e" d="M164.15,529.66l-39.7-35.91c-2-1.77-5,1-3,2.72l39.71,35.92c2,1.76,5-1,3-2.73Z"/><path class="e" d="M290.14,628.47c-16,1.27-35.18-10.45-39-24.63-.66-2.41-4.79-1.39-4.13,1,4.3,15.72,25.38,28.88,43.18,27.46,2.72-.22,2.74-4.08,0-3.86Z"/><path class="e" d="M247,620.35c-8.11-6.79-13-18.21-10.56-28.11.6-2.42-3.52-3.45-4.12-1-2.81,11.22,2.41,24.11,11.66,31.86,2,1.69,5-1,3-2.73Z"/><path class="e" d="M305.88,631.54c3.09,0,6.12-.17,8.51-2.15,2-1.68-1-4.4-3-2.72-1.43,1.18-3.68,1-5.49,1a1.93,1.93,0,1,0,0,3.86Z"/><path class="e" d="M289.17,510.68c-6.36-.16-13.24-.83-18-5.09-3.81-3.43-4.91-8.84-5.85-13.42-1.17-5.67-2.37-10.31-7.62-14.06-4.94-3.52-11.39-4.91-17.5-5.71-2.77-.37-5.64-.37-8.38-.86-3.71-.68-6.39-3.58-8.28-6.32-4.05-5.87-3.44-12.09-4.69-18.58-2.29-11.81-15.13-14.91-26.63-15.25a1.93,1.93,0,1,0,0,3.86c6.27.19,13.21.79,18.1,4.72,5.31,4.24,4.21,10.52,5.23,16.18a27.83,27.83,0,0,0,7.7,15.07c4.59,4.52,10.61,4.21,16.79,5s12.94,2.52,17.38,6.9,3.78,11.82,5.68,17.16c3.85,10.79,14.37,13.95,26,14.24a1.93,1.93,0,1,0,0-3.86Z"/><polygon class="d" points="188.6 610.92 185.05 614.09 120.41 554.94 123.96 551.78 188.6 610.92"/><polygon class="f" points="217.6 364.63 212.64 369.05 172.18 332.02 177.14 327.61 217.6 364.63"/><polygon class="g" points="224.17 332.84 218.04 338.3 212.73 333.44 218.86 327.98 224.17 332.84"/><path class="g" d="M221.15,330.11,215,335.57h6.05l-5.31-4.86v5.46l6.14-5.46h-6l5.31,4.86c3.88,3.54,9.92-1.91,6-5.46l-5.31-4.86a4.68,4.68,0,0,0-6,0l-6.14,5.46a3.64,3.64,0,0,0,0,5.46L215,341a4.68,4.68,0,0,0,6.05,0l6.14-5.46C231.13,332.07,225.08,326.62,221.15,330.11Z"/><path class="f" d="M292,472.54c-.15,7.26,7.25,7.75,13.55,8.23,2.84.22,7.22.92,8.47,3.62,1,2.26-.07,5.13-.74,7.34-1.53,5.06-3.22,10.19-.49,15.17,2.94,5.35,10.19,7.06,16.18,7.62,4.82.46,13.88.2,15.57-5.15a7.4,7.4,0,0,0-1.81-7.39c-2.49-2.19-5.67-2.16-8.95-2.17a12.79,12.79,0,0,1-6.18-1.3c-1.6-.85-.74-2.89-.37-4.1,1.16-3.79,2.42-7.26,2-11.25-.76-6.74-6.52-11.4-13-14-6.08-2.48-22.82-6-24.19,3.42-.36,2.46,3.92,2.43,4.27,0,.65-4.42,13.38-1.46,15.78-.76,8.4,2.46,14.44,8.37,12.6,16.73-1.19,5.42-4.9,11.15,2.56,14.15,3.14,1.27,6.66.89,10,1.08a3.47,3.47,0,0,1,3.38,4.08c-.25,1.57-2.35,2.14-3.76,2.5-6.2,1.59-14.94.26-19.4-4.09-4.16-4.05-.74-10.81.51-15.3s1-8.71-3.38-11.6c-2.53-1.68-6-2.14-9-2.42-3.7-.33-9.37.19-9.28-4.37C296.28,470.05,292,470.05,292,472.54Z"/><path class="d" d="M348.87,455.76c1.11-8.89-10.64-7.1-17.42-8.85-23.88-6.16,9.67-26.82-12.16-38.59-6.93-3.74-28.88-5.91-27.5,3.95s11.82,3.54,19.26,8.43c7,4.61-5.26,12.52-.61,24.7C316,460.07,347.73,464.94,348.87,455.76Z"/><path class="g" d="M223.42,683.05c9.65-11,17.84-23.28,26.3-35.07l-3.36.39c11.12,10.28,23.16,20.44,32.81,31.89l1.84-2.9q-29.55,1.14-59.1,2.4c-2.74.12-2.76,4,0,3.86q29.55-1.3,59.1-2.4c1.45-.06,2.9-1.66,1.85-2.91-9.88-11.73-22.09-22.14-33.47-32.67A2.31,2.31,0,0,0,246,646c-8.26,11.51-16.22,23.52-25.63,34.3C218.71,682.26,221.71,685,223.42,683.05Z"/><path class="f" d="M124.05,458.8c13.15.07,26.22,1.62,39.21-1a2,2,0,0,0,1.57-1.86c-.6-11.66-1.11-23.32-1.61-35a2.08,2.08,0,0,0-2.14-1.93c-13-.54-26.52-1.32-39.46.28a1.94,1.94,0,0,0-1.49,2.37c2.16,11.76-.58,23.87,1.86,35.68.5,2.45,4.62,1.41,4.12-1-2.43-11.8.31-23.9-1.86-35.68l-1.49,2.37c12.52-1.55,25.73-.66,38.32-.14L158.94,421c.5,11.66,1,23.32,1.61,35l1.57-1.86c-12.58,2.52-25.33.91-38.07.84A1.93,1.93,0,1,0,124.05,458.8Z"/><path class="h" d="M169,678.72c10.35-9.34,22-16.87,29.91-28.44-11-9-32.21-26.74-32.21-26.74S143.11,642.92,136,651.59C144.06,656.63,157.12,671.57,169,678.72Z"/><path class="e" d="M257.93,409.69c5.87-5.21,12.33-9.77,16.84-16.08a1.79,1.79,0,0,0-.34-2.34q-8.93-7.33-17.77-14.76a2.34,2.34,0,0,0-3,0c-6,5-12.31,10-17.29,15.87-.76.9-.08,2.09.76,2.64,6.64,4.38,11.42,10.69,18.22,15a2,2,0,1,0,2.16-3.33c-6.78-4.27-11.56-10.58-18.22-15,.26.88.51,1.76.77,2.64,4.73-5.57,10.89-10.37,16.62-15.09h-3q8.87,7.39,17.77,14.76l-.34-2.34c-4.29,6-10.57,10.34-16.17,15.3C252.93,408.7,256,411.43,257.93,409.69Z"/><path class="g" d="M94.31,528.57c6.55-4,11.35-10.53,8.2-17.75-3.38-7.75-12.35-8.08-20.16-9.19-6.51-.92-10.61-5.22-10.7-11.19-.07-4.33,1-8.1-1-12.21-2.94-5.93-11.38-6.71-17.55-5.74-17.62,2.77-15.17,20.07-9.24,31.2,4.37,8.21,11.58,13.79,19.83,18.75,7.71,4.65,17.79,9.63,27.37,7.44a15.16,15.16,0,0,0,3.29-1.31c2.41-1.21.26-4.54-2.16-3.33-7.67,3.84-17.28-1.13-23.88-4.71-7.71-4.19-14.46-9.08-19.14-16.09-3.56-5.31-5.87-11.62-5.7-17.87.17-6.06,4.57-9.15,10.77-10.36,7.22-1.41,13.7,1.61,13.57,8.75-.06,3.64-.72,7,.36,10.55,1,3.15,3.59,5.83,6.46,7.68,5.85,3.79,14,1.59,20.07,4.89,8.34,4.54,3.79,13.34-2.51,17.16C89.88,526.62,92,530,94.31,528.57Z"/><path class="g" d="M323.52,371.37c-10.4.43-20.78-1.38-31-2.79.43.94.86,1.89,1.28,2.83,4.72-7.2,6.28-15.61,8.93-23.51a1.92,1.92,0,0,0-1.49-2.38c-13-1.76-26.14-2.95-39.23-4.15l2.06,2.44c3.19-7.1,6.62-14.1,10.1-21.08a1.91,1.91,0,0,0-1.28-2.84c-11.51-2.31-23.21-3.37-34.86-4.94-2.69-.37-3.85,3.35-1.13,3.72,11.64,1.57,23.34,2.63,34.86,4.94-.43-.94-.85-1.89-1.28-2.83-3.63,7.29-7.21,14.6-10.53,22-.57,1.27.83,2.33,2.06,2.45,12.71,1.16,25.46,2.3,38.09,4-.49-.79-1-1.58-1.49-2.37-2.54,7.58-4,15.7-8.5,22.6a1.89,1.89,0,0,0,1.28,2.83c10.59,1.46,21.39,3.37,32.15,2.93a1.93,1.93,0,1,0,0-3.86Z"/><path class="g" d="M248.18,535.68c-6,4.15-12.16,9.1-19.54,11.15-3.22.89-7-.05-7-3.62,0-2.68,3.73-5.29,5.66-6.93,3.21-2.73,9.33-7.17,6.52-11.79-2.92-4.81-8.87-4.63-13.95-3.14-5.9,1.73-12.51,6.11-19,5.08-2.34-.38-5.83-2.6-4.44-5s4.41-4.33,6.64-6.15c3.39-2.77,9-7.42,6.2-12.06-3.21-5.29-9.37-4.49-14.57-2.41-3.6,1.44-6.91,3.34-10.67,4.45-3.49,1-9.47.8-10.88-3-1-2.69,5.52-5.9,7.37-6.93,2.86-1.61,5.92-2.9,8.81-4.46,2.37-1.28.22-4.61-2.15-3.33-5.62,3-12.37,5.31-16.5,10.11-4.35,5.06.27,9.93,5.95,11.67,6.66,2,13.78-2.31,19.47-4.82,2.74-1.2,6.14-2.51,8.68-.34s-.81,5-2.46,6.5c-3.42,3.15-10.22,6.68-10.6,11.6-.4,5.17,6.51,8.22,11.35,8.14,6.55-.11,12.55-3.76,18.63-5.54,2.57-.75,5.5-1.25,7.63.58,2.39,2-1.24,4.78-2.8,6.17-3.28,2.91-7,5.5-8.75,9.45-1.58,3.53.92,7.76,4.51,9.32,4.5,2,10-.42,13.93-2.36,5.08-2.49,9.55-5.86,14.12-9,2.16-1.49,0-4.84-2.16-3.33Z"/><path class="h" d="M193.1,389.45c-7.29-.08-15.25-.95-18.8-7.44-2.82-5.15-1.64-11.23-3.61-16.54-2.11-5.73-8.58-9.74-14.14-12.52-6.26-3.13-13.83-5.51-21.06-5.19-2.74.12-2.76,4,0,3.85,7.63-.33,15.35,2.62,21.72,6.16a25.14,25.14,0,0,1,8.48,7.15c1.91,2.69,1.78,6.25,2.22,9.32.68,4.82,1.78,9.53,5.35,13.32,4.7,5,13.11,5.68,19.84,5.75a1.93,1.93,0,1,0,0-3.86Z"/><path class="h" d="M190.45,397.8c-13.65,2.31-27-7.42-29.77-19.17-.58-2.43-4.7-1.4-4.13,1,3.3,13.94,19.18,24.54,35,21.86,2.71-.46,1.56-4.18-1.14-3.72Z"/><path class="f" d="M126.85,586.29c-10.75,1.25-21.27-1.41-27.54-9.81-5.57-7.47-5.62-17.14-2.18-25.32,1-2.33-3.15-3.33-4.12-1-4,9.55-3.27,20.42,3.12,29,6.84,9.15,19,12.39,30.72,11,2.7-.32,2.73-4.18,0-3.86Z"/><path class="f" d="M91.14,583.63c-9.74-7.07-10.79-18.48-9.71-29,.25-2.48-4-2.46-4.28,0-1.17,11.43.4,24,11,31.71,2.13,1.54,5.18-1.17,3-2.73Z"/><path class="f" d="M122.14,600.72c5.78,0,12.35,1,18-.54a2,2,0,1,0-1.13-3.72c-5.22,1.38-11.51.41-16.86.4a1.93,1.93,0,1,0,0,3.86Z"/><path class="d" d="M295,577.47c-1.87-4-5.87-7-10.57-4.24-3.53,2.08-5.27,6.74-2.8,10,3.38,4.49,12,3.92,16.52,1.45a9.58,9.58,0,0,0,3.93-13c-3.26-6.43-13-7.5-19.66-5.95-6.94,1.63-13.2,7.76-11.94,14.54,1.4,7.51,9.32,12.82,17.31,13.77,7.77.92,15.41-3.18,19.9-8.6a16.75,16.75,0,0,0-4-24.83c-7.89-4.9-19.15-3.82-27.34-.26-9.85,4.28-15.14,13.69-13.42,23.37,2.59,14.54,21.89,19.33,35.59,16,2.66-.64,1.53-4.36-1.14-3.72-9.23,2.21-19.67.7-26.35-5.81-5.42-5.29-5.29-13.62-1.38-19.55,5.72-8.68,20.49-12,30.33-7.58,5.19,2.34,7.37,6.92,7.11,12-.45,8.4-8.09,14.83-17.32,15.17-10.15.37-20.31-10.74-11.59-18.21,5.74-4.92,21.25-4.48,20.83,4.82-.23,5.16-10.65,8.48-14,4.06-2.06-2.75,3.48-7.49,5.84-2.44,1.05,2.26,5.19,1.27,4.12-1Z"/><path class="d" d="M283.43,440.22c0-7.46-12.83-7.46-12.83,0s12.83,7.46,12.83,0Z"/><path class="d" d="M253.3,433.12c0-5-8.55-5-8.55,0s8.55,5,8.55,0Z"/><path class="g" d="M190.71,570.42c0-7.46-12.83-7.46-12.83,0s12.83,7.47,12.83,0Z"/><path class="g" d="M186,546c0-5-8.55-5-8.55,0s8.55,5,8.55,0Z"/><path class="g" d="M204.8,564.11c0-2.49-4.27-2.49-4.27,0s4.27,2.49,4.27,0Z"/><path class="g" d="M159.32,552.27c0-2.48-4.28-2.48-4.28,0s4.28,2.49,4.28,0Z"/><path class="h" d="M348.46,534.22c0-7.47-12.82-7.47-12.82,0s12.82,7.46,12.82,0Z"/><path class="h" d="M332.08,555.17c0-5-8.55-5-8.55,0s8.55,5,8.55,0Z"/><path class="h" d="M314.81,536.37c0-2.48-4.27-2.48-4.27,0s4.27,2.49,4.27,0Z"/><path class="h" d="M358.75,553.06c0-2.48-4.27-2.48-4.27,0s4.27,2.49,4.27,0Z"/><path class="g" d="M97.93,444.89c.06-10.19,1.06-20.37-.66-30.5-.41-2.45-4.53-1.4-4.12,1,1.65,9.75.56,19.66.51,29.47,0,2.49,4.26,2.49,4.27,0Z"/><path class="e" d="M123.79,385.8c-7.52,0-15.12.06-22.56-1.08-5.88-.9-12.9-3-12.59-9.45.24-5.09,9-6.48,13.11-7.16,7-1.15,14.34-1.07,21.45-1.07a1.93,1.93,0,1,0,0-3.86c-8.55,0-17.22.06-25.6,1.76-6.23,1.26-12.34,4.15-13.24,10.33-2.35,16.12,29.35,14.39,39.43,14.39a1.93,1.93,0,1,0,0-3.86Z"/><path class="d" d="M99.37,342.32c5.11-9.4,14.62-16,21.87-24,1.74-1.9-1.27-4.65-3-2.72-7.48,8.22-17.26,15.07-22.55,24.78-1.21,2.22,2.48,4.18,3.7,1.94Z"/><path class="e" d="M376.8,434.4A126.73,126.73,0,0,1,364,424.14c-1.92-1.79-5,.94-3,2.73a127,127,0,0,0,12.83,10.26c2.14,1.52,5.18-1.19,3-2.73Z"/><path class="f" d="M349.58,414a58.62,58.62,0,0,1-5.86-5c-1.87-1.83-4.89.9-3,2.73a59.89,59.89,0,0,0,5.87,5,2.34,2.34,0,0,0,3,0,1.8,1.8,0,0,0,0-2.73Z"/><path class="h" d="M58.87,553.12c-.53-8.37-17-9.46-23.58-10.06-9-.8-24.64-2.16-30,6.21-3.68,5.78,3.61,10.65,9,11.8,2.65.56,5.64.37,8.35.56,3.21.21,6.42.45,9.63.62,8.06.41,26,1.6,26.54-9.13.12-2.49-4.15-2.48-4.27,0-.35,7.2-17.28,5.5-22.27,5.27-4.18-.19-8.35-.57-12.54-.8-2.9-.16-5.49-.23-8.14-1.52-3.65-1.79-3.55-5.55,0-7.45,2.72-1.48,6.55-1.67,9.62-1.89a91.66,91.66,0,0,1,14.06.19,67.92,67.92,0,0,1,12.64,2.17c1.85.52,6.52,1.77,6.67,4C54.76,555.59,59,555.61,58.87,553.12Z"/><line class="d" x1="82.36" y1="150.77" x2="42.66" y2="114.85"/><path class="e" d="M83.87,149.4l-39.7-35.91c-2-1.77-5,1-3,2.72l39.71,35.92c2,1.76,5-1,3-2.73Z"/><path class="e" d="M209.86,248.21c-16,1.27-35.18-10.45-39.05-24.63-.66-2.41-4.78-1.39-4.12,1,4.29,15.72,25.37,28.88,43.17,27.46,2.72-.22,2.75-4.08,0-3.86Z"/><path class="e" d="M166.76,240.09c-8.11-6.79-13-18.21-10.56-28.11.61-2.42-3.52-3.45-4.12-1-2.81,11.22,2.41,24.11,11.66,31.86,2,1.69,5-1,3-2.73Z"/><path class="e" d="M225.6,251.28c3.1,0,6.13-.17,8.51-2.15,2-1.68-1-4.4-3-2.72-1.43,1.18-3.68,1-5.49,1a1.93,1.93,0,1,0,0,3.86Z"/><path class="e" d="M208.89,130.42c-6.36-.16-13.24-.83-18-5.09-3.81-3.43-4.91-8.84-5.85-13.42-1.17-5.67-2.37-10.31-7.62-14.06-4.94-3.52-11.39-4.91-17.49-5.71-2.78-.37-5.65-.37-8.39-.86-3.71-.68-6.39-3.59-8.27-6.32-4.06-5.87-3.44-12.09-4.7-18.58C136.32,54.57,123.48,51.47,112,51.13A1.93,1.93,0,1,0,112,55c6.27.19,13.21.79,18.11,4.72,5.3,4.24,4.2,10.52,5.23,16.18A27.75,27.75,0,0,0,143,91c4.59,4.52,10.61,4.21,16.79,5s12.94,2.52,17.39,6.9S181,114.7,182.86,120c3.85,10.79,14.37,14,26,14.24a1.93,1.93,0,1,0,0-3.86Z"/><polygon class="d" points="108.33 230.66 104.77 233.83 40.13 174.68 43.69 171.52 108.33 230.66"/><path class="f" d="M211.68,92.28c-.15,7.26,7.26,7.75,13.55,8.23,2.84.22,7.22.92,8.48,3.62,1,2.26-.08,5.13-.75,7.34-1.53,5.06-3.22,10.19-.48,15.17,2.94,5.35,10.18,7.06,16.17,7.62,4.82.46,13.88.2,15.57-5.15a7.38,7.38,0,0,0-1.81-7.39c-2.49-2.19-5.67-2.16-9-2.17a12.9,12.9,0,0,1-6.18-1.3c-1.6-.85-.74-2.89-.37-4.1,1.17-3.79,2.42-7.26,2-11.25-.77-6.74-6.53-11.4-13-14-6.08-2.48-22.82-6-24.19,3.42-.36,2.46,3.92,2.43,4.27,0,.65-4.42,13.39-1.46,15.79-.76,8.4,2.46,14.43,8.37,12.59,16.73-1.19,5.42-4.89,11.15,2.56,14.15,3.14,1.27,6.66.89,10,1.08a3.47,3.47,0,0,1,3.38,4.08c-.25,1.57-2.35,2.14-3.76,2.5-6.2,1.59-14.93.26-19.4-4.09-4.16-4-.74-10.82.51-15.31s1-8.7-3.38-11.59c-2.53-1.68-6-2.14-9-2.42-3.69-.33-9.37.19-9.28-4.37C216,89.79,211.73,89.79,211.68,92.28Z"/><path class="d" d="M268.59,75.5c1.11-8.89-10.63-7.1-17.41-8.85C227.3,60.49,260.84,39.83,239,28.06c-6.93-3.74-28.88-5.91-27.5,3.95s11.82,3.54,19.26,8.43c7,4.61-5.25,12.52-.61,24.7C235.75,79.81,267.45,84.68,268.59,75.5Z"/><path class="g" d="M143.14,302.79c9.65-11,17.84-23.28,26.3-35.07l-3.35.39c11.11,10.28,23.15,20.44,32.8,31.89l1.84-2.9q-29.55,1.14-59.1,2.4c-2.74.12-2.76,4,0,3.86q29.55-1.31,59.1-2.4c1.45-.06,2.9-1.66,1.85-2.91-9.88-11.73-22.08-22.14-33.47-32.67a2.31,2.31,0,0,0-3.36.39c-8.26,11.51-16.21,23.52-25.63,34.3C138.43,302,141.44,304.75,143.14,302.79Z"/><path class="f" d="M43.77,78.54c13.15.07,26.23,1.62,39.21-1a2,2,0,0,0,1.57-1.86c-.6-11.66-1.11-23.32-1.61-35a2.08,2.08,0,0,0-2.14-1.93c-13-.54-26.52-1.32-39.46.28a1.94,1.94,0,0,0-1.49,2.37C42,53.2,39.28,65.31,41.71,77.12c.51,2.44,4.63,1.41,4.12-1C43.4,64.3,46.14,52.2,44,40.42c-.49.79-1,1.58-1.49,2.37,12.52-1.55,25.73-.66,38.32-.14l-2.14-1.93c.5,11.66,1,23.32,1.61,35l1.57-1.86c-12.57,2.52-25.33.91-38.07.84A1.93,1.93,0,1,0,43.77,78.54Z"/><path class="h" d="M88.71,298.46c10.35-9.34,22-16.87,29.91-28.44-11-9-32.21-26.74-32.21-26.74s-23.58,19.38-30.73,28C63.78,276.37,76.84,291.31,88.71,298.46Z"/><path class="e" d="M177.65,29.43c5.87-5.21,12.33-9.77,16.84-16.08a1.78,1.78,0,0,0-.34-2.34q-8.93-7.33-17.77-14.76a2.34,2.34,0,0,0-3,0c-6,5-12.31,10-17.29,15.87-.76.9-.08,2.09.77,2.64,6.64,4.38,11.42,10.69,18.22,15a2,2,0,1,0,2.15-3.33c-6.78-4.27-11.56-10.58-18.22-15,.26.88.51,1.76.77,2.64C164.5,8.5,170.65,3.7,176.38-1h-3q8.87,7.4,17.77,14.76l-.33-2.34c-4.3,6-10.58,10.34-16.18,15.3C172.65,28.44,175.68,31.17,177.65,29.43Z"/><path class="g" d="M14,148.31c6.56-4,11.35-10.53,8.2-17.75-3.38-7.75-12.35-8.08-20.16-9.19-6.51-.92-10.61-5.22-10.7-11.19-.07-4.33,1-8.1-1-12.21C-12.61,92-21,91.26-27.22,92.23c-17.62,2.77-15.17,20.07-9.24,31.2,4.38,8.21,11.58,13.79,19.83,18.75,7.72,4.65,17.79,9.63,27.37,7.44A15.16,15.16,0,0,0,14,148.31c2.41-1.21.26-4.54-2.15-3.33C4.2,148.82-5.41,143.85-12,140.27c-7.71-4.19-14.46-9.08-19.14-16.09-3.55-5.31-5.87-11.62-5.7-17.87.17-6.06,4.57-9.15,10.77-10.36,7.22-1.41,13.7,1.61,13.58,8.75-.07,3.64-.73,7,.35,10.55,1,3.15,3.59,5.83,6.46,7.68,5.85,3.79,14,1.59,20.07,4.89,8.34,4.54,3.79,13.34-2.5,17.16C9.6,146.36,11.74,149.7,14,148.31Z"/><path class="g" d="M167.9,155.42c-6,4.15-12.15,9.1-19.54,11.15-3.21.89-7,0-7-3.62,0-2.68,3.73-5.29,5.66-6.93,3.21-2.73,9.33-7.17,6.52-11.79-2.92-4.81-8.87-4.63-13.95-3.14-5.9,1.73-12.51,6.11-19,5.08-2.34-.38-5.83-2.6-4.44-5s4.41-4.33,6.64-6.15c3.4-2.77,9-7.42,6.2-12.06-3.2-5.29-9.37-4.49-14.57-2.41-3.59,1.44-6.91,3.34-10.66,4.45-3.5,1-9.47.8-10.89-3-1-2.69,5.52-5.9,7.37-6.93,2.86-1.61,5.93-2.9,8.82-4.46,2.36-1.28.21-4.61-2.16-3.33-5.62,3-12.37,5.31-16.5,10.11-4.35,5.06.28,9.93,5.95,11.67,6.66,2,13.78-2.31,19.47-4.82,2.74-1.2,6.14-2.51,8.69-.34s-.82,5-2.47,6.5c-3.42,3.15-10.22,6.68-10.6,11.6-.4,5.17,6.51,8.22,11.35,8.14,6.55-.11,12.56-3.76,18.63-5.54,2.57-.75,5.5-1.25,7.63.58,2.39,2-1.24,4.78-2.8,6.17-3.28,2.91-7,5.5-8.75,9.45-1.58,3.53.92,7.76,4.51,9.32,4.51,1.95,10-.42,13.94-2.36,5.07-2.49,9.54-5.86,14.11-9,2.16-1.49,0-4.84-2.16-3.33Z"/><path class="h" d="M112.82,9.19c-7.29-.08-15.25-.95-18.8-7.44C91.2-3.4,92.38-9.48,90.42-14.79c-2.12-5.73-8.59-9.75-14.15-12.52C70-30.44,62.44-32.82,55.21-32.5c-2.74.12-2.75,4,0,3.85C62.84-29,70.56-26,76.94-22.5a25.34,25.34,0,0,1,8.47,7.16c1.91,2.69,1.78,6.25,2.22,9.32C88.31-1.2,89.41,3.51,93,7.3c4.7,5,13.11,5.68,19.84,5.75a1.93,1.93,0,1,0,0-3.86Z"/><path class="h" d="M110.18,17.54c-13.66,2.31-27-7.42-29.78-19.17-.58-2.43-4.7-1.4-4.13,1,3.3,13.94,19.18,24.54,35,21.86,2.71-.46,1.56-4.18-1.13-3.72Z"/><path class="f" d="M46.57,206c-10.75,1.25-21.26-1.41-27.54-9.81-5.57-7.47-5.62-17.14-2.18-25.32,1-2.33-3.15-3.33-4.12-1-4,9.55-3.27,20.42,3.13,29,6.83,9.15,19,12.39,30.71,11,2.7-.32,2.73-4.18,0-3.86Z"/><path class="f" d="M10.86,203.37c-9.74-7.07-10.78-18.48-9.71-29,.25-2.48-4-2.46-4.28,0-1.17,11.43.4,24,11,31.71,2.12,1.54,5.17-1.17,3-2.73Z"/><path class="f" d="M41.87,220.46c5.77,0,12.35,1,18-.54a2,2,0,1,0-1.14-3.72c-5.22,1.38-11.5.41-16.85.4a1.93,1.93,0,1,0,0,3.86Z"/><path class="d" d="M214.68,197.21c-1.87-4-5.87-7-10.57-4.24-3.53,2.08-5.27,6.74-2.79,10,3.37,4.49,12,3.92,16.51,1.45a9.58,9.58,0,0,0,3.93-13c-3.26-6.43-13-7.5-19.66-5.95-6.94,1.63-13.2,7.76-11.94,14.54,1.4,7.51,9.32,12.81,17.32,13.77,7.76.92,15.4-3.18,19.89-8.6a16.74,16.74,0,0,0-4-24.83c-7.88-4.9-19.15-3.82-27.33-.26-9.86,4.28-15.15,13.69-13.42,23.37,2.58,14.54,21.89,19.33,35.58,16,2.66-.64,1.53-4.36-1.14-3.72-9.23,2.21-19.67.7-26.35-5.81-5.42-5.29-5.29-13.62-1.38-19.55,5.72-8.69,20.49-12,30.33-7.58,5.19,2.34,7.38,6.92,7.11,12-.45,8.4-8.09,14.83-17.32,15.17-10.15.37-20.3-10.74-11.59-18.21,5.74-4.92,21.26-4.48,20.83,4.82-.23,5.16-10.65,8.48-14,4.06-2.06-2.75,3.48-7.49,5.84-2.44,1.05,2.26,5.19,1.27,4.12-1Z"/><path class="d" d="M203.15,60c0-7.46-12.82-7.46-12.82,0s12.82,7.46,12.82,0Z"/><path class="d" d="M173,52.86c0-5-8.55-5-8.55,0s8.55,5,8.55,0Z"/><path class="g" d="M110.43,190.16c0-7.46-12.83-7.46-12.83,0s12.83,7.47,12.83,0Z"/><path class="g" d="M105.67,165.7c0-5-8.55-5-8.55,0s8.55,5,8.55,0Z"/><path class="g" d="M124.52,183.85c0-2.49-4.27-2.49-4.27,0s4.27,2.49,4.27,0Z"/><path class="g" d="M79,172c0-2.48-4.28-2.48-4.28,0S79,174.5,79,172Z"/><path class="h" d="M268.18,154c0-7.46-12.82-7.46-12.82,0s12.82,7.47,12.82,0Z"/><path class="h" d="M251.81,174.91c0-5-8.56-5-8.56,0s8.56,5,8.56,0Z"/><path class="h" d="M234.53,156.11c0-2.48-4.27-2.48-4.27,0s4.27,2.49,4.27,0Z"/><path class="h" d="M278.48,172.8c0-2.48-4.28-2.48-4.28,0s4.28,2.49,4.28,0Z"/><path class="g" d="M17.66,64.63c.05-10.19,1.05-20.37-.66-30.5-.42-2.45-4.54-1.4-4.13,1,1.66,9.75.56,19.66.51,29.47,0,2.49,4.26,2.49,4.28,0Z"/><path class="e" d="M43.51,5.54C36,5.54,28.39,5.6,21,4.46,15.07,3.56,8.06,1.42,8.36-5c.24-5.09,9-6.48,13.11-7.16,7-1.15,14.34-1.07,21.46-1.07a1.93,1.93,0,1,0,0-3.86c-8.55,0-17.23.06-25.61,1.76C11.09-14.06,5-11.17,4.08-5,1.73,11.13,33.43,9.4,43.51,9.4a1.93,1.93,0,1,0,0-3.86Z"/><path class="e" d="M296.52,54.14a126.73,126.73,0,0,1-12.83-10.26c-1.92-1.79-4.94.94-3,2.73A127,127,0,0,0,293.5,56.87c2.14,1.52,5.18-1.19,3-2.73Z"/><path class="f" d="M269.31,33.72a59.89,59.89,0,0,1-5.87-5c-1.87-1.83-4.88.9-3,2.73a58.62,58.62,0,0,0,5.86,5,2.36,2.36,0,0,0,3,0,1.81,1.81,0,0,0,0-2.73Z"/><path class="e" d="M-1.38,515.71c-16,1.28-35.17-10.45-39-24.63-.66-2.41-4.78-1.39-4.12,1,4.3,15.73,25.38,28.88,43.17,27.46,2.73-.22,2.75-4.08,0-3.86Z"/><path class="e" d="M14.37,518.78c3.09,0,6.12-.17,8.51-2.15,2-1.68-1-4.4-3-2.72-1.44,1.18-3.68,1-5.49,1a1.93,1.93,0,1,0,0,3.86Z"/><path class="f" d="M.44,359.78C.3,367,7.7,367.54,14,368c2.83.22,7.22.92,8.47,3.62,1.05,2.26-.07,5.13-.74,7.35-1.53,5-3.23,10.18-.49,15.16,2.94,5.35,10.19,7.06,16.18,7.63,4.82.45,13.88.19,15.57-5.15a7.41,7.41,0,0,0-1.81-7.4c-2.49-2.19-5.68-2.16-9-2.17a12.76,12.76,0,0,1-6.18-1.3c-1.6-.85-.74-2.89-.37-4.1,1.16-3.79,2.42-7.26,2-11.25-.77-6.74-6.52-11.39-13-14-6.09-2.47-22.82-6-24.2,3.42-.36,2.46,3.92,2.43,4.28,0,.64-4.42,13.38-1.46,15.78-.76,8.4,2.46,14.44,8.37,12.6,16.73-1.19,5.43-4.9,11.15,2.55,14.15,3.15,1.27,6.67.89,10,1.08A3.47,3.47,0,0,1,49,395.06c-.24,1.57-2.34,2.14-3.76,2.5-6.2,1.59-14.93.26-19.39-4.09-4.16-4.05-.74-10.81.5-15.3s1-8.71-3.37-11.6c-2.54-1.68-6-2.14-9-2.42-3.7-.33-9.37.19-9.28-4.37C4.77,357.29.49,357.29.44,359.78Z"/><path class="d" d="M57.36,343c1.1-8.89-10.64-7.1-17.42-8.85C16.06,328,49.6,307.33,27.78,295.56c-6.94-3.74-28.88-5.91-27.5,3.95s11.81,3.54,19.26,8.43c7,4.61-5.26,12.52-.61,24.7C24.52,347.31,56.22,352.18,57.36,343Z"/><path class="g" d="M32,258.61c-10.4.43-20.79-1.38-31-2.79.43.94.85,1.89,1.28,2.83C7,251.45,8.55,243,11.2,235.14a1.92,1.92,0,0,0-1.49-2.38c-13-1.76-26.14-2.95-39.23-4.15l2.06,2.44c3.18-7.1,6.62-14.1,10.1-21.08a1.92,1.92,0,0,0-1.28-2.84c-11.51-2.31-23.21-3.37-34.86-4.94-2.7-.37-3.86,3.35-1.14,3.72,11.65,1.57,23.35,2.63,34.86,4.94-.42-.94-.85-1.88-1.27-2.83-3.63,7.29-7.21,14.6-10.53,22-.57,1.26.83,2.32,2.06,2.44,12.71,1.16,25.46,2.3,38.09,4l-1.49-2.37c-2.54,7.58-4,15.7-8.5,22.6a1.89,1.89,0,0,0,1.27,2.83c10.6,1.46,21.4,3.37,32.16,2.93a1.93,1.93,0,1,0,0-3.86Z"/><path class="d" d="M3.45,464.71c-1.87-4-5.88-7-10.57-4.24-3.53,2.08-5.27,6.74-2.8,10,3.38,4.49,12,3.92,16.51,1.45a9.57,9.57,0,0,0,3.94-13c-3.26-6.43-13-7.5-19.67-5.95-6.94,1.63-13.19,7.76-11.93,14.54,1.4,7.51,9.31,12.82,17.31,13.77,7.76.92,15.41-3.18,19.89-8.6a16.74,16.74,0,0,0-4-24.83C4.26,443-7,444-15.19,447.59-25,451.87-30.33,461.28-28.61,471-26,485.5-6.72,490.29,7,487c2.67-.64,1.54-4.36-1.13-3.72-9.23,2.21-19.68.71-26.36-5.81-5.42-5.29-5.28-13.62-1.37-19.55,5.72-8.68,20.48-12,30.33-7.58,5.19,2.34,7.37,6.92,7.1,12-.44,8.4-8.08,14.84-17.31,15.17-10.16.37-20.31-10.74-11.59-18.21,5.73-4.92,21.25-4.47,20.83,4.82-.24,5.16-10.65,8.48-14,4.06-2.07-2.75,3.47-7.49,5.83-2.44,1.06,2.26,5.2,1.27,4.13-1Z"/><path class="h" d="M57,421.46c0-7.47-12.83-7.47-12.83,0s12.83,7.46,12.83,0Z"/><path class="h" d="M40.57,442.41c0-5-8.55-5-8.55,0s8.55,5,8.55,0Z"/><path class="h" d="M23.3,423.61c0-2.48-4.28-2.48-4.28,0s4.28,2.49,4.28,0Z"/><path class="h" d="M67.24,440.3c0-2.48-4.27-2.48-4.27,0s4.27,2.49,4.27,0Z"/><path class="e" d="M85.29,321.64a125.63,125.63,0,0,1-12.83-10.26c-1.93-1.79-4.95.94-3,2.73a129.28,129.28,0,0,0,12.83,10.26c2.14,1.52,5.19-1.19,3-2.73Z"/><path class="f" d="M58.07,301.22a58.55,58.55,0,0,1-5.87-5c-1.86-1.83-4.88.9-3,2.73a59.89,59.89,0,0,0,5.87,5,2.34,2.34,0,0,0,3,0,1.81,1.81,0,0,0,0-2.73Z"/></g><g class="i"><path class="j" d="M868.16,1050.06V30a30.09,30.09,0,0,0-30-30h-30.5a30.09,30.09,0,0,1,30,30V1050.06a30.1,30.1,0,0,1-30,30h30.5a30.1,30.1,0,0,0,30-30"/></g><rect class="k" x="732.89" y="-0.01" width="24" height="1080"/></svg>