<svg xmlns="http://www.w3.org/2000/svg" viewBox="0 0 792 612"><defs><style>.a{fill:#faf5e1;}.b{fill:none;stroke:#d4d4d4;stroke-width:0.6px;}</style></defs><title>Yellow</title><rect class="a" width="792" height="612"/><line class="b" x1="525.72" y1="50.88" x2="756.84" y2="50.88"/><line class="b" x1="525.72" y1="72.14" x2="756.84" y2="72.14"/><line class="b" x1="525.72" y1="93.4" x2="756.84" y2="93.4"/><line class="b" x1="525.72" y1="114.66" x2="756.84" y2="114.66"/><line class="b" x1="525.72" y1="135.92" x2="756.84" y2="135.92"/><line class="b" x1="525.72" y1="157.18" x2="756.84" y2="157.18"/><line class="b" x1="525.72" y1="178.44" x2="756.84" y2="178.44"/><line class="b" x1="525.72" y1="199.7" x2="756.84" y2="199.7"/><line class="b" x1="525.72" y1="220.96" x2="756.84" y2="220.96"/><line class="b" x1="525.72" y1="242.22" x2="756.84" y2="242.22"/><line class="b" x1="525.72" y1="263.48" x2="756.84" y2="263.48"/><line class="b" x1="525.72" y1="284.74" x2="756.84" y2="284.74"/><line class="b" x1="525.72" y1="306" x2="756.84" y2="306"/><line class="b" x1="525.72" y1="327.26" x2="756.84" y2="327.26"/><line class="b" x1="525.72" y1="348.52" x2="756.84" y2="348.52"/><line class="b" x1="525.72" y1="369.78" x2="756.84" y2="369.78"/><line class="b" x1="525.72" y1="391.04" x2="756.84" y2="391.04"/><line class="b" x1="525.72" y1="412.3" x2="756.84" y2="412.3"/><line class="b" x1="525.72" y1="433.56" x2="756.84" y2="433.56"/><line class="b" x1="525.72" y1="454.82" x2="756.84" y2="454.82"/><line class="b" x1="525.72" y1="476.08" x2="756.84" y2="476.08"/><line class="b" x1="525.72" y1="497.34" x2="756.84" y2="497.34"/><line class="b" x1="525.72" y1="518.6" x2="756.84" y2="518.6"/><line class="b" x1="525.72" y1="539.86" x2="756.84" y2="539.86"/><line class="b" x1="525.72" y1="561.12" x2="756.84" y2="561.12"/><line class="b" x1="35.16" y1="50.88" x2="511.55" y2="50.88"/><line class="b" x1="35.16" y1="72.14" x2="511.55" y2="72.14"/><line class="b" x1="35.16" y1="93.4" x2="511.55" y2="93.4"/><line class="b" x1="35.16" y1="114.66" x2="511.55" y2="114.66"/><line class="b" x1="35.16" y1="135.92" x2="511.55" y2="135.92"/><line class="b" x1="35.16" y1="157.18" x2="511.55" y2="157.18"/><line class="b" x1="35.16" y1="178.44" x2="511.55" y2="178.44"/><line class="b" x1="35.16" y1="199.7" x2="511.55" y2="199.7"/><line class="b" x1="35.16" y1="220.96" x2="511.55" y2="220.96"/><line class="b" x1="35.16" y1="242.22" x2="511.55" y2="242.22"/><line class="b" x1="35.16" y1="263.48" x2="511.55" y2="263.48"/><line class="b" x1="35.16" y1="284.74" x2="511.55" y2="284.74"/><line class="b" x1="35.16" y1="306" x2="511.55" y2="306"/><line class="b" x1="35.16" y1="327.26" x2="511.55" y2="327.26"/><line class="b" x1="35.16" y1="348.52" x2="511.55" y2="348.52"/><line class="b" x1="35.16" y1="369.78" x2="511.55" y2="369.78"/><line class="b" x1="35.16" y1="391.04" x2="511.55" y2="391.04"/><line class="b" x1="35.16" y1="412.3" x2="511.55" y2="412.3"/><line class="b" x1="35.16" y1="433.56" x2="511.55" y2="433.56"/><line class="b" x1="35.16" y1="454.82" x2="511.55" y2="454.82"/><line class="b" x1="35.16" y1="476.08" x2="511.55" y2="476.08"/><line class="b" x1="35.16" y1="497.34" x2="511.55" y2="497.34"/><line class="b" x1="35.16" y1="518.6" x2="511.55" y2="518.6"/><line class="b" x1="35.16" y1="539.86" x2="511.55" y2="539.86"/><line class="b" x1="35.16" y1="561.12" x2="511.55" y2="561.12"/></svg>