<svg xmlns="http://www.w3.org/2000/svg" xmlns:xlink="http://www.w3.org/1999/xlink" viewBox="0 0 612.88 792.3"><defs><style>.a,.d{fill:none;}.b{fill:#faf5e1;}.c{clip-path:url(#a);}.d{stroke:#d4d4d4;stroke-width:0.6px;}</style><clipPath id="a" transform="translate(0 0)"><rect class="a" width="612.88" height="792.3"/></clipPath></defs><title>Yellow</title><rect class="b" x="0.3" y="0.3" width="612" height="792"/><g class="c"><line class="d" x1="0.3" y1="0.3" x2="612.3" y2="0.3"/><line class="d" x1="0.3" y1="17.31" x2="612.3" y2="17.31"/><line class="d" x1="0.3" y1="34.32" x2="612.3" y2="34.32"/><line class="d" x1="0.3" y1="51.32" x2="612.3" y2="51.32"/><line class="d" x1="0.3" y1="68.33" x2="612.3" y2="68.33"/><line class="d" x1="0.3" y1="85.34" x2="612.3" y2="85.34"/><line class="d" x1="0.3" y1="102.35" x2="612.3" y2="102.35"/><line class="d" x1="0.3" y1="119.36" x2="612.3" y2="119.36"/><line class="d" x1="0.3" y1="136.36" x2="612.3" y2="136.36"/><line class="d" x1="0.3" y1="153.37" x2="612.3" y2="153.37"/><line class="d" x1="0.3" y1="170.38" x2="612.3" y2="170.38"/><line class="d" x1="0.3" y1="187.39" x2="612.3" y2="187.39"/><line class="d" x1="0.3" y1="204.39" x2="612.3" y2="204.39"/><line class="d" x1="0.3" y1="221.4" x2="612.3" y2="221.4"/><line class="d" x1="0.3" y1="238.41" x2="612.3" y2="238.41"/><line class="d" x1="0.3" y1="255.42" x2="612.3" y2="255.42"/><line class="d" x1="0.3" y1="272.43" x2="612.3" y2="272.43"/><line class="d" x1="0.3" y1="289.43" x2="612.3" y2="289.43"/><line class="d" x1="0.3" y1="306.44" x2="612.3" y2="306.44"/><line class="d" x1="0.3" y1="323.45" x2="612.3" y2="323.45"/><line class="d" x1="0.3" y1="340.46" x2="612.3" y2="340.46"/><line class="d" x1="0.3" y1="357.47" x2="612.3" y2="357.47"/><line class="d" x1="0.3" y1="374.47" x2="612.3" y2="374.47"/><line class="d" x1="0.3" y1="391.48" x2="612.3" y2="391.48"/><line class="d" x1="0.3" y1="408.49" x2="612.3" y2="408.49"/><line class="d" x1="0.3" y1="425.5" x2="612.3" y2="425.5"/><line class="d" x1="0.3" y1="442.5" x2="612.3" y2="442.5"/><line class="d" x1="0.3" y1="459.51" x2="612.3" y2="459.51"/><line class="d" x1="0.3" y1="476.52" x2="612.3" y2="476.52"/><line class="d" x1="0.3" y1="493.53" x2="612.3" y2="493.53"/><line class="d" x1="0.3" y1="510.54" x2="612.3" y2="510.54"/><line class="d" x1="0.3" y1="527.54" x2="612.3" y2="527.54"/><line class="d" x1="0.3" y1="544.55" x2="612.3" y2="544.55"/><line class="d" x1="0.3" y1="561.56" x2="612.3" y2="561.56"/><line class="d" x1="0.3" y1="578.57" x2="612.3" y2="578.57"/><line class="d" x1="0.3" y1="595.58" x2="612.3" y2="595.58"/><line class="d" x1="0.3" y1="612.58" x2="612.3" y2="612.58"/><line class="d" x1="0.3" y1="629.59" x2="612.3" y2="629.59"/><line class="d" x1="0.3" y1="646.6" x2="612.3" y2="646.6"/><line class="d" x1="0.3" y1="663.61" x2="612.3" y2="663.61"/><line class="d" x1="0.3" y1="680.62" x2="612.3" y2="680.62"/><line class="d" x1="0.3" y1="697.62" x2="612.3" y2="697.62"/><line class="d" x1="0.3" y1="714.63" x2="612.3" y2="714.63"/><line class="d" x1="0.3" y1="731.64" x2="612.3" y2="731.64"/><line class="d" x1="0.3" y1="748.65" x2="612.3" y2="748.65"/><line class="d" x1="0.3" y1="765.65" x2="612.3" y2="765.65"/><line class="d" x1="0.3" y1="782.66" x2="612.3" y2="782.66"/><line class="d" x1="0.3" y1="0.3" x2="0.3" y2="792.3"/><line class="d" x1="17.31" y1="0.3" x2="17.31" y2="792.3"/><line class="d" x1="34.32" y1="0.3" x2="34.32" y2="792.3"/><line class="d" x1="51.32" y1="0.3" x2="51.32" y2="792.3"/><line class="d" x1="68.33" y1="0.3" x2="68.33" y2="792.3"/><line class="d" x1="85.34" y1="0.3" x2="85.34" y2="792.3"/><line class="d" x1="102.35" y1="0.3" x2="102.35" y2="792.3"/><line class="d" x1="119.36" y1="0.3" x2="119.36" y2="792.3"/><line class="d" x1="136.36" y1="0.3" x2="136.36" y2="792.3"/><line class="d" x1="153.37" y1="0.3" x2="153.37" y2="792.3"/><line class="d" x1="170.38" y1="0.3" x2="170.38" y2="792.3"/><line class="d" x1="187.39" y1="0.3" x2="187.39" y2="792.3"/><line class="d" x1="204.39" y1="0.3" x2="204.39" y2="792.3"/><line class="d" x1="221.4" y1="0.3" x2="221.4" y2="792.3"/><line class="d" x1="238.41" y1="0.3" x2="238.41" y2="792.3"/><line class="d" x1="255.42" y1="0.3" x2="255.42" y2="792.3"/><line class="d" x1="272.43" y1="0.3" x2="272.43" y2="792.3"/><line class="d" x1="289.43" y1="0.3" x2="289.43" y2="792.3"/><line class="d" x1="306.44" y1="0.3" x2="306.44" y2="792.3"/><line class="d" x1="323.45" y1="0.3" x2="323.45" y2="792.3"/><line class="d" x1="340.46" y1="0.3" x2="340.46" y2="792.3"/><line class="d" x1="357.47" y1="0.3" x2="357.47" y2="792.3"/><line class="d" x1="374.47" y1="0.3" x2="374.47" y2="792.3"/><line class="d" x1="391.48" y1="0.3" x2="391.48" y2="792.3"/><line class="d" x1="408.49" y1="0.3" x2="408.49" y2="792.3"/><line class="d" x1="425.5" y1="0.3" x2="425.5" y2="792.3"/><line class="d" x1="442.5" y1="0.3" x2="442.5" y2="792.3"/><line class="d" x1="459.51" y1="0.3" x2="459.51" y2="792.3"/><line class="d" x1="476.52" y1="0.3" x2="476.52" y2="792.3"/><line class="d" x1="493.53" y1="0.3" x2="493.53" y2="792.3"/><line class="d" x1="510.54" y1="0.3" x2="510.54" y2="792.3"/><line class="d" x1="527.54" y1="0.3" x2="527.54" y2="792.3"/><line class="d" x1="544.55" y1="0.3" x2="544.55" y2="792.3"/><line class="d" x1="561.56" y1="0.3" x2="561.56" y2="792.3"/><line class="d" x1="578.57" y1="0.3" x2="578.57" y2="792.3"/><line class="d" x1="595.58" y1="0.3" x2="595.58" y2="792.3"/><line class="d" x1="612.58" y1="0.3" x2="612.58" y2="792.3"/></g></svg>