<svg xmlns="http://www.w3.org/2000/svg" xmlns:xlink="http://www.w3.org/1999/xlink" viewBox="0 0 868 1080"><defs><style>.a{fill:none;}.b{clip-path:url(#a);}.c{fill:#e5e5e5;}.d{fill:#fff;}.e{fill:#ef7592;}.f{fill:#efcbd4;}.g{fill:#4177a6;}.h{fill:#ff96bf;}.i{fill:#ef4e74;}.j{fill:#09f;}.k{fill:#34b5d9;}.l{fill:#f8a7c6;}.m{fill:#fb9cab;}</style><clipPath id="a" transform="translate(-10 -10)"><rect class="a" x="10" y="10" width="868" height="1080"/></clipPath></defs><title>06 Tech</title><g class="b"><path class="c" d="M848,1090H784V10.25h64a30.09,30.09,0,0,1,30,30V1060a30.09,30.09,0,0,1-30,30" transform="translate(-10 -10)"/></g><polyline class="d" points="837.5 0.25 837.5 1080 0 1080 0 0.25"/><rect class="e" x="733.25" width="24" height="1080"/><polygon class="f" points="517.97 669.78 457.87 677.89 455.37 676.88 514.9 667.83 517.97 669.78"/><path class="f" d="M471.62,650.69l5.22-21.84,56.35,29.09L528,679.78Zm54,25.33,4.1-17.34L479,632.16l-4.69,16.94Z" transform="translate(-10 -10)"/><polygon class="f" points="460.37 641.4 416.36 658.55 416.23 657.57 460.37 641.4"/><polygon class="f" points="466.39 621.46 413.85 649.83 414.66 644.51 466.83 618.85 466.39 621.46"/><polygon class="f" points="461.74 676.79 458.5 680.04 415.89 656.77 416.77 643.6 412.25 645.17 411.1 659.43 459.1 686.26 461.74 676.79"/><polygon class="f" points="415.74 644.01 407.28 640.44 370.8 656.18 368.01 664.51 358.19 667.19 352.47 670.89 341.33 673.49 340.78 681.34 356.38 677.77 360.34 670.72 371.59 665.96 372.39 657.79 406.32 642.6 415.74 644.01"/><polygon class="f" points="459.1 686.26 410.45 695.26 402.57 695.39 382.74 700.49 374.1 698.5 345.64 703.47 343.8 697.84 371.26 693.78 383.32 697.82 399.86 692.22 410.84 693.48 459.1 686.26"/><polygon class="f" points="476.78 668.06 491.11 666.17 480.27 660.89 465.71 663.84 476.78 668.06"/><polygon class="f" points="458.84 659.88 473.17 658 462.33 652.72 447.77 655.66 458.84 659.88"/><polygon class="f" points="409 659.75 377.17 667.44 361.67 678.3 374.33 666.29 409 659.75"/><polygon class="f" points="518.2 649.17 495.42 651.26 514.27 647.21 518.2 649.17"/><polygon class="f" points="403.9 659.89 406.57 643.24 411.01 644.54 409.43 659.14 403.9 659.89"/><polygon class="f" points="364.51 678.02 380.88 690.27 398.38 686.32 376.41 671.12 364.51 678.02"/><path class="f" d="M339.67,498.05C284,375,122.14,424,114.87,546.08c-6.21,104.44,108.88,180.52,246.05,163L352.4,685.3c-119.25,16.53-223.19-33.85-225.11-138.81-2.45-134.51,188-164.19,222.18-14C349.47,532.52,348.3,517.15,339.67,498.05Z" transform="translate(-10 -10)"/><polygon class="g" points="370.73 633.67 334.61 638.55 333.11 637.94 368.88 632.5 370.73 633.67"/><path class="g" d="M346.86,626.19,350,613.07l33.86,17.48-3.13,13.12Zm32.46,15.22L381.79,631l-30.52-15.93-2.82,10.17Z" transform="translate(-10 -10)"/><polygon class="g" points="336.12 616.62 309.67 626.92 309.59 626.33 336.12 616.62"/><polygon class="g" points="339.73 604.64 308.16 621.68 308.65 618.49 340 603.07 339.73 604.64"/><polygon class="g" points="336.94 637.88 334.99 639.83 309.39 625.86 310.36 617.91 307.2 618.88 306.51 627.45 335.35 643.58 336.94 637.88"/><polygon class="g" points="309.3 618.18 304.21 616.04 282.29 625.49 280.62 630.5 274.72 632.11 271.28 634.34 267.33 635.6 268.13 639.7 274.2 638.27 276.01 634.24 282.76 631.38 283.25 626.47 303.64 617.34 309.3 618.18"/><polygon class="g" points="335.35 643.58 306.12 648.99 301.38 649.06 289.47 652.13 284.28 650.93 268.96 649.84 269.69 646.96 284.06 649.23 289.82 650.52 299.75 647.16 306.35 647.91 335.35 643.58"/><polygon class="g" points="345.98 632.64 354.59 631.5 348.07 628.33 339.32 630.1 345.98 632.64"/><polygon class="g" points="335.19 627.73 343.81 626.59 337.29 623.42 328.54 625.19 335.19 627.73"/><polygon class="g" points="305.24 627.65 286.12 632.27 276.81 638.79 284.41 631.57 305.24 627.65"/><polygon class="g" points="370.87 621.29 357.18 622.54 368.5 620.11 370.87 621.29"/><polygon class="g" points="302.17 627.36 303.79 617.92 306.67 618.43 306.1 627.19 302.17 627.36"/><polygon class="g" points="278.51 638.62 289.57 645.5 298.86 643.61 285.66 634.47 278.51 638.62"/><path class="g" d="M330.25,489.3c-50.79-87.5-185.38-65.21-197.57,47.4-7,64.7,54.09,132,147.73,123.26l-2.87-14.63c-88.15,3.3-138.92-45.61-135.13-108.8,7.61-127,179-122,206.89.35C349.3,536.88,343.2,511.61,330.25,489.3Z" transform="translate(-10 -10)"/><polygon class="h" points="622.03 665.2 539.99 693.82 537.65 696.37 619.54 669.13 622.03 665.2"/><path class="h" d="M582.58,739.9l18.21,21.35,49.45-64.68L632,675.21Zm48.82-59.17,14.4,17-44.39,58.63-14.87-16.19Z" transform="translate(-10 -10)"/><polygon class="h" points="570.74 729.81 503.38 744.99 503.77 746.15 570.74 729.81"/><polygon class="h" points="588.82 748.6 505.29 756.14 509.2 761.6 590.79 751.25 588.82 748.6"/><polygon class="h" points="545.11 692.83 539.54 691.07 503.81 747.22 511.01 761.66 504.13 763.72 496.76 747 536.77 683.79 545.11 692.83"/><polygon class="h" points="510.73 761.53 502.86 770.36 458.25 764.64 444.6 755.28 428.57 757.41 389.87 756.55 386.75 747.03 428.87 746.16 453.74 753.27 459.21 761.92 500.55 768.5 510.73 761.53"/><polygon class="h" points="536.77 683.79 482.71 698.36 463.06 707.41 400.28 719.23 389.96 743.91 409.24 741.79 421.21 718.8 456.28 714.22 461.24 718.74 484.15 700.13 536.77 683.79"/><polygon class="h" points="575.04 690.7 592.77 684.6 583.08 696.69 564.49 701.74 575.04 690.7"/><polygon class="h" points="558.69 710.09 576.42 703.99 566.73 716.08 548.14 721.13 558.69 710.09"/><polygon class="h" points="494.14 747.85 459.42 748.43 430.23 743.88 456.75 751.34 494.14 747.85"/><polygon class="h" points="633.73 688.04 606.06 698.76 630.25 692.47 633.73 688.04"/><polygon class="h" points="423.46 723.49 414.94 739.48 443.6 736.57 452.88 718.63 423.46 723.49"/><polygon class="h" points="486.91 702.14 460.43 736.07 467.51 735.62 492.17 701.65 486.91 702.14"/><polygon class="h" points="500.75 700.35 474.28 734.28 481.36 733.83 506.01 699.86 500.75 700.35"/><path class="h" d="M341.75,496.34C293.42,353.68,103,410.55,94.62,556.45c-7.81,136.1,133.54,216.36,304.12,205.2l12.83-29.6C246.33,751.92,109.26,678.26,108,558.26c-1.56-153.8,225.81-210.16,242.54-10.35A170.06,170.06,0,0,0,341.75,496.34Z" transform="translate(-10 -10)"/><polygon class="i" points="462.55 485.44 472.82 482.89 475.75 496.51 464.93 498.49 462.55 485.44"/><polygon class="i" points="453.85 487.36 455.84 500.54 459.49 499.37 457.37 486.88 453.85 487.36"/><path class="i" d="M471.06,495.38l5.65-.62-5.5-23.17a8.71,8.71,0,0,0,2-5c.06-3.61-3.18-5.94-5.49-5,0,0,4.53,2,3.28,6.47-.73,2.62-4.19,3.5-4.19,3.5Z" transform="translate(-10 -10)"/><path class="i" d="M469.35,494.51l-4.29-22.78s-5.12-7.47-.61-9.07c0,0-4.1,2.28,1.17,8.81Z" transform="translate(-10 -10)"/><polygon class="i" points="453.8 501.46 477.87 497 484.22 533.65 479.79 544.61 477.02 545.25 475.43 534.01 469.34 503.18 454.32 506.18 453.8 501.46"/><polygon class="i" points="461.5 538.69 468.22 548.25 472 548.05 472.14 538.63 461.5 538.69"/><polygon class="i" points="461.24 536.75 455.13 507.57 457.02 507.34 462.85 537.34 461.24 536.75"/><polygon class="i" points="476.12 547.09 481.22 546.39 481.89 549.95 476.28 550.78 476.12 547.09"/><polygon class="i" points="476.91 552.48 482.04 551.78 482.7 555.34 477.1 556.17 476.91 552.48"/><polygon class="i" points="477.7 557.78 482.93 557.01 483.6 560.56 477.99 561.4 477.7 557.78"/><polygon class="i" points="472.63 549.05 468.43 549.34 468.52 553.18 473.63 552.52 472.63 549.05"/><polygon class="i" points="473.96 554.22 468.89 554.32 468.97 557.84 474.16 557.63 473.96 554.22"/><polygon class="i" points="474.49 559.17 469.52 559.27 469.56 563.04 474.75 562.83 474.49 559.17"/><path class="i" d="M338.09,494.63C308.26,426,236.36,389.78,156.53,434.11,20.21,509.79,80.09,739.62,250.25,762.2c134.33,17.82,257.56-77.07,245.05-192,0,0-7.1.71-9.42,1.08C501,676.37,384,777.7,250.37,759.72,82.84,737.18,23.65,513.23,156.09,436.43,265.82,372.81,339.48,468.85,349,532.57,349,532.57,345.7,512.13,338.09,494.63Z" transform="translate(-10 -10)"/><path class="j" d="M647.38,525.37l-4,6.59-8.44,1.5-19.57,40.17s-2.06,9.55,1.71,13.8c-1.23-2.72-2-10.43-.58-13.51l19.3-38.37,8.1-2Z" transform="translate(-10 -10)"/><path class="j" d="M637.1,537s7.46,15.12,25.56,13C662.66,549.91,643.29,556.12,637.1,537Z" transform="translate(-10 -10)"/><path class="j" d="M648.22,524.83s-.08,6.09,8.45,10.67c7.33,4,13.33,2.21,14.73.51,0,0-7.92,3.35-16.65-3.78-5.53-4.51-4.87-8.11-.72-7.69,4.74.49,12.36,3.33,16.91,9.11C669.58,528.81,654.9,518.78,648.22,524.83Z" transform="translate(-10 -10)"/><polygon class="j" points="661.51 527.38 656.25 538.16 657.02 543.14 629.06 581.21 622.86 584.1 629.17 580.17 655.58 543.07 654.39 537.97 661.51 527.38"/><path class="j" d="M632.6,595s-12,2.94-17.81-10.06l-2.56,5.8s1.5,9.76,15.88,10.75Z" transform="translate(-10 -10)"/><path class="j" d="M663.4,553.39s-1.67,1.06-11.42-.21L632.49,585.5l6.28,2.91S654.23,568.22,663.4,553.39Z" transform="translate(-10 -10)"/><path class="j" d="M647.43,529.24l-2.7,6.26s2,5.39,9.5,8l2.19-6.86A14,14,0,0,1,647.43,529.24Z" transform="translate(-10 -10)"/><path class="j" d="M618,586.34s3.43,8.21,14.15,7.44l1.78-1.59s-10.76.49-14.84-7.55Z" transform="translate(-10 -10)"/><path class="j" d="M659.07,528.76c-.3.74-1.68.86-3.08.28s-2.28-1.65-2-2.38,1.69-.86,3.08-.28S659.37,528,659.07,528.76Z" transform="translate(-10 -10)"/><path class="j" d="M660.63,532.76c-.3.73-1.68.86-3.08.28s-2.28-1.65-2-2.39,1.68-.86,3.08-.27S660.93,532,660.63,532.76Z" transform="translate(-10 -10)"/><path class="j" d="M664.82,531.1c-.33.62-1.54.6-2.7-.05s-1.85-1.68-1.52-2.3,1.53-.59,2.7,0S665.15,530.49,664.82,531.1Z" transform="translate(-10 -10)"/><path class="j" d="M666.52,535.12c-.24.65-1.45.81-2.71.35s-2.06-1.36-1.81-2,1.45-.81,2.7-.35S666.77,534.46,666.52,535.12Z" transform="translate(-10 -10)"/><path class="j" d="M669.23,534c-.23.42-1.05.39-1.84-.08s-1.24-1.17-1-1.59,1.06-.39,1.85.08S669.47,533.54,669.23,534Z" transform="translate(-10 -10)"/><path class="j" d="M348.78,533.57C305.72,401.23,165.52,428.14,96.91,506.64c-86.26,98.71-4.4,261.48,160.15,278.18,155,15.74,302.77-69.72,369.47-186.46,0,0-13.07-11.13-12.5-5.25C550.34,712.45,411.7,793.55,254.34,781.64,109.38,770.67,0,611,103.7,501.78c60.63-63.86,158.48-84.13,213.89-23.9C338.84,501,348.78,533.57,348.78,533.57Z" transform="translate(-10 -10)"/><path class="e" d="M654.57,797.87l38.18-10.14,5.66,4,.87,4.25-3.77,6-37.74,8.89ZM687,792A4.6,4.6,0,0,0,685,798a4.15,4.15,0,0,0,5.62,2.21,4.56,4.56,0,0,0,2.07-5.92A4.15,4.15,0,0,0,687,792Z" transform="translate(-10 -10)"/><path class="e" d="M672.33,778.56l38.18-10.13,5.66,4,.87,4.25-3.77,6-37.74,8.89Zm32.48-5.82a4.58,4.58,0,0,0-2.08,5.94,4.16,4.16,0,0,0,5.61,2.22,4.58,4.58,0,0,0,2.07-5.94A4.15,4.15,0,0,0,704.81,772.74Z" transform="translate(-10 -10)"/><path class="e" d="M670.49,773.28c-.42-1.37-11-26.82-17.39-21.26-9.32,8.06-.82,32,.87,34.32L647.89,792l2.88,8,2.7-2.21-2.17-6,5-4.81c-1.47-2.11-9.16-23.47-1.53-30.35,5.27-4.75,14.7,18,15.08,19.22l6.26-6.06,2.56,7.34,2.55-2.09-3.06-8.86Z" transform="translate(-10 -10)"/><polygon class="e" points="702.85 747.07 701.15 751.25 649.63 764.79 647.85 759.82 649.02 755.54 699.16 741.54 702.85 747.07"/><polygon class="e" points="650.1 765.31 701.56 751.75 650.51 767.17 650.1 765.31"/><polygon class="e" points="647.53 808.51 663.55 797.99 648.34 812.78 647.53 808.51"/><path class="e" d="M650.56,786.7l-51.3,9.88s-5-4.91-2.56-14.28l49.63-12.71S647.27,780,650.56,786.7Z" transform="translate(-10 -10)"/><path class="e" d="M652.55,750.72l-53.07,13.8s-3.44,5.72-2.9,7L647,758.44A16.13,16.13,0,0,1,652.55,750.72Z" transform="translate(-10 -10)"/><path class="e" d="M599.26,796.58s-6.55-9.85-2.68-25c0,0-8.52,12.2-5.33,25.66Z" transform="translate(-10 -10)"/><path class="e" d="M571.31,807.66l21.38-2.36,54.41-7.89,9.61,26.12-58.64,3.79-23.74-2.94Zm24.22,1,4.14,14.57,50.08-4.67-6-17.84Z" transform="translate(-10 -10)"/><polygon class="e" points="562.29 796.51 578.64 778.62 578.41 783.88 567.53 795.11 562.29 796.51"/><path class="e" d="M566.33,797.77c-3.58,5.72-4.34,14.47-4.34,14.47-2.25-4.33,0-10.6,1.43-13.86l-5.17,1.1c-3.62,5.71-4.37,14.5-4.37,14.5-2.26-4.35,0-10.65,1.44-13.89l-4.92,1c-4.64,5.48-5.57,16.13-5.57,16.13-2.71-5.21,1-13.24,2.17-15.41l-5.94,1.25s-7.06,13.63,2.65,23.85l28.83-3-2.61-18.46,14-11.44Z" transform="translate(-10 -10)"/><path class="e" d="M327.21,485.5C255.82,377.19,84.73,452.06,93,589.14,103.78,766.76,342.9,853.74,550.2,823.91L545.12,804c-162.6,32.44-429.29-26.82-446.07-209.65C85,441.19,300.16,362,346.45,533.16,346.45,533.16,340.93,506.32,327.21,485.5Z" transform="translate(-10 -10)"/><polygon class="d" points="355.56 907.14 351.1 905.74 353.26 900.67 357.78 902.37 355.56 907.14"/><polygon class="d" points="359.26 908.39 361.67 903.67 360.02 903.26 357.84 907.79 359.26 908.39"/><path class="d" d="M366.1,917.48l-2.26-1-3.47,8.74a3.86,3.86,0,0,0-1.91,1.47c-.58,1.09-.2,2.18.88,2.38,0,0-.71-1.61.35-2.5a3,3,0,0,1,2.32-.38Z" transform="translate(-10 -10)"/><path class="d" d="M366.53,918.14l-3.82,8.35s.43,3.5-1.64,3c0,0,1.78.19,1.37-3.08Z" transform="translate(-10 -10)"/><polygon class="d" points="362.64 903.81 352.58 900.05 358.94 886.73 363.2 884.12 364.39 884.51 362.31 888.51 357.24 899.88 363.57 902.16 362.64 903.81"/><polygon class="d" points="368.64 890.01 368.4 885.44 366.94 884.69 364.35 887.41 368.64 890.01"/><polygon class="d" points="368.27 890.7 363.6 901.53 362.84 901.2 367.81 890.16 368.27 890.7"/><polygon class="d" points="364.97 884.25 362.9 883.37 363.5 882.06 365.8 883 364.97 884.25"/><polygon class="d" points="365.83 882.42 363.75 881.54 364.34 880.23 366.64 881.18 365.83 882.42"/><polygon class="d" points="366.79 880.2 364.65 879.32 365.25 878.01 367.55 878.96 366.79 880.2"/><polygon class="d" points="366.94 884.22 368.58 885.04 369.46 883.77 367.4 882.88 366.94 884.22"/><polygon class="d" points="367.83 882.24 369.75 883.31 370.56 882.15 368.57 881.09 367.83 882.24"/><polygon class="d" points="368.85 880.57 370.73 881.61 371.61 880.38 369.62 879.32 368.85 880.57"/><path class="d" d="M66.25,533.55c2.75,71,71.28,115.35,105.84,126.73,42.18,13.88,74.34,26.39,101.23,39.34,31.11,15,54.74,30.5,72.22,47.41,19.19,18.56,30.89,38.63,35.77,61.36,5.21,24.24,2.58,50.89-8.05,81.47l1.37.39c10.7-30.79,13.34-57.64,8.09-82.1-4.94-23-16.76-43.26-36.13-62-17.6-17-41.35-32.61-72.61-47.67-26.94-13-59.16-25.51-101.41-39.42-34.27-11.29-99.69-55.2-104.89-125.42-4.06-55,50.54-102.51,120.1-114.72C263.88,405.57,302.59,445,318.23,461c22.67,23.1,30.45,60.25,30.55,60.57,0,0-4.28-32.7-29.4-61.34-14.78-16.84-57.32-54.81-131.9-42.55C140.17,425.43,63.43,460.65,66.25,533.55Z" transform="translate(-10 -10)"/><path class="k" d="M182.62,935.77l4-1.39,4.12,2.34,22.47-10.17s4.24-3.34,4.13-6.47c-.43,1.58-2.82,5.14-4.51,5.94l-21.72,9.51-4.15-2Z" transform="translate(-10 -10)"/><path class="k" d="M191.07,934.47a14,14,0,0,0-6.3-14.51S195.19,924.15,191.07,934.47Z" transform="translate(-10 -10)"/><path class="k" d="M182.07,935.71s2.18-2.56.17-7.51c-1.73-4.26-4.89-5.64-6.08-5.41,0,0,4.54,1.36,5.74,7.47.76,3.86-.79,5.17-2.4,3.53a14.73,14.73,0,0,1-4-9.83C174.39,926.49,177.1,935.93,182.07,935.71Z" transform="translate(-10 -10)"/><polygon class="k" points="166.59 912.17 172.63 909.44 174.06 907.05 199.35 900.72 203 901.68 198.94 901.12 174.64 907.59 173.35 910.17 166.59 912.17"/><path class="k" d="M213.44,911.38s6.11,3,4,10.54l3.14-1.56s2.8-4.67-3-10.16Z" transform="translate(-10 -10)"/><path class="k" d="M185.68,918.22s1.08.14,4.78,4.11l19.67-6.86L208.49,912S194.8,915.15,185.68,918.22Z" transform="translate(-10 -10)"/><path class="k" d="M184,934.11l3.35-1.71a8.56,8.56,0,0,0-1.21-6.75l-3.35,2.15A7.74,7.74,0,0,1,184,934.11Z" transform="translate(-10 -10)"/><path class="k" d="M216.59,920.22s1.43-4.7-3.4-8.15l-1.31,0s4.74,3.58,3.64,8.44Z" transform="translate(-10 -10)"/><path class="k" d="M178.85,930.22c.38-.21,1,.22,1.4,1s.39,1.5,0,1.71-1-.23-1.4-1S178.45,930.42,178.85,930.22Z" transform="translate(-10 -10)"/><path class="k" d="M179.59,928c.39-.21,1,.22,1.4,1s.39,1.51,0,1.71-1-.23-1.41-1S179.2,928.17,179.59,928Z" transform="translate(-10 -10)"/><path class="k" d="M177.22,927.19c.36-.14.87.29,1.13,1s.2,1.36-.16,1.51-.86-.29-1.13-1S176.87,927.34,177.22,927.19Z" transform="translate(-10 -10)"/><path class="k" d="M177.92,924.89c.33-.19.9.16,1.27.8s.4,1.31.06,1.5-.9-.17-1.27-.8S177.58,925.08,177.92,924.89Z" transform="translate(-10 -10)"/><path class="k" d="M176.36,924.42c.24-.09.58.21.75.69s.11.93-.13,1-.59-.21-.76-.68S176.11,924.52,176.36,924.42Z" transform="translate(-10 -10)"/><path class="k" d="M49.49,517.55C38.66,568.88,66.07,636.77,133.2,676.62c229,135.93,202.43,189.67,82.06,236.14l6.07,5c61.84-28.94,209-74.69-86.82-242.52C61.28,633.65,38.62,558.63,52.43,511.06,72.37,442.36,143,401,226.34,409.93c120.89,12.88,124.24,110.25,124.71,122.54.48-11.41-3.84-110.59-124.29-123.47C132.88,399,63.58,450.69,49.49,517.55Z" transform="translate(-10 -10)"/><path class="l" d="M34.47,515.43c-.17,2.8,2.77,2.7,4.3.54,48.42-159,304.74-149.26,313.49,13.41C344,365.86,86.8,355.54,34.47,515.43Z" transform="translate(-10 -10)"/><path class="l" d="M33.73,540l.61-2.39,1.95-1.39,2.52-14s0-3.05-1.17-3.88a8,8,0,0,1,.88,3.92L36,535.74l-1.84,1.5Z" transform="translate(-10 -10)"/><path class="l" d="M35.58,535.47a5,5,0,0,0-6.88-1S33,530.52,35.58,535.47Z" transform="translate(-10 -10)"/><path class="l" d="M33.56,540.29a3,3,0,0,0-2.62-2.2,3.31,3.31,0,0,0-3.58,1.49,3.72,3.72,0,0,1,4.22-.74c1.58.71,1.62,1.85.6,2.19a5,5,0,0,1-4.58-.8C28.19,541.5,32.28,542.82,33.56,540.29Z" transform="translate(-10 -10)"/><polygon class="l" points="17.26 529.19 17.93 525.42 17.47 524.04 22.13 509.69 23.46 508.15 22.16 510.01 17.82 523.91 18.39 525.27 17.26 529.19"/><path class="l" d="M33.47,517.85a3.19,3.19,0,0,1,4.85,1l.3-2s-.9-2.71-4.42-1.4Z" transform="translate(-10 -10)"/><path class="l" d="M28.33,533.57s.35-.5,2.77-1.22L34,520.65l-1.67-.16S29.73,528.17,28.33,533.57Z" transform="translate(-10 -10)"/><path class="l" d="M33.51,538.9l.31-2.15a3.06,3.06,0,0,0-2.73-1.3l-.16,2.27A2.68,2.68,0,0,1,33.51,538.9Z" transform="translate(-10 -10)"/><path class="l" d="M37.47,518.78s-1.27-2-3.82-.61l-.34.66s2.57-1.34,4,.57Z" transform="translate(-10 -10)"/><path class="l" d="M30.73,540.35c0-.26.36-.45.73-.43s.64.23.6.48-.35.44-.72.43S30.7,540.6,30.73,540.35Z" transform="translate(-10 -10)"/><path class="l" d="M30.13,539.34a.66.66,0,0,1,.73-.42c.37,0,.64.23.61.48s-.36.44-.73.42S30.1,539.59,30.13,539.34Z" transform="translate(-10 -10)"/><path class="l" d="M29.21,540.3c.05-.22.34-.35.66-.29s.54.29.49.51-.34.35-.65.28S29.17,540.52,29.21,540.3Z" transform="translate(-10 -10)"/><path class="l" d="M28.58,539.3c0-.22.31-.4.64-.4s.57.17.55.39-.31.4-.64.41S28.56,539.52,28.58,539.3Z" transform="translate(-10 -10)"/><path class="l" d="M28,540c0-.15.24-.23.45-.19s.37.21.33.36-.23.23-.45.18S28,540.1,28,540Z" transform="translate(-10 -10)"/><polygon class="m" points="270.13 628.09 270.56 630.28 267.73 630.72 267.43 628.41 270.13 628.09"/><polygon class="m" points="269.83 626.23 267.1 626.47 267.31 627.26 269.89 626.98 269.83 626.23"/><path class="m" d="M280.16,637.78l.07,1.19,4.82-.84a1.86,1.86,0,0,0,1.13.4c.63,0,1-.48.87-1,0,0-.56.71-1.22.51a1.33,1.33,0,0,1-.73-.86Z" transform="translate(-10 -10)"/><path class="m" d="M280.36,637.43l4.72-.6s1.5-1.09,1.78-.12c0,0-.34-.78-1.73.24Z" transform="translate(-10 -10)"/><polygon class="m" points="266.93 626.03 267.61 631.16 260.01 632 257.81 630.93 257.7 630.33 260.03 630.15 266.42 629.28 265.96 626.08 266.93 626.03"/><polygon class="m" points="259.2 627.16 257.18 628.44 257.18 629.24 259.04 629.6 259.2 627.16"/><polygon class="m" points="259.61 627.13 265.66 626.23 265.69 626.63 259.47 627.46 259.61 627.13"/><polygon class="m" points="257.44 630.17 257.53 631.25 256.8 631.34 256.68 630.15 257.44 630.17"/><polygon class="m" points="256.41 630.29 256.5 631.38 255.76 631.47 255.65 630.28 256.41 630.29"/><polygon class="m" points="255.16 630.47 255.27 631.58 254.53 631.67 254.42 630.48 255.16 630.47"/><polygon class="m" points="256.96 629.36 256.95 628.48 256.16 628.44 256.24 629.53 256.96 629.36"/><polygon class="m" points="255.85 629.51 255.88 628.44 255.16 628.41 255.15 629.5 255.85 629.51"/><polygon class="m" points="254.84 629.53 254.87 628.48 254.1 628.44 254.09 629.53 254.84 629.53"/><path class="m" d="M152.17,502.57c-17.87,44.76,6.17,135.31,112.38,138.62.59-.37.83-1,.87-2.3-23.45,2.81-63.7-7-90.44-36.18-24.38-26.65-33.94-67.12-21.87-98.63,34.48-90,166.18-72.89,191.92,28.13C321.29,430.87,188,412.73,152.17,502.57Z" transform="translate(-10 -10)"/></svg>