<svg xmlns="http://www.w3.org/2000/svg" xmlns:xlink="http://www.w3.org/1999/xlink" viewBox="0 0 868.58 1080.08"><defs><style>.a{fill:none;}.b{clip-path:url(#a);}.c{fill:#ff7070;}.d{fill:#c2e3d9;}.e{clip-path:url(#b);}.f{fill:#e5e5e5;}</style><clipPath id="a" transform="translate(-10 -10)"><rect class="a" x="10" y="10" width="838" height="1080"/></clipPath><clipPath id="b" transform="translate(-10 -10)"><rect class="a" x="818.08" y="10" width="60.5" height="1080.08"/></clipPath></defs><title>08 circles</title><g class="b"><path class="c" d="M818,1090H10V10H818a30.1,30.1,0,0,1,30,30V1060a30.1,30.1,0,0,1-30,30" transform="translate(-10 -10)"/></g><path class="d" d="M444,390.79a6.32,6.32,0,1,0-6.31-6.31A6.31,6.31,0,0,0,444,390.79Z" transform="translate(-10 -10)"/><path class="d" d="M444,369.78a5.81,5.81,0,1,0-5.8-5.8A5.8,5.8,0,0,0,444,369.78Z" transform="translate(-10 -10)"/><path class="d" d="M444,348.77a5.3,5.3,0,1,0-5.29-5.29A5.29,5.29,0,0,0,444,348.77Z" transform="translate(-10 -10)"/><path class="d" d="M444,327.76a4.79,4.79,0,1,0-4.78-4.78A4.78,4.78,0,0,0,444,327.76Z" transform="translate(-10 -10)"/><path class="d" d="M444,306.75a4.27,4.27,0,1,0-4.27-4.27A4.27,4.27,0,0,0,444,306.75Z" transform="translate(-10 -10)"/><circle class="d" cx="444" cy="281.98" r="3.76" transform="translate(-62.91 99.55) rotate(-13.28)"/><path class="d" d="M444,264.73a3.25,3.25,0,1,0-3.25-3.25A3.25,3.25,0,0,0,444,264.73Z" transform="translate(-10 -10)"/><path class="d" d="M444,243.72a2.74,2.74,0,1,0-2.74-2.74A2.74,2.74,0,0,0,444,243.72Z" transform="translate(-10 -10)"/><path class="d" d="M444,222.71a2.23,2.23,0,1,0-2.23-2.23A2.23,2.23,0,0,0,444,222.71Z" transform="translate(-10 -10)"/><path class="d" d="M444,201.7a1.72,1.72,0,1,0-1.72-1.72A1.72,1.72,0,0,0,444,201.7Z" transform="translate(-10 -10)"/><path class="d" d="M429,378.82a6.31,6.31,0,1,0,6.84,5.74A6.31,6.31,0,0,0,429,378.82Z" transform="translate(-10 -10)"/><path class="d" d="M427.28,358.9a5.81,5.81,0,1,0,6.29,5.28A5.81,5.81,0,0,0,427.28,358.9Z" transform="translate(-10 -10)"/><path class="d" d="M425.54,339a5.3,5.3,0,1,0,5.73,4.81A5.29,5.29,0,0,0,425.54,339Z" transform="translate(-10 -10)"/><path class="d" d="M423.8,319.08a4.78,4.78,0,1,0,5.18,4.34A4.79,4.79,0,0,0,423.8,319.08Z" transform="translate(-10 -10)"/><path class="d" d="M422.05,299.16a4.27,4.27,0,1,0,4.63,3.89A4.28,4.28,0,0,0,422.05,299.16Z" transform="translate(-10 -10)"/><path class="d" d="M420.31,279.25a3.76,3.76,0,1,0,4.08,3.42A3.76,3.76,0,0,0,420.31,279.25Z" transform="translate(-10 -10)"/><path class="d" d="M418.57,259.34a3.25,3.25,0,1,0,3.52,3A3.24,3.24,0,0,0,418.57,259.34Z" transform="translate(-10 -10)"/><path class="d" d="M416.83,239.42a2.74,2.74,0,1,0,3,2.49A2.74,2.74,0,0,0,416.83,239.42Z" transform="translate(-10 -10)"/><path class="d" d="M413.06,221.92a2.23,2.23,0,1,0,2-2.41A2.23,2.23,0,0,0,413.06,221.92Z" transform="translate(-10 -10)"/><path class="d" d="M413.64,203a1.72,1.72,0,1,0-1.86-1.56A1.72,1.72,0,0,0,413.64,203Z" transform="translate(-10 -10)"/><path class="d" d="M414.16,380.77a6.32,6.32,0,1,0,7.31,5.13A6.32,6.32,0,0,0,414.16,380.77Z" transform="translate(-10 -10)"/><path class="d" d="M410.69,361.09a5.8,5.8,0,1,0,6.72,4.71A5.8,5.8,0,0,0,410.69,361.09Z" transform="translate(-10 -10)"/><path class="d" d="M407.22,341.4a5.3,5.3,0,1,0,6.13,4.3A5.29,5.29,0,0,0,407.22,341.4Z" transform="translate(-10 -10)"/><path class="d" d="M403.75,321.72a4.78,4.78,0,1,0,5.54,3.88A4.78,4.78,0,0,0,403.75,321.72Z" transform="translate(-10 -10)"/><path class="d" d="M400.28,302a4.27,4.27,0,1,0,4.94,3.47A4.27,4.27,0,0,0,400.28,302Z" transform="translate(-10 -10)"/><path class="d" d="M393.75,286.7a3.76,3.76,0,1,0,3.05-4.36A3.77,3.77,0,0,0,393.75,286.7Z" transform="translate(-10 -10)"/><path class="d" d="M390.7,266.42a3.25,3.25,0,1,0,2.63-3.76A3.25,3.25,0,0,0,390.7,266.42Z" transform="translate(-10 -10)"/><path class="d" d="M387.64,246.15a2.74,2.74,0,1,0,2.22-3.18A2.74,2.74,0,0,0,387.64,246.15Z" transform="translate(-10 -10)"/><path class="d" d="M384.58,225.87a2.23,2.23,0,1,0,4.39-.78,2.23,2.23,0,0,0-4.39.78Z" transform="translate(-10 -10)"/><path class="d" d="M383.52,207a1.72,1.72,0,1,0-2-1.4A1.72,1.72,0,0,0,383.52,207Z" transform="translate(-10 -10)"/><path class="d" d="M399.53,384a6.31,6.31,0,1,0,7.73,4.46A6.31,6.31,0,0,0,399.53,384Z" transform="translate(-10 -10)"/><path class="d" d="M394.35,364.71a5.8,5.8,0,1,0,7.11,4.1A5.81,5.81,0,0,0,394.35,364.71Z" transform="translate(-10 -10)"/><path class="d" d="M389.18,345.4a5.3,5.3,0,1,0,6.48,3.74A5.28,5.28,0,0,0,389.18,345.4Z" transform="translate(-10 -10)"/><path class="d" d="M384,326.09a4.78,4.78,0,1,0,5.86,3.38A4.79,4.79,0,0,0,384,326.09Z" transform="translate(-10 -10)"/><path class="d" d="M375.81,312a4.27,4.27,0,1,0,3-5.24A4.28,4.28,0,0,0,375.81,312Z" transform="translate(-10 -10)"/><path class="d" d="M371,292.08a3.76,3.76,0,1,0,2.66-4.6A3.75,3.75,0,0,0,371,292.08Z" transform="translate(-10 -10)"/><path class="d" d="M366.18,272.15a3.25,3.25,0,1,0,2.3-4A3.27,3.27,0,0,0,366.18,272.15Z" transform="translate(-10 -10)"/><path class="d" d="M364.73,254.15a2.74,2.74,0,1,0-3.36-1.94A2.74,2.74,0,0,0,364.73,254.15Z" transform="translate(-10 -10)"/><path class="d" d="M359.29,233.86a2.23,2.23,0,1,0-2.73-1.58A2.23,2.23,0,0,0,359.29,233.86Z" transform="translate(-10 -10)"/><path class="d" d="M353.85,213.56a1.72,1.72,0,1,0-2.1-1.21A1.72,1.72,0,0,0,353.85,213.56Z" transform="translate(-10 -10)"/><path class="d" d="M385.23,388.53a6.31,6.31,0,1,0,8.09,3.77A6.3,6.3,0,0,0,385.23,388.53Z" transform="translate(-10 -10)"/><path class="d" d="M378.39,369.74a5.8,5.8,0,1,0,7.44,3.47A5.81,5.81,0,0,0,378.39,369.74Z" transform="translate(-10 -10)"/><path class="d" d="M371.55,351a5.29,5.29,0,1,0,6.79,3.16A5.3,5.3,0,0,0,371.55,351Z" transform="translate(-10 -10)"/><path class="d" d="M364.72,332.17a4.78,4.78,0,1,0,6.13,2.86A4.79,4.79,0,0,0,364.72,332.17Z" transform="translate(-10 -10)"/><path class="d" d="M355.33,318.86a4.27,4.27,0,1,0,2.55-5.47A4.27,4.27,0,0,0,355.33,318.86Z" transform="translate(-10 -10)"/><path class="d" d="M348.8,299.43a3.76,3.76,0,1,0,2.24-4.82A3.76,3.76,0,0,0,348.8,299.43Z" transform="translate(-10 -10)"/><path class="d" d="M346.43,281.93a3.25,3.25,0,1,0-4.17-1.94A3.24,3.24,0,0,0,346.43,281.93Z" transform="translate(-10 -10)"/><path class="d" d="M339.24,262.19a2.74,2.74,0,1,0-3.51-1.64A2.73,2.73,0,0,0,339.24,262.19Z" transform="translate(-10 -10)"/><path class="d" d="M332.06,242.44a2.23,2.23,0,1,0-2.86-1.33A2.22,2.22,0,0,0,332.06,242.44Z" transform="translate(-10 -10)"/><path class="d" d="M324.87,222.7a1.72,1.72,0,1,0-2.2-1A1.71,1.71,0,0,0,324.87,222.7Z" transform="translate(-10 -10)"/><path class="d" d="M376.71,405.71a6.31,6.31,0,1,0-8.38-3.06A6.32,6.32,0,0,0,376.71,405.71Z" transform="translate(-10 -10)"/><path class="d" d="M370.64,379a5.8,5.8,0,1,0-2.8,7.72A5.79,5.79,0,0,0,370.64,379Z" transform="translate(-10 -10)"/><path class="d" d="M354.48,358a5.29,5.29,0,1,0,7,2.56A5.29,5.29,0,0,0,354.48,358Z" transform="translate(-10 -10)"/><path class="d" d="M346,339.91a4.78,4.78,0,1,0,6.36,2.32A4.79,4.79,0,0,0,346,339.91Z" transform="translate(-10 -10)"/><path class="d" d="M341.2,329.54a4.27,4.27,0,1,0-5.68-2.07A4.28,4.28,0,0,0,341.2,329.54Z" transform="translate(-10 -10)"/><path class="d" d="M332.32,310.5a3.76,3.76,0,1,0-5-1.82A3.77,3.77,0,0,0,332.32,310.5Z" transform="translate(-10 -10)"/><path class="d" d="M323.44,291.45a3.25,3.25,0,1,0-4.32-1.57A3.24,3.24,0,0,0,323.44,291.45Z" transform="translate(-10 -10)"/><path class="d" d="M314.56,272.41a2.74,2.74,0,1,0-3.64-1.32A2.74,2.74,0,0,0,314.56,272.41Z" transform="translate(-10 -10)"/><path class="d" d="M305.68,253.37a2.23,2.23,0,1,0-3-1.08A2.23,2.23,0,0,0,305.68,253.37Z" transform="translate(-10 -10)"/><path class="d" d="M296.8,234.33a1.72,1.72,0,1,0-2.29-.83A1.73,1.73,0,0,0,296.8,234.33Z" transform="translate(-10 -10)"/><path class="d" d="M364.39,412.12a6.31,6.31,0,1,0-8.62-2.31A6.31,6.31,0,0,0,364.39,412.12Z" transform="translate(-10 -10)"/><path class="d" d="M353.89,393.92A5.8,5.8,0,1,0,346,391.8,5.79,5.79,0,0,0,353.89,393.92Z" transform="translate(-10 -10)"/><path class="d" d="M338.09,366.56a5.29,5.29,0,1,0,7.23,1.94A5.3,5.3,0,0,0,338.09,366.56Z" transform="translate(-10 -10)"/><path class="d" d="M328.1,349.25a4.78,4.78,0,1,0,6.53,1.75A4.78,4.78,0,0,0,328.1,349.25Z" transform="translate(-10 -10)"/><path class="d" d="M316.54,337.77a4.27,4.27,0,1,0,1.56-5.83A4.26,4.26,0,0,0,316.54,337.77Z" transform="translate(-10 -10)"/><path class="d" d="M306.73,319.77a3.76,3.76,0,1,0,1.38-5.14A3.77,3.77,0,0,0,306.73,319.77Z" transform="translate(-10 -10)"/><path class="d" d="M296.92,301.76a3.25,3.25,0,1,0,1.19-4.44A3.26,3.26,0,0,0,296.92,301.76Z" transform="translate(-10 -10)"/><path class="d" d="M290.86,284.75a2.74,2.74,0,1,0-3.75-1A2.73,2.73,0,0,0,290.86,284.75Z" transform="translate(-10 -10)"/><path class="d" d="M280.35,266.55a2.23,2.23,0,1,0-3-.81A2.22,2.22,0,0,0,280.35,266.55Z" transform="translate(-10 -10)"/><path class="d" d="M269.85,248.36a1.72,1.72,0,0,0-1.72-3,1.72,1.72,0,0,0,1.72,3Z" transform="translate(-10 -10)"/><path class="d" d="M343.89,418a6.31,6.31,0,1,0,1.55-8.79A6.31,6.31,0,0,0,343.89,418Z" transform="translate(-10 -10)"/><path class="d" d="M332.55,401a5.8,5.8,0,1,0,1.42-8.08A5.8,5.8,0,0,0,332.55,401Z" transform="translate(-10 -10)"/><path class="d" d="M328.58,385.16a5.29,5.29,0,1,0-7.37-1.3A5.3,5.3,0,0,0,328.58,385.16Z" transform="translate(-10 -10)"/><path class="d" d="M311,360.12a4.78,4.78,0,1,0,6.66,1.17A4.78,4.78,0,0,0,311,360.12Z" transform="translate(-10 -10)"/><path class="d" d="M299.58,343.74a4.27,4.27,0,1,0,5.94,1.05A4.26,4.26,0,0,0,299.58,343.74Z" transform="translate(-10 -10)"/><path class="d" d="M292.42,333.53a3.76,3.76,0,1,0-5.23-.92A3.76,3.76,0,0,0,292.42,333.53Z" transform="translate(-10 -10)"/><path class="d" d="M280.37,316.32a3.25,3.25,0,1,0-4.52-.8A3.25,3.25,0,0,0,280.37,316.32Z" transform="translate(-10 -10)"/><path class="d" d="M268.32,299.11a2.74,2.74,0,1,0-3.81-.68A2.75,2.75,0,0,0,268.32,299.11Z" transform="translate(-10 -10)"/><path class="d" d="M256.27,281.9a2.23,2.23,0,1,0-3.1-.55A2.23,2.23,0,0,0,256.27,281.9Z" transform="translate(-10 -10)"/><path class="d" d="M244.22,264.69a1.72,1.72,0,1,0-2.39-.43A1.72,1.72,0,0,0,244.22,264.69Z" transform="translate(-10 -10)"/><path class="d" d="M332.77,427.26a6.31,6.31,0,1,0,.78-8.89A6.31,6.31,0,0,0,332.77,427.26Z" transform="translate(-10 -10)"/><path class="d" d="M320,411.23a5.8,5.8,0,1,0,.72-8.18A5.81,5.81,0,0,0,320,411.23Z" transform="translate(-10 -10)"/><path class="d" d="M307.19,395.2a5.3,5.3,0,1,0,.66-7.46A5.29,5.29,0,0,0,307.19,395.2Z" transform="translate(-10 -10)"/><path class="d" d="M294.41,379.16a4.78,4.78,0,1,0,.59-6.73A4.78,4.78,0,0,0,294.41,379.16Z" transform="translate(-10 -10)"/><path class="d" d="M281.62,363.13a4.27,4.27,0,1,0,.53-6A4.28,4.28,0,0,0,281.62,363.13Z" transform="translate(-10 -10)"/><path class="d" d="M268.84,347.1a3.76,3.76,0,1,0,.46-5.3A3.75,3.75,0,0,0,268.84,347.1Z" transform="translate(-10 -10)"/><path class="d" d="M256.05,331.07a3.25,3.25,0,1,0,.4-4.58A3.26,3.26,0,0,0,256.05,331.07Z" transform="translate(-10 -10)"/><path class="d" d="M243.26,315a2.74,2.74,0,1,0,.34-3.87A2.74,2.74,0,0,0,243.26,315Z" transform="translate(-10 -10)"/><path class="d" d="M233.62,299.28a2.23,2.23,0,1,0-3.14-.28A2.22,2.22,0,0,0,233.62,299.28Z" transform="translate(-10 -10)"/><path class="d" d="M220.11,283.18a1.72,1.72,0,1,0-2.42-.21A1.72,1.72,0,0,0,220.11,283.18Z" transform="translate(-10 -10)"/><path class="d" d="M322.49,428.49a6.31,6.31,0,1,0,8.93,0A6.33,6.33,0,0,0,322.49,428.49Z" transform="translate(-10 -10)"/><path class="d" d="M316.56,422.57a5.8,5.8,0,1,0-8.2,0A5.8,5.8,0,0,0,316.56,422.57Z" transform="translate(-10 -10)"/><path class="d" d="M294.22,407.71a5.3,5.3,0,1,0,0-7.49A5.29,5.29,0,0,0,294.22,407.71Z" transform="translate(-10 -10)"/><path class="d" d="M280.09,386.09a4.78,4.78,0,1,0,6.76,0A4.77,4.77,0,0,0,280.09,386.09Z" transform="translate(-10 -10)"/><path class="d" d="M266,372a4.27,4.27,0,1,0,6,0A4.28,4.28,0,0,0,266,372Z" transform="translate(-10 -10)"/><path class="d" d="M257.14,363.14a3.76,3.76,0,1,0-5.32,0A3.76,3.76,0,0,0,257.14,363.14Z" transform="translate(-10 -10)"/><path class="d" d="M242.28,348.28a3.25,3.25,0,1,0-4.6,0A3.25,3.25,0,0,0,242.28,348.28Z" transform="translate(-10 -10)"/><path class="d" d="M227.42,333.42a2.74,2.74,0,1,0-3.87,0A2.73,2.73,0,0,0,227.42,333.42Z" transform="translate(-10 -10)"/><path class="d" d="M212.57,318.57a2.23,2.23,0,1,0-3.16,0A2.24,2.24,0,0,0,212.57,318.57Z" transform="translate(-10 -10)"/><path class="d" d="M197.71,303.71a1.72,1.72,0,1,0-2.43,0A1.72,1.72,0,0,0,197.71,303.71Z" transform="translate(-10 -10)"/><path class="d" d="M312.37,439.55a6.31,6.31,0,1,0,8.89-.78A6.3,6.3,0,0,0,312.37,439.55Z" transform="translate(-10 -10)"/><path class="d" d="M305.23,426a5.8,5.8,0,1,0,.71,8.18A5.8,5.8,0,0,0,305.23,426Z" transform="translate(-10 -10)"/><path class="d" d="M289.2,413.2a5.29,5.29,0,1,0,.65,7.45A5.29,5.29,0,0,0,289.2,413.2Z" transform="translate(-10 -10)"/><path class="d" d="M273.16,400.41a4.78,4.78,0,1,0,.59,6.74A4.77,4.77,0,0,0,273.16,400.41Z" transform="translate(-10 -10)"/><path class="d" d="M251.64,394.17a4.27,4.27,0,1,0-.53-6A4.28,4.28,0,0,0,251.64,394.17Z" transform="translate(-10 -10)"/><path class="d" d="M236.26,380.6a3.76,3.76,0,1,0-.46-5.3A3.77,3.77,0,0,0,236.26,380.6Z" transform="translate(-10 -10)"/><path class="d" d="M225.47,366.63a3.25,3.25,0,1,0-4.58.4A3.26,3.26,0,0,0,225.47,366.63Z" transform="translate(-10 -10)"/><path class="d" d="M205.51,353.46a2.74,2.74,0,1,0-.34-3.86A2.73,2.73,0,0,0,205.51,353.46Z" transform="translate(-10 -10)"/><path class="d" d="M190.14,339.89a2.23,2.23,0,1,0-.28-3.14A2.22,2.22,0,0,0,190.14,339.89Z" transform="translate(-10 -10)"/><path class="d" d="M174.76,326.33a1.72,1.72,0,1,0-.21-2.43A1.72,1.72,0,0,0,174.76,326.33Z" transform="translate(-10 -10)"/><path class="d" d="M313.58,458.68a6.31,6.31,0,1,0-8.79,1.55A6.31,6.31,0,0,0,313.58,458.68Z" transform="translate(-10 -10)"/><path class="d" d="M286.86,440a5.81,5.81,0,1,0,8.09-1.42A5.82,5.82,0,0,0,286.86,440Z" transform="translate(-10 -10)"/><path class="d" d="M277.86,427.21a5.29,5.29,0,1,0,1.3,7.37A5.28,5.28,0,0,0,277.86,427.21Z" transform="translate(-10 -10)"/><path class="d" d="M260.78,415.87a4.78,4.78,0,1,0,1.17,6.66A4.78,4.78,0,0,0,260.78,415.87Z" transform="translate(-10 -10)"/><path class="d" d="M244.74,410.48a4.27,4.27,0,1,0-6,1A4.28,4.28,0,0,0,244.74,410.48Z" transform="translate(-10 -10)"/><path class="d" d="M222.29,399.35a3.76,3.76,0,1,0-.92-5.24A3.77,3.77,0,0,0,222.29,399.35Z" transform="translate(-10 -10)"/><path class="d" d="M205.79,387.17a3.25,3.25,0,1,0-.8-4.52A3.25,3.25,0,0,0,205.79,387.17Z" transform="translate(-10 -10)"/><path class="d" d="M189.29,375a2.74,2.74,0,1,0-.67-3.82A2.75,2.75,0,0,0,189.29,375Z" transform="translate(-10 -10)"/><path class="d" d="M172.79,362.82a2.23,2.23,0,1,0-.55-3.11A2.22,2.22,0,0,0,172.79,362.82Z" transform="translate(-10 -10)"/><path class="d" d="M156.29,350.64a1.72,1.72,0,1,0-.42-2.39A1.71,1.71,0,0,0,156.29,350.64Z" transform="translate(-10 -10)"/><path class="d" d="M306.12,470.4a6.32,6.32,0,1,0-8.62,2.31A6.32,6.32,0,0,0,306.12,470.4Z" transform="translate(-10 -10)"/><path class="d" d="M280,462a5.8,5.8,0,1,0-2.13-7.92A5.78,5.78,0,0,0,280,462Z" transform="translate(-10 -10)"/><path class="d" d="M260.56,444.09a5.3,5.3,0,1,0,7.23-1.93A5.3,5.3,0,0,0,260.56,444.09Z" transform="translate(-10 -10)"/><path class="d" d="M243.25,434.1a4.78,4.78,0,1,0,6.53-1.75A4.78,4.78,0,0,0,243.25,434.1Z" transform="translate(-10 -10)"/><path class="d" d="M225.94,424.1a4.27,4.27,0,1,0,5.83-1.56A4.28,4.28,0,0,0,225.94,424.1Z" transform="translate(-10 -10)"/><path class="d" d="M208.63,414.11a3.76,3.76,0,1,0,5.13-1.38A3.76,3.76,0,0,0,208.63,414.11Z" transform="translate(-10 -10)"/><path class="d" d="M191.31,404.11a3.25,3.25,0,1,0,4.44-1.19A3.26,3.26,0,0,0,191.31,404.11Z" transform="translate(-10 -10)"/><path class="d" d="M174,394.12a2.74,2.74,0,1,0,3.75-1A2.74,2.74,0,0,0,174,394.12Z" transform="translate(-10 -10)"/><path class="d" d="M156.69,384.12a2.23,2.23,0,1,0,3.05-.81A2.24,2.24,0,0,0,156.69,384.12Z" transform="translate(-10 -10)"/><path class="d" d="M141.73,373.5a1.72,1.72,0,1,0,.63,2.35A1.72,1.72,0,0,0,141.73,373.5Z" transform="translate(-10 -10)"/><path class="d" d="M299.71,482.72a6.32,6.32,0,1,0-8.39,3A6.32,6.32,0,0,0,299.71,482.72Z" transform="translate(-10 -10)"/><path class="d" d="M270.15,468.93a5.8,5.8,0,1,0,7.71-2.81A5.79,5.79,0,0,0,270.15,468.93Z" transform="translate(-10 -10)"/><path class="d" d="M252,460.48a5.29,5.29,0,1,0,7-2.56A5.3,5.3,0,0,0,252,460.48Z" transform="translate(-10 -10)"/><path class="d" d="M236.22,458.39a4.78,4.78,0,1,0-2.31-6.35A4.79,4.79,0,0,0,236.22,458.39Z" transform="translate(-10 -10)"/><path class="d" d="M217.86,449.26a4.27,4.27,0,1,0-2.06-5.67A4.27,4.27,0,0,0,217.86,449.26Z" transform="translate(-10 -10)"/><path class="d" d="M199.5,440.14a3.76,3.76,0,1,0-1.82-5A3.77,3.77,0,0,0,199.5,440.14Z" transform="translate(-10 -10)"/><path class="d" d="M181.13,431a3.25,3.25,0,1,0-1.57-4.32A3.25,3.25,0,0,0,181.13,431Z" transform="translate(-10 -10)"/><path class="d" d="M162.77,421.88a2.74,2.74,0,1,0-1.33-3.64A2.74,2.74,0,0,0,162.77,421.88Z" transform="translate(-10 -10)"/><path class="d" d="M144.41,412.76a2.23,2.23,0,1,0-1.08-3A2.23,2.23,0,0,0,144.41,412.76Z" transform="translate(-10 -10)"/><path class="d" d="M127.5,400.52a1.72,1.72,0,1,0,.83,2.28A1.71,1.71,0,0,0,127.5,400.52Z" transform="translate(-10 -10)"/><path class="d" d="M294.39,495.55a6.31,6.31,0,1,0-8.09,3.77A6.31,6.31,0,0,0,294.39,495.55Z" transform="translate(-10 -10)"/><path class="d" d="M263.74,484.39a5.8,5.8,0,1,0,7.44-3.47A5.81,5.81,0,0,0,263.74,484.39Z" transform="translate(-10 -10)"/><path class="d" d="M245,477.56a5.29,5.29,0,1,0,6.78-3.17A5.29,5.29,0,0,0,245,477.56Z" transform="translate(-10 -10)"/><path class="d" d="M232.3,467.86a4.78,4.78,0,1,0,2.86,6.13A4.79,4.79,0,0,0,232.3,467.86Z" transform="translate(-10 -10)"/><path class="d" d="M212.86,461.33a4.27,4.27,0,1,0,2.56,5.47A4.26,4.26,0,0,0,212.86,461.33Z" transform="translate(-10 -10)"/><path class="d" d="M193.42,454.8a3.76,3.76,0,1,0,2.25,4.82A3.76,3.76,0,0,0,193.42,454.8Z" transform="translate(-10 -10)"/><path class="d" d="M171.76,454.37a3.25,3.25,0,1,0-1.94-4.16A3.24,3.24,0,0,0,171.76,454.37Z" transform="translate(-10 -10)"/><path class="d" d="M152.67,446.88a2.74,2.74,0,1,0-1.63-3.51A2.74,2.74,0,0,0,152.67,446.88Z" transform="translate(-10 -10)"/><path class="d" d="M133.58,439.39a2.23,2.23,0,1,0-1.33-2.86A2.23,2.23,0,0,0,133.58,439.39Z" transform="translate(-10 -10)"/><path class="d" d="M114.49,431.9a1.72,1.72,0,1,0-1-2.2A1.72,1.72,0,0,0,114.49,431.9Z" transform="translate(-10 -10)"/><path class="d" d="M290.21,508.79a6.31,6.31,0,1,0-7.73,4.47A6.3,6.3,0,0,0,290.21,508.79Z" transform="translate(-10 -10)"/><path class="d" d="M258.71,500.35a5.8,5.8,0,1,0,7.11-4.1A5.81,5.81,0,0,0,258.71,500.35Z" transform="translate(-10 -10)"/><path class="d" d="M239.4,495.18a5.29,5.29,0,1,0,6.48-3.74A5.29,5.29,0,0,0,239.4,495.18Z" transform="translate(-10 -10)"/><path class="d" d="M220.09,490a4.78,4.78,0,1,0,5.86-3.39A4.78,4.78,0,0,0,220.09,490Z" transform="translate(-10 -10)"/><path class="d" d="M200.78,484.83a4.28,4.28,0,1,0,5.23-3A4.27,4.27,0,0,0,200.78,484.83Z" transform="translate(-10 -10)"/><path class="d" d="M181.47,479.66a3.76,3.76,0,1,0,4.61-2.66A3.77,3.77,0,0,0,181.47,479.66Z" transform="translate(-10 -10)"/><path class="d" d="M166.15,472.19a3.25,3.25,0,1,0,2.3,4A3.24,3.24,0,0,0,166.15,472.19Z" transform="translate(-10 -10)"/><path class="d" d="M146.21,467.37a2.74,2.74,0,1,0,1.94,3.36A2.74,2.74,0,0,0,146.21,467.37Z" transform="translate(-10 -10)"/><path class="d" d="M125.13,466.87a2.23,2.23,0,1,0-1.58-2.73A2.23,2.23,0,0,0,125.13,466.87Z" transform="translate(-10 -10)"/><path class="d" d="M106.35,457.75a1.72,1.72,0,1,0,1.21,2.1A1.72,1.72,0,0,0,106.35,457.75Z" transform="translate(-10 -10)"/><path class="d" d="M282.09,515a6.32,6.32,0,1,0,5.12,7.31A6.32,6.32,0,0,0,282.09,515Z" transform="translate(-10 -10)"/><path class="d" d="M255.09,516.69a5.8,5.8,0,1,0,6.72-4.71A5.79,5.79,0,0,0,255.09,516.69Z" transform="translate(-10 -10)"/><path class="d" d="M235.4,513.22a5.29,5.29,0,1,0,6.13-4.29A5.29,5.29,0,0,0,235.4,513.22Z" transform="translate(-10 -10)"/><path class="d" d="M215.71,509.75a4.78,4.78,0,1,0,5.54-3.88A4.79,4.79,0,0,0,215.71,509.75Z" transform="translate(-10 -10)"/><path class="d" d="M196,506.28a4.27,4.27,0,1,0,4.95-3.47A4.27,4.27,0,0,0,196,506.28Z" transform="translate(-10 -10)"/><path class="d" d="M180.7,499.76a3.76,3.76,0,1,0,3.05,4.35A3.75,3.75,0,0,0,180.7,499.76Z" transform="translate(-10 -10)"/><path class="d" d="M160.42,496.7a3.25,3.25,0,1,0,2.64,3.76A3.25,3.25,0,0,0,160.42,496.7Z" transform="translate(-10 -10)"/><path class="d" d="M139.19,499a2.74,2.74,0,1,0-2.22-3.18A2.75,2.75,0,0,0,139.19,499Z" transform="translate(-10 -10)"/><path class="d" d="M119.87,490.58a2.23,2.23,0,1,0,1.81,2.59A2.24,2.24,0,0,0,119.87,490.58Z" transform="translate(-10 -10)"/><path class="d" d="M99.59,487.53a1.72,1.72,0,1,0,1.39,2A1.71,1.71,0,0,0,99.59,487.53Z" transform="translate(-10 -10)"/><path class="d" d="M279.66,529.29a6.31,6.31,0,1,0,5.73,6.83A6.3,6.3,0,0,0,279.66,529.29Z" transform="translate(-10 -10)"/><path class="d" d="M252.9,533.28a5.8,5.8,0,1,0,6.29-5.27A5.81,5.81,0,0,0,252.9,533.28Z" transform="translate(-10 -10)"/><path class="d" d="M238.72,526.73a5.29,5.29,0,1,0,4.81,5.73A5.28,5.28,0,0,0,238.72,526.73Z" transform="translate(-10 -10)"/><path class="d" d="M218.26,525.45a4.78,4.78,0,1,0,4.34,5.18A4.78,4.78,0,0,0,218.26,525.45Z" transform="translate(-10 -10)"/><path class="d" d="M193.16,528.06a4.27,4.27,0,1,0,4.63-3.89A4.26,4.26,0,0,0,193.16,528.06Z" transform="translate(-10 -10)"/><path class="d" d="M176.67,530.39a3.76,3.76,0,1,0-3.42-4.08A3.76,3.76,0,0,0,176.67,530.39Z" transform="translate(-10 -10)"/><path class="d" d="M159.81,525.14a3.25,3.25,0,1,0-3.52,3A3.24,3.24,0,0,0,159.81,525.14Z" transform="translate(-10 -10)"/><path class="d" d="M136.39,520.34a2.74,2.74,0,1,0,2.49,3A2.74,2.74,0,0,0,136.39,520.34Z" transform="translate(-10 -10)"/><path class="d" d="M115.92,519.06a2.23,2.23,0,1,0,2,2.42A2.22,2.22,0,0,0,115.92,519.06Z" transform="translate(-10 -10)"/><path class="d" d="M95.46,517.78A1.72,1.72,0,1,0,97,519.64,1.73,1.73,0,0,0,95.46,517.78Z" transform="translate(-10 -10)"/><path class="d" d="M284.79,550a6.32,6.32,0,1,0-6.31,6.31A6.31,6.31,0,0,0,284.79,550Z" transform="translate(-10 -10)"/><path class="d" d="M258,555.8a5.8,5.8,0,1,0-5.81-5.8A5.8,5.8,0,0,0,258,555.8Z" transform="translate(-10 -10)"/><path class="d" d="M242.77,550a5.3,5.3,0,1,0-5.29,5.29A5.29,5.29,0,0,0,242.77,550Z" transform="translate(-10 -10)"/><path class="d" d="M221.76,550a4.79,4.79,0,1,0-4.78,4.78A4.78,4.78,0,0,0,221.76,550Z" transform="translate(-10 -10)"/><path class="d" d="M196.47,545.73a4.27,4.27,0,1,0,4.28,4.27A4.27,4.27,0,0,0,196.47,545.73Z" transform="translate(-10 -10)"/><path class="d" d="M176,553.76a3.76,3.76,0,1,0-3.76-3.76A3.76,3.76,0,0,0,176,553.76Z" transform="translate(-10 -10)"/><path class="d" d="M152.22,550a3.25,3.25,0,1,0,3.25-3.25A3.25,3.25,0,0,0,152.22,550Z" transform="translate(-10 -10)"/><path class="d" d="M137.71,550a2.74,2.74,0,1,0-2.74,2.74A2.74,2.74,0,0,0,137.71,550Z" transform="translate(-10 -10)"/><path class="d" d="M116.7,550a2.23,2.23,0,1,0-2.23,2.23A2.23,2.23,0,0,0,116.7,550Z" transform="translate(-10 -10)"/><path class="d" d="M95.69,550A1.72,1.72,0,1,0,94,551.72,1.72,1.72,0,0,0,95.69,550Z" transform="translate(-10 -10)"/><path class="d" d="M279.66,570.72a6.31,6.31,0,1,0-6.84-5.74A6.31,6.31,0,0,0,279.66,570.72Z" transform="translate(-10 -10)"/><path class="d" d="M259.19,572a5.8,5.8,0,1,0-6.29-5.27A5.79,5.79,0,0,0,259.19,572Z" transform="translate(-10 -10)"/><path class="d" d="M238.72,573.27a5.29,5.29,0,1,0-5.73-4.81A5.28,5.28,0,0,0,238.72,573.27Z" transform="translate(-10 -10)"/><path class="d" d="M218.26,574.55a4.78,4.78,0,1,0-5.18-4.35A4.78,4.78,0,0,0,218.26,574.55Z" transform="translate(-10 -10)"/><path class="d" d="M197.79,575.83a4.27,4.27,0,1,0-4.63-3.88A4.27,4.27,0,0,0,197.79,575.83Z" transform="translate(-10 -10)"/><path class="d" d="M177.32,577.11a3.76,3.76,0,1,0-4.07-3.42A3.77,3.77,0,0,0,177.32,577.11Z" transform="translate(-10 -10)"/><path class="d" d="M156.86,578.39a3.25,3.25,0,1,0-3.53-3A3.26,3.26,0,0,0,156.86,578.39Z" transform="translate(-10 -10)"/><path class="d" d="M136.39,579.66a2.74,2.74,0,1,0-3-2.49A2.73,2.73,0,0,0,136.39,579.66Z" transform="translate(-10 -10)"/><path class="d" d="M115.53,576.5a2.23,2.23,0,1,0,2.42,2A2.23,2.23,0,0,0,115.53,576.5Z" transform="translate(-10 -10)"/><path class="d" d="M95.16,578.79A1.72,1.72,0,1,0,97,580.36,1.73,1.73,0,0,0,95.16,578.79Z" transform="translate(-10 -10)"/><path class="d" d="M282.09,585a6.31,6.31,0,1,0-7.32-5.12A6.31,6.31,0,0,0,282.09,585Z" transform="translate(-10 -10)"/><path class="d" d="M261.81,588a5.8,5.8,0,1,0-6.72-4.71A5.81,5.81,0,0,0,261.81,588Z" transform="translate(-10 -10)"/><path class="d" d="M241.53,591.08a5.3,5.3,0,1,0-6.13-4.3A5.3,5.3,0,0,0,241.53,591.08Z" transform="translate(-10 -10)"/><path class="d" d="M221.25,594.13a4.78,4.78,0,1,0-5.54-3.88A4.78,4.78,0,0,0,221.25,594.13Z" transform="translate(-10 -10)"/><path class="d" d="M201,597.19a4.27,4.27,0,1,0-4.95-3.47A4.27,4.27,0,0,0,201,597.19Z" transform="translate(-10 -10)"/><path class="d" d="M180.7,600.25a3.76,3.76,0,1,0-4.36-3A3.76,3.76,0,0,0,180.7,600.25Z" transform="translate(-10 -10)"/><path class="d" d="M160.42,603.3a3.25,3.25,0,1,0-3.76-2.63A3.25,3.25,0,0,0,160.42,603.3Z" transform="translate(-10 -10)"/><path class="d" d="M140.14,606.36a2.74,2.74,0,1,0-3.17-2.22A2.73,2.73,0,0,0,140.14,606.36Z" transform="translate(-10 -10)"/><path class="d" d="M119.09,605a2.23,2.23,0,1,0,2.59,1.81A2.23,2.23,0,0,0,119.09,605Z" transform="translate(-10 -10)"/><path class="d" d="M99,609.09a1.72,1.72,0,1,0,2,1.39A1.71,1.71,0,0,0,99,609.09Z" transform="translate(-10 -10)"/><path class="d" d="M282.48,586.74a6.32,6.32,0,1,0,7.73,4.47A6.32,6.32,0,0,0,282.48,586.74Z" transform="translate(-10 -10)"/><path class="d" d="M265.82,603.75a5.8,5.8,0,1,0-7.11-4.1A5.8,5.8,0,0,0,265.82,603.75Z" transform="translate(-10 -10)"/><path class="d" d="M245.88,608.57a5.3,5.3,0,1,0-6.48-3.75A5.29,5.29,0,0,0,245.88,608.57Z" transform="translate(-10 -10)"/><path class="d" d="M229.33,607.52a4.78,4.78,0,1,0-3.38,5.86A4.79,4.79,0,0,0,229.33,607.52Z" transform="translate(-10 -10)"/><path class="d" d="M206,618.19a4.27,4.27,0,1,0-5.23-3A4.27,4.27,0,0,0,206,618.19Z" transform="translate(-10 -10)"/><path class="d" d="M188.74,618.4a3.76,3.76,0,1,0-2.66,4.6A3.76,3.76,0,0,0,188.74,618.4Z" transform="translate(-10 -10)"/><path class="d" d="M164.46,621.54a3.25,3.25,0,1,0,4,2.3A3.24,3.24,0,0,0,164.46,621.54Z" transform="translate(-10 -10)"/><path class="d" d="M144.79,627.34a2.74,2.74,0,1,0,3.36,1.93A2.73,2.73,0,0,0,144.79,627.34Z" transform="translate(-10 -10)"/><path class="d" d="M126.28,637.44a2.23,2.23,0,1,0-2.73-1.57A2.24,2.24,0,0,0,126.28,637.44Z" transform="translate(-10 -10)"/><path class="d" d="M105.46,638.93a1.72,1.72,0,1,0,2.1,1.22A1.72,1.72,0,0,0,105.46,638.93Z" transform="translate(-10 -10)"/><path class="d" d="M286.3,600.68a6.32,6.32,0,1,0,8.09,3.77A6.3,6.3,0,0,0,286.3,600.68Z" transform="translate(-10 -10)"/><path class="d" d="M271.18,619.08a5.8,5.8,0,1,0-7.44-3.47A5.81,5.81,0,0,0,271.18,619.08Z" transform="translate(-10 -10)"/><path class="d" d="M251.74,625.61a5.29,5.29,0,1,0-6.78-3.16A5.29,5.29,0,0,0,251.74,625.61Z" transform="translate(-10 -10)"/><path class="d" d="M232.3,632.14a4.78,4.78,0,1,0-6.13-2.86A4.79,4.79,0,0,0,232.3,632.14Z" transform="translate(-10 -10)"/><path class="d" d="M212.86,638.67a4.27,4.27,0,1,0-5.47-2.55A4.27,4.27,0,0,0,212.86,638.67Z" transform="translate(-10 -10)"/><path class="d" d="M188.6,643a3.76,3.76,0,1,0,2.25-4.82A3.76,3.76,0,0,0,188.6,643Z" transform="translate(-10 -10)"/><path class="d" d="M174,651.74a3.25,3.25,0,1,0-4.17-2A3.26,3.26,0,0,0,174,651.74Z" transform="translate(-10 -10)"/><path class="d" d="M156.19,654.76a2.74,2.74,0,1,0-1.64,3.51A2.74,2.74,0,0,0,156.19,654.76Z" transform="translate(-10 -10)"/><path class="d" d="M133.58,660.61a2.23,2.23,0,1,0,2.86,1.33A2.24,2.24,0,0,0,133.58,660.61Z" transform="translate(-10 -10)"/><path class="d" d="M114.49,668.1a1.72,1.72,0,1,0,2.21,1A1.72,1.72,0,0,0,114.49,668.1Z" transform="translate(-10 -10)"/><path class="d" d="M291.32,614.23a6.31,6.31,0,1,0,8.39,3.06A6.32,6.32,0,0,0,291.32,614.23Z" transform="translate(-10 -10)"/><path class="d" d="M277.86,633.88a5.8,5.8,0,1,0-7.71-2.81A5.8,5.8,0,0,0,277.86,633.88Z" transform="translate(-10 -10)"/><path class="d" d="M259.06,642.08a5.29,5.29,0,1,0-7-2.56A5.29,5.29,0,0,0,259.06,642.08Z" transform="translate(-10 -10)"/><path class="d" d="M240.27,650.28a4.78,4.78,0,1,0-6.36-2.31A4.79,4.79,0,0,0,240.27,650.28Z" transform="translate(-10 -10)"/><path class="d" d="M221.47,658.48a4.27,4.27,0,1,0-5.68-2.07A4.28,4.28,0,0,0,221.47,658.48Z" transform="translate(-10 -10)"/><path class="d" d="M204.49,661.68a3.76,3.76,0,1,0-1.81,5A3.76,3.76,0,0,0,204.49,661.68Z" transform="translate(-10 -10)"/><path class="d" d="M181.13,669a3.25,3.25,0,1,0,4.32,1.57A3.25,3.25,0,0,0,181.13,669Z" transform="translate(-10 -10)"/><path class="d" d="M162.77,678.12a2.74,2.74,0,1,0,3.64,1.32A2.74,2.74,0,0,0,162.77,678.12Z" transform="translate(-10 -10)"/><path class="d" d="M144.41,687.24a2.23,2.23,0,1,0,3,1.08A2.23,2.23,0,0,0,144.41,687.24Z" transform="translate(-10 -10)"/><path class="d" d="M126,696.37a1.72,1.72,0,1,0,2.29.83A1.72,1.72,0,0,0,126,696.37Z" transform="translate(-10 -10)"/><path class="d" d="M297.49,627.3a6.31,6.31,0,1,0,8.63,2.31A6.32,6.32,0,0,0,297.49,627.3Z" transform="translate(-10 -10)"/><path class="d" d="M285.8,648a5.8,5.8,0,1,0-7.93-2.13A5.8,5.8,0,0,0,285.8,648Z" transform="translate(-10 -10)"/><path class="d" d="M267.79,657.85a5.29,5.29,0,1,0-7.23-1.94A5.3,5.3,0,0,0,267.79,657.85Z" transform="translate(-10 -10)"/><path class="d" d="M251.53,661.12a4.78,4.78,0,1,0-1.75,6.54A4.79,4.79,0,0,0,251.53,661.12Z" transform="translate(-10 -10)"/><path class="d" d="M233.34,671.63a4.27,4.27,0,1,0-1.57,5.83A4.28,4.28,0,0,0,233.34,671.63Z" transform="translate(-10 -10)"/><path class="d" d="M210,680.76a3.76,3.76,0,1,0,5.14,1.37A3.75,3.75,0,0,0,210,680.76Z" transform="translate(-10 -10)"/><path class="d" d="M196.94,692.64a3.25,3.25,0,1,0-1.19,4.44A3.24,3.24,0,0,0,196.94,692.64Z" transform="translate(-10 -10)"/><path class="d" d="M175,702.14a2.74,2.74,0,1,0,3.74,1A2.74,2.74,0,0,0,175,702.14Z" transform="translate(-10 -10)"/><path class="d" d="M157.51,712.83a2.23,2.23,0,1,0,3,.82A2.23,2.23,0,0,0,157.51,712.83Z" transform="translate(-10 -10)"/><path class="d" d="M140,723.53a1.72,1.72,0,1,0,1.72,3,1.72,1.72,0,1,0-1.72-3Z" transform="translate(-10 -10)"/><path class="d" d="M313.58,641.32a6.31,6.31,0,1,0-1.55,8.79A6.31,6.31,0,0,0,313.58,641.32Z" transform="translate(-10 -10)"/><path class="d" d="M295,661.45a5.8,5.8,0,1,0-8.09-1.42A5.8,5.8,0,0,0,295,661.45Z" transform="translate(-10 -10)"/><path class="d" d="M277.86,672.79a5.29,5.29,0,1,0-7.37-1.3A5.29,5.29,0,0,0,277.86,672.79Z" transform="translate(-10 -10)"/><path class="d" d="M255.29,676.3a4.78,4.78,0,1,0,6.66,1.17A4.79,4.79,0,0,0,255.29,676.3Z" transform="translate(-10 -10)"/><path class="d" d="M237.74,694.43a4.27,4.27,0,1,0,1-5.95A4.27,4.27,0,0,0,237.74,694.43Z" transform="translate(-10 -10)"/><path class="d" d="M227.53,701.58a3.76,3.76,0,1,0-.93,5.24A3.77,3.77,0,0,0,227.53,701.58Z" transform="translate(-10 -10)"/><path class="d" d="M209.52,718.16a3.25,3.25,0,1,0-4.53-.8A3.25,3.25,0,0,0,209.52,718.16Z" transform="translate(-10 -10)"/><path class="d" d="M192.43,729.5a2.74,2.74,0,1,0-3.81-.68A2.75,2.75,0,0,0,192.43,729.5Z" transform="translate(-10 -10)"/><path class="d" d="M175.89,737.73a2.23,2.23,0,1,0-.54,3.11A2.23,2.23,0,0,0,175.89,737.73Z" transform="translate(-10 -10)"/><path class="d" d="M156.29,749.36a1.72,1.72,0,1,0,2.39.42A1.71,1.71,0,0,0,156.29,749.36Z" transform="translate(-10 -10)"/><path class="d" d="M322,652.34a6.32,6.32,0,1,0-.78,8.89A6.32,6.32,0,0,0,322,652.34Z" transform="translate(-10 -10)"/><path class="d" d="M297.77,665.13a5.8,5.8,0,1,0,8.17.72A5.79,5.79,0,0,0,297.77,665.13Z" transform="translate(-10 -10)"/><path class="d" d="M289.85,679.35a5.29,5.29,0,1,0-.66,7.46A5.29,5.29,0,0,0,289.85,679.35Z" transform="translate(-10 -10)"/><path class="d" d="M273.75,692.86a4.78,4.78,0,1,0-.59,6.73A4.78,4.78,0,0,0,273.75,692.86Z" transform="translate(-10 -10)"/><path class="d" d="M257.13,712.38a4.27,4.27,0,1,0-6-.53A4.28,4.28,0,0,0,257.13,712.38Z" transform="translate(-10 -10)"/><path class="d" d="M241.1,725.17a3.77,3.77,0,1,0-5.3-.47A3.76,3.76,0,0,0,241.1,725.17Z" transform="translate(-10 -10)"/><path class="d" d="M220.89,733a3.25,3.25,0,1,0,4.58.4A3.24,3.24,0,0,0,220.89,733Z" transform="translate(-10 -10)"/><path class="d" d="M209.37,746.88a2.74,2.74,0,1,0-.34,3.86A2.74,2.74,0,0,0,209.37,746.88Z" transform="translate(-10 -10)"/><path class="d" d="M190.13,760.11a2.23,2.23,0,1,0,3.15.27A2.23,2.23,0,0,0,190.13,760.11Z" transform="translate(-10 -10)"/><path class="d" d="M174.76,773.68a1.72,1.72,0,1,0,2.42.21A1.71,1.71,0,0,0,174.76,773.68Z" transform="translate(-10 -10)"/><path class="d" d="M331.42,662.58a6.31,6.31,0,1,0,0,8.93A6.31,6.31,0,0,0,331.42,662.58Z" transform="translate(-10 -10)"/><path class="d" d="M316.56,685.64a5.8,5.8,0,1,0-8.2,0A5.79,5.79,0,0,0,316.56,685.64Z" transform="translate(-10 -10)"/><path class="d" d="M301.71,699.78a5.3,5.3,0,1,0-7.49,0A5.31,5.31,0,0,0,301.71,699.78Z" transform="translate(-10 -10)"/><path class="d" d="M286.85,713.91a4.78,4.78,0,1,0-6.76,0A4.77,4.77,0,0,0,286.85,713.91Z" transform="translate(-10 -10)"/><path class="d" d="M272,728.05a4.27,4.27,0,1,0-6,0A4.27,4.27,0,0,0,272,728.05Z" transform="translate(-10 -10)"/><path class="d" d="M257.14,742.18a3.76,3.76,0,1,0-5.32,0A3.77,3.77,0,0,0,257.14,742.18Z" transform="translate(-10 -10)"/><path class="d" d="M242.28,751.72a3.25,3.25,0,1,0,0,4.6A3.25,3.25,0,0,0,242.28,751.72Z" transform="translate(-10 -10)"/><path class="d" d="M223.55,766.58a2.74,2.74,0,1,0,3.87,0A2.73,2.73,0,0,0,223.55,766.58Z" transform="translate(-10 -10)"/><path class="d" d="M209.41,781.43a2.23,2.23,0,1,0,3.16,0A2.24,2.24,0,0,0,209.41,781.43Z" transform="translate(-10 -10)"/><path class="d" d="M195.28,796.29a1.72,1.72,0,1,0,2.43,0A1.72,1.72,0,0,0,195.28,796.29Z" transform="translate(-10 -10)"/><path class="d" d="M333.54,681.64a6.32,6.32,0,1,0-.77-8.9A6.32,6.32,0,0,0,333.54,681.64Z" transform="translate(-10 -10)"/><path class="d" d="M320.7,697a5.8,5.8,0,1,0-.72-8.18A5.79,5.79,0,0,0,320.7,697Z" transform="translate(-10 -10)"/><path class="d" d="M307.85,712.26a5.29,5.29,0,1,0-.66-7.45A5.28,5.28,0,0,0,307.85,712.26Z" transform="translate(-10 -10)"/><path class="d" d="M295,727.58a4.78,4.78,0,1,0-.59-6.74A4.78,4.78,0,0,0,295,727.58Z" transform="translate(-10 -10)"/><path class="d" d="M288.17,742.36a4.27,4.27,0,1,0-6,.53A4.28,4.28,0,0,0,288.17,742.36Z" transform="translate(-10 -10)"/><path class="d" d="M274.13,752.44a3.76,3.76,0,1,0,.47,5.3A3.75,3.75,0,0,0,274.13,752.44Z" transform="translate(-10 -10)"/><path class="d" d="M260.63,768.53a3.25,3.25,0,1,0,.4,4.58A3.26,3.26,0,0,0,260.63,768.53Z" transform="translate(-10 -10)"/><path class="d" d="M247.12,784.63a2.74,2.74,0,1,0,.34,3.86A2.74,2.74,0,0,0,247.12,784.63Z" transform="translate(-10 -10)"/><path class="d" d="M233.62,800.72a2.23,2.23,0,1,0,.27,3.15A2.23,2.23,0,0,0,233.62,800.72Z" transform="translate(-10 -10)"/><path class="d" d="M220.11,816.82a1.72,1.72,0,1,0,.21,2.42A1.71,1.71,0,0,0,220.11,816.82Z" transform="translate(-10 -10)"/><path class="d" d="M352.68,680.42a6.31,6.31,0,1,0,1.55,8.79A6.31,6.31,0,0,0,352.68,680.42Z" transform="translate(-10 -10)"/><path class="d" d="M334,707.14a5.81,5.81,0,1,0-1.42-8.09A5.79,5.79,0,0,0,334,707.14Z" transform="translate(-10 -10)"/><path class="d" d="M322.51,723.51a5.29,5.29,0,1,0-1.3-7.37A5.28,5.28,0,0,0,322.51,723.51Z" transform="translate(-10 -10)"/><path class="d" d="M311,739.89a4.79,4.79,0,1,0-1.17-6.66A4.78,4.78,0,0,0,311,739.89Z" transform="translate(-10 -10)"/><path class="d" d="M299.57,756.26a4.28,4.28,0,1,0-1-6A4.28,4.28,0,0,0,299.57,756.26Z" transform="translate(-10 -10)"/><path class="d" d="M292.42,766.47a3.76,3.76,0,1,0,.93,5.24A3.76,3.76,0,0,0,292.42,766.47Z" transform="translate(-10 -10)"/><path class="d" d="M280.37,783.68a3.25,3.25,0,1,0,.8,4.53A3.26,3.26,0,0,0,280.37,783.68Z" transform="translate(-10 -10)"/><path class="d" d="M269,804.71a2.74,2.74,0,1,0-3.81.68A2.74,2.74,0,0,0,269,804.71Z" transform="translate(-10 -10)"/><path class="d" d="M256.27,818.11a2.23,2.23,0,1,0,.55,3.1A2.24,2.24,0,0,0,256.27,818.11Z" transform="translate(-10 -10)"/><path class="d" d="M244.22,835.32a1.72,1.72,0,1,0,.42,2.39A1.72,1.72,0,0,0,244.22,835.32Z" transform="translate(-10 -10)"/><path class="d" d="M364.39,687.88a6.31,6.31,0,1,0,2.31,8.63A6.31,6.31,0,0,0,364.39,687.88Z" transform="translate(-10 -10)"/><path class="d" d="M346,708.2a5.8,5.8,0,1,0,7.93-2.12A5.8,5.8,0,0,0,346,708.2Z" transform="translate(-10 -10)"/><path class="d" d="M338.09,733.44a5.29,5.29,0,1,0-1.94-7.23A5.3,5.3,0,0,0,338.09,733.44Z" transform="translate(-10 -10)"/><path class="d" d="M332.88,742.47a4.78,4.78,0,1,0,1.75,6.53A4.78,4.78,0,0,0,332.88,742.47Z" transform="translate(-10 -10)"/><path class="d" d="M323.94,766.5a4.27,4.27,0,1,0-5.84,1.56A4.26,4.26,0,0,0,323.94,766.5Z" transform="translate(-10 -10)"/><path class="d" d="M313.24,784a3.76,3.76,0,1,0-5.13,1.38A3.76,3.76,0,0,0,313.24,784Z" transform="translate(-10 -10)"/><path class="d" d="M301.36,797.06a3.25,3.25,0,1,0,1.19,4.44A3.25,3.25,0,0,0,301.36,797.06Z" transform="translate(-10 -10)"/><path class="d" d="M290.86,815.25a2.74,2.74,0,1,0,1,3.75A2.75,2.75,0,0,0,290.86,815.25Z" transform="translate(-10 -10)"/><path class="d" d="M280.35,833.45a2.23,2.23,0,1,0,.82,3A2.22,2.22,0,0,0,280.35,833.45Z" transform="translate(-10 -10)"/><path class="d" d="M269.85,851.64a1.72,1.72,0,0,0-2.35.63,1.72,1.72,0,1,0,3,1.72A1.73,1.73,0,0,0,269.85,851.64Z" transform="translate(-10 -10)"/><path class="d" d="M371.38,705.74a6.31,6.31,0,1,0-3.06-8.39A6.32,6.32,0,0,0,371.38,705.74Z" transform="translate(-10 -10)"/><path class="d" d="M360.12,716.14a5.8,5.8,0,1,0,7.71-2.8A5.82,5.82,0,0,0,360.12,716.14Z" transform="translate(-10 -10)"/><path class="d" d="M354.48,742a5.29,5.29,0,1,0-2.56-7A5.3,5.3,0,0,0,354.48,742Z" transform="translate(-10 -10)"/><path class="d" d="M346,760.09a4.78,4.78,0,1,0-2.31-6.36A4.79,4.79,0,0,0,346,760.09Z" transform="translate(-10 -10)"/><path class="d" d="M337.59,778.21a4.27,4.27,0,1,0-2.07-5.68A4.27,4.27,0,0,0,337.59,778.21Z" transform="translate(-10 -10)"/><path class="d" d="M332.32,789.51a3.76,3.76,0,1,0,1.82,5A3.75,3.75,0,0,0,332.32,789.51Z" transform="translate(-10 -10)"/><path class="d" d="M325,812.87a3.25,3.25,0,1,0-4.32,1.57A3.25,3.25,0,0,0,325,812.87Z" transform="translate(-10 -10)"/><path class="d" d="M314.56,827.59a2.74,2.74,0,1,0,1.32,3.64A2.73,2.73,0,0,0,314.56,827.59Z" transform="translate(-10 -10)"/><path class="d" d="M305.68,846.63a2.23,2.23,0,1,0,1.08,3A2.24,2.24,0,0,0,305.68,846.63Z" transform="translate(-10 -10)"/><path class="d" d="M296.8,865.67a1.72,1.72,0,1,0,.83,2.29A1.72,1.72,0,0,0,296.8,865.67Z" transform="translate(-10 -10)"/><path class="d" d="M385.23,711.48a6.32,6.32,0,1,0-3.78-8.1A6.32,6.32,0,0,0,385.23,711.48Z" transform="translate(-10 -10)"/><path class="d" d="M385.83,726.79a5.8,5.8,0,1,0-7.44,3.47A5.81,5.81,0,0,0,385.83,726.79Z" transform="translate(-10 -10)"/><path class="d" d="M378.34,745.88a5.29,5.29,0,1,0-6.79,3.16A5.29,5.29,0,0,0,378.34,745.88Z" transform="translate(-10 -10)"/><path class="d" d="M364.72,767.83a4.78,4.78,0,1,0-2.86-6.13A4.79,4.79,0,0,0,364.72,767.83Z" transform="translate(-10 -10)"/><path class="d" d="M363.35,784.06a4.27,4.27,0,1,0-5.47,2.55A4.26,4.26,0,0,0,363.35,784.06Z" transform="translate(-10 -10)"/><path class="d" d="M353.62,798.33a3.76,3.76,0,1,0,2.24,4.82A3.75,3.75,0,0,0,353.62,798.33Z" transform="translate(-10 -10)"/><path class="d" d="M346.43,818.07a3.25,3.25,0,1,0,1.94,4.17A3.26,3.26,0,0,0,346.43,818.07Z" transform="translate(-10 -10)"/><path class="d" d="M339.24,837.81a2.74,2.74,0,1,0,1.64,3.52A2.75,2.75,0,0,0,339.24,837.81Z" transform="translate(-10 -10)"/><path class="d" d="M332.06,857.56a2.23,2.23,0,1,0,1.33,2.86A2.23,2.23,0,0,0,332.06,857.56Z" transform="translate(-10 -10)"/><path class="d" d="M324.87,877.3a1.72,1.72,0,1,0,1,2.21A1.72,1.72,0,0,0,324.87,877.3Z" transform="translate(-10 -10)"/><path class="d" d="M407.26,711.52a6.32,6.32,0,1,0-7.74,4.46A6.31,6.31,0,0,0,407.26,711.52Z" transform="translate(-10 -10)"/><path class="d" d="M401.46,731.19a5.8,5.8,0,1,0-7.11,4.1A5.8,5.8,0,0,0,401.46,731.19Z" transform="translate(-10 -10)"/><path class="d" d="M395.66,750.86a5.3,5.3,0,1,0-6.48,3.74A5.29,5.29,0,0,0,395.66,750.86Z" transform="translate(-10 -10)"/><path class="d" d="M384,773.91a4.78,4.78,0,1,0-3.38-5.86A4.79,4.79,0,0,0,384,773.91Z" transform="translate(-10 -10)"/><path class="d" d="M384.06,790.2a4.27,4.27,0,1,0-5.23,3A4.27,4.27,0,0,0,384.06,790.2Z" transform="translate(-10 -10)"/><path class="d" d="M375.6,805.26a3.76,3.76,0,1,0,2.66,4.61A3.75,3.75,0,0,0,375.6,805.26Z" transform="translate(-10 -10)"/><path class="d" d="M370.17,825.56a3.25,3.25,0,1,0,2.29,4A3.25,3.25,0,0,0,370.17,825.56Z" transform="translate(-10 -10)"/><path class="d" d="M364.73,845.85a2.74,2.74,0,1,0,1.93,3.36A2.75,2.75,0,0,0,364.73,845.85Z" transform="translate(-10 -10)"/><path class="d" d="M359.29,866.15a2.23,2.23,0,1,0,1.58,2.73A2.22,2.22,0,0,0,359.29,866.15Z" transform="translate(-10 -10)"/><path class="d" d="M353.85,886.44a1.72,1.72,0,1,0,1.22,2.11A1.73,1.73,0,0,0,353.85,886.44Z" transform="translate(-10 -10)"/><path class="d" d="M421.47,714.11a6.31,6.31,0,1,0-7.31,5.12A6.31,6.31,0,0,0,421.47,714.11Z" transform="translate(-10 -10)"/><path class="d" d="M417.41,734.21a5.8,5.8,0,1,0-6.72,4.7A5.79,5.79,0,0,0,417.41,734.21Z" transform="translate(-10 -10)"/><path class="d" d="M407.22,758.6a5.29,5.29,0,1,0-4.3-6.13A5.29,5.29,0,0,0,407.22,758.6Z" transform="translate(-10 -10)"/><path class="d" d="M405.41,768.87a4.78,4.78,0,1,0,3.88,5.54A4.78,4.78,0,0,0,405.41,768.87Z" transform="translate(-10 -10)"/><path class="d" d="M401.76,789.56a4.27,4.27,0,1,0,3.46,5A4.27,4.27,0,0,0,401.76,789.56Z" transform="translate(-10 -10)"/><path class="d" d="M398.11,810.25a3.76,3.76,0,1,0,3.05,4.36A3.77,3.77,0,0,0,398.11,810.25Z" transform="translate(-10 -10)"/><path class="d" d="M394.46,830.94a3.25,3.25,0,1,0,2.64,3.77A3.25,3.25,0,0,0,394.46,830.94Z" transform="translate(-10 -10)"/><path class="d" d="M390.81,851.63a2.74,2.74,0,1,0,2.23,3.18A2.74,2.74,0,0,0,390.81,851.63Z" transform="translate(-10 -10)"/><path class="d" d="M387.17,872.33a2.23,2.23,0,1,0,1.8,2.58A2.23,2.23,0,0,0,387.17,872.33Z" transform="translate(-10 -10)"/><path class="d" d="M383.52,893a1.72,1.72,0,1,0,1.39,2A1.72,1.72,0,0,0,383.52,893Z" transform="translate(-10 -10)"/><path class="d" d="M430.12,708.61a6.31,6.31,0,1,0,5.74,6.84A6.31,6.31,0,0,0,430.12,708.61Z" transform="translate(-10 -10)"/><path class="d" d="M428.29,729.54a5.8,5.8,0,1,0,5.28,6.28A5.79,5.79,0,0,0,428.29,729.54Z" transform="translate(-10 -10)"/><path class="d" d="M426.46,750.47a5.29,5.29,0,1,0,4.81,5.73A5.28,5.28,0,0,0,426.46,750.47Z" transform="translate(-10 -10)"/><path class="d" d="M424.63,771.4a4.78,4.78,0,1,0,4.35,5.18A4.78,4.78,0,0,0,424.63,771.4Z" transform="translate(-10 -10)"/><path class="d" d="M422.8,792.33a4.27,4.27,0,1,0,3.88,4.63A4.27,4.27,0,0,0,422.8,792.33Z" transform="translate(-10 -10)"/><path class="d" d="M421,813.26a3.76,3.76,0,1,0,3.42,4.07A3.77,3.77,0,0,0,421,813.26Z" transform="translate(-10 -10)"/><path class="d" d="M419.14,834.19a3.25,3.25,0,1,0,2.95,3.52A3.26,3.26,0,0,0,419.14,834.19Z" transform="translate(-10 -10)"/><path class="d" d="M417.3,855.12a2.74,2.74,0,1,0,2.5,3A2.73,2.73,0,0,0,417.3,855.12Z" transform="translate(-10 -10)"/><path class="d" d="M415.47,876.05a2.23,2.23,0,1,0,2,2.42A2.23,2.23,0,0,0,415.47,876.05Z" transform="translate(-10 -10)"/><path class="d" d="M413.64,897a1.72,1.72,0,1,0,1.57,1.87A1.72,1.72,0,0,0,413.64,897Z" transform="translate(-10 -10)"/><path class="d" d="M444,709.21a6.32,6.32,0,1,0,6.31,6.32A6.31,6.31,0,0,0,444,709.21Z" transform="translate(-10 -10)"/><path class="d" d="M444,730.22a5.81,5.81,0,1,0,5.8,5.81A5.8,5.8,0,0,0,444,730.22Z" transform="translate(-10 -10)"/><path class="d" d="M444,751.23a5.3,5.3,0,1,0,5.29,5.3A5.29,5.29,0,0,0,444,751.23Z" transform="translate(-10 -10)"/><path class="d" d="M444,772.24a4.79,4.79,0,1,0,4.78,4.79A4.79,4.79,0,0,0,444,772.24Z" transform="translate(-10 -10)"/><path class="d" d="M444,793.26a4.27,4.27,0,1,0,4.27,4.27A4.27,4.27,0,0,0,444,793.26Z" transform="translate(-10 -10)"/><path class="d" d="M444,814.27a3.76,3.76,0,1,0,3.76,3.76A3.76,3.76,0,0,0,444,814.27Z" transform="translate(-10 -10)"/><path class="d" d="M444,835.28a3.25,3.25,0,1,0,3.25,3.25A3.24,3.24,0,0,0,444,835.28Z" transform="translate(-10 -10)"/><path class="d" d="M444,856.29a2.74,2.74,0,1,0,2.74,2.74A2.74,2.74,0,0,0,444,856.29Z" transform="translate(-10 -10)"/><path class="d" d="M444,877.3a2.23,2.23,0,1,0,2.23,2.23A2.23,2.23,0,0,0,444,877.3Z" transform="translate(-10 -10)"/><path class="d" d="M444,898.31a1.72,1.72,0,1,0,1.72,1.72A1.72,1.72,0,0,0,444,898.31Z" transform="translate(-10 -10)"/><path class="d" d="M459,721.19a6.31,6.31,0,1,0-6.84-5.74A6.33,6.33,0,0,0,459,721.19Z" transform="translate(-10 -10)"/><path class="d" d="M460.72,741.1a5.8,5.8,0,1,0-6.29-5.28A5.81,5.81,0,0,0,460.72,741.1Z" transform="translate(-10 -10)"/><path class="d" d="M462.46,761a5.29,5.29,0,1,0-5.73-4.81A5.28,5.28,0,0,0,462.46,761Z" transform="translate(-10 -10)"/><path class="d" d="M464.2,780.93a4.78,4.78,0,1,0-5.18-4.35A4.79,4.79,0,0,0,464.2,780.93Z" transform="translate(-10 -10)"/><path class="d" d="M465.94,800.84a4.27,4.27,0,1,0-4.62-3.88A4.28,4.28,0,0,0,465.94,800.84Z" transform="translate(-10 -10)"/><path class="d" d="M467.69,820.75a3.76,3.76,0,1,0-4.08-3.42A3.76,3.76,0,0,0,467.69,820.75Z" transform="translate(-10 -10)"/><path class="d" d="M469.43,840.67a3.25,3.25,0,1,0-3.52-3A3.25,3.25,0,0,0,469.43,840.67Z" transform="translate(-10 -10)"/><path class="d" d="M471.17,860.58a2.74,2.74,0,1,0-3-2.49A2.73,2.73,0,0,0,471.17,860.58Z" transform="translate(-10 -10)"/><path class="d" d="M474.94,878.08a2.23,2.23,0,1,0-2,2.41A2.23,2.23,0,0,0,474.94,878.08Z" transform="translate(-10 -10)"/><path class="d" d="M474.36,897a1.72,1.72,0,1,0,1.86,1.57A1.73,1.73,0,0,0,474.36,897Z" transform="translate(-10 -10)"/><path class="d" d="M473.84,719.23a6.32,6.32,0,1,0-7.32-5.12A6.32,6.32,0,0,0,473.84,719.23Z" transform="translate(-10 -10)"/><path class="d" d="M477.31,738.91a5.8,5.8,0,1,0-6.72-4.7A5.8,5.8,0,0,0,477.31,738.91Z" transform="translate(-10 -10)"/><path class="d" d="M480.78,758.6a5.29,5.29,0,1,0-6.13-4.29A5.29,5.29,0,0,0,480.78,758.6Z" transform="translate(-10 -10)"/><path class="d" d="M484.25,778.29a4.78,4.78,0,1,0-5.54-3.88A4.78,4.78,0,0,0,484.25,778.29Z" transform="translate(-10 -10)"/><path class="d" d="M487.72,798a4.27,4.27,0,1,0-4.94-3.46A4.27,4.27,0,0,0,487.72,798Z" transform="translate(-10 -10)"/><path class="d" d="M494.25,813.3a3.76,3.76,0,1,0-3.06,4.36A3.78,3.78,0,0,0,494.25,813.3Z" transform="translate(-10 -10)"/><path class="d" d="M497.3,833.58a3.25,3.25,0,1,0-2.63,3.76A3.25,3.25,0,0,0,497.3,833.58Z" transform="translate(-10 -10)"/><path class="d" d="M500.36,853.86a2.74,2.74,0,1,0-2.22,3.17A2.75,2.75,0,0,0,500.36,853.86Z" transform="translate(-10 -10)"/><path class="d" d="M503.42,874.13a2.23,2.23,0,1,0-1.81,2.59A2.23,2.23,0,0,0,503.42,874.13Z" transform="translate(-10 -10)"/><path class="d" d="M504.48,893a1.72,1.72,0,1,0,2,1.39A1.71,1.71,0,0,0,504.48,893Z" transform="translate(-10 -10)"/><path class="d" d="M488.47,716a6.31,6.31,0,1,0-7.73-4.46A6.31,6.31,0,0,0,488.47,716Z" transform="translate(-10 -10)"/><path class="d" d="M493.65,735.29a5.8,5.8,0,1,0-7.11-4.1A5.8,5.8,0,0,0,493.65,735.29Z" transform="translate(-10 -10)"/><path class="d" d="M498.82,754.6a5.29,5.29,0,1,0-6.48-3.74A5.28,5.28,0,0,0,498.82,754.6Z" transform="translate(-10 -10)"/><path class="d" d="M504,773.91a4.78,4.78,0,1,0-5.86-3.38A4.79,4.79,0,0,0,504,773.91Z" transform="translate(-10 -10)"/><path class="d" d="M512.19,788a4.27,4.27,0,1,0-3,5.23A4.27,4.27,0,0,0,512.19,788Z" transform="translate(-10 -10)"/><path class="d" d="M517,807.92a3.76,3.76,0,1,0-2.66,4.61A3.75,3.75,0,0,0,517,807.92Z" transform="translate(-10 -10)"/><path class="d" d="M521.82,827.85a3.25,3.25,0,1,0-2.3,4A3.25,3.25,0,0,0,521.82,827.85Z" transform="translate(-10 -10)"/><path class="d" d="M523.27,845.85a2.74,2.74,0,1,0,3.36,1.94A2.74,2.74,0,0,0,523.27,845.85Z" transform="translate(-10 -10)"/><path class="d" d="M528.71,866.15a2.23,2.23,0,1,0,2.73,1.57A2.23,2.23,0,0,0,528.71,866.15Z" transform="translate(-10 -10)"/><path class="d" d="M534.15,886.44a1.72,1.72,0,1,0,.89,3.32,1.72,1.72,0,0,0-.89-3.32Z" transform="translate(-10 -10)"/><path class="d" d="M498.45,699.61a6.32,6.32,0,1,0,8.09,3.77A6.32,6.32,0,0,0,498.45,699.61Z" transform="translate(-10 -10)"/><path class="d" d="M509.61,730.26a5.8,5.8,0,1,0-7.44-3.47A5.81,5.81,0,0,0,509.61,730.26Z" transform="translate(-10 -10)"/><path class="d" d="M516.44,749a5.29,5.29,0,1,0-6.78-3.16A5.28,5.28,0,0,0,516.44,749Z" transform="translate(-10 -10)"/><path class="d" d="M523.28,767.83a4.78,4.78,0,1,0-6.13-2.86A4.79,4.79,0,0,0,523.28,767.83Z" transform="translate(-10 -10)"/><path class="d" d="M532.67,781.14a4.27,4.27,0,1,0-2.55,5.47A4.26,4.26,0,0,0,532.67,781.14Z" transform="translate(-10 -10)"/><path class="d" d="M539.2,800.58A3.76,3.76,0,1,0,537,805.4,3.76,3.76,0,0,0,539.2,800.58Z" transform="translate(-10 -10)"/><path class="d" d="M541.57,818.07a3.25,3.25,0,1,0,4.17,1.95A3.25,3.25,0,0,0,541.57,818.07Z" transform="translate(-10 -10)"/><path class="d" d="M548.75,837.82a2.74,2.74,0,1,0,3.52,1.63A2.73,2.73,0,0,0,548.75,837.82Z" transform="translate(-10 -10)"/><path class="d" d="M555.94,857.56a2.23,2.23,0,1,0,2.86,1.33A2.23,2.23,0,0,0,555.94,857.56Z" transform="translate(-10 -10)"/><path class="d" d="M563.13,877.3a1.72,1.72,0,1,0,2.2,1A1.72,1.72,0,0,0,563.13,877.3Z" transform="translate(-10 -10)"/><path class="d" d="M519.68,697.35a6.32,6.32,0,1,0-3.06,8.39A6.31,6.31,0,0,0,519.68,697.35Z" transform="translate(-10 -10)"/><path class="d" d="M525.07,723.86a5.8,5.8,0,1,0-7.71-2.81A5.82,5.82,0,0,0,525.07,723.86Z" transform="translate(-10 -10)"/><path class="d" d="M533.52,742a5.29,5.29,0,1,0-7-2.56A5.29,5.29,0,0,0,533.52,742Z" transform="translate(-10 -10)"/><path class="d" d="M542,760.09a4.78,4.78,0,1,0-6.36-2.31A4.79,4.79,0,0,0,542,760.09Z" transform="translate(-10 -10)"/><path class="d" d="M546.8,770.46a4.27,4.27,0,1,0,5.68,2.07A4.28,4.28,0,0,0,546.8,770.46Z" transform="translate(-10 -10)"/><path class="d" d="M555.68,789.51a3.76,3.76,0,1,0,5,1.82A3.76,3.76,0,0,0,555.68,789.51Z" transform="translate(-10 -10)"/><path class="d" d="M564.56,808.55a3.25,3.25,0,1,0,4.32,1.57A3.25,3.25,0,0,0,564.56,808.55Z" transform="translate(-10 -10)"/><path class="d" d="M573.44,827.59a2.74,2.74,0,1,0,3.64,1.33A2.74,2.74,0,0,0,573.44,827.59Z" transform="translate(-10 -10)"/><path class="d" d="M582.32,846.63a2.23,2.23,0,1,0,3,1.08A2.23,2.23,0,0,0,582.32,846.63Z" transform="translate(-10 -10)"/><path class="d" d="M591.2,865.67a1.72,1.72,0,1,0,2.29.84A1.73,1.73,0,0,0,591.2,865.67Z" transform="translate(-10 -10)"/><path class="d" d="M532.23,690.19a6.32,6.32,0,1,0-2.31,8.63A6.31,6.31,0,0,0,532.23,690.19Z" transform="translate(-10 -10)"/><path class="d" d="M539.91,716.13A5.8,5.8,0,1,0,532,714,5.8,5.8,0,0,0,539.91,716.13Z" transform="translate(-10 -10)"/><path class="d" d="M549.91,733.44a5.29,5.29,0,1,0-7.23-1.94A5.3,5.3,0,0,0,549.91,733.44Z" transform="translate(-10 -10)"/><path class="d" d="M559.9,750.75a4.78,4.78,0,1,0-6.53-1.75A4.78,4.78,0,0,0,559.9,750.75Z" transform="translate(-10 -10)"/><path class="d" d="M571.46,762.23a4.27,4.27,0,1,0-1.56,5.83A4.27,4.27,0,0,0,571.46,762.23Z" transform="translate(-10 -10)"/><path class="d" d="M581.27,780.24a3.76,3.76,0,1,0-1.38,5.14A3.76,3.76,0,0,0,581.27,780.24Z" transform="translate(-10 -10)"/><path class="d" d="M591.08,798.25a3.25,3.25,0,1,0-1.19,4.44A3.25,3.25,0,0,0,591.08,798.25Z" transform="translate(-10 -10)"/><path class="d" d="M597.14,815.25a2.74,2.74,0,1,0,3.75,1A2.75,2.75,0,0,0,597.14,815.25Z" transform="translate(-10 -10)"/><path class="d" d="M607.65,833.45a2.23,2.23,0,1,0,3,.81A2.23,2.23,0,0,0,607.65,833.45Z" transform="translate(-10 -10)"/><path class="d" d="M618.15,851.64a1.73,1.73,0,0,0-.63,2.35,1.72,1.72,0,1,0,.63-2.35Z" transform="translate(-10 -10)"/><path class="d" d="M544.11,682a6.31,6.31,0,1,0-1.55,8.79A6.31,6.31,0,0,0,544.11,682Z" transform="translate(-10 -10)"/><path class="d" d="M555.45,699.06a5.8,5.8,0,1,0-1.42,8.08A5.8,5.8,0,0,0,555.45,699.06Z" transform="translate(-10 -10)"/><path class="d" d="M559.42,714.84a5.29,5.29,0,1,0,7.37,1.3A5.3,5.3,0,0,0,559.42,714.84Z" transform="translate(-10 -10)"/><path class="d" d="M577,739.89a4.79,4.79,0,1,0-6.66-1.18A4.78,4.78,0,0,0,577,739.89Z" transform="translate(-10 -10)"/><path class="d" d="M588.42,756.26a4.27,4.27,0,1,0-5.94-1A4.26,4.26,0,0,0,588.42,756.26Z" transform="translate(-10 -10)"/><path class="d" d="M595.58,766.47a3.76,3.76,0,1,0,5.23.93A3.76,3.76,0,0,0,595.58,766.47Z" transform="translate(-10 -10)"/><path class="d" d="M607.63,783.69a3.25,3.25,0,1,0,4.52.79A3.24,3.24,0,0,0,607.63,783.69Z" transform="translate(-10 -10)"/><path class="d" d="M619.68,800.9a2.74,2.74,0,1,0,3.81.67A2.74,2.74,0,0,0,619.68,800.9Z" transform="translate(-10 -10)"/><path class="d" d="M631.73,818.11a2.23,2.23,0,1,0,3.1.54A2.22,2.22,0,0,0,631.73,818.11Z" transform="translate(-10 -10)"/><path class="d" d="M643.78,835.32a1.72,1.72,0,1,0,2.39.42A1.71,1.71,0,0,0,643.78,835.32Z" transform="translate(-10 -10)"/><path class="d" d="M555.23,672.74a6.31,6.31,0,1,0-.77,8.9A6.31,6.31,0,0,0,555.23,672.74Z" transform="translate(-10 -10)"/><path class="d" d="M568,688.77a5.8,5.8,0,1,0-.72,8.18A5.81,5.81,0,0,0,568,688.77Z" transform="translate(-10 -10)"/><path class="d" d="M580.81,704.81a5.29,5.29,0,1,0-.66,7.45A5.31,5.31,0,0,0,580.81,704.81Z" transform="translate(-10 -10)"/><path class="d" d="M593.59,720.84a4.78,4.78,0,1,0-.59,6.74A4.79,4.79,0,0,0,593.59,720.84Z" transform="translate(-10 -10)"/><path class="d" d="M606.38,736.87a4.27,4.27,0,1,0-.53,6A4.27,4.27,0,0,0,606.38,736.87Z" transform="translate(-10 -10)"/><path class="d" d="M619.16,752.9a3.76,3.76,0,1,0-.46,5.3A3.76,3.76,0,0,0,619.16,752.9Z" transform="translate(-10 -10)"/><path class="d" d="M632,768.94a3.25,3.25,0,1,0-.4,4.57A3.24,3.24,0,0,0,632,768.94Z" transform="translate(-10 -10)"/><path class="d" d="M644.74,785a2.74,2.74,0,1,0-.34,3.86A2.74,2.74,0,0,0,644.74,785Z" transform="translate(-10 -10)"/><path class="d" d="M654.38,800.72a2.23,2.23,0,1,0,3.14.28A2.24,2.24,0,0,0,654.38,800.72Z" transform="translate(-10 -10)"/><path class="d" d="M667.89,816.82a1.72,1.72,0,1,0,2.42.21A1.72,1.72,0,0,0,667.89,816.82Z" transform="translate(-10 -10)"/><path class="d" d="M565.51,671.51a6.31,6.31,0,1,0-8.93,0A6.33,6.33,0,0,0,565.51,671.51Z" transform="translate(-10 -10)"/><path class="d" d="M571.44,677.44a5.8,5.8,0,1,0,8.2,0A5.8,5.8,0,0,0,571.44,677.44Z" transform="translate(-10 -10)"/><path class="d" d="M593.78,692.29a5.3,5.3,0,1,0,0,7.49A5.31,5.31,0,0,0,593.78,692.29Z" transform="translate(-10 -10)"/><path class="d" d="M607.91,713.91a4.78,4.78,0,1,0-6.76,0A4.77,4.77,0,0,0,607.91,713.91Z" transform="translate(-10 -10)"/><path class="d" d="M622.05,728.05a4.27,4.27,0,1,0-6,0A4.29,4.29,0,0,0,622.05,728.05Z" transform="translate(-10 -10)"/><path class="d" d="M630.86,736.87a3.76,3.76,0,1,0,5.32,0A3.75,3.75,0,0,0,630.86,736.87Z" transform="translate(-10 -10)"/><path class="d" d="M645.72,751.72a3.25,3.25,0,1,0,4.6,0A3.25,3.25,0,0,0,645.72,751.72Z" transform="translate(-10 -10)"/><path class="d" d="M660.58,766.58a2.74,2.74,0,1,0,3.87,0A2.73,2.73,0,0,0,660.58,766.58Z" transform="translate(-10 -10)"/><path class="d" d="M675.43,781.43a2.23,2.23,0,1,0,3.16,0A2.24,2.24,0,0,0,675.43,781.43Z" transform="translate(-10 -10)"/><path class="d" d="M690.29,796.29a1.72,1.72,0,0,0,0,2.43,1.7,1.7,0,0,0,2.43,0,1.72,1.72,0,0,0-2.43-2.43Z" transform="translate(-10 -10)"/><path class="d" d="M575.64,660.46a6.32,6.32,0,1,0-8.9.78A6.32,6.32,0,0,0,575.64,660.46Z" transform="translate(-10 -10)"/><path class="d" d="M582.77,674a5.8,5.8,0,1,0-.71-8.17A5.81,5.81,0,0,0,582.77,674Z" transform="translate(-10 -10)"/><path class="d" d="M598.8,686.81a5.3,5.3,0,1,0-.65-7.46A5.3,5.3,0,0,0,598.8,686.81Z" transform="translate(-10 -10)"/><path class="d" d="M614.84,699.59a4.78,4.78,0,1,0-.59-6.73A4.76,4.76,0,0,0,614.84,699.59Z" transform="translate(-10 -10)"/><path class="d" d="M636.36,705.84a4.27,4.27,0,1,0,.53,6A4.27,4.27,0,0,0,636.36,705.84Z" transform="translate(-10 -10)"/><path class="d" d="M651.74,719.4a3.77,3.77,0,1,0,.46,5.3A3.77,3.77,0,0,0,651.74,719.4Z" transform="translate(-10 -10)"/><path class="d" d="M662.53,733.37a3.25,3.25,0,1,0,4.58-.4A3.26,3.26,0,0,0,662.53,733.37Z" transform="translate(-10 -10)"/><path class="d" d="M682.49,746.54a2.74,2.74,0,1,0,.34,3.86A2.74,2.74,0,0,0,682.49,746.54Z" transform="translate(-10 -10)"/><path class="d" d="M697.86,760.11a2.23,2.23,0,1,0,.28,3.14A2.23,2.23,0,0,0,697.86,760.11Z" transform="translate(-10 -10)"/><path class="d" d="M713.24,773.68a1.72,1.72,0,1,0,.21,2.42A1.71,1.71,0,0,0,713.24,773.68Z" transform="translate(-10 -10)"/><path class="d" d="M584.76,648.56a6.31,6.31,0,1,0-8.79,1.55A6.31,6.31,0,0,0,584.76,648.56Z" transform="translate(-10 -10)"/><path class="d" d="M601.13,660a5.8,5.8,0,1,0-8.08,1.42A5.79,5.79,0,0,0,601.13,660Z" transform="translate(-10 -10)"/><path class="d" d="M610.14,672.79a5.29,5.29,0,1,0-1.3-7.37A5.29,5.29,0,0,0,610.14,672.79Z" transform="translate(-10 -10)"/><path class="d" d="M627.22,684.14a4.79,4.79,0,1,0-1.17-6.66A4.79,4.79,0,0,0,627.22,684.14Z" transform="translate(-10 -10)"/><path class="d" d="M643.26,689.53a4.27,4.27,0,1,0,6-1A4.28,4.28,0,0,0,643.26,689.53Z" transform="translate(-10 -10)"/><path class="d" d="M665.71,700.65a3.76,3.76,0,1,0,.92,5.24A3.77,3.77,0,0,0,665.71,700.65Z" transform="translate(-10 -10)"/><path class="d" d="M682.21,712.83a3.25,3.25,0,1,0,.8,4.53A3.25,3.25,0,0,0,682.21,712.83Z" transform="translate(-10 -10)"/><path class="d" d="M698.71,725a2.74,2.74,0,1,0,.67,3.81A2.74,2.74,0,0,0,698.71,725Z" transform="translate(-10 -10)"/><path class="d" d="M715.21,737.18a2.23,2.23,0,1,0,.55,3.11A2.23,2.23,0,0,0,715.21,737.18Z" transform="translate(-10 -10)"/><path class="d" d="M731.71,749.36a1.72,1.72,0,1,0,.42,2.39A1.71,1.71,0,0,0,731.71,749.36Z" transform="translate(-10 -10)"/><path class="d" d="M592.82,635.92a6.31,6.31,0,1,0-8.63,2.31A6.32,6.32,0,0,0,592.82,635.92Z" transform="translate(-10 -10)"/><path class="d" d="M602.2,648a5.8,5.8,0,1,0-2.12-7.93A5.81,5.81,0,0,0,602.2,648Z" transform="translate(-10 -10)"/><path class="d" d="M627.44,655.91a5.29,5.29,0,1,0-7.23,1.94A5.3,5.3,0,0,0,627.44,655.91Z" transform="translate(-10 -10)"/><path class="d" d="M644.75,665.91a4.78,4.78,0,1,0-6.53,1.75A4.79,4.79,0,0,0,644.75,665.91Z" transform="translate(-10 -10)"/><path class="d" d="M662.06,675.9a4.27,4.27,0,1,0-5.83,1.56A4.27,4.27,0,0,0,662.06,675.9Z" transform="translate(-10 -10)"/><path class="d" d="M679.37,685.89a3.76,3.76,0,1,0-5.13,1.38A3.75,3.75,0,0,0,679.37,685.89Z" transform="translate(-10 -10)"/><path class="d" d="M696.68,695.89a3.25,3.25,0,1,0-4.44,1.19A3.25,3.25,0,0,0,696.68,695.89Z" transform="translate(-10 -10)"/><path class="d" d="M714,705.89a2.74,2.74,0,1,0-3.75,1A2.75,2.75,0,0,0,714,705.89Z" transform="translate(-10 -10)"/><path class="d" d="M731.31,715.88a2.23,2.23,0,1,0-3,.82A2.23,2.23,0,0,0,731.31,715.88Z" transform="translate(-10 -10)"/><path class="d" d="M748,723.53a1.72,1.72,0,1,0,.63,2.34A1.72,1.72,0,0,0,748,723.53Z" transform="translate(-10 -10)"/><path class="d" d="M599.74,622.62a6.31,6.31,0,1,0-8.39,3.06A6.32,6.32,0,0,0,599.74,622.62Z" transform="translate(-10 -10)"/><path class="d" d="M617.85,631.07a5.8,5.8,0,1,0-7.71,2.81A5.8,5.8,0,0,0,617.85,631.07Z" transform="translate(-10 -10)"/><path class="d" d="M636,639.52a5.29,5.29,0,1,0-7,2.56A5.28,5.28,0,0,0,636,639.52Z" transform="translate(-10 -10)"/><path class="d" d="M651.78,641.61a4.78,4.78,0,1,0,2.31,6.36A4.79,4.79,0,0,0,651.78,641.61Z" transform="translate(-10 -10)"/><path class="d" d="M670.14,650.74a4.27,4.27,0,1,0,2.07,5.68A4.27,4.27,0,0,0,670.14,650.74Z" transform="translate(-10 -10)"/><path class="d" d="M688.5,659.87a3.76,3.76,0,1,0,1.82,5A3.75,3.75,0,0,0,688.5,659.87Z" transform="translate(-10 -10)"/><path class="d" d="M706.87,669a3.25,3.25,0,1,0,1.57,4.32A3.25,3.25,0,0,0,706.87,669Z" transform="translate(-10 -10)"/><path class="d" d="M725.23,678.12a2.74,2.74,0,1,0,1.33,3.64A2.74,2.74,0,0,0,725.23,678.12Z" transform="translate(-10 -10)"/><path class="d" d="M743.59,687.25a2.23,2.23,0,1,0,1.08,3A2.22,2.22,0,0,0,743.59,687.25Z" transform="translate(-10 -10)"/><path class="d" d="M762,696.37a1.72,1.72,0,1,0,.83,2.29A1.73,1.73,0,0,0,762,696.37Z" transform="translate(-10 -10)"/><path class="d" d="M593.61,604.46a6.31,6.31,0,1,0,8.09-3.78A6.32,6.32,0,0,0,593.61,604.46Z" transform="translate(-10 -10)"/><path class="d" d="M624.26,615.61a5.8,5.8,0,1,0-7.44,3.47A5.81,5.81,0,0,0,624.26,615.61Z" transform="translate(-10 -10)"/><path class="d" d="M643,622.45a5.29,5.29,0,1,0-6.78,3.16A5.29,5.29,0,0,0,643,622.45Z" transform="translate(-10 -10)"/><path class="d" d="M655.7,632.14a4.78,4.78,0,1,0-2.86-6.13A4.77,4.77,0,0,0,655.7,632.14Z" transform="translate(-10 -10)"/><path class="d" d="M675.14,638.67a4.27,4.27,0,1,0-2.56-5.47A4.26,4.26,0,0,0,675.14,638.67Z" transform="translate(-10 -10)"/><path class="d" d="M694.58,645.21a3.76,3.76,0,1,0-2.25-4.82A3.76,3.76,0,0,0,694.58,645.21Z" transform="translate(-10 -10)"/><path class="d" d="M716.24,645.63a3.25,3.25,0,1,0,1.94,4.16A3.26,3.26,0,0,0,716.24,645.63Z" transform="translate(-10 -10)"/><path class="d" d="M735.33,653.12a2.74,2.74,0,1,0,1.63,3.51A2.75,2.75,0,0,0,735.33,653.12Z" transform="translate(-10 -10)"/><path class="d" d="M754.42,660.61a2.23,2.23,0,1,0,1.33,2.86A2.24,2.24,0,0,0,754.42,660.61Z" transform="translate(-10 -10)"/><path class="d" d="M773.5,668.1a1.72,1.72,0,1,0,1,2.21A1.73,1.73,0,0,0,773.5,668.1Z" transform="translate(-10 -10)"/><path class="d" d="M597.79,591.21a6.31,6.31,0,1,0,7.73-4.47A6.3,6.3,0,0,0,597.79,591.21Z" transform="translate(-10 -10)"/><path class="d" d="M629.29,599.65a5.8,5.8,0,1,0-7.11,4.1A5.81,5.81,0,0,0,629.29,599.65Z" transform="translate(-10 -10)"/><path class="d" d="M648.6,604.82a5.29,5.29,0,1,0-6.48,3.75A5.29,5.29,0,0,0,648.6,604.82Z" transform="translate(-10 -10)"/><path class="d" d="M667.91,610a4.78,4.78,0,1,0-5.86,3.38A4.79,4.79,0,0,0,667.91,610Z" transform="translate(-10 -10)"/><path class="d" d="M687.22,615.17a4.27,4.27,0,1,0-5.23,3A4.28,4.28,0,0,0,687.22,615.17Z" transform="translate(-10 -10)"/><path class="d" d="M706.53,620.35a3.76,3.76,0,1,0-4.61,2.66A3.78,3.78,0,0,0,706.53,620.35Z" transform="translate(-10 -10)"/><path class="d" d="M725.83,625.52a3.25,3.25,0,1,0-4,2.3A3.24,3.24,0,0,0,725.83,625.52Z" transform="translate(-10 -10)"/><path class="d" d="M743.2,627.34a2.74,2.74,0,1,0,1.94,3.35A2.72,2.72,0,0,0,743.2,627.34Z" transform="translate(-10 -10)"/><path class="d" d="M762.87,633.14a2.23,2.23,0,1,0,1.58,2.73A2.23,2.23,0,0,0,762.87,633.14Z" transform="translate(-10 -10)"/><path class="d" d="M782.54,638.93a1.72,1.72,0,1,0,1.22,2.11A1.72,1.72,0,0,0,782.54,638.93Z" transform="translate(-10 -10)"/><path class="d" d="M605.91,585a6.31,6.31,0,1,0-5.12-7.31A6.32,6.32,0,0,0,605.91,585Z" transform="translate(-10 -10)"/><path class="d" d="M632.91,583.31a5.8,5.8,0,1,0-6.72,4.71A5.8,5.8,0,0,0,632.91,583.31Z" transform="translate(-10 -10)"/><path class="d" d="M652.6,586.78a5.29,5.29,0,1,0-6.13,4.3A5.3,5.3,0,0,0,652.6,586.78Z" transform="translate(-10 -10)"/><path class="d" d="M672.29,590.25a4.78,4.78,0,1,0-5.54,3.88A4.79,4.79,0,0,0,672.29,590.25Z" transform="translate(-10 -10)"/><path class="d" d="M692,593.73a4.27,4.27,0,1,0-5,3.46A4.27,4.27,0,0,0,692,593.73Z" transform="translate(-10 -10)"/><path class="d" d="M708.61,592.84a3.76,3.76,0,1,0,3,4.36A3.77,3.77,0,0,0,708.61,592.84Z" transform="translate(-10 -10)"/><path class="d" d="M727.58,603.31a3.25,3.25,0,1,0-2.64-3.77A3.25,3.25,0,0,0,727.58,603.31Z" transform="translate(-10 -10)"/><path class="d" d="M748.81,601a2.74,2.74,0,1,0,2.22,3.18A2.75,2.75,0,0,0,748.81,601Z" transform="translate(-10 -10)"/><path class="d" d="M768.91,605a2.23,2.23,0,1,0,1.81,2.58A2.23,2.23,0,0,0,768.91,605Z" transform="translate(-10 -10)"/><path class="d" d="M789,609.09a1.72,1.72,0,1,0,1.39,2A1.71,1.71,0,0,0,789,609.09Z" transform="translate(-10 -10)"/><path class="d" d="M608.34,570.72a6.31,6.31,0,1,0-5.73-6.84A6.33,6.33,0,0,0,608.34,570.72Z" transform="translate(-10 -10)"/><path class="d" d="M635.1,566.72a5.8,5.8,0,1,0-6.29,5.28A5.81,5.81,0,0,0,635.1,566.72Z" transform="translate(-10 -10)"/><path class="d" d="M649.28,573.27a5.29,5.29,0,1,0-4.81-5.73A5.28,5.28,0,0,0,649.28,573.27Z" transform="translate(-10 -10)"/><path class="d" d="M669.74,574.55a4.78,4.78,0,1,0-4.34-5.18A4.77,4.77,0,0,0,669.74,574.55Z" transform="translate(-10 -10)"/><path class="d" d="M694.84,572a4.27,4.27,0,1,0-4.63,3.88A4.28,4.28,0,0,0,694.84,572Z" transform="translate(-10 -10)"/><path class="d" d="M714.75,573.69a3.76,3.76,0,1,0-4.07,3.42A3.77,3.77,0,0,0,714.75,573.69Z" transform="translate(-10 -10)"/><path class="d" d="M734.67,575.43a3.25,3.25,0,1,0-3.53,3A3.26,3.26,0,0,0,734.67,575.43Z" transform="translate(-10 -10)"/><path class="d" d="M749.12,576.7a2.74,2.74,0,1,0,3-2.5A2.75,2.75,0,0,0,749.12,576.7Z" transform="translate(-10 -10)"/><path class="d" d="M772.08,580.94a2.23,2.23,0,1,0-2-2.41A2.22,2.22,0,0,0,772.08,580.94Z" transform="translate(-10 -10)"/><path class="d" d="M792.84,578.8a1.72,1.72,0,1,0,1.57,1.86A1.71,1.71,0,0,0,792.84,578.8Z" transform="translate(-10 -10)"/><path class="d" d="M609.52,543.69a6.32,6.32,0,1,0,6.32,6.31A6.32,6.32,0,0,0,609.52,543.69Z" transform="translate(-10 -10)"/><path class="d" d="M630,544.2a5.81,5.81,0,1,0,5.81,5.8A5.8,5.8,0,0,0,630,544.2Z" transform="translate(-10 -10)"/><path class="d" d="M650.52,544.71a5.29,5.29,0,1,0,5.3,5.29A5.29,5.29,0,0,0,650.52,544.71Z" transform="translate(-10 -10)"/><path class="d" d="M671,545.22a4.78,4.78,0,1,0,4.79,4.78A4.78,4.78,0,0,0,671,545.22Z" transform="translate(-10 -10)"/><path class="d" d="M687.25,550a4.28,4.28,0,1,0,4.28-4.27A4.28,4.28,0,0,0,687.25,550Z" transform="translate(-10 -10)"/><path class="d" d="M712,546.24a3.76,3.76,0,1,0,3.76,3.76A3.76,3.76,0,0,0,712,546.24Z" transform="translate(-10 -10)"/><path class="d" d="M735.78,550a3.25,3.25,0,1,0-3.25,3.25A3.26,3.26,0,0,0,735.78,550Z" transform="translate(-10 -10)"/><path class="d" d="M755.77,550a2.75,2.75,0,1,0-2.74,2.74A2.74,2.74,0,0,0,755.77,550Z" transform="translate(-10 -10)"/><path class="d" d="M773.53,547.77a2.23,2.23,0,1,0,2.23,2.23A2.23,2.23,0,0,0,773.53,547.77Z" transform="translate(-10 -10)"/><path class="d" d="M794,548.28a1.72,1.72,0,1,0,1.72,1.72A1.72,1.72,0,0,0,794,548.28Z" transform="translate(-10 -10)"/><path class="d" d="M609.44,541.87a6.31,6.31,0,1,0-6.83-5.74A6.33,6.33,0,0,0,609.44,541.87Z" transform="translate(-10 -10)"/><path class="d" d="M628.81,528a5.8,5.8,0,1,0,6.29,5.27A5.8,5.8,0,0,0,628.81,528Z" transform="translate(-10 -10)"/><path class="d" d="M650.2,537.27a5.29,5.29,0,1,0-5.73-4.81A5.28,5.28,0,0,0,650.2,537.27Z" transform="translate(-10 -10)"/><path class="d" d="M670.58,535a4.78,4.78,0,1,0-5.18-4.35A4.77,4.77,0,0,0,670.58,535Z" transform="translate(-10 -10)"/><path class="d" d="M690.21,524.17a4.27,4.27,0,1,0,4.63,3.89A4.27,4.27,0,0,0,690.21,524.17Z" transform="translate(-10 -10)"/><path class="d" d="M710.68,522.89a3.76,3.76,0,1,0,4.07,3.42A3.77,3.77,0,0,0,710.68,522.89Z" transform="translate(-10 -10)"/><path class="d" d="M731.14,521.62a3.25,3.25,0,1,0,3.53,3A3.24,3.24,0,0,0,731.14,521.62Z" transform="translate(-10 -10)"/><path class="d" d="M751.61,520.34a2.74,2.74,0,1,0,3,2.49A2.74,2.74,0,0,0,751.61,520.34Z" transform="translate(-10 -10)"/><path class="d" d="M772.47,523.5a2.23,2.23,0,1,0-2.42-2A2.22,2.22,0,0,0,772.47,523.5Z" transform="translate(-10 -10)"/><path class="d" d="M792.84,521.21a1.72,1.72,0,1,0-1.86-1.56A1.73,1.73,0,0,0,792.84,521.21Z" transform="translate(-10 -10)"/><path class="d" d="M608.11,527.48a6.32,6.32,0,1,0-7.32-5.12A6.32,6.32,0,0,0,608.11,527.48Z" transform="translate(-10 -10)"/><path class="d" d="M626.19,512a5.8,5.8,0,1,0,6.72,4.71A5.81,5.81,0,0,0,626.19,512Z" transform="translate(-10 -10)"/><path class="d" d="M646.47,508.93a5.29,5.29,0,1,0,6.13,4.29A5.28,5.28,0,0,0,646.47,508.93Z" transform="translate(-10 -10)"/><path class="d" d="M666.75,505.87a4.78,4.78,0,1,0,5.54,3.88A4.78,4.78,0,0,0,666.75,505.87Z" transform="translate(-10 -10)"/><path class="d" d="M687,502.81a4.28,4.28,0,1,0,5,3.47A4.27,4.27,0,0,0,687,502.81Z" transform="translate(-10 -10)"/><path class="d" d="M707.3,499.76a3.76,3.76,0,1,0,4.36,3.05A3.75,3.75,0,0,0,707.3,499.76Z" transform="translate(-10 -10)"/><path class="d" d="M728.71,503.1a3.25,3.25,0,1,0-3.77-2.64A3.24,3.24,0,0,0,728.71,503.1Z" transform="translate(-10 -10)"/><path class="d" d="M747.85,493.64a2.74,2.74,0,1,0,3.18,2.22A2.74,2.74,0,0,0,747.85,493.64Z" transform="translate(-10 -10)"/><path class="d" d="M768.91,495a2.23,2.23,0,1,0-2.59-1.81A2.24,2.24,0,0,0,768.91,495Z" transform="translate(-10 -10)"/><path class="d" d="M788.41,487.53a1.72,1.72,0,1,0,2,1.39A1.71,1.71,0,0,0,788.41,487.53Z" transform="translate(-10 -10)"/><path class="d" d="M605.52,513.26a6.32,6.32,0,1,0-7.73-4.47A6.31,6.31,0,0,0,605.52,513.26Z" transform="translate(-10 -10)"/><path class="d" d="M622.18,496.25a5.8,5.8,0,1,0,7.11,4.1A5.81,5.81,0,0,0,622.18,496.25Z" transform="translate(-10 -10)"/><path class="d" d="M642.12,491.44a5.29,5.29,0,1,0,6.48,3.74A5.28,5.28,0,0,0,642.12,491.44Z" transform="translate(-10 -10)"/><path class="d" d="M658.67,492.48a4.78,4.78,0,1,0,3.38-5.86A4.78,4.78,0,0,0,658.67,492.48Z" transform="translate(-10 -10)"/><path class="d" d="M682,481.81a4.27,4.27,0,1,0,5.23,3A4.26,4.26,0,0,0,682,481.81Z" transform="translate(-10 -10)"/><path class="d" d="M699.26,481.6a3.76,3.76,0,1,0,2.66-4.6A3.77,3.77,0,0,0,699.26,481.6Z" transform="translate(-10 -10)"/><path class="d" d="M723.54,478.47a3.25,3.25,0,1,0-4-2.3A3.25,3.25,0,0,0,723.54,478.47Z" transform="translate(-10 -10)"/><path class="d" d="M741.79,467.37a2.74,2.74,0,1,0,3.35,1.94A2.74,2.74,0,0,0,741.79,467.37Z" transform="translate(-10 -10)"/><path class="d" d="M761.72,462.56a2.23,2.23,0,1,0,2.73,1.58A2.23,2.23,0,0,0,761.72,462.56Z" transform="translate(-10 -10)"/><path class="d" d="M781.65,457.75a1.72,1.72,0,1,0,2.11,1.21A1.71,1.71,0,0,0,781.65,457.75Z" transform="translate(-10 -10)"/><path class="d" d="M601.7,499.32a6.31,6.31,0,1,0-8.09-3.77A6.31,6.31,0,0,0,601.7,499.32Z" transform="translate(-10 -10)"/><path class="d" d="M616.82,480.93a5.8,5.8,0,1,0,7.44,3.46A5.8,5.8,0,0,0,616.82,480.93Z" transform="translate(-10 -10)"/><path class="d" d="M636.26,474.39a5.29,5.29,0,1,0,6.78,3.17A5.29,5.29,0,0,0,636.26,474.39Z" transform="translate(-10 -10)"/><path class="d" d="M655.7,467.86a4.78,4.78,0,1,0,6.13,2.86A4.79,4.79,0,0,0,655.7,467.86Z" transform="translate(-10 -10)"/><path class="d" d="M675.14,461.33a4.27,4.27,0,1,0,5.47,2.55A4.28,4.28,0,0,0,675.14,461.33Z" transform="translate(-10 -10)"/><path class="d" d="M699.4,457a3.76,3.76,0,1,0-2.25,4.83A3.76,3.76,0,0,0,699.4,457Z" transform="translate(-10 -10)"/><path class="d" d="M714,448.27a3.25,3.25,0,1,0,4.17,1.94A3.25,3.25,0,0,0,714,448.27Z" transform="translate(-10 -10)"/><path class="d" d="M733.45,441.73a2.74,2.74,0,1,0,3.52,1.64A2.76,2.76,0,0,0,733.45,441.73Z" transform="translate(-10 -10)"/><path class="d" d="M752.89,435.2a2.23,2.23,0,1,0,2.86,1.33A2.23,2.23,0,0,0,752.89,435.2Z" transform="translate(-10 -10)"/><path class="d" d="M773.51,431.9a1.72,1.72,0,1,0-2.21-1A1.71,1.71,0,0,0,773.51,431.9Z" transform="translate(-10 -10)"/><path class="d" d="M596.68,485.77a6.31,6.31,0,1,0-8.39-3A6.32,6.32,0,0,0,596.68,485.77Z" transform="translate(-10 -10)"/><path class="d" d="M610.14,466.13a5.8,5.8,0,1,0,7.71,2.8A5.79,5.79,0,0,0,610.14,466.13Z" transform="translate(-10 -10)"/><path class="d" d="M628.94,457.92a5.29,5.29,0,1,0,7,2.57A5.3,5.3,0,0,0,628.94,457.92Z" transform="translate(-10 -10)"/><path class="d" d="M647.73,449.72a4.78,4.78,0,1,0,6.36,2.32A4.79,4.79,0,0,0,647.73,449.72Z" transform="translate(-10 -10)"/><path class="d" d="M666.53,441.52a4.27,4.27,0,1,0,5.68,2.07A4.28,4.28,0,0,0,666.53,441.52Z" transform="translate(-10 -10)"/><path class="d" d="M683.51,438.32a3.76,3.76,0,1,0,1.81-5A3.75,3.75,0,0,0,683.51,438.32Z" transform="translate(-10 -10)"/><path class="d" d="M706.87,431a3.25,3.25,0,1,0-4.32-1.57A3.25,3.25,0,0,0,706.87,431Z" transform="translate(-10 -10)"/><path class="d" d="M725.23,421.89a2.74,2.74,0,1,0-3.64-1.33A2.75,2.75,0,0,0,725.23,421.89Z" transform="translate(-10 -10)"/><path class="d" d="M743.59,412.76a2.23,2.23,0,1,0-3-1.08A2.23,2.23,0,0,0,743.59,412.76Z" transform="translate(-10 -10)"/><path class="d" d="M762,403.63a1.72,1.72,0,1,0-2.29-.83A1.71,1.71,0,0,0,762,403.63Z" transform="translate(-10 -10)"/><path class="d" d="M590.5,472.71a6.31,6.31,0,1,0-8.62-2.31A6.33,6.33,0,0,0,590.5,472.71Z" transform="translate(-10 -10)"/><path class="d" d="M602.2,452a5.81,5.81,0,1,0,7.93,2.13A5.81,5.81,0,0,0,602.2,452Z" transform="translate(-10 -10)"/><path class="d" d="M620.21,442.16a5.29,5.29,0,1,0,7.23,1.93A5.29,5.29,0,0,0,620.21,442.16Z" transform="translate(-10 -10)"/><path class="d" d="M636.47,438.88a4.78,4.78,0,1,0,1.75-6.53A4.78,4.78,0,0,0,636.47,438.88Z" transform="translate(-10 -10)"/><path class="d" d="M654.66,428.37a4.27,4.27,0,1,0,1.57-5.83A4.27,4.27,0,0,0,654.66,428.37Z" transform="translate(-10 -10)"/><path class="d" d="M678,419.25a3.76,3.76,0,1,0-5.14-1.38A3.76,3.76,0,0,0,678,419.25Z" transform="translate(-10 -10)"/><path class="d" d="M691.06,407.36a3.25,3.25,0,1,0,1.19-4.44A3.24,3.24,0,0,0,691.06,407.36Z" transform="translate(-10 -10)"/><path class="d" d="M713,397.86a2.74,2.74,0,1,0-3.74-1A2.74,2.74,0,0,0,713,397.86Z" transform="translate(-10 -10)"/><path class="d" d="M730.49,387.17a2.23,2.23,0,1,0-3-.82A2.23,2.23,0,0,0,730.49,387.17Z" transform="translate(-10 -10)"/><path class="d" d="M748,376.48a1.72,1.72,0,1,0-2.35-.63A1.72,1.72,0,0,0,748,376.48Z" transform="translate(-10 -10)"/><path class="d" d="M574.42,458.68a6.31,6.31,0,1,0,1.55-8.79A6.31,6.31,0,0,0,574.42,458.68Z" transform="translate(-10 -10)"/><path class="d" d="M593.05,438.55a5.81,5.81,0,1,0,8.08,1.42A5.8,5.8,0,0,0,593.05,438.55Z" transform="translate(-10 -10)"/><path class="d" d="M610.14,427.21a5.29,5.29,0,1,0,7.37,1.3A5.29,5.29,0,0,0,610.14,427.21Z" transform="translate(-10 -10)"/><path class="d" d="M632.71,423.7a4.78,4.78,0,1,0-6.66-1.17A4.79,4.79,0,0,0,632.71,423.7Z" transform="translate(-10 -10)"/><path class="d" d="M650.26,405.58a4.27,4.27,0,1,0-1,5.95A4.27,4.27,0,0,0,650.26,405.58Z" transform="translate(-10 -10)"/><path class="d" d="M660.47,398.43a3.76,3.76,0,1,0,.93-5.24A3.77,3.77,0,0,0,660.47,398.43Z" transform="translate(-10 -10)"/><path class="d" d="M678.48,381.85a3.25,3.25,0,1,0,4.53.8A3.24,3.24,0,0,0,678.48,381.85Z" transform="translate(-10 -10)"/><path class="d" d="M695.57,370.51a2.74,2.74,0,1,0,3.81.67A2.74,2.74,0,0,0,695.57,370.51Z" transform="translate(-10 -10)"/><path class="d" d="M712.11,362.27a2.23,2.23,0,1,0,.54-3.1A2.22,2.22,0,0,0,712.11,362.27Z" transform="translate(-10 -10)"/><path class="d" d="M731.71,350.64a1.72,1.72,0,1,0-2.39-.42A1.71,1.71,0,0,0,731.71,350.64Z" transform="translate(-10 -10)"/><path class="d" d="M566,447.66a6.31,6.31,0,1,0,.78-8.89A6.32,6.32,0,0,0,566,447.66Z" transform="translate(-10 -10)"/><path class="d" d="M590.23,434.87a5.8,5.8,0,1,0-8.17-.71A5.79,5.79,0,0,0,590.23,434.87Z" transform="translate(-10 -10)"/><path class="d" d="M598.15,420.65a5.29,5.29,0,1,0,.66-7.45A5.31,5.31,0,0,0,598.15,420.65Z" transform="translate(-10 -10)"/><path class="d" d="M614.25,407.15a4.78,4.78,0,1,0,.59-6.74A4.8,4.8,0,0,0,614.25,407.15Z" transform="translate(-10 -10)"/><path class="d" d="M630.87,387.62a4.27,4.27,0,1,0,6,.53A4.28,4.28,0,0,0,630.87,387.62Z" transform="translate(-10 -10)"/><path class="d" d="M646.9,374.84a3.76,3.76,0,1,0,5.3.46A3.76,3.76,0,0,0,646.9,374.84Z" transform="translate(-10 -10)"/><path class="d" d="M667.11,367a3.25,3.25,0,1,0-4.58-.4A3.24,3.24,0,0,0,667.11,367Z" transform="translate(-10 -10)"/><path class="d" d="M678.63,353.13a2.74,2.74,0,1,0,.34-3.87A2.74,2.74,0,0,0,678.63,353.13Z" transform="translate(-10 -10)"/><path class="d" d="M697.86,339.89a2.23,2.23,0,1,0-3.14-.27A2.22,2.22,0,0,0,697.86,339.89Z" transform="translate(-10 -10)"/><path class="d" d="M713.24,326.33a1.72,1.72,0,1,0-2.42-.22A1.73,1.73,0,0,0,713.24,326.33Z" transform="translate(-10 -10)"/><path class="d" d="M556.58,437.42a6.31,6.31,0,1,0,0-8.93A6.31,6.31,0,0,0,556.58,437.42Z" transform="translate(-10 -10)"/><path class="d" d="M571.44,414.36a5.8,5.8,0,1,0,8.2,0A5.79,5.79,0,0,0,571.44,414.36Z" transform="translate(-10 -10)"/><path class="d" d="M586.29,400.22a5.3,5.3,0,1,0,7.49,0A5.31,5.31,0,0,0,586.29,400.22Z" transform="translate(-10 -10)"/><path class="d" d="M601.15,386.09a4.78,4.78,0,1,0,6.76,0A4.77,4.77,0,0,0,601.15,386.09Z" transform="translate(-10 -10)"/><path class="d" d="M616,372a4.27,4.27,0,1,0,6,0A4.27,4.27,0,0,0,616,372Z" transform="translate(-10 -10)"/><path class="d" d="M630.86,357.82a3.76,3.76,0,1,0,5.32,0A3.77,3.77,0,0,0,630.86,357.82Z" transform="translate(-10 -10)"/><path class="d" d="M645.72,348.28a3.25,3.25,0,1,0,0-4.6A3.25,3.25,0,0,0,645.72,348.28Z" transform="translate(-10 -10)"/><path class="d" d="M664.45,333.43a2.74,2.74,0,1,0-3.87,0A2.75,2.75,0,0,0,664.45,333.43Z" transform="translate(-10 -10)"/><path class="d" d="M678.59,318.57a2.23,2.23,0,1,0-3.16,0A2.24,2.24,0,0,0,678.59,318.57Z" transform="translate(-10 -10)"/><path class="d" d="M692.72,303.71a1.72,1.72,0,1,0-2.43,0A1.72,1.72,0,0,0,692.72,303.71Z" transform="translate(-10 -10)"/><path class="d" d="M554.46,418.37a6.31,6.31,0,1,0,.77,8.89A6.32,6.32,0,0,0,554.46,418.37Z" transform="translate(-10 -10)"/><path class="d" d="M567.3,403.05a5.8,5.8,0,1,0,.72,8.18A5.79,5.79,0,0,0,567.3,403.05Z" transform="translate(-10 -10)"/><path class="d" d="M580.15,387.74a5.29,5.29,0,1,0,.66,7.46A5.28,5.28,0,0,0,580.15,387.74Z" transform="translate(-10 -10)"/><path class="d" d="M593,372.43a4.78,4.78,0,1,0,.59,6.73A4.76,4.76,0,0,0,593,372.43Z" transform="translate(-10 -10)"/><path class="d" d="M599.84,357.64a4.27,4.27,0,1,0,6-.53A4.27,4.27,0,0,0,599.84,357.64Z" transform="translate(-10 -10)"/><path class="d" d="M613.87,347.56a3.76,3.76,0,1,0-.47-5.3A3.76,3.76,0,0,0,613.87,347.56Z" transform="translate(-10 -10)"/><path class="d" d="M627.37,331.47a3.25,3.25,0,1,0-.4-4.58A3.26,3.26,0,0,0,627.37,331.47Z" transform="translate(-10 -10)"/><path class="d" d="M640.88,315.37a2.74,2.74,0,1,0-.34-3.86A2.73,2.73,0,0,0,640.88,315.37Z" transform="translate(-10 -10)"/><path class="d" d="M654.38,299.28a2.23,2.23,0,1,0-.27-3.14A2.22,2.22,0,0,0,654.38,299.28Z" transform="translate(-10 -10)"/><path class="d" d="M667.89,283.18a1.72,1.72,0,1,0-.21-2.42A1.71,1.71,0,0,0,667.89,283.18Z" transform="translate(-10 -10)"/><path class="d" d="M535.32,419.58a6.31,6.31,0,1,0-1.55-8.79A6.31,6.31,0,0,0,535.32,419.58Z" transform="translate(-10 -10)"/><path class="d" d="M554,392.87a5.8,5.8,0,1,0,1.42,8.08A5.8,5.8,0,0,0,554,392.87Z" transform="translate(-10 -10)"/><path class="d" d="M565.49,376.49a5.29,5.29,0,1,0,1.3,7.37A5.29,5.29,0,0,0,565.49,376.49Z" transform="translate(-10 -10)"/><path class="d" d="M577,360.12a4.78,4.78,0,1,0,1.17,6.66A4.78,4.78,0,0,0,577,360.12Z" transform="translate(-10 -10)"/><path class="d" d="M588.43,343.74a4.27,4.27,0,1,0,1,5.95A4.28,4.28,0,0,0,588.43,343.74Z" transform="translate(-10 -10)"/><path class="d" d="M595.58,333.53a3.76,3.76,0,1,0-.93-5.24A3.77,3.77,0,0,0,595.58,333.53Z" transform="translate(-10 -10)"/><path class="d" d="M607.63,316.32a3.25,3.25,0,1,0-.8-4.53A3.26,3.26,0,0,0,607.63,316.32Z" transform="translate(-10 -10)"/><path class="d" d="M619,295.29a2.74,2.74,0,1,0,3.82-.67A2.75,2.75,0,0,0,619,295.29Z" transform="translate(-10 -10)"/><path class="d" d="M631.73,281.9a2.23,2.23,0,1,0-.55-3.11A2.24,2.24,0,0,0,631.73,281.9Z" transform="translate(-10 -10)"/><path class="d" d="M643.78,264.69a1.72,1.72,0,1,0,2-2.82,1.72,1.72,0,0,0-2,2.82Z" transform="translate(-10 -10)"/><path class="d" d="M523.61,412.12a6.31,6.31,0,1,0-2.32-8.62A6.31,6.31,0,0,0,523.61,412.12Z" transform="translate(-10 -10)"/><path class="d" d="M542,391.8a5.8,5.8,0,1,0-7.93,2.12A5.8,5.8,0,0,0,542,391.8Z" transform="translate(-10 -10)"/><path class="d" d="M549.91,366.56a5.29,5.29,0,1,0,1.94,7.23A5.3,5.3,0,0,0,549.91,366.56Z" transform="translate(-10 -10)"/><path class="d" d="M555.12,357.53a4.78,4.78,0,1,0-1.75-6.53A4.78,4.78,0,0,0,555.12,357.53Z" transform="translate(-10 -10)"/><path class="d" d="M564.06,333.5a4.27,4.27,0,1,0,5.84-1.56A4.27,4.27,0,0,0,564.06,333.5Z" transform="translate(-10 -10)"/><path class="d" d="M574.76,316a3.76,3.76,0,1,0,5.13-1.37A3.76,3.76,0,0,0,574.76,316Z" transform="translate(-10 -10)"/><path class="d" d="M586.64,303a3.25,3.25,0,1,0-1.19-4.44A3.26,3.26,0,0,0,586.64,303Z" transform="translate(-10 -10)"/><path class="d" d="M597.14,284.75a2.74,2.74,0,1,0-1-3.74A2.75,2.75,0,0,0,597.14,284.75Z" transform="translate(-10 -10)"/><path class="d" d="M607.65,266.55a2.23,2.23,0,0,0,2.23-3.86,2.23,2.23,0,1,0-2.23,3.86Z" transform="translate(-10 -10)"/><path class="d" d="M618.15,248.36a1.72,1.72,0,1,0-.63-2.35A1.72,1.72,0,0,0,618.15,248.36Z" transform="translate(-10 -10)"/><path class="d" d="M516.62,394.26a6.31,6.31,0,1,0,3.06,8.39A6.32,6.32,0,0,0,516.62,394.26Z" transform="translate(-10 -10)"/><path class="d" d="M527.88,383.86a5.8,5.8,0,1,0-7.71,2.8A5.8,5.8,0,0,0,527.88,383.86Z" transform="translate(-10 -10)"/><path class="d" d="M533.52,358a5.29,5.29,0,1,0,2.56,7A5.3,5.3,0,0,0,533.52,358Z" transform="translate(-10 -10)"/><path class="d" d="M542,339.91a4.78,4.78,0,1,0,2.31,6.36A4.79,4.79,0,0,0,542,339.91Z" transform="translate(-10 -10)"/><path class="d" d="M550.41,321.8a4.27,4.27,0,1,0,2.07,5.67A4.26,4.26,0,0,0,550.41,321.8Z" transform="translate(-10 -10)"/><path class="d" d="M555.68,310.5a3.76,3.76,0,1,0-1.82-5A3.77,3.77,0,0,0,555.68,310.5Z" transform="translate(-10 -10)"/><path class="d" d="M563,287.13a3.25,3.25,0,1,0,4.32-1.57A3.25,3.25,0,0,0,563,287.13Z" transform="translate(-10 -10)"/><path class="d" d="M573.44,272.41a2.74,2.74,0,1,0-1.32-3.64A2.74,2.74,0,0,0,573.44,272.41Z" transform="translate(-10 -10)"/><path class="d" d="M582.32,253.37a2.23,2.23,0,1,0-1.08-3A2.22,2.22,0,0,0,582.32,253.37Z" transform="translate(-10 -10)"/><path class="d" d="M591.2,234.33a1.72,1.72,0,1,0-.83-2.29A1.73,1.73,0,0,0,591.2,234.33Z" transform="translate(-10 -10)"/><path class="d" d="M502.77,388.53a6.31,6.31,0,1,0,3.78,8.09A6.31,6.31,0,0,0,502.77,388.53Z" transform="translate(-10 -10)"/><path class="d" d="M502.17,373.21a5.8,5.8,0,1,0,7.44-3.47A5.81,5.81,0,0,0,502.17,373.21Z" transform="translate(-10 -10)"/><path class="d" d="M509.66,354.12a5.29,5.29,0,1,0,6.79-3.16A5.28,5.28,0,0,0,509.66,354.12Z" transform="translate(-10 -10)"/><path class="d" d="M523.28,332.17a4.78,4.78,0,1,0,2.86,6.13A4.79,4.79,0,0,0,523.28,332.17Z" transform="translate(-10 -10)"/><path class="d" d="M524.65,315.94a4.27,4.27,0,1,0,5.47-2.55A4.27,4.27,0,0,0,524.65,315.94Z" transform="translate(-10 -10)"/><path class="d" d="M534.38,301.67a3.76,3.76,0,1,0-2.24-4.82A3.76,3.76,0,0,0,534.38,301.67Z" transform="translate(-10 -10)"/><path class="d" d="M541.57,281.93a3.25,3.25,0,1,0-1.94-4.17A3.26,3.26,0,0,0,541.57,281.93Z" transform="translate(-10 -10)"/><path class="d" d="M548.76,262.19a2.74,2.74,0,1,0-1.64-3.51A2.74,2.74,0,0,0,548.76,262.19Z" transform="translate(-10 -10)"/><path class="d" d="M555.94,242.44a2.23,2.23,0,1,0-1.33-2.85A2.23,2.23,0,0,0,555.94,242.44Z" transform="translate(-10 -10)"/><path class="d" d="M563.13,222.7a1.72,1.72,0,1,0-1-2.2A1.71,1.71,0,0,0,563.13,222.7Z" transform="translate(-10 -10)"/><path class="d" d="M480.74,388.48a6.32,6.32,0,1,0,7.74-4.46A6.33,6.33,0,0,0,480.74,388.48Z" transform="translate(-10 -10)"/><path class="d" d="M486.54,368.81a5.8,5.8,0,1,0,7.11-4.1A5.81,5.81,0,0,0,486.54,368.81Z" transform="translate(-10 -10)"/><path class="d" d="M492.34,349.14a5.3,5.3,0,1,0,6.48-3.74A5.3,5.3,0,0,0,492.34,349.14Z" transform="translate(-10 -10)"/><path class="d" d="M504,326.09a4.78,4.78,0,1,0,3.38,5.86A4.78,4.78,0,0,0,504,326.09Z" transform="translate(-10 -10)"/><path class="d" d="M503.94,309.8a4.27,4.27,0,1,0,5.23-3A4.28,4.28,0,0,0,503.94,309.8Z" transform="translate(-10 -10)"/><path class="d" d="M512.4,294.74a3.76,3.76,0,1,0-2.66-4.61A3.75,3.75,0,0,0,512.4,294.74Z" transform="translate(-10 -10)"/><path class="d" d="M517.83,274.45a3.25,3.25,0,1,0-2.29-4A3.27,3.27,0,0,0,517.83,274.45Z" transform="translate(-10 -10)"/><path class="d" d="M523.27,254.15a2.74,2.74,0,1,0-1.94-3.35A2.74,2.74,0,0,0,523.27,254.15Z" transform="translate(-10 -10)"/><path class="d" d="M528.71,233.86a2.23,2.23,0,1,0-1.57-2.73A2.23,2.23,0,0,0,528.71,233.86Z" transform="translate(-10 -10)"/><path class="d" d="M534.15,213.56a1.72,1.72,0,0,0,.89-3.32,1.72,1.72,0,1,0-.89,3.32Z" transform="translate(-10 -10)"/><path class="d" d="M466.52,385.9a6.32,6.32,0,1,0,7.32-5.13A6.32,6.32,0,0,0,466.52,385.9Z" transform="translate(-10 -10)"/><path class="d" d="M470.59,365.8a5.8,5.8,0,1,0,6.72-4.71A5.8,5.8,0,0,0,470.59,365.8Z" transform="translate(-10 -10)"/><path class="d" d="M480.78,341.4a5.3,5.3,0,1,0,4.3,6.13A5.29,5.29,0,0,0,480.78,341.4Z" transform="translate(-10 -10)"/><path class="d" d="M482.59,331.14a4.78,4.78,0,1,0-3.88-5.54A4.79,4.79,0,0,0,482.59,331.14Z" transform="translate(-10 -10)"/><path class="d" d="M486.24,310.44a4.27,4.27,0,1,0-3.46-4.95A4.27,4.27,0,0,0,486.24,310.44Z" transform="translate(-10 -10)"/><path class="d" d="M489.89,289.75a3.76,3.76,0,1,0-3.05-4.36A3.76,3.76,0,0,0,489.89,289.75Z" transform="translate(-10 -10)"/><path class="d" d="M493.54,269.06a3.25,3.25,0,1,0-2.64-3.77A3.25,3.25,0,0,0,493.54,269.06Z" transform="translate(-10 -10)"/><path class="d" d="M497.19,248.37a2.74,2.74,0,1,0-2.23-3.18A2.74,2.74,0,0,0,497.19,248.37Z" transform="translate(-10 -10)"/><path class="d" d="M500.83,227.68a2.23,2.23,0,1,0,.78-4.39,2.23,2.23,0,0,0-.78,4.39Z" transform="translate(-10 -10)"/><path class="d" d="M504.48,207a1.72,1.72,0,1,0-1.39-2A1.72,1.72,0,0,0,504.48,207Z" transform="translate(-10 -10)"/><path class="d" d="M457.88,391.4a6.31,6.31,0,1,0-5.74-6.84A6.33,6.33,0,0,0,457.88,391.4Z" transform="translate(-10 -10)"/><path class="d" d="M459.71,370.46a5.8,5.8,0,1,0-5.28-6.28A5.79,5.79,0,0,0,459.71,370.46Z" transform="translate(-10 -10)"/><path class="d" d="M461.54,349.53a5.29,5.29,0,1,0-4.81-5.73A5.28,5.28,0,0,0,461.54,349.53Z" transform="translate(-10 -10)"/><path class="d" d="M463.37,328.6a4.78,4.78,0,1,0-4.35-5.18A4.78,4.78,0,0,0,463.37,328.6Z" transform="translate(-10 -10)"/><path class="d" d="M465.2,307.67a4.27,4.27,0,1,0-3.88-4.63A4.27,4.27,0,0,0,465.2,307.67Z" transform="translate(-10 -10)"/><path class="d" d="M467,286.74a3.76,3.76,0,1,0-3.42-4.07A3.77,3.77,0,0,0,467,286.74Z" transform="translate(-10 -10)"/><path class="d" d="M468.86,265.81a3.25,3.25,0,1,0-2.95-3.52A3.25,3.25,0,0,0,468.86,265.81Z" transform="translate(-10 -10)"/><path class="d" d="M470.7,244.88a2.74,2.74,0,1,0-2.5-3A2.73,2.73,0,0,0,470.7,244.88Z" transform="translate(-10 -10)"/><path class="d" d="M472.53,224a2.23,2.23,0,1,0-2-2.41A2.23,2.23,0,0,0,472.53,224Z" transform="translate(-10 -10)"/><path class="d" d="M474.36,203a1.72,1.72,0,1,0-1.57-1.86A1.72,1.72,0,0,0,474.36,203Z" transform="translate(-10 -10)"/><g class="e"><path class="f" d="M878.58,1060.08V40a30.09,30.09,0,0,0-30-30h-30.5a30.09,30.09,0,0,1,30,30V1060.08a30.09,30.09,0,0,1-30,30h30.5a30.09,30.09,0,0,0,30-30" transform="translate(-10 -10)"/></g></svg>