<svg xmlns="http://www.w3.org/2000/svg" xmlns:xlink="http://www.w3.org/1999/xlink" viewBox="0 0 869.37 1080.19"><defs><style>.a{fill:none;}.b{clip-path:url(#a);}.c{fill:#f2e1cb;}.d{clip-path:url(#b);}.e{fill:#008a58;}.f{fill:#ea5f12;}.g{fill:#86531a;}.h{fill:#43bbe3;}.i{fill:#a1a21f;}.j{fill:#c69c6d;}.k{fill:#1a1818;}.l{fill:#97ca78;}.m{fill:#5eb885;}.n{fill:#f5aa84;}.o{fill:#ffcc31;}.p{clip-path:url(#c);}.q{fill:#e5e5e5;}</style><clipPath id="a"><rect class="a" y="0.31" width="838.39" height="1080"/></clipPath><clipPath id="b"><rect class="a" y="0.31" width="838.23" height="1080"/></clipPath><clipPath id="c"><rect class="a" x="808.09" y="0.31" width="60.5" height="1080.08"/></clipPath></defs><title>08 Pattern</title><g class="b"><path class="c" d="M808.36,1080.93H0V.31H808.36a30.12,30.12,0,0,1,30,30V1050.91a30.12,30.12,0,0,1-30,30"/></g><g class="d"><path class="e" d="M650.58,457.74l-39.79-29.81v2.16l74-34.42,10.6-4.93L693.65,389l-44.78,69.16c-.88,1.35,1.29,2.61,2.16,1.26l44.78-69.16c.74-1.14-.67-2.2-1.71-1.71l-74,34.41-10.61,4.94c-.94.44-.67,1.65,0,2.16l39.79,29.81C650.61,460.87,651.85,458.7,650.58,457.74Z"/><path class="f" d="M696,389.66l3.46-56.16a1.26,1.26,0,0,0-1.25-1.25l-82.66-1.37-11.9-.19a1.25,1.25,0,0,0-1.25,1.25l5.71,84.78.82,12.29c.11,1.59,2.61,1.6,2.5,0l-5.7-84.78-.83-12.29-1.25,1.25,82.66,1.36,11.9.2-1.25-1.25-3.46,56.16c-.1,1.6,2.4,1.6,2.5,0Z"/><path class="g" d="M694.1,390.74l103.78,60.91,15,8.8a1.25,1.25,0,0,0,1.51-2l-38.79-42.34-62.25-68-14.27-15.58c-1.09-1.19-2.85.58-1.76,1.77l38.78,42.34,62.26,68,14.26,15.58,1.52-2L710.35,397.38l-15-8.8a1.25,1.25,0,0,0-1.26,2.16Z"/><path class="h" d="M812.42,458.74l-36.27,76.33-7.41,15.57c-.26.56-1.31,2-1.27,2.67,0,.44,1.61-.17,1.31-.57-.07-.09-.34,0-.4-.15-.16-.29-1.38-.55-1.7-.67L724.8,535.39l-38.51-15.2c-1.5-.59-2.15,1.83-.67,2.41L758,551.15l10.25,4a1.25,1.25,0,0,0,1.41-.57l39.33-82.74L814.58,460c.69-1.44-1.47-2.71-2.16-1.26Z"/><path class="i" d="M586,479.25,560.31,426l-1.08,1.88,50.93,2.43c1.61.07,1.61-2.43,0-2.5l-50.93-2.43a1.27,1.27,0,0,0-1.08,1.88l25.66,53.3c.7,1.45,2.85.19,2.16-1.26Z"/><path class="j" d="M686.29,520.19l-88.6-36.39-12.47-5.12v2.41l58.35-18.89,4.64-1.5c.27-.09,1.24-.23,1.43-.47,1.1-1.35.25,2.86-.76-.76.59,2.11,2.56,4.45,3.64,6.33l18.29,31.78L684.87,522a1.25,1.25,0,0,0,2.16-1.26l-36-62.58a1.26,1.26,0,0,0-1.41-.57l-65.06,21.06a1.26,1.26,0,0,0,0,2.41l88.59,36.39,12.47,5.12C687.11,523.21,687.76,520.8,686.29,520.19Z"/><path class="k" d="M812.87,458.29l-111.66,54.3-15.89,7.73c-1.44.7-.18,2.86,1.26,2.16l111.66-54.3,15.89-7.73c1.45-.7.18-2.86-1.26-2.16Z"/><path class="e" d="M441.64,330.58l-39.79-29.82v2.16l74-34.42,10.6-4.93-1.71-1.71L439.93,331c-.88,1.36,1.28,2.61,2.16,1.27l44.78-69.17c.74-1.14-.67-2.19-1.71-1.71l-74,34.42-10.6,4.93c-.94.44-.67,1.66,0,2.16l39.79,29.81C441.66,333.7,442.91,331.53,441.64,330.58Z"/><path class="f" d="M487,262.49l3.46-56.16a1.27,1.27,0,0,0-1.25-1.25l-82.66-1.36-11.9-.2a1.26,1.26,0,0,0-1.25,1.25l5.71,84.78.82,12.29c.11,1.6,2.61,1.61,2.5,0l-5.7-84.78-.83-12.29L394.69,206l82.66,1.36,11.9.2L488,206.33l-3.46,56.16c-.1,1.61,2.4,1.6,2.5,0Z"/><path class="g" d="M485.16,263.57l103.78,60.92,15,8.8a1.26,1.26,0,0,0,1.51-2L566.65,289,504.4,221l-14.27-15.57c-1.09-1.19-2.85.58-1.77,1.76l38.79,42.35,62.25,67.95,14.27,15.58,1.52-2L501.41,270.21l-15-8.8a1.25,1.25,0,0,0-1.26,2.16Z"/><path class="h" d="M603.48,331.58,567.2,407.9l-7.4,15.57c-.26.57-1.31,2-1.27,2.67,0,.44,1.61-.16,1.31-.56-.07-.09-.34-.06-.4-.16-.16-.28-1.38-.54-1.7-.67l-41.88-16.52L477.34,393c-1.49-.6-2.14,1.82-.66,2.41L549,424l10.25,4a1.24,1.24,0,0,0,1.41-.57L600,344.71l5.64-11.87c.68-1.45-1.47-2.72-2.16-1.26Z"/><path class="i" d="M377,352.08l-25.66-53.3-1.08,1.88,50.93,2.43c1.61.08,1.61-2.42,0-2.5l-50.93-2.43a1.27,1.27,0,0,0-1.08,1.88l25.66,53.31c.7,1.45,2.85.18,2.16-1.27Z"/><path class="j" d="M477.34,393l-88.59-36.4-12.47-5.12v2.41L434.63,335l4.64-1.5c.27-.09,1.24-.22,1.43-.46,1.1-1.36.24,2.85-.76-.77.58,2.11,2.56,4.46,3.64,6.33l18.29,31.78,14.06,24.45a1.25,1.25,0,0,0,2.16-1.26l-36-62.58a1.26,1.26,0,0,0-1.41-.57l-65.06,21.06a1.26,1.26,0,0,0,0,2.41l88.59,36.39,12.47,5.13C478.17,396.05,478.81,393.63,477.34,393Z"/><path class="k" d="M603.93,331.13,492.27,385.42l-15.89,7.73c-1.45.7-.18,2.86,1.26,2.16L589.3,341l15.89-7.72c1.45-.71.18-2.86-1.26-2.16Z"/><path class="e" d="M537.57,81.54l39.73,29.88v-2.16l-74,34.3-10.61,4.92,1.71,1.71L539.28,81.1c.88-1.36-1.28-2.61-2.16-1.27l-44.91,69.1c-.74,1.14.67,2.19,1.71,1.71l74-34.3,10.61-4.92c.94-.44.67-1.66,0-2.16L538.83,79.39C537.55,78.42,536.3,80.59,537.57,81.54Z"/><path class="l" d="M492,149.56l-3.57,56.16a1.27,1.27,0,0,0,1.25,1.25l106,5,15,.71a1.25,1.25,0,0,0,1.2-1.58l-28.6-88.39L579.13,110c-.49-1.52-2.91-.87-2.41.66l28.61,88.4,4.11,12.73,1.21-1.59-106-5-15-.71,1.25,1.25,3.57-56.16c.1-1.61-2.4-1.6-2.5,0Z"/><path class="m" d="M493.92,148.48l-78.85-34.4-11.47-5a1.25,1.25,0,0,0-1.51,2l75.85,83.56,10.9,12c1.08,1.19,2.84-.58,1.76-1.77l-75.85-83.55-10.89-12-1.52,2,78.85,34.4,11.47,5c1.46.63,2.73-1.52,1.26-2.16Z"/><path class="h" d="M404.18,110.49,418.9,1.08,421-14.55l-1.53.87L491.74,15,502,19c1.5.59,2.15-1.82.67-2.41L430.37-12l-10.24-4.06a1.25,1.25,0,0,0-1.54.87L403.87,94.2l-2.1,15.63c-.22,1.57,2.19,2.25,2.41.66Z"/><path class="i" d="M602.22,60.14l25.56,53.34,1.07-1.88-50.92-2.51c-1.61-.08-1.61,2.42,0,2.5l50.92,2.51a1.26,1.26,0,0,0,1.08-1.88L604.38,58.88c-.7-1.46-2.85-.19-2.16,1.26Z"/><path class="j" d="M502,19,590.5,55.57,603,60.71V58.3L544.58,77.1l-4.64,1.49c-.27.09-1.24.23-1.44.47-1.09,1.35-.23-2.86.77.76-.58-2.11-2.55-4.46-3.63-6.34L517.42,41.67l-14-24.47a1.25,1.25,0,0,0-2.16,1.26L537.12,81.1a1.26,1.26,0,0,0,1.41.57l65.1-21a1.26,1.26,0,0,0,0-2.41L515.11,21.77l-12.46-5.14C501.16,16,500.51,18.43,502,19Z"/><path class="k" d="M403.86,111l87-80.83L503.2,18.72c1.18-1.1-.59-2.87-1.77-1.77l-87,80.83-12.37,11.5c-1.18,1.09.59,2.86,1.77,1.76Z"/><path class="e" d="M746.27,209,786,238.91v-2.16l-74,34.3L701.35,276l1.71,1.71L748,208.59c.88-1.35-1.29-2.61-2.16-1.26L700.9,276.42c-.74,1.14.67,2.19,1.71,1.71l74-34.3,10.61-4.92c1-.43.67-1.65,0-2.16l-39.72-29.87C746.24,205.91,745,208.08,746.27,209Z"/><path class="n" d="M700.73,277.05l-3.56,56.16a1.26,1.26,0,0,0,1.25,1.25l102.07,5,14.65.72a1.26,1.26,0,0,0,1.21-1.58l-24.94-88.45-3.58-12.69a1.25,1.25,0,0,0-2.41.67l24.94,88.44,3.58,12.69,1.2-1.58-102.07-5L698.42,332l1.25,1.25,3.56-56.16c.1-1.61-2.4-1.6-2.5,0Z"/><path class="o" d="M702.61,276,622,218.42l-11.65-8.31c-1-.71-2.43.71-1.71,1.71l77.68,106.87,11,15.15c.93,1.29,3.1,0,2.15-1.26L621.81,225.71l-11-15.15-1.71,1.71,80.62,57.55,11.64,8.31c1.31.94,2.56-1.23,1.26-2.16Z"/><path class="h" d="M610.93,211.52l16.41-86.17,2.36-12.41-1.54.87,72.28,28.66,10.24,4.06c1.5.59,2.14-1.82.66-2.41l-72.27-28.66-10.24-4.06a1.27,1.27,0,0,0-1.54.88l-16.41,86.17-2.36,12.41c-.3,1.57,2.1,2.24,2.41.66Z"/><path class="i" d="M810.92,187.63,836.47,241l1.08-1.88-50.93-2.51c-1.6-.07-1.6,2.43,0,2.5l50.93,2.51a1.26,1.26,0,0,0,1.08-1.88l-25.56-53.34c-.69-1.45-2.85-.19-2.15,1.26Z"/><path class="j" d="M710.68,146.53l88.52,36.53,12.46,5.14v-2.41l-58.38,18.8-4.65,1.5c-.26.08-1.23.22-1.43.46-1.1,1.35-.23-2.86.77.76-.58-2.11-2.56-4.46-3.63-6.33l-18.23-31.81-14-24.48a1.25,1.25,0,0,0-2.16,1.27l35.89,62.63a1.26,1.26,0,0,0,1.41.57l65.1-21a1.26,1.26,0,0,0,0-2.41l-88.52-36.53-12.47-5.14C709.86,143.51,709.21,145.92,710.68,146.53Z"/><path class="k" d="M610.35,212.27l88.77-57.72,12.52-8.15c1.35-.87.1-3-1.26-2.15L621.62,202l-12.53,8.14c-1.34.88-.09,3,1.26,2.16Z"/><path class="e" d="M859.28,585.8,819.5,556v2.16l74-34.41,10.6-4.94-1.71-1.71-44.78,69.17c-.88,1.35,1.29,2.61,2.16,1.26l44.78-69.16c.74-1.14-.67-2.2-1.71-1.71l-74,34.41L818.24,556c-1,.44-.67,1.66,0,2.16L858,588C859.31,588.92,860.56,586.75,859.28,585.8Z"/><path class="f" d="M904.68,517.71l3.46-56.16a1.26,1.26,0,0,0-1.25-1.25l-82.66-1.36-11.9-.2a1.26,1.26,0,0,0-1.25,1.25l5.71,84.78.83,12.29c.1,1.6,2.6,1.61,2.5,0l-5.71-84.78L813.58,460l-1.25,1.25L895,462.61l11.9.19-1.25-1.25-3.46,56.16c-.1,1.61,2.4,1.61,2.5,0Z"/><path class="i" d="M794.67,607.31,769,554l-1.08,1.88,50.94,2.42c1.6.08,1.6-2.42,0-2.5l-50.94-2.42a1.26,1.26,0,0,0-1.07,1.88l25.65,53.3c.7,1.45,2.86.18,2.16-1.26Z"/><path class="j" d="M895,648.25,806.4,611.86l-12.47-5.13v2.41l58.34-18.89,4.65-1.5c.26-.08,1.23-.22,1.43-.46,1.09-1.36.24,2.85-.77-.77.59,2.11,2.56,4.46,3.64,6.33l18.29,31.79,14.07,24.44a1.25,1.25,0,0,0,2.15-1.26l-36-62.57a1.27,1.27,0,0,0-1.41-.58l-65.06,21.06a1.26,1.26,0,0,0,0,2.41l88.59,36.4,12.47,5.12C895.81,651.27,896.46,648.85,895,648.25Z"/><path class="o" d="M911.32,404,830.7,346.48l-11.65-8.31c-1-.71-2.43.71-1.71,1.71L895,446.74l11,15.16c.94,1.28,3.11,0,2.16-1.27L830.52,353.77l-11-15.15-1.71,1.71,80.62,57.55,11.64,8.31c1.32.93,2.57-1.23,1.27-2.16Z"/><path class="h" d="M819.63,339.58,836,253.4,838.4,241l-1.53.87,72.27,28.66,10.24,4.06c1.5.59,2.15-1.83.67-2.41l-72.28-28.66-10.24-4.06a1.26,1.26,0,0,0-1.54.87l-16.41,86.18-2.36,12.41c-.3,1.57,2.11,2.24,2.41.66Z"/><path class="k" d="M819.05,340.33l88.77-57.72,12.53-8.15c1.34-.87.09-3-1.27-2.16L830.32,330l-12.53,8.15c-1.34.87-.09,3,1.26,2.16Z"/><path class="e" d="M423.23,751.72,383.45,721.9v2.16l74-34.41,10.6-4.94L466.3,683l-44.78,69.17c-.88,1.35,1.29,2.6,2.16,1.26l44.78-69.17c.74-1.14-.67-2.19-1.71-1.71l-74,34.42-10.61,4.93c-.94.44-.66,1.66,0,2.16L422,753.88C423.26,754.84,424.5,752.67,423.23,751.72Z"/><path class="f" d="M468.63,683.63l3.46-56.16a1.27,1.27,0,0,0-1.25-1.25l-82.66-1.36-11.9-.2a1.26,1.26,0,0,0-1.25,1.25l5.71,84.78.83,12.29c.1,1.6,2.6,1.61,2.5,0l-5.71-84.78-.83-12.29-1.25,1.25,82.66,1.36,11.9.2-1.25-1.25-3.46,56.16c-.1,1.61,2.4,1.6,2.5,0Z"/><path class="g" d="M466.75,684.71l103.6,60.63,15,8.76a1.26,1.26,0,0,0,1.52-2L485.84,642l-14.11-15.39c-1.09-1.19-2.86.58-1.77,1.77l101,110.15,14.12,15.39,1.51-2L483,691.31l-15-8.76a1.25,1.25,0,0,0-1.26,2.16Z"/><path class="h" d="M584.86,752.39,548.76,829l-7.37,15.63c-.27.56-1.32,2-1.26,2.67,0,.44,1.6-.16,1.3-.56-.07-.09-.34-.06-.39-.15-.16-.29-1.39-.55-1.7-.68l-41.88-16.52-38.52-15.2c-1.5-.59-2.15,1.82-.67,2.41l72.34,28.54,10.24,4a1.25,1.25,0,0,0,1.41-.58l39.15-83L587,753.65c.68-1.45-1.47-2.72-2.16-1.26Z"/><path class="i" d="M358.62,773.23,333,719.92l-1.08,1.89,50.94,2.42c1.6.08,1.6-2.42,0-2.5l-50.94-2.42a1.27,1.27,0,0,0-1.08,1.88l25.66,53.3c.7,1.45,2.86.18,2.16-1.26Z"/><path class="j" d="M458.94,814.17l-88.59-36.39-12.48-5.13v2.41l58.35-18.89,4.64-1.5c.27-.08,1.24-.22,1.44-.46,1.09-1.36.24,2.85-.77-.77.59,2.11,2.56,4.46,3.64,6.33l18.29,31.78L457.53,816a1.25,1.25,0,0,0,2.15-1.26l-36-62.57a1.26,1.26,0,0,0-1.41-.58l-65.06,21.06a1.26,1.26,0,0,0,0,2.41l88.59,36.39,12.47,5.13C459.76,817.19,460.41,814.77,458.94,814.17Z"/><path class="k" d="M585.31,751.94,473.84,806.52,458,814.29c-1.44.71-.18,2.87,1.27,2.16l111.47-54.59,15.86-7.76c1.45-.71.18-2.87-1.26-2.16Z"/><path class="e" d="M214.29,624.55l-39.78-29.81v2.16l74-34.42,10.6-4.93-1.71-1.71L212.58,625c-.88,1.35,1.29,2.61,2.16,1.26l44.78-69.16c.74-1.14-.67-2.2-1.71-1.71l-74,34.41-10.61,4.94c-.94.44-.67,1.65,0,2.16L213,626.71C214.32,627.68,215.56,625.51,214.29,624.55Z"/><path class="f" d="M259.69,556.47l3.46-56.16a1.26,1.26,0,0,0-1.25-1.25l-82.66-1.37-11.9-.2a1.27,1.27,0,0,0-1.25,1.25l5.71,84.79.82,12.29c.11,1.59,2.61,1.6,2.5,0L169.42,511l-.83-12.3L167.34,500,250,501.36l11.9.2-1.25-1.25-3.46,56.16c-.1,1.6,2.4,1.6,2.5,0Z"/><path class="g" d="M257.81,557.55l103.78,60.91,15,8.8a1.25,1.25,0,0,0,1.51-2L339.31,583l-62.26-68-14.27-15.58c-1.08-1.19-2.85.58-1.76,1.77l38.78,42.34,62.26,68,14.27,15.58,1.51-2L274.06,564.19l-15-8.8a1.25,1.25,0,0,0-1.26,2.16Z"/><path class="h" d="M376.13,625.55l-36.27,76.33-7.41,15.57c-.26.56-1.31,2-1.26,2.67,0,.44,1.6-.17,1.3-.57-.07-.09-.34,0-.4-.15-.15-.29-1.38-.55-1.69-.67L288.51,702.2,250,687c-1.5-.59-2.15,1.83-.67,2.41L321.67,718l10.24,4a1.25,1.25,0,0,0,1.41-.57l39.33-82.74,5.64-11.88c.69-1.44-1.47-2.71-2.16-1.26Z"/><path class="i" d="M149.68,646.06,124,592.76l-1.08,1.88,50.93,2.43c1.61.07,1.61-2.43,0-2.5l-50.93-2.43a1.27,1.27,0,0,0-1.08,1.88l25.66,53.3c.7,1.45,2.86.18,2.16-1.26Z"/><path class="j" d="M250,687l-88.6-36.39-12.47-5.12v2.41L207.28,629l4.64-1.5c.27-.09,1.24-.23,1.44-.47,1.09-1.35.24,2.86-.77-.76.59,2.11,2.56,4.45,3.64,6.33l18.29,31.78,14.06,24.45a1.25,1.25,0,0,0,2.16-1.26l-36-62.58a1.26,1.26,0,0,0-1.41-.57l-65.06,21.06a1.26,1.26,0,0,0,0,2.41l88.59,36.39,12.47,5.12C250.82,690,251.47,687.61,250,687Z"/><path class="k" d="M376.58,625.1,264.92,679.4,249,687.13c-1.44.7-.18,2.86,1.26,2.16L362,635l15.89-7.73c1.45-.7.18-2.86-1.26-2.16Z"/><path class="e" d="M310.22,375.52,350,405.4v-2.16l-74,34.3-10.61,4.92,1.71,1.71,44.91-69.1c.88-1.35-1.28-2.6-2.16-1.26L264.86,442.9c-.74,1.14.67,2.2,1.71,1.71l74-34.3,10.61-4.91c1-.44.67-1.66,0-2.16l-39.73-29.88C310.2,372.4,309,374.56,310.22,375.52Z"/><path class="l" d="M264.69,443.53l-3.57,56.16a1.27,1.27,0,0,0,1.25,1.25l106,5,15,.71a1.26,1.26,0,0,0,1.21-1.58l-28.61-88.4L351.78,404c-.49-1.53-2.9-.88-2.41.66L378,493.05l4.12,12.72,1.2-1.58-106-5-15-.71,1.25,1.25,3.57-56.16c.1-1.6-2.4-1.6-2.5,0Z"/><path class="m" d="M266.57,442.46l-78.85-34.4-11.47-5a1.25,1.25,0,0,0-1.51,2l75.85,83.55,10.9,12c1.08,1.19,2.84-.58,1.76-1.77L187.4,415.26l-10.89-12-1.52,2,78.85,34.39,11.47,5c1.46.64,2.73-1.51,1.26-2.15Z"/><path class="h" d="M176.83,404.47l14.72-109.42,2.11-15.63-1.54.88L264.4,309,274.64,313c1.49.6,2.14-1.82.66-2.41L203,282l-10.24-4.06a1.25,1.25,0,0,0-1.54.87L176.52,388.18l-2.1,15.62c-.21,1.58,2.2,2.26,2.41.67Z"/><path class="i" d="M374.87,354.11l25.56,53.35,1.08-1.89-50.93-2.5c-1.61-.08-1.6,2.42,0,2.5l50.93,2.5a1.27,1.27,0,0,0,1.08-1.88L377,352.85c-.69-1.45-2.85-.18-2.16,1.26Z"/><path class="j" d="M274.64,313l88.52,36.54,12.46,5.14v-2.41l-58.39,18.8-4.64,1.49c-.27.09-1.24.22-1.43.46-1.1,1.36-.23-2.86.76.77-.58-2.11-2.55-4.47-3.63-6.34l-18.22-31.81-14-24.47a1.25,1.25,0,0,0-2.16,1.26l35.88,62.63a1.28,1.28,0,0,0,1.41.58l65.1-21a1.26,1.26,0,0,0,0-2.41l-88.52-36.53L275.3,310.6C273.81,310,273.17,312.41,274.64,313Z"/><path class="k" d="M176.51,405l87-80.83,12.37-11.5c1.18-1.09-.59-2.86-1.77-1.76l-87,80.83-12.37,11.49c-1.18,1.1.59,2.87,1.77,1.77Z"/><path class="e" d="M518.92,503l39.72,29.88v-2.16l-74,34.3L474,570l1.71,1.71,44.92-69.1c.88-1.35-1.29-2.6-2.16-1.26l-44.91,69.1c-.75,1.14.66,2.19,1.71,1.71l74-34.3,10.62-4.92c.94-.44.66-1.66,0-2.16l-39.73-29.88C518.89,499.89,517.65,502.06,518.92,503Z"/><path class="n" d="M473.38,571l-3.56,56.15a1.26,1.26,0,0,0,1.25,1.25l82.66,1.5,11.89.21a1.25,1.25,0,0,0,1.25-1.25l-5.54-84.79-.8-12.29c-.11-1.6-2.61-1.61-2.5,0l5.54,84.79.8,12.29,1.25-1.25L483,626.15l-11.89-.22,1.25,1.25L475.88,571c.11-1.61-2.39-1.6-2.5,0Z"/><path class="o" d="M475.27,570,394.65,512.4,383,504.09c-1-.71-2.43.71-1.71,1.71L459,612.66l11,15.15c.93,1.29,3.1.05,2.16-1.26L394.47,519.69l-11-15.15-1.71,1.71,80.62,57.54L474,572.11c1.32.93,2.57-1.23,1.27-2.16Z"/><path class="h" d="M383.58,505.5,400,419.32l2.36-12.4-1.54.87,72.28,28.66,10.24,4.06c1.5.59,2.15-1.83.67-2.41l-72.28-28.66-10.24-4.06a1.25,1.25,0,0,0-1.54.87l-16.41,86.18-2.36,12.4c-.3,1.58,2.11,2.25,2.41.67Z"/><path class="i" d="M583.57,481.61,609.12,535l1.08-1.88-50.92-2.51c-1.61-.08-1.61,2.42,0,2.5l50.92,2.51a1.26,1.26,0,0,0,1.08-1.88l-25.55-53.35c-.7-1.45-2.85-.18-2.16,1.27Z"/><path class="j" d="M483.33,440.51,571.85,477l12.46,5.14v-2.41l-58.38,18.8-4.64,1.49c-.27.09-1.24.22-1.44.46-1.1,1.36-.23-2.86.77.77-.58-2.11-2.56-4.46-3.63-6.34l-18.23-31.81-14-24.47a1.25,1.25,0,0,0-2.16,1.26l35.89,62.63a1.25,1.25,0,0,0,1.41.58l65.1-21a1.26,1.26,0,0,0,0-2.41l-88.52-36.53L484,438.1C482.51,437.48,481.86,439.9,483.33,440.51Z"/><path class="k" d="M383,506.25l88.77-57.72,12.52-8.15c1.35-.87.1-3-1.26-2.16l-88.76,57.72-12.53,8.15c-1.34.87-.09,3,1.26,2.16Z"/><path class="m" d="M597.14,658.72l-31.92-32.46c-1.13-1.15-2.9.62-1.77,1.77l31.93,32.46c1.13,1.15,2.89-.62,1.76-1.77Z"/><path class="e" d="M196.07,1044.08l-39.79-29.81v2.16l74-34.42,10.6-4.93-1.71-1.71-44.78,69.16c-.88,1.36,1.28,2.61,2.16,1.27l44.78-69.17c.73-1.14-.67-2.19-1.71-1.71l-74,34.42-10.6,4.93c-.94.44-.67,1.66,0,2.16l39.78,29.81C196.09,1047.21,197.34,1045,196.07,1044.08Z"/><path class="f" d="M241.47,976l3.46-56.16a1.27,1.27,0,0,0-1.25-1.25L161,917.22,149.12,917a1.25,1.25,0,0,0-1.25,1.25l5.7,84.78.83,12.29c.11,1.6,2.61,1.61,2.5,0l-5.71-84.78-.82-12.29-1.25,1.25,82.66,1.36,11.9.2-1.25-1.25L239,976c-.1,1.61,2.4,1.6,2.5,0Z"/><path class="g" d="M239.59,977.08,343.37,1038l15,8.8a1.26,1.26,0,0,0,1.51-2l-38.79-42.34-62.25-68L244.56,919c-1.09-1.18-2.85.59-1.77,1.77l38.79,42.35L343.83,1031l14.27,15.58,1.52-2L255.84,983.72l-15-8.8a1.25,1.25,0,0,0-1.26,2.16Z"/><path class="h" d="M357.91,1045.09l-36.28,76.32-7.4,15.57c-.27.57-1.32,2-1.27,2.67,0,.44,1.61-.16,1.3-.56-.06-.09-.33-.06-.39-.16-.16-.29-1.38-.54-1.7-.67l-41.88-16.52-38.52-15.21c-1.49-.59-2.14,1.83-.66,2.42l72.33,28.54,10.25,4a1.24,1.24,0,0,0,1.41-.57l39.32-82.74,5.65-11.87c.68-1.45-1.47-2.72-2.16-1.26Z"/><path class="i" d="M131.46,1065.59l-25.66-53.3-1.08,1.88,50.93,2.43c1.61.08,1.61-2.42,0-2.5l-50.93-2.43a1.26,1.26,0,0,0-1.08,1.88l25.66,53.31c.7,1.45,2.85.18,2.16-1.27Z"/><path class="j" d="M231.77,1106.53l-88.59-36.39L130.71,1065v2.41l58.35-18.89,4.64-1.5c.27-.09,1.24-.22,1.43-.46,1.1-1.36.24,2.85-.76-.77.58,2.11,2.56,4.45,3.64,6.33l18.28,31.78,14.07,24.45a1.25,1.25,0,0,0,2.16-1.26l-36-62.58a1.28,1.28,0,0,0-1.42-.57l-65,21.06a1.26,1.26,0,0,0,0,2.41l88.59,36.39,12.47,5.13C232.6,1109.56,233.24,1107.14,231.77,1106.53Z"/><path class="k" d="M358.36,1044.64,246.7,1098.93l-15.89,7.73c-1.45.7-.18,2.86,1.26,2.16l111.66-54.3,15.89-7.72c1.44-.71.18-2.86-1.26-2.16Z"/><path class="e" d="M-12.87,916.92-52.66,887.1v2.16l74-34.41,10.61-4.94L30.2,848.2l-44.78,69.17c-.88,1.35,1.28,2.61,2.15,1.26l44.79-69.16c.73-1.14-.67-2.2-1.71-1.71l-74,34.41-10.6,4.93c-.94.44-.67,1.66,0,2.16l39.78,29.82C-12.85,920-11.6,917.87-12.87,916.92Z"/><path class="f" d="M32.53,848.84,36,792.67a1.27,1.27,0,0,0-1.25-1.25l-82.67-1.36-11.89-.2a1.25,1.25,0,0,0-1.25,1.25l5.7,84.78.83,12.29c.11,1.6,2.61,1.61,2.5,0l-5.71-84.78-.82-12.29-1.25,1.25,82.66,1.37,11.9.19-1.25-1.25L30,848.84c-.1,1.6,2.4,1.6,2.5,0Z"/><path class="g" d="M30.65,849.91l103.78,60.92,15,8.8a1.26,1.26,0,0,0,1.52-2l-38.79-42.35-62.25-68L35.62,791.79c-1.09-1.19-2.85.58-1.77,1.77L72.64,835.9l62.25,68,14.27,15.57,1.52-2L46.9,856.55l-15-8.79a1.25,1.25,0,0,0-1.26,2.15Z"/><path class="h" d="M149,917.92l-36.28,76.32-7.4,15.58c-.27.56-1.32,2-1.27,2.67,0,.43,1.6-.17,1.3-.57-.07-.09-.34-.06-.39-.15-.16-.29-1.38-.55-1.7-.67L61.35,994.57l-38.52-15.2c-1.49-.59-2.14,1.82-.66,2.41l72.33,28.54,10.25,4a1.26,1.26,0,0,0,1.41-.58l39.32-82.74,5.65-11.87c.68-1.44-1.47-2.71-2.16-1.26Z"/><path class="j" d="M22.83,979.37-65.76,943l-12.47-5.13v2.41l58.35-18.89,4.64-1.5c.27-.08,1.24-.22,1.43-.46,1.1-1.36.24,2.85-.77-.77.59,2.11,2.57,4.46,3.65,6.33L7.35,956.76,21.42,981.2a1.25,1.25,0,0,0,2.16-1.26l-36-62.57a1.26,1.26,0,0,0-1.41-.58L-78.9,937.85a1.26,1.26,0,0,0,0,2.41l88.6,36.4,12.47,5.12C23.65,982.39,24.3,980,22.83,979.37Z"/><path class="k" d="M149.41,917.47,37.76,971.77l-15.89,7.72c-1.45.71-.18,2.86,1.26,2.16l111.66-54.29,15.89-7.73c1.44-.7.18-2.86-1.27-2.16Z"/><path class="e" d="M83.06,667.89l39.72,29.88v-2.16l-74,34.3-10.62,4.91,1.71,1.71,44.92-69.09c.88-1.35-1.29-2.61-2.16-1.26L37.69,735.27c-.74,1.14.67,2.19,1.71,1.71l74-34.3,10.62-4.91c.94-.44.66-1.66,0-2.16L84.32,665.73C83,664.76,81.79,666.93,83.06,667.89Z"/><path class="l" d="M37.52,735.9,34,792.06a1.26,1.26,0,0,0,1.25,1.25l106,5,15,.71a1.25,1.25,0,0,0,1.2-1.58l-28.6-88.4-4.12-12.73c-.49-1.52-2.91-.87-2.41.67l28.6,88.39,4.12,12.73,1.21-1.58-106-5-14.95-.71,1.25,1.25L40,735.9c.11-1.6-2.39-1.6-2.5,0Z"/><path class="m" d="M39.4,734.82l-78.84-34.39-11.47-5a1.26,1.26,0,0,0-1.51,2l75.85,83.55,10.89,12c1.09,1.2,2.85-.58,1.77-1.76l-75.85-83.56-10.9-12-1.51,2L26.67,732l11.47,5c1.46.64,2.74-1.51,1.26-2.16Z"/><path class="h" d="M-50.34,696.84l14.73-109.42,2.1-15.63-1.54.88,72.28,28.65,10.24,4.06c1.5.6,2.15-1.82.67-2.41l-72.28-28.66-10.24-4.06a1.26,1.26,0,0,0-1.54.88L-50.64,680.54l-2.11,15.63c-.21,1.58,2.2,2.26,2.41.67Z"/><path class="i" d="M147.71,646.48l25.55,53.34,1.08-1.88-50.92-2.5c-1.61-.08-1.61,2.42,0,2.5l50.92,2.5a1.26,1.26,0,0,0,1.08-1.88l-25.55-53.34c-.7-1.45-2.86-.18-2.16,1.26Z"/><path class="j" d="M47.47,605.38,136,641.91l12.46,5.15v-2.42l-58.38,18.8-4.65,1.5c-.26.08-1.23.22-1.43.46-1.1,1.35-.23-2.86.77.76-.58-2.11-2.56-4.46-3.63-6.33L62.9,628l-14-24.47a1.25,1.25,0,0,0-2.16,1.26l35.89,62.63A1.26,1.26,0,0,0,84,668l65.1-21a1.27,1.27,0,0,0,0-2.42L60.6,608.11,48.14,603C46.65,602.36,46,604.78,47.47,605.38Z"/><path class="k" d="M-50.66,697.39l87-80.83,12.37-11.5c1.18-1.1-.59-2.86-1.77-1.77l-87,80.83-12.36,11.5c-1.19,1.1.59,2.86,1.76,1.77Z"/><path class="e" d="M291.75,795.38l39.73,29.88V823.1l-74,34.3-10.61,4.91,1.71,1.72,44.91-69.1c.88-1.35-1.28-2.61-2.15-1.26l-44.92,69.09c-.74,1.14.67,2.2,1.71,1.71l74-34.3,10.61-4.91c.95-.44.67-1.66,0-2.16L293,793.22C291.73,792.25,290.48,794.42,291.75,795.38Z"/><path class="n" d="M246.22,863.39l-3.57,56.16a1.27,1.27,0,0,0,1.25,1.25l82.66,1.49,11.9.22a1.26,1.26,0,0,0,1.25-1.25l-5.54-84.79-.81-12.29c-.1-1.6-2.6-1.61-2.5,0L336.41,909l.8,12.29,1.25-1.25-82.66-1.49-11.9-.22,1.25,1.25,3.57-56.16c.1-1.6-2.4-1.6-2.5,0Z"/><path class="o" d="M248.1,862.31l-80.62-57.54-11.64-8.32c-1-.71-2.44.72-1.71,1.72L231.81,905l11,15.15c.94,1.29,3.11,0,2.16-1.26L167.3,812.06l-11-15.16-1.71,1.71,80.62,57.55,11.64,8.31c1.31.94,2.56-1.23,1.26-2.16Z"/><path class="h" d="M156.41,797.87l16.42-86.18,2.36-12.41-1.54.88,72.28,28.65,10.24,4.06c1.49.6,2.14-1.82.66-2.41l-72.28-28.65-10.24-4.06a1.24,1.24,0,0,0-1.53.87L156.37,784.8,154,797.2c-.3,1.57,2.11,2.25,2.41.67Z"/><path class="i" d="M356.4,774,382,827.31l1.08-1.88-50.93-2.5c-1.61-.08-1.6,2.42,0,2.5l50.93,2.5a1.26,1.26,0,0,0,1.08-1.88l-25.56-53.34c-.69-1.45-2.85-.18-2.16,1.26Z"/><path class="j" d="M256.17,732.87l88.52,36.53,12.46,5.15v-2.41l-58.39,18.79-4.64,1.5c-.27.09-1.24.22-1.43.46-1.1,1.36-.23-2.86.76.76-.58-2.1-2.55-4.46-3.63-6.33L271.6,755.51l-14-24.47a1.25,1.25,0,0,0-2.16,1.26l35.89,62.63a1.28,1.28,0,0,0,1.41.58l65.1-21a1.26,1.26,0,0,0,0-2.41l-88.53-36.53-12.46-5.15C255.35,729.85,254.7,732.27,256.17,732.87Z"/><path class="k" d="M155.84,798.61l88.76-57.72,12.53-8.14c1.34-.88.09-3-1.26-2.16L167.1,788.31l-12.52,8.14c-1.35.88-.09,3,1.26,2.16Z"/><path class="m" d="M371.27,952.84l-31.93-32.47c-1.13-1.14-2.89.62-1.76,1.77L369.5,954.6a1.25,1.25,0,0,0,1.77-1.76Z"/><path class="e" d="M3.82,496-36,466.18v2.15l74-34.41L48.6,429l-1.71-1.71L2.11,496.44c-.88,1.35,1.28,2.61,2.16,1.26l44.78-69.16c.74-1.14-.67-2.2-1.71-1.71l-74,34.41-10.6,4.94c-.94.43-.67,1.65,0,2.15L2.56,498.15C3.84,499.11,5.09,496.94,3.82,496Z"/><path class="f" d="M49.22,427.91l3.46-56.17a1.27,1.27,0,0,0-1.25-1.25l-82.67-1.36-11.89-.2a1.26,1.26,0,0,0-1.25,1.25l5.7,84.78.83,12.29c.11,1.6,2.61,1.61,2.5,0L-41,382.47l-.83-12.29-1.25,1.25,82.66,1.37,11.9.19-1.25-1.25-3.46,56.17c-.1,1.6,2.4,1.6,2.5,0Z"/><path class="g" d="M47.34,429l103.6,60.62,15,8.76a1.25,1.25,0,0,0,1.51-2l-101-110.16L52.31,370.86c-1.09-1.19-2.85.58-1.77,1.77l101,110.15,14.12,15.39,1.51-2L63.56,435.58l-15-8.75A1.25,1.25,0,0,0,47.34,429Z"/><path class="h" d="M165.45,496.66l-36.11,76.59L122,588.88c-.27.56-1.32,2-1.27,2.68,0,.43,1.61-.17,1.31-.57-.07-.09-.34,0-.4-.15-.16-.29-1.38-.55-1.7-.67L78,573.64l-38.52-15.2c-1.49-.59-2.14,1.83-.66,2.41l72.33,28.55,10.25,4a1.26,1.26,0,0,0,1.41-.58l39.14-83,5.62-11.91c.68-1.45-1.47-2.72-2.16-1.26Z"/><path class="j" d="M39.52,558.44l-88.59-36.39-12.47-5.12v2.41l58.35-18.89,4.64-1.51c.27-.08,1.24-.22,1.43-.46,1.1-1.35.24,2.86-.76-.76.58,2.11,2.56,4.45,3.64,6.33L24,535.83l14.07,24.45A1.25,1.25,0,0,0,40.27,559l-36-62.57a1.3,1.3,0,0,0-1.42-.58l-65,21.07a1.26,1.26,0,0,0,0,2.41l88.59,36.39,12.47,5.12C40.35,561.46,41,559,39.52,558.44Z"/><path class="k" d="M165.9,496.21,54.42,550.8l-15.86,7.77c-1.44.7-.18,2.86,1.26,2.15L151.3,506.14l15.86-7.77c1.44-.71.18-2.87-1.26-2.16Z"/><path class="e" d="M231.67,203.47l-39.78-29.82v2.16l74-34.42,10.6-4.93-1.71-1.71L230,203.91c-.88,1.36,1.29,2.61,2.16,1.27L276.9,136c.74-1.14-.67-2.19-1.71-1.71l-74,34.42-10.61,4.93c-.94.44-.67,1.66,0,2.16l39.79,29.81C231.7,206.59,232.94,204.42,231.67,203.47Z"/><path class="f" d="M277.07,135.38l3.46-56.16A1.27,1.27,0,0,0,279.28,78l-82.66-1.36-11.9-.2a1.26,1.26,0,0,0-1.25,1.25l5.71,84.78.82,12.29c.11,1.6,2.61,1.61,2.5,0L186.8,90,186,77.66l-1.25,1.25,82.66,1.36,11.9.2L278,79.22l-3.46,56.16c-.1,1.61,2.4,1.6,2.5,0Z"/><path class="g" d="M275.19,136.46l103.6,60.63,15,8.75a1.25,1.25,0,0,0,1.51-2l-101-110.15L280.16,78.34c-1.09-1.19-2.85.58-1.76,1.76l101,110.15,14.12,15.4,1.51-2-103.6-60.63-15-8.76a1.25,1.25,0,0,0-1.26,2.16Z"/><path class="h" d="M393.3,204.13l-36.1,76.6-7.37,15.62c-.27.57-1.32,2-1.26,2.68,0,.44,1.6-.16,1.3-.56-.07-.09-.34-.06-.4-.16-.16-.28-1.38-.54-1.69-.67l-41.89-16.52-38.51-15.2c-1.5-.59-2.15,1.82-.67,2.41L339,296.87l10.25,4a1.23,1.23,0,0,0,1.41-.57l39.14-83,5.62-11.91c.68-1.45-1.47-2.72-2.16-1.27Z"/><path class="i" d="M167.06,225,141.4,171.67l-1.08,1.88L191.25,176c1.61.08,1.61-2.42,0-2.5l-50.93-2.43a1.27,1.27,0,0,0-1.08,1.88l25.66,53.31c.7,1.45,2.86.18,2.16-1.26Z"/><path class="j" d="M267.38,265.92l-88.6-36.4-12.47-5.12v2.41l58.35-18.89,4.64-1.5c.27-.09,1.24-.22,1.43-.46,1.1-1.36.25,2.85-.76-.77.59,2.11,2.56,4.46,3.64,6.33L251.9,243.3,266,267.75a1.25,1.25,0,0,0,2.16-1.26l-36-62.58a1.26,1.26,0,0,0-1.41-.57L165.65,224.4a1.26,1.26,0,0,0,0,2.41l88.59,36.39,12.47,5.13C268.2,268.94,268.85,266.52,267.38,265.92Z"/><path class="k" d="M393.75,203.69,282.28,258.27,266.41,266c-1.44.71-.18,2.87,1.26,2.16l111.48-54.59L395,205.84c1.45-.7.18-2.86-1.26-2.15Z"/><path class="e" d="M22.73,76.3-17.06,46.49v2.15l74-34.41L67.51,9.3,65.8,7.59,21,76.75c-.88,1.35,1.29,2.61,2.16,1.26L68,8.85c.74-1.14-.67-2.2-1.71-1.71l-74,34.41-10.61,4.94c-.94.43-.67,1.65,0,2.15L21.47,78.46C22.76,79.42,24,77.25,22.73,76.3Z"/><path class="f" d="M68.13,8.22l3.46-56.17a1.27,1.27,0,0,0-1.25-1.25l-82.66-1.36-11.9-.2a1.26,1.26,0,0,0-1.25,1.25l5.71,84.78.82,12.29c.11,1.6,2.61,1.61,2.5,0l-5.7-84.78L-23-49.51l-1.25,1.25,82.66,1.37,11.9.19-1.25-1.25L65.63,8.22c-.1,1.6,2.4,1.6,2.5,0Z"/><path class="g" d="M66.25,9.3,170,70.21,185,79a1.25,1.25,0,0,0,1.51-2L147.74,34.7,85.49-33.25,71.22-48.83c-1.09-1.19-2.85.58-1.76,1.77L108.24-4.72l62.26,68,14.26,15.58,1.52-2L82.5,15.93l-15-8.79A1.25,1.25,0,0,0,66.25,9.3Z"/><path class="h" d="M184.57,77.3,148.3,153.62l-7.41,15.58c-.26.56-1.31,2-1.26,2.67,0,.43,1.6-.17,1.3-.57-.07-.09-.34-.05-.4-.15-.16-.29-1.38-.55-1.7-.67L97,154l-38.51-15.2c-1.5-.59-2.15,1.83-.67,2.41L130.1,169.7l10.25,4.05a1.26,1.26,0,0,0,1.41-.58l39.33-82.74,5.64-11.87c.69-1.44-1.47-2.71-2.16-1.26Z"/><path class="j" d="M58.44,138.75l-88.6-36.39-12.47-5.13v2.42L15.72,80.76l4.64-1.51c.27-.08,1.24-.22,1.43-.46,1.1-1.36.25,2.85-.76-.76.59,2.11,2.56,4.45,3.64,6.33L43,116.14,57,140.59a1.25,1.25,0,0,0,2.16-1.27l-36-62.57a1.28,1.28,0,0,0-1.41-.58L-43.29,97.23a1.27,1.27,0,0,0,0,2.42L45.3,136l12.47,5.12C59.26,141.77,59.91,139.35,58.44,138.75Z"/><path class="k" d="M185,76.85,73.36,131.15l-15.89,7.73c-1.44.7-.18,2.86,1.26,2.15L170.39,86.74,186.28,79c1.45-.7.18-2.86-1.26-2.16Z"/><path class="e" d="M327.36-45.24l39.72,29.88v-2.16l-74,34.3L282.44,21.7l1.71,1.71,44.92-69.1c.88-1.35-1.29-2.6-2.16-1.26L282,22.14c-.74,1.14.67,2.2,1.71,1.71l74-34.3,10.62-4.91c.94-.44.66-1.66,0-2.16L328.62-47.4C327.33-48.36,326.08-46.19,327.36-45.24Z"/><path class="n" d="M281.82,22.78l-3.56,56.15a1.25,1.25,0,0,0,1.25,1.25l82.66,1.49,11.89.22a1.25,1.25,0,0,0,1.25-1.25L369.77-4.15,369-16.44c-.1-1.6-2.6-1.61-2.5,0L372,68.35l.8,12.29,1.25-1.25L291.4,77.9l-11.89-.22,1.25,1.25,3.56-56.15c.11-1.61-2.39-1.61-2.5,0Z"/><path class="o" d="M283.7,21.7,203.09-35.85l-11.65-8.31c-1-.72-2.43.71-1.71,1.71L267.41,64.41l11,15.15c.93,1.29,3.1,0,2.16-1.26L202.9-28.56l-11-15.16L190.18-42,270.8,15.54l11.64,8.31c1.31.94,2.56-1.23,1.26-2.15Z"/><path class="m" d="M405.58,110.47,373.66,78c-1.13-1.15-2.9.62-1.77,1.77l31.92,32.46c1.13,1.15,2.9-.62,1.77-1.77Z"/><path class="e" d="M99.5,247.29l39.73,29.87V275l-74,34.3-10.61,4.92,1.71,1.71,44.91-69.09c.88-1.36-1.28-2.61-2.15-1.26L54.14,314.67c-.74,1.14.67,2.19,1.71,1.71l74-34.3,10.61-4.92c.95-.44.67-1.65,0-2.16l-39.72-29.87C99.48,244.16,98.23,246.33,99.5,247.29Z"/><path class="n" d="M54,315.3,50.4,371.46a1.28,1.28,0,0,0,1.25,1.25l82.66,1.49,11.9.21a1.26,1.26,0,0,0,1.25-1.25l-5.54-84.78-.81-12.3c-.1-1.59-2.6-1.61-2.5,0l5.55,84.79.8,12.29,1.25-1.25-82.66-1.49-11.9-.21,1.25,1.25,3.57-56.16c.1-1.61-2.4-1.6-2.5,0Z"/><path class="o" d="M55.85,314.22l-80.62-57.55-11.64-8.31c-1-.71-2.44.71-1.71,1.71L39.56,356.94l11,15.15c.94,1.29,3.11,0,2.16-1.26L-24.95,264l-11-15.15-1.71,1.71L43,308.07l11.64,8.31c1.31.94,2.56-1.23,1.26-2.16Z"/><path class="h" d="M-35.84,249.77l16.42-86.17,2.36-12.41-1.54.87,72.28,28.66,10.24,4.06c1.49.59,2.14-1.82.66-2.41L-7.7,153.71l-10.23-4.06a1.25,1.25,0,0,0-1.54.88L-35.88,236.7l-2.37,12.41c-.3,1.57,2.11,2.24,2.41.66Z"/><path class="i" d="M164.15,225.88l25.56,53.34,1.08-1.88-50.93-2.51c-1.61-.08-1.6,2.42,0,2.5l50.93,2.51a1.26,1.26,0,0,0,1.08-1.88l-25.56-53.34c-.69-1.45-2.85-.19-2.16,1.26Z"/><path class="j" d="M63.92,184.78l88.52,36.53,12.46,5.14V224l-58.38,18.8-4.65,1.5c-.26.08-1.24.22-1.43.46-1.1,1.35-.23-2.86.77.76-.58-2.11-2.56-4.46-3.63-6.34L79.35,207.41l-14-24.47a1.25,1.25,0,0,0-2.16,1.27l35.89,62.63a1.26,1.26,0,0,0,1.41.57l65.1-21a1.26,1.26,0,0,0,0-2.41L77,187.51l-12.46-5.14C63.1,181.76,62.45,184.17,63.92,184.78Z"/><path class="k" d="M-36.41,250.52,52.35,192.8l12.53-8.15c1.35-.87.09-3-1.26-2.15l-88.76,57.71-12.53,8.15c-1.35.87-.09,3,1.26,2.16Z"/><path class="m" d="M177.73,403l-31.92-32.47A1.25,1.25,0,0,0,144,372.3L176,404.76a1.25,1.25,0,0,0,1.77-1.76Z"/><path class="e" d="M877.05,163.28l-39.78-29.81v2.16l74-34.42,10.61-4.93-1.71-1.71-44.79,69.16c-.87,1.35,1.29,2.61,2.16,1.26l44.78-69.16c.74-1.14-.66-2.2-1.71-1.71l-74,34.41L836,133.47c-.94.44-.67,1.65,0,2.16l39.78,29.81C877.08,166.41,878.33,164.24,877.05,163.28Z"/><path class="f" d="M922.46,95.2,925.91,39a1.25,1.25,0,0,0-1.25-1.25L842,36.42l-11.9-.19a1.26,1.26,0,0,0-1.25,1.25l5.71,84.78.83,12.29c.11,1.59,2.61,1.61,2.5,0l-5.71-84.78-.83-12.29-1.25,1.25,82.67,1.36,11.89.2L923.41,39,920,95.2c-.1,1.61,2.4,1.6,2.5,0Z"/><path class="i" d="M812.44,184.79l-25.65-53.3-1.08,1.88,50.93,2.43c1.61.07,1.6-2.43,0-2.5l-50.93-2.43a1.26,1.26,0,0,0-1.08,1.88l25.66,53.3c.69,1.45,2.85.19,2.15-1.26Z"/><path class="j" d="M912.76,225.73l-88.59-36.39-12.47-5.12v2.41l58.35-18.89,4.64-1.5c.26-.09,1.24-.23,1.43-.47,1.09-1.35.24,2.86-.77-.76.59,2.11,2.57,4.45,3.65,6.33l18.28,31.78,14.07,24.45a1.25,1.25,0,0,0,2.16-1.26l-36-62.58a1.26,1.26,0,0,0-1.41-.57L811,184.22a1.26,1.26,0,0,0,0,2.41L899.62,223l12.48,5.12C913.58,228.75,914.23,226.34,912.76,225.73Z"/><path class="e" d="M668.11,36.12,628.33,6.3V8.46l74-34.42,10.61-4.93-1.71-1.71L666.4,36.56c-.87,1.36,1.29,2.61,2.16,1.27l44.78-69.17c.74-1.14-.66-2.19-1.71-1.71l-74,34.42L627.07,6.3c-1,.44-.67,1.66,0,2.16l39.78,29.81C668.14,39.24,669.39,37.07,668.11,36.12Z"/><path class="f" d="M713.51-32,717-88.13a1.26,1.26,0,0,0-1.25-1.25l-82.66-1.36-11.9-.2a1.26,1.26,0,0,0-1.25,1.25l5.71,84.78.83,12.29c.11,1.6,2.61,1.61,2.5,0L623.24-77.4l-.83-12.29-1.25,1.25,82.67,1.36,11.89.2-1.25-1.25L711-32c-.09,1.61,2.41,1.6,2.5,0Z"/><path class="g" d="M711.63-30.89,815.41,30l15,8.8a1.26,1.26,0,0,0,1.52-2L793.13-5.48l-62.25-68L716.61-89c-1.09-1.19-2.86.58-1.77,1.76L753.63-44.9l62.25,68,14.27,15.58,1.51-2L727.88-24.25l-15-8.8a1.25,1.25,0,0,0-1.27,2.16Z"/><path class="h" d="M830,37.12l-36.27,76.32L786.28,129c-.27.57-1.32,2-1.27,2.67,0,.44,1.6-.16,1.3-.56-.07-.09-.34-.06-.39-.16-.16-.28-1.38-.54-1.7-.67l-41.88-16.52-38.52-15.2c-1.5-.59-2.15,1.82-.66,2.41l72.33,28.54,10.25,4a1.24,1.24,0,0,0,1.41-.57l39.32-82.74,5.64-11.87c.69-1.45-1.46-2.72-2.16-1.26Z"/><path class="i" d="M603.5,57.63,577.85,4.32,576.77,6.2,627.7,8.63c1.61.08,1.6-2.42,0-2.5L576.77,3.7a1.26,1.26,0,0,0-1.08,1.88l25.66,53.31c.69,1.45,2.85.18,2.15-1.26Z"/><path class="j" d="M703.82,98.57l-88.59-36.4-12.47-5.12v2.41l58.35-18.89,4.64-1.5c.26-.09,1.23-.22,1.43-.46,1.09-1.36.24,2.85-.77-.77C667,40,669,42.3,670.05,44.17L688.34,76l14.07,24.45a1.25,1.25,0,0,0,2.16-1.26l-36-62.58a1.26,1.26,0,0,0-1.41-.57L602.09,57.05a1.26,1.26,0,0,0,0,2.41l88.59,36.39L703.16,101C704.64,101.59,705.29,99.17,703.82,98.57Z"/><path class="k" d="M830.4,36.67,718.75,91l-15.89,7.73c-1.45.71-.18,2.86,1.26,2.16l111.65-54.3,15.89-7.72c1.45-.71.19-2.86-1.26-2.16Z"/><path class="h" d="M-70.93,1091.84l16.41-86.17,2.36-12.41-1.54.87,72.28,28.66,10.24,4.06c1.5.59,2.14-1.82.66-2.41l-72.27-28.66L-53,991.72a1.26,1.26,0,0,0-1.54.88L-71,1078.77l-2.37,12.41c-.29,1.57,2.11,2.24,2.42.66Z"/><path class="i" d="M129.06,1068l25.55,53.34,1.08-1.88-50.93-2.51c-1.6-.08-1.6,2.42,0,2.5l50.93,2.51a1.26,1.26,0,0,0,1.08-1.88l-25.56-53.34c-.69-1.45-2.85-.19-2.15,1.26Z"/><path class="j" d="M28.82,1026.85l88.52,36.53,12.46,5.14v-2.41l-58.38,18.8-4.65,1.5c-.26.08-1.23.22-1.43.46-1.1,1.35-.23-2.86.77.76-.58-2.11-2.56-4.46-3.63-6.34l-18.23-31.8-14-24.48a1.25,1.25,0,0,0-2.16,1.27L64,1088.91a1.26,1.26,0,0,0,1.41.57l65.1-21a1.26,1.26,0,0,0,0-2.41L42,1029.58l-12.47-5.14C28,1023.83,27.35,1026.24,28.82,1026.85Z"/><path class="k" d="M-71.51,1092.59l88.77-57.72,12.52-8.15c1.35-.87.09-3-1.26-2.15l-88.76,57.71-12.53,8.15c-1.34.87-.09,3,1.26,2.16Z"/><path class="e" d="M841.21,1005l-39.79-29.82v2.16l74-34.41L886,938l-1.71-1.71-44.78,69.17c-.88,1.35,1.28,2.61,2.16,1.26l44.78-69.16c.74-1.14-.67-2.2-1.71-1.71l-74,34.41-10.6,4.93c-.94.44-.67,1.66,0,2.16L840,1007.15C841.23,1008.11,842.48,1005.94,841.21,1005Z"/><path class="f" d="M886.61,936.91l3.46-56.17a1.27,1.27,0,0,0-1.25-1.25l-82.67-1.36-11.89-.2a1.25,1.25,0,0,0-1.25,1.25l5.7,84.78.83,12.29c.11,1.6,2.61,1.61,2.5,0l-5.71-84.78-.82-12.29-1.25,1.25,82.66,1.37,11.9.19-1.25-1.25-3.46,56.17c-.1,1.6,2.4,1.6,2.5,0Z"/><path class="i" d="M776.6,1026.5l-25.66-53.3-1.08,1.88,50.93,2.42c1.61.08,1.61-2.42,0-2.5l-50.93-2.42a1.26,1.26,0,0,0-1.08,1.88l25.66,53.3c.7,1.45,2.85.18,2.16-1.26Z"/><path class="j" d="M876.91,1067.44l-88.59-36.39-12.47-5.13v2.41l58.35-18.88,4.64-1.51c.27-.08,1.24-.22,1.43-.46,1.1-1.36.24,2.85-.76-.77.58,2.11,2.56,4.46,3.64,6.33l18.28,31.79,14.07,24.44a1.25,1.25,0,0,0,2.16-1.26l-36-62.57a1.28,1.28,0,0,0-1.42-.58l-65,21.06a1.26,1.26,0,0,0,0,2.41l88.59,36.4,12.47,5.12C877.74,1070.46,878.38,1068,876.91,1067.44Z"/><path class="e" d="M632.27,877.82,592.48,848v2.16l74-34.42,10.6-4.93-1.71-1.71-44.78,69.16c-.88,1.36,1.28,2.61,2.16,1.26l44.78-69.16c.73-1.14-.67-2.2-1.71-1.71l-74,34.41L591.22,848c-.94.44-.67,1.66,0,2.16L631,880C632.29,881,633.54,878.78,632.27,877.82Z"/><path class="f" d="M677.67,809.74l3.46-56.16a1.26,1.26,0,0,0-1.25-1.25l-82.31-.49-11.63-.07a1.26,1.26,0,0,0-1.25,1.25l5.18,84.1.73,12c.1,1.6,2.6,1.61,2.5,0L587.93,765l-.74-12-1.25,1.25,82.31.49,11.63.07-1.25-1.25-3.46,56.16c-.1,1.61,2.4,1.6,2.5,0Z"/><path class="g" d="M675.79,810.82l103.78,60.92,15,8.79a1.25,1.25,0,0,0,1.51-2l-38.79-42.34-62.25-68-14.27-15.58c-1.09-1.19-2.85.59-1.77,1.77l38.79,42.34,62.25,68,14.27,15.58,1.52-2L692,817.46l-15-8.8a1.25,1.25,0,0,0-1.26,2.16Z"/><path class="h" d="M794.11,878.82l-36.28,76.33-7.4,15.57c-.27.56-1.32,2-1.27,2.67,0,.44,1.61-.16,1.3-.56-.06-.1-.33-.06-.39-.16-.16-.29-1.38-.54-1.7-.67l-41.88-16.53L668,940.27c-1.49-.59-2.14,1.83-.66,2.41l72.33,28.55,10.25,4a1.25,1.25,0,0,0,1.41-.57L790.62,892l5.65-11.87c.68-1.45-1.47-2.72-2.16-1.27Z"/><path class="i" d="M567.66,899.72,542,846l-1.08,1.88,50.93,2.43c1.61.07,1.61-2.43,0-2.5l-50.93-2.43a1.26,1.26,0,0,0-1.08,1.88L565.5,901c.69,1.45,2.85.18,2.16-1.26Z"/><path class="j" d="M668,940.27l-88.59-36-12.47-5.08v2.41l58.35-19.23,4.64-1.53c.27-.09,1.24-.23,1.43-.47,1.09-1.37.25,2.86-.76-.77.59,2.11,2.56,4.45,3.64,6.33l18.28,31.78,14.07,24.45a1.25,1.25,0,0,0,2.16-1.26l-36-62.58a1.28,1.28,0,0,0-1.42-.57l-65,21.44a1.26,1.26,0,0,0,0,2.41l88.59,36.06,12.47,5.07C668.8,943.29,669.45,940.87,668,940.27Z"/><path class="k" d="M794.56,878.38,682.9,932.67,667,940.4c-1.45.7-.18,2.86,1.26,2.16l111.66-54.3,15.89-7.73c1.44-.7.18-2.86-1.26-2.15Z"/><path class="e" d="M728.2,628.79l39.73,29.88v-2.16l-74,34.3-10.62,4.92,1.71,1.71,44.92-69.1c.88-1.35-1.29-2.6-2.16-1.26l-44.91,69.1c-.75,1.14.66,2.19,1.71,1.71l74-34.3,10.62-4.92c.94-.44.66-1.66,0-2.16l-39.73-29.88C728.17,625.67,726.93,627.84,728.2,628.79Z"/><path class="l" d="M682.66,696.81,679.1,753a1.26,1.26,0,0,0,1.25,1.25l106,5,15,.71a1.25,1.25,0,0,0,1.2-1.58L773.88,670l-4.12-12.72c-.49-1.53-2.91-.87-2.41.66l28.6,88.4L800.07,759l1.21-1.58-106-5-14.95-.71L681.6,753l3.56-56.15c.11-1.61-2.39-1.6-2.5,0Z"/><path class="m" d="M684.55,695.73l-78.85-34.4-11.47-5a1.25,1.25,0,0,0-1.51,2l75.85,83.55,10.89,12c1.09,1.19,2.85-.58,1.77-1.77l-75.85-83.55-10.9-12-1.51,2,78.85,34.39,11.46,5c1.46.63,2.74-1.52,1.27-2.16Z"/><path class="h" d="M594.81,657.74l14.72-109.41,2.1-15.63-1.54.87,72.28,28.66,10.24,4.06c1.5.59,2.15-1.83.67-2.41L621,535.22l-10.24-4.06a1.25,1.25,0,0,0-1.54.87L594.5,641.45l-2.11,15.63c-.21,1.57,2.2,2.25,2.42.66Z"/><path class="i" d="M792.85,607.38l25.55,53.35,1.08-1.88-50.92-2.51c-1.61-.08-1.61,2.42,0,2.5l50.92,2.51a1.26,1.26,0,0,0,1.08-1.88L795,606.12c-.7-1.45-2.85-.18-2.16,1.26Z"/><path class="j" d="M692.61,566.29l88.52,36.53L793.59,608v-2.41l-58.38,18.8-4.64,1.49c-.27.09-1.24.22-1.44.46-1.1,1.36-.23-2.86.77.77-.58-2.11-2.56-4.46-3.63-6.34L708,588.92l-14-24.47a1.25,1.25,0,0,0-2.16,1.26l35.89,62.63a1.25,1.25,0,0,0,1.41.58l65.1-21a1.26,1.26,0,0,0,0-2.41L705.74,569l-12.46-5.14C691.79,563.26,691.14,565.68,692.61,566.29Z"/><path class="k" d="M594.48,658.29l87-80.83L693.83,566c1.18-1.09-.59-2.86-1.77-1.76l-87,80.83-12.37,11.49c-1.18,1.1.59,2.87,1.76,1.77Z"/><path class="o" d="M893.24,823.22l-80.62-57.55L801,757.36c-1-.71-2.44.71-1.71,1.71L877,865.93l11,15.16c.94,1.28,3.11,0,2.16-1.27L812.44,773l-11-15.15-1.71,1.71,80.62,57.55L892,825.38c1.31.93,2.56-1.23,1.26-2.16Z"/><path class="h" d="M801.55,758.77,818,672.59l2.36-12.4-1.54.87,72.28,28.66,10.24,4.06c1.49.59,2.14-1.83.66-2.41l-72.28-28.66-10.23-4.06a1.25,1.25,0,0,0-1.54.87L801.51,745.7l-2.37,12.41c-.3,1.57,2.11,2.24,2.41.66Z"/><path class="k" d="M801,759.52l88.76-57.72,12.53-8.15c1.35-.87.09-3-1.26-2.16l-88.76,57.72-12.53,8.15c-1.35.87-.09,3,1.26,2.16Z"/><path class="f" d="M450.32,1103.71l3.69-56.46a1.24,1.24,0,0,0-1.25-1.25l-83-1.1-11.77-.16a1.26,1.26,0,0,0-1.25,1.25l5.71,84.78.82,12.29c.11,1.6,2.61,1.61,2.5,0l-5.7-84.78-.83-12.29-1.25,1.25,83,1.1,11.77.16-1.25-1.25-3.69,56.46c-.11,1.61,2.39,1.6,2.5,0Z"/><path class="g" d="M448.44,1104.79l103.78,60.92,15,8.8a1.25,1.25,0,0,0,1.51-2L530,1130.1,467.89,1062l-14.24-15.62c-1.09-1.19-2.85.58-1.77,1.77l38.71,42.45,62.12,68.12L567,1174.31l1.52-2-103.78-60.92-15-8.79a1.25,1.25,0,0,0-1.26,2.15Z"/><path class="e" d="M500.85,922.77l39.73,29.88v-2.16l-74,34.3-10.61,4.91,1.71,1.71,44.91-69.09c.88-1.35-1.28-2.61-2.16-1.26l-44.91,69.09c-.74,1.14.67,2.19,1.71,1.71l74-34.3,10.61-4.91c.94-.44.67-1.66,0-2.16l-39.73-29.88C500.83,919.64,499.58,921.81,500.85,922.77Z"/><path class="l" d="M455.32,990.78l-3.81,56.47a1.28,1.28,0,0,0,1.25,1.25l106.18,4.76,15,.68a1.25,1.25,0,0,0,1.2-1.58L546.53,964l-4.12-12.73c-.49-1.52-2.9-.87-2.41.67l28.61,88.39,4.11,12.73,1.21-1.58-106.18-4.77-15-.67,1.25,1.25,3.81-56.47c.1-1.6-2.4-1.6-2.5,0Z"/><path class="m" d="M457.2,989.7l-78.85-34.39-11.47-5a1.26,1.26,0,0,0-1.51,2L441,1036.09l10.87,12c1.08,1.2,2.84-.58,1.77-1.77L378,962.54l-10.86-12-1.52,2,78.85,34.4,11.47,5c1.46.64,2.73-1.51,1.26-2.16Z"/><path class="h" d="M367.46,951.72,382.18,842.3l2.1-15.63-1.53.88L455,856.2l10.24,4.06c1.5.6,2.15-1.82.67-2.41l-72.28-28.66-10.24-4.06a1.27,1.27,0,0,0-1.54.88L367.15,935.42l-2.1,15.63c-.22,1.58,2.19,2.26,2.41.67Z"/><path class="i" d="M565.5,901l25.56,53.72,1.07-1.88-50.92-2.5c-1.61-.08-1.61,2.42,0,2.5l50.92,2.5a1.26,1.26,0,0,0,1.08-1.88l-25.55-53.72c-.69-1.46-2.85-.19-2.16,1.26Z"/><path class="j" d="M465.26,860.26l88.52,36.2,12.47,5.09v-2.41l-58.39,19.14-4.64,1.53c-.27.08-1.24.22-1.43.46-1.1,1.37-.24-2.87.76.77-.58-2.11-2.55-4.46-3.63-6.33L480.7,882.9l-14-24.47a1.25,1.25,0,0,0-2.16,1.26l35.88,62.63a1.26,1.26,0,0,0,1.41.57l65.1-21.34a1.26,1.26,0,0,0,0-2.41L478.39,863l-12.46-5.1C464.44,857.24,463.79,859.66,465.26,860.26Z"/><path class="k" d="M367.14,952.27l87-80.83,12.37-11.5c1.18-1.1-.59-2.86-1.77-1.77l-87,80.83-12.37,11.5c-1.18,1.1.59,2.86,1.77,1.77Z"/><path class="e" d="M709.55,1050.26l39.72,29.88V1078l-74,34.3-10.61,4.91,1.71,1.71,44.92-69.09c.88-1.35-1.29-2.61-2.16-1.26l-44.92,69.09c-.74,1.14.67,2.2,1.71,1.71l74-34.3,10.62-4.91c.94-.44.66-1.66,0-2.16l-39.73-29.88C709.52,1047.13,708.27,1049.3,709.55,1050.26Z"/><path class="n" d="M664,1118.27l-3.56,56.16a1.26,1.26,0,0,0,1.25,1.25l82.66,1.49,11.89.22a1.25,1.25,0,0,0,1.25-1.25L752,1091.35l-.81-12.29c-.1-1.6-2.6-1.61-2.5,0l5.55,84.79.8,12.29,1.25-1.25-82.66-1.49-11.89-.22,1.25,1.25,3.56-56.16c.1-1.6-2.4-1.6-2.5,0Z"/><path class="o" d="M665.89,1117.19l-80.61-57.54-11.65-8.32c-1-.71-2.43.72-1.71,1.72l77.68,106.86,11,15.15c.93,1.29,3.1,0,2.15-1.26l-77.68-106.87-11-15.15-1.71,1.71L653,1111l11.64,8.31c1.31.94,2.56-1.23,1.26-2.16Z"/><path class="h" d="M574.21,1052.75l16.41-86.18L593,954.16l-1.54.88,72.28,28.65L674,987.75c1.5.6,2.15-1.82.66-2.41l-72.27-28.65-10.24-4.06a1.25,1.25,0,0,0-1.54.87l-16.41,86.18-2.36,12.4c-.3,1.57,2.11,2.25,2.41.67Z"/><path class="i" d="M774.2,1028.85l25.55,53.34,1.08-1.88-50.93-2.5c-1.6-.08-1.6,2.42,0,2.5l50.93,2.5a1.26,1.26,0,0,0,1.08-1.88l-25.56-53.34c-.69-1.45-2.85-.18-2.15,1.26Z"/><path class="j" d="M674,987.75l88.52,36.53,12.46,5.15V1027l-58.38,18.79-4.65,1.5c-.26.09-1.23.22-1.43.46-1.1,1.36-.23-2.86.77.76-.58-2.11-2.56-4.46-3.63-6.33l-18.23-31.81-14-24.47a1.25,1.25,0,0,0-2.16,1.26l35.89,62.63a1.28,1.28,0,0,0,1.41.58l65.1-21a1.26,1.26,0,0,0,0-2.41l-88.52-36.53-12.47-5.15C673.14,984.73,672.49,987.15,674,987.75Z"/><path class="k" d="M573.63,1053.49l88.77-57.72,12.52-8.14c1.35-.88.1-3-1.26-2.16l-88.76,57.72-12.53,8.14c-1.34.88-.09,3,1.26,2.16Z"/></g><g class="p"><path class="q" d="M868.59,1050.39V30.31a30.09,30.09,0,0,0-30-30h-30.5a30.09,30.09,0,0,1,30,30V1050.39a30.09,30.09,0,0,1-30,30h30.5a30.09,30.09,0,0,0,30-30"/></g></svg>