<svg xmlns="http://www.w3.org/2000/svg" xmlns:xlink="http://www.w3.org/1999/xlink" viewBox="0 0 792 612"><defs><style>.a,.d,.e{fill:none;}.b{fill:#333;}.c{clip-path:url(#a);}.d{stroke:#424142;stroke-width:0.6px;}.e{stroke:red;stroke-width:0.9px;}</style><clipPath id="a" transform="translate(0)"><rect class="a" width="792" height="612"/></clipPath></defs><title>Black</title><rect class="b" width="792" height="612"/><g class="c"><line class="d" x1="792" y1="14.17" y2="14.17"/><line class="d" x1="792" y1="28.35" y2="28.35"/><line class="d" x1="792" y1="42.52" y2="42.52"/><line class="d" x1="792" y1="56.69" y2="56.69"/><line class="d" x1="792" y1="70.87" y2="70.87"/><line class="d" x1="792" y1="85.04" y2="85.04"/><line class="d" x1="792" y1="99.21" y2="99.21"/><line class="d" x1="792" y1="113.39" y2="113.39"/><line class="d" x1="792" y1="127.56" y2="127.56"/><line class="d" x1="792" y1="141.73" y2="141.73"/><line class="d" x1="792" y1="155.91" y2="155.91"/><line class="d" x1="792" y1="170.08" y2="170.08"/><line class="d" x1="792" y1="184.25" y2="184.25"/><line class="d" x1="792" y1="198.43" y2="198.43"/><line class="d" x1="792" y1="212.6" y2="212.6"/><line class="d" x1="792" y1="226.77" y2="226.77"/><line class="d" x1="792" y1="240.94" y2="240.94"/><line class="d" x1="792" y1="255.12" y2="255.12"/><line class="d" x1="792" y1="269.29" y2="269.29"/><line class="d" x1="792" y1="283.46" y2="283.46"/><line class="d" x1="792" y1="297.64" y2="297.64"/><line class="d" x1="792" y1="311.81" y2="311.81"/><line class="d" x1="792" y1="325.98" y2="325.98"/><line class="d" x1="792" y1="340.16" y2="340.16"/><line class="d" x1="792" y1="354.33" y2="354.33"/><line class="d" x1="792" y1="368.5" y2="368.5"/><line class="d" x1="792" y1="382.68" y2="382.68"/><line class="d" x1="792" y1="396.85" y2="396.85"/><line class="d" x1="792" y1="411.02" y2="411.02"/><line class="d" x1="792" y1="425.2" y2="425.2"/><line class="d" x1="792" y1="439.37" y2="439.37"/><line class="d" x1="792" y1="453.54" y2="453.54"/><line class="d" x1="792" y1="467.72" y2="467.72"/><line class="d" x1="792" y1="481.89" y2="481.89"/><line class="d" x1="792" y1="496.06" y2="496.06"/><line class="d" x1="792" y1="510.24" y2="510.24"/><line class="d" x1="792" y1="524.41" y2="524.41"/><line class="d" x1="792" y1="538.58" y2="538.58"/><line class="d" x1="792" y1="552.76" y2="552.76"/><line class="d" x1="792" y1="566.93" y2="566.93"/><line class="d" x1="792" y1="581.1" y2="581.1"/><line class="d" x1="792" y1="595.28" y2="595.28"/><line class="d" x1="792" y1="609.45" y2="609.45"/><line class="d" x1="777.83" x2="777.83" y2="612"/><line class="d" x1="763.65" x2="763.65" y2="612"/><line class="d" x1="749.48" x2="749.48" y2="612"/><line class="d" x1="735.31" x2="735.31" y2="612"/><line class="d" x1="721.13" x2="721.13" y2="612"/><line class="d" x1="706.96" x2="706.96" y2="612"/><line class="d" x1="692.79" x2="692.79" y2="612"/><line class="d" x1="678.61" x2="678.61" y2="612"/><line class="d" x1="664.44" x2="664.44" y2="612"/><line class="d" x1="650.27" x2="650.27" y2="612"/><line class="d" x1="636.09" x2="636.09" y2="612"/><line class="d" x1="621.92" x2="621.92" y2="612"/><line class="d" x1="607.75" x2="607.75" y2="612"/><line class="d" x1="593.57" x2="593.57" y2="612"/><line class="d" x1="579.4" x2="579.4" y2="612"/><line class="d" x1="565.23" x2="565.23" y2="612"/><line class="d" x1="551.06" x2="551.06" y2="612"/><line class="d" x1="536.88" x2="536.88" y2="612"/><line class="d" x1="522.71" x2="522.71" y2="612"/><line class="d" x1="508.54" x2="508.54" y2="612"/><line class="d" x1="494.36" x2="494.36" y2="612"/><line class="d" x1="480.19" x2="480.19" y2="612"/><line class="d" x1="466.02" x2="466.02" y2="612"/><line class="d" x1="451.84" x2="451.84" y2="612"/><line class="d" x1="437.67" x2="437.67" y2="612"/><line class="d" x1="423.5" x2="423.5" y2="612"/><line class="d" x1="409.32" x2="409.32" y2="612"/><line class="d" x1="395.15" x2="395.15" y2="612"/><line class="d" x1="380.98" x2="380.98" y2="612"/><line class="d" x1="366.8" x2="366.8" y2="612"/><line class="d" x1="352.63" x2="352.63" y2="612"/><line class="d" x1="338.46" x2="338.46" y2="612"/><line class="d" x1="324.28" x2="324.28" y2="612"/><line class="d" x1="310.11" x2="310.11" y2="612"/><line class="d" x1="295.94" x2="295.94" y2="612"/><line class="d" x1="281.76" x2="281.76" y2="612"/><line class="d" x1="267.59" x2="267.59" y2="612"/><line class="d" x1="253.42" x2="253.42" y2="612"/><line class="d" x1="239.24" x2="239.24" y2="612"/><line class="d" x1="225.07" x2="225.07" y2="612"/><line class="d" x1="210.9" x2="210.9" y2="612"/><line class="d" x1="196.72" x2="196.72" y2="612"/><line class="d" x1="182.55" x2="182.55" y2="612"/><line class="d" x1="168.38" x2="168.38" y2="612"/><line class="d" x1="154.2" x2="154.2" y2="612"/><line class="d" x1="140.03" x2="140.03" y2="612"/><line class="d" x1="125.86" x2="125.86" y2="612"/><line class="d" x1="111.68" x2="111.68" y2="612"/><line class="d" x1="97.51" x2="97.51" y2="612"/><line class="d" x1="83.34" x2="83.34" y2="612"/><path class="d" d="M69.17,612" transform="translate(0)"/><path class="d" d="M69.17,0" transform="translate(0)"/><path class="d" d="M55,612" transform="translate(0)"/><path class="d" d="M55,0" transform="translate(0)"/><path class="d" d="M40.82,612" transform="translate(0)"/><path class="d" d="M40.82,0" transform="translate(0)"/><path class="d" d="M26.65,612" transform="translate(0)"/><path class="d" d="M26.65,0" transform="translate(0)"/><path class="d" d="M12.47,612" transform="translate(0)"/><path class="d" d="M12.47,0" transform="translate(0)"/><line class="e" x1="83.49" x2="83.49" y2="612"/></g></svg>