<svg xmlns="http://www.w3.org/2000/svg" xmlns:xlink="http://www.w3.org/1999/xlink" viewBox="0 0 792 612"><defs><style>.a,.c,.d,.j,.k{fill:none;}.b{fill:#fcfcfc;}.c,.d,.k{stroke:#d4d4d4;}.c,.d{stroke-linecap:round;stroke-linejoin:round;stroke-width:1.5px;}.c{stroke-dasharray:0 4.52;}.e{font-size:8px;font-family:HelveticaNowText-Regular, HelveticaNowText Regular;}.e,.i{fill:#303030;}.f{letter-spacing:-0.04em;}.g{letter-spacing:-0.02em;}.h{clip-path:url(#a);}.j{stroke:#303030;}.j,.k{stroke-width:0.6px;}.l{letter-spacing:-0.02em;}.m{letter-spacing:-0.03em;}</style><clipPath id="a" transform="translate(0)"><rect class="a" x="-9" y="-7" width="810" height="620"/></clipPath></defs><title>White</title><rect class="b" width="792" height="612"/><line class="c" x1="58.58" y1="36.27" x2="58.58" y2="598.5"/><path class="d" d="M58.58,600.76h0m0-569h0" transform="translate(0)"/><line class="c" x1="82.53" y1="36.27" x2="82.53" y2="598.5"/><path class="d" d="M82.53,600.76h0m0-569h0" transform="translate(0)"/><line class="c" x1="106.48" y1="36.27" x2="106.48" y2="598.5"/><path class="d" d="M106.48,600.76h0m0-569h0" transform="translate(0)"/><line class="c" x1="130.43" y1="36.27" x2="130.43" y2="598.5"/><path class="d" d="M130.43,600.76h0m0-569h0" transform="translate(0)"/><line class="c" x1="154.38" y1="36.27" x2="154.38" y2="598.5"/><path class="d" d="M154.38,600.76h0m0-569h0" transform="translate(0)"/><line class="c" x1="178.33" y1="36.27" x2="178.33" y2="598.5"/><path class="d" d="M178.33,600.76h0m0-569h0" transform="translate(0)"/><line class="c" x1="202.28" y1="36.27" x2="202.28" y2="598.5"/><path class="d" d="M202.28,600.76h0m0-569h0" transform="translate(0)"/><line class="c" x1="226.23" y1="36.27" x2="226.23" y2="598.5"/><path class="d" d="M226.23,600.76h0m0-569h0" transform="translate(0)"/><line class="c" x1="250.18" y1="36.27" x2="250.18" y2="598.5"/><path class="d" d="M250.18,600.76h0m0-569h0" transform="translate(0)"/><line class="c" x1="274.13" y1="36.27" x2="274.13" y2="598.5"/><path class="d" d="M274.13,600.76h0m0-569h0" transform="translate(0)"/><line class="c" x1="298.08" y1="36.27" x2="298.08" y2="598.5"/><path class="d" d="M298.08,600.76h0m0-569h0" transform="translate(0)"/><line class="c" x1="322.03" y1="36.27" x2="322.03" y2="598.5"/><path class="d" d="M322,600.76h0m0-569h0" transform="translate(0)"/><line class="c" x1="345.98" y1="36.27" x2="345.98" y2="598.5"/><path class="d" d="M346,600.76h0m0-569h0" transform="translate(0)"/><line class="c" x1="369.93" y1="36.27" x2="369.93" y2="598.5"/><path class="d" d="M369.93,600.76h0m0-569h0" transform="translate(0)"/><line class="c" x1="393.88" y1="36.27" x2="393.88" y2="598.5"/><path class="d" d="M393.88,600.76h0m0-569h0" transform="translate(0)"/><line class="c" x1="417.83" y1="36.27" x2="417.83" y2="598.5"/><path class="d" d="M417.83,600.76h0m0-569h0" transform="translate(0)"/><line class="c" x1="441.78" y1="36.27" x2="441.78" y2="598.5"/><path class="d" d="M441.78,600.76h0m0-569h0" transform="translate(0)"/><line class="c" x1="465.73" y1="36.27" x2="465.73" y2="598.5"/><path class="d" d="M465.73,600.76h0m0-569h0" transform="translate(0)"/><line class="c" x1="489.68" y1="36.27" x2="489.68" y2="598.5"/><path class="d" d="M489.68,600.76h0m0-569h0" transform="translate(0)"/><line class="c" x1="513.63" y1="36.27" x2="513.63" y2="598.5"/><path class="d" d="M513.63,600.76h0m0-569h0" transform="translate(0)"/><line class="c" x1="537.58" y1="36.27" x2="537.58" y2="598.5"/><path class="d" d="M537.58,600.76h0m0-569h0" transform="translate(0)"/><line class="c" x1="561.53" y1="36.27" x2="561.53" y2="598.5"/><path class="d" d="M561.53,600.76h0m0-569h0" transform="translate(0)"/><line class="c" x1="585.48" y1="36.27" x2="585.48" y2="598.5"/><path class="d" d="M585.48,600.76h0m0-569h0" transform="translate(0)"/><line class="c" x1="609.43" y1="36.27" x2="609.43" y2="598.5"/><path class="d" d="M609.43,600.76h0m0-569h0" transform="translate(0)"/><line class="c" x1="633.38" y1="36.27" x2="633.38" y2="598.5"/><path class="d" d="M633.38,600.76h0m0-569h0" transform="translate(0)"/><line class="c" x1="657.33" y1="36.27" x2="657.33" y2="598.5"/><path class="d" d="M657.33,600.76h0m0-569h0" transform="translate(0)"/><line class="c" x1="681.28" y1="36.27" x2="681.28" y2="598.5"/><path class="d" d="M681.28,600.76h0m0-569h0" transform="translate(0)"/><line class="c" x1="705.23" y1="36.27" x2="705.23" y2="598.5"/><path class="d" d="M705.23,600.76h0m0-569h0" transform="translate(0)"/><line class="c" x1="729.18" y1="36.27" x2="729.18" y2="598.5"/><path class="d" d="M729.18,600.76h0m0-569h0" transform="translate(0)"/><line class="c" x1="753.13" y1="36.27" x2="753.13" y2="598.5"/><path class="d" d="M753.13,600.76h0m0-569h0" transform="translate(0)"/><line class="c" x1="777.08" y1="36.27" x2="777.08" y2="598.5"/><path class="d" d="M777.08,600.76h0m0-569h0" transform="translate(0)"/><text class="e" transform="translate(11.01 58.28)">01</text><text class="e" transform="translate(10.25 81.54)">02</text><text class="e" transform="translate(10.25 104.8)">03</text><text class="e" transform="translate(10.25 128.07)">04</text><text class="e" transform="translate(10.25 151.33)">05</text><text class="e" transform="translate(10.25 174.6)">06</text><text class="e" transform="translate(10.41 197.86)"><tspan class="f">0</tspan><tspan x="3.79" y="0">7</tspan></text><text class="e" transform="translate(10.25 221.12)">08</text><text class="e" transform="translate(10.25 244.39)">09</text><text class="e" transform="translate(11.01 267.65)">10</text><text class="e" transform="translate(11.77 290.92)">11</text><text class="e" transform="translate(11.01 314.18)">12</text><text class="e" transform="translate(11.01 337.44)">13</text><text class="e" transform="translate(11.01 360.71)">14</text><text class="e" transform="translate(11.01 383.97)">15</text><text class="e" transform="translate(11.01 407.24)">16</text><text class="e" transform="translate(11.09 430.5)"><tspan class="g">1</tspan><tspan x="3.95" y="0">7</tspan></text><text class="e" transform="translate(11.01 453.76)">18</text><text class="e" transform="translate(11.01 477.03)">19</text><text class="e" transform="translate(10.25 500.29)">20</text><text class="e" transform="translate(11.01 523.56)">21</text><text class="e" transform="translate(10.25 546.82)">22</text><text class="e" transform="translate(10.25 570.08)">23</text><text class="e" transform="translate(10.25 593.35)">24</text><g class="h"><path class="i" d="M13.78,596.65a5.74,5.74,0,1,0,6.94,8.28,5.65,5.65,0,0,1-2,.35A5.74,5.74,0,0,1,13,599.54a5.66,5.66,0,0,1,.78-2.89" transform="translate(0)"/></g><line class="j" x1="36" y1="28.65" x2="177.73" y2="28.65"/><g class="h"><path class="i" d="M15.37,43.73a4,4,0,1,0-4-4,4,4,0,0,0,4,4" transform="translate(0)"/></g><rect class="i" x="14.88" y="31.43" width="0.95" height="3.33"/><polygon class="i" points="9.61 33.7 9.61 33.7 11.75 36.26 12.48 35.64 10.34 33.09 9.61 33.7"/><polygon class="i" points="7.09 38.77 7.09 38.77 10.37 39.34 10.53 38.41 7.25 37.83 7.09 38.77"/><polygon class="i" points="8.38 44.31 8.38 44.31 11.26 42.65 10.79 41.83 7.91 43.49 8.38 44.31"/><polygon class="i" points="12.93 47.76 12.93 47.76 14.07 44.63 13.18 44.3 12.04 47.43 12.93 47.76"/><polygon class="i" points="18.67 47.44 18.67 47.44 17.53 44.31 16.64 44.63 17.78 47.76 18.67 47.44"/><polygon class="i" points="22.82 43.53 22.82 43.53 19.94 41.86 19.47 42.69 22.35 44.35 22.82 43.53"/><polygon class="i" points="23.48 37.81 23.48 37.81 20.2 38.38 20.36 39.32 23.64 38.74 23.48 37.81"/><polygon class="i" points="20.35 33.07 20.35 33.07 18.21 35.62 18.94 36.23 21.08 33.68 20.35 33.07"/><line class="j" x1="28.65" y1="298.6" x2="28.65" y2="42.77"/><line class="j" x1="28.38" y1="298.89" x2="31.77" y2="298.89"/><line class="j" x1="28.38" y1="275.63" x2="31.77" y2="275.63"/><line class="j" x1="28.38" y1="252.38" x2="31.77" y2="252.38"/><line class="j" x1="28.38" y1="229.12" x2="31.77" y2="229.12"/><line class="j" x1="28.38" y1="205.86" x2="31.77" y2="205.86"/><line class="j" x1="28.38" y1="182.61" x2="31.77" y2="182.61"/><line class="j" x1="28.38" y1="159.35" x2="31.77" y2="159.35"/><line class="j" x1="28.38" y1="136.1" x2="31.77" y2="136.1"/><line class="j" x1="28.38" y1="112.84" x2="31.77" y2="112.84"/><line class="j" x1="28.38" y1="66.33" x2="31.77" y2="66.33"/><line class="j" x1="28.38" y1="89.58" x2="31.77" y2="89.58"/><line class="j" x1="28.38" y1="43.07" x2="31.77" y2="43.07"/><line class="k" x1="33.52" y1="43.07" x2="777.26" y2="43.07"/><line class="k" x1="35.45" y1="66.33" x2="777.09" y2="66.33"/><line class="k" x1="35.45" y1="89.58" x2="777.09" y2="89.58"/><line class="k" x1="35.45" y1="112.84" x2="777.09" y2="112.84"/><line class="k" x1="35.45" y1="136.1" x2="777.09" y2="136.1"/><line class="k" x1="35.45" y1="159.35" x2="777.09" y2="159.35"/><line class="k" x1="35.45" y1="182.61" x2="777.09" y2="182.61"/><line class="k" x1="35.45" y1="205.86" x2="777.09" y2="205.86"/><line class="k" x1="35.45" y1="229.12" x2="777.09" y2="229.12"/><line class="k" x1="35.45" y1="252.38" x2="777.09" y2="252.38"/><line class="k" x1="35.45" y1="275.63" x2="777.09" y2="275.63"/><line class="k" x1="35.45" y1="298.89" x2="777.09" y2="298.89"/><line class="k" x1="28.2" y1="322.14" x2="777.09" y2="322.14"/><line class="k" x1="35.45" y1="345.4" x2="777.09" y2="345.4"/><line class="k" x1="35.45" y1="368.65" x2="777.09" y2="368.65"/><line class="k" x1="35.45" y1="391.91" x2="777.09" y2="391.91"/><line class="k" x1="35.45" y1="415.17" x2="777.09" y2="415.17"/><line class="k" x1="35.45" y1="438.42" x2="777.09" y2="438.42"/><line class="k" x1="35.45" y1="461.68" x2="777.09" y2="461.68"/><line class="k" x1="35.45" y1="484.93" x2="777.09" y2="484.93"/><line class="k" x1="35.45" y1="508.19" x2="777.09" y2="508.19"/><line class="k" x1="35.45" y1="531.45" x2="777.09" y2="531.45"/><line class="k" x1="35.45" y1="554.7" x2="777.09" y2="554.7"/><line class="k" x1="35.45" y1="577.96" x2="777.09" y2="577.96"/><line class="k" x1="35.45" y1="601.21" x2="777.09" y2="601.21"/><line class="j" x1="28.65" y1="601.51" x2="28.65" y2="345.09"/><line class="j" x1="28.38" y1="601.21" x2="31.77" y2="601.21"/><line class="j" x1="28.38" y1="577.96" x2="31.77" y2="577.96"/><line class="j" x1="28.38" y1="554.7" x2="31.77" y2="554.7"/><line class="j" x1="28.38" y1="531.45" x2="31.77" y2="531.45"/><line class="j" x1="28.38" y1="508.19" x2="31.77" y2="508.19"/><line class="j" x1="28.38" y1="484.93" x2="31.77" y2="484.93"/><line class="j" x1="28.38" y1="461.68" x2="31.77" y2="461.68"/><line class="j" x1="28.38" y1="438.42" x2="31.77" y2="438.42"/><line class="j" x1="28.38" y1="415.17" x2="31.77" y2="415.17"/><line class="j" x1="28.38" y1="391.91" x2="31.77" y2="391.91"/><line class="j" x1="28.38" y1="345.4" x2="31.77" y2="345.4"/><line class="j" x1="28.38" y1="368.65" x2="31.77" y2="368.65"/><text class="e" transform="translate(43.66 40.17)">1</text><text class="e" transform="translate(66.91 40.17)">2</text><text class="e" transform="translate(90.92 40.17)">3</text><text class="e" transform="translate(114.94 40.17)">4</text><text class="e" transform="translate(138.96 40.17)">5</text><text class="e" transform="translate(162.97 40.17)">6</text><text class="e" transform="translate(186.99 40.17)">7</text><text class="e" transform="translate(211 40.17)">8</text><text class="e" transform="translate(235.02 40.17)">9</text><text class="e" transform="translate(257.23 40.17)">10</text><text class="e" transform="translate(282.01 40.17)">11</text><text class="e" transform="translate(305.26 40.17)">12</text><text class="e" transform="translate(329.27 40.17)">13</text><text class="e" transform="translate(353.29 40.17)">14</text><text class="e" transform="translate(377.31 40.17)">15</text><text class="e" transform="translate(401.32 40.17)">16</text><text class="e" transform="translate(425.42 40.17)"><tspan class="l">1</tspan><tspan x="3.95" y="0">7</tspan></text><text class="e" transform="translate(449.36 40.17)">18</text><text class="e" transform="translate(473.37 40.17)">19</text><text class="e" transform="translate(496.62 40.17)">20</text><text class="e" transform="translate(521.39 40.17)">21</text><text class="e" transform="translate(544.64 40.17)">22</text><text class="e" transform="translate(568.66 40.17)">23</text><text class="e" transform="translate(592.67 40.17)">24</text><text class="e" transform="translate(616.69 40.17)">25</text><text class="e" transform="translate(640.71 40.17)">26</text><text class="e" transform="translate(664.84 40.17)"><tspan class="m">2</tspan><tspan x="3.87" y="0">7</tspan></text><text class="e" transform="translate(688.74 40.17)">28</text><text class="e" transform="translate(712.75 40.17)">29</text><text class="e" transform="translate(736.77 40.17)">30</text><text class="e" transform="translate(761.55 40.17)">31</text></svg>