<svg xmlns="http://www.w3.org/2000/svg" xmlns:xlink="http://www.w3.org/1999/xlink" viewBox="0 0 613 793"><defs><style>.a,.d{fill:none;}.a,.b,.d{stroke:#424142;}.a,.b{stroke-miterlimit:10;}.b{fill:#333;}.c{clip-path:url(#a);}.d{stroke-width:0.6px;}</style><clipPath id="a" transform="translate(0.5 0.5)"><rect class="a" width="612" height="792"/></clipPath></defs><title>Black</title><rect class="b" x="0.5" y="0.5" width="612" height="792"/><g class="c"><line class="d" x1="0.5" y1="22.06" x2="612.5" y2="22.06"/><line class="d" x1="0.5" y1="43.32" x2="612.5" y2="43.32"/><line class="d" x1="0.5" y1="64.58" x2="612.5" y2="64.58"/><line class="d" x1="0.5" y1="85.84" x2="612.5" y2="85.84"/><line class="d" x1="0.5" y1="107.1" x2="612.5" y2="107.1"/><line class="d" x1="0.5" y1="128.36" x2="612.5" y2="128.36"/><line class="d" x1="0.5" y1="149.62" x2="612.5" y2="149.62"/><line class="d" x1="0.5" y1="170.88" x2="612.5" y2="170.88"/><line class="d" x1="0.5" y1="192.14" x2="612.5" y2="192.14"/><line class="d" x1="0.5" y1="213.4" x2="612.5" y2="213.4"/><line class="d" x1="0.5" y1="234.66" x2="612.5" y2="234.66"/><line class="d" x1="0.5" y1="255.92" x2="612.5" y2="255.92"/><line class="d" x1="0.5" y1="277.18" x2="612.5" y2="277.18"/><line class="d" x1="0.5" y1="298.44" x2="612.5" y2="298.44"/><line class="d" x1="0.5" y1="319.7" x2="612.5" y2="319.7"/><line class="d" x1="0.5" y1="340.96" x2="612.5" y2="340.96"/><line class="d" x1="0.5" y1="362.22" x2="612.5" y2="362.22"/><line class="d" x1="0.5" y1="383.48" x2="612.5" y2="383.48"/><line class="d" x1="0.5" y1="404.74" x2="612.5" y2="404.74"/><line class="d" x1="0.5" y1="426" x2="612.5" y2="426"/><line class="d" x1="0.5" y1="447.26" x2="612.5" y2="447.26"/><line class="d" x1="0.5" y1="468.52" x2="612.5" y2="468.52"/><line class="d" x1="0.5" y1="489.78" x2="612.5" y2="489.78"/><line class="d" x1="0.5" y1="511.04" x2="612.5" y2="511.04"/><line class="d" x1="0.5" y1="532.3" x2="612.5" y2="532.3"/><line class="d" x1="0.5" y1="553.56" x2="612.5" y2="553.56"/><line class="d" x1="0.5" y1="574.82" x2="612.5" y2="574.82"/><line class="d" x1="0.5" y1="596.08" x2="612.5" y2="596.08"/><line class="d" x1="0.5" y1="617.34" x2="612.5" y2="617.34"/><line class="d" x1="0.5" y1="638.6" x2="612.5" y2="638.6"/><line class="d" x1="0.5" y1="659.86" x2="612.5" y2="659.86"/><line class="d" x1="0.5" y1="681.12" x2="612.5" y2="681.12"/><line class="d" x1="0.5" y1="702.38" x2="612.5" y2="702.38"/><line class="d" x1="0.5" y1="723.64" x2="612.5" y2="723.64"/><line class="d" x1="0.5" y1="744.9" x2="612.5" y2="744.9"/><line class="d" x1="0.5" y1="766.16" x2="612.5" y2="766.16"/><line class="d" x1="0.5" y1="787.42" x2="612.5" y2="787.42"/></g><rect class="a" x="0.5" y="0.5" width="612" height="792"/></svg>