<svg xmlns="http://www.w3.org/2000/svg" xmlns:xlink="http://www.w3.org/1999/xlink" viewBox="0 0 612 792"><defs><style>.a,.d{fill:none;}.b{fill:#faf5e1;}.c{clip-path:url(#a);}.d{stroke:#d4d4d4;stroke-width:0.6px;}</style><clipPath id="a"><rect class="a" width="612" height="792"/></clipPath></defs><title>Yellow</title><rect class="b" width="612" height="792"/><g class="c"><line class="d" x1="7.39" x2="7.39" y2="792"/><line class="d" x1="14.47" x2="14.47" y2="792"/><line class="d" x1="21.56" x2="21.56" y2="792"/><line class="d" x1="28.65" x2="28.65" y2="792"/><line class="d" x1="35.73" x2="35.73" y2="792"/><line class="d" x1="42.82" x2="42.82" y2="792"/><line class="d" x1="49.91" x2="49.91" y2="792"/><line class="d" x1="56.99" x2="56.99" y2="792"/><line class="d" x1="64.08" x2="64.08" y2="792"/><line class="d" x1="71.17" x2="71.17" y2="792"/><line class="d" x1="78.25" x2="78.25" y2="792"/><line class="d" x1="85.34" x2="85.34" y2="792"/><line class="d" x1="92.43" x2="92.43" y2="792"/><line class="d" x1="99.51" x2="99.51" y2="792"/><line class="d" x1="106.6" x2="106.6" y2="792"/><line class="d" x1="113.69" x2="113.69" y2="792"/><line class="d" x1="120.77" x2="120.77" y2="792"/><line class="d" x1="127.86" x2="127.86" y2="792"/><line class="d" x1="134.95" x2="134.95" y2="792"/><line class="d" x1="142.03" x2="142.03" y2="792"/><line class="d" x1="149.12" x2="149.12" y2="792"/><line class="d" x1="156.21" x2="156.21" y2="792"/><line class="d" x1="163.29" x2="163.29" y2="792"/><line class="d" x1="170.38" x2="170.38" y2="792"/><line class="d" x1="177.47" x2="177.47" y2="792"/><line class="d" x1="184.55" x2="184.55" y2="792"/><line class="d" x1="191.64" x2="191.64" y2="792"/><line class="d" x1="198.73" x2="198.73" y2="792"/><line class="d" x1="205.81" x2="205.81" y2="792"/><line class="d" x1="212.9" x2="212.9" y2="792"/><line class="d" x1="219.99" x2="219.99" y2="792"/><line class="d" x1="227.07" x2="227.07" y2="792"/><line class="d" x1="234.16" x2="234.16" y2="792"/><line class="d" x1="241.24" x2="241.24" y2="792"/><line class="d" x1="248.33" x2="248.33" y2="792"/><line class="d" x1="255.42" x2="255.42" y2="792"/><line class="d" x1="262.5" x2="262.5" y2="792"/><line class="d" x1="269.59" x2="269.59" y2="792"/><line class="d" x1="276.68" x2="276.68" y2="792"/><line class="d" x1="283.76" x2="283.76" y2="792"/><line class="d" x1="290.85" x2="290.85" y2="792"/><line class="d" x1="297.94" x2="297.94" y2="792"/><line class="d" x1="305.02" x2="305.02" y2="792"/><line class="d" x1="312.11" x2="312.11" y2="792"/><line class="d" x1="319.2" x2="319.2" y2="792"/><line class="d" x1="326.28" x2="326.28" y2="792"/><line class="d" x1="333.37" x2="333.37" y2="792"/><line class="d" x1="340.46" x2="340.46" y2="792"/><line class="d" x1="347.54" x2="347.54" y2="792"/><line class="d" x1="354.63" x2="354.63" y2="792"/><line class="d" x1="361.72" x2="361.72" y2="792"/><line class="d" x1="368.8" x2="368.8" y2="792"/><line class="d" x1="375.89" x2="375.89" y2="792"/><line class="d" x1="382.98" x2="382.98" y2="792"/><line class="d" x1="390.06" x2="390.06" y2="792"/><line class="d" x1="397.15" x2="397.15" y2="792"/><line class="d" x1="404.24" x2="404.24" y2="792"/><line class="d" x1="411.32" x2="411.32" y2="792"/><line class="d" x1="418.41" x2="418.41" y2="792"/><line class="d" x1="425.5" x2="425.5" y2="792"/><line class="d" x1="432.58" x2="432.58" y2="792"/><line class="d" x1="439.67" x2="439.67" y2="792"/><line class="d" x1="446.76" x2="446.76" y2="792"/><line class="d" x1="453.84" x2="453.84" y2="792"/><line class="d" x1="460.93" x2="460.93" y2="792"/><line class="d" x1="468.02" x2="468.02" y2="792"/><line class="d" x1="475.1" x2="475.1" y2="792"/><line class="d" x1="482.19" x2="482.19" y2="792"/><line class="d" x1="489.28" x2="489.28" y2="792"/><line class="d" x1="496.36" x2="496.36" y2="792"/><line class="d" x1="503.45" x2="503.45" y2="792"/><line class="d" x1="510.54" x2="510.54" y2="792"/><line class="d" x1="517.62" x2="517.62" y2="792"/><line class="d" x1="524.71" x2="524.71" y2="792"/><line class="d" x1="531.8" x2="531.8" y2="792"/><line class="d" x1="538.88" x2="538.88" y2="792"/><line class="d" x1="545.97" x2="545.97" y2="792"/><line class="d" x1="553.06" x2="553.06" y2="792"/><line class="d" x1="560.14" x2="560.14" y2="792"/><line class="d" x1="567.23" x2="567.23" y2="792"/><line class="d" x1="574.32" x2="574.32" y2="792"/><line class="d" x1="581.4" x2="581.4" y2="792"/><line class="d" x1="588.49" x2="588.49" y2="792"/><line class="d" x1="595.58" x2="595.58" y2="792"/><line class="d" x1="602.66" x2="602.66" y2="792"/><line class="d" x1="609.75" x2="609.75" y2="792"/><line class="d" y1="6.79" x2="612" y2="6.79"/><line class="d" y1="13.87" x2="612" y2="13.87"/><line class="d" y1="20.96" x2="612" y2="20.96"/><line class="d" y1="28.05" x2="612" y2="28.05"/><line class="d" y1="35.13" x2="612" y2="35.13"/><line class="d" y1="42.22" x2="612" y2="42.22"/><line class="d" y1="49.31" x2="612" y2="49.31"/><line class="d" y1="56.39" x2="612" y2="56.39"/><line class="d" y1="63.48" x2="612" y2="63.48"/><line class="d" y1="70.57" x2="612" y2="70.57"/><line class="d" y1="77.65" x2="612" y2="77.65"/><line class="d" y1="84.74" x2="612" y2="84.74"/><line class="d" y1="91.83" x2="612" y2="91.83"/><line class="d" y1="98.91" x2="612" y2="98.91"/><line class="d" y1="106" x2="612" y2="106"/><line class="d" y1="113.09" x2="612" y2="113.09"/><line class="d" y1="120.17" x2="612" y2="120.17"/><line class="d" y1="127.26" x2="612" y2="127.26"/><line class="d" y1="134.35" x2="612" y2="134.35"/><line class="d" y1="141.43" x2="612" y2="141.43"/><line class="d" y1="148.52" x2="612" y2="148.52"/><line class="d" y1="155.61" x2="612" y2="155.61"/><line class="d" y1="162.69" x2="612" y2="162.69"/><line class="d" y1="169.78" x2="612" y2="169.78"/><line class="d" y1="176.87" x2="612" y2="176.87"/><line class="d" y1="183.95" x2="612" y2="183.95"/><line class="d" y1="191.04" x2="612" y2="191.04"/><line class="d" y1="198.13" x2="612" y2="198.13"/><line class="d" y1="205.21" x2="612" y2="205.21"/><line class="d" y1="212.3" x2="612" y2="212.3"/><line class="d" y1="219.39" x2="612" y2="219.39"/><line class="d" y1="226.47" x2="612" y2="226.47"/><line class="d" y1="233.56" x2="612" y2="233.56"/><line class="d" y1="240.64" x2="612" y2="240.64"/><line class="d" y1="247.73" x2="612" y2="247.73"/><line class="d" y1="254.82" x2="612" y2="254.82"/><line class="d" y1="261.9" x2="612" y2="261.9"/><line class="d" y1="268.99" x2="612" y2="268.99"/><line class="d" y1="276.08" x2="612" y2="276.08"/><line class="d" y1="283.16" x2="612" y2="283.16"/><line class="d" y1="290.25" x2="612" y2="290.25"/><line class="d" y1="297.34" x2="612" y2="297.34"/><line class="d" y1="304.42" x2="612" y2="304.42"/><line class="d" y1="311.51" x2="612" y2="311.51"/><line class="d" y1="318.6" x2="612" y2="318.6"/><line class="d" y1="325.68" x2="612" y2="325.68"/><line class="d" y1="332.77" x2="612" y2="332.77"/><line class="d" y1="339.86" x2="612" y2="339.86"/><line class="d" y1="346.94" x2="612" y2="346.94"/><line class="d" y1="354.03" x2="612" y2="354.03"/><line class="d" y1="361.12" x2="612" y2="361.12"/><line class="d" y1="368.2" x2="612" y2="368.2"/><line class="d" y1="375.29" x2="612" y2="375.29"/><line class="d" y1="382.38" x2="612" y2="382.38"/><line class="d" y1="389.46" x2="612" y2="389.46"/><line class="d" y1="396.55" x2="612" y2="396.55"/><line class="d" y1="403.64" x2="612" y2="403.64"/><line class="d" y1="410.72" x2="612" y2="410.72"/><line class="d" y1="417.81" x2="612" y2="417.81"/><line class="d" y1="424.9" x2="612" y2="424.9"/><line class="d" y1="431.98" x2="612" y2="431.98"/><line class="d" y1="439.07" x2="612" y2="439.07"/><line class="d" y1="446.16" x2="612" y2="446.16"/><line class="d" y1="453.24" x2="612" y2="453.24"/><line class="d" y1="460.33" x2="612" y2="460.33"/><line class="d" y1="467.42" x2="612" y2="467.42"/><line class="d" y1="474.5" x2="612" y2="474.5"/><line class="d" y1="481.59" x2="612" y2="481.59"/><line class="d" y1="488.68" x2="612" y2="488.68"/><line class="d" y1="495.76" x2="612" y2="495.76"/><line class="d" y1="502.85" x2="612" y2="502.85"/><line class="d" y1="509.94" x2="612" y2="509.94"/><line class="d" y1="517.02" x2="612" y2="517.02"/><line class="d" y1="524.11" x2="612" y2="524.11"/><line class="d" y1="531.2" x2="612" y2="531.2"/><line class="d" y1="538.28" x2="612" y2="538.28"/><line class="d" y1="545.37" x2="612" y2="545.37"/><line class="d" y1="552.46" x2="612" y2="552.46"/><line class="d" y1="559.54" x2="612" y2="559.54"/><line class="d" y1="566.63" x2="612" y2="566.63"/><line class="d" y1="573.72" x2="612" y2="573.72"/><line class="d" y1="580.8" x2="612" y2="580.8"/><line class="d" y1="587.89" x2="612" y2="587.89"/><line class="d" y1="594.98" x2="612" y2="594.98"/><line class="d" y1="602.06" x2="612" y2="602.06"/><line class="d" y1="609.15" x2="612" y2="609.15"/><line class="d" y1="616.24" x2="612" y2="616.24"/><line class="d" y1="623.32" x2="612" y2="623.32"/><line class="d" y1="630.41" x2="612" y2="630.41"/><line class="d" y1="637.5" x2="612" y2="637.5"/><line class="d" y1="644.58" x2="612" y2="644.58"/><line class="d" y1="651.67" x2="612" y2="651.67"/><line class="d" y1="658.76" x2="612" y2="658.76"/><line class="d" y1="665.84" x2="612" y2="665.84"/><line class="d" y1="672.93" x2="612" y2="672.93"/><line class="d" y1="680.01" x2="612" y2="680.01"/><line class="d" y1="687.1" x2="612" y2="687.1"/><line class="d" y1="694.19" x2="612" y2="694.19"/><line class="d" y1="701.27" x2="612" y2="701.27"/><line class="d" y1="708.36" x2="612" y2="708.36"/><line class="d" y1="715.45" x2="612" y2="715.45"/><line class="d" y1="722.53" x2="612" y2="722.53"/><line class="d" y1="729.62" x2="612" y2="729.62"/><line class="d" y1="736.71" x2="612" y2="736.71"/><line class="d" y1="743.79" x2="612" y2="743.79"/><line class="d" y1="750.88" x2="612" y2="750.88"/><line class="d" y1="757.97" x2="612" y2="757.97"/><line class="d" y1="765.05" x2="612" y2="765.05"/><line class="d" y1="772.14" x2="612" y2="772.14"/><line class="d" y1="779.23" x2="612" y2="779.23"/><line class="d" y1="786.31" x2="612" y2="786.31"/></g></svg>