<svg xmlns="http://www.w3.org/2000/svg" xmlns:xlink="http://www.w3.org/1999/xlink" viewBox="0 0 613 793"><defs><style>.a,.d,.e,.f{fill:none;}.a,.d{stroke:#d4d4d4;}.a{stroke-miterlimit:10;}.b{fill:#f7f7e2;}.c{clip-path:url(#a);}.d,.e,.f{stroke-width:0.6px;}.e{stroke:#424142;}.f{stroke:#303030;}</style><clipPath id="a" transform="translate(0.5 0.5)"><rect class="a" width="612" height="792"/></clipPath></defs><title>Yellow</title><rect class="b" x="0.5" y="0.5" width="612" height="792"/><g class="c"><line class="d" x1="0.5" y1="65.74" x2="612.5" y2="65.74"/><line class="d" x1="0.5" y1="87" x2="612.5" y2="87"/><line class="d" x1="0.5" y1="129.52" x2="612.5" y2="129.52"/><line class="d" x1="0.5" y1="108.55" x2="612.5" y2="108.55"/><line class="d" x1="0.5" y1="1.59" x2="612.5" y2="1.59"/><line class="d" x1="0.5" y1="22.85" x2="612.5" y2="22.85"/><path class="e" d="M612,77.28" transform="translate(0.5 0.5)"/><path class="e" d="M0,77.28" transform="translate(0.5 0.5)"/><line class="d" x1="0.5" y1="44.4" x2="612.5" y2="44.4"/><line class="d" x1="0.5" y1="150.78" x2="612.5" y2="150.78"/><line class="d" x1="0.5" y1="172.04" x2="612.5" y2="172.04"/><line class="d" x1="0.5" y1="193.3" x2="612.5" y2="193.3"/><line class="d" x1="0.5" y1="214.56" x2="612.5" y2="214.56"/><line class="d" x1="0.5" y1="235.82" x2="612.5" y2="235.82"/><line class="d" x1="0.5" y1="257.08" x2="612.5" y2="257.08"/><line class="d" x1="0.5" y1="278.34" x2="612.5" y2="278.34"/><line class="d" x1="0.5" y1="299.6" x2="612.5" y2="299.6"/><line class="d" x1="0.5" y1="320.86" x2="612.5" y2="320.86"/><line class="d" x1="0.5" y1="342.12" x2="612.5" y2="342.12"/><line class="d" x1="0.5" y1="363.38" x2="612.5" y2="363.38"/><line class="d" x1="0.5" y1="384.64" x2="612.5" y2="384.64"/><line class="d" x1="0.5" y1="405.9" x2="612.5" y2="405.9"/><line class="d" x1="0.5" y1="427.16" x2="612.5" y2="427.16"/><line class="d" x1="0.5" y1="448.42" x2="612.5" y2="448.42"/><line class="d" x1="0.5" y1="469.68" x2="612.5" y2="469.68"/><line class="d" x1="0.5" y1="490.94" x2="612.5" y2="490.94"/><line class="d" x1="0.5" y1="512.2" x2="612.5" y2="512.2"/><line class="d" x1="0.5" y1="533.46" x2="612.5" y2="533.46"/><line class="d" x1="0.5" y1="554.72" x2="612.5" y2="554.72"/><line class="d" x1="0.5" y1="575.98" x2="612.5" y2="575.98"/><line class="d" x1="0.5" y1="597.24" x2="612.5" y2="597.24"/><line class="d" x1="0.5" y1="639.76" x2="612.5" y2="639.76"/><line class="d" x1="0.5" y1="618.08" x2="612.5" y2="618.08"/><line class="d" x1="0.5" y1="661.02" x2="612.5" y2="661.02"/><line class="d" x1="0.5" y1="682.28" x2="612.5" y2="682.28"/><path class="d" d="M612,715.45" transform="translate(0.5 0.5)"/><path class="d" d="M0,715.45" transform="translate(0.5 0.5)"/><line class="d" x1="0.5" y1="703.63" x2="612.5" y2="703.63"/><line class="d" x1="0.5" y1="724.89" x2="612.5" y2="724.89"/><line class="d" x1="0.5" y1="746.15" x2="612.5" y2="746.15"/><line class="d" x1="0.5" y1="767.41" x2="612.5" y2="767.41"/><line class="d" x1="0.5" y1="788.83" x2="612.5" y2="788.83"/></g><rect class="a" x="0.5" y="0.5" width="612" height="792"/><line class="f" x1="185.05" y1="0.5" x2="185.05" y2="792.5"/></svg>