<svg xmlns="http://www.w3.org/2000/svg" viewBox="0 0 612 792"><defs><style>.a{fill:#333;}.b{fill:none;stroke:#424142;stroke-width:0.6px;}</style></defs><title>Black</title><rect class="a" width="612" height="792"/><line class="b" x1="35.43" y1="35.73" x2="576.57" y2="35.73"/><line class="b" x1="35.43" y1="56.99" x2="576.57" y2="56.99"/><line class="b" x1="35.43" y1="78.25" x2="576.57" y2="78.25"/><line class="b" x1="35.73" y1="78.38" x2="35.73" y2="35.43"/><line class="b" x1="78.25" y1="78.38" x2="78.25" y2="35.43"/><line class="b" x1="576.27" y1="78.38" x2="576.27" y2="35.43"/><line class="b" x1="491.23" y1="78.38" x2="491.23" y2="35.43"/><line class="b" x1="406.19" y1="78.38" x2="406.19" y2="35.43"/><line class="b" x1="321.15" y1="78.38" x2="321.15" y2="35.43"/><line class="b" x1="35.43" y1="735.01" x2="576.57" y2="735.01"/><line class="b" x1="35.43" y1="756.27" x2="576.57" y2="756.27"/><line class="b" x1="35.73" y1="756.39" x2="35.73" y2="735.45"/><line class="b" x1="78.25" y1="756.39" x2="78.25" y2="735.45"/><line class="b" x1="576.27" y1="756.39" x2="576.27" y2="735.45"/><line class="b" x1="491.23" y1="756.39" x2="491.23" y2="735.45"/><line class="b" x1="406.19" y1="756.39" x2="406.19" y2="735.45"/><line class="b" x1="321.15" y1="756.39" x2="321.15" y2="735.45"/><line class="b" x1="35.43" y1="88.34" x2="576.57" y2="88.34"/><line class="b" x1="35.43" y1="109.6" x2="576.57" y2="109.6"/><line class="b" x1="35.43" y1="130.86" x2="576.57" y2="130.86"/><line class="b" x1="35.43" y1="152.12" x2="576.57" y2="152.12"/><line class="b" x1="35.43" y1="173.38" x2="576.57" y2="173.38"/><line class="b" x1="35.43" y1="194.64" x2="576.57" y2="194.64"/><line class="b" x1="35.43" y1="215.9" x2="576.57" y2="215.9"/><line class="b" x1="35.43" y1="237.16" x2="576.57" y2="237.16"/><line class="b" x1="35.43" y1="258.42" x2="576.57" y2="258.42"/><line class="b" x1="35.43" y1="279.68" x2="576.57" y2="279.68"/><line class="b" x1="35.43" y1="300.94" x2="576.57" y2="300.94"/><line class="b" x1="35.43" y1="322.2" x2="576.57" y2="322.2"/><line class="b" x1="35.43" y1="343.46" x2="576.57" y2="343.46"/><line class="b" x1="35.43" y1="364.72" x2="576.57" y2="364.72"/><line class="b" x1="35.43" y1="385.98" x2="576.57" y2="385.98"/><line class="b" x1="35.43" y1="407.24" x2="576.57" y2="407.24"/><line class="b" x1="35.43" y1="428.5" x2="576.57" y2="428.5"/><line class="b" x1="35.43" y1="449.76" x2="576.57" y2="449.76"/><line class="b" x1="35.43" y1="471.02" x2="576.57" y2="471.02"/><line class="b" x1="35.43" y1="492.28" x2="576.57" y2="492.28"/><line class="b" x1="35.43" y1="513.54" x2="576.57" y2="513.54"/><line class="b" x1="35.43" y1="534.79" x2="576.57" y2="534.79"/><line class="b" x1="35.43" y1="556.05" x2="576.57" y2="556.05"/><line class="b" x1="35.43" y1="577.32" x2="576.57" y2="577.32"/><line class="b" x1="35.43" y1="598.58" x2="576.57" y2="598.58"/><line class="b" x1="35.43" y1="619.84" x2="576.57" y2="619.84"/><line class="b" x1="35.43" y1="641.1" x2="576.57" y2="641.1"/><line class="b" x1="35.43" y1="662.36" x2="576.57" y2="662.36"/><line class="b" x1="35.43" y1="683.62" x2="576.57" y2="683.62"/><line class="b" x1="35.43" y1="704.88" x2="576.57" y2="704.88"/><line class="b" x1="35.43" y1="726.13" x2="576.57" y2="726.13"/><line class="b" x1="35.73" y1="725.83" x2="35.73" y2="88.61"/><line class="b" x1="78.25" y1="725.83" x2="78.25" y2="88.61"/><line class="b" x1="576.27" y1="725.83" x2="576.27" y2="88.61"/><line class="b" x1="491.23" y1="725.83" x2="491.23" y2="88.61"/><line class="b" x1="406.19" y1="725.83" x2="406.19" y2="88.61"/><line class="b" x1="321.15" y1="725.83" x2="321.15" y2="88.61"/></svg>