<svg xmlns="http://www.w3.org/2000/svg" xmlns:xlink="http://www.w3.org/1999/xlink" viewBox="0 0 612 792"><defs><style>.a,.d{fill:none;}.b{fill:#333;}.c{clip-path:url(#a);}.d{stroke:#424142;stroke-width:0.6px;}</style><clipPath id="a"><rect class="a" width="612" height="792"/></clipPath></defs><title>Black</title><rect class="b" width="612" height="792"/><g class="c"><line class="d" y1="28.65" x2="612" y2="28.65"/><line class="d" y1="56.99" x2="612" y2="56.99"/><line class="d" y1="85.34" x2="612" y2="85.34"/><line class="d" y1="113.69" x2="612" y2="113.69"/><line class="d" y1="142.03" x2="612" y2="142.03"/><line class="d" y1="170.38" x2="612" y2="170.38"/><line class="d" y1="198.73" x2="612" y2="198.73"/><line class="d" y1="227.07" x2="612" y2="227.07"/><line class="d" y1="255.42" x2="612" y2="255.42"/><line class="d" y1="283.76" x2="612" y2="283.76"/><line class="d" y1="312.11" x2="612" y2="312.11"/><line class="d" y1="340.46" x2="612" y2="340.46"/><line class="d" y1="368.8" x2="612" y2="368.8"/><line class="d" y1="397.15" x2="612" y2="397.15"/><line class="d" y1="425.5" x2="612" y2="425.5"/><line class="d" y1="453.84" x2="612" y2="453.84"/><line class="d" y1="482.19" x2="612" y2="482.19"/><line class="d" y1="510.54" x2="612" y2="510.54"/><line class="d" y1="538.88" x2="612" y2="538.88"/><line class="d" y1="567.23" x2="612" y2="567.23"/><line class="d" y1="595.58" x2="612" y2="595.58"/><line class="d" y1="623.92" x2="612" y2="623.92"/><line class="d" y1="652.27" x2="612" y2="652.27"/><line class="d" y1="680.61" x2="612" y2="680.61"/><line class="d" y1="708.96" x2="612" y2="708.96"/><line class="d" y1="737.31" x2="612" y2="737.31"/><line class="d" y1="765.65" x2="612" y2="765.65"/></g></svg>