<svg xmlns="http://www.w3.org/2000/svg" xmlns:xlink="http://www.w3.org/1999/xlink" viewBox="0 0 612 792"><defs><style>.a{fill:none;}.b{fill:#333;}.c{clip-path:url(#a);}.d{fill:#424142;}</style><clipPath id="a"><rect class="a" width="612" height="792"/></clipPath></defs><title>Black</title><rect class="b" width="612" height="792"/><g class="c"><path class="d" d="M19,14a.71.71,0,1,0-.71-.71A.71.71,0,0,0,19,14"/><path class="d" d="M19,35.29a.71.71,0,1,0-.71-.71.71.71,0,0,0,.71.71"/><path class="d" d="M19,56.55a.71.71,0,1,0-.71-.71.71.71,0,0,0,.71.71"/><path class="d" d="M19,77.81a.71.71,0,1,0-.71-.71.71.71,0,0,0,.71.71"/><path class="d" d="M19,99.07a.71.71,0,1,0-.71-.71.71.71,0,0,0,.71.71"/><path class="d" d="M19,120.33a.71.71,0,1,0-.71-.71.71.71,0,0,0,.71.71"/><path class="d" d="M19,141.59a.71.71,0,1,0-.71-.71.71.71,0,0,0,.71.71"/><path class="d" d="M19,162.85a.71.71,0,1,0-.71-.71.71.71,0,0,0,.71.71"/><path class="d" d="M19,184.11a.71.71,0,1,0-.71-.71.71.71,0,0,0,.71.71"/><path class="d" d="M19,205.37a.71.71,0,1,0-.71-.71.71.71,0,0,0,.71.71"/><path class="d" d="M19,226.63a.71.71,0,1,0-.71-.71.71.71,0,0,0,.71.71"/><path class="d" d="M19,247.89a.71.71,0,1,0-.71-.71.71.71,0,0,0,.71.71"/><path class="d" d="M19,269.15a.71.71,0,1,0-.71-.71.71.71,0,0,0,.71.71"/><path class="d" d="M19,290.41a.71.71,0,1,0-.71-.71.71.71,0,0,0,.71.71"/><path class="d" d="M19,311.67a.71.71,0,1,0-.71-.71.71.71,0,0,0,.71.71"/><path class="d" d="M19,332.93a.71.71,0,1,0-.71-.71.71.71,0,0,0,.71.71"/><path class="d" d="M19,354.19a.71.71,0,1,0-.71-.71.71.71,0,0,0,.71.71"/><path class="d" d="M19,375.45a.71.71,0,1,0-.71-.71.71.71,0,0,0,.71.71"/><path class="d" d="M19,396.71a.71.71,0,1,0-.71-.71.71.71,0,0,0,.71.71"/><path class="d" d="M19,418a.71.71,0,1,0-.71-.71A.71.71,0,0,0,19,418"/><path class="d" d="M19,439.23a.71.71,0,1,0-.71-.71.71.71,0,0,0,.71.71"/><path class="d" d="M19,460.49a.71.71,0,1,0-.71-.71.71.71,0,0,0,.71.71"/><path class="d" d="M19,481.75a.71.71,0,1,0-.71-.71.71.71,0,0,0,.71.71"/><path class="d" d="M19,503a.71.71,0,1,0-.71-.71A.71.71,0,0,0,19,503"/><path class="d" d="M19,524.27a.71.71,0,1,0-.71-.71.71.71,0,0,0,.71.71"/><path class="d" d="M19,545.53a.71.71,0,1,0-.71-.71.71.71,0,0,0,.71.71"/><path class="d" d="M19,566.79a.71.71,0,1,0-.71-.71.71.71,0,0,0,.71.71"/><path class="d" d="M19,588.05a.71.71,0,1,0-.71-.71.71.71,0,0,0,.71.71"/><path class="d" d="M19,609.31a.71.71,0,1,0-.71-.71.71.71,0,0,0,.71.71"/><path class="d" d="M19,630.57a.71.71,0,1,0-.71-.71.71.71,0,0,0,.71.71"/><path class="d" d="M19,651.83a.71.71,0,1,0-.71-.71.71.71,0,0,0,.71.71"/><path class="d" d="M19,673.09a.71.71,0,1,0-.71-.71.71.71,0,0,0,.71.71"/><path class="d" d="M19,694.35a.71.71,0,1,0-.71-.71.71.71,0,0,0,.71.71"/><path class="d" d="M19,715.61a.71.71,0,1,0-.71-.71.71.71,0,0,0,.71.71"/><path class="d" d="M19,736.87a.71.71,0,1,0-.71-.71.71.71,0,0,0,.71.71"/><path class="d" d="M19,758.13a.71.71,0,1,0-.71-.71.71.71,0,0,0,.71.71"/><path class="d" d="M19,779.39a.71.71,0,1,0-.71-.71.71.71,0,0,0,.71.71"/><path class="d" d="M40.25,14a.71.71,0,1,0-.71-.71.71.71,0,0,0,.71.71"/><path class="d" d="M40.25,35.29a.71.71,0,1,0-.71-.71.71.71,0,0,0,.71.71"/><path class="d" d="M40.25,56.55a.71.71,0,1,0-.71-.71.71.71,0,0,0,.71.71"/><path class="d" d="M40.25,77.81a.71.71,0,1,0-.71-.71.71.71,0,0,0,.71.71"/><path class="d" d="M40.25,99.07a.71.71,0,1,0-.71-.71.71.71,0,0,0,.71.71"/><path class="d" d="M40.25,120.33a.71.71,0,1,0-.71-.71.71.71,0,0,0,.71.71"/><path class="d" d="M40.25,141.59a.71.71,0,1,0-.71-.71.71.71,0,0,0,.71.71"/><path class="d" d="M40.25,162.85a.71.71,0,1,0-.71-.71.71.71,0,0,0,.71.71"/><path class="d" d="M40.25,184.11a.71.71,0,1,0-.71-.71.71.71,0,0,0,.71.71"/><path class="d" d="M40.25,205.37a.71.71,0,1,0-.71-.71.71.71,0,0,0,.71.71"/><path class="d" d="M40.25,226.63a.71.71,0,1,0-.71-.71.71.71,0,0,0,.71.71"/><path class="d" d="M40.25,247.89a.71.71,0,1,0-.71-.71.71.71,0,0,0,.71.71"/><path class="d" d="M40.25,269.15a.71.71,0,1,0-.71-.71.71.71,0,0,0,.71.71"/><path class="d" d="M40.25,290.41a.71.71,0,1,0-.71-.71.71.71,0,0,0,.71.71"/><path class="d" d="M40.25,311.67a.71.71,0,1,0-.71-.71.71.71,0,0,0,.71.71"/><path class="d" d="M40.25,332.93a.71.71,0,1,0-.71-.71.71.71,0,0,0,.71.71"/><path class="d" d="M40.25,354.19a.71.71,0,1,0-.71-.71.71.71,0,0,0,.71.71"/><path class="d" d="M40.25,375.45a.71.71,0,1,0-.71-.71.71.71,0,0,0,.71.71"/><path class="d" d="M40.25,396.71a.71.71,0,1,0-.71-.71.71.71,0,0,0,.71.71"/><path class="d" d="M40.25,418a.71.71,0,1,0-.71-.71.71.71,0,0,0,.71.71"/><path class="d" d="M40.25,439.23a.71.71,0,1,0-.71-.71.71.71,0,0,0,.71.71"/><path class="d" d="M40.25,460.49a.71.71,0,1,0-.71-.71.71.71,0,0,0,.71.71"/><path class="d" d="M40.25,481.75a.71.71,0,1,0-.71-.71.71.71,0,0,0,.71.71"/><path class="d" d="M40.25,503a.71.71,0,1,0-.71-.71.71.71,0,0,0,.71.71"/><path class="d" d="M40.25,524.27a.71.71,0,1,0-.71-.71.71.71,0,0,0,.71.71"/><path class="d" d="M40.25,545.53a.71.71,0,1,0-.71-.71.71.71,0,0,0,.71.71"/><path class="d" d="M40.25,566.79a.71.71,0,1,0-.71-.71.71.71,0,0,0,.71.71"/><path class="d" d="M40.25,588.05a.71.71,0,1,0-.71-.71.71.71,0,0,0,.71.71"/><path class="d" d="M40.25,609.31a.71.71,0,1,0-.71-.71.71.71,0,0,0,.71.71"/><path class="d" d="M40.25,630.57a.71.71,0,1,0-.71-.71.71.71,0,0,0,.71.71"/><path class="d" d="M40.25,651.83a.71.71,0,1,0-.71-.71.71.71,0,0,0,.71.71"/><path class="d" d="M40.25,673.09a.71.71,0,1,0-.71-.71.71.71,0,0,0,.71.71"/><path class="d" d="M40.25,694.35a.71.71,0,1,0-.71-.71.71.71,0,0,0,.71.71"/><path class="d" d="M40.25,715.61a.71.71,0,1,0-.71-.71.71.71,0,0,0,.71.71"/><path class="d" d="M40.25,736.87a.71.71,0,1,0-.71-.71.71.71,0,0,0,.71.71"/><path class="d" d="M40.25,758.13a.71.71,0,1,0-.71-.71.71.71,0,0,0,.71.71"/><path class="d" d="M40.25,779.39a.71.71,0,1,0-.71-.71.71.71,0,0,0,.71.71"/><path class="d" d="M61.51,14a.71.71,0,1,0-.71-.71.71.71,0,0,0,.71.71"/><path class="d" d="M61.51,35.29a.71.71,0,1,0-.71-.71.71.71,0,0,0,.71.71"/><path class="d" d="M61.51,56.55a.71.71,0,1,0-.71-.71.71.71,0,0,0,.71.71"/><path class="d" d="M61.51,77.81a.71.71,0,1,0-.71-.71.71.71,0,0,0,.71.71"/><path class="d" d="M61.51,99.07a.71.71,0,1,0-.71-.71.71.71,0,0,0,.71.71"/><path class="d" d="M61.51,120.33a.71.71,0,1,0-.71-.71.71.71,0,0,0,.71.71"/><path class="d" d="M61.51,141.59a.71.71,0,1,0-.71-.71.71.71,0,0,0,.71.71"/><path class="d" d="M61.51,162.85a.71.71,0,1,0-.71-.71.71.71,0,0,0,.71.71"/><path class="d" d="M61.51,184.11a.71.71,0,1,0-.71-.71.71.71,0,0,0,.71.71"/><path class="d" d="M61.51,205.37a.71.71,0,1,0-.71-.71.71.71,0,0,0,.71.71"/><path class="d" d="M61.51,226.63a.71.71,0,1,0-.71-.71.71.71,0,0,0,.71.71"/><path class="d" d="M61.51,247.89a.71.71,0,1,0-.71-.71.71.71,0,0,0,.71.71"/><path class="d" d="M61.51,269.15a.71.71,0,1,0-.71-.71.71.71,0,0,0,.71.71"/><path class="d" d="M61.51,290.41a.71.71,0,1,0-.71-.71.71.71,0,0,0,.71.71"/><path class="d" d="M61.51,311.67a.71.71,0,1,0-.71-.71.71.71,0,0,0,.71.71"/><path class="d" d="M61.51,332.93a.71.71,0,1,0-.71-.71.71.71,0,0,0,.71.71"/><path class="d" d="M61.51,354.19a.71.71,0,1,0-.71-.71.71.71,0,0,0,.71.71"/><path class="d" d="M61.51,375.45a.71.71,0,1,0-.71-.71.71.71,0,0,0,.71.71"/><path class="d" d="M61.51,396.71a.71.71,0,1,0-.71-.71.71.71,0,0,0,.71.71"/><path class="d" d="M61.51,418a.71.71,0,1,0-.71-.71.71.71,0,0,0,.71.71"/><path class="d" d="M61.51,439.23a.71.71,0,1,0-.71-.71.71.71,0,0,0,.71.71"/><path class="d" d="M61.51,460.49a.71.71,0,1,0-.71-.71.71.71,0,0,0,.71.71"/><path class="d" d="M61.51,481.75a.71.71,0,1,0-.71-.71.71.71,0,0,0,.71.71"/><path class="d" d="M61.51,503a.71.71,0,1,0-.71-.71.71.71,0,0,0,.71.71"/><path class="d" d="M61.51,524.27a.71.71,0,1,0-.71-.71.71.71,0,0,0,.71.71"/><path class="d" d="M61.51,545.53a.71.71,0,1,0-.71-.71.71.71,0,0,0,.71.71"/><path class="d" d="M61.51,566.79a.71.71,0,1,0-.71-.71.71.71,0,0,0,.71.71"/><path class="d" d="M61.51,588.05a.71.71,0,1,0-.71-.71.71.71,0,0,0,.71.71"/><path class="d" d="M61.51,609.31a.71.71,0,1,0-.71-.71.71.71,0,0,0,.71.71"/><path class="d" d="M61.51,630.57a.71.71,0,1,0-.71-.71.71.71,0,0,0,.71.71"/><path class="d" d="M61.51,651.83a.71.71,0,1,0-.71-.71.71.71,0,0,0,.71.71"/><path class="d" d="M61.51,673.09a.71.71,0,1,0-.71-.71.71.71,0,0,0,.71.71"/><path class="d" d="M61.51,694.35a.71.71,0,1,0-.71-.71.71.71,0,0,0,.71.71"/><path class="d" d="M61.51,715.61a.71.71,0,1,0-.71-.71.71.71,0,0,0,.71.71"/><path class="d" d="M61.51,736.87a.71.71,0,1,0-.71-.71.71.71,0,0,0,.71.71"/><path class="d" d="M61.51,758.13a.71.71,0,1,0-.71-.71.71.71,0,0,0,.71.71"/><path class="d" d="M61.51,779.39a.71.71,0,1,0-.71-.71.71.71,0,0,0,.71.71"/><path class="d" d="M82.77,14a.71.71,0,1,0-.71-.71.71.71,0,0,0,.71.71"/><path class="d" d="M82.77,35.29a.71.71,0,1,0-.71-.71.71.71,0,0,0,.71.71"/><path class="d" d="M82.77,56.55a.71.71,0,1,0-.71-.71.71.71,0,0,0,.71.71"/><path class="d" d="M82.77,77.81a.71.71,0,1,0-.71-.71.71.71,0,0,0,.71.71"/><path class="d" d="M82.77,99.07a.71.71,0,1,0-.71-.71.71.71,0,0,0,.71.71"/><path class="d" d="M82.77,120.33a.71.71,0,1,0-.71-.71.71.71,0,0,0,.71.71"/><path class="d" d="M82.77,141.59a.71.71,0,1,0-.71-.71.71.71,0,0,0,.71.71"/><path class="d" d="M82.77,162.85a.71.71,0,1,0-.71-.71.71.71,0,0,0,.71.71"/><path class="d" d="M82.77,184.11a.71.71,0,1,0-.71-.71.71.71,0,0,0,.71.71"/><path class="d" d="M82.77,205.37a.71.71,0,1,0-.71-.71.71.71,0,0,0,.71.71"/><path class="d" d="M82.77,226.63a.71.71,0,1,0-.71-.71.71.71,0,0,0,.71.71"/><path class="d" d="M82.77,247.89a.71.71,0,1,0-.71-.71.71.71,0,0,0,.71.71"/><path class="d" d="M82.77,269.15a.71.71,0,1,0-.71-.71.71.71,0,0,0,.71.71"/><path class="d" d="M82.77,290.41a.71.71,0,1,0-.71-.71.71.71,0,0,0,.71.71"/><path class="d" d="M82.77,311.67a.71.71,0,1,0-.71-.71.71.71,0,0,0,.71.71"/><path class="d" d="M82.77,332.93a.71.71,0,1,0-.71-.71.71.71,0,0,0,.71.71"/><path class="d" d="M82.77,354.19a.71.71,0,1,0-.71-.71.71.71,0,0,0,.71.71"/><path class="d" d="M82.77,375.45a.71.71,0,1,0-.71-.71.71.71,0,0,0,.71.71"/><path class="d" d="M82.77,396.71a.71.71,0,1,0-.71-.71.71.71,0,0,0,.71.71"/><path class="d" d="M82.77,418a.71.71,0,1,0-.71-.71.71.71,0,0,0,.71.71"/><path class="d" d="M82.77,439.23a.71.71,0,1,0-.71-.71.71.71,0,0,0,.71.71"/><path class="d" d="M82.77,460.49a.71.71,0,1,0-.71-.71.71.71,0,0,0,.71.71"/><path class="d" d="M82.77,481.75a.71.71,0,1,0-.71-.71.71.71,0,0,0,.71.71"/><path class="d" d="M82.77,503a.71.71,0,1,0-.71-.71.71.71,0,0,0,.71.71"/><path class="d" d="M82.77,524.27a.71.71,0,1,0-.71-.71.71.71,0,0,0,.71.71"/><path class="d" d="M82.77,545.53a.71.71,0,1,0-.71-.71.71.71,0,0,0,.71.71"/><path class="d" d="M82.77,566.79a.71.71,0,1,0-.71-.71.71.71,0,0,0,.71.71"/><path class="d" d="M82.77,588.05a.71.71,0,1,0-.71-.71.71.71,0,0,0,.71.71"/><path class="d" d="M82.77,609.31a.71.71,0,1,0-.71-.71.71.71,0,0,0,.71.71"/><path class="d" d="M82.77,630.57a.71.71,0,1,0-.71-.71.71.71,0,0,0,.71.71"/><path class="d" d="M82.77,651.83a.71.71,0,1,0-.71-.71.71.71,0,0,0,.71.71"/><path class="d" d="M82.77,673.09a.71.71,0,1,0-.71-.71.71.71,0,0,0,.71.71"/><path class="d" d="M82.77,694.35a.71.71,0,1,0-.71-.71.71.71,0,0,0,.71.71"/><path class="d" d="M82.77,715.61a.71.71,0,1,0-.71-.71.71.71,0,0,0,.71.71"/><path class="d" d="M82.77,736.87a.71.71,0,1,0-.71-.71.71.71,0,0,0,.71.71"/><path class="d" d="M82.77,758.13a.71.71,0,1,0-.71-.71.71.71,0,0,0,.71.71"/><path class="d" d="M82.77,779.39a.71.71,0,1,0-.71-.71.71.71,0,0,0,.71.71"/><path class="d" d="M104,14a.71.71,0,1,0-.71-.71A.71.71,0,0,0,104,14"/><path class="d" d="M104,35.29a.71.71,0,1,0-.71-.71.71.71,0,0,0,.71.71"/><path class="d" d="M104,56.55a.71.71,0,1,0-.71-.71.71.71,0,0,0,.71.71"/><path class="d" d="M104,77.81a.71.71,0,1,0-.71-.71.71.71,0,0,0,.71.71"/><path class="d" d="M104,99.07a.71.71,0,1,0-.71-.71.71.71,0,0,0,.71.71"/><path class="d" d="M104,120.33a.71.71,0,1,0-.71-.71.71.71,0,0,0,.71.71"/><path class="d" d="M104,141.59a.71.71,0,1,0-.71-.71.71.71,0,0,0,.71.71"/><path class="d" d="M104,162.85a.71.71,0,1,0-.71-.71.71.71,0,0,0,.71.71"/><path class="d" d="M104,184.11a.71.71,0,1,0-.71-.71.71.71,0,0,0,.71.71"/><path class="d" d="M104,205.37a.71.71,0,1,0-.71-.71.71.71,0,0,0,.71.71"/><path class="d" d="M104,226.63a.71.71,0,1,0-.71-.71.71.71,0,0,0,.71.71"/><path class="d" d="M104,247.89a.71.71,0,1,0-.71-.71.71.71,0,0,0,.71.71"/><path class="d" d="M104,269.15a.71.71,0,1,0-.71-.71.71.71,0,0,0,.71.71"/><path class="d" d="M104,290.41a.71.71,0,1,0-.71-.71.71.71,0,0,0,.71.71"/><path class="d" d="M104,311.67a.71.71,0,1,0-.71-.71.71.71,0,0,0,.71.71"/><path class="d" d="M104,332.93a.71.71,0,1,0-.71-.71.71.71,0,0,0,.71.71"/><path class="d" d="M104,354.19a.71.71,0,1,0-.71-.71.71.71,0,0,0,.71.71"/><path class="d" d="M104,375.45a.71.71,0,1,0-.71-.71.71.71,0,0,0,.71.71"/><path class="d" d="M104,396.71a.71.71,0,1,0-.71-.71.71.71,0,0,0,.71.71"/><path class="d" d="M104,418a.71.71,0,1,0-.71-.71.71.71,0,0,0,.71.71"/><path class="d" d="M104,439.23a.71.71,0,1,0-.71-.71.71.71,0,0,0,.71.71"/><path class="d" d="M104,460.49a.71.71,0,1,0-.71-.71.71.71,0,0,0,.71.71"/><path class="d" d="M104,481.75a.71.71,0,1,0-.71-.71.71.71,0,0,0,.71.71"/><path class="d" d="M104,503a.71.71,0,1,0-.71-.71.71.71,0,0,0,.71.71"/><path class="d" d="M104,524.27a.71.71,0,1,0-.71-.71.71.71,0,0,0,.71.71"/><path class="d" d="M104,545.53a.71.71,0,1,0-.71-.71.71.71,0,0,0,.71.71"/><path class="d" d="M104,566.79a.71.71,0,1,0-.71-.71.71.71,0,0,0,.71.71"/><path class="d" d="M104,588.05a.71.71,0,1,0-.71-.71.71.71,0,0,0,.71.71"/><path class="d" d="M104,609.31a.71.71,0,1,0-.71-.71.71.71,0,0,0,.71.71"/><path class="d" d="M104,630.57a.71.71,0,1,0-.71-.71.71.71,0,0,0,.71.71"/><path class="d" d="M104,651.83a.71.71,0,1,0-.71-.71.71.71,0,0,0,.71.71"/><path class="d" d="M104,673.09a.71.71,0,1,0-.71-.71.71.71,0,0,0,.71.71"/><path class="d" d="M104,694.35a.71.71,0,1,0-.71-.71.71.71,0,0,0,.71.71"/><path class="d" d="M104,715.61a.71.71,0,1,0-.71-.71.71.71,0,0,0,.71.71"/><path class="d" d="M104,736.87a.71.71,0,1,0-.71-.71.71.71,0,0,0,.71.71"/><path class="d" d="M104,758.13a.71.71,0,1,0-.71-.71.71.71,0,0,0,.71.71"/><path class="d" d="M104,779.39a.71.71,0,1,0-.71-.71.71.71,0,0,0,.71.71"/><path class="d" d="M125.29,14a.71.71,0,1,0-.71-.71.71.71,0,0,0,.71.71"/><path class="d" d="M125.29,35.29a.71.71,0,1,0-.71-.71.71.71,0,0,0,.71.71"/><path class="d" d="M125.29,56.55a.71.71,0,1,0-.71-.71.71.71,0,0,0,.71.71"/><path class="d" d="M125.29,77.81a.71.71,0,1,0-.71-.71.71.71,0,0,0,.71.71"/><path class="d" d="M125.29,99.07a.71.71,0,1,0-.71-.71.71.71,0,0,0,.71.71"/><path class="d" d="M125.29,120.33a.71.71,0,1,0-.71-.71.71.71,0,0,0,.71.71"/><path class="d" d="M125.29,141.59a.71.71,0,1,0-.71-.71.71.71,0,0,0,.71.71"/><path class="d" d="M125.29,162.85a.71.71,0,1,0-.71-.71.71.71,0,0,0,.71.71"/><path class="d" d="M125.29,184.11a.71.71,0,1,0-.71-.71.71.71,0,0,0,.71.71"/><path class="d" d="M125.29,205.37a.71.71,0,1,0-.71-.71.71.71,0,0,0,.71.71"/><path class="d" d="M125.29,226.63a.71.71,0,1,0-.71-.71.71.71,0,0,0,.71.71"/><path class="d" d="M125.29,247.89a.71.71,0,1,0-.71-.71.71.71,0,0,0,.71.71"/><path class="d" d="M125.29,269.15a.71.71,0,1,0-.71-.71.71.71,0,0,0,.71.71"/><path class="d" d="M125.29,290.41a.71.71,0,1,0-.71-.71.71.71,0,0,0,.71.71"/><path class="d" d="M125.29,311.67a.71.71,0,1,0-.71-.71.71.71,0,0,0,.71.71"/><path class="d" d="M125.29,332.93a.71.71,0,1,0-.71-.71.71.71,0,0,0,.71.71"/><path class="d" d="M125.29,354.19a.71.71,0,1,0-.71-.71.71.71,0,0,0,.71.71"/><path class="d" d="M125.29,375.45a.71.71,0,1,0-.71-.71.71.71,0,0,0,.71.71"/><path class="d" d="M125.29,396.71a.71.71,0,1,0-.71-.71.71.71,0,0,0,.71.71"/><path class="d" d="M125.29,418a.71.71,0,1,0-.71-.71.71.71,0,0,0,.71.71"/><path class="d" d="M125.29,439.23a.71.71,0,1,0-.71-.71.71.71,0,0,0,.71.71"/><path class="d" d="M125.29,460.49a.71.71,0,1,0-.71-.71.71.71,0,0,0,.71.71"/><path class="d" d="M125.29,481.75a.71.71,0,1,0-.71-.71.71.71,0,0,0,.71.71"/><path class="d" d="M125.29,503a.71.71,0,1,0-.71-.71.71.71,0,0,0,.71.71"/><path class="d" d="M125.29,524.27a.71.71,0,1,0-.71-.71.71.71,0,0,0,.71.71"/><path class="d" d="M125.29,545.53a.71.71,0,1,0-.71-.71.71.71,0,0,0,.71.71"/><path class="d" d="M125.29,566.79a.71.71,0,1,0-.71-.71.71.71,0,0,0,.71.71"/><path class="d" d="M125.29,588.05a.71.71,0,1,0-.71-.71.71.71,0,0,0,.71.71"/><path class="d" d="M125.29,609.31a.71.71,0,1,0-.71-.71.71.71,0,0,0,.71.71"/><path class="d" d="M125.29,630.57a.71.71,0,1,0-.71-.71.71.71,0,0,0,.71.71"/><path class="d" d="M125.29,651.83a.71.71,0,1,0-.71-.71.71.71,0,0,0,.71.71"/><path class="d" d="M125.29,673.09a.71.71,0,1,0-.71-.71.71.71,0,0,0,.71.71"/><path class="d" d="M125.29,694.35a.71.71,0,1,0-.71-.71.71.71,0,0,0,.71.71"/><path class="d" d="M125.29,715.61a.71.71,0,1,0-.71-.71.71.71,0,0,0,.71.71"/><path class="d" d="M125.29,736.87a.71.71,0,1,0-.71-.71.71.71,0,0,0,.71.71"/><path class="d" d="M125.29,758.13a.71.71,0,1,0-.71-.71.71.71,0,0,0,.71.71"/><path class="d" d="M125.29,779.39a.71.71,0,1,0-.71-.71.71.71,0,0,0,.71.71"/><path class="d" d="M146.55,14a.71.71,0,1,0-.71-.71.71.71,0,0,0,.71.71"/><path class="d" d="M146.55,35.29a.71.71,0,1,0-.71-.71.71.71,0,0,0,.71.71"/><path class="d" d="M146.55,56.55a.71.71,0,1,0-.71-.71.71.71,0,0,0,.71.71"/><path class="d" d="M146.55,77.81a.71.71,0,1,0-.71-.71.71.71,0,0,0,.71.71"/><path class="d" d="M146.55,99.07a.71.71,0,1,0-.71-.71.71.71,0,0,0,.71.71"/><path class="d" d="M146.55,120.33a.71.71,0,1,0-.71-.71.71.71,0,0,0,.71.71"/><path class="d" d="M146.55,141.59a.71.71,0,1,0-.71-.71.71.71,0,0,0,.71.71"/><path class="d" d="M146.55,162.85a.71.71,0,1,0-.71-.71.71.71,0,0,0,.71.71"/><path class="d" d="M146.55,184.11a.71.71,0,1,0-.71-.71.71.71,0,0,0,.71.71"/><path class="d" d="M146.55,205.37a.71.71,0,1,0-.71-.71.71.71,0,0,0,.71.71"/><path class="d" d="M146.55,226.63a.71.71,0,1,0-.71-.71.71.71,0,0,0,.71.71"/><path class="d" d="M146.55,247.89a.71.71,0,1,0-.71-.71.71.71,0,0,0,.71.71"/><path class="d" d="M146.55,269.15a.71.71,0,1,0-.71-.71.71.71,0,0,0,.71.71"/><path class="d" d="M146.55,290.41a.71.71,0,1,0-.71-.71.71.71,0,0,0,.71.71"/><path class="d" d="M146.55,311.67a.71.71,0,1,0-.71-.71.71.71,0,0,0,.71.71"/><path class="d" d="M146.55,332.93a.71.71,0,1,0-.71-.71.71.71,0,0,0,.71.71"/><path class="d" d="M146.55,354.19a.71.71,0,1,0-.71-.71.71.71,0,0,0,.71.71"/><path class="d" d="M146.55,375.45a.71.71,0,1,0-.71-.71.71.71,0,0,0,.71.71"/><path class="d" d="M146.55,396.71a.71.71,0,1,0-.71-.71.71.71,0,0,0,.71.71"/><path class="d" d="M146.55,418a.71.71,0,1,0-.71-.71.71.71,0,0,0,.71.71"/><path class="d" d="M146.55,439.23a.71.71,0,1,0-.71-.71.71.71,0,0,0,.71.71"/><path class="d" d="M146.55,460.49a.71.71,0,1,0-.71-.71.71.71,0,0,0,.71.71"/><path class="d" d="M146.55,481.75a.71.71,0,1,0-.71-.71.71.71,0,0,0,.71.71"/><path class="d" d="M146.55,503a.71.71,0,1,0-.71-.71.71.71,0,0,0,.71.71"/><path class="d" d="M146.55,524.27a.71.71,0,1,0-.71-.71.71.71,0,0,0,.71.71"/><path class="d" d="M146.55,545.53a.71.71,0,1,0-.71-.71.71.71,0,0,0,.71.71"/><path class="d" d="M146.55,566.79a.71.71,0,1,0-.71-.71.71.71,0,0,0,.71.71"/><path class="d" d="M146.55,588.05a.71.71,0,1,0-.71-.71.71.71,0,0,0,.71.71"/><path class="d" d="M146.55,609.31a.71.71,0,1,0-.71-.71.71.71,0,0,0,.71.71"/><path class="d" d="M146.55,630.57a.71.71,0,1,0-.71-.71.71.71,0,0,0,.71.71"/><path class="d" d="M146.55,651.83a.71.71,0,1,0-.71-.71.71.71,0,0,0,.71.71"/><path class="d" d="M146.55,673.09a.71.71,0,1,0-.71-.71.71.71,0,0,0,.71.71"/><path class="d" d="M146.55,694.35a.71.71,0,1,0-.71-.71.71.71,0,0,0,.71.71"/><path class="d" d="M146.55,715.61a.71.71,0,1,0-.71-.71.71.71,0,0,0,.71.71"/><path class="d" d="M146.55,736.87a.71.71,0,1,0-.71-.71.71.71,0,0,0,.71.71"/><path class="d" d="M146.55,758.13a.71.71,0,1,0-.71-.71.71.71,0,0,0,.71.71"/><path class="d" d="M146.55,779.39a.71.71,0,1,0-.71-.71.71.71,0,0,0,.71.71"/><path class="d" d="M167.81,14a.71.71,0,1,0-.71-.71.71.71,0,0,0,.71.71"/><path class="d" d="M167.81,35.29a.71.71,0,1,0-.71-.71.71.71,0,0,0,.71.71"/><path class="d" d="M167.81,56.55a.71.71,0,1,0-.71-.71.71.71,0,0,0,.71.71"/><path class="d" d="M167.81,77.81a.71.71,0,1,0-.71-.71.71.71,0,0,0,.71.71"/><path class="d" d="M167.81,99.07a.71.71,0,1,0-.71-.71.71.71,0,0,0,.71.71"/><path class="d" d="M167.81,120.33a.71.71,0,1,0-.71-.71.71.71,0,0,0,.71.71"/><path class="d" d="M167.81,141.59a.71.71,0,1,0-.71-.71.71.71,0,0,0,.71.71"/><path class="d" d="M167.81,162.85a.71.71,0,1,0-.71-.71.71.71,0,0,0,.71.71"/><path class="d" d="M167.81,184.11a.71.71,0,1,0-.71-.71.71.71,0,0,0,.71.71"/><path class="d" d="M167.81,205.37a.71.71,0,1,0-.71-.71.71.71,0,0,0,.71.71"/><path class="d" d="M167.81,226.63a.71.71,0,1,0-.71-.71.71.71,0,0,0,.71.71"/><path class="d" d="M167.81,247.89a.71.71,0,1,0-.71-.71.71.71,0,0,0,.71.71"/><path class="d" d="M167.81,269.15a.71.71,0,1,0-.71-.71.71.71,0,0,0,.71.71"/><path class="d" d="M167.81,290.41a.71.71,0,1,0-.71-.71.71.71,0,0,0,.71.71"/><path class="d" d="M167.81,311.67a.71.71,0,1,0-.71-.71.71.71,0,0,0,.71.71"/><path class="d" d="M167.81,332.93a.71.71,0,1,0-.71-.71.71.71,0,0,0,.71.71"/><path class="d" d="M167.81,354.19a.71.71,0,1,0-.71-.71.71.71,0,0,0,.71.71"/><path class="d" d="M167.81,375.45a.71.71,0,1,0-.71-.71.71.71,0,0,0,.71.71"/><path class="d" d="M167.81,396.71a.71.71,0,1,0-.71-.71.71.71,0,0,0,.71.71"/><path class="d" d="M167.81,418a.71.71,0,1,0-.71-.71.71.71,0,0,0,.71.71"/><path class="d" d="M167.81,439.23a.71.71,0,1,0-.71-.71.71.71,0,0,0,.71.71"/><path class="d" d="M167.81,460.49a.71.71,0,1,0-.71-.71.71.71,0,0,0,.71.71"/><path class="d" d="M167.81,481.75a.71.71,0,1,0-.71-.71.71.71,0,0,0,.71.71"/><path class="d" d="M167.81,503a.71.71,0,1,0-.71-.71.71.71,0,0,0,.71.71"/><path class="d" d="M167.81,524.27a.71.71,0,1,0-.71-.71.71.71,0,0,0,.71.71"/><path class="d" d="M167.81,545.53a.71.71,0,1,0-.71-.71.71.71,0,0,0,.71.71"/><path class="d" d="M167.81,566.79a.71.71,0,1,0-.71-.71.71.71,0,0,0,.71.71"/><path class="d" d="M167.81,588.05a.71.71,0,1,0-.71-.71.71.71,0,0,0,.71.71"/><path class="d" d="M167.81,609.31a.71.71,0,1,0-.71-.71.71.71,0,0,0,.71.71"/><path class="d" d="M167.81,630.57a.71.71,0,1,0-.71-.71.71.71,0,0,0,.71.71"/><path class="d" d="M167.81,651.83a.71.71,0,1,0-.71-.71.71.71,0,0,0,.71.71"/><path class="d" d="M167.81,673.09a.71.71,0,1,0-.71-.71.71.71,0,0,0,.71.71"/><path class="d" d="M167.81,694.35a.71.71,0,1,0-.71-.71.71.71,0,0,0,.71.71"/><path class="d" d="M167.81,715.61a.71.71,0,1,0-.71-.71.71.71,0,0,0,.71.71"/><path class="d" d="M167.81,736.87a.71.71,0,1,0-.71-.71.71.71,0,0,0,.71.71"/><path class="d" d="M167.81,758.13a.71.71,0,1,0-.71-.71.71.71,0,0,0,.71.71"/><path class="d" d="M167.81,779.39a.71.71,0,1,0-.71-.71.71.71,0,0,0,.71.71"/><path class="d" d="M189.07,14a.71.71,0,1,0-.71-.71.71.71,0,0,0,.71.71"/><path class="d" d="M189.07,35.29a.71.71,0,1,0-.71-.71.71.71,0,0,0,.71.71"/><path class="d" d="M189.07,56.55a.71.71,0,1,0-.71-.71.71.71,0,0,0,.71.71"/><path class="d" d="M189.07,77.81a.71.71,0,1,0-.71-.71.71.71,0,0,0,.71.71"/><path class="d" d="M189.07,99.07a.71.71,0,1,0-.71-.71.71.71,0,0,0,.71.71"/><path class="d" d="M189.07,120.33a.71.71,0,1,0-.71-.71.71.71,0,0,0,.71.71"/><path class="d" d="M189.07,141.59a.71.71,0,1,0-.71-.71.71.71,0,0,0,.71.71"/><path class="d" d="M189.07,162.85a.71.71,0,1,0-.71-.71.71.71,0,0,0,.71.71"/><path class="d" d="M189.07,184.11a.71.71,0,1,0-.71-.71.71.71,0,0,0,.71.71"/><path class="d" d="M189.07,205.37a.71.71,0,1,0-.71-.71.71.71,0,0,0,.71.71"/><path class="d" d="M189.07,226.63a.71.71,0,1,0-.71-.71.71.71,0,0,0,.71.71"/><path class="d" d="M189.07,247.89a.71.71,0,1,0-.71-.71.71.71,0,0,0,.71.71"/><path class="d" d="M189.07,269.15a.71.71,0,1,0-.71-.71.71.71,0,0,0,.71.71"/><path class="d" d="M189.07,290.41a.71.71,0,1,0-.71-.71.71.71,0,0,0,.71.71"/><path class="d" d="M189.07,311.67a.71.71,0,1,0-.71-.71.71.71,0,0,0,.71.71"/><path class="d" d="M189.07,332.93a.71.71,0,1,0-.71-.71.71.71,0,0,0,.71.71"/><path class="d" d="M189.07,354.19a.71.71,0,1,0-.71-.71.71.71,0,0,0,.71.71"/><path class="d" d="M189.07,375.45a.71.71,0,1,0-.71-.71.71.71,0,0,0,.71.71"/><path class="d" d="M189.07,396.71a.71.71,0,1,0-.71-.71.71.71,0,0,0,.71.71"/><path class="d" d="M189.07,418a.71.71,0,1,0-.71-.71.71.71,0,0,0,.71.71"/><path class="d" d="M189.07,439.23a.71.71,0,1,0-.71-.71.71.71,0,0,0,.71.71"/><path class="d" d="M189.07,460.49a.71.71,0,1,0-.71-.71.71.71,0,0,0,.71.71"/><path class="d" d="M189.07,481.75a.71.71,0,1,0-.71-.71.71.71,0,0,0,.71.71"/><path class="d" d="M189.07,503a.71.71,0,1,0-.71-.71.71.71,0,0,0,.71.71"/><path class="d" d="M189.07,524.27a.71.71,0,1,0-.71-.71.71.71,0,0,0,.71.71"/><path class="d" d="M189.07,545.53a.71.71,0,1,0-.71-.71.71.71,0,0,0,.71.71"/><path class="d" d="M189.07,566.79a.71.71,0,1,0-.71-.71.71.71,0,0,0,.71.71"/><path class="d" d="M189.07,588.05a.71.71,0,1,0-.71-.71.71.71,0,0,0,.71.71"/><path class="d" d="M189.07,609.31a.71.71,0,1,0-.71-.71.71.71,0,0,0,.71.71"/><path class="d" d="M189.07,630.57a.71.71,0,1,0-.71-.71.71.71,0,0,0,.71.71"/><path class="d" d="M189.07,651.83a.71.71,0,1,0-.71-.71.71.71,0,0,0,.71.71"/><path class="d" d="M189.07,673.09a.71.71,0,1,0-.71-.71.71.71,0,0,0,.71.71"/><path class="d" d="M189.07,694.35a.71.71,0,1,0-.71-.71.71.71,0,0,0,.71.71"/><path class="d" d="M189.07,715.61a.71.71,0,1,0-.71-.71.71.71,0,0,0,.71.71"/><path class="d" d="M189.07,736.87a.71.71,0,1,0-.71-.71.71.71,0,0,0,.71.71"/><path class="d" d="M189.07,758.13a.71.71,0,1,0-.71-.71.71.71,0,0,0,.71.71"/><path class="d" d="M189.07,779.39a.71.71,0,1,0-.71-.71.71.71,0,0,0,.71.71"/><path class="d" d="M210.33,14a.71.71,0,1,0-.71-.71.71.71,0,0,0,.71.71"/><path class="d" d="M210.33,35.29a.71.71,0,1,0-.71-.71.71.71,0,0,0,.71.71"/><path class="d" d="M210.33,56.55a.71.71,0,1,0-.71-.71.71.71,0,0,0,.71.71"/><path class="d" d="M210.33,77.81a.71.71,0,1,0-.71-.71.71.71,0,0,0,.71.71"/><path class="d" d="M210.33,99.07a.71.71,0,1,0-.71-.71.71.71,0,0,0,.71.71"/><path class="d" d="M210.33,120.33a.71.71,0,1,0-.71-.71.71.71,0,0,0,.71.71"/><path class="d" d="M210.33,141.59a.71.71,0,1,0-.71-.71.71.71,0,0,0,.71.71"/><path class="d" d="M210.33,162.85a.71.71,0,1,0-.71-.71.71.71,0,0,0,.71.71"/><path class="d" d="M210.33,184.11a.71.71,0,1,0-.71-.71.71.71,0,0,0,.71.71"/><path class="d" d="M210.33,205.37a.71.71,0,1,0-.71-.71.71.71,0,0,0,.71.71"/><path class="d" d="M210.33,226.63a.71.71,0,1,0-.71-.71.71.71,0,0,0,.71.71"/><path class="d" d="M210.33,247.89a.71.71,0,1,0-.71-.71.71.71,0,0,0,.71.71"/><path class="d" d="M210.33,269.15a.71.71,0,1,0-.71-.71.71.71,0,0,0,.71.71"/><path class="d" d="M210.33,290.41a.71.71,0,1,0-.71-.71.71.71,0,0,0,.71.71"/><path class="d" d="M210.33,311.67a.71.71,0,1,0-.71-.71.71.71,0,0,0,.71.71"/><path class="d" d="M210.33,332.93a.71.71,0,1,0-.71-.71.71.71,0,0,0,.71.71"/><path class="d" d="M210.33,354.19a.71.71,0,1,0-.71-.71.71.71,0,0,0,.71.71"/><path class="d" d="M210.33,375.45a.71.71,0,1,0-.71-.71.71.71,0,0,0,.71.71"/><path class="d" d="M210.33,396.71a.71.71,0,1,0-.71-.71.71.71,0,0,0,.71.71"/><path class="d" d="M210.33,418a.71.71,0,1,0-.71-.71.71.71,0,0,0,.71.71"/><path class="d" d="M210.33,439.23a.71.71,0,1,0-.71-.71.71.71,0,0,0,.71.71"/><path class="d" d="M210.33,460.49a.71.71,0,1,0-.71-.71.71.71,0,0,0,.71.71"/><path class="d" d="M210.33,481.75a.71.71,0,1,0-.71-.71.71.71,0,0,0,.71.71"/><path class="d" d="M210.33,503a.71.71,0,1,0-.71-.71.71.71,0,0,0,.71.71"/><path class="d" d="M210.33,524.27a.71.71,0,1,0-.71-.71.71.71,0,0,0,.71.71"/><path class="d" d="M210.33,545.53a.71.71,0,1,0-.71-.71.71.71,0,0,0,.71.71"/><path class="d" d="M210.33,566.79a.71.71,0,1,0-.71-.71.71.71,0,0,0,.71.71"/><path class="d" d="M210.33,588.05a.71.71,0,1,0-.71-.71.71.71,0,0,0,.71.71"/><path class="d" d="M210.33,609.31a.71.71,0,1,0-.71-.71.71.71,0,0,0,.71.71"/><path class="d" d="M210.33,630.57a.71.71,0,1,0-.71-.71.71.71,0,0,0,.71.71"/><path class="d" d="M210.33,651.83a.71.71,0,1,0-.71-.71.71.71,0,0,0,.71.71"/><path class="d" d="M210.33,673.09a.71.71,0,1,0-.71-.71.71.71,0,0,0,.71.71"/><path class="d" d="M210.33,694.35a.71.71,0,1,0-.71-.71.71.71,0,0,0,.71.71"/><path class="d" d="M210.33,715.61a.71.71,0,1,0-.71-.71.71.71,0,0,0,.71.71"/><path class="d" d="M210.33,736.87a.71.71,0,1,0-.71-.71.71.71,0,0,0,.71.71"/><path class="d" d="M210.33,758.13a.71.71,0,1,0-.71-.71.71.71,0,0,0,.71.71"/><path class="d" d="M210.33,779.39a.71.71,0,1,0-.71-.71.71.71,0,0,0,.71.71"/><path class="d" d="M231.59,14a.71.71,0,1,0-.71-.71.71.71,0,0,0,.71.71"/><path class="d" d="M231.59,35.29a.71.71,0,1,0-.71-.71.71.71,0,0,0,.71.71"/><path class="d" d="M231.59,56.55a.71.71,0,1,0-.71-.71.71.71,0,0,0,.71.71"/><path class="d" d="M231.59,77.81a.71.71,0,1,0-.71-.71.71.71,0,0,0,.71.71"/><path class="d" d="M231.59,99.07a.71.71,0,1,0-.71-.71.71.71,0,0,0,.71.71"/><path class="d" d="M231.59,120.33a.71.71,0,1,0-.71-.71.71.71,0,0,0,.71.71"/><path class="d" d="M231.59,141.59a.71.71,0,1,0-.71-.71.71.71,0,0,0,.71.71"/><path class="d" d="M231.59,162.85a.71.71,0,1,0-.71-.71.71.71,0,0,0,.71.71"/><path class="d" d="M231.59,184.11a.71.71,0,1,0-.71-.71.71.71,0,0,0,.71.71"/><path class="d" d="M231.59,205.37a.71.71,0,1,0-.71-.71.71.71,0,0,0,.71.71"/><path class="d" d="M231.59,226.63a.71.71,0,1,0-.71-.71.71.71,0,0,0,.71.71"/><path class="d" d="M231.59,247.89a.71.71,0,1,0-.71-.71.71.71,0,0,0,.71.71"/><path class="d" d="M231.59,269.15a.71.71,0,1,0-.71-.71.71.71,0,0,0,.71.71"/><path class="d" d="M231.59,290.41a.71.71,0,1,0-.71-.71.71.71,0,0,0,.71.71"/><path class="d" d="M231.59,311.67a.71.71,0,1,0-.71-.71.71.71,0,0,0,.71.71"/><path class="d" d="M231.59,332.93a.71.71,0,1,0-.71-.71.71.71,0,0,0,.71.71"/><path class="d" d="M231.59,354.19a.71.71,0,1,0-.71-.71.71.71,0,0,0,.71.71"/><path class="d" d="M231.59,375.45a.71.71,0,1,0-.71-.71.71.71,0,0,0,.71.71"/><path class="d" d="M231.59,396.71a.71.71,0,1,0-.71-.71.71.71,0,0,0,.71.71"/><path class="d" d="M231.59,418a.71.71,0,1,0-.71-.71.71.71,0,0,0,.71.71"/><path class="d" d="M231.59,439.23a.71.71,0,1,0-.71-.71.71.71,0,0,0,.71.71"/><path class="d" d="M231.59,460.49a.71.71,0,1,0-.71-.71.71.71,0,0,0,.71.71"/><path class="d" d="M231.59,481.75a.71.71,0,1,0-.71-.71.71.71,0,0,0,.71.71"/><path class="d" d="M231.59,503a.71.71,0,1,0-.71-.71.71.71,0,0,0,.71.71"/><path class="d" d="M231.59,524.27a.71.71,0,1,0-.71-.71.71.71,0,0,0,.71.71"/><path class="d" d="M231.59,545.53a.71.71,0,1,0-.71-.71.71.71,0,0,0,.71.71"/><path class="d" d="M231.59,566.79a.71.71,0,1,0-.71-.71.71.71,0,0,0,.71.71"/><path class="d" d="M231.59,588.05a.71.71,0,1,0-.71-.71.71.71,0,0,0,.71.71"/><path class="d" d="M231.59,609.31a.71.71,0,1,0-.71-.71.71.71,0,0,0,.71.71"/><path class="d" d="M231.59,630.57a.71.71,0,1,0-.71-.71.71.71,0,0,0,.71.71"/><path class="d" d="M231.59,651.83a.71.71,0,1,0-.71-.71.71.71,0,0,0,.71.71"/><path class="d" d="M231.59,673.09a.71.71,0,1,0-.71-.71.71.71,0,0,0,.71.71"/><path class="d" d="M231.59,694.35a.71.71,0,1,0-.71-.71.71.71,0,0,0,.71.71"/><path class="d" d="M231.59,715.61a.71.71,0,1,0-.71-.71.71.71,0,0,0,.71.71"/><path class="d" d="M231.59,736.87a.71.71,0,1,0-.71-.71.71.71,0,0,0,.71.71"/><path class="d" d="M231.59,758.13a.71.71,0,1,0-.71-.71.71.71,0,0,0,.71.71"/><path class="d" d="M231.59,779.39a.71.71,0,1,0-.71-.71.71.71,0,0,0,.71.71"/><path class="d" d="M252.85,14a.71.71,0,1,0-.71-.71.71.71,0,0,0,.71.71"/><path class="d" d="M252.85,35.29a.71.71,0,1,0-.71-.71.71.71,0,0,0,.71.71"/><path class="d" d="M252.85,56.55a.71.71,0,1,0-.71-.71.71.71,0,0,0,.71.71"/><path class="d" d="M252.85,77.81a.71.71,0,1,0-.71-.71.71.71,0,0,0,.71.71"/><path class="d" d="M252.85,99.07a.71.71,0,1,0-.71-.71.71.71,0,0,0,.71.71"/><path class="d" d="M252.85,120.33a.71.71,0,1,0-.71-.71.71.71,0,0,0,.71.71"/><path class="d" d="M252.85,141.59a.71.71,0,1,0-.71-.71.71.71,0,0,0,.71.71"/><path class="d" d="M252.85,162.85a.71.71,0,1,0-.71-.71.71.71,0,0,0,.71.71"/><path class="d" d="M252.85,184.11a.71.71,0,1,0-.71-.71.71.71,0,0,0,.71.71"/><path class="d" d="M252.85,205.37a.71.71,0,1,0-.71-.71.71.71,0,0,0,.71.71"/><path class="d" d="M252.85,226.63a.71.71,0,1,0-.71-.71.71.71,0,0,0,.71.71"/><path class="d" d="M252.85,247.89a.71.71,0,1,0-.71-.71.71.71,0,0,0,.71.71"/><path class="d" d="M252.85,269.15a.71.71,0,1,0-.71-.71.71.71,0,0,0,.71.71"/><path class="d" d="M252.85,290.41a.71.71,0,1,0-.71-.71.71.71,0,0,0,.71.71"/><path class="d" d="M252.85,311.67a.71.71,0,1,0-.71-.71.71.71,0,0,0,.71.71"/><path class="d" d="M252.85,332.93a.71.71,0,1,0-.71-.71.71.71,0,0,0,.71.71"/><path class="d" d="M252.85,354.19a.71.71,0,1,0-.71-.71.71.71,0,0,0,.71.71"/><path class="d" d="M252.85,375.45a.71.71,0,1,0-.71-.71.71.71,0,0,0,.71.71"/><path class="d" d="M252.85,396.71a.71.71,0,1,0-.71-.71.71.71,0,0,0,.71.71"/><path class="d" d="M252.85,418a.71.71,0,1,0-.71-.71.71.71,0,0,0,.71.71"/><path class="d" d="M252.85,439.23a.71.71,0,1,0-.71-.71.71.71,0,0,0,.71.71"/><path class="d" d="M252.85,460.49a.71.71,0,1,0-.71-.71.71.71,0,0,0,.71.71"/><path class="d" d="M252.85,481.75a.71.71,0,1,0-.71-.71.71.71,0,0,0,.71.71"/><path class="d" d="M252.85,503a.71.71,0,1,0-.71-.71.71.71,0,0,0,.71.71"/><path class="d" d="M252.85,524.27a.71.71,0,1,0-.71-.71.71.71,0,0,0,.71.71"/><path class="d" d="M252.85,545.53a.71.71,0,1,0-.71-.71.71.71,0,0,0,.71.71"/><path class="d" d="M252.85,566.79a.71.71,0,1,0-.71-.71.71.71,0,0,0,.71.71"/><path class="d" d="M252.85,588.05a.71.71,0,1,0-.71-.71.71.71,0,0,0,.71.71"/><path class="d" d="M252.85,609.31a.71.71,0,1,0-.71-.71.71.71,0,0,0,.71.71"/><path class="d" d="M252.85,630.57a.71.71,0,1,0-.71-.71.71.71,0,0,0,.71.71"/><path class="d" d="M252.85,651.83a.71.71,0,1,0-.71-.71.71.71,0,0,0,.71.71"/><path class="d" d="M252.85,673.09a.71.71,0,1,0-.71-.71.71.71,0,0,0,.71.71"/><path class="d" d="M252.85,694.35a.71.71,0,1,0-.71-.71.71.71,0,0,0,.71.71"/><path class="d" d="M252.85,715.61a.71.71,0,1,0-.71-.71.71.71,0,0,0,.71.71"/><path class="d" d="M252.85,736.87a.71.71,0,1,0-.71-.71.71.71,0,0,0,.71.71"/><path class="d" d="M252.85,758.13a.71.71,0,1,0-.71-.71.71.71,0,0,0,.71.71"/><path class="d" d="M252.85,779.39a.71.71,0,1,0-.71-.71.71.71,0,0,0,.71.71"/><path class="d" d="M274.11,14a.71.71,0,1,0-.71-.71.71.71,0,0,0,.71.71"/><path class="d" d="M274.11,35.29a.71.71,0,1,0-.71-.71.71.71,0,0,0,.71.71"/><path class="d" d="M274.11,56.55a.71.71,0,1,0-.71-.71.71.71,0,0,0,.71.71"/><path class="d" d="M274.11,77.81a.71.71,0,1,0-.71-.71.71.71,0,0,0,.71.71"/><path class="d" d="M274.11,99.07a.71.71,0,1,0-.71-.71.71.71,0,0,0,.71.71"/><path class="d" d="M274.11,120.33a.71.71,0,1,0-.71-.71.71.71,0,0,0,.71.71"/><path class="d" d="M274.11,141.59a.71.71,0,1,0-.71-.71.71.71,0,0,0,.71.71"/><path class="d" d="M274.11,162.85a.71.71,0,1,0-.71-.71.71.71,0,0,0,.71.71"/><path class="d" d="M274.11,184.11a.71.71,0,1,0-.71-.71.71.71,0,0,0,.71.71"/><path class="d" d="M274.11,205.37a.71.71,0,1,0-.71-.71.71.71,0,0,0,.71.71"/><path class="d" d="M274.11,226.63a.71.71,0,1,0-.71-.71.71.71,0,0,0,.71.71"/><path class="d" d="M274.11,247.89a.71.71,0,1,0-.71-.71.71.71,0,0,0,.71.71"/><path class="d" d="M274.11,269.15a.71.71,0,1,0-.71-.71.71.71,0,0,0,.71.71"/><path class="d" d="M274.11,290.41a.71.71,0,1,0-.71-.71.71.71,0,0,0,.71.71"/><path class="d" d="M274.11,311.67a.71.71,0,1,0-.71-.71.71.71,0,0,0,.71.71"/><path class="d" d="M274.11,332.93a.71.71,0,1,0-.71-.71.71.71,0,0,0,.71.71"/><path class="d" d="M274.11,354.19a.71.71,0,1,0-.71-.71.71.71,0,0,0,.71.71"/><path class="d" d="M274.11,375.45a.71.71,0,1,0-.71-.71.71.71,0,0,0,.71.71"/><path class="d" d="M274.11,396.71a.71.71,0,1,0-.71-.71.71.71,0,0,0,.71.71"/><path class="d" d="M274.11,418a.71.71,0,1,0-.71-.71.71.71,0,0,0,.71.71"/><path class="d" d="M274.11,439.23a.71.71,0,1,0-.71-.71.71.71,0,0,0,.71.71"/><path class="d" d="M274.11,460.49a.71.71,0,1,0-.71-.71.71.71,0,0,0,.71.71"/><path class="d" d="M274.11,481.75a.71.71,0,1,0-.71-.71.71.71,0,0,0,.71.71"/><path class="d" d="M274.11,503a.71.71,0,1,0-.71-.71.71.71,0,0,0,.71.71"/><path class="d" d="M274.11,524.27a.71.71,0,1,0-.71-.71.71.71,0,0,0,.71.71"/><path class="d" d="M274.11,545.53a.71.71,0,1,0-.71-.71.71.71,0,0,0,.71.71"/><path class="d" d="M274.11,566.79a.71.71,0,1,0-.71-.71.71.71,0,0,0,.71.71"/><path class="d" d="M274.11,588.05a.71.71,0,1,0-.71-.71.71.71,0,0,0,.71.71"/><path class="d" d="M274.11,609.31a.71.71,0,1,0-.71-.71.71.71,0,0,0,.71.71"/><path class="d" d="M274.11,630.57a.71.71,0,1,0-.71-.71.71.71,0,0,0,.71.71"/><path class="d" d="M274.11,651.83a.71.71,0,1,0-.71-.71.71.71,0,0,0,.71.71"/><path class="d" d="M274.11,673.09a.71.71,0,1,0-.71-.71.71.71,0,0,0,.71.71"/><path class="d" d="M274.11,694.35a.71.71,0,1,0-.71-.71.71.71,0,0,0,.71.71"/><path class="d" d="M274.11,715.61a.71.71,0,1,0-.71-.71.71.71,0,0,0,.71.71"/><path class="d" d="M274.11,736.87a.71.71,0,1,0-.71-.71.71.71,0,0,0,.71.71"/><path class="d" d="M274.11,758.13a.71.71,0,1,0-.71-.71.71.71,0,0,0,.71.71"/><path class="d" d="M274.11,779.39a.71.71,0,1,0-.71-.71.71.71,0,0,0,.71.71"/><path class="d" d="M295.37,14a.71.71,0,1,0-.71-.71.71.71,0,0,0,.71.71"/><path class="d" d="M295.37,35.29a.71.71,0,1,0-.71-.71.71.71,0,0,0,.71.71"/><path class="d" d="M295.37,56.55a.71.71,0,1,0-.71-.71.71.71,0,0,0,.71.71"/><path class="d" d="M295.37,77.81a.71.71,0,1,0-.71-.71.71.71,0,0,0,.71.71"/><path class="d" d="M295.37,99.07a.71.71,0,1,0-.71-.71.71.71,0,0,0,.71.71"/><path class="d" d="M295.37,120.33a.71.71,0,1,0-.71-.71.71.71,0,0,0,.71.71"/><path class="d" d="M295.37,141.59a.71.71,0,1,0-.71-.71.71.71,0,0,0,.71.71"/><path class="d" d="M295.37,162.85a.71.71,0,1,0-.71-.71.71.71,0,0,0,.71.71"/><path class="d" d="M295.37,184.11a.71.71,0,1,0-.71-.71.71.71,0,0,0,.71.71"/><path class="d" d="M295.37,205.37a.71.71,0,1,0-.71-.71.71.71,0,0,0,.71.71"/><path class="d" d="M295.37,226.63a.71.71,0,1,0-.71-.71.71.71,0,0,0,.71.71"/><path class="d" d="M295.37,247.89a.71.71,0,1,0-.71-.71.71.71,0,0,0,.71.71"/><path class="d" d="M295.37,269.15a.71.71,0,1,0-.71-.71.71.71,0,0,0,.71.71"/><path class="d" d="M295.37,290.41a.71.71,0,1,0-.71-.71.71.71,0,0,0,.71.71"/><path class="d" d="M295.37,311.67a.71.71,0,1,0-.71-.71.71.71,0,0,0,.71.71"/><path class="d" d="M295.37,332.93a.71.71,0,1,0-.71-.71.71.71,0,0,0,.71.71"/><path class="d" d="M295.37,354.19a.71.71,0,1,0-.71-.71.71.71,0,0,0,.71.71"/><path class="d" d="M295.37,375.45a.71.71,0,1,0-.71-.71.71.71,0,0,0,.71.71"/><path class="d" d="M295.37,396.71a.71.71,0,1,0-.71-.71.71.71,0,0,0,.71.71"/><path class="d" d="M295.37,418a.71.71,0,1,0-.71-.71.71.71,0,0,0,.71.71"/><path class="d" d="M295.37,439.23a.71.71,0,1,0-.71-.71.71.71,0,0,0,.71.71"/><path class="d" d="M295.37,460.49a.71.71,0,1,0-.71-.71.71.71,0,0,0,.71.71"/><path class="d" d="M295.37,481.75a.71.71,0,1,0-.71-.71.71.71,0,0,0,.71.71"/><path class="d" d="M295.37,503a.71.71,0,1,0-.71-.71.71.71,0,0,0,.71.71"/><path class="d" d="M295.37,524.27a.71.71,0,1,0-.71-.71.71.71,0,0,0,.71.71"/><path class="d" d="M295.37,545.53a.71.71,0,1,0-.71-.71.71.71,0,0,0,.71.71"/><path class="d" d="M295.37,566.79a.71.71,0,1,0-.71-.71.71.71,0,0,0,.71.71"/><path class="d" d="M295.37,588.05a.71.71,0,1,0-.71-.71.71.71,0,0,0,.71.71"/><path class="d" d="M295.37,609.31a.71.71,0,1,0-.71-.71.71.71,0,0,0,.71.71"/><path class="d" d="M295.37,630.57a.71.71,0,1,0-.71-.71.71.71,0,0,0,.71.71"/><path class="d" d="M295.37,651.83a.71.71,0,1,0-.71-.71.71.71,0,0,0,.71.71"/><path class="d" d="M295.37,673.09a.71.71,0,1,0-.71-.71.71.71,0,0,0,.71.71"/><path class="d" d="M295.37,694.35a.71.71,0,1,0-.71-.71.71.71,0,0,0,.71.71"/><path class="d" d="M295.37,715.61a.71.71,0,1,0-.71-.71.71.71,0,0,0,.71.71"/><path class="d" d="M295.37,736.87a.71.71,0,1,0-.71-.71.71.71,0,0,0,.71.71"/><path class="d" d="M295.37,758.13a.71.71,0,1,0-.71-.71.71.71,0,0,0,.71.71"/><path class="d" d="M295.37,779.39a.71.71,0,1,0-.71-.71.71.71,0,0,0,.71.71"/><path class="d" d="M316.63,14a.71.71,0,1,0-.71-.71.71.71,0,0,0,.71.71"/><path class="d" d="M316.63,35.29a.71.71,0,1,0-.71-.71.71.71,0,0,0,.71.71"/><path class="d" d="M316.63,56.55a.71.71,0,1,0-.71-.71.71.71,0,0,0,.71.71"/><path class="d" d="M316.63,77.81a.71.71,0,1,0-.71-.71.71.71,0,0,0,.71.71"/><path class="d" d="M316.63,99.07a.71.71,0,1,0-.71-.71.71.71,0,0,0,.71.71"/><path class="d" d="M316.63,120.33a.71.71,0,1,0-.71-.71.71.71,0,0,0,.71.71"/><path class="d" d="M316.63,141.59a.71.71,0,1,0-.71-.71.71.71,0,0,0,.71.71"/><path class="d" d="M316.63,162.85a.71.71,0,1,0-.71-.71.71.71,0,0,0,.71.71"/><path class="d" d="M316.63,184.11a.71.71,0,1,0-.71-.71.71.71,0,0,0,.71.71"/><path class="d" d="M316.63,205.37a.71.71,0,1,0-.71-.71.71.71,0,0,0,.71.71"/><path class="d" d="M316.63,226.63a.71.71,0,1,0-.71-.71.71.71,0,0,0,.71.71"/><path class="d" d="M316.63,247.89a.71.71,0,1,0-.71-.71.71.71,0,0,0,.71.71"/><path class="d" d="M316.63,269.15a.71.71,0,1,0-.71-.71.71.71,0,0,0,.71.71"/><path class="d" d="M316.63,290.41a.71.71,0,1,0-.71-.71.71.71,0,0,0,.71.71"/><path class="d" d="M316.63,311.67a.71.71,0,1,0-.71-.71.71.71,0,0,0,.71.71"/><path class="d" d="M316.63,332.93a.71.71,0,1,0-.71-.71.71.71,0,0,0,.71.71"/><path class="d" d="M316.63,354.19a.71.71,0,1,0-.71-.71.71.71,0,0,0,.71.71"/><path class="d" d="M316.63,375.45a.71.71,0,1,0-.71-.71.71.71,0,0,0,.71.71"/><path class="d" d="M316.63,396.71a.71.71,0,1,0-.71-.71.71.71,0,0,0,.71.71"/><path class="d" d="M316.63,418a.71.71,0,1,0-.71-.71.71.71,0,0,0,.71.71"/><path class="d" d="M316.63,439.23a.71.71,0,1,0-.71-.71.71.71,0,0,0,.71.71"/><path class="d" d="M316.63,460.49a.71.71,0,1,0-.71-.71.71.71,0,0,0,.71.71"/><path class="d" d="M316.63,481.75a.71.71,0,1,0-.71-.71.71.71,0,0,0,.71.71"/><path class="d" d="M316.63,503a.71.71,0,1,0-.71-.71.71.71,0,0,0,.71.71"/><path class="d" d="M316.63,524.27a.71.71,0,1,0-.71-.71.71.71,0,0,0,.71.71"/><path class="d" d="M316.63,545.53a.71.71,0,1,0-.71-.71.71.71,0,0,0,.71.71"/><path class="d" d="M316.63,566.79a.71.71,0,1,0-.71-.71.71.71,0,0,0,.71.71"/><path class="d" d="M316.63,588.05a.71.71,0,1,0-.71-.71.71.71,0,0,0,.71.71"/><path class="d" d="M316.63,609.31a.71.71,0,1,0-.71-.71.71.71,0,0,0,.71.71"/><path class="d" d="M316.63,630.57a.71.71,0,1,0-.71-.71.71.71,0,0,0,.71.71"/><path class="d" d="M316.63,651.83a.71.71,0,1,0-.71-.71.71.71,0,0,0,.71.71"/><path class="d" d="M316.63,673.09a.71.71,0,1,0-.71-.71.71.71,0,0,0,.71.71"/><path class="d" d="M316.63,694.35a.71.71,0,1,0-.71-.71.71.71,0,0,0,.71.71"/><path class="d" d="M316.63,715.61a.71.71,0,1,0-.71-.71.71.71,0,0,0,.71.71"/><path class="d" d="M316.63,736.87a.71.71,0,1,0-.71-.71.71.71,0,0,0,.71.71"/><path class="d" d="M316.63,758.13a.71.71,0,1,0-.71-.71.71.71,0,0,0,.71.71"/><path class="d" d="M316.63,779.39a.71.71,0,1,0-.71-.71.71.71,0,0,0,.71.71"/><path class="d" d="M337.89,14a.71.71,0,1,0-.71-.71.71.71,0,0,0,.71.71"/><path class="d" d="M337.89,35.29a.71.71,0,1,0-.71-.71.71.71,0,0,0,.71.71"/><path class="d" d="M337.89,56.55a.71.71,0,1,0-.71-.71.71.71,0,0,0,.71.71"/><path class="d" d="M337.89,77.81a.71.71,0,1,0-.71-.71.71.71,0,0,0,.71.71"/><path class="d" d="M337.89,99.07a.71.71,0,1,0-.71-.71.71.71,0,0,0,.71.71"/><path class="d" d="M337.89,120.33a.71.71,0,1,0-.71-.71.71.71,0,0,0,.71.71"/><path class="d" d="M337.89,141.59a.71.71,0,1,0-.71-.71.71.71,0,0,0,.71.71"/><path class="d" d="M337.89,162.85a.71.71,0,1,0-.71-.71.71.71,0,0,0,.71.71"/><path class="d" d="M337.89,184.11a.71.71,0,1,0-.71-.71.71.71,0,0,0,.71.71"/><path class="d" d="M337.89,205.37a.71.71,0,1,0-.71-.71.71.71,0,0,0,.71.71"/><path class="d" d="M337.89,226.63a.71.71,0,1,0-.71-.71.71.71,0,0,0,.71.71"/><path class="d" d="M337.89,247.89a.71.71,0,1,0-.71-.71.71.71,0,0,0,.71.71"/><path class="d" d="M337.89,269.15a.71.71,0,1,0-.71-.71.71.71,0,0,0,.71.71"/><path class="d" d="M337.89,290.41a.71.71,0,1,0-.71-.71.71.71,0,0,0,.71.71"/><path class="d" d="M337.89,311.67a.71.71,0,1,0-.71-.71.71.71,0,0,0,.71.71"/><path class="d" d="M337.89,332.93a.71.71,0,1,0-.71-.71.71.71,0,0,0,.71.71"/><path class="d" d="M337.89,354.19a.71.71,0,1,0-.71-.71.71.71,0,0,0,.71.71"/><path class="d" d="M337.89,375.45a.71.71,0,1,0-.71-.71.71.71,0,0,0,.71.71"/><path class="d" d="M337.89,396.71a.71.71,0,1,0-.71-.71.71.71,0,0,0,.71.71"/><path class="d" d="M337.89,418a.71.71,0,1,0-.71-.71.71.71,0,0,0,.71.71"/><path class="d" d="M337.89,439.23a.71.71,0,1,0-.71-.71.71.71,0,0,0,.71.71"/><path class="d" d="M337.89,460.49a.71.71,0,1,0-.71-.71.71.71,0,0,0,.71.71"/><path class="d" d="M337.89,481.75a.71.71,0,1,0-.71-.71.71.71,0,0,0,.71.71"/><path class="d" d="M337.89,503a.71.71,0,1,0-.71-.71.71.71,0,0,0,.71.71"/><path class="d" d="M337.89,524.27a.71.71,0,1,0-.71-.71.71.71,0,0,0,.71.71"/><path class="d" d="M337.89,545.53a.71.71,0,1,0-.71-.71.71.71,0,0,0,.71.71"/><path class="d" d="M337.89,566.79a.71.71,0,1,0-.71-.71.71.71,0,0,0,.71.71"/><path class="d" d="M337.89,588.05a.71.71,0,1,0-.71-.71.71.71,0,0,0,.71.71"/><path class="d" d="M337.89,609.31a.71.71,0,1,0-.71-.71.71.71,0,0,0,.71.71"/><path class="d" d="M337.89,630.57a.71.71,0,1,0-.71-.71.71.71,0,0,0,.71.71"/><path class="d" d="M337.89,651.83a.71.71,0,1,0-.71-.71.71.71,0,0,0,.71.71"/><path class="d" d="M337.89,673.09a.71.71,0,1,0-.71-.71.71.71,0,0,0,.71.71"/><path class="d" d="M337.89,694.35a.71.71,0,1,0-.71-.71.71.71,0,0,0,.71.71"/><path class="d" d="M337.89,715.61a.71.71,0,1,0-.71-.71.71.71,0,0,0,.71.71"/><path class="d" d="M337.89,736.87a.71.71,0,1,0-.71-.71.71.71,0,0,0,.71.71"/><path class="d" d="M337.89,758.13a.71.71,0,1,0-.71-.71.71.71,0,0,0,.71.71"/><path class="d" d="M337.89,779.39a.71.71,0,1,0-.71-.71.71.71,0,0,0,.71.71"/><path class="d" d="M359.15,14a.71.71,0,1,0-.71-.71.71.71,0,0,0,.71.71"/><path class="d" d="M359.15,35.29a.71.71,0,1,0-.71-.71.71.71,0,0,0,.71.71"/><path class="d" d="M359.15,56.55a.71.71,0,1,0-.71-.71.71.71,0,0,0,.71.71"/><path class="d" d="M359.15,77.81a.71.71,0,1,0-.71-.71.71.71,0,0,0,.71.71"/><path class="d" d="M359.15,99.07a.71.71,0,1,0-.71-.71.71.71,0,0,0,.71.71"/><path class="d" d="M359.15,120.33a.71.71,0,1,0-.71-.71.71.71,0,0,0,.71.71"/><path class="d" d="M359.15,141.59a.71.71,0,1,0-.71-.71.71.71,0,0,0,.71.71"/><path class="d" d="M359.15,162.85a.71.71,0,1,0-.71-.71.71.71,0,0,0,.71.71"/><path class="d" d="M359.15,184.11a.71.71,0,1,0-.71-.71.71.71,0,0,0,.71.71"/><path class="d" d="M359.15,205.37a.71.71,0,1,0-.71-.71.71.71,0,0,0,.71.71"/><path class="d" d="M359.15,226.63a.71.71,0,1,0-.71-.71.71.71,0,0,0,.71.71"/><path class="d" d="M359.15,247.89a.71.71,0,1,0-.71-.71.71.71,0,0,0,.71.71"/><path class="d" d="M359.15,269.15a.71.71,0,1,0-.71-.71.71.71,0,0,0,.71.71"/><path class="d" d="M359.15,290.41a.71.71,0,1,0-.71-.71.71.71,0,0,0,.71.71"/><path class="d" d="M359.15,311.67a.71.71,0,1,0-.71-.71.71.71,0,0,0,.71.71"/><path class="d" d="M359.15,332.93a.71.71,0,1,0-.71-.71.71.71,0,0,0,.71.71"/><path class="d" d="M359.15,354.19a.71.71,0,1,0-.71-.71.71.71,0,0,0,.71.71"/><path class="d" d="M359.15,375.45a.71.71,0,1,0-.71-.71.71.71,0,0,0,.71.71"/><path class="d" d="M359.15,396.71a.71.71,0,1,0-.71-.71.71.71,0,0,0,.71.71"/><path class="d" d="M359.15,418a.71.71,0,1,0-.71-.71.71.71,0,0,0,.71.71"/><path class="d" d="M359.15,439.23a.71.71,0,1,0-.71-.71.71.71,0,0,0,.71.71"/><path class="d" d="M359.15,460.49a.71.71,0,1,0-.71-.71.71.71,0,0,0,.71.71"/><path class="d" d="M359.15,481.75a.71.71,0,1,0-.71-.71.71.71,0,0,0,.71.71"/><path class="d" d="M359.15,503a.71.71,0,1,0-.71-.71.71.71,0,0,0,.71.71"/><path class="d" d="M359.15,524.27a.71.71,0,1,0-.71-.71.71.71,0,0,0,.71.71"/><path class="d" d="M359.15,545.53a.71.71,0,1,0-.71-.71.71.71,0,0,0,.71.71"/><path class="d" d="M359.15,566.79a.71.71,0,1,0-.71-.71.71.71,0,0,0,.71.71"/><path class="d" d="M359.15,588.05a.71.71,0,1,0-.71-.71.71.71,0,0,0,.71.71"/><path class="d" d="M359.15,609.31a.71.71,0,1,0-.71-.71.71.71,0,0,0,.71.71"/><path class="d" d="M359.15,630.57a.71.71,0,1,0-.71-.71.71.71,0,0,0,.71.71"/><path class="d" d="M359.15,651.83a.71.71,0,1,0-.71-.71.71.71,0,0,0,.71.71"/><path class="d" d="M359.15,673.09a.71.71,0,1,0-.71-.71.71.71,0,0,0,.71.71"/><path class="d" d="M359.15,694.35a.71.71,0,1,0-.71-.71.71.71,0,0,0,.71.71"/><path class="d" d="M359.15,715.61a.71.71,0,1,0-.71-.71.71.71,0,0,0,.71.71"/><path class="d" d="M359.15,736.87a.71.71,0,1,0-.71-.71.71.71,0,0,0,.71.71"/><path class="d" d="M359.15,758.13a.71.71,0,1,0-.71-.71.71.71,0,0,0,.71.71"/><path class="d" d="M359.15,779.39a.71.71,0,1,0-.71-.71.71.71,0,0,0,.71.71"/><path class="d" d="M380.41,14a.71.71,0,1,0-.71-.71.71.71,0,0,0,.71.71"/><path class="d" d="M380.41,35.29a.71.71,0,1,0-.71-.71.71.71,0,0,0,.71.71"/><path class="d" d="M380.41,56.55a.71.71,0,1,0-.71-.71.71.71,0,0,0,.71.71"/><path class="d" d="M380.41,77.81a.71.71,0,1,0-.71-.71.71.71,0,0,0,.71.71"/><path class="d" d="M380.41,99.07a.71.71,0,1,0-.71-.71.71.71,0,0,0,.71.71"/><path class="d" d="M380.41,120.33a.71.71,0,1,0-.71-.71.71.71,0,0,0,.71.71"/><path class="d" d="M380.41,141.59a.71.71,0,1,0-.71-.71.71.71,0,0,0,.71.71"/><path class="d" d="M380.41,162.85a.71.71,0,1,0-.71-.71.71.71,0,0,0,.71.71"/><path class="d" d="M380.41,184.11a.71.71,0,1,0-.71-.71.71.71,0,0,0,.71.71"/><path class="d" d="M380.41,205.37a.71.71,0,1,0-.71-.71.71.71,0,0,0,.71.71"/><path class="d" d="M380.41,226.63a.71.71,0,1,0-.71-.71.71.71,0,0,0,.71.71"/><path class="d" d="M380.41,247.89a.71.71,0,1,0-.71-.71.71.71,0,0,0,.71.71"/><path class="d" d="M380.41,269.15a.71.71,0,1,0-.71-.71.71.71,0,0,0,.71.71"/><path class="d" d="M380.41,290.41a.71.71,0,1,0-.71-.71.71.71,0,0,0,.71.71"/><path class="d" d="M380.41,311.67a.71.71,0,1,0-.71-.71.71.71,0,0,0,.71.71"/><path class="d" d="M380.41,332.93a.71.71,0,1,0-.71-.71.71.71,0,0,0,.71.71"/><path class="d" d="M380.41,354.19a.71.71,0,1,0-.71-.71.71.71,0,0,0,.71.71"/><path class="d" d="M380.41,375.45a.71.71,0,1,0-.71-.71.71.71,0,0,0,.71.71"/><path class="d" d="M380.41,396.71a.71.71,0,1,0-.71-.71.71.71,0,0,0,.71.71"/><path class="d" d="M380.41,418a.71.71,0,1,0-.71-.71.71.71,0,0,0,.71.71"/><path class="d" d="M380.41,439.23a.71.71,0,1,0-.71-.71.71.71,0,0,0,.71.71"/><path class="d" d="M380.41,460.49a.71.71,0,1,0-.71-.71.71.71,0,0,0,.71.71"/><path class="d" d="M380.41,481.75a.71.71,0,1,0-.71-.71.71.71,0,0,0,.71.71"/><path class="d" d="M380.41,503a.71.71,0,1,0-.71-.71.71.71,0,0,0,.71.71"/><path class="d" d="M380.41,524.27a.71.71,0,1,0-.71-.71.71.71,0,0,0,.71.71"/><path class="d" d="M380.41,545.53a.71.71,0,1,0-.71-.71.71.71,0,0,0,.71.71"/><path class="d" d="M380.41,566.79a.71.71,0,1,0-.71-.71.71.71,0,0,0,.71.71"/><path class="d" d="M380.41,588.05a.71.71,0,1,0-.71-.71.71.71,0,0,0,.71.71"/><path class="d" d="M380.41,609.31a.71.71,0,1,0-.71-.71.71.71,0,0,0,.71.71"/><path class="d" d="M380.41,630.57a.71.71,0,1,0-.71-.71.71.71,0,0,0,.71.71"/><path class="d" d="M380.41,651.83a.71.71,0,1,0-.71-.71.71.71,0,0,0,.71.71"/><path class="d" d="M380.41,673.09a.71.71,0,1,0-.71-.71.71.71,0,0,0,.71.71"/><path class="d" d="M380.41,694.35a.71.71,0,1,0-.71-.71.71.71,0,0,0,.71.71"/><path class="d" d="M380.41,715.61a.71.71,0,1,0-.71-.71.71.71,0,0,0,.71.71"/><path class="d" d="M380.41,736.87a.71.71,0,1,0-.71-.71.71.71,0,0,0,.71.71"/><path class="d" d="M380.41,758.13a.71.71,0,1,0-.71-.71.71.71,0,0,0,.71.71"/><path class="d" d="M380.41,779.39a.71.71,0,1,0-.71-.71.71.71,0,0,0,.71.71"/><path class="d" d="M401.67,14a.71.71,0,1,0-.71-.71.71.71,0,0,0,.71.71"/><path class="d" d="M401.67,35.29a.71.71,0,1,0-.71-.71.71.71,0,0,0,.71.71"/><path class="d" d="M401.67,56.55a.71.71,0,1,0-.71-.71.71.71,0,0,0,.71.71"/><path class="d" d="M401.67,77.81a.71.71,0,1,0-.71-.71.71.71,0,0,0,.71.71"/><path class="d" d="M401.67,99.07a.71.71,0,1,0-.71-.71.71.71,0,0,0,.71.71"/><path class="d" d="M401.67,120.33a.71.71,0,1,0-.71-.71.71.71,0,0,0,.71.71"/><path class="d" d="M401.67,141.59a.71.71,0,1,0-.71-.71.71.71,0,0,0,.71.71"/><path class="d" d="M401.67,162.85a.71.71,0,1,0-.71-.71.71.71,0,0,0,.71.71"/><path class="d" d="M401.67,184.11a.71.71,0,1,0-.71-.71.71.71,0,0,0,.71.71"/><path class="d" d="M401.67,205.37a.71.71,0,1,0-.71-.71.71.71,0,0,0,.71.71"/><path class="d" d="M401.67,226.63a.71.71,0,1,0-.71-.71.71.71,0,0,0,.71.71"/><path class="d" d="M401.67,247.89a.71.71,0,1,0-.71-.71.71.71,0,0,0,.71.71"/><path class="d" d="M401.67,269.15a.71.71,0,1,0-.71-.71.71.71,0,0,0,.71.71"/><path class="d" d="M401.67,290.41a.71.71,0,1,0-.71-.71.71.71,0,0,0,.71.71"/><path class="d" d="M401.67,311.67A.71.71,0,1,0,401,311a.71.71,0,0,0,.71.71"/><path class="d" d="M401.67,332.93a.71.71,0,1,0-.71-.71.71.71,0,0,0,.71.71"/><path class="d" d="M401.67,354.19a.71.71,0,1,0-.71-.71.71.71,0,0,0,.71.71"/><path class="d" d="M401.67,375.45a.71.71,0,1,0-.71-.71.71.71,0,0,0,.71.71"/><path class="d" d="M401.67,396.71A.71.71,0,1,0,401,396a.71.71,0,0,0,.71.71"/><path class="d" d="M401.67,418a.71.71,0,1,0-.71-.71.71.71,0,0,0,.71.71"/><path class="d" d="M401.67,439.23a.71.71,0,1,0-.71-.71.71.71,0,0,0,.71.71"/><path class="d" d="M401.67,460.49a.71.71,0,1,0-.71-.71.71.71,0,0,0,.71.71"/><path class="d" d="M401.67,481.75A.71.71,0,1,0,401,481a.71.71,0,0,0,.71.71"/><path class="d" d="M401.67,503a.71.71,0,1,0-.71-.71.71.71,0,0,0,.71.71"/><path class="d" d="M401.67,524.27a.71.71,0,1,0-.71-.71.71.71,0,0,0,.71.71"/><path class="d" d="M401.67,545.53a.71.71,0,1,0-.71-.71.71.71,0,0,0,.71.71"/><path class="d" d="M401.67,566.79a.71.71,0,1,0-.71-.71.71.71,0,0,0,.71.71"/><path class="d" d="M401.67,588.05a.71.71,0,1,0-.71-.71.71.71,0,0,0,.71.71"/><path class="d" d="M401.67,609.31a.71.71,0,1,0-.71-.71.71.71,0,0,0,.71.71"/><path class="d" d="M401.67,630.57a.71.71,0,1,0-.71-.71.71.71,0,0,0,.71.71"/><path class="d" d="M401.67,651.83a.71.71,0,1,0-.71-.71.71.71,0,0,0,.71.71"/><path class="d" d="M401.67,673.09a.71.71,0,1,0-.71-.71.71.71,0,0,0,.71.71"/><path class="d" d="M401.67,694.35a.71.71,0,1,0-.71-.71.71.71,0,0,0,.71.71"/><path class="d" d="M401.67,715.61a.71.71,0,1,0-.71-.71.71.71,0,0,0,.71.71"/><path class="d" d="M401.67,736.87a.71.71,0,1,0-.71-.71.71.71,0,0,0,.71.71"/><path class="d" d="M401.67,758.13a.71.71,0,1,0-.71-.71.71.71,0,0,0,.71.71"/><path class="d" d="M401.67,779.39a.71.71,0,1,0-.71-.71.71.71,0,0,0,.71.71"/><path class="d" d="M422.93,14a.71.71,0,1,0-.71-.71.71.71,0,0,0,.71.71"/><path class="d" d="M422.93,35.29a.71.71,0,1,0-.71-.71.71.71,0,0,0,.71.71"/><path class="d" d="M422.93,56.55a.71.71,0,1,0-.71-.71.71.71,0,0,0,.71.71"/><path class="d" d="M422.93,77.81a.71.71,0,1,0-.71-.71.71.71,0,0,0,.71.71"/><path class="d" d="M422.93,99.07a.71.71,0,1,0-.71-.71.71.71,0,0,0,.71.71"/><path class="d" d="M422.93,120.33a.71.71,0,1,0-.71-.71.71.71,0,0,0,.71.71"/><path class="d" d="M422.93,141.59a.71.71,0,1,0-.71-.71.71.71,0,0,0,.71.71"/><path class="d" d="M422.93,162.85a.71.71,0,1,0-.71-.71.71.71,0,0,0,.71.71"/><path class="d" d="M422.93,184.11a.71.71,0,1,0-.71-.71.71.71,0,0,0,.71.71"/><path class="d" d="M422.93,205.37a.71.71,0,1,0-.71-.71.71.71,0,0,0,.71.71"/><path class="d" d="M422.93,226.63a.71.71,0,1,0-.71-.71.71.71,0,0,0,.71.71"/><path class="d" d="M422.93,247.89a.71.71,0,1,0-.71-.71.71.71,0,0,0,.71.71"/><path class="d" d="M422.93,269.15a.71.71,0,1,0-.71-.71.71.71,0,0,0,.71.71"/><path class="d" d="M422.93,290.41a.71.71,0,1,0-.71-.71.71.71,0,0,0,.71.71"/><path class="d" d="M422.93,311.67a.71.71,0,1,0-.71-.71.71.71,0,0,0,.71.71"/><path class="d" d="M422.93,332.93a.71.71,0,1,0-.71-.71.71.71,0,0,0,.71.71"/><path class="d" d="M422.93,354.19a.71.71,0,1,0-.71-.71.71.71,0,0,0,.71.71"/><path class="d" d="M422.93,375.45a.71.71,0,1,0-.71-.71.71.71,0,0,0,.71.71"/><path class="d" d="M422.93,396.71a.71.71,0,1,0-.71-.71.71.71,0,0,0,.71.71"/><path class="d" d="M422.93,418a.71.71,0,1,0-.71-.71.71.71,0,0,0,.71.71"/><path class="d" d="M422.93,439.23a.71.71,0,1,0-.71-.71.71.71,0,0,0,.71.71"/><path class="d" d="M422.93,460.49a.71.71,0,1,0-.71-.71.71.71,0,0,0,.71.71"/><path class="d" d="M422.93,481.75a.71.71,0,1,0-.71-.71.71.71,0,0,0,.71.71"/><path class="d" d="M422.93,503a.71.71,0,1,0-.71-.71.71.71,0,0,0,.71.71"/><path class="d" d="M422.93,524.27a.71.71,0,1,0-.71-.71.71.71,0,0,0,.71.71"/><path class="d" d="M422.93,545.53a.71.71,0,1,0-.71-.71.71.71,0,0,0,.71.71"/><path class="d" d="M422.93,566.79a.71.71,0,1,0-.71-.71.71.71,0,0,0,.71.71"/><path class="d" d="M422.93,588.05a.71.71,0,1,0-.71-.71.71.71,0,0,0,.71.71"/><path class="d" d="M422.93,609.31a.71.71,0,1,0-.71-.71.71.71,0,0,0,.71.71"/><path class="d" d="M422.93,630.57a.71.71,0,1,0-.71-.71.71.71,0,0,0,.71.71"/><path class="d" d="M422.93,651.83a.71.71,0,1,0-.71-.71.71.71,0,0,0,.71.71"/><path class="d" d="M422.93,673.09a.71.71,0,1,0-.71-.71.71.71,0,0,0,.71.71"/><path class="d" d="M422.93,694.35a.71.71,0,1,0-.71-.71.71.71,0,0,0,.71.71"/><path class="d" d="M422.93,715.61a.71.71,0,1,0-.71-.71.71.71,0,0,0,.71.71"/><path class="d" d="M422.93,736.87a.71.71,0,1,0-.71-.71.71.71,0,0,0,.71.71"/><path class="d" d="M422.93,758.13a.71.71,0,1,0-.71-.71.71.71,0,0,0,.71.71"/><path class="d" d="M422.93,779.39a.71.71,0,1,0-.71-.71.71.71,0,0,0,.71.71"/><path class="d" d="M444.19,14a.71.71,0,1,0-.71-.71.71.71,0,0,0,.71.71"/><path class="d" d="M444.19,35.29a.71.71,0,1,0-.71-.71.71.71,0,0,0,.71.71"/><path class="d" d="M444.19,56.55a.71.71,0,1,0-.71-.71.71.71,0,0,0,.71.71"/><path class="d" d="M444.19,77.81a.71.71,0,1,0-.71-.71.71.71,0,0,0,.71.71"/><path class="d" d="M444.19,99.07a.71.71,0,1,0-.71-.71.71.71,0,0,0,.71.71"/><path class="d" d="M444.19,120.33a.71.71,0,1,0-.71-.71.71.71,0,0,0,.71.71"/><path class="d" d="M444.19,141.59a.71.71,0,1,0-.71-.71.71.71,0,0,0,.71.71"/><path class="d" d="M444.19,162.85a.71.71,0,1,0-.71-.71.71.71,0,0,0,.71.71"/><path class="d" d="M444.19,184.11a.71.71,0,1,0-.71-.71.71.71,0,0,0,.71.71"/><path class="d" d="M444.19,205.37a.71.71,0,1,0-.71-.71.71.71,0,0,0,.71.71"/><path class="d" d="M444.19,226.63a.71.71,0,1,0-.71-.71.71.71,0,0,0,.71.71"/><path class="d" d="M444.19,247.89a.71.71,0,1,0-.71-.71.71.71,0,0,0,.71.71"/><path class="d" d="M444.19,269.15a.71.71,0,1,0-.71-.71.71.71,0,0,0,.71.71"/><path class="d" d="M444.19,290.41a.71.71,0,1,0-.71-.71.71.71,0,0,0,.71.71"/><path class="d" d="M444.19,311.67a.71.71,0,1,0-.71-.71.71.71,0,0,0,.71.71"/><path class="d" d="M444.19,332.93a.71.71,0,1,0-.71-.71.71.71,0,0,0,.71.71"/><path class="d" d="M444.19,354.19a.71.71,0,1,0-.71-.71.71.71,0,0,0,.71.71"/><path class="d" d="M444.19,375.45a.71.71,0,1,0-.71-.71.71.71,0,0,0,.71.71"/><path class="d" d="M444.19,396.71a.71.71,0,1,0-.71-.71.71.71,0,0,0,.71.71"/><path class="d" d="M444.19,418a.71.71,0,1,0-.71-.71.71.71,0,0,0,.71.71"/><path class="d" d="M444.19,439.23a.71.71,0,1,0-.71-.71.71.71,0,0,0,.71.71"/><path class="d" d="M444.19,460.49a.71.71,0,1,0-.71-.71.71.71,0,0,0,.71.71"/><path class="d" d="M444.19,481.75a.71.71,0,1,0-.71-.71.71.71,0,0,0,.71.71"/><path class="d" d="M444.19,503a.71.71,0,1,0-.71-.71.71.71,0,0,0,.71.71"/><path class="d" d="M444.19,524.27a.71.71,0,1,0-.71-.71.71.71,0,0,0,.71.71"/><path class="d" d="M444.19,545.53a.71.71,0,1,0-.71-.71.71.71,0,0,0,.71.71"/><path class="d" d="M444.19,566.79a.71.71,0,1,0-.71-.71.71.71,0,0,0,.71.71"/><path class="d" d="M444.19,588.05a.71.71,0,1,0-.71-.71.71.71,0,0,0,.71.71"/><path class="d" d="M444.19,609.31a.71.71,0,1,0-.71-.71.71.71,0,0,0,.71.71"/><path class="d" d="M444.19,630.57a.71.71,0,1,0-.71-.71.71.71,0,0,0,.71.71"/><path class="d" d="M444.19,651.83a.71.71,0,1,0-.71-.71.71.71,0,0,0,.71.71"/><path class="d" d="M444.19,673.09a.71.71,0,1,0-.71-.71.71.71,0,0,0,.71.71"/><path class="d" d="M444.19,694.35a.71.71,0,1,0-.71-.71.71.71,0,0,0,.71.71"/><path class="d" d="M444.19,715.61a.71.71,0,1,0-.71-.71.71.71,0,0,0,.71.71"/><path class="d" d="M444.19,736.87a.71.71,0,1,0-.71-.71.71.71,0,0,0,.71.71"/><path class="d" d="M444.19,758.13a.71.71,0,1,0-.71-.71.71.71,0,0,0,.71.71"/><path class="d" d="M444.19,779.39a.71.71,0,1,0-.71-.71.71.71,0,0,0,.71.71"/><path class="d" d="M465.45,14a.71.71,0,1,0-.71-.71.71.71,0,0,0,.71.71"/><path class="d" d="M465.45,35.29a.71.71,0,1,0-.71-.71.71.71,0,0,0,.71.71"/><path class="d" d="M465.45,56.55a.71.71,0,1,0-.71-.71.71.71,0,0,0,.71.71"/><path class="d" d="M465.45,77.81a.71.71,0,1,0-.71-.71.71.71,0,0,0,.71.71"/><path class="d" d="M465.45,99.07a.71.71,0,1,0-.71-.71.71.71,0,0,0,.71.71"/><path class="d" d="M465.45,120.33a.71.71,0,1,0-.71-.71.71.71,0,0,0,.71.71"/><path class="d" d="M465.45,141.59a.71.71,0,1,0-.71-.71.71.71,0,0,0,.71.71"/><path class="d" d="M465.45,162.85a.71.71,0,1,0-.71-.71.71.71,0,0,0,.71.71"/><path class="d" d="M465.45,184.11a.71.71,0,1,0-.71-.71.71.71,0,0,0,.71.71"/><path class="d" d="M465.45,205.37a.71.71,0,1,0-.71-.71.71.71,0,0,0,.71.71"/><path class="d" d="M465.45,226.63a.71.71,0,1,0-.71-.71.71.71,0,0,0,.71.71"/><path class="d" d="M465.45,247.89a.71.71,0,1,0-.71-.71.71.71,0,0,0,.71.71"/><path class="d" d="M465.45,269.15a.71.71,0,1,0-.71-.71.71.71,0,0,0,.71.71"/><path class="d" d="M465.45,290.41a.71.71,0,1,0-.71-.71.71.71,0,0,0,.71.71"/><path class="d" d="M465.45,311.67a.71.71,0,1,0-.71-.71.71.71,0,0,0,.71.71"/><path class="d" d="M465.45,332.93a.71.71,0,1,0-.71-.71.71.71,0,0,0,.71.71"/><path class="d" d="M465.45,354.19a.71.71,0,1,0-.71-.71.71.71,0,0,0,.71.71"/><path class="d" d="M465.45,375.45a.71.71,0,1,0-.71-.71.71.71,0,0,0,.71.71"/><path class="d" d="M465.45,396.71a.71.71,0,1,0-.71-.71.71.71,0,0,0,.71.71"/><path class="d" d="M465.45,418a.71.71,0,1,0-.71-.71.71.71,0,0,0,.71.71"/><path class="d" d="M465.45,439.23a.71.71,0,1,0-.71-.71.71.71,0,0,0,.71.71"/><path class="d" d="M465.45,460.49a.71.71,0,1,0-.71-.71.71.71,0,0,0,.71.71"/><path class="d" d="M465.45,481.75a.71.71,0,1,0-.71-.71.71.71,0,0,0,.71.71"/><path class="d" d="M465.45,503a.71.71,0,1,0-.71-.71.71.71,0,0,0,.71.71"/><path class="d" d="M465.45,524.27a.71.71,0,1,0-.71-.71.71.71,0,0,0,.71.71"/><path class="d" d="M465.45,545.53a.71.71,0,1,0-.71-.71.71.71,0,0,0,.71.71"/><path class="d" d="M465.45,566.79a.71.71,0,1,0-.71-.71.71.71,0,0,0,.71.71"/><path class="d" d="M465.45,588.05a.71.71,0,1,0-.71-.71.71.71,0,0,0,.71.71"/><path class="d" d="M465.45,609.31a.71.71,0,1,0-.71-.71.71.71,0,0,0,.71.71"/><path class="d" d="M465.45,630.57a.71.71,0,1,0-.71-.71.71.71,0,0,0,.71.71"/><path class="d" d="M465.45,651.83a.71.71,0,1,0-.71-.71.71.71,0,0,0,.71.71"/><path class="d" d="M465.45,673.09a.71.71,0,1,0-.71-.71.71.71,0,0,0,.71.71"/><path class="d" d="M465.45,694.35a.71.71,0,1,0-.71-.71.71.71,0,0,0,.71.71"/><path class="d" d="M465.45,715.61a.71.71,0,1,0-.71-.71.71.71,0,0,0,.71.71"/><path class="d" d="M465.45,736.87a.71.71,0,1,0-.71-.71.71.71,0,0,0,.71.71"/><path class="d" d="M465.45,758.13a.71.71,0,1,0-.71-.71.71.71,0,0,0,.71.71"/><path class="d" d="M465.45,779.39a.71.71,0,1,0-.71-.71.71.71,0,0,0,.71.71"/><path class="d" d="M486.71,14a.71.71,0,1,0-.71-.71.71.71,0,0,0,.71.71"/><path class="d" d="M486.71,35.29a.71.71,0,1,0-.71-.71.71.71,0,0,0,.71.71"/><path class="d" d="M486.71,56.55a.71.71,0,1,0-.71-.71.71.71,0,0,0,.71.71"/><path class="d" d="M486.71,77.81a.71.71,0,1,0-.71-.71.71.71,0,0,0,.71.71"/><path class="d" d="M486.71,99.07a.71.71,0,1,0-.71-.71.71.71,0,0,0,.71.71"/><path class="d" d="M486.71,120.33a.71.71,0,1,0-.71-.71.71.71,0,0,0,.71.71"/><path class="d" d="M486.71,141.59a.71.71,0,1,0-.71-.71.71.71,0,0,0,.71.71"/><path class="d" d="M486.71,162.85a.71.71,0,1,0-.71-.71.71.71,0,0,0,.71.71"/><path class="d" d="M486.71,184.11a.71.71,0,1,0-.71-.71.71.71,0,0,0,.71.71"/><path class="d" d="M486.71,205.37a.71.71,0,1,0-.71-.71.71.71,0,0,0,.71.71"/><path class="d" d="M486.71,226.63a.71.71,0,1,0-.71-.71.71.71,0,0,0,.71.71"/><path class="d" d="M486.71,247.89a.71.71,0,1,0-.71-.71.71.71,0,0,0,.71.71"/><path class="d" d="M486.71,269.15a.71.71,0,1,0-.71-.71.71.71,0,0,0,.71.71"/><path class="d" d="M486.71,290.41a.71.71,0,1,0-.71-.71.71.71,0,0,0,.71.71"/><path class="d" d="M486.71,311.67A.71.71,0,1,0,486,311a.71.71,0,0,0,.71.71"/><path class="d" d="M486.71,332.93a.71.71,0,1,0-.71-.71.71.71,0,0,0,.71.71"/><path class="d" d="M486.71,354.19a.71.71,0,1,0-.71-.71.71.71,0,0,0,.71.71"/><path class="d" d="M486.71,375.45a.71.71,0,1,0-.71-.71.71.71,0,0,0,.71.71"/><path class="d" d="M486.71,396.71A.71.71,0,1,0,486,396a.71.71,0,0,0,.71.71"/><path class="d" d="M486.71,418a.71.71,0,1,0-.71-.71.71.71,0,0,0,.71.71"/><path class="d" d="M486.71,439.23a.71.71,0,1,0-.71-.71.71.71,0,0,0,.71.71"/><path class="d" d="M486.71,460.49a.71.71,0,1,0-.71-.71.71.71,0,0,0,.71.71"/><path class="d" d="M486.71,481.75A.71.71,0,1,0,486,481a.71.71,0,0,0,.71.71"/><path class="d" d="M486.71,503a.71.71,0,1,0-.71-.71.71.71,0,0,0,.71.71"/><path class="d" d="M486.71,524.27a.71.71,0,1,0-.71-.71.71.71,0,0,0,.71.71"/><path class="d" d="M486.71,545.53a.71.71,0,1,0-.71-.71.71.71,0,0,0,.71.71"/><path class="d" d="M486.71,566.79a.71.71,0,1,0-.71-.71.71.71,0,0,0,.71.71"/><path class="d" d="M486.71,588.05a.71.71,0,1,0-.71-.71.71.71,0,0,0,.71.71"/><path class="d" d="M486.71,609.31a.71.71,0,1,0-.71-.71.71.71,0,0,0,.71.71"/><path class="d" d="M486.71,630.57a.71.71,0,1,0-.71-.71.71.71,0,0,0,.71.71"/><path class="d" d="M486.71,651.83a.71.71,0,1,0-.71-.71.71.71,0,0,0,.71.71"/><path class="d" d="M486.71,673.09a.71.71,0,1,0-.71-.71.71.71,0,0,0,.71.71"/><path class="d" d="M486.71,694.35a.71.71,0,1,0-.71-.71.71.71,0,0,0,.71.71"/><path class="d" d="M486.71,715.61a.71.71,0,1,0-.71-.71.71.71,0,0,0,.71.71"/><path class="d" d="M486.71,736.87a.71.71,0,1,0-.71-.71.71.71,0,0,0,.71.71"/><path class="d" d="M486.71,758.13a.71.71,0,1,0-.71-.71.71.71,0,0,0,.71.71"/><path class="d" d="M486.71,779.39a.71.71,0,1,0-.71-.71.71.71,0,0,0,.71.71"/><path class="d" d="M508,14a.71.71,0,1,0-.71-.71A.71.71,0,0,0,508,14"/><path class="d" d="M508,35.29a.71.71,0,1,0-.71-.71.71.71,0,0,0,.71.71"/><path class="d" d="M508,56.55a.71.71,0,1,0-.71-.71.71.71,0,0,0,.71.71"/><path class="d" d="M508,77.81a.71.71,0,1,0-.71-.71.71.71,0,0,0,.71.71"/><path class="d" d="M508,99.07a.71.71,0,1,0-.71-.71.71.71,0,0,0,.71.71"/><path class="d" d="M508,120.33a.71.71,0,1,0-.71-.71.71.71,0,0,0,.71.71"/><path class="d" d="M508,141.59a.71.71,0,1,0-.71-.71.71.71,0,0,0,.71.71"/><path class="d" d="M508,162.85a.71.71,0,1,0-.71-.71.71.71,0,0,0,.71.71"/><path class="d" d="M508,184.11a.71.71,0,1,0-.71-.71.71.71,0,0,0,.71.71"/><path class="d" d="M508,205.37a.71.71,0,1,0-.71-.71.71.71,0,0,0,.71.71"/><path class="d" d="M508,226.63a.71.71,0,1,0-.71-.71.71.71,0,0,0,.71.71"/><path class="d" d="M508,247.89a.71.71,0,1,0-.71-.71.71.71,0,0,0,.71.71"/><path class="d" d="M508,269.15a.71.71,0,1,0-.71-.71.71.71,0,0,0,.71.71"/><path class="d" d="M508,290.41a.71.71,0,1,0-.71-.71.71.71,0,0,0,.71.71"/><path class="d" d="M508,311.67a.71.71,0,1,0-.71-.71.71.71,0,0,0,.71.71"/><path class="d" d="M508,332.93a.71.71,0,1,0-.71-.71.71.71,0,0,0,.71.71"/><path class="d" d="M508,354.19a.71.71,0,1,0-.71-.71.71.71,0,0,0,.71.71"/><path class="d" d="M508,375.45a.71.71,0,1,0-.71-.71.71.71,0,0,0,.71.71"/><path class="d" d="M508,396.71a.71.71,0,1,0-.71-.71.71.71,0,0,0,.71.71"/><path class="d" d="M508,418a.71.71,0,1,0-.71-.71.71.71,0,0,0,.71.71"/><path class="d" d="M508,439.23a.71.71,0,1,0-.71-.71.71.71,0,0,0,.71.71"/><path class="d" d="M508,460.49a.71.71,0,1,0-.71-.71.71.71,0,0,0,.71.71"/><path class="d" d="M508,481.75a.71.71,0,1,0-.71-.71.71.71,0,0,0,.71.71"/><path class="d" d="M508,503a.71.71,0,1,0-.71-.71.71.71,0,0,0,.71.71"/><path class="d" d="M508,524.27a.71.71,0,1,0-.71-.71.71.71,0,0,0,.71.71"/><path class="d" d="M508,545.53a.71.71,0,1,0-.71-.71.71.71,0,0,0,.71.71"/><path class="d" d="M508,566.79a.71.71,0,1,0-.71-.71.71.71,0,0,0,.71.71"/><path class="d" d="M508,588.05a.71.71,0,1,0-.71-.71.71.71,0,0,0,.71.71"/><path class="d" d="M508,609.31a.71.71,0,1,0-.71-.71.71.71,0,0,0,.71.71"/><path class="d" d="M508,630.57a.71.71,0,1,0-.71-.71.71.71,0,0,0,.71.71"/><path class="d" d="M508,651.83a.71.71,0,1,0-.71-.71.71.71,0,0,0,.71.71"/><path class="d" d="M508,673.09a.71.71,0,1,0-.71-.71.71.71,0,0,0,.71.71"/><path class="d" d="M508,694.35a.71.71,0,1,0-.71-.71.71.71,0,0,0,.71.71"/><path class="d" d="M508,715.61a.71.71,0,1,0-.71-.71.71.71,0,0,0,.71.71"/><path class="d" d="M508,736.87a.71.71,0,1,0-.71-.71.71.71,0,0,0,.71.71"/><path class="d" d="M508,758.13a.71.71,0,1,0-.71-.71.71.71,0,0,0,.71.71"/><path class="d" d="M508,779.39a.71.71,0,1,0-.71-.71.71.71,0,0,0,.71.71"/><path class="d" d="M529.23,14a.71.71,0,1,0-.71-.71.71.71,0,0,0,.71.71"/><path class="d" d="M529.23,35.29a.71.71,0,1,0-.71-.71.71.71,0,0,0,.71.71"/><path class="d" d="M529.23,56.55a.71.71,0,1,0-.71-.71.71.71,0,0,0,.71.71"/><path class="d" d="M529.23,77.81a.71.71,0,1,0-.71-.71.71.71,0,0,0,.71.71"/><path class="d" d="M529.23,99.07a.71.71,0,1,0-.71-.71.71.71,0,0,0,.71.71"/><path class="d" d="M529.23,120.33a.71.71,0,1,0-.71-.71.71.71,0,0,0,.71.71"/><path class="d" d="M529.23,141.59a.71.71,0,1,0-.71-.71.71.71,0,0,0,.71.71"/><path class="d" d="M529.23,162.85a.71.71,0,1,0-.71-.71.71.71,0,0,0,.71.71"/><path class="d" d="M529.23,184.11a.71.71,0,1,0-.71-.71.71.71,0,0,0,.71.71"/><path class="d" d="M529.23,205.37a.71.71,0,1,0-.71-.71.71.71,0,0,0,.71.71"/><path class="d" d="M529.23,226.63a.71.71,0,1,0-.71-.71.71.71,0,0,0,.71.71"/><path class="d" d="M529.23,247.89a.71.71,0,1,0-.71-.71.71.71,0,0,0,.71.71"/><path class="d" d="M529.23,269.15a.71.71,0,1,0-.71-.71.71.71,0,0,0,.71.71"/><path class="d" d="M529.23,290.41a.71.71,0,1,0-.71-.71.71.71,0,0,0,.71.71"/><path class="d" d="M529.23,311.67a.71.71,0,1,0-.71-.71.71.71,0,0,0,.71.71"/><path class="d" d="M529.23,332.93a.71.71,0,1,0-.71-.71.71.71,0,0,0,.71.71"/><path class="d" d="M529.23,354.19a.71.71,0,1,0-.71-.71.71.71,0,0,0,.71.71"/><path class="d" d="M529.23,375.45a.71.71,0,1,0-.71-.71.71.71,0,0,0,.71.71"/><path class="d" d="M529.23,396.71a.71.71,0,1,0-.71-.71.71.71,0,0,0,.71.71"/><path class="d" d="M529.23,418a.71.71,0,1,0-.71-.71.71.71,0,0,0,.71.71"/><path class="d" d="M529.23,439.23a.71.71,0,1,0-.71-.71.71.71,0,0,0,.71.71"/><path class="d" d="M529.23,460.49a.71.71,0,1,0-.71-.71.71.71,0,0,0,.71.71"/><path class="d" d="M529.23,481.75a.71.71,0,1,0-.71-.71.71.71,0,0,0,.71.71"/><path class="d" d="M529.23,503a.71.71,0,1,0-.71-.71.71.71,0,0,0,.71.71"/><path class="d" d="M529.23,524.27a.71.71,0,1,0-.71-.71.71.71,0,0,0,.71.71"/><path class="d" d="M529.23,545.53a.71.71,0,1,0-.71-.71.71.71,0,0,0,.71.71"/><path class="d" d="M529.23,566.79a.71.71,0,1,0-.71-.71.71.71,0,0,0,.71.71"/><path class="d" d="M529.23,588.05a.71.71,0,1,0-.71-.71.71.71,0,0,0,.71.71"/><path class="d" d="M529.23,609.31a.71.71,0,1,0-.71-.71.71.71,0,0,0,.71.71"/><path class="d" d="M529.23,630.57a.71.71,0,1,0-.71-.71.71.71,0,0,0,.71.71"/><path class="d" d="M529.23,651.83a.71.71,0,1,0-.71-.71.71.71,0,0,0,.71.71"/><path class="d" d="M529.23,673.09a.71.71,0,1,0-.71-.71.71.71,0,0,0,.71.71"/><path class="d" d="M529.23,694.35a.71.71,0,1,0-.71-.71.71.71,0,0,0,.71.71"/><path class="d" d="M529.23,715.61a.71.71,0,1,0-.71-.71.71.71,0,0,0,.71.71"/><path class="d" d="M529.23,736.87a.71.71,0,1,0-.71-.71.71.71,0,0,0,.71.71"/><path class="d" d="M529.23,758.13a.71.71,0,1,0-.71-.71.71.71,0,0,0,.71.71"/><path class="d" d="M529.23,779.39a.71.71,0,1,0-.71-.71.71.71,0,0,0,.71.71"/><path class="d" d="M550.49,14a.71.71,0,1,0-.71-.71.71.71,0,0,0,.71.71"/><path class="d" d="M550.49,35.29a.71.71,0,1,0-.71-.71.71.71,0,0,0,.71.71"/><path class="d" d="M550.49,56.55a.71.71,0,1,0-.71-.71.71.71,0,0,0,.71.71"/><path class="d" d="M550.49,77.81a.71.71,0,1,0-.71-.71.71.71,0,0,0,.71.71"/><path class="d" d="M550.49,99.07a.71.71,0,1,0-.71-.71.71.71,0,0,0,.71.71"/><path class="d" d="M550.49,120.33a.71.71,0,1,0-.71-.71.71.71,0,0,0,.71.71"/><path class="d" d="M550.49,141.59a.71.71,0,1,0-.71-.71.71.71,0,0,0,.71.71"/><path class="d" d="M550.49,162.85a.71.71,0,1,0-.71-.71.71.71,0,0,0,.71.71"/><path class="d" d="M550.49,184.11a.71.71,0,1,0-.71-.71.71.71,0,0,0,.71.71"/><path class="d" d="M550.49,205.37a.71.71,0,1,0-.71-.71.71.71,0,0,0,.71.71"/><path class="d" d="M550.49,226.63a.71.71,0,1,0-.71-.71.71.71,0,0,0,.71.71"/><path class="d" d="M550.49,247.89a.71.71,0,1,0-.71-.71.71.71,0,0,0,.71.71"/><path class="d" d="M550.49,269.15a.71.71,0,1,0-.71-.71.71.71,0,0,0,.71.71"/><path class="d" d="M550.49,290.41a.71.71,0,1,0-.71-.71.71.71,0,0,0,.71.71"/><path class="d" d="M550.49,311.67a.71.71,0,1,0-.71-.71.71.71,0,0,0,.71.71"/><path class="d" d="M550.49,332.93a.71.71,0,1,0-.71-.71.71.71,0,0,0,.71.71"/><path class="d" d="M550.49,354.19a.71.71,0,1,0-.71-.71.71.71,0,0,0,.71.71"/><path class="d" d="M550.49,375.45a.71.71,0,1,0-.71-.71.71.71,0,0,0,.71.71"/><path class="d" d="M550.49,396.71a.71.71,0,1,0-.71-.71.71.71,0,0,0,.71.71"/><path class="d" d="M550.49,418a.71.71,0,1,0-.71-.71.71.71,0,0,0,.71.71"/><path class="d" d="M550.49,439.23a.71.71,0,1,0-.71-.71.71.71,0,0,0,.71.71"/><path class="d" d="M550.49,460.49a.71.71,0,1,0-.71-.71.71.71,0,0,0,.71.71"/><path class="d" d="M550.49,481.75a.71.71,0,1,0-.71-.71.71.71,0,0,0,.71.71"/><path class="d" d="M550.49,503a.71.71,0,1,0-.71-.71.71.71,0,0,0,.71.71"/><path class="d" d="M550.49,524.27a.71.71,0,1,0-.71-.71.71.71,0,0,0,.71.71"/><path class="d" d="M550.49,545.53a.71.71,0,1,0-.71-.71.71.71,0,0,0,.71.71"/><path class="d" d="M550.49,566.79a.71.71,0,1,0-.71-.71.71.71,0,0,0,.71.71"/><path class="d" d="M550.49,588.05a.71.71,0,1,0-.71-.71.71.71,0,0,0,.71.71"/><path class="d" d="M550.49,609.31a.71.71,0,1,0-.71-.71.71.71,0,0,0,.71.71"/><path class="d" d="M550.49,630.57a.71.71,0,1,0-.71-.71.71.71,0,0,0,.71.71"/><path class="d" d="M550.49,651.83a.71.71,0,1,0-.71-.71.71.71,0,0,0,.71.71"/><path class="d" d="M550.49,673.09a.71.71,0,1,0-.71-.71.71.71,0,0,0,.71.71"/><path class="d" d="M550.49,694.35a.71.71,0,1,0-.71-.71.71.71,0,0,0,.71.71"/><path class="d" d="M550.49,715.61a.71.71,0,1,0-.71-.71.71.71,0,0,0,.71.71"/><path class="d" d="M550.49,736.87a.71.71,0,1,0-.71-.71.71.71,0,0,0,.71.71"/><path class="d" d="M550.49,758.13a.71.71,0,1,0-.71-.71.71.71,0,0,0,.71.71"/><path class="d" d="M550.49,779.39a.71.71,0,1,0-.71-.71.71.71,0,0,0,.71.71"/><path class="d" d="M571.75,14a.71.71,0,1,0-.71-.71.71.71,0,0,0,.71.71"/><path class="d" d="M571.75,35.29a.71.71,0,1,0-.71-.71.71.71,0,0,0,.71.71"/><path class="d" d="M571.75,56.55a.71.71,0,1,0-.71-.71.71.71,0,0,0,.71.71"/><path class="d" d="M571.75,77.81a.71.71,0,1,0-.71-.71.71.71,0,0,0,.71.71"/><path class="d" d="M571.75,99.07a.71.71,0,1,0-.71-.71.71.71,0,0,0,.71.71"/><path class="d" d="M571.75,120.33a.71.71,0,1,0-.71-.71.71.71,0,0,0,.71.71"/><path class="d" d="M571.75,141.59a.71.71,0,1,0-.71-.71.71.71,0,0,0,.71.71"/><path class="d" d="M571.75,162.85a.71.71,0,1,0-.71-.71.71.71,0,0,0,.71.71"/><path class="d" d="M571.75,184.11a.71.71,0,1,0-.71-.71.71.71,0,0,0,.71.71"/><path class="d" d="M571.75,205.37a.71.71,0,1,0-.71-.71.71.71,0,0,0,.71.71"/><path class="d" d="M571.75,226.63a.71.71,0,1,0-.71-.71.71.71,0,0,0,.71.71"/><path class="d" d="M571.75,247.89a.71.71,0,1,0-.71-.71.71.71,0,0,0,.71.71"/><path class="d" d="M571.75,269.15a.71.71,0,1,0-.71-.71.71.71,0,0,0,.71.71"/><path class="d" d="M571.75,290.41a.71.71,0,1,0-.71-.71.71.71,0,0,0,.71.71"/><path class="d" d="M571.75,311.67A.71.71,0,1,0,571,311a.71.71,0,0,0,.71.71"/><path class="d" d="M571.75,332.93a.71.71,0,1,0-.71-.71.71.71,0,0,0,.71.71"/><path class="d" d="M571.75,354.19a.71.71,0,1,0-.71-.71.71.71,0,0,0,.71.71"/><path class="d" d="M571.75,375.45a.71.71,0,1,0-.71-.71.71.71,0,0,0,.71.71"/><path class="d" d="M571.75,396.71A.71.71,0,1,0,571,396a.71.71,0,0,0,.71.71"/><path class="d" d="M571.75,418a.71.71,0,1,0-.71-.71.71.71,0,0,0,.71.71"/><path class="d" d="M571.75,439.23a.71.71,0,1,0-.71-.71.71.71,0,0,0,.71.71"/><path class="d" d="M571.75,460.49a.71.71,0,1,0-.71-.71.71.71,0,0,0,.71.71"/><path class="d" d="M571.75,481.75A.71.71,0,1,0,571,481a.71.71,0,0,0,.71.71"/><path class="d" d="M571.75,503a.71.71,0,1,0-.71-.71.71.71,0,0,0,.71.71"/><path class="d" d="M571.75,524.27a.71.71,0,1,0-.71-.71.71.71,0,0,0,.71.71"/><path class="d" d="M571.75,545.53a.71.71,0,1,0-.71-.71.71.71,0,0,0,.71.71"/><path class="d" d="M571.75,566.79a.71.71,0,1,0-.71-.71.71.71,0,0,0,.71.71"/><path class="d" d="M571.75,588.05a.71.71,0,1,0-.71-.71.71.71,0,0,0,.71.71"/><path class="d" d="M571.75,609.31a.71.71,0,1,0-.71-.71.71.71,0,0,0,.71.71"/><path class="d" d="M571.75,630.57a.71.71,0,1,0-.71-.71.71.71,0,0,0,.71.71"/><path class="d" d="M571.75,651.83a.71.71,0,1,0-.71-.71.71.71,0,0,0,.71.71"/><path class="d" d="M571.75,673.09a.71.71,0,1,0-.71-.71.71.71,0,0,0,.71.71"/><path class="d" d="M571.75,694.35a.71.71,0,1,0-.71-.71.71.71,0,0,0,.71.71"/><path class="d" d="M571.75,715.61a.71.71,0,1,0-.71-.71.71.71,0,0,0,.71.71"/><path class="d" d="M571.75,736.87a.71.71,0,1,0-.71-.71.71.71,0,0,0,.71.71"/><path class="d" d="M571.75,758.13a.71.71,0,1,0-.71-.71.71.71,0,0,0,.71.71"/><path class="d" d="M571.75,779.39a.71.71,0,1,0-.71-.71.71.71,0,0,0,.71.71"/><path class="d" d="M593,14a.71.71,0,1,0-.71-.71A.71.71,0,0,0,593,14"/><path class="d" d="M593,35.29a.71.71,0,1,0-.71-.71.71.71,0,0,0,.71.71"/><path class="d" d="M593,56.55a.71.71,0,1,0-.71-.71.71.71,0,0,0,.71.71"/><path class="d" d="M593,77.81a.71.71,0,1,0-.71-.71.71.71,0,0,0,.71.71"/><path class="d" d="M593,99.07a.71.71,0,1,0-.71-.71.71.71,0,0,0,.71.71"/><path class="d" d="M593,120.33a.71.71,0,1,0-.71-.71.71.71,0,0,0,.71.71"/><path class="d" d="M593,141.59a.71.71,0,1,0-.71-.71.71.71,0,0,0,.71.71"/><path class="d" d="M593,162.85a.71.71,0,1,0-.71-.71.71.71,0,0,0,.71.71"/><path class="d" d="M593,184.11a.71.71,0,1,0-.71-.71.71.71,0,0,0,.71.71"/><path class="d" d="M593,205.37a.71.71,0,1,0-.71-.71.71.71,0,0,0,.71.71"/><path class="d" d="M593,226.63a.71.71,0,1,0-.71-.71.71.71,0,0,0,.71.71"/><path class="d" d="M593,247.89a.71.71,0,1,0-.71-.71.71.71,0,0,0,.71.71"/><path class="d" d="M593,269.15a.71.71,0,1,0-.71-.71.71.71,0,0,0,.71.71"/><path class="d" d="M593,290.41a.71.71,0,1,0-.71-.71.71.71,0,0,0,.71.71"/><path class="d" d="M593,311.67a.71.71,0,1,0-.71-.71.71.71,0,0,0,.71.71"/><path class="d" d="M593,332.93a.71.71,0,1,0-.71-.71.71.71,0,0,0,.71.71"/><path class="d" d="M593,354.19a.71.71,0,1,0-.71-.71.71.71,0,0,0,.71.71"/><path class="d" d="M593,375.45a.71.71,0,1,0-.71-.71.71.71,0,0,0,.71.71"/><path class="d" d="M593,396.71a.71.71,0,1,0-.71-.71.71.71,0,0,0,.71.71"/><path class="d" d="M593,418a.71.71,0,1,0-.71-.71.71.71,0,0,0,.71.71"/><path class="d" d="M593,439.23a.71.71,0,1,0-.71-.71.71.71,0,0,0,.71.71"/><path class="d" d="M593,460.49a.71.71,0,1,0-.71-.71.71.71,0,0,0,.71.71"/><path class="d" d="M593,481.75a.71.71,0,1,0-.71-.71.71.71,0,0,0,.71.71"/><path class="d" d="M593,503a.71.71,0,1,0-.71-.71.71.71,0,0,0,.71.71"/><path class="d" d="M593,524.27a.71.71,0,1,0-.71-.71.71.71,0,0,0,.71.71"/><path class="d" d="M593,545.53a.71.71,0,1,0-.71-.71.71.71,0,0,0,.71.71"/><path class="d" d="M593,566.79a.71.71,0,1,0-.71-.71.71.71,0,0,0,.71.71"/><path class="d" d="M593,588.05a.71.71,0,1,0-.71-.71.71.71,0,0,0,.71.71"/><path class="d" d="M593,609.31a.71.71,0,1,0-.71-.71.71.71,0,0,0,.71.71"/><path class="d" d="M593,630.57a.71.71,0,1,0-.71-.71.71.71,0,0,0,.71.71"/><path class="d" d="M593,651.83a.71.71,0,1,0-.71-.71.71.71,0,0,0,.71.71"/><path class="d" d="M593,673.09a.71.71,0,1,0-.71-.71.71.71,0,0,0,.71.71"/><path class="d" d="M593,694.35a.71.71,0,1,0-.71-.71.71.71,0,0,0,.71.71"/><path class="d" d="M593,715.61a.71.71,0,1,0-.71-.71.71.71,0,0,0,.71.71"/><path class="d" d="M593,736.87a.71.71,0,1,0-.71-.71.71.71,0,0,0,.71.71"/><path class="d" d="M593,758.13a.71.71,0,1,0-.71-.71.71.71,0,0,0,.71.71"/><path class="d" d="M593,779.39a.71.71,0,1,0-.71-.71.71.71,0,0,0,.71.71"/></g></svg>