<svg xmlns="http://www.w3.org/2000/svg" xmlns:xlink="http://www.w3.org/1999/xlink" viewBox="0 0 868 1079.75"><defs><style>.a{fill:none;}.b{clip-path:url(#a);}.c{fill:#e4e4e4;}.d{fill:#dcffb5;}.e{fill:#bcd03b;}.f{fill:#8ea221;}.g{fill:#41ac49;}.h{fill:#b6d979;}</style><clipPath id="a" transform="translate(-11.26 -7.82)"><rect class="a" x="11.26" y="7.82" width="868" height="1079.75"/></clipPath></defs><title>09 Cubes</title><g class="b"><path class="c" d="M849.26,1087.57h-64V7.82h64a30.09,30.09,0,0,1,30,30V1057.58a30.09,30.09,0,0,1-30,30" transform="translate(-11.26 -7.82)"/><path class="d" d="M818.76,1087.57H11.26V7.82h807.5a30.09,30.09,0,0,1,30,30V1057.58a30.09,30.09,0,0,1-30,30" transform="translate(-11.26 -7.82)"/></g><polygon class="e" points="36.03 791.85 163.81 718.68 291.6 791.85 163.81 865.01 36.03 791.85"/><polygon class="f" points="163.54 865.33 291.1 791.68 291.1 933.42 163.54 1007.06 163.54 865.33"/><polygon class="g" points="163.54 865.33 35.98 791.68 35.98 933.42 163.54 1007.06 163.54 865.33"/><path class="e" d="M174.8,873.15h0l63.77-29.73L174.8,880.24Zm0,14.17v-7.08l63.77-29.74Zm0,7.09v-7.09l63.77-29.73Zm0,7.09v-7.09l63.77-29.73Zm0,0,63.77-29.74L174.8,908.58Zm0,7.08,63.77-29.73L174.8,915.67Zm0,14.18v-7.09l63.77-29.73Zm0,7.08v-7.08L238.57,893Zm0,7.09v-7.09l63.77-29.73Zm0,7.09v-7.09l63.77-29.73Z" transform="translate(-11.26 -7.82)"/><path class="e" d="M238.57,843.42v-7.09h0l63.77-29.74Zm0,0,63.78-29.74L238.57,850.5Zm0,14.17V850.5l63.78-29.73Zm0,7.09v-7.09l63.78-29.74Zm0,7.08v-7.08l63.78-29.74Zm0,7.09v-7.09L302.35,842Zm0,0,63.78-29.74-63.78,36.83Zm0,14.17v-7.08l63.78-29.74Zm0,7.09V893l63.78-29.73Zm0,7.09v-7.09l63.78-29.74Z" transform="translate(-11.26 -7.82)"/><path class="e" d="M174.8,951.1V944l63.77-29.74Zm0,7.09V951.1l63.77-29.73Zm0,7.09v-7.09l63.77-29.73Zm0,7.09v-7.09l63.77-29.74Zm0,7.08v-7.08l63.77-29.74Zm0,7.09v-7.09l63.77-29.73Zm0,7.09v-7.09l63.77-29.74Zm0,7.08v-7.08l63.77-29.74Zm0,0L238.57,971,174.8,1007.8Zm0,14.17v-7.08l63.77-29.74Z" transform="translate(-11.26 -7.82)"/><path class="e" d="M238.57,914.28V907.2l63.78-29.74Zm0,7.09v-7.09l63.78-29.73Zm0,7.09v-7.09l63.78-29.74Zm0,7.08v-7.08l63.78-29.74Zm0,7.09v-7.09l63.78-29.73Zm0,7.09v-7.09l63.78-29.74Zm0,7.08v-7.08L302.35,920Zm0,7.09V956.8l63.78-29.73Zm0,7.09v-7.09l63.78-29.74Zm0,0,63.78-29.74-63.78,36.82Z" transform="translate(-11.26 -7.82)"/><path class="h" d="M174.79,1014.88l-6.37-74.54v70.86ZM162,1007.52l6.38,3.68L162,936.66Zm-6.38-3.68,6.38,3.68L155.66,933Zm-6.38-3.68,6.38,3.68-6.38-74.55Zm0,0-6.37-74.55v70.86Zm-6.38-3.69-6.37-74.54v70.86Zm-12.75-7.36,6.37,3.68-6.37-74.55Zm-6.38-3.68,6.38,3.68-6.38-74.55Zm-6.38-3.69,6.38,3.69-6.38-74.55ZM111,978.06l6.38,3.68L111,907.2Z" transform="translate(-11.26 -7.82)"/><path class="h" d="M168.42,940.34l6.37,3.68-6.37-74.55Zm0,0L162,865.79v70.87ZM155.66,933l6.38,3.69-6.38-74.55Zm-6.38-3.68,6.38,3.68-6.38-74.54Zm-6.37-3.68,6.37,3.68-6.37-74.54Zm-6.38-3.68,6.38,3.68-6.38-74.55Zm0,0-6.38-74.55v70.86Zm-12.76-7.37,6.38,3.68-6.38-74.54Zm-6.38-3.68,6.38,3.68L117.39,840ZM111,907.2l6.38,3.68L111,836.33Z" transform="translate(-11.26 -7.82)"/><path class="h" d="M104.64,974.38l6.37,3.68-6.37-74.54Zm-6.38-3.68,6.38,3.68-6.38-74.55ZM91.88,967l6.38,3.69-6.38-74.55Zm-6.38-3.68L91.88,967,85.5,892.47Zm-6.38-3.68,6.38,3.68-6.38-74.54ZM72.75,956l6.37,3.68L72.75,885.1Zm-6.38-3.69L72.75,956l-6.38-74.55ZM60,948.6l6.38,3.68L60,877.74Zm0,0-6.38-74.54v70.86Zm-12.76-7.36,6.38,3.68-6.38-74.55Z" transform="translate(-11.26 -7.82)"/><path class="h" d="M104.64,903.52,111,907.2l-6.37-74.55Zm-6.38-3.69,6.38,3.69L98.26,829Zm-6.38-3.68,6.38,3.68-6.38-74.54Zm-6.38-3.68,6.38,3.68L85.5,821.6Zm-6.38-3.68,6.38,3.68-6.38-74.55Zm-6.37-3.69,6.37,3.69-6.37-74.55Zm-6.38-3.68,6.38,3.68-6.38-74.54ZM60,877.74l6.38,3.68L60,806.87Zm-6.38-3.68L60,877.74l-6.38-74.55Zm0,0-6.37-74.55v70.86Z" transform="translate(-11.26 -7.82)"/><path class="g" d="M47.3,799.67l70.27-32.92L53.68,803.32ZM60.07,807l-6.39-3.66L124,770.4Zm6.39,3.66L60.07,807l70.28-32.92Zm6.39,3.66-6.39-3.66,70.28-32.92Zm0,0,70.28-32.92L79.24,818ZM79.24,818,149.52,785,85.63,821.62ZM92,825.27l-6.39-3.65,70.28-32.93Zm6.39,3.66L92,825.27l70.27-32.92Zm6.39,3.66-6.39-3.66L168.68,796Zm6.39,3.66-6.39-3.66,70.27-32.92Z" transform="translate(-11.26 -7.82)"/><path class="g" d="M117.57,766.75l-6.39-3.66,70.28-32.92Zm0,0,70.28-32.93L124,770.4Zm12.78,7.31L124,770.4l70.28-32.92Zm6.39,3.66-6.39-3.66,70.28-32.92Zm6.39,3.66-6.39-3.66L207,744.8Zm6.39,3.66-6.39-3.66,70.28-32.92Zm0,0,70.27-32.93-63.88,36.58Zm12.77,7.31-6.38-3.66,70.27-32.92Zm6.39,3.66-6.39-3.66,70.28-32.92Zm6.39,3.66L168.68,796,239,763.09Z" transform="translate(-11.26 -7.82)"/><path class="g" d="M117.57,839.9l-6.38-3.65,70.27-32.92Zm6.39,3.66-6.39-3.66L187.85,807Zm6.39,3.66L124,843.56l70.28-32.92Zm6.39,3.66-6.39-3.66,70.28-32.92Zm6.39,3.66-6.39-3.66L207,818Zm6.39,3.65-6.39-3.65,70.28-32.92Zm6.39,3.66-6.39-3.66,70.28-32.92Zm6.39,3.66-6.39-3.66,70.28-32.92Zm0,0,70.27-32.92-63.88,36.58Zm12.78,7.32-6.39-3.66L239,836.25Z" transform="translate(-11.26 -7.82)"/><path class="g" d="M181.46,803.33l-6.39-3.66,70.28-32.92Zm6.39,3.65-6.39-3.65,70.28-32.93Zm6.39,3.66L187.85,807l70.28-32.92Zm6.39,3.66-6.39-3.66,70.28-32.92ZM207,818l-6.39-3.66,70.28-32.92Zm6.39,3.66L207,818,277.3,785Zm6.39,3.65-6.39-3.65,70.28-32.92Zm6.39,3.66-6.39-3.66,70.27-32.92Zm6.38,3.66-6.38-3.66L296.46,796Zm0,0,70.28-32.92L239,836.25Z" transform="translate(-11.26 -7.82)"/><polygon class="e" points="291.66 791.85 419.44 718.68 547.22 791.85 419.44 865.01 291.66 791.85"/><polygon class="f" points="419.16 865.33 546.72 791.68 546.72 933.42 419.16 1007.06 419.16 865.33"/><polygon class="g" points="419.16 865.33 291.6 791.68 291.6 933.42 419.16 1007.06 419.16 865.33"/><path class="e" d="M430.42,873.15l63.77-29.73-63.77,36.82Zm0,14.17v-7.08l63.77-29.74Zm0,7.09v-7.09l63.77-29.73Zm0,7.09v-7.09l63.77-29.73Zm0,0,63.77-29.74-63.77,36.82Zm0,7.08,63.77-29.73-63.77,36.82Zm0,14.18v-7.09l63.77-29.73Zm0,7.08v-7.08L494.19,893Zm0,7.09v-7.09l63.77-29.73Zm0,7.09v-7.09l63.77-29.73Z" transform="translate(-11.26 -7.82)"/><path class="e" d="M494.19,843.42v-7.09h0L558,806.59Zm0,0L558,813.68,494.19,850.5Zm0,14.17V850.5L558,820.77Zm0,7.09v-7.09L558,827.85Zm0,7.08v-7.08L558,834.94Zm0,7.09v-7.09L558,842Zm0,0L558,849.11l-63.78,36.83Zm0,14.17v-7.08L558,856.2Zm0,7.09V893L558,863.29Zm0,7.09v-7.09L558,870.37Z" transform="translate(-11.26 -7.82)"/><path class="e" d="M430.42,951.1V944l63.77-29.74Zm0,7.09V951.1l63.77-29.73Zm0,7.09v-7.09l63.77-29.73Zm0,7.09v-7.09l63.77-29.74Zm0,7.08v-7.08l63.77-29.74Zm0,7.09v-7.09l63.77-29.73Zm0,7.09v-7.09l63.77-29.74Zm0,7.08v-7.08l63.77-29.74Zm0,0L494.19,971l-63.77,36.82Zm0,14.17v-7.08l63.77-29.74Z" transform="translate(-11.26 -7.82)"/><path class="e" d="M494.19,914.28V907.2L558,877.46Zm0,7.09v-7.09L558,884.55Zm0,7.09v-7.09L558,891.63Zm0,7.08v-7.08L558,898.72Zm0,7.09v-7.09L558,905.81Zm0,7.09v-7.09L558,912.89Zm0,7.08v-7.08L558,920Zm0,7.09V956.8L558,927.07Zm0,7.09v-7.09L558,934.15Zm0,0L558,941.24l-63.78,36.82Z" transform="translate(-11.26 -7.82)"/><path class="h" d="M430.42,1014.88,424,940.34v70.86Zm-12.76-7.36,6.38,3.68-6.38-74.54Zm-6.38-3.68,6.38,3.68L411.28,933Zm-6.37-3.68,6.37,3.68-6.37-74.55Zm0,0-6.38-74.55v70.86Zm-6.38-3.69-6.38-74.54v70.86Zm-12.76-7.36,6.38,3.68-6.38-74.55Zm-6.38-3.68,6.38,3.68-6.38-74.55ZM373,981.74l6.37,3.69L373,910.88Zm-6.38-3.68,6.38,3.68-6.38-74.54Z" transform="translate(-11.26 -7.82)"/><path class="h" d="M424,940.34l6.38,3.68L424,869.47Zm0,0-6.38-74.55v70.87ZM411.28,933l6.38,3.69-6.38-74.55Zm-6.37-3.68,6.37,3.68-6.37-74.54Zm-6.38-3.68,6.38,3.68-6.38-74.54Zm-6.38-3.68,6.38,3.68-6.38-74.55Zm0,0-6.38-74.55v70.86Zm-12.76-7.37,6.38,3.68-6.38-74.54ZM373,910.88l6.37,3.68L373,840Zm-6.38-3.68,6.38,3.68-6.38-74.55Z" transform="translate(-11.26 -7.82)"/><path class="h" d="M360.26,974.38l6.38,3.68-6.38-74.54Zm-6.38-3.68,6.38,3.68-6.38-74.55ZM347.5,967l6.38,3.69-6.38-74.55Zm-6.38-3.68L347.5,967l-6.38-74.54Zm-6.37-3.68,6.37,3.68-6.37-74.54ZM328.37,956l6.38,3.68-6.38-74.55ZM322,952.28l6.38,3.69L322,881.42Zm-6.38-3.68,6.38,3.68-6.38-74.54Zm0,0-6.38-74.54v70.86Zm-12.75-7.36,6.37,3.68-6.37-74.55Z" transform="translate(-11.26 -7.82)"/><path class="h" d="M360.26,903.52l6.38,3.68-6.38-74.55Zm-6.38-3.69,6.38,3.69L353.88,829Zm-6.38-3.68,6.38,3.68-6.38-74.54Zm-6.38-3.68,6.38,3.68-6.38-74.55Zm-6.37-3.68,6.37,3.68-6.37-74.55Zm-6.38-3.69,6.38,3.69-6.38-74.55ZM322,881.42l6.38,3.68L322,810.56Zm-6.38-3.68,6.38,3.68-6.38-74.55Zm-6.38-3.68,6.38,3.68-6.38-74.55Zm0,0-6.37-74.55v70.86Z" transform="translate(-11.26 -7.82)"/><path class="g" d="M302.92,799.67l70.27-32.92-63.88,36.57ZM315.7,807l-6.39-3.66,70.27-32.92Zm6.38,3.66L315.7,807,386,774.06Zm6.39,3.66-6.39-3.66,70.28-32.92Zm0,0,70.28-32.92L334.86,818Zm6.39,3.66L405.14,785l-63.89,36.58Zm12.78,7.31-6.39-3.65,70.28-32.93Zm6.39,3.66-6.39-3.66,70.28-32.92Zm6.39,3.66L354,828.93,424.31,796Zm6.39,3.66-6.39-3.66,70.28-32.92Z" transform="translate(-11.26 -7.82)"/><path class="g" d="M373.19,766.75l-6.39-3.66,70.28-32.92Zm0,0,70.28-32.93L379.58,770.4ZM386,774.06l-6.39-3.66,70.28-32.92Zm6.39,3.66L386,774.06l70.28-32.92Zm6.39,3.66-6.39-3.66,70.28-32.92Zm6.39,3.66-6.39-3.66L469,748.46Zm0,0,70.28-32.93-63.89,36.58Zm12.78,7.31-6.39-3.66,70.28-32.92Zm6.39,3.66-6.39-3.66,70.27-32.92Zm6.39,3.66L424.31,796l70.27-32.92Z" transform="translate(-11.26 -7.82)"/><path class="g" d="M373.2,839.9l-6.39-3.65,70.27-32.92Zm6.38,3.66-6.38-3.66L443.47,807Zm6.39,3.66-6.39-3.66,70.28-32.92Zm6.4,3.66-6.4-3.66,70.28-32.92Zm6.38,3.66-6.38-3.66L462.64,818Zm6.39,3.65-6.39-3.65L469,821.62Zm6.39,3.66-6.39-3.66,70.28-32.92Zm6.39,3.66-6.39-3.66,70.28-32.92Zm0,0,70.28-32.92-63.89,36.58Zm12.78,7.32-6.39-3.66,70.28-32.92Z" transform="translate(-11.26 -7.82)"/><path class="g" d="M437.08,803.33l-6.38-3.66L501,766.75Zm6.39,3.65-6.39-3.65,70.28-32.93Zm6.39,3.66L443.47,807l70.28-32.92Zm6.39,3.66-6.39-3.66,70.28-32.92Zm6.39,3.66-6.39-3.66,70.28-32.92Zm6.39,3.66L462.64,818,532.92,785Zm6.39,3.65L469,821.62l70.28-32.92Zm6.39,3.66-6.39-3.66,70.28-32.92Zm6.39,3.66-6.39-3.66L552.09,796Zm0,0,70.27-32.92-63.88,36.58Z" transform="translate(-11.26 -7.82)"/><polygon class="e" points="547.28 791.85 675.06 718.68 802.84 791.85 675.06 865.01 547.28 791.85"/><polygon class="f" points="674.78 865.33 802.34 791.68 802.34 933.42 674.78 1007.06 674.78 865.33"/><polygon class="g" points="674.78 865.33 547.22 791.68 547.22 933.42 674.78 1007.06 674.78 865.33"/><path class="e" d="M686,873.15h0l63.77-29.73L686,880.24Zm0,14.17v-7.08l63.77-29.74Zm0,7.09v-7.09l63.77-29.73Zm0,7.09v-7.09l63.77-29.73Zm0,0,63.77-29.74L686,908.58Zm0,7.08,63.77-29.73L686,915.67Zm0,14.18v-7.09l63.77-29.73Zm0,7.08v-7.08L749.81,893Zm0,7.09v-7.09l63.77-29.73Zm0,7.09v-7.09l63.77-29.73Z" transform="translate(-11.26 -7.82)"/><path class="e" d="M749.82,843.42v-7.09h0l63.77-29.74Zm0,0,63.77-29.74L749.82,850.5Zm0,14.17V850.5l63.77-29.73Zm0,7.09v-7.09l63.77-29.74Zm0,7.08v-7.08l63.77-29.74Zm0,7.09v-7.09L813.59,842Zm0,0,63.77-29.74-63.77,36.83Zm0,14.17v-7.08l63.77-29.74Zm0,7.09V893l63.77-29.73Zm0,7.09v-7.09l63.77-29.74Z" transform="translate(-11.26 -7.82)"/><path class="e" d="M686,951.1V944l63.77-29.74Zm0,7.09V951.1l63.77-29.73Zm0,7.09v-7.09l63.77-29.73Zm0,7.09v-7.09l63.77-29.74Zm0,7.08v-7.08l63.77-29.74Zm0,7.09v-7.09l63.77-29.73Zm0,7.09v-7.09l63.77-29.74Zm0,7.08v-7.08l63.77-29.74Zm0,0L749.81,971,686,1007.8Zm0,14.17v-7.08l63.77-29.74Z" transform="translate(-11.26 -7.82)"/><path class="e" d="M749.82,914.28V907.2l63.77-29.74Zm0,7.09v-7.09l63.77-29.73Zm0,7.09v-7.09l63.77-29.74Zm0,7.08v-7.08l63.77-29.74Zm0,7.09v-7.09l63.77-29.73Zm0,7.09v-7.09l63.77-29.74Zm0,7.08v-7.08L813.59,920Zm0,7.09V956.8l63.77-29.73Zm0,7.09v-7.09l63.77-29.74Zm0,0,63.77-29.74-63.77,36.82Z" transform="translate(-11.26 -7.82)"/><path class="h" d="M686,1014.88h0l-6.38-74.53v70.86Zm-12.76-7.36,6.38,3.68-6.38-74.54Zm-6.38-3.68,6.38,3.68L666.9,933Zm-6.37-3.68,6.37,3.68-6.37-74.55Zm0,0-6.38-74.55v70.86Zm-6.38-3.69-6.38-74.54v70.86Zm-12.76-7.36,6.38,3.68-6.38-74.55ZM635,985.43l6.38,3.68L635,914.56Zm-6.37-3.69,6.37,3.69-6.37-74.55Zm-6.38-3.68,6.38,3.68-6.38-74.54Z" transform="translate(-11.26 -7.82)"/><path class="h" d="M679.66,940.34,686,944h0l-6.38-74.53Zm0,0-6.38-74.55v70.87ZM666.9,933l6.38,3.69-6.38-74.55Zm-6.37-3.68L666.9,933l-6.37-74.54Zm-6.38-3.68,6.38,3.68-6.38-74.54Zm-6.38-3.68,6.38,3.68-6.38-74.55Zm0,0-6.38-74.55v70.86ZM635,914.56l6.38,3.68L635,843.7Zm-6.37-3.68,6.37,3.68L628.64,840Zm-6.38-3.68,6.38,3.68-6.38-74.55Z" transform="translate(-11.26 -7.82)"/><path class="h" d="M615.88,974.38l6.38,3.68-6.38-74.54Zm-6.38-3.68,6.38,3.68-6.38-74.55ZM603.12,967l6.38,3.69-6.38-74.55Zm-6.37-3.68,6.37,3.68-6.37-74.54Zm-6.38-3.68,6.38,3.68-6.38-74.54ZM584,956l6.38,3.68L584,885.1Zm-6.38-3.69L584,956l-6.38-74.55Zm-6.38-3.68,6.38,3.68-6.38-74.54Zm0,0-6.37-74.54v70.86Zm-12.75-7.36,6.37,3.68-6.37-74.55Z" transform="translate(-11.26 -7.82)"/><path class="h" d="M615.88,903.52l6.38,3.68-6.38-74.55Zm-6.38-3.69,6.38,3.69L609.5,829Zm-6.38-3.68,6.38,3.68-6.38-74.54Zm-6.37-3.68,6.37,3.68-6.37-74.55Zm-6.38-3.68,6.38,3.68-6.38-74.55ZM584,885.1l6.38,3.69L584,814.24Zm-6.38-3.68L584,885.1l-6.38-74.54Zm-6.38-3.68,6.38,3.68-6.38-74.55Zm-6.37-3.68,6.37,3.68-6.37-74.55Zm0,0-6.38-74.55v70.86Z" transform="translate(-11.26 -7.82)"/><path class="g" d="M558.54,799.67l70.27-32.92-63.88,36.57ZM571.32,807l-6.39-3.66L635.2,770.4Zm6.39,3.66L571.32,807l70.27-32.92Zm6.38,3.66-6.38-3.66L648,777.72Zm0,0,70.28-32.92L590.48,818Zm6.39,3.66L660.76,785l-63.89,36.58Zm12.78,7.31-6.39-3.65,70.28-32.93Zm6.39,3.66-6.39-3.66,70.28-32.92Zm6.39,3.66-6.39-3.66L679.93,796Zm6.39,3.66L616,832.59l70.28-32.92Z" transform="translate(-11.26 -7.82)"/><path class="g" d="M628.81,766.75l-6.38-3.66,70.27-32.92Zm0,0,70.28-32.93L635.2,770.4Zm12.78,7.31-6.39-3.66,70.28-32.92Zm6.39,3.66-6.39-3.66,70.28-32.92Zm6.39,3.66L648,777.72l70.28-32.92Zm6.39,3.66-6.39-3.66,70.28-32.92Zm0,0L731,752.11l-63.89,36.58Zm12.78,7.31-6.39-3.66,70.28-32.92Zm6.39,3.66-6.39-3.66,70.28-32.92Zm6.39,3.66L679.93,796l70.28-32.92Z" transform="translate(-11.26 -7.82)"/><path class="g" d="M628.82,839.9l-6.39-3.65,70.27-32.92Zm6.39,3.66-6.39-3.66L699.09,807Zm6.39,3.66-6.39-3.66,70.27-32.92Zm6.39,3.66-6.39-3.66,70.27-32.92Zm6.39,3.66L648,850.88,718.26,818Zm6.38,3.65-6.38-3.65,70.27-32.92Zm6.39,3.66-6.39-3.66L731,825.27Zm6.39,3.66-6.39-3.66,70.28-32.92Zm0,0,70.28-32.92-63.89,36.58Zm12.78,7.32-6.39-3.66,70.28-32.92Z" transform="translate(-11.26 -7.82)"/><path class="g" d="M692.71,803.33l-6.39-3.66,70.27-32.92Zm6.38,3.65-6.38-3.65L763,770.4Zm6.39,3.66L699.09,807l70.28-32.92Zm6.39,3.66-6.39-3.66,70.28-32.92Zm6.39,3.66-6.39-3.66,70.28-32.92Zm6.39,3.66L718.26,818,788.54,785Zm6.39,3.65-6.39-3.65,70.28-32.92Zm6.39,3.66L731,825.27l70.28-32.92Zm6.39,3.66-6.39-3.66L807.71,796Zm0,0,70.28-32.92-63.89,36.58Z" transform="translate(-11.26 -7.82)"/><polygon class="e" points="34.72 577.85 162.5 504.69 290.28 577.85 162.5 651.01 34.72 577.85"/><polygon class="f" points="162.22 651.33 289.78 577.68 289.78 719.42 162.22 793.06 162.22 651.33"/><polygon class="g" points="162.22 651.33 34.66 577.68 34.66 719.42 162.22 793.06 162.22 651.33"/><path class="e" d="M173.48,659.15h0l63.76-29.73-63.77,36.82Zm0,14.17v-7.08l63.77-29.74Zm0,7.09v-7.09l63.77-29.73Zm0,7.09v-7.09l63.77-29.73Zm0,0,63.77-29.74-63.77,36.82Zm0,7.08,63.77-29.73-63.77,36.82Zm0,14.18v-7.09l63.77-29.73Zm0,7.08v-7.08L237.25,679Zm0,7.09v-7.09l63.77-29.73Zm0,7.09v-7.09l63.77-29.73Z" transform="translate(-11.26 -7.82)"/><path class="e" d="M237.25,629.42v-7.09h0L301,592.59Zm0,0L301,599.68,237.25,636.5Zm0,14.17V636.5L301,606.77Zm0,7.09v-7.09L301,613.85Zm0,7.08v-7.08L301,620.94Zm0,7.09v-7.09L301,628Zm0,0L301,635.11l-63.78,36.83Zm0,14.17v-7.08L301,642.2Zm0,7.09V679L301,649.29Zm0,7.09v-7.09L301,656.37Z" transform="translate(-11.26 -7.82)"/><path class="e" d="M173.48,737.1V730l63.77-29.74Zm0,7.09V737.1l63.77-29.73Zm0,7.09v-7.09l63.77-29.73Zm0,7.09v-7.09l63.77-29.74Zm0,7.08v-7.08l63.77-29.74Zm0,7.09v-7.09l63.77-29.73Zm0,7.09v-7.09l63.77-29.74Zm0,7.08v-7.08l63.77-29.74Zm0,0L237.25,757,173.48,793.8Zm0,14.17V793.8l63.77-29.74Z" transform="translate(-11.26 -7.82)"/><path class="e" d="M237.25,700.28V693.2L301,663.46Zm0,7.09v-7.09L301,670.55Zm0,7.09v-7.09L301,677.63Zm0,7.08v-7.08L301,684.72Zm0,7.09v-7.09L301,691.81Zm0,7.09v-7.09L301,698.89Zm0,7.08v-7.08L301,706Zm0,7.09V742.8L301,713.07Zm0,7.09v-7.09L301,720.15Zm0,0L301,727.24l-63.78,36.82Z" transform="translate(-11.26 -7.82)"/><path class="h" d="M173.48,800.88l-6.38-74.54V797.2Zm-12.76-7.36,6.38,3.68-6.38-74.54Zm-6.38-3.68,6.38,3.68L154.34,719ZM148,786.16l6.37,3.68L148,715.29Zm0,0-6.38-74.55v70.86Zm-6.38-3.69-6.38-74.54v70.86Zm-12.76-7.36,6.38,3.68-6.38-74.55Zm-6.38-3.68,6.38,3.68-6.38-74.55Zm-6.37-3.69,6.37,3.69-6.37-74.55Zm-6.38-3.68,6.38,3.68L109.7,693.2Z" transform="translate(-11.26 -7.82)"/><path class="h" d="M167.1,726.34l6.38,3.68-6.38-74.55Zm0,0-6.38-74.55v70.87ZM154.34,719l6.38,3.69-6.38-74.55ZM148,715.29l6.37,3.68L148,644.43Zm-6.38-3.68,6.38,3.68-6.38-74.54Zm-6.38-3.68,6.38,3.68-6.38-74.55Zm0,0-6.38-74.55v70.86Zm-12.76-7.37,6.38,3.68-6.38-74.54Zm-6.37-3.68,6.37,3.68L116.08,626Zm-6.38-3.68,6.38,3.68-6.38-74.55Z" transform="translate(-11.26 -7.82)"/><path class="h" d="M103.32,760.38l6.38,3.68-6.38-74.54Zm-6.38-3.68,6.38,3.68-6.38-74.55ZM90.56,753l6.38,3.69-6.38-74.55Zm-6.38-3.68L90.56,753l-6.38-74.54Zm-6.37-3.68,6.37,3.68-6.37-74.54ZM71.43,742l6.38,3.68L71.43,671.1Zm-6.38-3.69L71.43,742l-6.38-74.55Zm-6.38-3.68,6.38,3.68-6.38-74.54Zm0,0L52.3,660.06v70.86Zm-12.75-7.36,6.37,3.68-6.37-74.55Z" transform="translate(-11.26 -7.82)"/><path class="h" d="M103.32,689.52l6.38,3.68-6.38-74.55Zm-6.38-3.69,6.38,3.69L96.94,615Zm-6.38-3.68,6.38,3.68-6.38-74.54Zm-6.38-3.68,6.38,3.68L84.18,607.6Zm-6.37-3.68,6.37,3.68-6.37-74.55Zm-6.38-3.69,6.38,3.69-6.38-74.55Zm-6.38-3.68,6.38,3.68-6.38-74.54Zm-6.38-3.68,6.38,3.68-6.38-74.55Zm-6.37-3.68,6.37,3.68L52.3,589.19Zm0,0-6.38-74.55v70.86Z" transform="translate(-11.26 -7.82)"/><path class="g" d="M46,585.67l70.27-32.92L52.37,589.32ZM58.76,593l-6.39-3.66,70.27-32.92Zm6.38,3.66L58.76,593,129,560.06Zm6.39,3.66-6.39-3.66,70.28-32.92Zm0,0,70.28-32.92L77.92,604ZM77.92,604,148.2,571,84.31,607.62Zm12.78,7.31-6.39-3.65,70.28-32.93Zm6.39,3.66-6.39-3.66L161,578.35Zm6.39,3.66-6.39-3.66L167.37,582Zm6.39,3.66-6.39-3.66,70.28-32.92Z" transform="translate(-11.26 -7.82)"/><path class="g" d="M116.25,552.75l-6.38-3.66,70.27-32.92Zm0,0,70.28-32.93L122.64,556.4ZM129,560.06l-6.39-3.66,70.28-32.92Zm6.39,3.66L129,560.06l70.28-32.92Zm6.39,3.66-6.39-3.66L205.7,530.8ZM148.2,571l-6.39-3.66,70.28-32.92Zm0,0,70.28-32.93-63.89,36.58ZM161,578.35l-6.39-3.66,70.28-32.92Zm6.39,3.66L161,578.35l70.28-32.92Zm6.39,3.66L167.37,582l70.28-32.92Z" transform="translate(-11.26 -7.82)"/><path class="g" d="M116.26,625.9l-6.39-3.65,70.27-32.92Zm6.38,3.66-6.38-3.66L186.53,593Zm6.39,3.66-6.39-3.66,70.28-32.92Zm6.4,3.66-6.4-3.66,70.28-32.92Zm6.38,3.66-6.38-3.66L205.7,604Zm6.39,3.65-6.39-3.65,70.28-32.92Zm6.39,3.66-6.39-3.66,70.28-32.92Zm6.39,3.66-6.39-3.66,70.28-32.92Zm0,0,70.28-32.92-63.89,36.58Zm12.78,7.32-6.39-3.66,70.28-32.92Z" transform="translate(-11.26 -7.82)"/><path class="g" d="M180.14,589.33l-6.38-3.66L244,552.75Zm6.39,3.65-6.39-3.65,70.28-32.93Zm6.39,3.66L186.53,593l70.28-32.92Zm6.39,3.66-6.39-3.66,70.28-32.92ZM205.7,604l-6.39-3.66,70.28-32.92Zm6.39,3.66L205.7,604,276,571Zm6.39,3.66-6.39-3.66,70.28-32.92Zm6.39,3.65-6.39-3.65,70.28-32.93Zm6.39,3.66-6.39-3.66L295.15,582Zm0,0,70.28-32.92-63.89,36.58Z" transform="translate(-11.26 -7.82)"/><polygon class="e" points="290.34 577.85 418.12 504.69 545.9 577.85 418.12 651.01 290.34 577.85"/><polygon class="f" points="417.84 651.33 545.4 577.68 545.4 719.42 417.84 793.06 417.84 651.33"/><polygon class="g" points="417.84 651.33 290.28 577.68 290.28 719.42 417.84 793.06 417.84 651.33"/><path class="e" d="M429.1,659.15h0l63.77-29.73L429.1,666.24Zm0,14.17v-7.08l63.78-29.74Zm0,7.09v-7.09l63.78-29.73Zm0,7.09v-7.09l63.78-29.73Zm0,0,63.78-29.74L429.1,694.58Zm0,7.08,63.78-29.73L429.1,701.67Zm0,14.18v-7.09l63.78-29.73Zm0,7.08v-7.08L492.88,679Zm0,7.09v-7.09l63.78-29.73Zm0,7.09v-7.09l63.78-29.73Z" transform="translate(-11.26 -7.82)"/><path class="e" d="M492.88,629.42v-7.09h0l63.76-29.73Zm0,0,63.77-29.74L492.88,636.5Zm0,14.17V636.5l63.77-29.73Zm0,7.09v-7.09l63.77-29.74Zm0,7.08v-7.08l63.77-29.74Zm0,7.09v-7.09L556.65,628Zm0,0,63.77-29.74-63.77,36.83Zm0,14.17v-7.08l63.77-29.74Zm0,7.09V679l63.77-29.73Zm0,7.09v-7.09l63.77-29.74Z" transform="translate(-11.26 -7.82)"/><path class="e" d="M429.1,737.1V730l63.78-29.74Zm0,7.09V737.1l63.78-29.73Zm0,7.09v-7.09l63.78-29.73Zm0,7.09v-7.09l63.78-29.74Zm0,7.08v-7.08l63.78-29.74Zm0,7.09v-7.09l63.78-29.73Zm0,7.09v-7.09l63.78-29.74Zm0,7.08v-7.08l63.78-29.74Zm0,0L492.88,757,429.1,793.8Zm0,14.17V793.8l63.78-29.74Z" transform="translate(-11.26 -7.82)"/><path class="e" d="M492.88,700.28V693.2l63.77-29.74Zm0,7.09v-7.09l63.77-29.73Zm0,7.09v-7.09l63.77-29.74Zm0,7.08v-7.08l63.77-29.74Zm0,7.09v-7.09l63.77-29.73Zm0,7.09v-7.09l63.77-29.74Zm0,7.08v-7.08L556.65,706Zm0,7.09V742.8l63.77-29.73Zm0,7.09v-7.09l63.77-29.74Zm0,0,63.77-29.74-63.77,36.82Z" transform="translate(-11.26 -7.82)"/><path class="h" d="M429.1,800.88h0l-6.38-74.53V797.2Zm-12.76-7.36,6.38,3.68-6.38-74.54ZM410,789.84l6.37,3.68L410,719Zm-6.38-3.68,6.38,3.68-6.38-74.55Zm0,0-6.38-74.55v70.86Zm-6.38-3.69-6.38-74.54v70.86Zm-12.76-7.36,6.38,3.68-6.38-74.55Zm-6.37-3.68,6.37,3.68-6.37-74.55Zm-6.38-3.69,6.38,3.69-6.38-74.55Zm-6.38-3.68,6.38,3.68-6.38-74.54Z" transform="translate(-11.26 -7.82)"/><path class="h" d="M422.72,726.34,429.1,730h0l-6.38-74.54Zm0,0-6.37-74.55v70.87ZM410,719l6.37,3.69L410,648.11Zm-6.38-3.68L410,719l-6.38-74.54Zm-6.38-3.68,6.38,3.68-6.38-74.54Zm-6.38-3.68,6.38,3.68-6.38-74.55Zm0,0-6.38-74.55v70.86Zm-12.75-7.37,6.37,3.68-6.37-74.54Zm-6.38-3.68,6.38,3.68L371.7,626Zm-6.38-3.68,6.38,3.68-6.38-74.55Z" transform="translate(-11.26 -7.82)"/><path class="h" d="M358.94,760.38l6.38,3.68-6.38-74.54Zm-6.38-3.68,6.38,3.68-6.38-74.55ZM346.19,753l6.37,3.69-6.37-74.55Zm-6.38-3.68,6.38,3.68-6.38-74.54Zm-6.38-3.68,6.38,3.68-6.38-74.54ZM327.05,742l6.38,3.68-6.38-74.55Zm-6.38-3.69,6.38,3.69-6.38-74.55Zm-6.37-3.68,6.37,3.68-6.37-74.54Zm0,0-6.38-74.54v70.86Zm-12.76-7.36,6.38,3.68-6.38-74.55Z" transform="translate(-11.26 -7.82)"/><path class="h" d="M358.94,689.52l6.38,3.68-6.38-74.55Zm-6.38-3.69,6.38,3.69L352.56,615Zm-6.37-3.68,6.37,3.68-6.37-74.54Zm-6.38-3.68,6.38,3.68-6.38-74.55Zm-6.38-3.68,6.38,3.68-6.38-74.55Zm-6.38-3.69,6.38,3.69-6.38-74.55Zm-6.38-3.68,6.38,3.68-6.38-74.54Zm-6.38-3.68,6.38,3.68-6.38-74.55Zm-6.37-3.68,6.37,3.68-6.37-74.55Zm0,0-6.38-74.55v70.86Z" transform="translate(-11.26 -7.82)"/><path class="g" d="M301.6,585.67l70.28-32.92L308,589.32ZM314.38,593,308,589.32l70.28-32.92Zm6.39,3.66L314.38,593l70.27-32.92Zm6.39,3.66-6.39-3.66L391,563.72Zm0,0,70.27-32.92L333.55,604Zm6.39,3.66L403.82,571l-63.88,36.58Zm12.77,7.31-6.38-3.65,70.27-32.93Zm6.39,3.66-6.39-3.66,70.28-32.92Zm6.39,3.66-6.39-3.66L423,582Zm6.39,3.66-6.39-3.66,70.28-32.92Z" transform="translate(-11.26 -7.82)"/><path class="g" d="M371.88,552.75l-6.39-3.66,70.27-32.92Zm0,0,70.27-32.93L378.27,556.4Zm12.77,7.31-6.38-3.66,70.27-32.92Zm6.39,3.66-6.39-3.66,70.28-32.92Zm6.39,3.66L391,563.72l70.28-32.92Zm6.39,3.66-6.39-3.66,70.28-32.92Zm0,0,70.28-32.93-63.89,36.58Zm12.78,7.31-6.39-3.66,70.28-32.92ZM423,582l-6.39-3.66,70.28-32.92Zm6.39,3.66L423,582l70.28-32.92Z" transform="translate(-11.26 -7.82)"/><path class="g" d="M371.88,625.9l-6.39-3.65,70.28-32.92Zm6.39,3.66-6.39-3.66L442.15,593Zm6.39,3.66-6.39-3.66,70.27-32.92Zm6.39,3.66-6.39-3.66,70.28-32.92Zm6.39,3.66-6.39-3.66L461.32,604Zm6.38,3.65-6.38-3.65,70.27-32.92Zm6.39,3.66-6.39-3.66,70.28-32.92Zm6.39,3.66-6.39-3.66,70.28-32.92Zm0,0,70.28-32.92L423,655.17Zm12.78,7.32L423,655.17l70.28-32.92Z" transform="translate(-11.26 -7.82)"/><path class="g" d="M435.77,589.33l-6.39-3.66,70.28-32.92Zm6.38,3.65-6.38-3.65L506,556.4Zm6.4,3.66-6.4-3.66,70.28-32.92Zm6.39,3.66-6.39-3.66,70.27-32.92Zm6.38,3.66-6.38-3.66,70.27-32.92Zm6.39,3.66L461.32,604,531.6,571Zm6.39,3.66-6.39-3.66L538,574.7Zm6.39,3.65-6.39-3.65,70.28-32.93Zm6.39,3.66-6.39-3.66L550.77,582Zm0,0,70.28-32.92-63.89,36.58Z" transform="translate(-11.26 -7.82)"/><polygon class="e" points="545.96 577.85 673.74 504.69 801.52 577.85 673.74 651.01 545.96 577.85"/><polygon class="f" points="673.46 651.33 801.02 577.68 801.02 719.42 673.46 793.06 673.46 651.33"/><polygon class="g" points="673.46 651.33 545.9 577.68 545.9 719.42 673.46 793.06 673.46 651.33"/><path class="e" d="M684.72,659.15h0l63.77-29.73-63.78,36.82Zm0,14.17v-7.08L748.5,636.5Zm0,7.09v-7.09l63.78-29.73Zm0,7.09v-7.09l63.78-29.73Zm0,0,63.78-29.74-63.78,36.82Zm0,7.08,63.78-29.73-63.78,36.82Zm0,14.18v-7.09l63.78-29.73Zm0,7.08v-7.08L748.5,679Zm0,7.09v-7.09l63.78-29.73Zm0,7.09v-7.09L748.5,693.2Z" transform="translate(-11.26 -7.82)"/><path class="e" d="M748.5,629.42v-7.09h0l63.77-29.73Zm0,0,63.78-29.74L748.5,636.5Zm0,14.17V636.5l63.78-29.73Zm0,7.09v-7.09l63.78-29.74Zm0,7.08v-7.08l63.78-29.74Zm0,7.09v-7.09L812.28,628Zm0,0,63.78-29.74L748.5,671.94Zm0,14.17v-7.08l63.78-29.74Zm0,7.09V679l63.78-29.73Zm0,7.09v-7.09l63.78-29.74Z" transform="translate(-11.26 -7.82)"/><path class="e" d="M684.72,737.1V730l63.78-29.74Zm0,7.09V737.1l63.78-29.73Zm0,7.09v-7.09l63.78-29.73Zm0,7.09v-7.09l63.78-29.74Zm0,7.08v-7.08l63.78-29.74Zm0,7.09v-7.09l63.78-29.73Zm0,7.09v-7.09L748.5,742.8Zm0,7.08v-7.08l63.78-29.74Zm0,0L748.5,757,684.72,793.8Zm0,14.17V793.8l63.78-29.74Z" transform="translate(-11.26 -7.82)"/><path class="e" d="M748.5,700.28V693.2l63.78-29.74Zm0,7.09v-7.09l63.78-29.73Zm0,7.09v-7.09l63.78-29.74Zm0,7.08v-7.08l63.78-29.74Zm0,7.09v-7.09l63.78-29.73Zm0,7.09v-7.09l63.78-29.74Zm0,7.08v-7.08L812.28,706Zm0,7.09V742.8l63.78-29.73Zm0,7.09v-7.09l63.78-29.74Zm0,0,63.78-29.74L748.5,764.06Z" transform="translate(-11.26 -7.82)"/><path class="h" d="M684.72,800.88l-6.38-74.54V797.2ZM672,793.52l6.37,3.68L672,722.66Zm-6.38-3.68,6.38,3.68L665.59,719Zm-6.38-3.68,6.38,3.68-6.38-74.55Zm0,0-6.38-74.55v70.86Zm-6.38-3.69-6.38-74.54v70.86Zm-12.76-7.36,6.38,3.68-6.38-74.55Zm-6.37-3.68,6.37,3.68-6.37-74.55Zm-6.38-3.69,6.38,3.69-6.38-74.55Zm-6.38-3.68,6.38,3.68-6.38-74.54Z" transform="translate(-11.26 -7.82)"/><path class="h" d="M678.34,726.34l6.38,3.68-6.38-74.55Zm0,0L672,651.79v70.87ZM665.59,719l6.38,3.69-6.38-74.55Zm-6.38-3.68,6.38,3.68-6.38-74.54Zm-6.38-3.68,6.38,3.68-6.38-74.54Zm-6.38-3.68,6.38,3.68-6.38-74.55Zm0,0-6.37-74.55v70.86Zm-12.75-7.37,6.37,3.68L633.7,629.7Zm-6.38-3.68,6.38,3.68L627.32,626Zm-6.38-3.68,6.38,3.68-6.38-74.55Z" transform="translate(-11.26 -7.82)"/><path class="h" d="M614.56,760.38l6.38,3.68-6.38-74.54Zm-6.37-3.68,6.37,3.68-6.37-74.55ZM601.81,753l6.38,3.69-6.38-74.55Zm-6.38-3.68,6.38,3.68-6.38-74.54Zm-6.38-3.68,6.38,3.68-6.38-74.54ZM582.67,742l6.38,3.68-6.38-74.55Zm-6.38-3.69,6.38,3.69-6.38-74.55Zm-6.37-3.68,6.37,3.68-6.37-74.54Zm0,0-6.38-74.54v70.86Zm-12.76-7.36,6.38,3.68-6.38-74.55Z" transform="translate(-11.26 -7.82)"/><path class="h" d="M614.56,689.52l6.38,3.68-6.38-74.55Zm-6.37-3.69,6.37,3.69L608.19,615Zm-6.38-3.68,6.38,3.68-6.38-74.54Zm-6.38-3.68,6.38,3.68-6.38-74.55Zm-6.38-3.68,6.38,3.68-6.38-74.55Zm-6.38-3.69,6.38,3.69-6.38-74.55Zm-6.38-3.68,6.38,3.68-6.38-74.54Zm-6.37-3.68,6.37,3.68-6.37-74.55Zm-6.38-3.68,6.38,3.68-6.38-74.55Zm0,0-6.38-74.55v70.86Z" transform="translate(-11.26 -7.82)"/><path class="g" d="M557.22,585.67l70.28-32.92-63.89,36.57ZM570,593l-6.39-3.66,70.28-32.92Zm6.39,3.66L570,593l70.28-32.92Zm6.39,3.66-6.39-3.66,70.27-32.92Zm0,0,70.27-32.92L589.17,604Zm6.39,3.66L659.44,571l-63.88,36.58Zm12.77,7.31-6.38-3.65,70.27-32.93Zm6.39,3.66-6.39-3.66,70.28-32.92Zm6.39,3.66-6.39-3.66L678.61,582Zm6.39,3.66-6.39-3.66L685,585.67Z" transform="translate(-11.26 -7.82)"/><path class="g" d="M627.5,552.75l-6.39-3.66,70.28-32.92Zm0,0,70.27-32.93L633.89,556.4Zm12.78,7.31-6.39-3.66,70.27-32.92Zm6.38,3.66-6.38-3.66,70.27-32.92Zm6.39,3.66-6.39-3.66,70.28-32.92Zm6.39,3.66-6.39-3.66,70.28-32.92Zm0,0,70.28-32.93-63.89,36.58Zm12.78,7.31-6.39-3.66,70.28-32.92Zm6.39,3.66-6.39-3.66,70.28-32.92Zm6.39,3.66L678.61,582l70.28-32.92Z" transform="translate(-11.26 -7.82)"/><path class="g" d="M627.5,625.9l-6.39-3.65,70.28-32.92Zm6.39,3.66-6.39-3.66L697.78,593Zm6.39,3.66-6.39-3.66,70.28-32.92Zm6.39,3.66-6.39-3.66,70.28-32.92Zm6.39,3.66-6.39-3.66L717,604Zm6.39,3.65-6.39-3.65,70.27-32.92Zm6.39,3.66-6.39-3.66,70.27-32.92Zm6.38,3.66-6.38-3.66,70.27-32.92Zm0,0,70.28-32.92-63.89,36.58ZM685,658.83l-6.39-3.66,70.28-32.92Z" transform="translate(-11.26 -7.82)"/><path class="g" d="M691.39,589.33,685,585.67l70.28-32.92Zm6.39,3.65-6.39-3.65,70.28-32.93Zm6.39,3.66L697.78,593l70.28-32.92Zm6.39,3.66-6.39-3.66,70.28-32.92ZM717,604l-6.39-3.66,70.28-32.92Zm6.38,3.66L717,604,787.22,571Zm6.39,3.66-6.39-3.66,70.28-32.92Zm6.39,3.65-6.39-3.65L800,578.35Zm6.39,3.66-6.39-3.66L806.39,582Zm0,0,70.28-32.92-63.89,36.58Z" transform="translate(-11.26 -7.82)"/><polygon class="e" points="34.72 363.85 162.5 290.69 290.28 363.85 162.5 437.01 34.72 363.85"/><polygon class="f" points="162.22 437.33 289.78 363.68 289.78 505.42 162.22 579.06 162.22 437.33"/><polygon class="g" points="162.22 437.33 34.66 363.68 34.66 505.42 162.22 579.06 162.22 437.33"/><path class="e" d="M173.48,445.15h0l63.76-29.73-63.77,36.82Zm0,14.17v-7.08l63.77-29.74Zm0,7.09v-7.09l63.77-29.73Zm0,7.09v-7.09l63.77-29.73Zm0,0,63.77-29.74-63.77,36.82Zm0,7.08,63.77-29.73-63.77,36.82Zm0,14.18v-7.09l63.77-29.73Zm0,7.08v-7.08L237.25,465Zm0,7.09v-7.09l63.77-29.73Zm0,7.09v-7.09l63.77-29.73Z" transform="translate(-11.26 -7.82)"/><path class="e" d="M237.25,415.42v-7.09h0L301,378.59Zm0,0L301,385.68,237.25,422.5Zm0,14.17V422.5L301,392.77Zm0,7.09v-7.09L301,399.85Zm0,7.08v-7.08L301,406.94Zm0,7.09v-7.09L301,414Zm0,0L301,421.11l-63.78,36.83Zm0,14.17v-7.08L301,428.2Zm0,7.09V465L301,435.29Zm0,7.09v-7.09L301,442.37Z" transform="translate(-11.26 -7.82)"/><path class="e" d="M173.48,523.1V516l63.77-29.74Zm0,7.09V523.1l63.77-29.73Zm0,7.09v-7.09l63.77-29.73Zm0,7.09v-7.09l63.77-29.74Zm0,7.08v-7.08l63.77-29.74Zm0,7.09v-7.09l63.77-29.73Zm0,7.09v-7.09l63.77-29.74Zm0,7.08v-7.08l63.77-29.74Zm0,0L237.25,543,173.48,579.8Zm0,14.17V579.8l63.77-29.74Z" transform="translate(-11.26 -7.82)"/><path class="e" d="M237.25,486.28V479.2L301,449.46Zm0,7.09v-7.09L301,456.55Zm0,7.09v-7.09L301,463.63Zm0,7.08v-7.08L301,470.72Zm0,7.09v-7.09L301,477.81Zm0,7.09v-7.09L301,484.89Zm0,7.08v-7.08L301,492Zm0,7.09V528.8L301,499.07Zm0,7.09v-7.09L301,506.15Zm0,0L301,513.24l-63.78,36.82Z" transform="translate(-11.26 -7.82)"/><path class="h" d="M173.48,586.88l-6.38-74.54V583.2Zm-12.76-7.36,6.38,3.68-6.38-74.54Zm-6.38-3.68,6.38,3.68L154.34,505ZM148,572.16l6.37,3.68L148,501.29Zm0,0-6.38-74.55v70.86Zm-6.38-3.69-6.38-74.54v70.86Zm-12.76-7.36,6.38,3.68-6.38-74.55Zm-6.38-3.68,6.38,3.68-6.38-74.55Zm-6.37-3.69,6.37,3.69-6.37-74.55Zm-6.38-3.68,6.38,3.68L109.7,479.2Z" transform="translate(-11.26 -7.82)"/><path class="h" d="M167.1,512.34l6.38,3.68-6.38-74.55Zm0,0-6.38-74.55v70.87ZM154.34,505l6.38,3.69-6.38-74.55ZM148,501.29l6.37,3.68L148,430.43Zm-6.38-3.68,6.38,3.68-6.38-74.54Zm-6.38-3.68,6.38,3.68-6.38-74.55Zm0,0-6.38-74.55v70.86Zm-12.76-7.37,6.38,3.68-6.38-74.54Zm-6.37-3.68,6.37,3.68L116.08,412Zm-6.38-3.68,6.38,3.68-6.38-74.55Z" transform="translate(-11.26 -7.82)"/><path class="h" d="M103.32,546.38l6.38,3.68-6.38-74.54Zm-6.38-3.68,6.38,3.68-6.38-74.55ZM90.56,539l6.38,3.69-6.38-74.55Zm-6.38-3.68L90.56,539l-6.38-74.54Zm-6.37-3.68,6.37,3.68-6.37-74.54ZM71.43,528l6.38,3.68L71.43,457.1Zm-6.38-3.69L71.43,528l-6.38-74.55Zm-6.38-3.68,6.38,3.68-6.38-74.54Zm0,0L52.3,446.06v70.86Zm-12.75-7.36,6.37,3.68-6.37-74.55Z" transform="translate(-11.26 -7.82)"/><path class="h" d="M103.32,475.52l6.38,3.68-6.38-74.55Zm-6.38-3.69,6.38,3.69L96.94,401Zm-6.38-3.68,6.38,3.68-6.38-74.54Zm-6.38-3.68,6.38,3.68L84.18,393.6Zm-6.37-3.68,6.37,3.68-6.37-74.55Zm-6.38-3.69,6.38,3.69-6.38-74.55Zm-6.38-3.68,6.38,3.68-6.38-74.54Zm-6.38-3.68,6.38,3.68-6.38-74.55Zm-6.37-3.68,6.37,3.68L52.3,375.19Zm0,0-6.38-74.55v70.86Z" transform="translate(-11.26 -7.82)"/><path class="g" d="M46,371.67l70.27-32.92L52.37,375.32ZM58.76,379l-6.39-3.66,70.27-32.92Zm6.38,3.66L58.76,379,129,346.06Zm6.39,3.66-6.39-3.66,70.28-32.92Zm0,0,70.28-32.92L77.92,390ZM77.92,390,148.2,357,84.31,393.62Zm12.78,7.31-6.39-3.65,70.28-32.93Zm6.39,3.66-6.39-3.66L161,364.35Zm6.39,3.66-6.39-3.66L167.37,368Zm6.39,3.66-6.39-3.66,70.28-32.92Z" transform="translate(-11.26 -7.82)"/><path class="g" d="M116.25,338.75l-6.38-3.66,70.27-32.92Zm0,0,70.28-32.93L122.64,342.4ZM129,346.06l-6.39-3.66,70.28-32.92Zm6.39,3.66L129,346.06l70.28-32.92Zm6.39,3.66-6.39-3.66L205.7,316.8ZM148.2,357l-6.39-3.66,70.28-32.92Zm0,0,70.28-32.93-63.89,36.58ZM161,364.35l-6.39-3.66,70.28-32.92Zm6.39,3.66L161,364.35l70.28-32.92Zm6.39,3.66L167.37,368l70.28-32.92Z" transform="translate(-11.26 -7.82)"/><path class="g" d="M116.26,411.9l-6.39-3.65,70.27-32.92Zm6.38,3.66-6.38-3.66L186.53,379Zm6.39,3.66-6.39-3.66,70.28-32.92Zm6.4,3.66-6.4-3.66,70.28-32.92Zm6.38,3.66-6.38-3.66L205.7,390Zm6.39,3.65-6.39-3.65,70.28-32.92Zm6.39,3.66-6.39-3.66,70.28-32.92Zm6.39,3.66-6.39-3.66,70.28-32.92Zm0,0,70.28-32.92-63.89,36.58Zm12.78,7.32-6.39-3.66,70.28-32.92Z" transform="translate(-11.26 -7.82)"/><path class="g" d="M180.14,375.33l-6.38-3.66L244,338.75Zm6.39,3.65-6.39-3.65,70.28-32.93Zm6.39,3.66L186.53,379l70.28-32.92Zm6.39,3.66-6.39-3.66,70.28-32.92ZM205.7,390l-6.39-3.66,70.28-32.92Zm6.39,3.66L205.7,390,276,357Zm6.39,3.66-6.39-3.66,70.28-32.92Zm6.39,3.65-6.39-3.65,70.28-32.93Zm6.39,3.66-6.39-3.66L295.15,368Zm0,0,70.28-32.92-63.89,36.58Z" transform="translate(-11.26 -7.82)"/><polygon class="e" points="290.34 363.85 418.12 290.69 545.9 363.85 418.12 437.01 290.34 363.85"/><polygon class="f" points="417.84 437.33 545.4 363.68 545.4 505.42 417.84 579.06 417.84 437.33"/><polygon class="g" points="417.84 437.33 290.28 363.68 290.28 505.42 417.84 579.06 417.84 437.33"/><path class="e" d="M429.1,445.15h0l63.78-29.73L429.1,452.24Zm0,14.17v-7.08l63.78-29.74Zm0,7.09v-7.09l63.78-29.73Zm0,7.09v-7.09l63.78-29.73Zm0,0,63.78-29.74L429.1,480.58Zm0,7.08,63.78-29.73L429.1,487.67Zm0,14.18v-7.09l63.78-29.73Zm0,7.08v-7.08L492.88,465Zm0,7.09v-7.09l63.78-29.73Zm0,7.09v-7.09l63.78-29.73Z" transform="translate(-11.26 -7.82)"/><path class="e" d="M492.88,415.42v-7.09h0l63.77-29.74Zm0,0,63.77-29.74L492.88,422.5Zm0,14.17V422.5l63.77-29.73Zm0,7.09v-7.09l63.77-29.74Zm0,7.08v-7.08l63.77-29.74Zm0,7.09v-7.09L556.65,414Zm0,0,63.77-29.74-63.77,36.83Zm0,14.17v-7.08l63.77-29.74Zm0,7.09V465l63.77-29.73Zm0,7.09v-7.09l63.77-29.74Z" transform="translate(-11.26 -7.82)"/><path class="e" d="M429.1,523.1V516l63.78-29.74Zm0,7.09V523.1l63.78-29.73Zm0,7.09v-7.09l63.78-29.73Zm0,7.09v-7.09l63.78-29.74Zm0,7.08v-7.08l63.78-29.74Zm0,7.09v-7.09l63.78-29.73Zm0,7.09v-7.09l63.78-29.74Zm0,7.08v-7.08l63.78-29.74Zm0,0L492.88,543,429.1,579.8Zm0,14.17V579.8l63.78-29.74Z" transform="translate(-11.26 -7.82)"/><path class="e" d="M492.88,486.28V479.2l63.77-29.74Zm0,7.09v-7.09l63.77-29.73Zm0,7.09v-7.09l63.77-29.74Zm0,7.08v-7.08l63.77-29.74Zm0,7.09v-7.09l63.77-29.73Zm0,7.09v-7.09l63.77-29.74Zm0,7.08v-7.08L556.65,492Zm0,7.09V528.8l63.77-29.73Zm0,7.09v-7.09l63.77-29.74Zm0,0,63.77-29.74-63.77,36.82Z" transform="translate(-11.26 -7.82)"/><path class="h" d="M429.1,586.88h0l-6.38-74.53V583.2Zm-12.76-7.36,6.38,3.68-6.38-74.54ZM410,575.84l6.37,3.68L410,505Zm-6.38-3.68,6.38,3.68-6.38-74.55Zm0,0-6.38-74.55v70.86Zm-6.38-3.69-6.38-74.54v70.86Zm-12.76-7.36,6.38,3.68-6.38-74.55Zm-6.37-3.68,6.37,3.68-6.37-74.55Zm-6.38-3.69,6.38,3.69-6.38-74.55Zm-6.38-3.68,6.38,3.68-6.38-74.54Z" transform="translate(-11.26 -7.82)"/><path class="h" d="M422.72,512.34,429.1,516h0l-6.38-74.54Zm0,0-6.37-74.55v70.87ZM410,505l6.37,3.69L410,434.11Zm-6.38-3.68L410,505l-6.38-74.54Zm-6.38-3.68,6.38,3.68-6.38-74.54Zm-6.38-3.68,6.38,3.68-6.38-74.55Zm0,0-6.38-74.55v70.86Zm-12.75-7.37,6.37,3.68-6.37-74.54Zm-6.38-3.68,6.38,3.68L371.7,412Zm-6.38-3.68,6.38,3.68-6.38-74.55Z" transform="translate(-11.26 -7.82)"/><path class="h" d="M358.94,546.38l6.38,3.68-6.38-74.54Zm-6.38-3.68,6.38,3.68-6.38-74.55ZM346.19,539l6.37,3.69-6.37-74.55Zm-6.38-3.68,6.38,3.68-6.38-74.54Zm-6.38-3.68,6.38,3.68-6.38-74.54ZM327.05,528l6.38,3.68-6.38-74.55Zm-6.38-3.69,6.38,3.69-6.38-74.55Zm-6.37-3.68,6.37,3.68-6.37-74.54Zm0,0-6.38-74.54v70.86Zm-12.76-7.36,6.38,3.68-6.38-74.55Z" transform="translate(-11.26 -7.82)"/><path class="h" d="M358.94,475.52l6.38,3.68-6.38-74.55Zm-6.38-3.69,6.38,3.69L352.56,401Zm-6.37-3.68,6.37,3.68-6.37-74.54Zm-6.38-3.68,6.38,3.68-6.38-74.55Zm-6.38-3.68,6.38,3.68-6.38-74.55Zm-6.38-3.69,6.38,3.69-6.38-74.55Zm-6.38-3.68,6.38,3.68-6.38-74.54Zm-6.38-3.68,6.38,3.68-6.38-74.55Zm-6.37-3.68,6.37,3.68-6.37-74.55Zm0,0-6.38-74.55v70.86Z" transform="translate(-11.26 -7.82)"/><path class="g" d="M301.6,371.67l70.28-32.92L308,375.32ZM314.38,379,308,375.32l70.28-32.92Zm6.39,3.66L314.38,379l70.27-32.92Zm6.39,3.66-6.39-3.66L391,349.72Zm0,0,70.27-32.92L333.55,390Zm6.39,3.66L403.82,357l-63.88,36.58Zm12.77,7.31-6.38-3.65,70.27-32.93Zm6.39,3.66-6.39-3.66,70.28-32.92Zm6.39,3.66-6.39-3.66L423,368Zm6.39,3.66-6.39-3.66,70.28-32.92Z" transform="translate(-11.26 -7.82)"/><path class="g" d="M371.88,338.75l-6.39-3.66,70.27-32.92Zm0,0,70.27-32.93L378.27,342.4Zm12.77,7.31-6.38-3.66,70.27-32.92Zm6.39,3.66-6.39-3.66,70.28-32.92Zm6.39,3.66L391,349.72l70.28-32.92Zm6.39,3.66-6.39-3.66,70.28-32.92Zm0,0,70.28-32.93-63.89,36.58Zm12.78,7.31-6.39-3.66,70.28-32.92ZM423,368l-6.39-3.66,70.28-32.92Zm6.39,3.66L423,368l70.28-32.92Z" transform="translate(-11.26 -7.82)"/><path class="g" d="M371.88,411.9l-6.39-3.65,70.28-32.92Zm6.39,3.66-6.39-3.66L442.15,379Zm6.39,3.66-6.39-3.66,70.27-32.92Zm6.39,3.66-6.39-3.66,70.28-32.92Zm6.39,3.66-6.39-3.66L461.32,390Zm6.38,3.65-6.38-3.65,70.27-32.92Zm6.39,3.66-6.39-3.66,70.28-32.92Zm6.39,3.66-6.39-3.66,70.28-32.92Zm0,0,70.28-32.92L423,441.17Zm12.78,7.32L423,441.17l70.28-32.92Z" transform="translate(-11.26 -7.82)"/><path class="g" d="M435.77,375.33l-6.39-3.66,70.28-32.92Zm6.38,3.65-6.38-3.65L506,342.4Zm6.4,3.66-6.4-3.66,70.28-32.92Zm6.39,3.66-6.39-3.66,70.27-32.92Zm6.38,3.66-6.38-3.66,70.27-32.92Zm6.39,3.66L461.32,390,531.6,357Zm6.39,3.66-6.39-3.66L538,360.7Zm6.39,3.65-6.39-3.65,70.28-32.93Zm6.39,3.66-6.39-3.66L550.77,368Zm0,0,70.28-32.92-63.89,36.58Z" transform="translate(-11.26 -7.82)"/><polygon class="e" points="545.96 363.85 673.74 290.69 801.52 363.85 673.74 437.01 545.96 363.85"/><polygon class="f" points="673.46 437.33 801.02 363.68 801.02 505.42 673.46 579.06 673.46 437.33"/><polygon class="g" points="673.46 437.33 545.9 363.68 545.9 505.42 673.46 579.06 673.46 437.33"/><path class="e" d="M684.72,445.15h0l63.77-29.73-63.78,36.82Zm0,14.17v-7.08L748.5,422.5Zm0,7.09v-7.09l63.78-29.73Zm0,7.09v-7.09l63.78-29.73Zm0,0,63.78-29.74-63.78,36.82Zm0,7.08,63.78-29.73-63.78,36.82Zm0,14.18v-7.09l63.78-29.73Zm0,7.08v-7.08L748.5,465Zm0,7.09v-7.09l63.78-29.73Zm0,7.09v-7.09L748.5,479.2Z" transform="translate(-11.26 -7.82)"/><path class="e" d="M748.5,415.42v-7.09h0l63.78-29.74Zm0,0,63.78-29.74L748.5,422.5Zm0,14.17V422.5l63.78-29.73Zm0,7.09v-7.09l63.78-29.74Zm0,7.08v-7.08l63.78-29.74Zm0,7.09v-7.09L812.28,414Zm0,0,63.78-29.74L748.5,457.94Zm0,14.17v-7.08l63.78-29.74Zm0,7.09V465l63.78-29.73Zm0,7.09v-7.09l63.78-29.74Z" transform="translate(-11.26 -7.82)"/><path class="e" d="M684.72,523.1V516l63.78-29.74Zm0,7.09V523.1l63.78-29.73Zm0,7.09v-7.09l63.78-29.73Zm0,7.09v-7.09l63.78-29.74Zm0,7.08v-7.08l63.78-29.74Zm0,7.09v-7.09l63.78-29.73Zm0,7.09v-7.09L748.5,528.8Zm0,7.08v-7.08l63.78-29.74Zm0,0L748.5,543,684.72,579.8Zm0,14.17V579.8l63.78-29.74Z" transform="translate(-11.26 -7.82)"/><path class="e" d="M748.5,486.28V479.2l63.78-29.74Zm0,7.09v-7.09l63.78-29.73Zm0,7.09v-7.09l63.78-29.74Zm0,7.08v-7.08l63.78-29.74Zm0,7.09v-7.09l63.78-29.73Zm0,7.09v-7.09l63.78-29.74Zm0,7.08v-7.08L812.28,492Zm0,7.09V528.8l63.78-29.73Zm0,7.09v-7.09l63.78-29.74Zm0,0,63.78-29.74L748.5,550.06Z" transform="translate(-11.26 -7.82)"/><path class="h" d="M684.72,586.88l-6.38-74.54V583.2ZM672,579.52l6.37,3.68L672,508.66Zm-6.38-3.68,6.38,3.68L665.59,505Zm-6.38-3.68,6.38,3.68-6.38-74.55Zm0,0-6.38-74.55v70.86Zm-6.38-3.69-6.38-74.54v70.86Zm-12.76-7.36,6.38,3.68-6.38-74.55Zm-6.37-3.68,6.37,3.68-6.37-74.55Zm-6.38-3.69,6.38,3.69-6.38-74.55Zm-6.38-3.68,6.38,3.68-6.38-74.54Z" transform="translate(-11.26 -7.82)"/><path class="h" d="M678.34,512.34l6.38,3.68-6.38-74.55Zm0,0L672,437.79v70.87ZM665.59,505l6.38,3.69-6.38-74.55Zm-6.38-3.68,6.38,3.68-6.38-74.54Zm-6.38-3.68,6.38,3.68-6.38-74.54Zm-6.38-3.68,6.38,3.68-6.38-74.55Zm0,0-6.37-74.55v70.86Zm-12.75-7.37,6.37,3.68L633.7,415.7Zm-6.38-3.68,6.38,3.68L627.32,412Zm-6.38-3.68,6.38,3.68-6.38-74.55Z" transform="translate(-11.26 -7.82)"/><path class="h" d="M614.56,546.38l6.38,3.68-6.38-74.54Zm-6.37-3.68,6.37,3.68-6.37-74.55ZM601.81,539l6.38,3.69-6.38-74.55Zm-6.38-3.68,6.38,3.68-6.38-74.54Zm-6.38-3.68,6.38,3.68-6.38-74.54ZM582.67,528l6.38,3.68-6.38-74.55Zm-6.38-3.69,6.38,3.69-6.38-74.55Zm-6.37-3.68,6.37,3.68-6.37-74.54Zm0,0-6.38-74.54v70.86Zm-12.76-7.36,6.38,3.68-6.38-74.55Z" transform="translate(-11.26 -7.82)"/><path class="h" d="M614.56,475.52l6.38,3.68-6.38-74.55Zm-6.37-3.69,6.37,3.69L608.19,401Zm-6.38-3.68,6.38,3.68-6.38-74.54Zm-6.38-3.68,6.38,3.68-6.38-74.55Zm-6.38-3.68,6.38,3.68-6.38-74.55Zm-6.38-3.69,6.38,3.69-6.38-74.55Zm-6.38-3.68,6.38,3.68-6.38-74.54Zm-6.37-3.68,6.37,3.68-6.37-74.55Zm-6.38-3.68,6.38,3.68-6.38-74.55Zm0,0-6.38-74.55v70.86Z" transform="translate(-11.26 -7.82)"/><path class="g" d="M557.22,371.67l70.28-32.92-63.89,36.57ZM570,379l-6.39-3.66,70.28-32.92Zm6.39,3.66L570,379l70.28-32.92Zm6.39,3.66-6.39-3.66,70.27-32.92Zm0,0,70.27-32.92L589.17,390Zm6.39,3.66L659.44,357l-63.88,36.58Zm12.77,7.31-6.38-3.65,70.27-32.93Zm6.39,3.66-6.39-3.66,70.28-32.92Zm6.39,3.66-6.39-3.66L678.61,368Zm6.39,3.66-6.39-3.66L685,371.67Z" transform="translate(-11.26 -7.82)"/><path class="g" d="M627.5,338.75l-6.39-3.66,70.28-32.92Zm0,0,70.27-32.93L633.89,342.4Zm12.78,7.31-6.39-3.66,70.27-32.92Zm6.38,3.66-6.38-3.66,70.27-32.92Zm6.39,3.66-6.39-3.66,70.28-32.92Zm6.39,3.66-6.39-3.66,70.28-32.92Zm0,0,70.28-32.93-63.89,36.58Zm12.78,7.31-6.39-3.66,70.28-32.92Zm6.39,3.66-6.39-3.66,70.28-32.92Zm6.39,3.66L678.61,368l70.28-32.92Z" transform="translate(-11.26 -7.82)"/><path class="g" d="M627.5,411.9l-6.39-3.65,70.28-32.92Zm6.39,3.66-6.39-3.66L697.78,379Zm6.39,3.66-6.39-3.66,70.28-32.92Zm6.39,3.66-6.39-3.66,70.28-32.92Zm6.39,3.66-6.39-3.66L717,390Zm6.39,3.65-6.39-3.65,70.27-32.92Zm6.39,3.66-6.39-3.66,70.27-32.92Zm6.38,3.66-6.38-3.66,70.27-32.92Zm0,0,70.28-32.92-63.89,36.58ZM685,444.83l-6.39-3.66,70.28-32.92Z" transform="translate(-11.26 -7.82)"/><path class="g" d="M691.39,375.33,685,371.67l70.28-32.92Zm6.39,3.65-6.39-3.65,70.28-32.93Zm6.39,3.66L697.78,379l70.28-32.92Zm6.39,3.66-6.39-3.66,70.28-32.92ZM717,390l-6.39-3.66,70.28-32.92Zm6.38,3.66L717,390,787.22,357Zm6.39,3.66-6.39-3.66,70.28-32.92Zm6.39,3.65-6.39-3.65L800,364.35Zm6.39,3.66-6.39-3.66L806.39,368Zm0,0,70.28-32.92-63.89,36.58Z" transform="translate(-11.26 -7.82)"/><polygon class="e" points="34.72 145.85 162.5 72.69 290.28 145.84 162.5 219.01 34.72 145.85"/><polygon class="f" points="162.22 219.33 289.78 145.68 289.78 287.42 162.22 361.06 162.22 219.33"/><polygon class="g" points="162.22 219.33 34.66 145.68 34.66 287.42 162.22 361.06 162.22 219.33"/><path class="e" d="M169.48,227.15h0l63.76-29.73-63.77,36.82Zm0,14.17v-7.08l63.77-29.74Zm0,7.09v-7.09l63.77-29.73Zm0,7.09v-7.09l63.77-29.73Zm0,0,63.77-29.74-63.77,36.82Zm0,7.08,63.77-29.73-63.77,36.82Zm0,14.18v-7.09l63.77-29.73Zm0,7.08v-7.08L233.25,247Zm0,7.09v-7.09l63.77-29.73Zm0,7.09v-7.09l63.77-29.73Z" transform="translate(-11.26 -7.82)"/><path class="e" d="M233.25,197.42v-7.09h0L297,160.59Zm0,0L297,167.68,233.25,204.5Zm0,14.17V204.5L297,174.77Zm0,7.09v-7.09L297,181.85Zm0,7.08v-7.08L297,188.94Zm0,7.09v-7.09L297,196Zm0,0L297,203.11l-63.78,36.83Zm0,14.17v-7.08L297,210.2Zm0,7.09V247L297,217.29Zm0,7.09v-7.09L297,224.37Z" transform="translate(-11.26 -7.82)"/><path class="e" d="M169.48,305.1V298l63.77-29.74Zm0,7.09V305.1l63.77-29.73Zm0,7.09v-7.09l63.77-29.73Zm0,7.09v-7.09l63.77-29.74Zm0,7.08v-7.08l63.77-29.74Zm0,7.09v-7.09l63.77-29.73Zm0,7.09v-7.09l63.77-29.74Zm0,7.08v-7.08l63.77-29.74Zm0,0L233.25,325,169.48,361.8Zm0,14.17V361.8l63.77-29.74Z" transform="translate(-11.26 -7.82)"/><path class="e" d="M233.25,268.28V261.2L297,231.46Zm0,7.09v-7.09L297,238.55Zm0,7.09v-7.09L297,245.63Zm0,7.08v-7.08L297,252.72Zm0,7.09v-7.09L297,259.81Zm0,7.09v-7.09L297,266.89Zm0,7.08v-7.08L297,274Zm0,7.09V310.8L297,281.07Zm0,7.09v-7.09L297,288.15Zm0,0L297,295.24l-63.78,36.82Z" transform="translate(-11.26 -7.82)"/><path class="h" d="M169.48,368.88l-6.38-74.54V365.2Zm-12.76-7.36,6.38,3.68-6.38-74.54Zm-6.38-3.68,6.38,3.68L150.34,287ZM144,354.16l6.37,3.68L144,283.29Zm0,0-6.38-74.55v70.86Zm-6.38-3.69-6.38-74.54v70.86Zm-12.76-7.36,6.38,3.68-6.38-74.55Zm-6.38-3.68,6.38,3.68-6.38-74.55Zm-6.37-3.69,6.37,3.69-6.37-74.55Zm-6.38-3.68,6.38,3.68L105.7,261.2Z" transform="translate(-11.26 -7.82)"/><path class="h" d="M163.1,294.34l6.38,3.68-6.38-74.55Zm0,0-6.38-74.55v70.87ZM150.34,287l6.38,3.69-6.38-74.55ZM144,283.29l6.37,3.68L144,212.43Zm-6.38-3.68,6.38,3.68-6.38-74.54Zm-6.38-3.68,6.38,3.68-6.38-74.55Zm0,0-6.38-74.55v70.86Zm-12.76-7.37,6.38,3.68-6.38-74.54Zm-6.37-3.68,6.37,3.68L112.08,194Zm-6.38-3.68,6.38,3.68-6.38-74.55Z" transform="translate(-11.26 -7.82)"/><path class="h" d="M99.32,328.38l6.38,3.68-6.38-74.54Zm-6.38-3.68,6.38,3.68-6.38-74.55ZM86.56,321l6.38,3.69-6.38-74.55Zm-6.38-3.68L86.56,321l-6.38-74.54Zm-6.37-3.68,6.37,3.68-6.37-74.54ZM67.43,310l6.38,3.68L67.43,239.1Zm-6.38-3.69L67.43,310l-6.38-74.55Zm-6.38-3.68,6.38,3.68-6.38-74.54Zm0,0L48.3,228.06v70.86Zm-12.75-7.36,6.37,3.68-6.37-74.55Z" transform="translate(-11.26 -7.82)"/><path class="h" d="M99.32,257.52l6.38,3.68-6.38-74.55Zm-6.38-3.69,6.38,3.69L92.94,183Zm-6.38-3.68,6.38,3.68-6.38-74.54Zm-6.38-3.68,6.38,3.68L80.18,175.6Zm-6.37-3.68,6.37,3.68-6.37-74.55Zm-6.38-3.69,6.38,3.69-6.38-74.55Zm-6.38-3.68,6.38,3.68-6.38-74.54Zm-6.38-3.68,6.38,3.68-6.38-74.55Zm-6.37-3.68,6.37,3.68L48.3,157.19Zm0,0-6.38-74.55v70.86Z" transform="translate(-11.26 -7.82)"/><path class="g" d="M42,153.67l70.27-32.92L48.37,157.32ZM54.76,161l-6.39-3.66,70.27-32.92Zm6.38,3.66L54.76,161,125,128.06Zm6.39,3.66-6.39-3.66,70.28-32.92Zm0,0,70.28-32.92L73.92,172ZM73.92,172,144.2,139,80.31,175.62Zm12.78,7.31-6.39-3.65,70.28-32.93Zm6.39,3.66-6.39-3.66L157,146.35Zm6.39,3.66-6.39-3.66L163.37,150Zm6.39,3.66-6.39-3.66,70.28-32.92Z" transform="translate(-11.26 -7.82)"/><path class="g" d="M112.25,120.75l-6.38-3.66,70.27-32.92Zm0,0,70.28-32.93L118.64,124.4ZM125,128.06l-6.39-3.66,70.28-32.92Zm6.39,3.66L125,128.06l70.28-32.92Zm6.39,3.66-6.39-3.66L201.7,98.8ZM144.2,139l-6.39-3.66,70.28-32.92Zm0,0,70.28-32.93-63.89,36.58ZM157,146.35l-6.39-3.66,70.28-32.92Zm6.39,3.66L157,146.35l70.28-32.92Zm6.39,3.66L163.37,150l70.28-32.92Z" transform="translate(-11.26 -7.82)"/><path class="g" d="M112.26,193.9l-6.39-3.65,70.27-32.92Zm6.38,3.66-6.38-3.66L182.53,161Zm6.39,3.66-6.39-3.66,70.28-32.92Zm6.4,3.66-6.4-3.66,70.28-32.92Zm6.38,3.66-6.38-3.66L201.7,172Zm6.39,3.65-6.39-3.65,70.28-32.92Zm6.39,3.66-6.39-3.66,70.28-32.92Zm6.39,3.66-6.39-3.66,70.28-32.92Zm0,0,70.28-32.92-63.89,36.58Zm12.78,7.32-6.39-3.66,70.28-32.92Z" transform="translate(-11.26 -7.82)"/><path class="g" d="M176.14,157.33l-6.38-3.66L240,120.75Zm6.39,3.65-6.39-3.65,70.28-32.93Zm6.39,3.66L182.53,161l70.28-32.92Zm6.39,3.66-6.39-3.66,70.28-32.92ZM201.7,172l-6.39-3.66,70.28-32.92Zm6.39,3.66L201.7,172,272,139Zm6.39,3.66-6.39-3.66,70.28-32.92Zm6.39,3.65-6.39-3.65,70.28-32.93Zm6.39,3.66-6.39-3.66L291.15,150Zm0,0,70.28-32.92-63.89,36.58Z" transform="translate(-11.26 -7.82)"/><polygon class="e" points="290.34 145.85 418.12 72.69 545.9 145.84 418.12 219.01 290.34 145.85"/><polygon class="f" points="417.84 219.33 545.4 145.68 545.4 287.42 417.84 361.06 417.84 219.33"/><polygon class="g" points="417.84 219.33 290.28 145.68 290.28 287.42 417.84 361.06 417.84 219.33"/><path class="e" d="M425.1,227.15h0l63.77-29.73L425.1,234.24Zm0,14.17v-7.08l63.78-29.74Zm0,7.09v-7.09l63.78-29.73Zm0,7.09v-7.09l63.78-29.73Zm0,0,63.78-29.74L425.1,262.58Zm0,7.08,63.78-29.73L425.1,269.67Zm0,14.18v-7.09l63.78-29.73Zm0,7.08v-7.08L488.88,247Zm0,7.09v-7.09l63.78-29.73Zm0,7.09v-7.09l63.78-29.73Z" transform="translate(-11.26 -7.82)"/><path class="e" d="M488.88,197.42v-7.09h0l63.76-29.73Zm0,0,63.77-29.74L488.88,204.5Zm0,14.17V204.5l63.77-29.73Zm0,7.09v-7.09l63.77-29.74Zm0,7.08v-7.08l63.77-29.74Zm0,7.09v-7.09L552.65,196Zm0,0,63.77-29.74-63.77,36.83Zm0,14.17v-7.08l63.77-29.74Zm0,7.09V247l63.77-29.73Zm0,7.09v-7.09l63.77-29.74Z" transform="translate(-11.26 -7.82)"/><path class="e" d="M425.1,305.1V298l63.78-29.74Zm0,7.09V305.1l63.78-29.73Zm0,7.09v-7.09l63.78-29.73Zm0,7.09v-7.09l63.78-29.74Zm0,7.08v-7.08l63.78-29.74Zm0,7.09v-7.09l63.78-29.73Zm0,7.09v-7.09l63.78-29.74Zm0,7.08v-7.08l63.78-29.74Zm0,0L488.88,325,425.1,361.8Zm0,14.17V361.8l63.78-29.74Z" transform="translate(-11.26 -7.82)"/><path class="e" d="M488.88,268.28V261.2l63.77-29.74Zm0,7.09v-7.09l63.77-29.73Zm0,7.09v-7.09l63.77-29.74Zm0,7.08v-7.08l63.77-29.74Zm0,7.09v-7.09l63.77-29.73Zm0,7.09v-7.09l63.77-29.74Zm0,7.08v-7.08L552.65,274Zm0,7.09V310.8l63.77-29.73Zm0,7.09v-7.09l63.77-29.74Zm0,0,63.77-29.74-63.77,36.82Z" transform="translate(-11.26 -7.82)"/><path class="h" d="M425.1,368.88h0l-6.38-74.53V365.2Zm-12.76-7.36,6.38,3.68-6.38-74.54ZM406,357.84l6.37,3.68L406,287Zm-6.38-3.68,6.38,3.68-6.38-74.55Zm0,0-6.38-74.55v70.86Zm-6.38-3.69-6.38-74.54v70.86Zm-12.76-7.36,6.38,3.68-6.38-74.55Zm-6.37-3.68,6.37,3.68-6.37-74.55Zm-6.38-3.69,6.38,3.69-6.38-74.55Zm-6.38-3.68,6.38,3.68-6.38-74.54Z" transform="translate(-11.26 -7.82)"/><path class="h" d="M418.72,294.34,425.1,298h0l-6.38-74.54Zm0,0-6.37-74.55v70.87ZM406,287l6.37,3.69L406,216.11Zm-6.38-3.68L406,287l-6.38-74.54Zm-6.38-3.68,6.38,3.68-6.38-74.54Zm-6.38-3.68,6.38,3.68-6.38-74.55Zm0,0-6.38-74.55v70.86Zm-12.75-7.37,6.37,3.68-6.37-74.54Zm-6.38-3.68,6.38,3.68L367.7,194Zm-6.38-3.68,6.38,3.68-6.38-74.55Z" transform="translate(-11.26 -7.82)"/><path class="h" d="M354.94,328.38l6.38,3.68-6.38-74.54Zm-6.38-3.68,6.38,3.68-6.38-74.55ZM342.19,321l6.37,3.69-6.37-74.55Zm-6.38-3.68,6.38,3.68-6.38-74.54Zm-6.38-3.68,6.38,3.68-6.38-74.54ZM323.05,310l6.38,3.68-6.38-74.55Zm-6.38-3.69,6.38,3.69-6.38-74.55Zm-6.37-3.68,6.37,3.68-6.37-74.54Zm0,0-6.38-74.54v70.86Zm-12.76-7.36,6.38,3.68-6.38-74.55Z" transform="translate(-11.26 -7.82)"/><path class="h" d="M354.94,257.52l6.38,3.68-6.38-74.55Zm-6.38-3.69,6.38,3.69L348.56,183Zm-6.37-3.68,6.37,3.68-6.37-74.54Zm-6.38-3.68,6.38,3.68-6.38-74.55Zm-6.38-3.68,6.38,3.68-6.38-74.55Zm-6.38-3.69,6.38,3.69-6.38-74.55Zm-6.38-3.68,6.38,3.68-6.38-74.54Zm-6.38-3.68,6.38,3.68-6.38-74.55Zm-6.37-3.68,6.37,3.68-6.37-74.55Zm0,0-6.38-74.55v70.86Z" transform="translate(-11.26 -7.82)"/><path class="g" d="M297.6,153.67l70.28-32.92L304,157.32ZM310.38,161,304,157.32l70.28-32.92Zm6.39,3.66L310.38,161l70.27-32.92Zm6.38,3.66-6.38-3.66L387,131.72Zm0,0,70.28-32.92L329.54,172Zm6.39,3.66L399.82,139l-63.89,36.58Zm12.78,7.31-6.39-3.65,70.28-32.93Zm6.39,3.66-6.39-3.66,70.28-32.92Zm6.39,3.66-6.39-3.66L419,150Zm6.39,3.66-6.39-3.66,70.28-32.92Z" transform="translate(-11.26 -7.82)"/><path class="g" d="M367.88,120.75l-6.39-3.66,70.27-32.92Zm0,0,70.27-32.93L374.27,124.4Zm12.77,7.31-6.38-3.66,70.27-32.92Zm6.39,3.66-6.39-3.66,70.28-32.92Zm6.39,3.66L387,131.72,457.32,98.8Zm6.39,3.66-6.39-3.66,70.28-32.92Zm0,0,70.28-32.93-63.89,36.58Zm12.78,7.31-6.39-3.66,70.28-32.92ZM419,150l-6.39-3.66,70.28-32.92Zm6.39,3.66L419,150l70.28-32.92Z" transform="translate(-11.26 -7.82)"/><path class="g" d="M367.88,193.9l-6.39-3.65,70.28-32.92Zm6.39,3.66-6.39-3.66L438.15,161Zm6.39,3.66-6.39-3.66,70.27-32.92Zm6.39,3.66-6.39-3.66,70.28-32.92Zm6.39,3.66-6.39-3.66L457.32,172Zm6.38,3.65-6.38-3.65,70.27-32.92Zm6.39,3.66-6.39-3.66,70.28-32.92Zm6.39,3.66-6.39-3.66,70.28-32.92Zm0,0,70.28-32.92L419,223.17Zm12.78,7.32L419,223.17l70.28-32.92Z" transform="translate(-11.26 -7.82)"/><path class="g" d="M431.77,157.33l-6.39-3.66,70.28-32.92Zm6.38,3.65-6.38-3.65L502,124.4Zm6.4,3.66-6.4-3.66,70.28-32.92Zm6.39,3.66-6.39-3.66,70.27-32.92Zm6.38,3.66-6.38-3.66,70.27-32.92Zm6.39,3.66L457.32,172,527.6,139Zm6.39,3.66-6.39-3.66L534,142.7Zm6.39,3.65-6.39-3.65,70.28-32.93Zm6.39,3.66-6.39-3.66L546.77,150Zm0,0,70.28-32.92-63.89,36.58Z" transform="translate(-11.26 -7.82)"/><polygon class="e" points="545.96 145.85 673.74 72.69 801.52 145.84 673.74 219.01 545.96 145.85"/><polygon class="f" points="673.46 219.33 801.02 145.68 801.02 287.42 673.46 361.06 673.46 219.33"/><polygon class="g" points="673.46 219.33 545.9 145.68 545.9 287.42 673.46 361.06 673.46 219.33"/><path class="e" d="M680.72,227.15h0l63.77-29.73-63.78,36.82Zm0,14.17v-7.08L744.5,204.5Zm0,7.09v-7.09l63.78-29.73Zm0,7.09v-7.09l63.78-29.73Zm0,0,63.78-29.74-63.78,36.82Zm0,7.08,63.78-29.73-63.78,36.82Zm0,14.18v-7.09l63.78-29.73Zm0,7.08v-7.08L744.5,247Zm0,7.09v-7.09l63.78-29.73Zm0,7.09v-7.09L744.5,261.2Z" transform="translate(-11.26 -7.82)"/><path class="e" d="M744.5,197.42v-7.09h0l63.77-29.73Zm0,0,63.78-29.74L744.5,204.5Zm0,14.17V204.5l63.78-29.73Zm0,7.09v-7.09l63.78-29.74Zm0,7.08v-7.08l63.78-29.74Zm0,7.09v-7.09L808.28,196Zm0,0,63.78-29.74L744.5,239.94Zm0,14.17v-7.08l63.78-29.74Zm0,7.09V247l63.78-29.73Zm0,7.09v-7.09l63.78-29.74Z" transform="translate(-11.26 -7.82)"/><path class="e" d="M680.72,305.1V298l63.78-29.74Zm0,7.09V305.1l63.78-29.73Zm0,7.09v-7.09l63.78-29.73Zm0,7.09v-7.09l63.78-29.74Zm0,7.08v-7.08l63.78-29.74Zm0,7.09v-7.09l63.78-29.73Zm0,7.09v-7.09L744.5,310.8Zm0,7.08v-7.08l63.78-29.74Zm0,0L744.5,325,680.72,361.8Zm0,14.17V361.8l63.78-29.74Z" transform="translate(-11.26 -7.82)"/><path class="e" d="M744.5,268.28V261.2l63.78-29.74Zm0,7.09v-7.09l63.78-29.73Zm0,7.09v-7.09l63.78-29.74Zm0,7.08v-7.08l63.78-29.74Zm0,7.09v-7.09l63.78-29.73Zm0,7.09v-7.09l63.78-29.74Zm0,7.08v-7.08L808.28,274Zm0,7.09V310.8l63.78-29.73Zm0,7.09v-7.09l63.78-29.74Zm0,0,63.78-29.74L744.5,332.06Z" transform="translate(-11.26 -7.82)"/><path class="h" d="M680.72,368.88l-6.38-74.54V365.2ZM668,361.52l6.37,3.68L668,290.66Zm-6.38-3.68,6.38,3.68L661.59,287Zm-6.38-3.68,6.38,3.68-6.38-74.55Zm0,0-6.38-74.55v70.86Zm-6.38-3.69-6.38-74.54v70.86Zm-12.76-7.36,6.38,3.68-6.38-74.55Zm-6.37-3.68,6.37,3.68-6.37-74.55Zm-6.38-3.69,6.38,3.69-6.38-74.55Zm-6.38-3.68,6.38,3.68-6.38-74.54Z" transform="translate(-11.26 -7.82)"/><path class="h" d="M674.34,294.34l6.38,3.68-6.38-74.55Zm0,0L668,219.79v70.87ZM661.59,287l6.38,3.69-6.38-74.55Zm-6.38-3.68,6.38,3.68-6.38-74.54Zm-6.38-3.68,6.38,3.68-6.38-74.54Zm-6.38-3.68,6.38,3.68-6.38-74.55Zm0,0-6.37-74.55v70.86Zm-12.75-7.37,6.37,3.68L629.7,197.7Zm-6.38-3.68,6.38,3.68L623.32,194Zm-6.38-3.68,6.38,3.68-6.38-74.55Z" transform="translate(-11.26 -7.82)"/><path class="h" d="M610.56,328.38l6.38,3.68-6.38-74.54Zm-6.37-3.68,6.37,3.68-6.37-74.55ZM597.81,321l6.38,3.69-6.38-74.55Zm-6.38-3.68,6.38,3.68-6.38-74.54Zm-6.38-3.68,6.38,3.68-6.38-74.54ZM578.67,310l6.38,3.68-6.38-74.55Zm-6.38-3.69,6.38,3.69-6.38-74.55Zm-6.37-3.68,6.37,3.68-6.37-74.54Zm0,0-6.38-74.54v70.86Zm-12.76-7.36,6.38,3.68-6.38-74.55Z" transform="translate(-11.26 -7.82)"/><path class="h" d="M610.56,257.52l6.38,3.68-6.38-74.55Zm-6.37-3.69,6.37,3.69L604.19,183Zm-6.38-3.68,6.38,3.68-6.38-74.54Zm-6.38-3.68,6.38,3.68-6.38-74.55Zm-6.38-3.68,6.38,3.68-6.38-74.55Zm-6.38-3.69,6.38,3.69-6.38-74.55Zm-6.38-3.68,6.38,3.68-6.38-74.54Zm-6.37-3.68,6.37,3.68-6.37-74.55Zm-6.38-3.68,6.38,3.68-6.38-74.55Zm0,0-6.38-74.55v70.86Z" transform="translate(-11.26 -7.82)"/><path class="g" d="M553.22,153.67l70.28-32.92-63.89,36.57ZM566,161l-6.39-3.66,70.28-32.92Zm6.39,3.66L566,161l70.28-32.92Zm6.39,3.66-6.39-3.66,70.27-32.92Zm0,0,70.27-32.92L585.17,172Zm6.39,3.66L655.44,139l-63.88,36.58Zm12.77,7.31-6.38-3.65,70.27-32.93Zm6.39,3.66-6.39-3.66,70.28-32.92Zm6.39,3.66-6.39-3.66L674.61,150Zm6.39,3.66-6.39-3.66L681,153.67Z" transform="translate(-11.26 -7.82)"/><path class="g" d="M623.5,120.75l-6.39-3.66,70.28-32.92Zm0,0,70.27-32.93L629.89,124.4Zm12.78,7.31-6.39-3.66,70.27-32.92Zm6.38,3.66-6.38-3.66,70.27-32.92Zm6.39,3.66-6.39-3.66L712.94,98.8Zm6.39,3.66-6.39-3.66,70.28-32.92Zm0,0,70.28-32.93-63.89,36.58Zm12.78,7.31-6.39-3.66,70.28-32.92Zm6.39,3.66-6.39-3.66,70.28-32.92Zm6.39,3.66L674.61,150l70.28-32.92Z" transform="translate(-11.26 -7.82)"/><path class="g" d="M623.5,193.9l-6.39-3.65,70.28-32.92Zm6.39,3.66-6.39-3.66L693.78,161Zm6.39,3.66-6.39-3.66,70.28-32.92Zm6.39,3.66-6.39-3.66,70.28-32.92Zm6.39,3.66-6.39-3.66L713,172Zm6.39,3.65-6.39-3.65,70.27-32.92Zm6.39,3.66-6.39-3.66,70.27-32.92Zm6.38,3.66-6.38-3.66,70.27-32.92Zm0,0,70.28-32.92-63.89,36.58ZM681,226.83l-6.39-3.66,70.28-32.92Z" transform="translate(-11.26 -7.82)"/><path class="g" d="M687.39,157.33,681,153.67l70.28-32.92Zm6.39,3.65-6.39-3.65,70.28-32.93Zm6.39,3.66L693.78,161l70.28-32.92Zm6.39,3.66-6.39-3.66,70.28-32.92ZM713,172l-6.39-3.66,70.28-32.92Zm6.38,3.66L713,172,783.22,139Zm6.39,3.66-6.39-3.66,70.28-32.92Zm6.39,3.65-6.39-3.65L796,146.35Zm6.39,3.66-6.39-3.66L802.39,150Zm0,0,70.28-32.92-63.89,36.58Z" transform="translate(-11.26 -7.82)"/></svg>