<svg xmlns="http://www.w3.org/2000/svg" xmlns:xlink="http://www.w3.org/1999/xlink" viewBox="0 0 613 793"><defs><style>.a,.d{fill:none;stroke:#424142;}.a{stroke-miterlimit:10;}.b{fill:#333;}.c{clip-path:url(#a);}.d{stroke-width:0.6px;}</style><clipPath id="a" transform="translate(0.5 0.5)"><rect class="a" width="612" height="792"/></clipPath></defs><title>Black</title><rect class="b" x="0.5" y="0.5" width="612" height="792"/><g class="c"><line class="d" x1="14.67" y1="0.5" x2="14.67" y2="792.5"/><line class="d" x1="28.85" y1="0.5" x2="28.85" y2="792.5"/><line class="d" x1="43.02" y1="0.5" x2="43.02" y2="792.5"/><line class="d" x1="57.19" y1="0.5" x2="57.19" y2="792.5"/><line class="d" x1="71.37" y1="0.5" x2="71.37" y2="792.5"/><line class="d" x1="85.54" y1="0.5" x2="85.54" y2="792.5"/><line class="d" x1="99.71" y1="0.5" x2="99.71" y2="792.5"/><line class="d" x1="113.89" y1="0.5" x2="113.89" y2="792.5"/><line class="d" x1="128.06" y1="0.5" x2="128.06" y2="792.5"/><line class="d" x1="142.23" y1="0.5" x2="142.23" y2="792.5"/><line class="d" x1="156.41" y1="0.5" x2="156.41" y2="792.5"/><line class="d" x1="170.58" y1="0.5" x2="170.58" y2="792.5"/><line class="d" x1="184.75" y1="0.5" x2="184.75" y2="792.5"/><line class="d" x1="198.93" y1="0.5" x2="198.93" y2="792.5"/><line class="d" x1="213.1" y1="0.5" x2="213.1" y2="792.5"/><line class="d" x1="227.27" y1="0.5" x2="227.27" y2="792.5"/><line class="d" x1="241.44" y1="0.5" x2="241.44" y2="792.5"/><line class="d" x1="255.62" y1="0.5" x2="255.62" y2="792.5"/><line class="d" x1="269.79" y1="0.5" x2="269.79" y2="792.5"/><line class="d" x1="283.96" y1="0.5" x2="283.96" y2="792.5"/><line class="d" x1="298.14" y1="0.5" x2="298.14" y2="792.5"/><line class="d" x1="312.31" y1="0.5" x2="312.31" y2="792.5"/><line class="d" x1="326.48" y1="0.5" x2="326.48" y2="792.5"/><line class="d" x1="340.66" y1="0.5" x2="340.66" y2="792.5"/><line class="d" x1="354.83" y1="0.5" x2="354.83" y2="792.5"/><line class="d" x1="369" y1="0.5" x2="369" y2="792.5"/><line class="d" x1="383.18" y1="0.5" x2="383.18" y2="792.5"/><line class="d" x1="397.35" y1="0.5" x2="397.35" y2="792.5"/><line class="d" x1="411.52" y1="0.5" x2="411.52" y2="792.5"/><line class="d" x1="425.7" y1="0.5" x2="425.7" y2="792.5"/><line class="d" x1="439.87" y1="0.5" x2="439.87" y2="792.5"/><line class="d" x1="454.04" y1="0.5" x2="454.04" y2="792.5"/><line class="d" x1="468.22" y1="0.5" x2="468.22" y2="792.5"/><line class="d" x1="482.39" y1="0.5" x2="482.39" y2="792.5"/><line class="d" x1="496.56" y1="0.5" x2="496.56" y2="792.5"/><line class="d" x1="510.74" y1="0.5" x2="510.74" y2="792.5"/><line class="d" x1="524.91" y1="0.5" x2="524.91" y2="792.5"/><line class="d" x1="539.08" y1="0.5" x2="539.08" y2="792.5"/><line class="d" x1="553.26" y1="0.5" x2="553.26" y2="792.5"/><line class="d" x1="567.43" y1="0.5" x2="567.43" y2="792.5"/><line class="d" x1="581.6" y1="0.5" x2="581.6" y2="792.5"/><line class="d" x1="595.78" y1="0.5" x2="595.78" y2="792.5"/><line class="d" x1="609.95" y1="0.5" x2="609.95" y2="792.5"/><line class="d" x1="0.5" y1="14.67" x2="612.5" y2="14.67"/><line class="d" x1="0.5" y1="28.85" x2="612.5" y2="28.85"/><line class="d" x1="0.5" y1="43.02" x2="612.5" y2="43.02"/><line class="d" x1="0.5" y1="57.19" x2="612.5" y2="57.19"/><line class="d" x1="0.5" y1="71.37" x2="612.5" y2="71.37"/><line class="d" x1="0.5" y1="85.54" x2="612.5" y2="85.54"/><line class="d" x1="0.5" y1="99.71" x2="612.5" y2="99.71"/><line class="d" x1="0.5" y1="113.89" x2="612.5" y2="113.89"/><line class="d" x1="0.5" y1="128.06" x2="612.5" y2="128.06"/><line class="d" x1="0.5" y1="142.23" x2="612.5" y2="142.23"/><line class="d" x1="0.5" y1="156.41" x2="612.5" y2="156.41"/><line class="d" x1="0.5" y1="170.58" x2="612.5" y2="170.58"/><line class="d" x1="0.5" y1="184.75" x2="612.5" y2="184.75"/><line class="d" x1="0.5" y1="198.93" x2="612.5" y2="198.93"/><line class="d" x1="0.5" y1="213.1" x2="612.5" y2="213.1"/><line class="d" x1="0.5" y1="227.27" x2="612.5" y2="227.27"/><line class="d" x1="0.5" y1="241.44" x2="612.5" y2="241.44"/><line class="d" x1="0.5" y1="255.62" x2="612.5" y2="255.62"/><line class="d" x1="0.5" y1="269.79" x2="612.5" y2="269.79"/><line class="d" x1="0.5" y1="283.96" x2="612.5" y2="283.96"/><line class="d" x1="0.5" y1="298.14" x2="612.5" y2="298.14"/><line class="d" x1="0.5" y1="312.31" x2="612.5" y2="312.31"/><line class="d" x1="0.5" y1="326.48" x2="612.5" y2="326.48"/><line class="d" x1="0.5" y1="340.66" x2="612.5" y2="340.66"/><line class="d" x1="0.5" y1="354.83" x2="612.5" y2="354.83"/><line class="d" x1="0.5" y1="369" x2="612.5" y2="369"/><line class="d" x1="0.5" y1="383.18" x2="612.5" y2="383.18"/><line class="d" x1="0.5" y1="397.35" x2="612.5" y2="397.35"/><line class="d" x1="0.5" y1="411.52" x2="612.5" y2="411.52"/><line class="d" x1="0.5" y1="425.7" x2="612.5" y2="425.7"/><line class="d" x1="0.5" y1="439.87" x2="612.5" y2="439.87"/><line class="d" x1="0.5" y1="454.04" x2="612.5" y2="454.04"/><line class="d" x1="0.5" y1="468.22" x2="612.5" y2="468.22"/><line class="d" x1="0.5" y1="482.39" x2="612.5" y2="482.39"/><line class="d" x1="0.5" y1="496.56" x2="612.5" y2="496.56"/><line class="d" x1="0.5" y1="510.74" x2="612.5" y2="510.74"/><line class="d" x1="0.5" y1="524.91" x2="612.5" y2="524.91"/><line class="d" x1="0.5" y1="539.08" x2="612.5" y2="539.08"/><line class="d" x1="0.5" y1="553.26" x2="612.5" y2="553.26"/><line class="d" x1="0.5" y1="567.43" x2="612.5" y2="567.43"/><line class="d" x1="0.5" y1="581.6" x2="612.5" y2="581.6"/><line class="d" x1="0.5" y1="595.78" x2="612.5" y2="595.78"/><line class="d" x1="0.5" y1="609.95" x2="612.5" y2="609.95"/><line class="d" x1="0.5" y1="624.12" x2="612.5" y2="624.12"/><line class="d" x1="0.5" y1="638.3" x2="612.5" y2="638.3"/><line class="d" x1="0.5" y1="652.47" x2="612.5" y2="652.47"/><line class="d" x1="0.5" y1="666.64" x2="612.5" y2="666.64"/><line class="d" x1="0.5" y1="680.82" x2="612.5" y2="680.82"/><line class="d" x1="0.5" y1="694.99" x2="612.5" y2="694.99"/><line class="d" x1="0.5" y1="709.16" x2="612.5" y2="709.16"/><line class="d" x1="0.5" y1="723.33" x2="612.5" y2="723.33"/><line class="d" x1="0.5" y1="737.51" x2="612.5" y2="737.51"/><line class="d" x1="0.5" y1="751.68" x2="612.5" y2="751.68"/><line class="d" x1="0.5" y1="765.85" x2="612.5" y2="765.85"/><line class="d" x1="0.5" y1="780.03" x2="612.5" y2="780.03"/></g><rect class="a" x="0.5" y="0.5" width="612" height="792"/></svg>