<svg xmlns="http://www.w3.org/2000/svg" xmlns:xlink="http://www.w3.org/1999/xlink" viewBox="0 0 868 1080.25"><defs><style>.a{fill:none;}.b{clip-path:url(#a);}.c{fill:#e5e5e5;}.d{fill:#ffdfd4;}.e{fill:#ffb297;}.f{fill:#ff7070;}.g{fill:#bdd13b;}.h{fill:#fac2bf;}.i{fill:#6c9c8d;}</style><clipPath id="a" transform="translate(-10.26 -9.57)"><rect class="a" x="10.26" y="9.57" width="868" height="1080.25"/></clipPath></defs><title>04 Flowers</title><g class="b"><path class="c" d="M848.26,1089.57h-64V9.82h64a30.09,30.09,0,0,1,30,30V1059.58a30.09,30.09,0,0,1-30,30" transform="translate(-10.26 -9.57)"/><path class="d" d="M817.76,1089.57H10.26V9.82h807.5a30.09,30.09,0,0,1,30,30V1059.58a30.09,30.09,0,0,1-30,30" transform="translate(-10.26 -9.57)"/></g><rect class="e" x="733.25" width="24" height="1080"/><g class="b"><path class="f" d="M575.53,572.64c-58,13.72-128.63,65.91-193.48,143.18,17.95-31,28.32-88.33,59.78-141.13-49.93,33.77-71.09,103.42-68.22,145.74-28.44,16.09-47,39-57.11,54.3V665.42C366.38,633.16,427,550.25,422.55,465.57c-32.49,79.78-88,139.86-107.46,186.06,31.72-137.81,30.49-260.94-3.08-337.34,0,0-48.26,154.8-5.73,332.59-21.13-45.55-74-104.25-105.36-181.31-4.41,84.54,56,167.32,105.82,199.7V774.73c-10.31-15.66-29.53-39.25-59.08-55.36C250.1,677,228.9,608.18,179.37,574.69c31.47,52.8,41.84,110.17,59.79,141.13C174.3,638.55,103.64,586.36,45.69,572.64c0,0,67.43,94,187,146.15-35-7.54-91.15-2.66-148.52-17.91,45.53,38.25,117,40,157.24,26.19,41.36,21.85,62.24,60.75,65.37,66.95V918.55c-8.81-13.35-24-32.5-46.71-47.88,2.16-36.46-16.08-95.73-58.73-124.57,26.39,44.24,35.55,92.19,50.29,119.25-.43-.24-.88-.46-1.31-.7-55.12-64.88-114.84-108.7-164-120.31,0,0,55.39,77.11,153.8,122.51l-.9,1.79c-30.27-4.48-74.58-2-119.83-14C157.89,887,218,889,252.93,877.74c33.72,22.33,51,54.52,53.81,60.12v152h9.76v-152c2.79-5.56,19.85-37.37,53.13-59.68,35.1,10.72,94.19,8.37,132.2-23.54-44.32,11.77-87.74,9.61-117.95,13.74l-1.14-2.28c97.38-45.49,152.15-121.76,152.15-121.76-49.77,11.77-110.39,56.53-166.1,122.78l-.19.11c15.36-26.67,24.32-75.87,51.3-121.13-43.2,29.19-61.36,89.59-58.65,125.94a174.34,174.34,0,0,0-44.75,46.51V794c3.11-6.17,23.75-44.59,64.56-66.51,40.45,13.29,110.94,11.21,156-26.63-57.38,15.25-113.52,10.37-148.54,17.91,119.53-52.16,187-146.15,187-146.15" transform="translate(-10.26 -9.57)"/><path class="g" d="M473,1024.11a21.82,21.82,0,1,1,30.49,5,21.78,21.78,0,0,1-30.49-5" transform="translate(-10.26 -9.57)"/><path class="h" d="M164.59,1002c-.48-6.29-15-8.11-31.78-4.08-13.91,3.35-25.8,5.86-29.45,6.32,3.64.2,15.45,1.82,29.71,4.15,16.92,2.85,31.74,0,31.52-6.39" transform="translate(-10.26 -9.57)"/><path class="h" d="M102.24,1004.26h0Zm1.12,0a3.7,3.7,0,0,0-1.12,0s0,0,0,0,.09,0,.08-.06l-.09,0v0a3.34,3.34,0,0,0,.56-1,4.17,4.17,0,0,0-.56.9,5.23,5.23,0,0,0-.15-1c0,.49.06.81.09,1l0,.09c0-.07-.31-.38-.83-.8.44.52.75.85.82.82s-.07,0-.08,0l0,0a4.78,4.78,0,0,0-1.29-.13,6.05,6.05,0,0,0,1.28.17h0s0,0,0,0a5.42,5.42,0,0,0-1.08.68,5.94,5.94,0,0,0,1.1-.63h0l0,0s0,0,0,0h0a3.26,3.26,0,0,0-.46,1.18,3.26,3.26,0,0,0,.47-1.14,4.81,4.81,0,0,0,.32,1,4.25,4.25,0,0,0-.28-1,4.37,4.37,0,0,0,.87.62,4.22,4.22,0,0,0-.85-.65,3.73,3.73,0,0,0,1.08-.06" transform="translate(-10.26 -9.57)"/><path class="h" d="M124.1,1026.53c11.83,12.74,24.86,19.29,28.73,14.23s-7-15.72-22.67-22.78c-13.22-6-23.9-11.17-27-13,2.79,2.41,11.29,11.15,21,21.58" transform="translate(-10.26 -9.57)"/><path class="h" d="M119.73,1064.11c6.14-1.76,4.22-16.43-3.87-31.84-6.65-12.64-12-23.45-13.32-26.9.74,3.59,2,15.35,3.29,29.8,1.46,17.09,7.86,31,13.9,28.94" transform="translate(-10.26 -9.57)"/><path class="h" d="M79.28,1062.39c6,2.07,13.49-10.57,16.51-27.54,2.47-14,4.9-25.79,6-29.37-1.7,3.31-7.94,13.5-15.66,25.43-9.39,14.47-12.63,29-6.81,31.48" transform="translate(-10.26 -9.57)"/><path class="h" d="M48.54,1036.07c3,5.64,17.26-.17,29.94-11.65,10.64-9.64,19.44-17.22,22.57-19.46-3.53,1.67-14.67,5.88-27.93,10.46-16.45,5.72-27.84,15.13-24.58,20.65" transform="translate(-10.26 -9.57)"/><path class="h" d="M40.29,996.44c-.77,6.38,13.43,10.46,30.79,9.17,14-1.06,25.93-1.65,29.79-1.5-3.73-.82-14.84-4.27-28.44-8.86-16.19-5.49-31.58-5.17-32.14,1.19" transform="translate(-10.26 -9.57)"/><path class="h" d="M58,960.06c-4.32,4.61,4.41,16.64,18.73,26.15,12,8,21.8,14.88,24.6,17.21-2.33-2.81-9.31-12.73-17.2-24.65-9.55-14.41-21.45-23-26.13-18.71" transform="translate(-10.26 -9.57)"/><path class="h" d="M103.6,973.15c1.28-17.33-2.81-31.59-9.12-30.76-6.35.56-6.7,15.85-1.25,32.1,4.6,13.79,8.09,25.07,8.85,28.66-.13-3.7.45-15.75,1.52-30" transform="translate(-10.26 -9.57)"/><path class="h" d="M134.13,950.65c-5.55-3.11-14.91,8.09-20.7,24.5-4.7,13.38-9.05,24.77-10.64,28.1,2.13-3,9.88-11.93,19.6-22.68,11.53-12.7,17.21-26.77,11.74-29.92" transform="translate(-10.26 -9.57)"/><path class="h" d="M104.4,1003.49c-.72.33-1.21.58-1.12.64s.5-.22,1.12-.64" transform="translate(-10.26 -9.57)"/><path class="h" d="M104.4,1003.49c3.37-1.53,14.74-5.69,28.27-10.22,16.35-5.49,27.71-14.72,24.77-20.32-3.17-5.5-17.27-.09-30.15,11.3-10.79,9.52-19.89,17.14-22.89,19.24" transform="translate(-10.26 -9.57)"/><path class="i" d="M823.56,798.66c-32.61,7.72-72.35,37.07-108.83,80.54,10.1-17.42,15.93-49.69,33.63-79.39-28.09,19-40,58.17-38.37,82-16,9.05-26.46,21.92-32.13,30.54V850.85c28-18.15,62.13-64.79,59.65-112.42C719.24,783.3,688,817.1,677.07,843.09c17.84-77.52,17.14-146.78-1.74-189.76,0,0-27.14,87.08-3.22,187.09-11.88-25.62-41.61-58.64-59.27-102-2.48,47.56,31.49,94.11,59.53,112.33v61.57c-5.8-8.81-16.61-22.07-33.24-31.14,1.38-23.86-10.55-62.54-38.41-81.38,17.7,29.7,23.54,62,33.63,79.39-36.48-43.47-76.22-72.82-108.82-80.54,0,0,37.93,52.86,105.16,82.21-19.69-4.24-51.27-1.5-83.54-10.08,25.61,21.52,65.81,22.47,88.45,14.73,23.26,12.3,35,34.18,36.77,37.66v70.05a98,98,0,0,0-26.28-26.93c1.22-20.51-9-53.85-33-70.07,14.84,24.88,20,51.86,28.29,67.08-.24-.14-.5-.26-.74-.4-31-36.49-64.59-61.14-92.23-67.67,0,0,31.15,43.37,86.51,68.91l-.51,1c-17-2.52-42-1.12-67.4-7.88,21.66,18.19,55.48,19.3,75.12,13,19,12.55,28.68,30.66,30.27,33.81v85.48h5.49v-85.48c1.57-3.12,11.17-21,29.88-33.57,19.75,6,53,4.71,74.37-13.24-24.94,6.62-49.36,5.41-66.35,7.73l-.64-1.28c54.78-25.59,85.59-68.49,85.59-68.49-28,6.62-62.1,31.79-93.44,69.06l-.1.06c8.63-15,13.68-42.67,28.85-68.13-24.3,16.42-34.51,50.39-33,70.84a98.07,98.07,0,0,0-25.17,26.16V923.18c1.75-3.47,13.36-25.08,36.31-37.41,22.76,7.48,62.41,6.31,87.76-15-32.27,8.58-63.85,5.84-83.55,10.08,67.24-29.35,105.18-82.21,105.18-82.21" transform="translate(-10.26 -9.57)"/><path class="g" d="M787.36,633.75a16.36,16.36,0,1,1,22.87,3.72,16.33,16.33,0,0,1-22.87-3.72" transform="translate(-10.26 -9.57)"/><path class="h" d="M492.79,527.3h0Zm.84,0a2.43,2.43,0,0,0-.84,0h0l.06,0-.06,0v0a2.54,2.54,0,0,0,.41-.73,2.77,2.77,0,0,0-.41.68,4.56,4.56,0,0,0-.12-.75,5,5,0,0,0,.07.73l0,.07s-.23-.28-.62-.6c.33.39.56.64.61.62s-.05,0-.06,0l0,0a3.4,3.4,0,0,0-1-.1,4.91,4.91,0,0,0,1,.13h0a4.14,4.14,0,0,0-.81.5,4.53,4.53,0,0,0,.82-.46h0s0,0,0,0h0a2.42,2.42,0,0,0-.35.88,2.4,2.4,0,0,0,.36-.85,4,4,0,0,0,.24.78,3.28,3.28,0,0,0-.21-.78,4.26,4.26,0,0,0,.65.46,2.94,2.94,0,0,0-.64-.49,2.71,2.71,0,0,0,.81,0" transform="translate(-10.26 -9.57)"/><path class="h" d="M494.41,526.72c-.54.25-.9.44-.84.48s.37-.16.84-.48" transform="translate(-10.26 -9.57)"/><path class="h" d="M529.38,295.37c-.27-3.54-8.44-4.56-17.87-2.3-7.83,1.89-14.52,3.3-16.57,3.56,2.05.11,8.69,1,16.71,2.33,9.52,1.61,17.86,0,17.73-3.59" transform="translate(-10.26 -9.57)"/><path class="h" d="M506.61,309.17c6.65,7.16,14,10.85,16.16,8s-4-8.84-12.76-12.81c-7.43-3.38-13.44-6.29-15.2-7.33,1.57,1.36,6.35,6.27,11.8,12.14" transform="translate(-10.26 -9.57)"/><path class="h" d="M504.15,330.31c3.45-1,2.37-9.25-2.18-17.91-3.74-7.11-6.73-13.19-7.49-15.13.41,2,1.14,8.63,1.85,16.76.82,9.61,4.42,17.41,7.82,16.28" transform="translate(-10.26 -9.57)"/><path class="h" d="M481.39,329.34c3.37,1.17,7.59-5.94,9.29-15.49,1.39-7.88,2.76-14.51,3.35-16.53-.95,1.87-4.46,7.6-8.81,14.31-5.28,8.14-7.1,16.31-3.83,17.71" transform="translate(-10.26 -9.57)"/><path class="h" d="M464.1,314.53c1.7,3.18,9.71-.09,16.84-6.55,6-5.42,10.94-9.69,12.7-11-2,.94-8.25,3.31-15.71,5.89-9.25,3.22-15.66,8.51-13.83,11.61" transform="translate(-10.26 -9.57)"/><path class="h" d="M459.46,292.24c-.43,3.59,7.56,5.88,17.32,5.16,7.88-.59,14.59-.93,16.76-.85-2.1-.46-8.35-2.4-16-5-9.11-3.09-17.76-2.91-18.08.67" transform="translate(-10.26 -9.57)"/><path class="h" d="M469.45,271.78c-2.43,2.59,2.48,9.36,10.54,14.71,6.72,4.48,12.26,8.37,13.83,9.68-1.31-1.58-5.24-7.16-9.68-13.87-5.37-8.1-12.06-12.95-14.69-10.52" transform="translate(-10.26 -9.57)"/><path class="h" d="M495.07,279.14c.72-9.74-1.58-17.77-5.12-17.3-3.58.31-3.78,8.92-.71,18.06,2.59,7.75,4.55,14.1,5,16.11-.07-2.08.25-8.85.85-16.87" transform="translate(-10.26 -9.57)"/><path class="h" d="M512.25,266.48c-3.12-1.74-8.39,4.56-11.65,13.78-2.64,7.53-5.09,13.94-6,15.81,1.2-1.65,5.56-6.71,11-12.75,6.49-7.15,9.68-15.07,6.61-16.84" transform="translate(-10.26 -9.57)"/><path class="h" d="M495.52,296.21c1.9-.86,8.3-3.2,15.91-5.75,9.19-3.09,15.58-8.28,13.93-11.43s-9.72,0-17,6.35c-6.07,5.36-11.19,9.65-12.88,10.83" transform="translate(-10.26 -9.57)"/></g></svg>