<svg xmlns="http://www.w3.org/2000/svg" xmlns:xlink="http://www.w3.org/1999/xlink" viewBox="0 0 868 1080"><defs><style>.a{fill:none;}.b{clip-path:url(#a);}.c{fill:#e5e5e5;}.d{fill:#85c9e6;}.e{fill:#e2e2e2;}</style><clipPath id="a" transform="translate(-10 -10)"><rect class="a" x="10" y="10" width="868" height="1080"/></clipPath></defs><title>04 Tech</title><g class="b"><path class="c" d="M848,1090H784V10.25h64a30.09,30.09,0,0,1,30,30V1060a30.09,30.09,0,0,1-30,30" transform="translate(-10 -10)"/></g><rect class="d" y="0.25" width="837.5" height="1079.75"/><rect class="e" x="733.25" width="24" height="1080"/><polyline class="a" points="750.08 1039.37 16.88 1039.37 16.88 9.13"/><circle class="e" cx="449.65" cy="1008.63" r="5.64"/><circle class="e" cx="322.85" cy="430.81" r="6.77"/><path class="e" d="M134.22,676.09a9.19,9.19,0,0,0-18.33-.94H16.82V677h99.07a9.19,9.19,0,0,0,18.33-.94Zm-13.53,0a4.33,4.33,0,1,1,4.32,4.33A4.38,4.38,0,0,1,120.69,676.09Z" transform="translate(-10 -10)"/><path class="e" d="M41.54,1043.92H157.91v23.59h1.88v-23.59h11v26.13h1.88v-26.13h85v31.86h1.88v-31.86h56.58v44.27H318v-44.27h10.34a5.64,5.64,0,1,0,0-1.88H318v-10.81H640.13a5.64,5.64,0,1,0,0-1.88H318v-9.69H454v-1.88H318V994.47H724.73a5.64,5.64,0,1,0,0-1.88H318.09V973.42H338.2a9.22,9.22,0,1,0,0-1.88H318.09V959.69H668.52a5.64,5.64,0,1,0,0-1.88H318v-29H429.1a9.22,9.22,0,1,0,0-1.88H318V915.23h69.66a9.21,9.21,0,1,0,0-1.88H318V902.16h4.7a5.63,5.63,0,1,0,5.55-6.58,5.58,5.58,0,0,0-5.55,4.7H318V886.37H532.13a9.21,9.21,0,1,0,0-1.88H318V871.24h32.53a5.64,5.64,0,1,0,0-1.88H318V856.1h99.27a9.21,9.21,0,1,0,0-1.88H318.09v-16H552.34a5.64,5.64,0,1,0,0-1.88H318v-9.11h86.48V816.91h66.37a9.22,9.22,0,1,0,0-1.88H404.47V803.18h10.72V735h20.59a9.21,9.21,0,1,0,0-1.88H415.19v-80H588.9a9.21,9.21,0,1,0,0-1.88H415.28V633.89H404.57V611.14h5.92a9.21,9.21,0,1,0,0-1.88h-5.92V584.91H501.2a9.21,9.21,0,1,0,0-1.88H404.57v-68.8H294.68V502.29H428.44a9.21,9.21,0,1,0,0-1.88H294.68V487.53H172.2V476.81H606a5.64,5.64,0,1,0,0-1.88H172.2V461h86.86a9.21,9.21,0,1,0,0-1.88H172.2V441.75H326.08v-1.88H172.2v-16h83.28v-11H398a5.64,5.64,0,1,0,0-1.88H255.39V388.83H291.3a9.21,9.21,0,1,0,0-1.88H255.39V371.44H454.2a5.64,5.64,0,1,0,0-1.88H255.48V357.9H327V346.25h38.26a5.64,5.64,0,1,0,0-1.88H327V311.19H341.4a5.64,5.64,0,1,0,0-1.88H327V275.37H487.66a9.21,9.21,0,1,0,0-1.88H327V263h56.12a5.64,5.64,0,1,0,0-1.88H327V228.75H309.35V218.41H362a5.64,5.64,0,1,0,0-1.88H309.35V205.34H443a5.64,5.64,0,1,0,0-1.88H309.35V184.85H535.6a9.21,9.21,0,1,0,0-1.88H309.35V167.08h19.08a5.64,5.64,0,1,0,0-1.88H309.35V150.07h148a9.21,9.21,0,1,0,0-1.88h-148V105.61h38.44a9.21,9.21,0,1,0,0-1.88H309.35V72.33H629.89a9.21,9.21,0,1,0,0-1.88H309.35V47.89H377.5a5.64,5.64,0,1,0,0-1.88H309.35V30.88H582.89a5.64,5.64,0,1,0,0-1.88H309.35V18.75h-1.88V29H165.34V18.75h-1.88V29H100.67V17H98.79V29H75.19V17.91H73.31V29H55.92V15.93H54V29H16.82v1.88H54V46H16.82v1.88H54V70.45H11v1.88H54V89.06H16.82v1.88H54v12.79H16.82v1.88H54v21.52H16.82V129H54v19.18H19v1.88H54V165.2H16.82v1.88H54V183H19v1.88H54v18.61H19v1.88H54v11.19H19v1.88H54v27.45H16.82v1.88H54V261H19v1.88H54V273.4H19v1.88H54v33.93H19v1.88H54v7.71H12.78v1.88H54v10.53H19v1.88H54v11.18H10.24v1.88H54v23.32H10.24v1.88H54v15.51H16.82v1.88H54v10.15H12.78v1.88H54v10.15H16.82v1.88H54v13.91H16.82v1.88H54v11.19H16.82v1.88H54v17.39H16.82v1.88H54v13.91H16.82v1.88H54v23.69H16.82v1.88H54v26.32H16.82v1.88H54v9.4H16.82v1.88H54V550H16.82v1.88H54v10H16.82v1.88H54v8.18H16.82v1.88H54v9.12H16.82v1.88H54V602H86.38v7.15H16.82v1.88H86.38v13.16H16.82v1.88H86.38v15.79H154V651H16.82v1.88H154v8.55H16.82v1.88H154v25.57H16.82v1.88H154v10.53H16.82v1.88H154v14.66H16.82v1.88H154V733H16.82v1.88H154v9.78H70.59v13.07H16.82v1.88H70.59v10.52H16.82V772H70.59v10.44H16.82v1.88H70.59V801H39.66v13.72H16.91v1.88H39.66v19.46H16.91V838H39.66v16H16.91v1.88H39.66v13.26H16.91V871H39.66v13.25H16.91v1.88H39.66v13.35l-22.75-.1v1.88l22.84.1v11.84H17V915H39.75V926.7H17v1.88H39.75v10.71H17v1.88H39.75v16.45H17v1.88H39.75v11.85H17v1.88H39.75V992.4H17v1.88H39.75v10.91H17v1.88H39.75v10.53H17v1.88H39.75v9.68H17V1031H39.75v10.81H17v1.88H39.75v45.86l1.79-2M347.23,968a4.32,4.32,0,0,1,4.32,4.33,4.37,4.37,0,0,1-4.32,4.32,4.31,4.31,0,0,1-4.33-4.32A4.38,4.38,0,0,1,347.23,968Zm91-44.65a4.33,4.33,0,1,1-4.32,4.33A4.32,4.32,0,0,1,438.22,923.31Zm-41.45-13.53a4.33,4.33,0,0,1,0,8.65,4.38,4.38,0,0,1-4.33-4.33A4.32,4.32,0,0,1,396.77,909.78Zm144.47-28.95a4.31,4.31,0,0,1,4.33,4.32,4.33,4.33,0,1,1-4.33-4.32ZM426.38,850.56a4.31,4.31,0,0,1,4.32,4.32,4.38,4.38,0,0,1-4.32,4.33,4.32,4.32,0,0,1-4.33-4.33A4.38,4.38,0,0,1,426.38,850.56Zm53.67-39.2a4.31,4.31,0,0,1,4.32,4.32,4.38,4.38,0,0,1-4.32,4.33,4.33,4.33,0,0,1,0-8.65ZM445,729.49a4.32,4.32,0,0,1,0,8.64,4.38,4.38,0,0,1-4.33-4.32A4.25,4.25,0,0,1,445,729.49Zm153-81.88a4.32,4.32,0,0,1,4.32,4.33,4.37,4.37,0,0,1-4.32,4.32,4.31,4.31,0,0,1-4.32-4.32A4.38,4.38,0,0,1,598,647.61ZM419.61,605.78a4.33,4.33,0,1,1-4.33,4.33A4.32,4.32,0,0,1,419.61,605.78Zm90.71-26.22a4.31,4.31,0,0,1,4.32,4.32,4.37,4.37,0,0,1-4.32,4.32,4.32,4.32,0,1,1,0-8.64Zm-72.76-82.63a4.31,4.31,0,0,1,4.33,4.32,4.38,4.38,0,0,1-4.33,4.33,4.32,4.32,0,0,1-4.32-4.33A4.37,4.37,0,0,1,437.56,496.93ZM268.17,455.66a4.33,4.33,0,1,1-4.32,4.33A4.26,4.26,0,0,1,268.17,455.66Zm32.34-72.19a4.33,4.33,0,1,1-4.32,4.33A4.25,4.25,0,0,1,300.51,383.47ZM496.78,269.92a4.33,4.33,0,1,1-4.32,4.32A4.31,4.31,0,0,1,496.78,269.92Zm47.94-90.43a4.33,4.33,0,1,1,0,8.65,4.37,4.37,0,0,1-4.32-4.32A4.25,4.25,0,0,1,544.72,179.49Zm-78.21-34.78a4.33,4.33,0,1,1-4.32,4.33A4.32,4.32,0,0,1,466.51,144.71Zm-109.6-44.46a4.31,4.31,0,0,1,4.32,4.32,4.32,4.32,0,1,1-8.64,0A4.31,4.31,0,0,1,356.91,100.25ZM639,67a4.33,4.33,0,1,1-4.32,4.33A4.26,4.26,0,0,1,639,67ZM159.79,1042v-10.81h11V1042ZM285.94,663.4a5.64,5.64,0,1,0,0-1.88H234.8V653h98.14v36H234.8V663.4Zm-130.1-23.31V626.18H256.33a9.2,9.2,0,1,0,9.12-10.25,9.13,9.13,0,0,0-9.12,8.37H155.94V611.14H292.8v24.63H333v15.32H234.9v-11Zm105.19-15a4.33,4.33,0,0,1,8.65,0,4.38,4.38,0,0,1-4.33,4.33A4.31,4.31,0,0,1,261,625.05ZM107.9,357.81v11.66H88.26V357.81Zm125.87-111a4.31,4.31,0,0,1,4.32-4.33,4.38,4.38,0,0,1,4.33,4.33,4.33,4.33,0,0,1-8.65,0Zm-4.79.94a9.22,9.22,0,1,0,0-1.88H109.78V233.45H75.19v-15h88.27v12.12H253.6V261H109.78V247.74Zm-128.31-144V90.85h62.79v12.88Zm62.79,1.88v4.89H100.67v-4.89ZM100.67,89V72.33h62.79V89.06H100.67Zm0-18.52V47.89h62.79V70.45Zm-1.88,0H75.19V47.89h23.6Zm0,1.88V89.06H75.19V72.33Zm0,18.52v12.88H75.19V90.85Zm0,14.76v6.77h64.67v14.75H75.19V105.61Zm66.55,110.92V205.34H253.6v11.19Zm88.26,1.88v10.24H165.34V218.41Zm-88.26-14.95V184.85H253.6v18.61Zm0-20.58V167H253.6v15.89Zm0-17.77V150H253.6v15.13Zm0-16.92V129h61.85a9.21,9.21,0,1,0,0-1.88H165.34V112.38H253.6v35.81ZM231.89,128a4.31,4.31,0,0,1,4.32-4.32,4.38,4.38,0,0,1,4.33,4.32,4.33,4.33,0,0,1-8.65,0Zm-68.43.94V148.1H75.19V128.92Zm0,21.15V165.2H75.19V150.07Zm0,16.92v15.89H75.19V167Zm0,17.77v18.61H75.19V184.76Zm0,20.58v11.19H75.19V205.34Zm92,85.45V275.28h52v15.51Zm0-17.39V262.87h52V273.4Zm0-12.41V230.53h52V261Zm-1.88,1.88V273.4H109.78V262.87Zm0,12.41v15.51H126.14v18.33H109.78V275.18H253.6ZM128,344.27V333.09h38.26a9.21,9.21,0,1,0,0-1.88H128V320.68H232.74a5.64,5.64,0,1,0,0-1.88H128v-7.71H253.6v33.18Zm125.58,1.88v9.78H128v-9.78Zm-82.53-14a4.32,4.32,0,0,1,4.33-4.33,4.38,4.38,0,0,1,4.32,4.33,4.31,4.31,0,0,1-4.32,4.32A4.38,4.38,0,0,1,171.07,332.15Zm-43-23V292.67H253.6v16.45ZM126.14,311v7.71H109.78V311Zm0,9.68v10.53H109.78V320.68Zm0,12.41v11.18H109.78V333.09Zm0,13.06v9.78H109.78v-9.78Zm0,11.66v11.66H109.78V357.81Zm44.18,131.6v11H109.78v-23.6h16.36v12.6ZM292.8,516v12.6h-183V502.29h60.54V516Zm-183,55.93v-8.18H227.85a5.64,5.64,0,1,0,0-1.88H109.78v-10h183v20.11Zm183,1.88v9.12h-183v-9.12ZM109.78,550v-8.18H163a5.64,5.64,0,1,0,0-1.88H109.78v-9.4h183V550Zm0-75V461h16.36v13.91Zm0-15.79V441.75h16.36v17.39Zm0-19.27V428.69h16.36v11.18Zm0-13.06V412.89h16.36v13.92Zm0-15.89V400.77h16.36v10.15Zm0-12V388.74h16.36v10.15Zm0-12V371.35h16.36v15.51Zm-1.88-15.51v15.51H88.26V371.35Zm0,17.39v10.15H88.26V388.74Zm0,12v10.15H88.26V400.77Zm0,12v13.91H88.26V412.8Zm0,15.89v11.18H88.26V428.69Zm0,13.06v17.39H88.26V441.75Zm0,19.27v13.91H88.26V461Zm0,15.79v23.6H88.26v-23.6Zm0,25.48v26.32H88.26V502.29Zm0,28.2v9.4H88.26v-9.4Zm0,11.18v8.18H88.26v-8.18Zm0,10.16v10H88.26v-10Zm0,11.93v8.18H88.26v-8.18Zm0,10.06v9.12H88.26v-9.12Zm0,11v8.93H154v6.39H88.26V584.82Zm47.94,7H109.78v-7h183v15.32H155.94v-8.27ZM292.8,602v7.15H155.94V602Zm1.88,7.15V602H333v7.15Zm38.26,1.88v22.84H294.59V611.14h38.35Zm55,108.66a5.64,5.64,0,1,0,0-1.88H334.82v-27H358a9.21,9.21,0,1,0,0-1.88H334.82V653h67.77v80H334.82V719.71Zm-25.1-29.89a4.32,4.32,0,0,1,4.33-4.33,4.38,4.38,0,0,1,4.32,4.33,4.33,4.33,0,0,1-8.65,0Zm-28-38.73V635.77h67.77v15.32Zm-1.88,39.67v27H234.8v-27Zm0,29V733H234.8V719.71Zm0,15.13v9.78H234.8v-9.78Zm1.88,0h67.77v66.27H318V784.29h56.59a9.21,9.21,0,1,0,0-1.88H318V759.57h24.54v-.94a6.77,6.77,0,1,0,6.77-6.77,6.73,6.73,0,0,0-6.77,6.77v-.94H234.71V746.5H334.82Zm44.56,48.51a4.32,4.32,0,1,1,8.64,0,4.37,4.37,0,0,1-4.32,4.32A4.25,4.25,0,0,1,379.38,783.35ZM232.92,757.69H155.84V746.5h77.08Zm0,1.88h83.29v22.84H259.62V767.27H155.94v-7.7Zm83.29,24.72V801H259.62V784.29Zm0,18.61v11.84H259.62V802.9Zm0,13.72v8.46H259.62v-8.46Zm-58.47-1.88H72.47V802.9H257.74Zm0,1.88v8.46H233v11H72.56V816.62Zm-85,201.07v-10.53h8.09a9.21,9.21,0,1,0,0-1.88h-8.09v-10.9h85v23.31Zm85,1.88v9.68h-85v-9.68Zm-72.1-13.35a4.32,4.32,0,0,1,4.33-4.32,4.33,4.33,0,0,1,0,8.65A4.32,4.32,0,0,1,185.64,1006.22ZM172.76,992.5v-8.65h62V973.32h22.85V992.5Zm62-21.06V959.6h22.85v11.84Zm0-13.82V941.17h22.85v16.45Zm0-18.33V928.58h22.85v10.71Zm0-12.59V915h22.85V926.7Zm0-13.54V901.79l22.85.09v11.38H234.8Zm0-13.25V886.18h22.85v13.73Zm0-15.61V871.05h22.85V884.3Zm0-15.13V855.92h22.85v13.25Zm0-15.13v-16h22.85v16Zm0-18V827h22.85v9.12ZM232.92,838v16H72.47V838Zm0,18v13.25H72.47V855.92Zm0,15.13V884.3H72.47V871.05Zm0,15.13v13.73l-160.45-.38V886.18Zm0,15.61v11.37H72.47V901.41Zm0,13.25V926.7H72.47V915Zm0,13.54v10.71H72.47V928.58Zm0,12.59v16.45H159.79v-9.21H72.47v-7.33H232.92Zm0,18.33v11.85H159.79V959.5Zm0,13.82V982h-62V992.5h-11V973.32Zm-62,21.06v10.9h-11v-10.9Zm0,12.78v10.53h-11v-10.53Zm0,12.41v9.68h-11v-9.68Zm1.88,22.47v-10.81h85V1042Zm143.45,0H259.62v-10.81h56.59Zm0-12.69H259.62v-9.69h56.59Zm0-11.66H259.62V994.38h56.59Zm0-25.19H259.62V973.32h56.59Zm0-21.06H259.62V959.6h56.59Zm0-13.82H259.62V941.17h25.1a9.21,9.21,0,1,0,0-1.88h-25.1V928.58h56.59Zm-26.79-17.39a4.31,4.31,0,0,1,4.32-4.32,4.38,4.38,0,0,1,4.33,4.32,4.33,4.33,0,1,1-8.65,0Zm26.79-13.53H259.62V915h56.59Zm0-13.54H259.62V901.79l56.59.09Zm0-13.06-56.59-.1V886.18h56.59Zm0-15.8H259.62V871.05h56.59Zm0-15.13H259.62V855.92h56.59Zm0-15.13H259.62v-16h56.59Zm0-18H259.62V827h56.59Zm86.38-11H318v-8.46h84.6Zm0-10.34H318V802.9h84.6ZM413.4,801h-8.83V734.75h8.83Zm0-68.06h-8.83V653h8.83Zm0-97.19v15.32h-8.83V635.77Zm-10.81-1.88H334.82V611.14h67.77Zm0-24.72H334.82v-9H294.59V584.82h108Zm0-93.16v66.93h-108v-9.12H313.2a5.64,5.64,0,1,0,0-1.88H294.59V551.83h75.1a9.22,9.22,0,1,0,0-1.88h-75.1V530.49h4.79a5.64,5.64,0,1,0,0-1.88h-4.79V516Zm-28,34.88a4.32,4.32,0,0,1,4.33-4.33,4.38,4.38,0,0,1,4.32,4.33,4.31,4.31,0,0,1-4.32,4.32A4.38,4.38,0,0,1,374.58,550.89ZM292.8,514.13H172.2V502.29H292.8Zm0-24.72v11H172.2v-11Zm-122.48-1.88H128V476.81h42.3Zm0-12.6H128V461h42.3Zm0-15.79H128V441.75h42.3ZM253.6,422H170.32v17.86H128V428.69h10.72a9.22,9.22,0,1,0,0-1.88H128V412.89H253.6Zm-110.07,5.74a4.33,4.33,0,1,1,4.32,4.32A4.37,4.37,0,0,1,143.53,427.75ZM253.6,410.92H128V400.77h88.92a5.64,5.64,0,1,0,0-1.88H128V388.74H253.6Zm0-24.06H128V371.35H253.6Zm0-17.39H128V357.81H253.6Zm71.54-13.54H255.48v-9.78h69.66v9.78Zm0-11.66H255.48V311.09h69.66v33.18Zm0-35.15H255.48V292.67h53.87V275.28h15.79Zm0-35.72H309.35V262.87h15.79Zm0-42.87V261H309.35V230.53Zm-17.67-1.88h-52V218.41h52Zm0-12.12h-52V205.34h52Zm0-13.07h-52V184.85h52Zm0-20.58h-52V167h52Zm0-17.77h-52V150h52Zm0-16.92h-52V110.5H165.34v-4.89H307.47Zm0-44.46H165.34V90.85H268.08a5.64,5.64,0,1,0,0-1.88H165.34V72.33H307.47Zm0-33.28H165.34V47.89H307.47Zm0-39.57V46H165.34V30.88Zm-144,0V46H100.67V30.88Zm-64.67,0V46H75.19V30.88Zm-42.87,0H73.31V46H55.92Zm0,17H73.31V70.45H55.92Zm0,24.44H73.31V89.06H55.92Zm0,18.52H73.31v12.88H55.92Zm0,14.76H73.31v21.52H55.92Zm0,23.31H73.31V148.1H55.92Zm0,21.15H73.31V165.2H55.92Zm0,16.92H73.31v15.89H55.92Zm0,17.77H73.31v18.61H55.92Zm0,20.58H73.31v11.19H55.92Zm0,13.07H73.31v16.92H107.9v10.53h-52Zm0,29.33h52V261h-52Zm0,15.13h52V273.4h-52Zm0,12.41h52v33.93h-52Zm0,35.72h52v7.71h-52Zm0,9.68h52v10.53h-52Zm0,12.41h52v11.18h-52Zm0,13.06h52v9.78H86.38v13.54H55.92V346.15Zm0,25.2H86.38v15.51H55.92Zm0,17.39H86.38v10.15H55.92Zm0,12H86.38v10.15H55.92Zm0,12H86.38v13.91H55.92Zm0,15.89H86.38v11.18H55.92Zm0,13.06H86.38v17.39H55.92Zm0,19.27H86.38v13.91H55.92Zm0,15.79H86.38v23.6H55.92Zm0,25.48H86.38v26.32H55.92Zm0,28.2H86.38v9.4H55.92Zm0,11.18H86.38v8.18H55.92Zm0,10.16H86.38v10H55.92Zm0,11.93H86.38v8.18H55.92Zm0,10.06H86.38v9.12H55.92Zm0,26.32V584.82H86.38v15.32ZM88.26,602H154v7.15H88.26Zm0,9H154v13.16H88.26Zm0,29V626.18H154v13.91ZM155.84,642h77.08v9.12H155.84Zm0,11h77.08v8.55H155.84Zm0,10.43h77.08V689H155.84Zm0,39.77h42.59a9.22,9.22,0,1,0,0-1.88H155.84V690.76h77.08v27H155.84Zm47.38-.94a4.33,4.33,0,1,1,8.65,0,4.33,4.33,0,0,1-8.65,0Zm-47.38,17.48h77.08V733H155.84Zm0,15.13h77.08v9.78H155.84ZM72.47,746.5H154v11.19H72.47Zm0,25.47h60.34a5.64,5.64,0,1,0,0-1.88H72.47V759.57H154v9.58H257.74v13.26H72.47Zm0,12.32H257.74V801H72.47ZM41.54,802.9H70.59v11.84H41.54Zm0,13.72H70.59v19.46H41.54Zm0,21.34H70.59v16H41.54Zm0,18H70.59v13.25H41.54Zm0,15.13H70.59V884.3H41.54Zm0,15.13H70.59v13.35l-29.05-.09Zm0,15.14,29.05.09v11.75H41.54Zm0,13.72H70.59V926.7H41.54Zm0,13.54H70.59v10.71H41.54Zm0,12.59H70.59v9.22h87.32v7.33H41.45V941.17Zm0,18.33H157.91v11.85H41.45V959.5Zm0,13.82H157.91V992.5H41.45V973.32Zm0,21.06H157.91v10.9H41.45v-10.9Zm0,12.78H157.91v10.53H41.45v-10.53Zm0,12.41H157.91v9.68H41.45v-9.68Zm0,11.66H157.91V1042H41.45v-10.81Z" transform="translate(-10 -10)"/><polyline class="a" points="750.08 1039.37 16.88 1039.37 16.88 9.13"/><polyline class="a" points="750.08 1039.37 16.88 1039.37 16.88 9.13"/></svg>