<svg xmlns="http://www.w3.org/2000/svg" xmlns:xlink="http://www.w3.org/1999/xlink" viewBox="0 0 869.75 1079.87"><defs><style>.a{fill:none;}.b{clip-path:url(#a);}.c{fill:#e5e5e5;}.d{fill:#d8e9d2;}.e{clip-path:url(#b);}.f{fill:#bfe3d3;}.g{fill:#b1d7c6;}.h{fill:#76aa9a;}.i{clip-path:url(#c);}.j{fill:#942780;}.k{clip-path:url(#d);}.l{clip-path:url(#e);}.m{clip-path:url(#g);}.n{clip-path:url(#h);}.o{clip-path:url(#i);}.p{clip-path:url(#k);}.q{clip-path:url(#l);}.r{clip-path:url(#m);}.s{clip-path:url(#o);}.t{clip-path:url(#p);}.u{clip-path:url(#q);}.v{clip-path:url(#s);}.w{clip-path:url(#t);}.x{clip-path:url(#u);}.y{clip-path:url(#w);}.z{clip-path:url(#x);}.aa{clip-path:url(#y);}.ab{clip-path:url(#ae);}.ac{clip-path:url(#af);}.ad{clip-path:url(#ag);}</style><clipPath id="a" transform="translate(-9.38 -9.76)"><rect class="a" x="10.43" y="9.76" width="868.7" height="1079.88"/></clipPath><clipPath id="b" transform="translate(-9.38 -9.76)"><path class="a" d="M10.43,9.88V1089.63h807.5a30.08,30.08,0,0,0,30-30V39.88a30.09,30.09,0,0,0-30-30Z"/></clipPath><clipPath id="c" transform="translate(-9.38 -9.76)"><polygon class="a" points="259.65 456.46 428.32 553.03 596.98 456.46 428.31 359.89 259.65 456.46"/></clipPath><clipPath id="d" transform="translate(-9.38 -9.76)"><polygon class="a" points="428.42 552.98 428.42 740.07 596.8 642.86 596.8 455.77 428.42 552.98"/></clipPath><clipPath id="e" transform="translate(-9.38 -9.76)"><polygon class="a" points="260.05 642.86 428.42 740.07 428.42 552.98 260.05 455.77 260.05 642.86"/></clipPath><clipPath id="g" transform="translate(-9.38 -9.76)"><polygon class="a" points="511.65 604.46 680.32 701.03 847.93 605.06 847.93 603.86 680.31 507.89 511.65 604.46"/></clipPath><clipPath id="h" transform="translate(-9.38 -9.76)"><polygon class="a" points="680.42 700.98 680.42 888.07 847.93 791.36 847.93 604.27 680.42 700.98"/></clipPath><clipPath id="i" transform="translate(-9.38 -9.76)"><polygon class="a" points="512.05 790.86 680.42 888.07 680.42 700.98 512.05 603.77 512.05 790.86"/></clipPath><clipPath id="k" transform="translate(-9.38 -9.76)"><polygon class="a" points="511.65 311.46 680.32 408.03 847.93 312.06 847.93 310.86 680.31 214.89 511.65 311.46"/></clipPath><clipPath id="l" transform="translate(-9.38 -9.76)"><polygon class="a" points="680.42 407.98 680.42 595.07 847.93 498.36 847.93 311.27 680.42 407.98"/></clipPath><clipPath id="m" transform="translate(-9.38 -9.76)"><polygon class="a" points="512.05 497.86 680.42 595.07 680.42 407.98 512.05 310.77 512.05 497.86"/></clipPath><clipPath id="o" transform="translate(-9.38 -9.76)"><polygon class="a" points="10.43 604.01 10.43 604.91 178.32 701.03 346.98 604.46 178.31 507.89 10.43 604.01"/></clipPath><clipPath id="p" transform="translate(-9.38 -9.76)"><polygon class="a" points="178.42 700.98 178.42 888.07 346.8 790.86 346.8 603.77 178.42 700.98"/></clipPath><clipPath id="q" transform="translate(-9.38 -9.76)"><polygon class="a" points="10.43 791.08 178.42 888.07 178.42 700.98 10.43 603.99 10.43 791.08"/></clipPath><clipPath id="s" transform="translate(-9.38 -9.76)"><polygon class="a" points="10.43 311.01 10.43 311.91 178.32 408.03 346.98 311.46 178.31 214.89 10.43 311.01"/></clipPath><clipPath id="t" transform="translate(-9.38 -9.76)"><polygon class="a" points="178.42 407.98 178.42 595.07 346.8 497.86 346.8 310.77 178.42 407.98"/></clipPath><clipPath id="u" transform="translate(-9.38 -9.76)"><polygon class="a" points="10.43 498.08 178.42 595.07 178.42 407.98 10.43 310.99 10.43 498.08"/></clipPath><clipPath id="w" transform="translate(-9.38 -9.76)"><polygon class="a" points="259.65 749.15 428.32 845.72 596.98 749.15 428.31 652.58 259.65 749.15"/></clipPath><clipPath id="x" transform="translate(-9.38 -9.76)"><polygon class="a" points="428.42 845.67 428.42 1032.76 596.8 935.55 596.8 748.46 428.42 845.67"/></clipPath><clipPath id="y" transform="translate(-9.38 -9.76)"><polygon class="a" points="260.05 935.55 428.42 1032.76 428.42 845.67 260.05 748.46 260.05 935.55"/></clipPath><clipPath id="ae" transform="translate(-9.38 -9.76)"><polygon class="a" points="259.65 163.46 428.32 260.03 596.98 163.46 428.31 66.89 259.65 163.46"/></clipPath><clipPath id="af" transform="translate(-9.38 -9.76)"><polygon class="a" points="428.42 259.98 428.42 447.07 596.8 349.86 596.8 162.77 428.42 259.98"/></clipPath><clipPath id="ag" transform="translate(-9.38 -9.76)"><polygon class="a" points="260.05 349.86 428.42 447.07 428.42 259.98 260.05 162.77 260.05 349.86"/></clipPath></defs><title>07 Cubes</title><g class="b"><path class="c" d="M849.13,1089.51h-64V9.76h64a30.09,30.09,0,0,1,30,30V1059.52a30.09,30.09,0,0,1-30,30" transform="translate(-9.38 -9.76)"/><path class="d" d="M817.93,1089.63H10.43V9.88h807.5a30.09,30.09,0,0,1,30,30V1059.64a30.08,30.08,0,0,1-30,30" transform="translate(-9.38 -9.76)"/></g><g class="e"><polygon class="f" points="418.67 543.14 587.34 446.57 418.67 350 250 446.57 418.67 543.14"/><polygon class="g" points="419.04 730.31 587.42 633.1 587.42 446.01 419.04 543.22 419.04 730.31"/><polygon class="h" points="419.04 730.31 250.66 633.1 250.66 446.01 419.04 543.22 419.04 730.31"/></g><g class="i"><path class="j" d="M491.57,420.25l21.08-12.08H470.48ZM386.15,432.32l21.08-12.07H365.06Zm84.33-24.15H428.31l21.09,12.08Zm-42.17,48.29V432.32l-21.08,12.07ZM386.15,384l21.08,12.07V372Zm42.16,48.29V408.17l-21.08,12.08ZM344,408.18h42.17L365.06,396.1ZM470.48,384,449.4,396.1h42.16Zm-84.33,24.14h42.16L407.23,396.1ZM428.31,384,449.4,372l-21.08-12.07Zm42.17,48.29L449.4,420.25v24.14ZM449.4,396.1,428.31,384v24.14Z" transform="translate(-9.38 -9.76)"/><path class="j" d="M407.23,468.53l21.09-12.07H386.15ZM301.81,480.6l21.09-12.07H280.73Zm84.34-24.14H344l21.08,12.07ZM344,504.75V480.6L322.9,492.67Zm-42.17-72.43,21.09,12.07V420.25ZM344,480.6V456.46L322.9,468.53Zm-84.34-24.14h42.17l-21.08-12.07Zm126.51-24.14-21.09,12.07h42.17Zm-84.34,24.14H344L322.9,444.39ZM344,432.32l21.08-12.07L344,408.17Zm42.17,48.28-21.09-12.07v24.14Zm-21.09-36.21L344,432.32v24.14Z" transform="translate(-9.38 -9.76)"/><path class="j" d="M491.57,516.82l21.08-12.08H470.48ZM386.15,528.89l21.08-12.07H365.06Zm84.33-24.14H428.32l21.08,12.07ZM428.31,553V528.89L407.23,541ZM386.15,480.6l21.08,12.07V468.53Zm42.16,48.29V504.75l-21.09,12.07ZM344,504.75h42.17l-21.09-12.08Zm126.5-24.15L449.4,492.67h42.16Zm-84.33,24.15h42.17l-21.09-12.08Zm42.17-24.15,21.08-12.07-21.08-12.07Zm42.16,48.29L449.4,516.82V541ZM449.4,492.67,428.32,480.6v24.15Z" transform="translate(-9.38 -9.76)"/><path class="j" d="M575.9,468.53,597,456.46H554.82ZM470.48,480.6l21.09-12.07H449.4Zm84.34-24.14H512.65l21.08,12.07Zm-42.17,48.29V480.6l-21.09,12.07Zm-42.17-72.43,21.09,12.07V420.25Zm42.17,48.28V456.46l-21.08,12.07Zm-84.34-24.14h42.17L449.4,444.39Zm126.51-24.14-21.09,12.07H575.9Zm-84.34,24.14h42.17l-21.08-12.07Zm42.17-24.14,21.08-12.07-21.08-12.08Zm42.17,48.28-21.09-12.07v24.15Zm-21.09-36.21-21.08-12.07v24.14Z" transform="translate(-9.38 -9.76)"/></g><g class="k"><path class="j" d="M575.75,561.46l21-12.15-21-11.23Zm-63.14-10.31,21-12.15-21-11.24Zm63.14-13.07-21-11.23v23.38Zm-63.14,59.84,21-35.54-21,12.15ZM554.7,480.07v23.39l21-35.54Zm-21,82.31,21-35.53-21,12.15Zm-21-58,21,11.23V492.23Zm84.19-1.84-21,12.15,21,11.24Zm-63.14,13.07,21,11.24V503.46Zm42.09-24.3,21-12.15V455.77Zm-21,82.31V550.23l-21,35.54Zm21-58.93V491.31l-21,35.54Z" transform="translate(-9.38 -9.76)"/><path class="j" d="M491.56,610.07l21.05-12.15-21.05-11.24Zm-63.14-10.32,21.05-12.15-21.05-11.23Zm63.14-13.07-21-11.23v23.39Zm-63.14,59.85L449.47,611l-21.05,12.15Zm42.1-117.85v23.39l21-35.54Zm-21,82.31,21-35.54-21,12.15Zm-21.05-58,21.05,11.24V540.83Zm84.19-1.83L491.56,563.3l21.05,11.23Zm-63.14,13.07,21,11.23V552.07Zm42.09-24.31,21.05-12.15V504.38Zm-21,82.31V598.84l-21,35.53Zm21-58.92V539.91l-21,35.54Z" transform="translate(-9.38 -9.76)"/><path class="j" d="M491.56,703.61l21.05-12.15-21.05-11.23ZM428.42,693.3l21.05-12.15-21.05-11.24Zm63.14-13.07-21-11.23v23.38Zm-63.14,59.84,21.05-35.54-21.05,12.15Zm42.1-117.85v23.39l21-35.54Zm-21,82.31,21-35.53-21,12.15Zm-21.05-58,21.05,11.23V634.37Zm84.19-1.84-21.05,12.15,21.05,11.24Zm-63.14,13.07,21,11.24V645.61Zm42.09-24.3,21.05-12.16V597.92Zm-21,82.31V692.38l-21,35.54Zm21-58.93V633.46l-21,35.54Z" transform="translate(-9.38 -9.76)"/><path class="j" d="M575.75,655l21-12.15-21-11.24Zm-63.14-10.32,21-12.15-21-11.23Zm63.14-13.07-21-11.23v23.38Zm-63.14,59.84,21-35.53-21,12.15ZM554.7,573.62V597l21-35.53Zm-21,82.31,21-35.54-21,12.15Zm-21-58,21,11.23V585.77Zm84.19-1.83-21,12.15,21,11.23Zm-63.14,13.06,21,11.24V597Zm42.09-24.3,21-12.15V549.31Zm-21,82.31V643.77l-21,35.54Zm21-58.92V584.85l-21,35.54Z" transform="translate(-9.38 -9.76)"/></g><g class="l"><path class="j" d="M281.09,561.46l-21-12.15,21-11.23Zm63.15-10.31L323.19,539l21.05-11.24Zm-63.15-13.07,21.05-11.23v23.38Zm63.15,59.84-21.05-35.54,21.05,12.15Zm-42.1-117.85v23.39l-21.05-35.54Zm21.05,82.31-21.05-35.53L323.19,539Zm21.05-58-21.05,11.23V492.23Zm-84.19-1.84,21,12.15-21,11.24Zm63.14,13.07-21.05,11.24V503.46Zm-42.1-24.3-21-12.15V455.77Zm21.05,82.31V550.23l21.05,35.54Zm-21.05-58.93V491.31l21.05,35.54Z" transform="translate(-9.38 -9.76)"/><path class="j" d="M365.28,610.07l-21-12.15,21-11.24Zm63.15-10.32L407.38,587.6l21.05-11.23Zm-63.15-13.07,21.05-11.23v23.39Zm63.15,59.85L407.38,611l21.05,12.15Zm-42.1-117.85v23.39l-21.05-35.54ZM407.38,611l-21.05-35.54,21.05,12.15Zm21.05-58-21.05,11.24V540.83Zm-84.19-1.83,21,12.15-21,11.23Zm63.14,13.07-21.05,11.23V552.07Zm-42.1-24.31-21-12.15V504.38Zm21.05,82.31V598.84l21.05,35.53ZM365.28,563.3V539.91l21.05,35.54Z" transform="translate(-9.38 -9.76)"/><path class="j" d="M365.28,703.61l-21-12.15,21-11.23Zm63.15-10.31-21.05-12.15,21.05-11.24Zm-63.15-13.07L386.33,669v23.38Zm63.15,59.84-21.05-35.54,21.05,12.15Zm-42.1-117.85v23.39l-21.05-35.54Zm21.05,82.31L386.33,669l21.05,12.15Zm21.05-58-21.05,11.23V634.37Zm-84.19-1.84,21,12.15-21,11.24Zm63.14,13.07L386.33,669V645.61Zm-42.1-24.3-21-12.16V597.92Zm21.05,82.3V692.38l21.05,35.54Zm-21.05-58.92V633.46L386.33,669Z" transform="translate(-9.38 -9.76)"/><path class="j" d="M281.09,655l-21-12.15,21-11.24Zm63.15-10.32-21.05-12.15,21.05-11.23Zm-63.15-13.07,21.05-11.23v23.38Zm63.15,59.84-21.05-35.53,21.05,12.15Zm-42.1-117.84V597l-21.05-35.53Zm21.05,82.31-21.05-35.54,21.05,12.15Zm21.05-58-21.05,11.23V585.77Zm-84.19-1.83,21,12.15-21,11.23Zm63.14,13.06-21.05,11.24V597Zm-42.1-24.3-21-12.15V549.31Zm21.05,82.31V643.77l21.05,35.54Zm-21.05-58.92V584.85l21.05,35.54Z" transform="translate(-9.38 -9.76)"/></g><g class="e"><polygon class="f" points="670.67 691.14 839.34 594.57 670.67 498 502 594.57 670.67 691.14"/><polygon class="g" points="671.04 878.31 839.42 781.1 839.42 594.01 671.04 691.22 671.04 878.31"/><polygon class="h" points="671.04 878.31 502.66 781.1 502.66 594.01 671.04 691.22 671.04 878.31"/></g><g class="m"><path class="j" d="M743.57,568.25l21.08-12.08H722.48ZM638.15,580.32l21.08-12.07H617.06Zm84.33-24.15H680.31l21.09,12.08Zm-42.17,48.29V580.32l-21.08,12.07ZM638.15,532l21.08,12.07V520Zm42.16,48.29V556.17l-21.08,12.08ZM596,556.18h42.17L617.06,544.1ZM722.48,532,701.4,544.1h42.16Zm-84.33,24.14h42.16L659.23,544.1ZM680.31,532,701.4,520l-21.08-12.07Zm42.17,48.29L701.4,568.25v24.14ZM701.4,544.1,680.31,532v24.14Z" transform="translate(-9.38 -9.76)"/><path class="j" d="M659.23,616.53l21.09-12.07H638.15ZM553.81,628.6l21.09-12.07H532.73Zm84.34-24.14H596l21.08,12.07ZM596,652.75V628.6L574.9,640.67Zm-42.17-72.43,21.09,12.07V568.25ZM596,628.6V604.46L574.9,616.53Zm-84.34-24.14h42.17l-21.08-12.07Zm126.51-24.14-21.09,12.07h42.17Zm-84.34,24.14H596L574.9,592.39ZM596,580.32l21.08-12.07L596,556.17Zm42.17,48.28-21.09-12.07v24.14Zm-21.09-36.21L596,580.32v24.14Z" transform="translate(-9.38 -9.76)"/><path class="j" d="M743.57,664.82l21.08-12.08H722.48ZM638.15,676.89l21.08-12.07H617.06Zm84.33-24.14H680.32l21.08,12.07ZM680.31,701V676.89L659.23,689ZM638.15,628.6l21.08,12.07V616.53Zm42.16,48.29V652.75l-21.09,12.07ZM596,652.75h42.17l-21.09-12.08Zm126.5-24.15L701.4,640.67h42.16Zm-84.33,24.15h42.17l-21.09-12.08Zm42.17-24.15,21.08-12.07-21.08-12.07Zm42.16,48.29L701.4,664.82V689ZM701.4,640.67,680.32,628.6v24.15Z" transform="translate(-9.38 -9.76)"/><path class="j" d="M827.9,616.53,849,604.46H806.82ZM722.48,628.6l21.09-12.07H701.4Zm84.34-24.14H764.65l21.08,12.07Zm-42.17,48.29V628.6l-21.09,12.07Zm-42.17-72.43,21.09,12.07V568.25Zm42.17,48.28V604.46l-21.08,12.07Zm-84.34-24.14h42.17L701.4,592.39Zm126.51-24.14-21.09,12.07H827.9Zm-84.34,24.14h42.17l-21.08-12.07Zm42.17-24.14,21.08-12.07-21.08-12.08Zm42.17,48.28-21.09-12.07v24.15Zm-21.09-36.21-21.08-12.07v24.14Z" transform="translate(-9.38 -9.76)"/></g><g class="n"><path class="j" d="M827.75,709.46l21-12.15-21-11.23Zm-63.14-10.31,21-12.15-21-11.24Zm63.14-13.07-21-11.23v23.38Zm-63.14,59.84,21-35.54-21,12.15ZM806.7,628.07v23.39l21-35.54Zm-21,82.31,21-35.53-21,12.15Zm-21-58,21,11.23V640.23Zm84.19-1.84-21,12.15,21,11.24Zm-63.14,13.07,21,11.24V651.46Zm42.09-24.3,21-12.15V603.77Zm-21,82.31V698.23l-21,35.54Zm21-58.93V639.31l-21,35.54Z" transform="translate(-9.38 -9.76)"/><path class="j" d="M743.56,758.07l21.05-12.15-21.05-11.24Zm-63.14-10.32,21.05-12.15-21.05-11.23Zm63.14-13.07-21-11.23v23.39Zm-63.14,59.85L701.47,759l-21.05,12.15Zm42.1-117.85v23.39l21-35.54Zm-21,82.31,21-35.54-21,12.15Zm-21.05-58,21.05,11.24V688.83Zm84.19-1.83L743.56,711.3l21.05,11.23Zm-63.14,13.07,21,11.23V700.07Zm42.09-24.31,21.05-12.15V652.38Zm-21,82.31V746.84l-21,35.53Zm21-58.92V687.91l-21,35.54Z" transform="translate(-9.38 -9.76)"/><path class="j" d="M743.56,851.61l21.05-12.15-21.05-11.23ZM680.42,841.3l21.05-12.15-21.05-11.24Zm63.14-13.07-21-11.23v23.38Zm-63.14,59.84,21.05-35.54-21.05,12.15Zm42.1-117.85v23.39l21-35.54Zm-21,82.31,21-35.53-21,12.15Zm-21.05-58,21.05,11.23V782.37Zm84.19-1.84-21.05,12.15,21.05,11.24Zm-63.14,13.07,21,11.24V793.61Zm42.09-24.3,21.05-12.16V745.92Zm-21,82.31V840.38l-21,35.54Zm21-58.93V781.46l-21,35.54Z" transform="translate(-9.38 -9.76)"/><path class="j" d="M827.75,803l21-12.15-21-11.24Zm-63.14-10.32,21-12.15-21-11.23Zm63.14-13.07-21-11.23v23.38Zm-63.14,59.84,21-35.53-21,12.15ZM806.7,721.62V745l21-35.53Zm-21,82.31,21-35.54-21,12.15Zm-21-58,21,11.23V733.77Zm84.19-1.83-21,12.15,21,11.23Zm-63.14,13.06,21,11.24V745Zm42.09-24.3,21-12.15V697.31Zm-21,82.31V791.77l-21,35.54Zm21-58.92V732.85l-21,35.54Z" transform="translate(-9.38 -9.76)"/></g><g class="o"><path class="j" d="M533.09,709.46l-21-12.15,21-11.23Zm63.15-10.31-21-12.15,21-11.24Zm-63.15-13.07,21-11.23v23.38Zm63.15,59.84-21-35.54,21,12.15Zm-42.1-117.85v23.39l-21-35.54Zm21.05,82.31-21.05-35.53L575.19,687Zm21-58-21,11.23V640.23Zm-84.19-1.84,21,12.15-21,11.24Zm63.14,13.07-21.05,11.24V651.46Zm-42.1-24.3-21-12.15V603.77Zm21,82.31V698.23l21.05,35.54Zm-21-58.93V639.31l21,35.54Z" transform="translate(-9.38 -9.76)"/><path class="j" d="M617.28,758.07l-21-12.15,21-11.24Zm63.15-10.32-21-12.15,21-11.23Zm-63.15-13.07,21.05-11.23v23.39Zm63.15,59.85-21-35.54,21,12.15Zm-42.1-117.85v23.39l-21.05-35.54Zm21,82.31-21-35.54,21,12.15Zm21-58-21,11.24V688.83Zm-84.19-1.83,21,12.15-21,11.23Zm63.14,13.07-21,11.23V700.07Zm-42.1-24.31-21-12.15V652.38Zm21.05,82.31V746.84l21,35.53ZM617.28,711.3V687.91l21.05,35.54Z" transform="translate(-9.38 -9.76)"/><path class="j" d="M617.28,851.61l-21-12.15,21-11.23Zm63.15-10.31-21-12.15,21-11.24Zm-63.15-13.07L638.33,817v23.38Zm63.15,59.84-21-35.54,21,12.15Zm-42.1-117.85v23.39l-21.05-35.54Zm21,82.31-21-35.53,21,12.15Zm21-58-21,11.23V782.37Zm-84.19-1.84,21,12.15-21,11.24Zm63.14,13.07-21,11.24V793.61Zm-42.1-24.3-21-12.16V745.92Zm21.05,82.3V840.38l21,35.54Zm-21.05-58.92V781.46L638.33,817Z" transform="translate(-9.38 -9.76)"/><path class="j" d="M533.09,803l-21-12.15,21-11.24Zm63.15-10.32-21-12.15,21-11.23Zm-63.15-13.07,21-11.23v23.38Zm63.15,59.84-21-35.53,21,12.15Zm-42.1-117.84V745l-21-35.53Zm21.05,82.31-21.05-35.54,21.05,12.15Zm21-58-21,11.23V733.77Zm-84.19-1.83,21,12.15-21,11.23Zm63.14,13.06-21.05,11.24V745Zm-42.1-24.3-21-12.15V697.31Zm21,82.31V791.77l21.05,35.54Zm-21-58.92V732.85l21,35.54Z" transform="translate(-9.38 -9.76)"/></g><g class="e"><polygon class="f" points="670.67 398.14 839.34 301.57 670.67 205 502 301.57 670.67 398.14"/><polygon class="g" points="671.04 585.31 839.42 488.1 839.42 301.01 671.04 398.22 671.04 585.31"/><polygon class="h" points="671.04 585.31 502.66 488.1 502.66 301.01 671.04 398.22 671.04 585.31"/></g><g class="p"><path class="j" d="M743.57,275.25l21.08-12.08H722.48ZM638.15,287.32l21.08-12.07H617.06Zm84.33-24.15H680.31l21.09,12.08Zm-42.17,48.29V287.32l-21.08,12.07ZM638.15,239l21.08,12.07V227Zm42.16,48.29V263.17l-21.08,12.08ZM596,263.18h42.17L617.06,251.1ZM722.48,239,701.4,251.1h42.16Zm-84.33,24.14h42.16L659.23,251.1ZM680.31,239,701.4,227l-21.08-12.07Zm42.17,48.29L701.4,275.25v24.14ZM701.4,251.1,680.31,239v24.14Z" transform="translate(-9.38 -9.76)"/><path class="j" d="M659.23,323.53l21.09-12.07H638.15ZM553.81,335.6l21.09-12.07H532.73Zm84.34-24.14H596l21.08,12.07ZM596,359.75V335.6L574.9,347.67Zm-42.17-72.43,21.09,12.07V275.25ZM596,335.6V311.46L574.9,323.53Zm-84.34-24.14h42.17l-21.08-12.07Zm126.51-24.14-21.09,12.07h42.17Zm-84.34,24.14H596L574.9,299.39ZM596,287.32l21.08-12.07L596,263.17Zm42.17,48.28-21.09-12.07v24.14Zm-21.09-36.21L596,287.32v24.14Z" transform="translate(-9.38 -9.76)"/><path class="j" d="M743.57,371.82l21.08-12.08H722.48ZM638.15,383.89l21.08-12.07H617.06Zm84.33-24.14H680.32l21.08,12.07ZM680.31,408V383.89L659.23,396ZM638.15,335.6l21.08,12.07V323.53Zm42.16,48.29V359.75l-21.09,12.07ZM596,359.75h42.17l-21.09-12.08Zm126.5-24.15L701.4,347.67h42.16Zm-84.33,24.15h42.17l-21.09-12.08Zm42.17-24.15,21.08-12.07-21.08-12.07Zm42.16,48.29L701.4,371.82V396ZM701.4,347.67,680.32,335.6v24.15Z" transform="translate(-9.38 -9.76)"/><path class="j" d="M827.9,323.53,849,311.46H806.82ZM722.48,335.6l21.09-12.07H701.4Zm84.34-24.14H764.65l21.08,12.07Zm-42.17,48.29V335.6l-21.09,12.07Zm-42.17-72.43,21.09,12.07V275.25Zm42.17,48.28V311.46l-21.08,12.07Zm-84.34-24.14h42.17L701.4,299.39Zm126.51-24.14-21.09,12.07H827.9Zm-84.34,24.14h42.17l-21.08-12.07Zm42.17-24.14,21.08-12.07-21.08-12.08Zm42.17,48.28-21.09-12.07v24.15Zm-21.09-36.21-21.08-12.07v24.14Z" transform="translate(-9.38 -9.76)"/></g><g class="q"><path class="j" d="M827.75,416.46l21-12.15-21-11.23Zm-63.14-10.31,21-12.15-21-11.24Zm63.14-13.07-21-11.23v23.38Zm-63.14,59.84,21-35.54-21,12.15ZM806.7,335.07v23.39l21-35.54Zm-21,82.31,21-35.53-21,12.15Zm-21-58,21,11.23V347.23Zm84.19-1.84-21,12.15,21,11.24Zm-63.14,13.07,21,11.24V358.46Zm42.09-24.3,21-12.15V310.77Zm-21,82.31V405.23l-21,35.54Zm21-58.93V346.31l-21,35.54Z" transform="translate(-9.38 -9.76)"/><path class="j" d="M743.56,465.07l21.05-12.15-21.05-11.24Zm-63.14-10.32,21.05-12.15-21.05-11.23Zm63.14-13.07-21-11.23v23.39Zm-63.14,59.85L701.47,466l-21.05,12.15Zm42.1-117.85v23.39l21-35.54Zm-21,82.31,21-35.54-21,12.15Zm-21.05-58,21.05,11.24V395.83Zm84.19-1.83L743.56,418.3l21.05,11.23Zm-63.14,13.07,21,11.23V407.07Zm42.09-24.31,21.05-12.15V359.38Zm-21,82.31V453.84l-21,35.53Zm21-58.92V394.91l-21,35.54Z" transform="translate(-9.38 -9.76)"/><path class="j" d="M743.56,558.61l21.05-12.15-21.05-11.23ZM680.42,548.3l21.05-12.15-21.05-11.24Zm63.14-13.07-21-11.23v23.38Zm-63.14,59.84,21.05-35.54-21.05,12.15Zm42.1-117.85v23.39l21-35.54Zm-21,82.31,21-35.53-21,12.15Zm-21.05-58,21.05,11.23V489.37Zm84.19-1.84-21.05,12.15,21.05,11.24Zm-63.14,13.07,21,11.24V500.61Zm42.09-24.3,21.05-12.16V452.92Zm-21,82.31V547.38l-21,35.54Zm21-58.93V488.46l-21,35.54Z" transform="translate(-9.38 -9.76)"/><path class="j" d="M827.75,510l21-12.15-21-11.24Zm-63.14-10.32,21-12.15-21-11.23Zm63.14-13.07-21-11.23v23.38Zm-63.14,59.84,21-35.53-21,12.15ZM806.7,428.62V452l21-35.53Zm-21,82.31,21-35.54-21,12.15Zm-21-58,21,11.23V440.77Zm84.19-1.83-21,12.15,21,11.23Zm-63.14,13.06,21,11.24V452Zm42.09-24.3,21-12.15V404.31Zm-21,82.31V498.77l-21,35.54Zm21-58.92V439.85l-21,35.54Z" transform="translate(-9.38 -9.76)"/></g><g class="r"><path class="j" d="M533.09,416.46l-21-12.15,21-11.23Zm63.15-10.31-21-12.15,21-11.24Zm-63.15-13.07,21-11.23v23.38Zm63.15,59.84-21-35.54,21,12.15Zm-42.1-117.85v23.39l-21-35.54Zm21.05,82.31-21.05-35.53L575.19,394Zm21-58-21,11.23V347.23Zm-84.19-1.84,21,12.15-21,11.24Zm63.14,13.07-21.05,11.24V358.46Zm-42.1-24.3-21-12.15V310.77Zm21,82.31V405.23l21.05,35.54Zm-21-58.93V346.31l21,35.54Z" transform="translate(-9.38 -9.76)"/><path class="j" d="M617.28,465.07l-21-12.15,21-11.24Zm63.15-10.32-21-12.15,21-11.23Zm-63.15-13.07,21.05-11.23v23.39Zm63.15,59.85-21-35.54,21,12.15Zm-42.1-117.85v23.39l-21.05-35.54Zm21,82.31-21-35.54,21,12.15Zm21-58-21,11.24V395.83Zm-84.19-1.83,21,12.15-21,11.23Zm63.14,13.07-21,11.23V407.07Zm-42.1-24.31-21-12.15V359.38Zm21.05,82.31V453.84l21,35.53ZM617.28,418.3V394.91l21.05,35.54Z" transform="translate(-9.38 -9.76)"/><path class="j" d="M617.28,558.61l-21-12.15,21-11.23Zm63.15-10.31-21-12.15,21-11.24Zm-63.15-13.07L638.33,524v23.38Zm63.15,59.84-21-35.54,21,12.15Zm-42.1-117.85v23.39l-21.05-35.54Zm21,82.31-21-35.53,21,12.15Zm21-58-21,11.23V489.37Zm-84.19-1.84,21,12.15-21,11.24Zm63.14,13.07-21,11.24V500.61Zm-42.1-24.3-21-12.16V452.92Zm21.05,82.3V547.38l21,35.54Zm-21.05-58.92V488.46L638.33,524Z" transform="translate(-9.38 -9.76)"/><path class="j" d="M533.09,510l-21-12.15,21-11.24Zm63.15-10.32-21-12.15,21-11.23Zm-63.15-13.07,21-11.23v23.38Zm63.15,59.84-21-35.53,21,12.15Zm-42.1-117.84V452l-21-35.53Zm21.05,82.31-21.05-35.54,21.05,12.15Zm21-58-21,11.23V440.77Zm-84.19-1.83,21,12.15-21,11.23Zm63.14,13.06-21.05,11.24V452Zm-42.1-24.3-21-12.15V404.31Zm21,82.31V498.77l21.05,35.54Zm-21-58.92V439.85l21,35.54Z" transform="translate(-9.38 -9.76)"/></g><g class="e"><polygon class="f" points="168.67 691.14 337.34 594.57 168.67 498 0 594.57 168.67 691.14"/><polygon class="g" points="169.04 878.31 337.42 781.1 337.42 594.01 169.04 691.22 169.04 878.31"/><polygon class="h" points="169.04 878.31 0.66 781.1 0.66 594.01 169.04 691.22 169.04 878.31"/></g><g class="s"><path class="j" d="M241.57,568.25l21.08-12.08H220.48ZM136.15,580.32l21.08-12.07H115.06Zm84.33-24.15H178.31l21.09,12.08Zm-42.17,48.29V580.32l-21.08,12.07ZM136.15,532l21.08,12.07V520Zm42.16,48.29V556.17l-21.08,12.08ZM94,556.18h42.17L115.06,544.1ZM220.48,532,199.4,544.1h42.16Zm-84.33,24.14h42.16L157.23,544.1ZM178.31,532,199.4,520l-21.08-12.07Zm42.17,48.29L199.4,568.25v24.14ZM199.4,544.1,178.31,532v24.14Z" transform="translate(-9.38 -9.76)"/><path class="j" d="M157.23,616.53l21.09-12.07H136.15ZM51.81,628.6,72.9,616.53H30.73Zm84.34-24.14H94l21.08,12.07ZM94,652.75V628.6L72.9,640.67ZM51.81,580.32,72.9,592.39V568.25ZM94,628.6V604.46L72.9,616.53ZM9.64,604.46H51.81L30.73,592.39Zm126.51-24.14-21.09,12.07h42.17ZM51.81,604.46H94L72.9,592.39ZM94,580.32l21.08-12.07L94,556.17Zm42.17,48.28-21.09-12.07v24.14Zm-21.09-36.21L94,580.32v24.14Z" transform="translate(-9.38 -9.76)"/><path class="j" d="M241.57,664.82l21.08-12.08H220.48ZM136.15,676.89l21.08-12.07H115.06Zm84.33-24.14H178.32l21.08,12.07ZM178.31,701V676.89L157.23,689ZM136.15,628.6l21.08,12.07V616.53Zm42.16,48.29V652.75l-21.09,12.07ZM94,652.75h42.17l-21.09-12.08Zm126.5-24.15L199.4,640.67h42.16Zm-84.33,24.15h42.17l-21.09-12.08Zm42.17-24.15,21.08-12.07-21.08-12.07Zm42.16,48.29L199.4,664.82V689ZM199.4,640.67,178.32,628.6v24.15Z" transform="translate(-9.38 -9.76)"/><path class="j" d="M325.9,616.53,347,604.46H304.82ZM220.48,628.6l21.09-12.07H199.4Zm84.34-24.14H262.65l21.08,12.07Zm-42.17,48.29V628.6l-21.09,12.07Zm-42.17-72.43,21.09,12.07V568.25Zm42.17,48.28V604.46l-21.08,12.07Zm-84.34-24.14h42.17L199.4,592.39Zm126.51-24.14-21.09,12.07H325.9Zm-84.34,24.14h42.17l-21.08-12.07Zm42.17-24.14,21.08-12.07-21.08-12.08Zm42.17,48.28-21.09-12.07v24.15Zm-21.09-36.21-21.08-12.07v24.14Z" transform="translate(-9.38 -9.76)"/></g><g class="t"><path class="j" d="M325.75,709.46l21.05-12.15-21.05-11.23Zm-63.14-10.31L283.66,687l-21.05-11.24Zm63.14-13.07L304.7,674.85v23.38Zm-63.14,59.84,21.05-35.54-21.05,12.15ZM304.7,628.07v23.39l21.05-35.54Zm-21,82.31,21-35.53-21,12.15Zm-21.05-58,21.05,11.23V640.23Zm84.19-1.84-21.05,12.15,21.05,11.24Zm-63.14,13.07,21,11.24V651.46Zm42.09-24.3,21.05-12.15V603.77ZM304.7,721.62V698.23l-21,35.54Zm21.05-58.93V639.31L304.7,674.85Z" transform="translate(-9.38 -9.76)"/><path class="j" d="M241.56,758.07l21.05-12.15-21.05-11.24Zm-63.14-10.32,21.05-12.15-21.05-11.23Zm63.14-13.07-21-11.23v23.39Zm-63.14,59.85L199.47,759l-21.05,12.15Zm42.1-117.85v23.39l21-35.54ZM199.47,759l21.05-35.54L199.47,735.6Zm-21.05-58,21.05,11.24V688.83Zm84.19-1.83L241.56,711.3l21.05,11.23Zm-63.14,13.07,21.05,11.23V700.07Zm42.09-24.31,21.05-12.15V652.38Zm-21,82.31V746.84l-21.05,35.53Zm21-58.92V687.91l-21,35.54Z" transform="translate(-9.38 -9.76)"/><path class="j" d="M241.56,851.61l21.05-12.15-21.05-11.23ZM178.42,841.3l21.05-12.15-21.05-11.24Zm63.14-13.07-21-11.23v23.38Zm-63.14,59.84,21.05-35.54-21.05,12.15Zm42.1-117.85v23.39l21-35.54Zm-21.05,82.31L220.52,817l-21.05,12.15Zm-21.05-58,21.05,11.23V782.37Zm84.19-1.84-21.05,12.15,21.05,11.24Zm-63.14,13.07L220.52,817V793.61Zm42.09-24.3,21.05-12.16V745.92Zm-21,82.31V840.38l-21.05,35.54Zm21-58.93V781.46l-21,35.54Z" transform="translate(-9.38 -9.76)"/><path class="j" d="M325.75,803l21.05-12.15-21.05-11.24Zm-63.14-10.32,21.05-12.15-21.05-11.23Zm63.14-13.07L304.7,768.39v23.38Zm-63.14,59.84,21.05-35.53-21.05,12.15ZM304.7,721.62V745l21.05-35.53Zm-21,82.31,21-35.54-21,12.15Zm-21.05-58,21.05,11.23V733.77Zm84.19-1.83-21.05,12.15,21.05,11.23Zm-63.14,13.06,21,11.24V745Zm42.09-24.3L346.8,720.7V697.31ZM304.7,815.16V791.77l-21,35.54Zm21.05-58.92V732.85L304.7,768.39Z" transform="translate(-9.38 -9.76)"/></g><g class="u"><path class="j" d="M31.09,709.46l-21-12.15,21-11.23Zm63.15-10.31L73.19,687l21-11.24ZM31.09,686.08l21.05-11.23v23.38Zm63.15,59.84-21-35.54,21,12.15ZM52.14,628.07v23.39l-21-35.54Zm21,82.31-21-35.53,21,12.15Zm21-58-21,11.23V640.23Zm-84.19-1.84,21,12.15-21,11.24Zm63.14,13.07-21,11.24V651.46Zm-42.1-24.3-21-12.15V603.77Zm21.05,82.31V698.23l21,35.54Zm-21-58.93V639.31l21.05,35.54Z" transform="translate(-9.38 -9.76)"/><path class="j" d="M115.28,758.07l-21-12.15,21-11.24Zm63.15-10.32L157.38,735.6l21.05-11.23Zm-63.15-13.07,21.05-11.23v23.39Zm63.15,59.85L157.38,759l21.05,12.15Zm-42.1-117.85v23.39l-21.05-35.54Zm21,82.31-21-35.54,21,12.15Zm21.05-58-21.05,11.24V688.83Zm-84.19-1.83,21,12.15-21,11.23Zm63.14,13.07-21,11.23V700.07Zm-42.1-24.31-21-12.15V652.38Zm21.05,82.31V746.84l21,35.53ZM115.28,711.3V687.91l21.05,35.54Z" transform="translate(-9.38 -9.76)"/><path class="j" d="M115.28,851.61l-21-12.15,21-11.23Zm63.15-10.31-21.05-12.15,21.05-11.24Zm-63.15-13.07L136.33,817v23.38Zm63.15,59.84-21.05-35.54,21.05,12.15Zm-42.1-117.85v23.39l-21.05-35.54Zm21,82.31-21-35.53,21,12.15Zm21.05-58-21.05,11.23V782.37Zm-84.19-1.84,21,12.15-21,11.24Zm63.14,13.07-21,11.24V793.61Zm-42.1-24.3-21-12.16V745.92Zm21.05,82.3V840.38l21,35.54Zm-21.05-58.92V781.46L136.33,817Z" transform="translate(-9.38 -9.76)"/><path class="j" d="M31.09,803l-21-12.15,21-11.24Zm63.15-10.32-21-12.15,21-11.23ZM31.09,779.62l21.05-11.23v23.38Zm63.15,59.84-21-35.53,21,12.15ZM52.14,721.62V745l-21-35.53Zm21,82.31-21-35.54,21,12.15Zm21-58-21,11.23V733.77Zm-84.19-1.83,21,12.15-21,11.23Zm63.14,13.06-21,11.24V745Zm-42.1-24.3-21-12.15V697.31Zm21.05,82.31V791.77l21,35.54Zm-21-58.92V732.85l21.05,35.54Z" transform="translate(-9.38 -9.76)"/></g><g class="e"><polygon class="f" points="168.67 398.14 337.34 301.57 168.67 205 0 301.57 168.67 398.14"/><polygon class="g" points="169.04 585.31 337.42 488.1 337.42 301.01 169.04 398.22 169.04 585.31"/><polygon class="h" points="169.04 585.31 0.66 488.1 0.66 301.01 169.04 398.22 169.04 585.31"/></g><g class="v"><path class="j" d="M241.57,275.25l21.08-12.08H220.48ZM136.15,287.32l21.08-12.07H115.06Zm84.33-24.15H178.31l21.09,12.08Zm-42.17,48.29V287.32l-21.08,12.07ZM136.15,239l21.08,12.07V227Zm42.16,48.29V263.17l-21.08,12.08ZM94,263.18h42.17L115.06,251.1ZM220.48,239,199.4,251.1h42.16Zm-84.33,24.14h42.16L157.23,251.1ZM178.31,239,199.4,227l-21.08-12.07Zm42.17,48.29L199.4,275.25v24.14ZM199.4,251.1,178.31,239v24.14Z" transform="translate(-9.38 -9.76)"/><path class="j" d="M157.23,323.53l21.09-12.07H136.15ZM51.81,335.6,72.9,323.53H30.73Zm84.34-24.14H94l21.08,12.07ZM94,359.75V335.6L72.9,347.67ZM51.81,287.32,72.9,299.39V275.25ZM94,335.6V311.46L72.9,323.53ZM9.64,311.46H51.81L30.73,299.39Zm126.51-24.14-21.09,12.07h42.17ZM51.81,311.46H94L72.9,299.39ZM94,287.32l21.08-12.07L94,263.17Zm42.17,48.28-21.09-12.07v24.14Zm-21.09-36.21L94,287.32v24.14Z" transform="translate(-9.38 -9.76)"/><path class="j" d="M241.57,371.82l21.08-12.08H220.48ZM136.15,383.89l21.08-12.07H115.06Zm84.33-24.14H178.32l21.08,12.07ZM178.31,408V383.89L157.23,396ZM136.15,335.6l21.08,12.07V323.53Zm42.16,48.29V359.75l-21.09,12.07ZM94,359.75h42.17l-21.09-12.08Zm126.5-24.15L199.4,347.67h42.16Zm-84.33,24.15h42.17l-21.09-12.08Zm42.17-24.15,21.08-12.07-21.08-12.07Zm42.16,48.29L199.4,371.82V396ZM199.4,347.67,178.32,335.6v24.15Z" transform="translate(-9.38 -9.76)"/><path class="j" d="M325.9,323.53,347,311.46H304.82ZM220.48,335.6l21.09-12.07H199.4Zm84.34-24.14H262.65l21.08,12.07Zm-42.17,48.29V335.6l-21.09,12.07Zm-42.17-72.43,21.09,12.07V275.25Zm42.17,48.28V311.46l-21.08,12.07Zm-84.34-24.14h42.17L199.4,299.39Zm126.51-24.14-21.09,12.07H325.9Zm-84.34,24.14h42.17l-21.08-12.07Zm42.17-24.14,21.08-12.07-21.08-12.08Zm42.17,48.28-21.09-12.07v24.15Zm-21.09-36.21-21.08-12.07v24.14Z" transform="translate(-9.38 -9.76)"/></g><g class="w"><path class="j" d="M325.75,416.46l21.05-12.15-21.05-11.23Zm-63.14-10.31L283.66,394l-21.05-11.24Zm63.14-13.07L304.7,381.85v23.38Zm-63.14,59.84,21.05-35.54-21.05,12.15ZM304.7,335.07v23.39l21.05-35.54Zm-21,82.31,21-35.53-21,12.15Zm-21.05-58,21.05,11.23V347.23Zm84.19-1.84-21.05,12.15,21.05,11.24Zm-63.14,13.07,21,11.24V358.46Zm42.09-24.3,21.05-12.15V310.77ZM304.7,428.62V405.23l-21,35.54Zm21.05-58.93V346.31L304.7,381.85Z" transform="translate(-9.38 -9.76)"/><path class="j" d="M241.56,465.07l21.05-12.15-21.05-11.24Zm-63.14-10.32,21.05-12.15-21.05-11.23Zm63.14-13.07-21-11.23v23.39Zm-63.14,59.85L199.47,466l-21.05,12.15Zm42.1-117.85v23.39l21-35.54ZM199.47,466l21.05-35.54L199.47,442.6Zm-21.05-58,21.05,11.24V395.83Zm84.19-1.83L241.56,418.3l21.05,11.23Zm-63.14,13.07,21.05,11.23V407.07Zm42.09-24.31,21.05-12.15V359.38Zm-21,82.31V453.84l-21.05,35.53Zm21-58.92V394.91l-21,35.54Z" transform="translate(-9.38 -9.76)"/><path class="j" d="M241.56,558.61l21.05-12.15-21.05-11.23ZM178.42,548.3l21.05-12.15-21.05-11.24Zm63.14-13.07-21-11.23v23.38Zm-63.14,59.84,21.05-35.54-21.05,12.15Zm42.1-117.85v23.39l21-35.54Zm-21.05,82.31L220.52,524l-21.05,12.15Zm-21.05-58,21.05,11.23V489.37Zm84.19-1.84-21.05,12.15,21.05,11.24Zm-63.14,13.07L220.52,524V500.61Zm42.09-24.3,21.05-12.16V452.92Zm-21,82.31V547.38l-21.05,35.54Zm21-58.93V488.46l-21,35.54Z" transform="translate(-9.38 -9.76)"/><path class="j" d="M325.75,510l21.05-12.15-21.05-11.24Zm-63.14-10.32,21.05-12.15-21.05-11.23Zm63.14-13.07L304.7,475.39v23.38Zm-63.14,59.84,21.05-35.53-21.05,12.15ZM304.7,428.62V452l21.05-35.53Zm-21,82.31,21-35.54-21,12.15Zm-21.05-58,21.05,11.23V440.77Zm84.19-1.83-21.05,12.15,21.05,11.23Zm-63.14,13.06,21,11.24V452Zm42.09-24.3L346.8,427.7V404.31ZM304.7,522.16V498.77l-21,35.54Zm21.05-58.92V439.85L304.7,475.39Z" transform="translate(-9.38 -9.76)"/></g><g class="x"><path class="j" d="M31.09,416.46l-21-12.15,21-11.23Zm63.15-10.31L73.19,394l21-11.24ZM31.09,393.08l21.05-11.23v23.38Zm63.15,59.84-21-35.54,21,12.15ZM52.14,335.07v23.39l-21-35.54Zm21,82.31-21-35.53,21,12.15Zm21-58-21,11.23V347.23Zm-84.19-1.84,21,12.15-21,11.24Zm63.14,13.07-21,11.24V358.46Zm-42.1-24.3-21-12.15V310.77Zm21.05,82.31V405.23l21,35.54Zm-21-58.93V346.31l21.05,35.54Z" transform="translate(-9.38 -9.76)"/><path class="j" d="M115.28,465.07l-21-12.15,21-11.24Zm63.15-10.32L157.38,442.6l21.05-11.23Zm-63.15-13.07,21.05-11.23v23.39Zm63.15,59.85L157.38,466l21.05,12.15Zm-42.1-117.85v23.39l-21.05-35.54Zm21,82.31-21-35.54,21,12.15Zm21.05-58-21.05,11.24V395.83Zm-84.19-1.83,21,12.15-21,11.23Zm63.14,13.07-21,11.23V407.07Zm-42.1-24.31-21-12.15V359.38Zm21.05,82.31V453.84l21,35.53ZM115.28,418.3V394.91l21.05,35.54Z" transform="translate(-9.38 -9.76)"/><path class="j" d="M115.28,558.61l-21-12.15,21-11.23Zm63.15-10.31-21.05-12.15,21.05-11.24Zm-63.15-13.07L136.33,524v23.38Zm63.15,59.84-21.05-35.54,21.05,12.15Zm-42.1-117.85v23.39l-21.05-35.54Zm21,82.31-21-35.53,21,12.15Zm21.05-58-21.05,11.23V489.37Zm-84.19-1.84,21,12.15-21,11.24Zm63.14,13.07-21,11.24V500.61Zm-42.1-24.3-21-12.16V452.92Zm21.05,82.3V547.38l21,35.54Zm-21.05-58.92V488.46L136.33,524Z" transform="translate(-9.38 -9.76)"/><path class="j" d="M31.09,510l-21-12.15,21-11.24Zm63.15-10.32-21-12.15,21-11.23ZM31.09,486.62l21.05-11.23v23.38Zm63.15,59.84-21-35.53,21,12.15ZM52.14,428.62V452l-21-35.53Zm21,82.31-21-35.54,21,12.15Zm21-58-21,11.23V440.77Zm-84.19-1.83,21,12.15-21,11.23Zm63.14,13.06-21,11.24V452Zm-42.1-24.3-21-12.15V404.31Zm21.05,82.31V498.77l21,35.54Zm-21-58.92V439.85l21.05,35.54Z" transform="translate(-9.38 -9.76)"/></g><g class="e"><polygon class="f" points="418.67 835.83 587.34 739.26 418.67 642.69 250 739.26 418.67 835.83"/><polygon class="g" points="419.04 1023 587.42 925.78 587.42 738.7 419.04 835.91 419.04 1023"/><polygon class="h" points="419.04 1023 250.66 925.78 250.66 738.7 419.04 835.91 419.04 1023"/></g><g class="y"><path class="j" d="M491.57,712.94l21.08-12.08H470.48ZM386.15,725l21.08-12.07H365.06Zm84.33-24.15H428.31l21.09,12.08Zm-42.17,48.29V725l-21.08,12.07Zm-42.16-72.43,21.08,12.07V664.65ZM428.31,725V700.86l-21.08,12.08ZM344,700.87h42.17l-21.09-12.07Zm126.5-24.15L449.4,688.79h42.16Zm-84.33,24.14h42.16l-21.08-12.07Zm42.16-24.14,21.09-12.07-21.08-12.07ZM470.48,725,449.4,712.94v24.14ZM449.4,688.79l-21.09-12.07v24.14Z" transform="translate(-9.38 -9.76)"/><path class="j" d="M407.23,761.22l21.09-12.07H386.15ZM301.81,773.29l21.09-12.07H280.73Zm84.34-24.14H344l21.08,12.07ZM344,797.44V773.29L322.9,785.36ZM301.81,725l21.09,12.07V712.94ZM344,773.29V749.15L322.9,761.22Zm-84.34-24.14h42.17l-21.08-12.07ZM386.15,725l-21.09,12.07h42.17Zm-84.34,24.14H344L322.9,737.08ZM344,725l21.08-12.07L344,700.86Zm42.17,48.28-21.09-12.07v24.14Zm-21.09-36.21L344,725v24.14Z" transform="translate(-9.38 -9.76)"/><path class="j" d="M491.57,809.51l21.08-12.08H470.48ZM386.15,821.58l21.08-12.07H365.06Zm84.33-24.14H428.32l21.08,12.07Zm-42.17,48.28V821.58l-21.08,12.07Zm-42.16-72.43,21.08,12.07V761.22Zm42.16,48.29V797.44l-21.09,12.07ZM344,797.44h42.17l-21.09-12.08Zm126.5-24.15L449.4,785.36h42.16Zm-84.33,24.15h42.17l-21.09-12.08Zm42.17-24.15,21.08-12.07-21.08-12.07Zm42.16,48.29L449.4,809.51v24.14ZM449.4,785.36l-21.08-12.07v24.15Z" transform="translate(-9.38 -9.76)"/><path class="j" d="M575.9,761.22,597,749.15H554.82ZM470.48,773.29l21.09-12.07H449.4Zm84.34-24.14H512.65l21.08,12.07Zm-42.17,48.29V773.29l-21.09,12.08ZM470.48,725l21.09,12.07V712.94Zm42.17,48.28V749.15l-21.08,12.07Zm-84.34-24.14h42.17L449.4,737.08ZM554.82,725l-21.09,12.07H575.9Zm-84.34,24.14h42.17l-21.08-12.07ZM512.65,725l21.08-12.07-21.08-12.08Zm42.17,48.28-21.09-12.07v24.15Zm-21.09-36.21L512.65,725v24.14Z" transform="translate(-9.38 -9.76)"/></g><g class="z"><path class="j" d="M575.75,854.16l21-12.16-21-11.23Zm-63.14-10.32,21-12.15-21-11.24Zm63.14-13.07-21-11.23v23.38Zm-63.14,59.84,21-35.54-21,12.15ZM554.7,772.76v23.39l21-35.54Zm-21,82.31,21-35.53-21,12.15Zm-21-58,21,11.23V784.92Zm84.19-1.84-21,12.15,21,11.24ZM533.66,808.3l21,11.24V796.15ZM575.75,784l21-12.15V748.46Zm-21,82.31V842.92l-21,35.54Zm21-58.93V784l-21,35.54Z" transform="translate(-9.38 -9.76)"/><path class="j" d="M491.56,902.76l21.05-12.15-21.05-11.24Zm-63.14-10.32,21.05-12.15-21.05-11.23Zm63.14-13.07-21-11.23v23.39Zm-63.14,59.85,21.05-35.54-21.05,12.15Zm42.1-117.85v23.39l21-35.54Zm-21,82.31,21-35.54-21,12.15Zm-21.05-58,21.05,11.24V833.52Zm84.19-1.83L491.56,856l21.05,11.23Zm-63.14,13.07,21,11.23V844.76Zm42.09-24.31,21.05-12.15V797.07Zm-21,82.31V891.53l-21,35.53Zm21-58.92V832.6l-21,35.54Z" transform="translate(-9.38 -9.76)"/><path class="j" d="M491.56,996.3l21.05-12.15-21.05-11.23ZM428.42,986l21.05-12.15L428.42,962.6Zm63.14-13.07-21-11.23v23.38Zm-63.14,59.84,21.05-35.54-21.05,12.15Zm42.1-117.85V938.3l21-35.54Zm-21,82.31,21-35.53-21,12.15Zm-21.05-58,21.05,11.23V927.06Zm84.19-1.84-21.05,12.15,21.05,11.24Zm-63.14,13.07,21,11.24V938.3Zm42.09-24.3L512.61,914V890.61Zm-21,82.31V985.07l-21,35.54Zm21-58.93V926.15l-21,35.54Z" transform="translate(-9.38 -9.76)"/><path class="j" d="M575.75,947.7l21-12.15-21-11.24Zm-63.14-10.32,21-12.15-21-11.23Zm63.14-13.07-21-11.23v23.38Zm-63.14,59.84,21-35.53-21,12.15ZM554.7,866.31v23.38l21-35.53Zm-21,82.31,21-35.54-21,12.15Zm-21-58,21,11.23V878.46Zm84.19-1.83-21,12.15,21,11.23Zm-63.14,13.06,21,11.24V889.69Zm42.09-24.3,21-12.15V842Zm-21,82.31V936.46l-21,35.54Zm21-58.92V877.54l-21,35.54Z" transform="translate(-9.38 -9.76)"/></g><g class="aa"><path class="j" d="M281.09,854.15l-21-12.15,21-11.23Zm63.15-10.31-21.05-12.15,21.05-11.24Zm-63.15-13.07,21.05-11.23v23.38Zm63.15,59.84-21.05-35.54,21.05,12.15Zm-42.1-117.85v23.39l-21.05-35.54Zm21.05,82.31-21.05-35.53,21.05,12.15Zm21.05-58L323.19,808.3V784.92Zm-84.19-1.84,21,12.15-21,11.24Zm63.14,13.07-21.05,11.24V796.15ZM281.09,784l-21-12.15V748.46Zm21.05,82.31V842.92l21.05,35.54Zm-21.05-58.93V784l21.05,35.54Z" transform="translate(-9.38 -9.76)"/><path class="j" d="M365.28,902.76l-21-12.15,21-11.24Zm63.15-10.32-21.05-12.15,21.05-11.23Zm-63.15-13.07,21.05-11.23v23.39Zm63.15,59.85-21.05-35.54,21.05,12.15Zm-42.1-117.85v23.39l-21.05-35.54Zm21.05,82.31-21.05-35.54,21.05,12.15Zm21.05-58-21.05,11.24V833.52Zm-84.19-1.83,21,12.15-21,11.23Zm63.14,13.07-21.05,11.23V844.76Zm-42.1-24.31-21-12.15V797.07Zm21.05,82.31V891.53l21.05,35.53ZM365.28,856V832.6l21.05,35.54Z" transform="translate(-9.38 -9.76)"/><path class="j" d="M365.28,996.3l-21-12.15,21-11.23ZM428.43,986l-21.05-12.15,21.05-11.24Zm-63.15-13.07,21.05-11.23v23.38Zm63.15,59.84-21.05-35.54,21.05,12.15Zm-42.1-117.85V938.3l-21.05-35.54Zm21.05,82.31-21.05-35.53,21.05,12.15Zm21.05-58-21.05,11.23V927.06Zm-84.19-1.84,21,12.15-21,11.24Zm63.14,13.07-21.05,11.24V938.3Zm-42.1-24.3-21-12.16V890.61Zm21.05,82.31V985.07l21.05,35.54Zm-21.05-58.93V926.15l21.05,35.54Z" transform="translate(-9.38 -9.76)"/><path class="j" d="M281.09,947.7l-21-12.15,21-11.24Zm63.15-10.32-21.05-12.15L344.24,914Zm-63.15-13.07,21.05-11.23v23.38Zm63.15,59.84-21.05-35.53,21.05,12.15Zm-42.1-117.84v23.38l-21.05-35.53Zm21.05,82.31-21.05-35.54,21.05,12.15Zm21.05-58-21.05,11.23V878.46Zm-84.19-1.83,21,12.15-21,11.23Zm63.14,13.06-21.05,11.24V889.69Zm-42.1-24.3-21-12.15V842Zm21.05,82.31V936.46L323.19,972Zm-21.05-58.92V877.54l21.05,35.54Z" transform="translate(-9.38 -9.76)"/></g><g class="e"><polygon class="f" points="418.67 543.14 587.34 446.57 418.67 350 250 446.57 418.67 543.14"/><polygon class="g" points="419.04 730.31 587.42 633.1 587.42 446.01 419.04 543.22 419.04 730.31"/><polygon class="h" points="419.04 730.31 250.66 633.1 250.66 446.01 419.04 543.22 419.04 730.31"/></g><g class="i"><path class="j" d="M491.57,420.25l21.08-12.08H470.48ZM386.15,432.32l21.08-12.07H365.06Zm84.33-24.15H428.31l21.09,12.08Zm-42.17,48.29V432.32l-21.08,12.07ZM386.15,384l21.08,12.07V372Zm42.16,48.29V408.17l-21.08,12.08ZM344,408.18h42.17L365.06,396.1ZM470.48,384,449.4,396.1h42.16Zm-84.33,24.14h42.16L407.23,396.1ZM428.31,384,449.4,372l-21.08-12.07Zm42.17,48.29L449.4,420.25v24.14ZM449.4,396.1,428.31,384v24.14Z" transform="translate(-9.38 -9.76)"/><path class="j" d="M407.23,468.53l21.09-12.07H386.15ZM301.81,480.6l21.09-12.07H280.73Zm84.34-24.14H344l21.08,12.07ZM344,504.75V480.6L322.9,492.67Zm-42.17-72.43,21.09,12.07V420.25ZM344,480.6V456.46L322.9,468.53Zm-84.34-24.14h42.17l-21.08-12.07Zm126.51-24.14-21.09,12.07h42.17Zm-84.34,24.14H344L322.9,444.39ZM344,432.32l21.08-12.07L344,408.17Zm42.17,48.28-21.09-12.07v24.14Zm-21.09-36.21L344,432.32v24.14Z" transform="translate(-9.38 -9.76)"/><path class="j" d="M491.57,516.82l21.08-12.08H470.48ZM386.15,528.89l21.08-12.07H365.06Zm84.33-24.14H428.32l21.08,12.07ZM428.31,553V528.89L407.23,541ZM386.15,480.6l21.08,12.07V468.53Zm42.16,48.29V504.75l-21.09,12.07ZM344,504.75h42.17l-21.09-12.08Zm126.5-24.15L449.4,492.67h42.16Zm-84.33,24.15h42.17l-21.09-12.08Zm42.17-24.15,21.08-12.07-21.08-12.07Zm42.16,48.29L449.4,516.82V541ZM449.4,492.67,428.32,480.6v24.15Z" transform="translate(-9.38 -9.76)"/><path class="j" d="M575.9,468.53,597,456.46H554.82ZM470.48,480.6l21.09-12.07H449.4Zm84.34-24.14H512.65l21.08,12.07Zm-42.17,48.29V480.6l-21.09,12.07Zm-42.17-72.43,21.09,12.07V420.25Zm42.17,48.28V456.46l-21.08,12.07Zm-84.34-24.14h42.17L449.4,444.39Zm126.51-24.14-21.09,12.07H575.9Zm-84.34,24.14h42.17l-21.08-12.07Zm42.17-24.14,21.08-12.07-21.08-12.08Zm42.17,48.28-21.09-12.07v24.15Zm-21.09-36.21-21.08-12.07v24.14Z" transform="translate(-9.38 -9.76)"/></g><g class="k"><path class="j" d="M575.75,561.46l21-12.15-21-11.23Zm-63.14-10.31,21-12.15-21-11.24Zm63.14-13.07-21-11.23v23.38Zm-63.14,59.84,21-35.54-21,12.15ZM554.7,480.07v23.39l21-35.54Zm-21,82.31,21-35.53-21,12.15Zm-21-58,21,11.23V492.23Zm84.19-1.84-21,12.15,21,11.24Zm-63.14,13.07,21,11.24V503.46Zm42.09-24.3,21-12.15V455.77Zm-21,82.31V550.23l-21,35.54Zm21-58.93V491.31l-21,35.54Z" transform="translate(-9.38 -9.76)"/><path class="j" d="M491.56,610.07l21.05-12.15-21.05-11.24Zm-63.14-10.32,21.05-12.15-21.05-11.23Zm63.14-13.07-21-11.23v23.39Zm-63.14,59.85L449.47,611l-21.05,12.15Zm42.1-117.85v23.39l21-35.54Zm-21,82.31,21-35.54-21,12.15Zm-21.05-58,21.05,11.24V540.83Zm84.19-1.83L491.56,563.3l21.05,11.23Zm-63.14,13.07,21,11.23V552.07Zm42.09-24.31,21.05-12.15V504.38Zm-21,82.31V598.84l-21,35.53Zm21-58.92V539.91l-21,35.54Z" transform="translate(-9.38 -9.76)"/><path class="j" d="M491.56,703.61l21.05-12.15-21.05-11.23ZM428.42,693.3l21.05-12.15-21.05-11.24Zm63.14-13.07-21-11.23v23.38Zm-63.14,59.84,21.05-35.54-21.05,12.15Zm42.1-117.85v23.39l21-35.54Zm-21,82.31,21-35.53-21,12.15Zm-21.05-58,21.05,11.23V634.37Zm84.19-1.84-21.05,12.15,21.05,11.24Zm-63.14,13.07,21,11.24V645.61Zm42.09-24.3,21.05-12.16V597.92Zm-21,82.31V692.38l-21,35.54Zm21-58.93V633.46l-21,35.54Z" transform="translate(-9.38 -9.76)"/><path class="j" d="M575.75,655l21-12.15-21-11.24Zm-63.14-10.32,21-12.15-21-11.23Zm63.14-13.07-21-11.23v23.38Zm-63.14,59.84,21-35.53-21,12.15ZM554.7,573.62V597l21-35.53Zm-21,82.31,21-35.54-21,12.15Zm-21-58,21,11.23V585.77Zm84.19-1.83-21,12.15,21,11.23Zm-63.14,13.06,21,11.24V597Zm42.09-24.3,21-12.15V549.31Zm-21,82.31V643.77l-21,35.54Zm21-58.92V584.85l-21,35.54Z" transform="translate(-9.38 -9.76)"/></g><g class="l"><path class="j" d="M281.09,561.46l-21-12.15,21-11.23Zm63.15-10.31L323.19,539l21.05-11.24Zm-63.15-13.07,21.05-11.23v23.38Zm63.15,59.84-21.05-35.54,21.05,12.15Zm-42.1-117.85v23.39l-21.05-35.54Zm21.05,82.31-21.05-35.53L323.19,539Zm21.05-58-21.05,11.23V492.23Zm-84.19-1.84,21,12.15-21,11.24Zm63.14,13.07-21.05,11.24V503.46Zm-42.1-24.3-21-12.15V455.77Zm21.05,82.31V550.23l21.05,35.54Zm-21.05-58.93V491.31l21.05,35.54Z" transform="translate(-9.38 -9.76)"/><path class="j" d="M365.28,610.07l-21-12.15,21-11.24Zm63.15-10.32L407.38,587.6l21.05-11.23Zm-63.15-13.07,21.05-11.23v23.39Zm63.15,59.85L407.38,611l21.05,12.15Zm-42.1-117.85v23.39l-21.05-35.54ZM407.38,611l-21.05-35.54,21.05,12.15Zm21.05-58-21.05,11.24V540.83Zm-84.19-1.83,21,12.15-21,11.23Zm63.14,13.07-21.05,11.23V552.07Zm-42.1-24.31-21-12.15V504.38Zm21.05,82.31V598.84l21.05,35.53ZM365.28,563.3V539.91l21.05,35.54Z" transform="translate(-9.38 -9.76)"/><path class="j" d="M365.28,703.61l-21-12.15,21-11.23Zm63.15-10.31-21.05-12.15,21.05-11.24Zm-63.15-13.07L386.33,669v23.38Zm63.15,59.84-21.05-35.54,21.05,12.15Zm-42.1-117.85v23.39l-21.05-35.54Zm21.05,82.31L386.33,669l21.05,12.15Zm21.05-58-21.05,11.23V634.37Zm-84.19-1.84,21,12.15-21,11.24Zm63.14,13.07L386.33,669V645.61Zm-42.1-24.3-21-12.16V597.92Zm21.05,82.3V692.38l21.05,35.54Zm-21.05-58.92V633.46L386.33,669Z" transform="translate(-9.38 -9.76)"/><path class="j" d="M281.09,655l-21-12.15,21-11.24Zm63.15-10.32-21.05-12.15,21.05-11.23Zm-63.15-13.07,21.05-11.23v23.38Zm63.15,59.84-21.05-35.53,21.05,12.15Zm-42.1-117.84V597l-21.05-35.53Zm21.05,82.31-21.05-35.54,21.05,12.15Zm21.05-58-21.05,11.23V585.77Zm-84.19-1.83,21,12.15-21,11.23Zm63.14,13.06-21.05,11.24V597Zm-42.1-24.3-21-12.15V549.31Zm21.05,82.31V643.77l21.05,35.54Zm-21.05-58.92V584.85l21.05,35.54Z" transform="translate(-9.38 -9.76)"/></g><g class="e"><polygon class="f" points="418.67 250.14 587.34 153.57 418.67 57 250 153.57 418.67 250.14"/><polygon class="g" points="419.04 437.31 587.42 340.1 587.42 153.01 419.04 250.22 419.04 437.31"/><polygon class="h" points="419.04 437.31 250.66 340.1 250.66 153.01 419.04 250.22 419.04 437.31"/></g><g class="ab"><path class="j" d="M491.57,127.25l21.08-12.08H470.48ZM386.15,139.32l21.08-12.07H365.06Zm84.33-24.15H428.31l21.09,12.08Zm-42.17,48.29V139.32l-21.08,12.07ZM386.15,91l21.08,12.07V79Zm42.16,48.29V115.17l-21.08,12.08ZM344,115.18h42.17L365.06,103.1ZM470.48,91,449.4,103.1h42.16Zm-84.33,24.14h42.16L407.23,103.1ZM428.31,91,449.4,79,428.32,66.89Zm42.17,48.29L449.4,127.25v24.14ZM449.4,103.1,428.31,91v24.14Z" transform="translate(-9.38 -9.76)"/><path class="j" d="M407.23,175.53l21.09-12.07H386.15ZM301.81,187.6l21.09-12.07H280.73Zm84.34-24.14H344l21.08,12.07ZM344,211.75V187.6L322.9,199.67Zm-42.17-72.43,21.09,12.07V127.25ZM344,187.6V163.46L322.9,175.53Zm-84.34-24.14h42.17l-21.08-12.07Zm126.51-24.14-21.09,12.07h42.17Zm-84.34,24.14H344L322.9,151.39ZM344,139.32l21.08-12.07L344,115.17Zm42.17,48.28-21.09-12.07v24.14Zm-21.09-36.21L344,139.32v24.14Z" transform="translate(-9.38 -9.76)"/><path class="j" d="M491.57,223.82l21.08-12.08H470.48ZM386.15,235.89l21.08-12.07H365.06Zm84.33-24.14H428.32l21.08,12.07ZM428.31,260V235.89L407.23,248ZM386.15,187.6l21.08,12.07V175.53Zm42.16,48.29V211.75l-21.09,12.07ZM344,211.75h42.17l-21.09-12.08Zm126.5-24.15L449.4,199.67h42.16Zm-84.33,24.15h42.17l-21.09-12.08Zm42.17-24.15,21.08-12.07-21.08-12.07Zm42.16,48.29L449.4,223.82V248ZM449.4,199.67,428.32,187.6v24.15Z" transform="translate(-9.38 -9.76)"/><path class="j" d="M575.9,175.53,597,163.46H554.82ZM470.48,187.6l21.09-12.07H449.4Zm84.34-24.14H512.65l21.08,12.07Zm-42.17,48.29V187.6l-21.09,12.07Zm-42.17-72.43,21.09,12.07V127.25Zm42.17,48.28V163.46l-21.08,12.07Zm-84.34-24.14h42.17L449.4,151.39Zm126.51-24.14-21.09,12.07H575.9Zm-84.34,24.14h42.17l-21.08-12.07Zm42.17-24.14,21.08-12.07-21.08-12.08Zm42.17,48.28-21.09-12.07v24.15Zm-21.09-36.21-21.08-12.07v24.14Z" transform="translate(-9.38 -9.76)"/></g><g class="ac"><path class="j" d="M575.75,268.46l21-12.15-21-11.23Zm-63.14-10.31,21-12.15-21-11.24Zm63.14-13.07-21-11.23v23.38Zm-63.14,59.84,21-35.54-21,12.15ZM554.7,187.07v23.39l21-35.54Zm-21,82.31,21-35.53-21,12.15Zm-21-58,21,11.23V199.23Zm84.19-1.84-21,12.15,21,11.24Zm-63.14,13.07,21,11.24V210.46Zm42.09-24.3,21-12.15V162.77Zm-21,82.31V257.23l-21,35.54Zm21-58.93V198.31l-21,35.54Z" transform="translate(-9.38 -9.76)"/><path class="j" d="M491.56,317.07l21.05-12.15-21.05-11.24Zm-63.14-10.32,21.05-12.15-21.05-11.23Zm63.14-13.07-21-11.23v23.39Zm-63.14,59.85L449.47,318l-21.05,12.15Zm42.1-117.85v23.39l21-35.54Zm-21,82.31,21-35.54-21,12.15Zm-21.05-58,21.05,11.24V247.83Zm84.19-1.83L491.56,270.3l21.05,11.23Zm-63.14,13.07,21,11.23V259.07Zm42.09-24.31,21.05-12.15V211.38Zm-21,82.31V305.84l-21,35.53Zm21-58.92V246.91l-21,35.54Z" transform="translate(-9.38 -9.76)"/><path class="j" d="M491.56,410.61l21.05-12.15-21.05-11.23ZM428.42,400.3l21.05-12.15-21.05-11.24Zm63.14-13.07-21-11.23v23.38Zm-63.14,59.84,21.05-35.54-21.05,12.15Zm42.1-117.85v23.39l21-35.54Zm-21,82.31,21-35.53-21,12.15Zm-21.05-58,21.05,11.23V341.37Zm84.19-1.84-21.05,12.15,21.05,11.24Zm-63.14,13.07,21,11.24V352.61Zm42.09-24.3,21.05-12.16V304.92Zm-21,82.31V399.38l-21,35.54Zm21-58.93V340.46l-21,35.54Z" transform="translate(-9.38 -9.76)"/><path class="j" d="M575.75,362l21-12.15-21-11.24Zm-63.14-10.32,21-12.15-21-11.23Zm63.14-13.07-21-11.23v23.38Zm-63.14,59.84,21-35.53-21,12.15ZM554.7,280.62V304l21-35.53Zm-21,82.31,21-35.54-21,12.15Zm-21-58,21,11.23V292.77Zm84.19-1.83-21,12.15,21,11.23Zm-63.14,13.06,21,11.24V304Zm42.09-24.3,21-12.15V256.31Zm-21,82.31V350.77l-21,35.54Zm21-58.92V291.85l-21,35.54Z" transform="translate(-9.38 -9.76)"/></g><g class="ad"><path class="j" d="M281.09,268.46l-21-12.15,21-11.23Zm63.15-10.31L323.19,246l21.05-11.24Zm-63.15-13.07,21.05-11.23v23.38Zm63.15,59.84-21.05-35.54,21.05,12.15Zm-42.1-117.85v23.39l-21.05-35.54Zm21.05,82.31-21.05-35.53L323.19,246Zm21.05-58-21.05,11.23V199.23Zm-84.19-1.84,21,12.15-21,11.24Zm63.14,13.07-21.05,11.24V210.46Zm-42.1-24.3-21-12.15V162.77Zm21.05,82.31V257.23l21.05,35.54Zm-21.05-58.93V198.31l21.05,35.54Z" transform="translate(-9.38 -9.76)"/><path class="j" d="M365.28,317.07l-21-12.15,21-11.24Zm63.15-10.32L407.38,294.6l21.05-11.23Zm-63.15-13.07,21.05-11.23v23.39Zm63.15,59.85L407.38,318l21.05,12.15Zm-42.1-117.85v23.39l-21.05-35.54ZM407.38,318l-21.05-35.54,21.05,12.15Zm21.05-58-21.05,11.24V247.83Zm-84.19-1.83,21,12.15-21,11.23Zm63.14,13.07-21.05,11.23V259.07Zm-42.1-24.31-21-12.15V211.38Zm21.05,82.31V305.84l21.05,35.53ZM365.28,270.3V246.91l21.05,35.54Z" transform="translate(-9.38 -9.76)"/><path class="j" d="M365.28,410.61l-21-12.15,21-11.23Zm63.15-10.31-21.05-12.15,21.05-11.24Zm-63.15-13.07L386.33,376v23.38Zm63.15,59.84-21.05-35.54,21.05,12.15Zm-42.1-117.85v23.39l-21.05-35.54Zm21.05,82.31L386.33,376l21.05,12.15Zm21.05-58-21.05,11.23V341.37Zm-84.19-1.84,21,12.15-21,11.24Zm63.14,13.07L386.33,376V352.61Zm-42.1-24.3-21-12.16V304.92Zm21.05,82.3V399.38l21.05,35.54Zm-21.05-58.92V340.46L386.33,376Z" transform="translate(-9.38 -9.76)"/><path class="j" d="M281.09,362l-21-12.15,21-11.24Zm63.15-10.32-21.05-12.15,21.05-11.23Zm-63.15-13.07,21.05-11.23v23.38Zm63.15,59.84-21.05-35.53,21.05,12.15Zm-42.1-117.84V304l-21.05-35.53Zm21.05,82.31-21.05-35.54,21.05,12.15Zm21.05-58-21.05,11.23V292.77Zm-84.19-1.83,21,12.15-21,11.23Zm63.14,13.06-21.05,11.24V304Zm-42.1-24.3-21-12.15V256.31Zm21.05,82.31V350.77l21.05,35.54Zm-21.05-58.92V291.85l21.05,35.54Z" transform="translate(-9.38 -9.76)"/></g></svg>