<svg xmlns="http://www.w3.org/2000/svg" xmlns:xlink="http://www.w3.org/1999/xlink" viewBox="0 0 612 792"><defs><style>.a,.d,.e{fill:none;}.b{fill:#333;}.c{clip-path:url(#a);}.d{stroke:#424142;}.d,.e{stroke-width:0.6px;}.e{stroke:#c8c5c8;}</style><clipPath id="a" transform="translate(0 0)"><rect class="a" width="612" height="792"/></clipPath></defs><title>Black</title><rect class="b" width="612" height="792"/><g class="c"><line class="d" y1="77.65" x2="612" y2="77.65"/><line class="d" y1="98.91" x2="612" y2="98.91"/><line class="e" y1="120.17" x2="612" y2="120.17"/><line class="d" y1="141.43" x2="612" y2="141.43"/><line class="d" y1="162.69" x2="612" y2="162.69"/><line class="d" y1="183.95" x2="612" y2="183.95"/><line class="d" y1="205.21" x2="612" y2="205.21"/><line class="d" y1="226.47" x2="612" y2="226.47"/><line class="d" y1="247.73" x2="612" y2="247.73"/><line class="d" y1="268.99" x2="612" y2="268.99"/><line class="d" y1="290.25" x2="612" y2="290.25"/><line class="d" y1="311.51" x2="612" y2="311.51"/><line class="d" y1="332.77" x2="612" y2="332.77"/><line class="d" y1="354.03" x2="612" y2="354.03"/><line class="d" y1="375.29" x2="612" y2="375.29"/><line class="d" y1="396.55" x2="612" y2="396.55"/><line class="d" y1="417.81" x2="612" y2="417.81"/><line class="d" y1="439.07" x2="612" y2="439.07"/><line class="d" y1="460.33" x2="612" y2="460.33"/><line class="d" y1="481.59" x2="612" y2="481.59"/><line class="d" y1="502.85" x2="612" y2="502.85"/><line class="d" y1="524.11" x2="612" y2="524.11"/><line class="d" y1="545.37" x2="612" y2="545.37"/><line class="d" y1="566.63" x2="612" y2="566.63"/><line class="d" y1="587.89" x2="612" y2="587.89"/><line class="d" y1="609.15" x2="612" y2="609.15"/><line class="e" y1="630.41" x2="612" y2="630.41"/><line class="d" y1="651.67" x2="612" y2="651.67"/><line class="d" y1="672.93" x2="612" y2="672.93"/><line class="d" y1="694.19" x2="612" y2="694.19"/><line class="d" y1="715.45" x2="612" y2="715.45"/><line class="d" y1="715.55" x2="612" y2="715.55"/><line class="d" y1="736.81" x2="612" y2="736.81"/><line class="d" y1="758.06" x2="612" y2="758.06"/><line class="d" y1="779.32" x2="612" y2="779.32"/></g><line class="e" x1="184.55" y1="121.46" x2="184.55" y2="630.99"/></svg>