<svg xmlns="http://www.w3.org/2000/svg" xmlns:xlink="http://www.w3.org/1999/xlink" viewBox="0 0 792 612"><defs><style>.a,.d,.e{fill:none;}.b{fill:#333;}.c{clip-path:url(#a);}.d{stroke:#424142;}.d,.e{stroke-width:0.6px;}.e{stroke:#c8c5c8;}</style><clipPath id="a" transform="translate(0)"><rect class="a" width="792" height="612"/></clipPath></defs><title>Black</title><rect class="b" width="792" height="612"/><g class="c"><line class="d" y1="20.96" x2="792" y2="20.96"/><line class="d" y1="42.22" x2="792" y2="42.22"/><line class="d" y1="63.48" x2="792" y2="63.48"/><line class="d" y1="84.74" x2="792" y2="84.74"/><line class="d" y1="106" x2="792" y2="106"/><line class="d" y1="127.26" x2="792" y2="127.26"/><line class="d" y1="148.52" x2="792" y2="148.52"/><line class="d" y1="169.78" x2="792" y2="169.78"/><line class="d" y1="191.04" x2="792" y2="191.04"/><line class="d" y1="212.3" x2="792" y2="212.3"/><line class="d" y1="233.56" x2="792" y2="233.56"/><line class="d" y1="254.82" x2="792" y2="254.82"/><line class="d" y1="276.08" x2="792" y2="276.08"/><line class="d" y1="297.34" x2="792" y2="297.34"/><line class="d" y1="318.6" x2="792" y2="318.6"/><line class="d" y1="339.86" x2="792" y2="339.86"/><line class="d" y1="361.12" x2="792" y2="361.12"/><line class="d" y1="382.38" x2="792" y2="382.38"/><line class="d" y1="403.64" x2="792" y2="403.64"/><line class="d" y1="424.9" x2="792" y2="424.9"/><line class="d" y1="446.16" x2="792" y2="446.16"/><line class="d" y1="467.42" x2="792" y2="467.42"/><line class="d" y1="488.68" x2="792" y2="488.68"/><line class="d" y1="509.94" x2="792" y2="509.94"/><line class="d" y1="531.2" x2="792" y2="531.2"/><line class="d" y1="552.46" x2="792" y2="552.46"/><line class="d" y1="573.72" x2="792" y2="573.72"/><line class="d" y1="594.98" x2="792" y2="594.98"/><path class="e" d="M792,84.74" transform="translate(0)"/><path class="e" d="M0,84.74" transform="translate(0)"/></g><line class="e" x1="239.54" x2="239.54" y2="612"/><g class="c"><path class="e" d="M792,531.2" transform="translate(0)"/><path class="e" d="M0,531.2" transform="translate(0)"/></g></svg>