<svg xmlns="http://www.w3.org/2000/svg" xmlns:xlink="http://www.w3.org/1999/xlink" viewBox="0 0 868.87 1079"><defs><style>.a{fill:none;}.b{clip-path:url(#a);}.c{fill:#e5e5e5;}.d{fill:#ff8052;}.e{clip-path:url(#b);}.f{fill:#82baa8;}.g{fill:#bdd13b;}.h{fill:#c2e3d9;}.i{fill:#ffb297;}</style><clipPath id="a"><rect class="a" x="0.76" y="-0.2" width="868" height="1080"/></clipPath><clipPath id="b"><path class="a" d="M.76.05V1079.8h807.5a30.08,30.08,0,0,0,30-30V30.05a30.09,30.09,0,0,0-30-30Z"/></clipPath></defs><title>03 Flowers</title><g class="b"><path class="c" d="M838.76,1079.8h-64V.05h64a30.09,30.09,0,0,1,30,30V1049.81a30.08,30.08,0,0,1-30,30"/><path class="d" d="M808.26,1079.8H.76V.05h807.5a30.09,30.09,0,0,1,30,30V1049.81a30.08,30.08,0,0,1-30,30"/></g><g class="e"><path class="f" d="M748.21,794.08A36.37,36.37,0,1,1,799,802.34a36.31,36.31,0,0,1-50.82-8.26"/><path class="g" d="M53.1,46.75A36.37,36.37,0,1,1,103.92,55,36.31,36.31,0,0,1,53.1,46.75"/><path class="h" d="M405.43,1082.27a19.82,19.82,0,1,1,27.66,4.45,19.84,19.84,0,0,1-27.66-4.45"/><path class="f" d="M405.43,33.16a19.82,19.82,0,1,1,27.66,4.46,19.84,19.84,0,0,1-27.66-4.46"/><path class="h" d="M347.32,304.67c0,109.17-44.73,197.69-44.73,197.69s-44.74-88.52-44.74-197.69S277.88,107,302.59,107s44.73,88.5,44.73,197.66"/><path class="h" d="M133.29,356.27c77.19,77.2,108.12,171.4,108.12,171.4S147.2,496.73,70,419.55-55.6,265.61-38.13,248.15s94.22,31,171.42,108.12"/><path class="h" d="M18.43,544.11c109.16,0,197.65,44.73,197.65,44.73s-88.49,44.73-197.65,44.73-197.67-20-197.67-44.73,88.5-44.73,197.67-44.73"/><path class="h" d="M70,758.14C147.2,681,241.41,650,241.41,650s-30.93,94.2-108.12,171.41S-20.65,947-38.13,929.5-7.19,835.33,70,758.14"/><path class="h" d="M257.85,873c0-109.14,44.74-197.64,44.74-197.64s44.73,88.5,44.73,197.64-20,197.67-44.73,197.67S257.85,982.15,257.85,873"/><path class="h" d="M471.88,821.42C394.7,744.21,363.76,650,363.76,650S458,681,535.16,758.14,660.75,912.05,643.29,929.5s-94.2-30.91-171.41-108.08"/><path class="h" d="M586.75,633.57c-109.17,0-197.66-44.73-197.66-44.73s88.49-44.73,197.66-44.73,197.67,20,197.67,44.73-88.51,44.73-197.67,44.73"/><path class="h" d="M535.16,419.55C458,496.73,363.76,527.67,363.76,527.67s30.94-94.2,108.12-171.4S625.81,230.68,643.29,248.15s-30.95,94.2-108.13,171.4"/><path class="f" d="M253.36,387.41c30.37,72.76,25.18,144.19,25.18,144.19s-54.45-46.53-84.82-119.31S152.08,275,168.55,268.08,223,314.64,253.36,387.41"/><path class="f" d="M125.06,481.34c72.91,30,119.75,84.15,119.75,84.15s-71.4,5.6-144.32-24.38S-26,473.46-19.27,457s71.39-5.58,144.33,24.39"/><path class="f" d="M100.74,638.49C173.52,608.12,245,613.32,245,613.32s-46.55,54.44-119.33,84.81-137.3,41.65-144.19,25.18S28,668.85,100.74,638.49"/><path class="f" d="M194.67,766.81c30-72.93,84.18-119.78,84.18-119.78s5.57,71.4-24.39,144.35-67.67,126.47-84.18,119.73-5.58-71.36,24.39-144.3"/><path class="f" d="M351.84,791.1c-30.38-72.74-25.17-144.18-25.17-144.18s54.42,46.54,84.8,119.3,41.63,137.3,25.18,144.16S382.2,863.85,351.84,791.1"/><path class="f" d="M480.15,697.18C407.21,667.19,360.38,613,360.38,613s71.4-5.57,144.32,24.41,126.54,67.65,119.75,84.15-71.37,5.61-144.3-24.37"/><path class="f" d="M504.44,540c-72.77,30.36-144.18,25.17-144.18,25.17s46.53-54.45,119.3-84.81,137.3-41.64,144.18-25.17S577.22,509.66,504.44,540"/><path class="f" d="M410.52,411.71c-30,72.92-84.18,119.77-84.18,119.77s-5.59-71.41,24.4-144.33,67.65-126.54,84.17-119.74,5.58,71.37-24.39,144.3"/><path class="d" d="M388.69,589.26a86.1,86.1,0,1,1-86.1-86.07,86.09,86.09,0,0,1,86.1,86.07"/></g><rect class="i" x="734.01" y="-0.2" width="24" height="1080"/></svg>