<svg xmlns="http://www.w3.org/2000/svg" xmlns:xlink="http://www.w3.org/1999/xlink" viewBox="0 0 868 1080"><defs><style>.a{fill:none;}.b{clip-path:url(#a);}.c{fill:#e5e5e5;}.d{fill:#ff7070;}.e{fill:#ffb8b8;}.f{fill:#bdd13b;}.g{fill:#d9d121;}.h{fill:#fac2bf;}.i{fill:#ffdbff;}.j{fill:#6dcff6;}.k{fill:#c2e3d9;}</style><clipPath id="a" transform="translate(-10.26 -9.7)"><rect class="a" x="10.26" y="9.7" width="868" height="1080"/></clipPath></defs><title>08 Flowers</title><g class="b"><path class="c" d="M848.26,1089.7h-64V10h64a30.08,30.08,0,0,1,30,30V1059.7a30.09,30.09,0,0,1-30,30" transform="translate(-10.26 -9.7)"/><path class="d" d="M817.76,1089.7H10.26V10h807.5a30.08,30.08,0,0,1,30,30V1059.7a30.09,30.09,0,0,1-30,30" transform="translate(-10.26 -9.7)"/></g><rect class="e" x="733.25" width="24" height="1080"/><g class="b"><path class="f" d="M526.66,621.3c-9,7.76-19.31,17.05-30.15,27.2s-22.17,21.19-33.45,32.27c-22.36,22.41-43.92,45.6-59.47,63.6-9.34,10.71-16.46,19.51-20.71,24.93-.14-20.44-.34-40.6-.74-60-.56-32.61-1.42-63-2.44-89.13s-2.32-47.82-3-63c-.85-15.22-1.55-23.91-1.55-23.91s-.69,8.69-1.54,23.91c-.68,15.21-2.11,37-3,63s-1.88,56.52-2.44,89.13c-.39,18.6-.58,37.95-.73,57.57-4.35-5.47-10.75-13.31-18.81-22.54-15.55-18-37.13-41.19-59.49-63.6-11.29-11.08-22.55-22.2-33.46-32.27s-21.13-19.44-30.14-27.2c-17.93-15.65-30.73-25.22-30.73-25.22s9.57,12.8,25.21,30.73c7.77,9,17,19.33,27.19,30.16s21.21,22.15,32.29,33.45c22.41,22.35,45.58,43.94,63.59,59.49,10.34,9,18.88,16,24.34,20.24q-.14,20.55-.22,41.34c.08,17.38.18,34.77.27,51.89s.47,34,.67,50.25c.55,32.62,1.41,63,2.44,89.13s2.33,47.81,3,63,1.55,23.91,1.55,23.91.71-8.7,1.55-23.91c.68-15.22,2.13-37,3-63s1.89-56.51,2.44-89.13c.21-16.29.67-33.14.68-50.25s.18-34.51.26-51.89c-.06-13.33-.12-26.64-.21-39.85,5.24-4.08,14.63-11.61,26.24-21.73,18-15.55,41.16-37.14,63.57-59.49,11.09-11.3,22.2-22.55,32.28-33.45s19.43-21.14,27.2-30.16c15.65-17.93,25.22-30.73,25.22-30.73s-12.82,9.57-30.74,25.22" transform="translate(-10.26 -9.7)"/><path class="c" d="M375.33,508.48A43.1,43.1,0,0,1,417,541.78c12.7-12.14,25.59-28.65,36.77-48.26,27.88-48.84,34.35-97.61,14.53-108.91-13-7.44-34.21,3.22-55.05,25.19-7.11-29.48-20.12-49.29-35.13-49.36-15.62-.08-29.32,21.19-36.49,52.63-21.73-24.63-44.37-37.05-58.17-29.35-20,11.13-13.9,60,13.5,109,11,19.69,23.72,36.37,36.33,48.63a43.14,43.14,0,0,1,42-32.92" transform="translate(-10.26 -9.7)"/><path class="g" d="M374.74,563.7a16.94,16.94,0,0,0,2.45.32,17.36,17.36,0,0,0,5.4-.93c10.2-2.13,22.24-9.7,34.42-21.31a43,43,0,0,0-83.71-.38c15.09,14.67,30,23,41.44,22.3" transform="translate(-10.26 -9.7)"/><path class="c" d="M183,586.72a43.08,43.08,0,0,1,53-5.92c.43-17.58-2.14-38.38-8.09-60.15-14.83-54.24-44.73-93.31-66.75-87.27-14.47,3.95-21.9,26.45-21.13,56.74-25.88-15.81-49.08-20.62-59.74-10.06-11.09,11-5.74,35.72,11.42,63C58.9,541,34.12,548.27,29.8,563.46c-6.23,22,32.56,52.24,86.67,67.57,21.67,6.16,42.47,8.93,60.07,8.69a43.14,43.14,0,0,1,6.44-53" transform="translate(-10.26 -9.7)"/><path class="g" d="M221.6,626.17a15.1,15.1,0,0,0,2-1.49,17.77,17.77,0,0,0,3.16-4.48c5.71-8.71,8.87-22.57,9.26-39.4a43,43,0,0,0-59.44,58.92c21-.29,37.45-4.93,45.06-13.55" transform="translate(-10.26 -9.7)"/><path class="c" d="M565.55,598.14a43.09,43.09,0,0,1,5.93,53c17.58.44,38.38-2.14,60.13-8.1,54.25-14.83,93.32-44.72,87.28-66.74-3.95-14.48-26.44-21.9-56.73-21.13,15.79-25.88,20.6-49.08,10.06-59.74-11-11.1-35.72-5.74-63,11.42,2-32.79-5.2-57.58-20.38-61.9-22-6.23-52.25,32.57-67.58,86.66-6.15,21.69-8.94,42.49-8.69,60.08a43.17,43.17,0,0,1,53,6.44" transform="translate(-10.26 -9.7)"/><path class="g" d="M526.1,636.78a15.7,15.7,0,0,0,1.49,2,17.13,17.13,0,0,0,4.49,3.15c8.69,5.73,22.56,8.86,39.4,9.27a43,43,0,0,0-58.93-59.45c.29,21,4.93,37.45,13.55,45.08" transform="translate(-10.26 -9.7)"/><path class="d" d="M497.3,637.45a13.8,13.8,0,1,1,19.28,3.12,13.79,13.79,0,0,1-19.28-3.12" transform="translate(-10.26 -9.7)"/><path class="h" d="M539,125.4a25.38,25.38,0,1,1,35.47,5.76A25.35,25.35,0,0,1,539,125.4" transform="translate(-10.26 -9.7)"/><path class="i" d="M172.26,231.74c-.29-3.78-9-4.87-19.07-2.45-8.35,2-15.48,3.52-17.68,3.79,2.19.12,9.28,1.09,17.83,2.49,10.16,1.71,19,0,18.92-3.83" transform="translate(-10.26 -9.7)"/><path class="i" d="M134.84,233.09h0Zm.67,0a2,2,0,0,0-.67,0h0l0,0,0,0h0a2.14,2.14,0,0,0,.33-.58,2.4,2.4,0,0,0-.33.54,3.07,3.07,0,0,0-.1-.6,5.46,5.46,0,0,0,.06.58l0,.06s-.19-.23-.5-.48c.26.31.45.51.49.49s0,0-.05,0l0,0A2.93,2.93,0,0,0,134,233a4,4,0,0,0,.77.11h0a3,3,0,0,0-.65.4,3.79,3.79,0,0,0,.66-.37h0c-.05,0-.15.28-.28.7a2.14,2.14,0,0,0,.28-.68,3.18,3.18,0,0,0,.19.62,2.38,2.38,0,0,0-.17-.62,3.08,3.08,0,0,0,.53.37,2,2,0,0,0-.52-.39,2.39,2.39,0,0,0,.65,0" transform="translate(-10.26 -9.7)"/><path class="i" d="M148,246.46c7.1,7.64,14.92,11.57,17.24,8.54s-4.22-9.44-13.6-13.68c-7.94-3.6-14.35-6.69-16.22-7.81,1.67,1.45,6.77,6.69,12.58,13" transform="translate(-10.26 -9.7)"/><path class="i" d="M145.34,269c3.68-1.06,2.53-9.86-2.32-19.11-4-7.58-7.18-14.07-8-16.14.45,2.15,1.22,9.21,2,17.88.88,10.26,4.71,18.58,8.34,17.37" transform="translate(-10.26 -9.7)"/><path class="i" d="M121.06,268c3.6,1.24,8.1-6.34,9.91-16.53,1.49-8.4,2.95-15.48,3.58-17.63-1,2-4.77,8.11-9.4,15.26-5.63,8.69-7.58,17.4-4.09,18.9" transform="translate(-10.26 -9.7)"/><path class="i" d="M102.62,252.18c1.81,3.39,10.35-.1,18-7,6.38-5.78,11.66-10.34,13.54-11.68-2.12,1-8.81,3.53-16.76,6.28-9.87,3.44-16.71,9.08-14.75,12.39" transform="translate(-10.26 -9.7)"/><path class="i" d="M97.66,228.4c-.46,3.83,8.07,6.28,18.48,5.5,8.4-.63,15.56-1,17.88-.9-2.24-.49-8.91-2.56-17.07-5.31-9.71-3.3-19-3.11-19.29.71" transform="translate(-10.26 -9.7)"/><path class="i" d="M108.32,206.57c-2.59,2.77,2.64,10,11.24,15.69,7.17,4.78,13.08,8.93,14.76,10.33-1.4-1.68-5.59-7.64-10.32-14.79-5.74-8.65-12.87-13.82-15.68-11.23" transform="translate(-10.26 -9.7)"/><path class="i" d="M135.66,214.42c.76-10.39-1.69-18.95-5.47-18.45-3.81.33-4,9.51-.76,19.26,2.76,8.27,4.86,15.05,5.31,17.2-.07-2.22.28-9.46.92-18" transform="translate(-10.26 -9.7)"/><path class="i" d="M154,200.92c-3.33-1.86-8.95,4.86-12.42,14.7-2.83,8-5.44,14.87-6.39,16.87,1.28-1.77,5.93-7.16,11.76-13.61,6.93-7.62,10.33-16.07,7-18" transform="translate(-10.26 -9.7)"/><path class="i" d="M136.14,232.63c-.43.2-.73.35-.67.38s.29-.12.67-.38" transform="translate(-10.26 -9.7)"/><path class="i" d="M136.14,232.63c2-.92,8.85-3.42,17-6.13,9.81-3.3,16.64-8.83,14.87-12.2s-10.37-.05-18.09,6.79c-6.48,5.71-11.94,10.28-13.74,11.54" transform="translate(-10.26 -9.7)"/><path class="j" d="M596.9,879.73c-.28-3.78-9-4.87-19.06-2.45-8.35,2-15.49,3.53-17.68,3.8,2.19.12,9.27,1.09,17.83,2.49,10.16,1.71,19,0,18.91-3.84" transform="translate(-10.26 -9.7)"/><path class="j" d="M559.49,881.09h0Zm.67,0a2,2,0,0,0-.67,0h0l0,0,0,0v0a2,2,0,0,0,.33-.58,2,2,0,0,0-.33.55,3.14,3.14,0,0,0-.1-.61,5.43,5.43,0,0,0,.06.59l0,0a2.73,2.73,0,0,0-.5-.48c.26.31.44.52.49.5l-.05,0,0,0a3,3,0,0,0-.77-.09,3.26,3.26,0,0,0,.77.11h0a4.29,4.29,0,0,0-.64.41,4,4,0,0,0,.66-.38h0s0,0,0,0h0c-.05,0-.14.28-.28.71a2.23,2.23,0,0,0,.29-.68,3.18,3.18,0,0,0,.19.62,2.5,2.5,0,0,0-.17-.63,3,3,0,0,0,.53.38,2.56,2.56,0,0,0-.52-.4,1.9,1.9,0,0,0,.65,0" transform="translate(-10.26 -9.7)"/><path class="j" d="M572.61,894.45c7.1,7.65,14.92,11.57,17.24,8.54s-4.22-9.43-13.61-13.67c-7.93-3.61-14.34-6.7-16.21-7.82,1.67,1.45,6.77,6.69,12.58,13" transform="translate(-10.26 -9.7)"/><path class="j" d="M570,917c3.68-1.06,2.53-9.86-2.32-19.11-4-7.59-7.19-14.08-8-16.14.44,2.15,1.21,9.2,2,17.87.88,10.26,4.72,18.59,8.35,17.38" transform="translate(-10.26 -9.7)"/><path class="j" d="M545.71,916c3.6,1.25,8.09-6.33,9.91-16.52,1.49-8.4,2.94-15.48,3.57-17.63-1,2-4.76,8.1-9.39,15.26-5.64,8.69-7.58,17.4-4.09,18.89" transform="translate(-10.26 -9.7)"/><path class="j" d="M527.27,900.18c1.81,3.38,10.35-.1,18-7,6.38-5.79,11.67-10.34,13.55-11.69-2.12,1-8.81,3.53-16.76,6.29-9.88,3.43-16.71,9.07-14.75,12.39" transform="translate(-10.26 -9.7)"/><path class="j" d="M522.31,876.39c-.46,3.84,8.07,6.28,18.48,5.51,8.4-.63,15.56-1,17.88-.91-2.24-.49-8.91-2.55-17.07-5.31-9.72-3.29-19-3.1-19.29.71" transform="translate(-10.26 -9.7)"/><path class="j" d="M533,854.57c-2.59,2.77,2.64,10,11.24,15.69,7.17,4.78,13.08,8.93,14.76,10.32-1.4-1.68-5.59-7.63-10.32-14.79-5.74-8.64-12.87-13.81-15.68-11.22" transform="translate(-10.26 -9.7)"/><path class="j" d="M560.3,862.42c.77-10.39-1.68-19-5.46-18.45-3.81.32-4,9.51-.76,19.25,2.76,8.28,4.86,15,5.31,17.2-.07-2.22.28-9.45.91-18" transform="translate(-10.26 -9.7)"/><path class="j" d="M578.63,848.92c-3.33-1.87-9,4.85-12.43,14.69-2.82,8-5.43,14.88-6.38,16.87,1.28-1.77,5.93-7.15,11.76-13.6,6.93-7.63,10.33-16.08,7-18" transform="translate(-10.26 -9.7)"/><path class="j" d="M560.79,880.63c-.43.19-.73.35-.68.38s.3-.13.68-.38" transform="translate(-10.26 -9.7)"/><path class="j" d="M560.79,880.63c2-.92,8.84-3.42,17-6.13,9.81-3.3,16.63-8.84,14.87-12.2s-10.37,0-18.1,6.78c-6.48,5.71-11.93,10.29-13.73,11.55" transform="translate(-10.26 -9.7)"/><path class="k" d="M193.28,978c-.56-7.33-17.45-9.44-37-4.76-16.17,3.9-30,6.83-34.26,7.36,4.24.22,18,2.12,34.57,4.82,19.68,3.32,36.92-.05,36.66-7.42" transform="translate(-10.26 -9.7)"/><path class="k" d="M146.19,1006.55c13.75,14.81,28.91,22.43,33.41,16.55s-8.19-18.29-26.37-26.5c-15.38-7-27.8-13-31.44-15.16,3.24,2.81,13.14,13,24.4,25.11" transform="translate(-10.26 -9.7)"/><path class="k" d="M141.1,1050.26c7.14-2,4.91-19.12-4.5-37-7.73-14.7-13.92-27.27-15.5-31.29.86,4.18,2.36,17.85,3.83,34.66,1.7,19.88,9.15,36,16.17,33.67" transform="translate(-10.26 -9.7)"/><path class="k" d="M94,1048.26c7,2.41,15.69-12.3,19.21-32,2.88-16.29,5.71-30,6.93-34.17-2,3.85-9.23,15.71-18.21,29.58-10.92,16.84-14.7,33.72-7.93,36.63" transform="translate(-10.26 -9.7)"/><path class="k" d="M58.29,1017.64c3.51,6.56,20.08-.2,34.83-13.55,12.37-11.22,22.61-20,26.25-22.64-4.1,1.94-17.06,6.84-32.48,12.17-19.14,6.66-32.39,17.6-28.6,24" transform="translate(-10.26 -9.7)"/><path class="k" d="M48.69,971.54C47.8,979,64.32,983.71,84.5,982.21c16.29-1.23,30.17-1.92,34.66-1.75-4.34-1-17.26-5-33.08-10.3-18.83-6.39-36.74-6-37.39,1.38" transform="translate(-10.26 -9.7)"/><path class="k" d="M69.34,929.23c-5,5.36,5.13,19.35,21.79,30.42,13.91,9.26,25.36,17.31,28.61,20-2.71-3.26-10.83-14.8-20-28.67-11.11-16.76-24.94-26.78-30.39-21.76" transform="translate(-10.26 -9.7)"/><path class="k" d="M122.33,944.45c1.49-20.15-3.27-36.74-10.6-35.77-7.38.64-7.8,18.43-1.46,37.34,5.35,16,9.42,29.16,10.3,33.33-.15-4.31.52-18.32,1.76-34.9" transform="translate(-10.26 -9.7)"/><path class="k" d="M157.84,918.28c-6.44-3.62-17.33,9.41-24.07,28.5-5.47,15.56-10.53,28.82-12.38,32.68,2.49-3.42,11.5-13.87,22.8-26.37,13.42-14.78,20-31.15,13.65-34.81" transform="translate(-10.26 -9.7)"/><path class="k" d="M123.27,979.75c3.91-1.79,17.14-6.62,32.88-11.89,19-6.39,32.23-17.12,28.82-23.64-3.7-6.4-20.1-.1-35.07,13.14-12.56,11.08-23.14,19.94-26.63,22.39" transform="translate(-10.26 -9.7)"/></g></svg>