<svg xmlns="http://www.w3.org/2000/svg" xmlns:xlink="http://www.w3.org/1999/xlink" viewBox="0 0 868.84 1079.96"><defs><style>.a{fill:none;}.b{fill:#243f76;}.c{clip-path:url(#a);}.d{fill:#ffc63c;}.e{fill:#56bf9f;}.f{clip-path:url(#b);}.g{fill:#e5e5e5;}.h{fill:#6c9c8d;}</style><clipPath id="a"><rect class="a" x="0.05" y="-0.04" width="837.97" height="1080"/></clipPath><clipPath id="b"><rect class="a" x="808.05" y="0.29" width="60.5" height="1079.75"/></clipPath></defs><title>01 Pattern</title><rect class="b" x="0.01" y="-0.04" width="838.96" height="1080"/><g class="c"><path class="d" d="M16.37,61.31a5.22,5.22,0,1,1,0,10.39,5.22,5.22,0,1,1,0-10.39Z"/><path class="d" d="M175.38,91.47c0,4.65-4.2,8.44-9.36,8.44s-9.36-3.79-9.36-8.44S160.86,83,166,83,175.38,86.81,175.38,91.47Zm-15.3,0c0,3,2.67,5.35,5.94,5.35s5.94-2.4,5.94-5.35-2.67-5.36-5.94-5.36S160.08,88.51,160.08,91.47Z"/><path class="e" d="M151.09,112.53c-7.94,0-16.87-1-23.07-6-7.24-5.72-5.77-15.61.17-21.49,5-5,9.48-8,10.75-15,1.08-5.94-1.64-10.72-7.47-13.51-6.79-3.26-14.23-3.76-19.77-9.06C102.22,38.44,113,31.62,119,24.85a16.41,16.41,0,0,0,1.92-20c-4-6.38-12.66-9-20.33-9.1a34.5,34.5,0,0,0-6.17.61C91.75-3.22,92.9.5,95.59,0c9.36-1.6,20.62,1.23,23.33,10.42,2.76,9.38-6.73,14.12-11.86,20.6-5.75,7.25-3.44,15,3.47,20.83,5.22,4.45,12.56,5.25,18.79,8,7.35,3.26,6.88,11.74,2,16.89-4.53,4.79-9.95,8.1-11.87,14.51-2.09,7,.77,14.66,7,19.09,5.92,4.24,13.89,5.52,21.24,5.93,1.14.06,2.29.07,3.43.08a1.93,1.93,0,1,0,0-3.86Z"/><path class="e" d="M-20.41-15.27c12.36-1.63,24.71-.45,37,.79C27.09-13.43,37.45-11.84,47.78-10c-.42-1-.85-1.89-1.28-2.84C41-2,33.55,7.81,25.66,17.37c-6.55,8-14.82,14.53-21.44,22.41H7.91C-5,22.73-12.79,2.12-19.33-17.52c-.79-2.37-4.92-1.36-4.12,1C-16.82,3.42-8.87,24.44,4.22,41.73a2.31,2.31,0,0,0,3.69,0c6.34-7.55,14.32-13.84,20.63-21.43,8.2-9.86,15.92-20,21.66-31.23a1.9,1.9,0,0,0-1.28-2.83c-10.16-1.77-20.35-3.39-30.63-4.41C5-19.49-8.19-20.75-21.54-19c-2.72.36-1.56,4.07,1.13,3.71Z"/><path class="e" d="M190.26,63a93.16,93.16,0,0,0,7.3-11c3.73-6,7.61-11.88,11.81-17.61a1.78,1.78,0,0,0-.33-2.34C200.27,24.6,187.65,22,176.93,17.54c-1-.41-2.41-.33-2.92.69a277.6,277.6,0,0,1-16.39,28.08c-1.42,2.14,2.28,4.08,3.69,1.95A278.7,278.7,0,0,0,177.7,20.18l-2.93.69c10.33,4.29,22.82,6.75,31.25,14l-.34-2.34c-4.2,5.73-8.07,11.63-11.81,17.61-2.31,3.7-4.46,7.57-7.3,11-1.66,2,2.05,3.9,3.69,1.94Z"/><path class="e" d="M69.51,151.05l40-11.78a2,2,0,1,0-1.13-3.72l-40,11.78a2,2,0,1,0,1.14,3.72Z"/><path class="e" d="M64.58,139l40.49-11.94a2,2,0,1,0-1.13-3.72l-40.5,11.94A2,2,0,1,0,64.58,139Z"/><path class="e" d="M43.5,35.26c-6.74,7.12-9.73,17.46.13,23.54A15.25,15.25,0,0,0,56.1,60.12C61,58.37,63.84,53.6,66.28,49.74c1.37-2.16-2.32-4.11-3.69-2-3.43,5.42-6.83,10.54-14.53,8.7C37.67,54,41.74,43,46.52,38c1.78-1.88-1.23-4.62-3-2.73Z"/><path class="e" d="M25.61,98.48c5.59-3.81,14.22-1.84,20.46-.66,8.07,1.53,16,3.73,24.17,4.73,6.36.78,12.53.54,17.54-3.45a13.65,13.65,0,0,0,4.46-14.83C90.35,78.85,84,76.5,78.14,77c-7,.57-12.1,5.55-16,10.32-3.63,4.44-6.36,9.41-10,13.85-5.34,6.57-10,16-20.75,14.56-2.7-.36-3.86,3.35-1.14,3.72a19.32,19.32,0,0,0,17.53-6.17A113.47,113.47,0,0,0,59,99.18c3.36-4.87,6.28-9.93,10.77-14.06S83,78.22,87.38,84c3.56,4.68-.08,11.31-4.87,13.86-5.65,3-14.4.65-20.27-.53C54.85,95.81,47.56,93.9,40.05,93c-5.49-.69-11.93-1-16.6,2.2-2.17,1.48,0,4.83,2.16,3.33Z"/><path class="e" d="M65.55,26.09a94.48,94.48,0,0,1,7.68-9.46c1.7-1.93-1.3-4.67-3-2.73a102.57,102.57,0,0,0-8.35,10.24c-1.44,2.13,2.26,4.07,3.69,1.95Z"/><path class="e" d="M-37.63,66.26l38,17.39c2.45,1.12,4.62-2.2,2.16-3.33l-38-17.39c-2.45-1.13-4.62,2.2-2.16,3.33Z"/><path class="d" d="M313.85,32.4a5.49,5.49,0,0,1,5.75,5.2,5.79,5.79,0,0,1-11.51,0A5.5,5.5,0,0,1,313.85,32.4Z"/><path class="d" d="M472.85,62.56c0,4.66-4.2,8.44-9.36,8.44s-9.35-3.78-9.35-8.44,4.19-8.44,9.35-8.44S472.85,57.91,472.85,62.56Zm-15.29,0a5.68,5.68,0,0,0,5.93,5.36c3.27,0,5.94-2.41,5.94-5.36s-2.67-5.35-5.94-5.35S457.56,59.61,457.56,62.56Z"/><path class="e" d="M448.56,83.63c-7.94,0-16.87-1-23.07-5.95-7.24-5.73-5.77-15.62.17-21.5,5-5,9.48-8,10.75-15,1.08-5.94-1.64-10.71-7.46-13.5-6.8-3.26-14.23-3.77-19.78-9.07-9.48-9,1.26-15.88,7.33-22.65a16.4,16.4,0,0,0,1.93-20c-4-6.39-12.67-9-20.34-9.11a34.51,34.51,0,0,0-6.17.62c-2.7.46-1.55,4.18,1.14,3.72,9.36-1.6,20.62,1.23,23.33,10.41,2.76,9.38-6.73,14.12-11.86,20.6-5.75,7.26-3.44,15,3.47,20.84,5.22,4.45,12.56,5.24,18.79,8,7.35,3.25,6.88,11.74,2,16.89-4.53,4.78-10,8.09-11.87,14.5-2.09,7,.78,14.66,7,19.1,5.92,4.24,13.89,5.51,21.24,5.92,1.14.06,2.29.08,3.43.08a1.93,1.93,0,1,0,0-3.85Z"/><path class="e" d="M277.06-44.17c12.36-1.64,24.71-.46,37,.78,10.46,1,20.82,2.64,31.15,4.44L344-41.78c-5.55,10.85-13,20.69-20.85,30.25C316.58-3.59,308.31,3,301.69,10.88h3.69c-12.9-17-20.7-37.67-27.24-57.3-.79-2.38-4.91-1.37-4.12,1,6.63,19.91,14.58,40.93,27.67,58.22a2.3,2.3,0,0,0,3.69,0C311.72,5.27,319.7-1,326-8.61c8.2-9.85,15.92-20,21.66-31.22a1.91,1.91,0,0,0-1.28-2.84c-10.15-1.77-20.35-3.39-30.63-4.41-13.33-1.32-26.48-2.58-39.83-.81-2.72.36-1.56,4.08,1.13,3.72Z"/><path class="e" d="M487.73,34.14a94.11,94.11,0,0,0,7.3-11c3.73-6,7.61-11.88,11.82-17.61a1.79,1.79,0,0,0-.34-2.34C497.74-4.3,485.12-6.91,474.4-11.37c-1-.4-2.41-.33-2.92.69a277.74,277.74,0,0,1-16.39,28.09c-1.42,2.14,2.28,4.08,3.69,1.95A278.85,278.85,0,0,0,475.17-8.73L472.24-8c10.33,4.3,22.82,6.76,31.25,14-.11-.78-.23-1.56-.34-2.34-4.2,5.73-8.07,11.63-11.81,17.62-2.31,3.69-4.46,7.56-7.3,11-1.66,2,2,3.91,3.69,2Z"/><path class="e" d="M367,122.15l40-11.79a1.94,1.94,0,1,0-1.14-3.71l-40,11.78a2,2,0,1,0,1.14,3.72Z"/><path class="e" d="M362.05,110.12l40.5-11.93a2,2,0,1,0-1.14-3.72L360.92,106.4a2,2,0,1,0,1.13,3.72Z"/><path class="e" d="M341,6.36c-6.74,7.12-9.73,17.45.13,23.54a15.25,15.25,0,0,0,12.47,1.31c4.85-1.75,7.74-6.52,10.18-10.38,1.37-2.16-2.32-4.1-3.69-1.94-3.43,5.42-6.83,10.53-14.53,8.69-10.39-2.48-6.32-13.44-1.53-18.5,1.78-1.88-1.23-4.62-3-2.72Z"/><path class="e" d="M323.08,69.58c5.59-3.82,14.22-1.84,20.46-.66,8.07,1.53,16,3.72,24.17,4.73,6.36.78,12.53.53,17.54-3.46a13.65,13.65,0,0,0,4.46-14.83c-1.88-5.41-8.23-7.76-14.09-7.28-7,.56-12.11,5.54-16,10.32-3.63,4.44-6.36,9.4-10,13.85-5.34,6.56-10,16-20.75,14.55-2.69-.36-3.85,3.36-1.13,3.72,7.2,1,12.78-1.27,17.52-6.17a112,112,0,0,0,11.14-14.08c3.36-4.86,6.28-9.93,10.78-14.06s13.28-6.9,17.65-1.15c3.56,4.68-.08,11.31-4.87,13.87-5.65,3-14.4.64-20.27-.54C352.32,66.9,345,65,337.52,64.05c-5.49-.69-11.93-1-16.6,2.2-2.17,1.48,0,4.83,2.16,3.33Z"/><path class="e" d="M253.81,49.3l38,17.39c2.46,1.12,4.62-2.21,2.16-3.33L256,46c-2.45-1.13-4.61,2.2-2.16,3.33Z"/><path class="e" d="M259.84,37.35l38,17.39c2.45,1.13,4.62-2.2,2.16-3.33L262,34c-2.45-1.12-4.61,2.21-2.16,3.33Z"/><path class="e" d="M224.26-20.93c-6.58,3-13.5,9-9.85,16.16,3.1,6.06,11.78,4.53,17.16,2.68,8-2.76,15.23-7,22.86-10.36a37.73,37.73,0,0,1,4.56-1.7c1.81-.52,2.15-.17,3.57,1.05C267.8-8.63,262-3,257.46-.67c-2.4,1.23-.24,4.56,2.16,3.33C266.21-.73,272.54-8.58,266.39-15c-2.26-2.37-4.11-3.69-7.53-3.13-3.07.51-6.08,2.08-8.82,3.35-7.65,3.52-15.08,8-23.41,10.1-3.26.83-7.52.68-8.82-2.73-1.79-4.69,4.91-8.54,8.6-10.21,2.47-1.12.3-4.45-2.15-3.33Z"/><path class="d" d="M464.58,198.94a5.22,5.22,0,1,1-5.75,5.19A5.5,5.5,0,0,1,464.58,198.94Z"/><path class="d" d="M549.42,112.49a3.63,3.63,0,1,1-4,3.61A3.82,3.82,0,0,1,549.42,112.49Z"/><path class="d" d="M623.59,229.1c0,4.65-4.2,8.44-9.36,8.44s-9.36-3.79-9.36-8.44,4.2-8.44,9.36-8.44S623.59,224.44,623.59,229.1Zm-15.3,0c0,3,2.67,5.35,5.94,5.35s5.94-2.4,5.94-5.35-2.67-5.36-5.94-5.36S608.29,226.15,608.29,229.1Z"/><path class="e" d="M599.3,250.16c-7.94,0-16.87-1-23.07-5.95-7.25-5.72-5.77-15.61.17-21.49,5-5,9.48-8,10.75-15,1.08-5.94-1.64-10.72-7.47-13.51-6.79-3.26-14.23-3.76-19.77-9.06-9.48-9.06,1.26-15.88,7.33-22.65a16.41,16.41,0,0,0,1.92-20c-4-6.38-12.66-9-20.33-9.1a34.41,34.41,0,0,0-6.17.61c-2.71.46-1.56,4.18,1.14,3.72,9.35-1.6,20.62,1.23,23.33,10.42,2.76,9.38-6.73,14.12-11.86,20.6-5.75,7.25-3.44,14.95,3.47,20.83,5.22,4.45,12.56,5.25,18.79,8,7.35,3.26,6.88,11.74,2,16.89-4.53,4.79-9.95,8.1-11.88,14.51a17.55,17.55,0,0,0,7,19.09c5.91,4.24,13.89,5.52,21.24,5.93,1.14.06,2.29.07,3.43.08a1.93,1.93,0,1,0,0-3.86Z"/><path class="e" d="M427.8,122.36c12.36-1.63,24.71-.45,37,.79,10.47,1,20.83,2.64,31.16,4.44-.42-1-.85-1.89-1.28-2.84-5.55,10.86-12.95,20.69-20.84,30.25-6.56,7.95-14.82,14.53-21.44,22.41h3.69c-12.91-17-20.7-37.66-27.24-57.3-.79-2.37-4.92-1.36-4.12,1,6.63,19.91,14.58,40.93,27.67,58.22a2.31,2.31,0,0,0,3.69,0c6.34-7.55,14.32-13.84,20.63-21.43,8.19-9.86,15.92-20,21.66-31.23a1.9,1.9,0,0,0-1.28-2.83c-10.16-1.77-20.35-3.4-30.64-4.41-13.32-1.32-26.47-2.58-39.83-.81-2.71.36-1.55,4.07,1.14,3.71Z"/><path class="e" d="M638.47,200.67a93.16,93.16,0,0,0,7.3-11c3.73-6,7.61-11.89,11.81-17.61a1.79,1.79,0,0,0-.33-2.34c-8.77-7.53-21.39-10.13-32.11-14.59-1-.41-2.41-.33-2.93.69a275.63,275.63,0,0,1-16.38,28.08c-1.42,2.14,2.28,4.08,3.69,1.95a278.7,278.7,0,0,0,16.39-28.08l-2.93.69c10.33,4.29,22.82,6.75,31.25,14l-.34-2.34c-4.2,5.73-8.07,11.63-11.81,17.61-2.31,3.7-4.46,7.57-7.3,11-1.67,2,2.05,3.9,3.69,1.94Z"/><path class="e" d="M517.72,288.68l40-11.78a2,2,0,1,0-1.13-3.72l-40,11.78a2,2,0,1,0,1.14,3.72Z"/><path class="e" d="M512.79,276.66l40.49-11.94a2,2,0,1,0-1.13-3.72l-40.5,11.94a2,2,0,1,0,1.14,3.72Z"/><path class="e" d="M579.06,118.56l37.5,17.17c2.45,1.12,4.62-2.21,2.16-3.33l-37.5-17.17c-2.46-1.12-4.62,2.2-2.16,3.33Z"/><path class="e" d="M585.15,106.78l38,17.39c2.45,1.12,4.61-2.2,2.15-3.33l-38-17.39c-2.46-1.12-4.62,2.2-2.16,3.33Z"/><path class="e" d="M591.18,94.84l38,17.39c2.46,1.12,4.62-2.21,2.16-3.33l-38-17.4c-2.45-1.12-4.61,2.21-2.15,3.34Z"/><path class="e" d="M500.87,103.48c2.34-7.56,4-15.32,5.83-23l-3.58.85c6.93,6,14.1,11.88,20.39,18.4a2.28,2.28,0,0,0,3.36-.39c3.49-6.94,7.84-13.54,10.41-20.83l-3.57.85c6.8,5.62,12.07,13.07,20.09,17.39a2.3,2.3,0,0,0,2.59-.31c5.19-5.9,6.36-13.67,9.29-20.55,1-2.33-3.14-3.33-4.12-1-2.62,6.14-3.57,13.6-8.19,18.86l2.59-.3c-7.65-4.13-12.72-11.42-19.23-16.78a2.25,2.25,0,0,0-3.57.85c-2.46,7-6.64,13.27-10,19.9l3.36-.39c-6.3-6.52-13.47-12.43-20.39-18.39-1.11-1-3.23-.62-3.58.85-1.82,7.67-3.49,15.43-5.82,23-.74,2.4,3.38,3.42,4.12,1Z"/><path class="e" d="M491.71,172.89c-6.74,7.12-9.73,17.46.13,23.54a15.25,15.25,0,0,0,12.47,1.32c4.85-1.75,7.74-6.52,10.18-10.38,1.37-2.16-2.32-4.11-3.69-2-3.43,5.42-6.83,10.54-14.53,8.7-10.39-2.48-6.32-13.45-1.54-18.5,1.78-1.88-1.23-4.62-3-2.73Z"/><path class="e" d="M473.82,236.11c5.59-3.81,14.22-1.84,20.46-.66,8.07,1.53,16,3.73,24.17,4.73,6.36.78,12.53.54,17.54-3.45a13.67,13.67,0,0,0,4.46-14.83c-1.89-5.42-8.24-7.77-14.1-7.29-7,.57-12.1,5.55-16,10.32-3.63,4.44-6.36,9.41-10,13.85-5.34,6.57-10,16-20.75,14.56-2.7-.36-3.86,3.35-1.14,3.72A19.32,19.32,0,0,0,496,250.89a113.47,113.47,0,0,0,11.14-14.08c3.36-4.87,6.28-9.93,10.77-14.06s13.28-6.9,17.66-1.15c3.56,4.68-.08,11.31-4.87,13.86-5.65,3-14.4.65-20.27-.53-7.39-1.49-14.68-3.4-22.19-4.35-5.49-.69-11.93-1-16.6,2.2-2.17,1.48,0,4.83,2.16,3.33Z"/><path class="e" d="M513.76,163.72a94.48,94.48,0,0,1,7.68-9.46c1.7-1.93-1.3-4.67-3-2.73a102.57,102.57,0,0,0-8.35,10.24c-1.44,2.13,2.26,4.07,3.69,1.95Z"/><path class="e" d="M404.55,215.83l38,17.39c2.45,1.13,4.62-2.2,2.16-3.33l-38-17.39c-2.45-1.12-4.62,2.21-2.16,3.33Z"/><path class="e" d="M410.58,203.89l38,17.39c2.45,1.12,4.62-2.2,2.16-3.33l-38-17.39c-2.45-1.13-4.62,2.2-2.16,3.33Z"/><path class="e" d="M375,145.6c-6.57,3-13.5,9-9.84,16.16,3.1,6.06,11.78,4.54,17.16,2.68,8-2.75,15.22-7,22.86-10.35a34.64,34.64,0,0,1,4.56-1.7c1.81-.53,2.15-.17,3.57,1.05,5.24,4.47-.6,10.1-5.1,12.42-2.4,1.24-.24,4.57,2.15,3.33,6.59-3.39,12.93-11.23,6.78-17.64-2.27-2.36-4.11-3.68-7.53-3.12-3.07.51-6.08,2.08-8.82,3.34-7.65,3.53-15.08,8-23.41,10.1-3.26.84-7.52.68-8.82-2.72-1.79-4.69,4.91-8.54,8.6-10.22,2.47-1.11.3-4.44-2.16-3.33Z"/><ellipse class="d" cx="169.66" cy="221.87" rx="5.76" ry="5.19"/><path class="d" d="M254.5,130.23a3.63,3.63,0,1,1-4,3.61A3.82,3.82,0,0,1,254.5,130.23Z"/><path class="d" d="M328.66,246.83c0,4.66-4.19,8.45-9.35,8.45s-9.36-3.79-9.36-8.45,4.2-8.44,9.36-8.44S328.66,242.18,328.66,246.83Zm-15.29,0a6,6,0,0,0,11.87,0c0-3-2.66-5.35-5.93-5.35S313.37,243.88,313.37,246.83Z"/><path class="e" d="M304.38,267.9c-7.94,0-16.88-1-23.08-5.95-7.24-5.72-5.76-15.61.18-21.49,5-5,9.48-8,10.75-15,1.07-5.95-1.65-10.72-7.47-13.51-6.8-3.26-14.23-3.77-19.78-9.07-9.47-9.05,1.26-15.88,7.34-22.65a16.4,16.4,0,0,0,1.92-20c-4-6.39-12.67-9-20.34-9.1a33.5,33.5,0,0,0-6.16.61c-2.71.46-1.56,4.18,1.14,3.72,9.35-1.6,20.62,1.23,23.32,10.42,2.77,9.37-6.72,14.12-11.85,20.59-5.75,7.26-3.44,15,3.46,20.84,5.23,4.45,12.57,5.25,18.79,8,7.36,3.26,6.89,11.74,2,16.89-4.53,4.79-10,8.1-11.88,14.5-2.09,7,.78,14.67,7,19.1,5.92,4.24,13.9,5.51,21.24,5.92,1.15.07,2.29.08,3.44.09a1.93,1.93,0,1,0,0-3.86Z"/><path class="e" d="M132.88,140.1c12.36-1.63,24.7-.45,37,.78,10.46,1.05,20.82,2.64,31.16,4.44-.43-.94-.85-1.88-1.28-2.83-5.55,10.85-13,20.69-20.84,30.25-6.56,7.95-14.82,14.53-21.44,22.41h3.69c-12.91-17.05-20.7-37.66-27.24-57.3-.79-2.38-4.92-1.36-4.12,1,6.63,19.91,14.58,40.93,27.67,58.22a2.31,2.31,0,0,0,3.69,0c6.34-7.55,14.31-13.84,20.63-21.43,8.19-9.86,15.92-20,21.65-31.23a1.9,1.9,0,0,0-1.27-2.83c-10.16-1.77-20.35-3.4-30.64-4.42-13.32-1.32-26.47-2.57-39.83-.81-2.72.36-1.56,4.08,1.14,3.72Z"/><path class="e" d="M343.55,218.41a94,94,0,0,0,7.3-11c3.73-6,7.61-11.89,11.81-17.62a1.78,1.78,0,0,0-.33-2.33c-8.77-7.53-21.39-10.13-32.11-14.59-1-.41-2.41-.33-2.93.69a277.51,277.51,0,0,1-16.38,28.08c-1.42,2.14,2.28,4.08,3.69,1.95A275.78,275.78,0,0,0,331,175.54l-2.92.7c10.32,4.29,22.82,6.75,31.24,14l-.33-2.33c-4.2,5.73-8.07,11.63-11.81,17.61-2.31,3.7-4.47,7.57-7.31,11-1.66,2,2.06,3.91,3.7,1.95Z"/><path class="e" d="M222.8,306.42l40-11.78a2,2,0,1,0-1.14-3.72l-40,11.78a2,2,0,1,0,1.14,3.72Z"/><path class="e" d="M217.87,294.4l40.49-11.94a2,2,0,1,0-1.14-3.72l-40.49,11.94a2,2,0,1,0,1.14,3.72Z"/><path class="e" d="M284.14,136.3l37.5,17.17c2.45,1.12,4.61-2.21,2.15-3.33L286.29,133c-2.45-1.13-4.61,2.2-2.15,3.33Z"/><path class="e" d="M290.23,124.52l38,17.39c2.46,1.12,4.62-2.21,2.16-3.33l-38-17.39c-2.45-1.13-4.61,2.2-2.15,3.33Z"/><path class="e" d="M296.25,112.57l38,17.4c2.45,1.12,4.62-2.21,2.16-3.34l-38-17.39c-2.45-1.12-4.61,2.21-2.16,3.33Z"/><path class="e" d="M206,121.21c2.33-7.56,4-15.32,5.82-23l-3.57.85c6.93,6,14.1,11.88,20.39,18.4a2.29,2.29,0,0,0,3.36-.39c3.49-6.94,7.84-13.54,10.41-20.83l-3.57.85c6.8,5.61,12.07,13.06,20.09,17.38a2.28,2.28,0,0,0,2.59-.3c5.19-5.9,6.36-13.68,9.29-20.56,1-2.32-3.15-3.32-4.12-1-2.62,6.13-3.57,13.6-8.19,18.85l2.59-.3c-7.66-4.12-12.73-11.41-19.23-16.78a2.26,2.26,0,0,0-3.57.86c-2.46,7-6.65,13.27-10,19.9l3.35-.39c-6.29-6.52-13.46-12.43-20.39-18.4-1.1-1-3.22-.61-3.57.86-1.82,7.67-3.49,15.43-5.82,23-.75,2.4,3.38,3.42,4.12,1Z"/><path class="e" d="M196.79,190.63c-6.74,7.12-9.73,17.45.13,23.54a15.21,15.21,0,0,0,12.47,1.31c4.85-1.74,7.74-6.51,10.18-10.37,1.37-2.17-2.33-4.11-3.69-2-3.43,5.42-6.83,10.53-14.53,8.7-10.39-2.49-6.32-13.45-1.54-18.5,1.78-1.88-1.23-4.63-3-2.73Z"/><path class="e" d="M178.9,253.85c5.59-3.82,14.22-1.84,20.46-.66,8.07,1.53,16,3.72,24.17,4.73,6.36.78,12.53.54,17.54-3.45a13.68,13.68,0,0,0,4.46-14.84c-1.89-5.41-8.24-7.76-14.1-7.28-7,.57-12.1,5.54-16,10.32-3.62,4.44-6.35,9.4-10,13.85-5.34,6.56-10,16-20.75,14.56-2.7-.36-3.86,3.35-1.14,3.71a19.26,19.26,0,0,0,17.52-6.16,111,111,0,0,0,11.14-14.09c3.36-4.86,6.29-9.93,10.78-14.06s13.28-6.89,17.66-1.14c3.56,4.67-.08,11.3-4.88,13.86-5.65,3-14.39.65-20.27-.54-7.38-1.49-14.67-3.39-22.18-4.34-5.49-.69-11.94-1-16.6,2.2-2.17,1.48,0,4.83,2.16,3.33Z"/><path class="e" d="M218.84,181.46a94.59,94.59,0,0,1,7.68-9.47c1.7-1.92-1.3-4.67-3-2.72a102.47,102.47,0,0,0-8.34,10.24c-1.44,2.13,2.26,4.06,3.69,2Z"/><path class="e" d="M109.63,233.57l38,17.39c2.45,1.12,4.62-2.2,2.16-3.33l-38-17.39c-2.45-1.12-4.62,2.2-2.16,3.33Z"/><path class="e" d="M115.66,221.63l38,17.39c2.45,1.12,4.61-2.21,2.16-3.33l-38-17.39c-2.45-1.13-4.62,2.2-2.16,3.33Z"/><path class="e" d="M80.07,163.34c-6.57,3-13.5,9-9.85,16.16,3.11,6.06,11.79,4.54,17.17,2.68,8-2.75,15.22-7,22.86-10.35a36,36,0,0,1,4.55-1.71c1.81-.52,2.15-.16,3.58,1.06,5.23,4.47-.6,10.1-5.11,12.42-2.39,1.23-.24,4.57,2.16,3.33,6.59-3.39,12.93-11.24,6.78-17.64-2.27-2.37-4.11-3.69-7.53-3.12-3.07.5-6.08,2.07-8.82,3.34-7.65,3.52-15.08,8-23.41,10.1-3.27.84-7.52.68-8.82-2.72-1.79-4.69,4.91-8.55,8.6-10.22,2.46-1.12.3-4.44-2.16-3.33Z"/><path class="d" d="M40.3,273.44c0,4.66-4.2,8.44-9.36,8.44s-9.36-3.78-9.36-8.44,4.2-8.44,9.36-8.44S40.3,268.79,40.3,273.44Zm-15.3,0c0,2.95,2.67,5.36,5.94,5.36s5.94-2.41,5.94-5.36-2.67-5.35-5.94-5.35S25,270.49,25,273.44Z"/><path class="e" d="M16,294.51c-7.94-.05-16.87-1.05-23.08-5.95-7.24-5.73-5.76-15.62.18-21.5,5-5,9.48-8,10.75-15,1.08-5.94-1.65-10.71-7.47-13.5-6.8-3.26-14.23-3.77-19.77-9.07-9.48-9.05,1.26-15.88,7.33-22.65a16.4,16.4,0,0,0,1.92-20c-4-6.39-12.66-9-20.34-9.11a34.4,34.4,0,0,0-6.16.62c-2.71.46-1.56,4.18,1.14,3.71,9.35-1.6,20.62,1.24,23.33,10.42,2.76,9.38-6.73,14.12-11.86,20.6-5.75,7.26-3.44,15,3.46,20.84,5.23,4.45,12.57,5.24,18.79,8,7.36,3.25,6.89,11.74,2,16.89-4.53,4.78-10,8.09-11.88,14.5-2.09,7,.78,14.66,7,19.1,5.92,4.24,13.9,5.51,21.24,5.92,1.15.06,2.3.08,3.44.08a1.93,1.93,0,1,0,0-3.85Z"/><path class="e" d="M55.18,245a94.11,94.11,0,0,0,7.3-11c3.73-6,7.61-11.88,11.81-17.61A1.79,1.79,0,0,0,74,214.1c-8.77-7.52-21.39-10.13-32.11-14.59-1-.4-2.41-.33-2.93.69a275.78,275.78,0,0,1-16.38,28.09c-1.42,2.14,2.28,4.08,3.69,2a278.85,278.85,0,0,0,16.39-28.09l-2.93.69c10.32,4.3,22.82,6.76,31.24,14l-.33-2.34c-4.2,5.73-8.07,11.63-11.81,17.62-2.31,3.69-4.46,7.56-7.3,11-1.67,2,2,3.91,3.69,2Z"/><path class="e" d="M-4.23,162.9l37.5,17.17c2.45,1.13,4.62-2.2,2.16-3.33l-37.5-17.17c-2.46-1.12-4.62,2.21-2.16,3.33Z"/><path class="e" d="M1.86,151.12l38,17.39c2.46,1.13,4.62-2.2,2.16-3.33L4,147.79C1.56,146.67-.6,150,1.86,151.12Z"/><path class="e" d="M7.89,139.18l38,17.39c2.46,1.12,4.62-2.2,2.16-3.33L10,135.85c-2.45-1.12-4.61,2.2-2.15,3.33Z"/><path class="d" d="M25.11,405.22a5.22,5.22,0,1,1,0,10.39,5.22,5.22,0,1,1,0-10.39Z"/><path class="d" d="M110,318.77a3.63,3.63,0,1,1-4,3.61A3.82,3.82,0,0,1,110,318.77Z"/><path class="d" d="M184.12,435.38c0,4.65-4.2,8.44-9.36,8.44s-9.36-3.79-9.36-8.44,4.2-8.44,9.36-8.44S184.12,430.72,184.12,435.38Zm-15.3,0c0,2.95,2.67,5.35,5.94,5.35s5.94-2.4,5.94-5.35S178,430,174.76,430,168.82,432.43,168.82,435.38Z"/><path class="e" d="M159.83,456.44c-7.94,0-16.87-1-23.08-5.94-7.24-5.73-5.76-15.62.18-21.5,5-5,9.48-8,10.75-15,1.08-5.94-1.65-10.71-7.47-13.51-6.8-3.26-14.23-3.76-19.77-9.06-9.48-9.06,1.26-15.88,7.33-22.65a16.41,16.41,0,0,0,1.92-20c-4-6.38-12.66-9-20.33-9.1a34.41,34.41,0,0,0-6.17.61c-2.71.47-1.56,4.18,1.14,3.72,9.35-1.6,20.62,1.23,23.33,10.42,2.76,9.38-6.73,14.12-11.86,20.6-5.75,7.25-3.44,14.95,3.46,20.84,5.23,4.44,12.57,5.24,18.79,8,7.36,3.26,6.89,11.74,2,16.89-4.53,4.79-9.95,8.1-11.88,14.51-2.09,7,.78,14.66,7,19.09,5.91,4.24,13.89,5.52,21.23,5.93,1.15.06,2.3.07,3.44.08a1.93,1.93,0,1,0,0-3.86Z"/><path class="e" d="M-11.67,328.65c12.36-1.64,24.7-.46,37,.78,10.47,1.05,20.82,2.64,31.16,4.44-.43-.95-.85-1.89-1.28-2.83-5.55,10.85-13,20.68-20.84,30.24-6.56,8-14.82,14.53-21.44,22.41h3.69C3.74,366.64-4,346-10.59,326.39c-.79-2.37-4.92-1.36-4.12,1C-8.08,347.33-.13,368.35,13,385.64a2.31,2.31,0,0,0,3.69,0C23,378.09,31,371.8,37.28,364.21c8.19-9.86,15.92-20,21.65-31.23a1.9,1.9,0,0,0-1.27-2.83c-10.16-1.77-20.35-3.39-30.64-4.41-13.32-1.32-26.47-2.58-39.83-.81-2.72.36-1.55,4.07,1.14,3.72Z"/><path class="e" d="M199,407a93.16,93.16,0,0,0,7.3-11c3.73-6,7.61-11.88,11.81-17.61a1.79,1.79,0,0,0-.33-2.34c-8.77-7.53-21.39-10.13-32.11-14.59-1-.4-2.41-.33-2.93.69a276.87,276.87,0,0,1-16.38,28.09c-1.42,2.14,2.28,4.07,3.69,1.94a277.6,277.6,0,0,0,16.39-28.08l-2.93.69c10.32,4.29,22.82,6.75,31.25,14l-.34-2.34c-4.2,5.73-8.07,11.63-11.81,17.61-2.31,3.7-4.46,7.57-7.3,11-1.67,2,2.05,3.9,3.69,1.94Z"/><path class="e" d="M78.25,495l40-11.78a2,2,0,1,0-1.13-3.72l-40,11.78A2,2,0,1,0,78.25,495Z"/><path class="e" d="M73.32,482.94,113.81,471a2,2,0,1,0-1.13-3.72l-40.5,11.94a2,2,0,1,0,1.14,3.72Z"/><path class="e" d="M139.59,324.84,177.09,342c2.45,1.12,4.62-2.21,2.16-3.33l-37.5-17.17c-2.46-1.12-4.62,2.2-2.16,3.33Z"/><path class="e" d="M145.68,313.06l38,17.39c2.46,1.12,4.62-2.2,2.16-3.33l-38-17.39c-2.45-1.12-4.61,2.2-2.15,3.33Z"/><path class="e" d="M151.71,301.12l38,17.39c2.46,1.12,4.62-2.21,2.16-3.33l-38-17.39c-2.45-1.13-4.61,2.2-2.15,3.33Z"/><path class="e" d="M61.4,309.76c2.34-7.56,4-15.32,5.83-23l-3.58.86c6.93,6,14.1,11.87,20.39,18.39a2.28,2.28,0,0,0,3.36-.39c3.49-6.94,7.84-13.54,10.41-20.83l-3.57.85c6.8,5.62,12.07,13.07,20.09,17.39a2.31,2.31,0,0,0,2.59-.3c5.19-5.91,6.36-13.68,9.29-20.56,1-2.33-3.14-3.33-4.12-1-2.62,6.14-3.57,13.6-8.19,18.86l2.59-.3c-7.66-4.13-12.73-11.42-19.23-16.78a2.25,2.25,0,0,0-3.57.85c-2.46,7-6.65,13.27-10,19.9l3.36-.39c-6.3-6.52-13.47-12.43-20.39-18.39-1.11-.95-3.23-.62-3.58.85-1.82,7.67-3.49,15.43-5.82,23-.74,2.4,3.38,3.42,4.12,1Z"/><path class="e" d="M52.24,379.17c-6.74,7.12-9.73,17.46.13,23.55A15.29,15.29,0,0,0,64.84,404c4.85-1.75,7.74-6.52,10.18-10.38,1.37-2.16-2.33-4.11-3.69-1.95-3.43,5.43-6.83,10.54-14.53,8.7-10.39-2.48-6.32-13.45-1.54-18.5,1.78-1.88-1.23-4.62-3-2.73Z"/><path class="e" d="M34.35,442.39c5.59-3.81,14.22-1.84,20.46-.66,8.07,1.53,16,3.73,24.17,4.73,6.36.78,12.53.54,17.54-3.45A13.67,13.67,0,0,0,101,428.18c-1.89-5.41-8.24-7.77-14.1-7.29-7,.57-12.1,5.55-16,10.32-3.63,4.45-6.36,9.41-10,13.85-5.34,6.57-10,16-20.75,14.56-2.7-.36-3.86,3.35-1.14,3.72a19.3,19.3,0,0,0,17.52-6.17,112.63,112.63,0,0,0,11.15-14.08c3.36-4.87,6.28-9.93,10.77-14.06s13.28-6.9,17.66-1.15c3.56,4.68-.08,11.31-4.88,13.86-5.64,3-14.39.65-20.26-.53-7.39-1.49-14.68-3.4-22.19-4.35-5.49-.69-11.93-1-16.6,2.2-2.17,1.48,0,4.83,2.16,3.33Z"/><path class="e" d="M74.29,370A94.48,94.48,0,0,1,82,360.54c1.7-1.93-1.3-4.67-3-2.73a102.57,102.57,0,0,0-8.35,10.24c-1.44,2.13,2.26,4.07,3.69,1.95Z"/><path class="e" d="M-34.92,422.11l38,17.39c2.45,1.13,4.62-2.2,2.16-3.33l-38-17.39c-2.45-1.12-4.62,2.21-2.16,3.33Z"/><path class="e" d="M-28.89,410.17l38,17.39c2.45,1.12,4.62-2.2,2.16-3.33l-38-17.39c-2.45-1.12-4.62,2.2-2.16,3.33Z"/><ellipse class="d" cx="322.58" cy="381.51" rx="5.76" ry="5.19"/><path class="d" d="M407.42,289.86a3.63,3.63,0,1,1-4,3.62A3.83,3.83,0,0,1,407.42,289.86Z"/><path class="d" d="M481.59,406.47c0,4.66-4.2,8.44-9.36,8.44s-9.36-3.78-9.36-8.44,4.2-8.44,9.36-8.44S481.59,401.82,481.59,406.47Zm-15.3,0c0,3,2.67,5.36,5.94,5.36s5.94-2.4,5.94-5.36-2.67-5.35-5.94-5.35S466.29,403.52,466.29,406.47Z"/><path class="e" d="M457.3,427.54c-7.94-.05-16.87-1.05-23.07-6-7.24-5.73-5.77-15.62.17-21.5,5-5,9.48-8,10.75-15,1.08-5.94-1.64-10.71-7.47-13.5-6.79-3.26-14.23-3.77-19.77-9.07-9.48-9.05,1.26-15.88,7.33-22.65a16.4,16.4,0,0,0,1.92-20c-4-6.39-12.66-9-20.33-9.11a34.51,34.51,0,0,0-6.17.62c-2.7.46-1.56,4.18,1.14,3.72,9.36-1.6,20.62,1.23,23.33,10.41,2.76,9.38-6.73,14.13-11.86,20.6-5.75,7.26-3.44,15,3.47,20.84,5.22,4.45,12.56,5.24,18.79,8,7.35,3.25,6.88,11.74,2,16.89-4.53,4.78-9.95,8.09-11.87,14.5-2.09,7,.77,14.66,7,19.1,5.91,4.24,13.89,5.51,21.24,5.92,1.14.06,2.29.08,3.43.08a1.93,1.93,0,1,0,0-3.85Z"/><path class="e" d="M285.8,299.74c12.36-1.63,24.71-.46,37,.78,10.47,1.05,20.83,2.64,31.16,4.44-.42-.94-.85-1.89-1.28-2.83-5.55,10.85-12.95,20.69-20.84,30.25-6.55,7.94-14.82,14.53-21.44,22.41h3.69c-12.91-17.05-20.7-37.67-27.24-57.3-.79-2.38-4.92-1.37-4.12,1,6.63,19.92,14.58,40.93,27.67,58.23a2.31,2.31,0,0,0,3.69,0c6.34-7.56,14.32-13.84,20.63-21.44,8.2-9.85,15.92-20,21.66-31.22a1.91,1.91,0,0,0-1.28-2.84c-10.16-1.77-20.35-3.39-30.63-4.41-13.33-1.32-26.48-2.58-39.83-.81-2.72.36-1.56,4.08,1.13,3.72Z"/><path class="e" d="M496.47,378.05a94.11,94.11,0,0,0,7.3-11c3.73-6,7.61-11.88,11.81-17.61a1.79,1.79,0,0,0-.33-2.34c-8.77-7.52-21.39-10.13-32.11-14.59-1-.4-2.41-.33-2.92.7a278.7,278.7,0,0,1-16.39,28.08c-1.42,2.14,2.28,4.08,3.69,1.95a278.85,278.85,0,0,0,16.39-28.09l-2.93.69c10.33,4.3,22.82,6.76,31.25,14l-.34-2.34c-4.2,5.73-8.07,11.63-11.81,17.62a95.28,95.28,0,0,1-7.3,11c-1.67,2,2.05,3.91,3.69,1.95Z"/><path class="e" d="M375.72,466.06l40-11.78a2,2,0,1,0-1.13-3.72l-40,11.78a2,2,0,1,0,1.14,3.72Z"/><path class="e" d="M370.79,454l40.49-11.93a2,2,0,1,0-1.13-3.72l-40.5,11.93a2,2,0,1,0,1.14,3.72Z"/><path class="e" d="M437.06,295.93l37.5,17.17c2.45,1.13,4.62-2.2,2.16-3.33l-37.5-17.17c-2.46-1.12-4.62,2.21-2.16,3.33Z"/><path class="e" d="M443.15,284.15l38,17.4c2.45,1.12,4.61-2.21,2.15-3.33l-38-17.4c-2.46-1.12-4.62,2.21-2.16,3.33Z"/><path class="e" d="M449.18,272.21l38,17.39c2.45,1.13,4.61-2.2,2.15-3.33l-38-17.39c-2.46-1.12-4.62,2.2-2.16,3.33Z"/><path class="e" d="M358.87,280.85c2.34-7.56,4-15.32,5.83-23l-3.58.85c6.93,6,14.1,11.88,20.39,18.39a2.28,2.28,0,0,0,3.36-.39c3.49-6.93,7.84-13.53,10.41-20.82l-3.57.85c6.8,5.61,12.07,13.06,20.09,17.38a2.29,2.29,0,0,0,2.59-.3c5.19-5.91,6.36-13.68,9.29-20.56,1-2.33-3.14-3.32-4.12-1-2.61,6.14-3.57,13.6-8.19,18.86l2.59-.3c-7.65-4.12-12.72-11.41-19.23-16.78a2.26,2.26,0,0,0-3.57.85c-2.46,7-6.64,13.28-10,19.91l3.36-.39c-6.3-6.52-13.47-12.43-20.39-18.4-1.11-.95-3.23-.61-3.58.85-1.82,7.68-3.49,15.44-5.82,23-.74,2.4,3.38,3.41,4.12,1Z"/><path class="e" d="M349.71,350.27c-6.74,7.12-9.73,17.45.13,23.54a15.21,15.21,0,0,0,12.47,1.31c4.85-1.75,7.74-6.51,10.18-10.38,1.37-2.16-2.32-4.1-3.69-1.94-3.43,5.42-6.83,10.53-14.53,8.69C343.88,369,348,358.05,352.73,353c1.78-1.88-1.23-4.62-3-2.72Z"/><path class="e" d="M331.82,413.49c5.59-3.82,14.22-1.84,20.46-.66,8.07,1.53,16,3.72,24.17,4.73,6.36.78,12.53.53,17.54-3.46a13.65,13.65,0,0,0,4.46-14.83c-1.89-5.41-8.24-7.76-14.1-7.28-7,.56-12.1,5.54-16,10.32-3.63,4.44-6.36,9.4-10,13.85-5.34,6.56-10,16-20.75,14.55-2.7-.36-3.86,3.36-1.14,3.72A19.32,19.32,0,0,0,354,428.26a112,112,0,0,0,11.14-14.08c3.36-4.86,6.28-9.93,10.77-14.06s13.28-6.89,17.66-1.15c3.56,4.68-.08,11.31-4.87,13.87-5.65,3-14.4.64-20.27-.54-7.39-1.49-14.68-3.4-22.19-4.34-5.49-.69-11.93-1-16.6,2.2-2.17,1.48,0,4.83,2.16,3.33Z"/><path class="e" d="M371.76,341.09a95.62,95.62,0,0,1,7.68-9.46c1.7-1.92-1.3-4.67-3-2.73a102.69,102.69,0,0,0-8.35,10.25c-1.44,2.13,2.26,4.06,3.69,1.94Z"/><path class="e" d="M262.55,393.21l38,17.39c2.45,1.12,4.62-2.21,2.16-3.33l-38-17.39c-2.45-1.13-4.62,2.2-2.16,3.33Z"/><path class="e" d="M268.58,381.26l38,17.4c2.45,1.12,4.62-2.21,2.16-3.33l-38-17.4c-2.45-1.12-4.62,2.21-2.16,3.33Z"/><path class="e" d="M233,323c-6.57,3-13.5,9-9.84,16.16,3.1,6.06,11.78,4.53,17.16,2.68,8-2.76,15.22-7,22.86-10.36a37.73,37.73,0,0,1,4.56-1.7c1.81-.52,2.15-.17,3.57,1.05,5.24,4.47-.6,10.11-5.1,12.43-2.4,1.23-.24,4.56,2.15,3.33,6.59-3.39,12.93-11.24,6.78-17.64-2.27-2.37-4.11-3.69-7.53-3.13-3.07.51-6.08,2.08-8.82,3.35-7.65,3.52-15.08,8-23.41,10.1-3.26.84-7.52.68-8.82-2.73-1.79-4.69,4.91-8.54,8.6-10.21,2.47-1.12.3-4.44-2.16-3.33Z"/><path class="d" d="M178.4,560.59a5.22,5.22,0,1,1-5.76,5.19A5.5,5.5,0,0,1,178.4,560.59Z"/><path class="d" d="M263.24,474.14a3.63,3.63,0,1,1-4,3.61A3.82,3.82,0,0,1,263.24,474.14Z"/><path class="d" d="M337.4,590.75c0,4.65-4.2,8.44-9.35,8.44s-9.36-3.79-9.36-8.44,4.2-8.45,9.36-8.45S337.4,586.09,337.4,590.75Zm-15.29,0c0,3,2.66,5.35,5.94,5.35s5.93-2.4,5.93-5.35a6,6,0,0,0-11.87,0Z"/><path class="e" d="M313.12,611.81c-7.94,0-16.88-1-23.08-5.95-7.24-5.72-5.77-15.61.17-21.49,5-5,9.49-8,10.76-15,1.07-6-1.65-10.72-7.47-13.51-6.8-3.26-14.23-3.76-19.78-9.07-9.47-9,1.26-15.88,7.34-22.64a16.43,16.43,0,0,0,1.92-20c-4-6.39-12.67-9-20.34-9.1a33.5,33.5,0,0,0-6.16.61c-2.71.46-1.56,4.18,1.13,3.72,9.36-1.6,20.63,1.23,23.33,10.42,2.76,9.37-6.73,14.12-11.86,20.59-5.75,7.26-3.43,15,3.47,20.84,5.22,4.45,12.57,5.25,18.79,8,7.36,3.26,6.88,11.74,2,16.89-4.54,4.79-10,8.1-11.88,14.5-2.09,7,.78,14.67,7,19.1,5.92,4.24,13.9,5.51,21.24,5.92,1.15.07,2.29.08,3.44.09a1.93,1.93,0,1,0,0-3.86Z"/><path class="e" d="M141.62,484c12.35-1.63,24.7-.45,37,.78,10.46,1.06,20.82,2.64,31.16,4.45l-1.28-2.84c-5.55,10.85-13,20.69-20.84,30.25-6.56,8-14.83,14.53-21.44,22.41h3.69c-12.91-17-20.7-37.66-27.24-57.3-.79-2.38-4.92-1.36-4.12,1,6.63,19.91,14.57,40.93,27.67,58.22a2.31,2.31,0,0,0,3.69,0c6.34-7.55,14.31-13.84,20.63-21.43,8.19-9.86,15.91-20,21.65-31.23a1.9,1.9,0,0,0-1.28-2.83c-10.15-1.77-20.35-3.4-30.63-4.42-13.33-1.32-26.47-2.57-39.83-.81-2.72.36-1.56,4.08,1.14,3.72Z"/><path class="e" d="M352.28,562.32a95.36,95.36,0,0,0,7.31-11c3.73-6,7.61-11.89,11.81-17.62a1.78,1.78,0,0,0-.33-2.33c-8.77-7.53-21.39-10.13-32.11-14.59-1-.41-2.41-.33-2.93.69a279.4,279.4,0,0,1-16.38,28.08c-1.42,2.14,2.27,4.08,3.69,1.95a278.61,278.61,0,0,0,16.38-28.08l-2.92.69c10.32,4.29,22.81,6.75,31.24,14l-.33-2.33c-4.2,5.73-8.08,11.63-11.81,17.61-2.31,3.7-4.47,7.57-7.31,11-1.66,2,2.06,3.91,3.69,2Z"/><path class="e" d="M231.54,650.33l40-11.78a2,2,0,1,0-1.14-3.72l-40,11.78a2,2,0,1,0,1.14,3.72Z"/><path class="e" d="M226.61,638.31l40.49-11.94a2,2,0,1,0-1.14-3.72l-40.49,11.94a2,2,0,1,0,1.14,3.72Z"/><path class="e" d="M292.87,480.21l37.51,17.17c2.45,1.12,4.61-2.21,2.15-3.33L295,476.88c-2.45-1.13-4.61,2.2-2.16,3.33Z"/><path class="e" d="M299,468.43l38,17.39c2.45,1.12,4.62-2.21,2.16-3.33l-38-17.39c-2.45-1.13-4.62,2.2-2.16,3.33Z"/><path class="e" d="M305,456.48l38,17.4c2.45,1.12,4.62-2.21,2.16-3.33l-38-17.4c-2.45-1.12-4.62,2.21-2.16,3.33Z"/><path class="e" d="M214.69,465.12c2.33-7.56,4-15.32,5.82-23l-3.57.85c6.92,6,14.1,11.88,20.39,18.4a2.29,2.29,0,0,0,3.36-.39c3.49-6.94,7.84-13.54,10.41-20.83l-3.58.85c6.81,5.61,12.08,13.06,20.1,17.38a2.28,2.28,0,0,0,2.59-.3c5.19-5.9,6.36-13.68,9.29-20.56,1-2.32-3.15-3.32-4.13-1-2.61,6.13-3.56,13.6-8.18,18.86l2.59-.31c-7.66-4.12-12.73-11.41-19.23-16.78a2.27,2.27,0,0,0-3.58.86c-2.45,7-6.64,13.27-10,19.9l3.35-.39c-6.29-6.52-13.46-12.43-20.39-18.39-1.1-1-3.22-.62-3.57.85-1.82,7.67-3.49,15.43-5.83,23-.74,2.4,3.39,3.42,4.13,1Z"/><path class="e" d="M205.53,534.54c-6.74,7.12-9.73,17.46.13,23.54a15.25,15.25,0,0,0,12.47,1.32c4.84-1.75,7.73-6.52,10.18-10.38,1.37-2.17-2.33-4.11-3.69-1.95-3.43,5.42-6.83,10.53-14.53,8.7-10.39-2.49-6.32-13.45-1.54-18.5,1.78-1.88-1.23-4.63-3-2.73Z"/><path class="e" d="M187.64,597.76c5.59-3.82,14.22-1.84,20.46-.66,8.07,1.53,16,3.73,24.17,4.73,6.35.78,12.53.54,17.54-3.45a13.68,13.68,0,0,0,4.46-14.84c-1.89-5.41-8.24-7.76-14.1-7.28-7,.57-12.1,5.54-16,10.32-3.62,4.44-6.35,9.4-10,13.85-5.35,6.56-10,16-20.75,14.56-2.7-.36-3.86,3.35-1.14,3.71a19.26,19.26,0,0,0,17.52-6.16A111,111,0,0,0,221,598.45c3.36-4.86,6.29-9.93,10.78-14.06s13.28-6.89,17.66-1.14c3.56,4.68-.08,11.3-4.88,13.86-5.65,3-14.39.65-20.27-.54-7.38-1.48-14.67-3.39-22.18-4.34-5.49-.69-11.94-1-16.6,2.2-2.17,1.48,0,4.83,2.16,3.33Z"/><path class="e" d="M227.58,525.37a94.59,94.59,0,0,1,7.68-9.47c1.7-1.92-1.31-4.67-3-2.72a102.47,102.47,0,0,0-8.34,10.24c-1.44,2.13,2.25,4.07,3.69,2Z"/><path class="e" d="M118.37,577.48l38,17.39c2.45,1.12,4.61-2.2,2.15-3.33l-38-17.39c-2.46-1.12-4.62,2.2-2.16,3.33Z"/><path class="e" d="M124.4,565.54l38,17.39c2.45,1.12,4.61-2.21,2.15-3.33l-38-17.39c-2.46-1.13-4.62,2.2-2.16,3.33Z"/><path class="e" d="M88.81,507.25c-6.57,3-13.5,9-9.85,16.16,3.11,6.06,11.79,4.54,17.16,2.68,8-2.75,15.23-7,22.87-10.35a36,36,0,0,1,4.55-1.71c1.81-.52,2.15-.16,3.58,1.06,5.23,4.47-.6,10.1-5.11,12.42-2.39,1.23-.24,4.57,2.16,3.33,6.59-3.39,12.93-11.23,6.78-17.64-2.27-2.37-4.11-3.69-7.53-3.12-3.07.5-6.08,2.08-8.82,3.34-7.65,3.52-15.09,8-23.41,10.1-3.27.84-7.52.68-8.82-2.72-1.79-4.69,4.91-8.55,8.6-10.22,2.46-1.11.3-4.44-2.16-3.33Z"/><ellipse class="d" cx="32.03" cy="743.16" rx="5.76" ry="5.19"/><path class="d" d="M116.87,651.51a3.63,3.63,0,1,1-4,3.62A3.82,3.82,0,0,1,116.87,651.51Z"/><path class="d" d="M191,768.12c0,4.65-4.19,8.44-9.35,8.44s-9.36-3.79-9.36-8.44,4.2-8.44,9.36-8.44S191,763.47,191,768.12Zm-15.29,0c0,3,2.66,5.36,5.94,5.36a5.68,5.68,0,0,0,5.93-5.36c0-3-2.66-5.35-5.93-5.35S175.74,765.17,175.74,768.12Z"/><path class="e" d="M166.75,789.19c-7.94-.05-16.88-1.05-23.08-6-7.24-5.73-5.76-15.62.17-21.5,5-5,9.49-8,10.76-15,1.07-5.94-1.65-10.71-7.47-13.5-6.8-3.26-14.23-3.77-19.78-9.07-9.47-9.06,1.26-15.88,7.34-22.65a16.4,16.4,0,0,0,1.92-20c-4-6.39-12.67-9-20.34-9.11a35.33,35.33,0,0,0-6.16.61c-2.71.47-1.56,4.18,1.14,3.72,9.35-1.6,20.62,1.24,23.32,10.42,2.77,9.38-6.72,14.12-11.86,20.6-5.75,7.25-3.43,15,3.47,20.84,5.23,4.45,12.57,5.24,18.79,8,7.36,3.25,6.89,11.73,2,16.89-4.53,4.78-10,8.09-11.88,14.5-2.09,7,.78,14.66,7,19.1,5.92,4.23,13.9,5.51,21.24,5.92,1.15.06,2.29.08,3.44.08a1.93,1.93,0,1,0,0-3.85Z"/><path class="e" d="M-4.75,661.39c12.36-1.64,24.7-.46,37,.78,10.46,1.05,20.82,2.64,31.16,4.44-.43-.94-.85-1.89-1.28-2.83-5.55,10.85-13,20.68-20.84,30.25-6.56,7.94-14.83,14.52-21.44,22.41h3.69c-12.91-17.05-20.7-37.67-27.24-57.3-.79-2.38-4.92-1.37-4.12,1,6.63,19.91,14.58,40.93,27.67,58.22a2.3,2.3,0,0,0,3.69,0c6.34-7.55,14.31-13.83,20.63-21.43,8.19-9.85,15.91-20,21.65-31.23a1.9,1.9,0,0,0-1.28-2.83c-10.15-1.77-20.34-3.39-30.63-4.41-13.32-1.32-26.47-2.58-39.83-.81-2.72.36-1.56,4.07,1.14,3.72Z"/><path class="e" d="M205.92,739.7a94.11,94.11,0,0,0,7.3-11c3.73-6,7.61-11.88,11.81-17.61a1.79,1.79,0,0,0-.33-2.34c-8.77-7.52-21.39-10.13-32.11-14.59-1-.4-2.41-.33-2.93.69A277.65,277.65,0,0,1,173.28,723c-1.42,2.14,2.28,4.08,3.69,1.94a277.51,277.51,0,0,0,16.38-28.08l-2.92.69c10.32,4.3,22.82,6.76,31.24,14l-.33-2.34c-4.2,5.73-8.08,11.63-11.81,17.62a96.24,96.24,0,0,1-7.31,11c-1.66,2,2.06,3.9,3.7,2Z"/><path class="e" d="M85.17,827.7l40-11.78A2,2,0,1,0,124,812.2L84,824a1.94,1.94,0,1,0,1.14,3.71Z"/><path class="e" d="M80.24,815.68l40.49-11.93a2,2,0,1,0-1.14-3.72L79.1,812a2,2,0,1,0,1.14,3.72Z"/><path class="e" d="M146.51,657.58,184,674.75c2.45,1.12,4.61-2.2,2.15-3.33l-37.5-17.17c-2.45-1.12-4.61,2.21-2.15,3.33Z"/><path class="e" d="M152.59,645.8l38,17.39c2.45,1.13,4.62-2.2,2.16-3.33l-38-17.39c-2.45-1.12-4.61,2.21-2.16,3.33Z"/><path class="e" d="M158.62,633.86l38,17.39c2.45,1.12,4.62-2.2,2.16-3.33l-38-17.39c-2.45-1.12-4.61,2.2-2.16,3.33Z"/><path class="e" d="M68.32,642.5c2.33-7.56,4-15.32,5.82-23l-3.57.85c6.93,6,14.1,11.87,20.39,18.39a2.28,2.28,0,0,0,3.36-.39c3.49-6.93,7.84-13.54,10.41-20.82l-3.57.85c6.8,5.61,12.07,13.06,20.09,17.38a2.31,2.31,0,0,0,2.59-.3c5.19-5.91,6.36-13.68,9.29-20.56,1-2.33-3.15-3.32-4.12-1-2.62,6.14-3.57,13.6-8.19,18.86l2.59-.3c-7.66-4.12-12.73-11.42-19.23-16.78a2.26,2.26,0,0,0-3.57.85c-2.46,7-6.65,13.28-10,19.91L94,636c-6.29-6.51-13.46-12.42-20.39-18.39-1.1-1-3.22-.62-3.57.85-1.82,7.67-3.49,15.43-5.82,23-.75,2.41,3.38,3.42,4.12,1Z"/><path class="e" d="M59.16,711.91c-6.74,7.13-9.73,17.46.13,23.55a15.29,15.29,0,0,0,12.47,1.31c4.85-1.75,7.74-6.52,10.18-10.38,1.37-2.16-2.33-4.1-3.69-1.94-3.43,5.42-6.83,10.53-14.53,8.69-10.39-2.48-6.32-13.44-1.54-18.5,1.78-1.88-1.23-4.62-3-2.73Z"/><path class="e" d="M41.27,775.14c5.59-3.82,14.22-1.84,20.46-.66,8.07,1.52,16,3.72,24.17,4.72,6.36.78,12.53.54,17.54-3.45a13.67,13.67,0,0,0,4.46-14.83c-1.89-5.41-8.24-7.76-14.1-7.29-7,.57-12.1,5.55-16,10.32-3.62,4.45-6.35,9.41-10,13.86-5.34,6.56-10,16-20.75,14.55-2.7-.36-3.86,3.36-1.14,3.72a19.3,19.3,0,0,0,17.52-6.17A110.22,110.22,0,0,0,74.6,775.83C78,771,80.89,765.9,85.38,761.77s13.28-6.9,17.66-1.15c3.56,4.68-.08,11.31-4.88,13.86-5.65,3-14.39.65-20.27-.53-7.38-1.49-14.67-3.4-22.18-4.34-5.49-.69-11.94-1-16.6,2.2-2.17,1.48,0,4.83,2.16,3.33Z"/><path class="e" d="M81.21,702.74a95.62,95.62,0,0,1,7.68-9.46c1.7-1.92-1.3-4.67-3-2.73a101.46,101.46,0,0,0-8.34,10.25c-1.44,2.12,2.25,4.06,3.69,1.94Z"/><path class="e" d="M-28,754.85l38,17.4c2.45,1.12,4.62-2.21,2.16-3.33l-38-17.4c-2.45-1.12-4.62,2.21-2.16,3.33Z"/><path class="e" d="M-22,742.91,16,760.3c2.45,1.13,4.61-2.2,2.16-3.33l-38-17.39c-2.45-1.12-4.62,2.21-2.16,3.33Z"/><path class="d" d="M43.57,607.5c0,4.65-4.2,8.44-9.35,8.44s-9.36-3.79-9.36-8.44,4.2-8.44,9.36-8.44S43.57,602.84,43.57,607.5Zm-15.29,0c0,3,2.66,5.35,5.94,5.35s5.93-2.4,5.93-5.35a5.67,5.67,0,0,0-5.93-5.36A5.67,5.67,0,0,0,28.28,607.5Z"/><path class="e" d="M19.29,628.56c-7.94,0-16.88-1-23.08-5.95-7.24-5.72-5.77-15.61.17-21.49,5-5,9.49-8,10.76-15,1.07-5.94-1.65-10.72-7.47-13.51-6.8-3.26-14.23-3.76-19.78-9.06-9.47-9.06,1.26-15.88,7.34-22.65a16.43,16.43,0,0,0,1.92-20c-4-6.38-12.67-9-20.34-9.1a34.39,34.39,0,0,0-6.16.61c-2.71.46-1.56,4.18,1.13,3.72,9.36-1.6,20.63,1.23,23.33,10.42,2.76,9.38-6.73,14.12-11.86,20.6-5.75,7.25-3.43,14.95,3.47,20.83,5.22,4.45,12.57,5.25,18.79,8,7.36,3.26,6.88,11.74,2,16.89-4.54,4.79-10,8.1-11.88,14.51-2.09,7,.78,14.66,7,19.09,5.92,4.24,13.9,5.52,21.24,5.93,1.15.06,2.29.07,3.44.08a1.93,1.93,0,1,0,0-3.86Z"/><path class="e" d="M58.45,579.07c2.84-3.39,5-7.26,7.31-11,3.73-6,7.61-11.88,11.81-17.61a1.79,1.79,0,0,0-.33-2.34c-8.77-7.53-21.39-10.13-32.11-14.59-1-.41-2.41-.33-2.93.69a279.4,279.4,0,0,1-16.38,28.08c-1.42,2.14,2.27,4.08,3.69,1.95a278.61,278.61,0,0,0,16.38-28.08L43,536.9c10.32,4.29,22.81,6.75,31.24,14l-.33-2.34c-4.2,5.73-8.08,11.63-11.81,17.61a95.48,95.48,0,0,1-7.31,11c-1.66,2,2.06,3.9,3.69,1.94Z"/><path class="e" d="M-1,497l37.51,17.17c2.45,1.12,4.61-2.21,2.15-3.33L1.2,493.63c-2.45-1.12-4.61,2.2-2.16,3.33Z"/><path class="e" d="M5.13,485.18l38,17.39c2.45,1.12,4.62-2.2,2.16-3.33l-38-17.39c-2.45-1.12-4.62,2.2-2.16,3.33Z"/><path class="e" d="M11.16,473.24l38,17.39c2.45,1.12,4.62-2.21,2.16-3.33l-38-17.39c-2.45-1.13-4.62,2.2-2.16,3.33Z"/><path class="d" d="M753,171.35a5.22,5.22,0,1,1-5.75,5.19A5.5,5.5,0,0,1,753,171.35Z"/><path class="d" d="M837.79,84.9a3.63,3.63,0,1,1-4,3.61A3.82,3.82,0,0,1,837.79,84.9Z"/><path class="e" d="M887.67,222.57c-7.94,0-16.88-1-23.08-5.95-7.24-5.72-5.76-15.61.18-21.49,5-5,9.48-8,10.75-15,1.07-6-1.65-10.72-7.47-13.51-6.8-3.26-14.23-3.76-19.78-9.07-9.47-9.05,1.26-15.87,7.34-22.64a16.42,16.42,0,0,0,1.92-20c-4-6.39-12.66-9-20.34-9.1a33.5,33.5,0,0,0-6.16.61c-2.71.46-1.56,4.18,1.14,3.72,9.35-1.6,20.62,1.23,23.33,10.42,2.76,9.37-6.73,14.12-11.86,20.59-5.75,7.26-3.44,15,3.46,20.84,5.23,4.45,12.57,5.25,18.79,8,7.36,3.26,6.89,11.74,2,16.89-4.53,4.79-9.95,8.1-11.88,14.5-2.09,7,.78,14.67,7,19.1,5.92,4.24,13.9,5.52,21.24,5.92,1.15.07,2.29.08,3.44.09a1.93,1.93,0,1,0,0-3.86Z"/><path class="e" d="M716.17,94.77c12.36-1.63,24.7-.45,37,.79,10.47,1,20.82,2.63,31.16,4.44l-1.28-2.84c-5.55,10.85-13,20.69-20.84,30.25-6.56,8-14.82,14.53-21.44,22.41h3.69c-12.91-17-20.7-37.66-27.24-57.3-.79-2.38-4.92-1.36-4.12,1,6.63,19.91,14.58,40.93,27.67,58.22a2.31,2.31,0,0,0,3.69,0c6.34-7.55,14.31-13.84,20.63-21.43,8.19-9.86,15.92-20,21.65-31.23a1.9,1.9,0,0,0-1.27-2.83c-10.16-1.77-20.35-3.4-30.64-4.42-13.32-1.32-26.47-2.57-39.83-.81-2.72.36-1.56,4.08,1.14,3.72Z"/><path class="e" d="M806.09,261.09l40-11.78a2,2,0,1,0-1.13-3.72l-40,11.78a2,2,0,1,0,1.14,3.72Z"/><path class="e" d="M801.16,249.07l40.49-11.94a2,2,0,1,0-1.13-3.72L800,245.35a2,2,0,1,0,1.14,3.72Z"/><path class="e" d="M867.43,91l37.5,17.17c2.45,1.12,4.61-2.21,2.16-3.33L869.58,87.64c-2.45-1.13-4.61,2.2-2.15,3.33Z"/><path class="e" d="M789.24,75.89c2.34-7.57,4-15.33,5.82-23l-3.57.85c6.93,6,14.1,11.88,20.39,18.4a2.29,2.29,0,0,0,3.36-.39c3.49-6.94,7.84-13.54,10.41-20.83l-3.57.85c6.8,5.61,12.07,13.06,20.09,17.38a2.28,2.28,0,0,0,2.59-.3c5.19-5.9,6.36-13.68,9.29-20.56,1-2.32-3.14-3.32-4.12-1-2.62,6.13-3.57,13.6-8.19,18.86l2.59-.31C836.67,61.7,831.6,54.41,825.1,49a2.26,2.26,0,0,0-3.57.86c-2.46,7-6.65,13.27-10,19.9l3.35-.39C808.61,62.89,801.44,57,794.52,51c-1.11-1-3.23-.62-3.58.85-1.82,7.67-3.49,15.43-5.82,23-.74,2.4,3.38,3.42,4.12,1Z"/><path class="e" d="M780.08,145.3c-6.74,7.12-9.73,17.46.13,23.54a15.25,15.25,0,0,0,12.47,1.32c4.85-1.75,7.74-6.52,10.18-10.38,1.37-2.17-2.33-4.11-3.69-1.95-3.43,5.42-6.83,10.53-14.53,8.7-10.39-2.49-6.32-13.45-1.54-18.5,1.78-1.88-1.23-4.63-3-2.73Z"/><path class="e" d="M762.19,208.52c5.59-3.82,14.22-1.84,20.46-.66,8.07,1.53,16,3.73,24.17,4.73,6.36.78,12.53.54,17.54-3.45a13.68,13.68,0,0,0,4.46-14.84c-1.89-5.41-8.24-7.76-14.1-7.28-7,.57-12.1,5.54-16,10.32-3.63,4.44-6.36,9.4-10,13.85-5.34,6.56-10,16-20.75,14.56-2.7-.36-3.86,3.35-1.14,3.72a19.3,19.3,0,0,0,17.52-6.17,112.63,112.63,0,0,0,11.15-14.08c3.36-4.87,6.28-9.94,10.77-14.06s13.28-6.9,17.66-1.15c3.56,4.68-.08,11.3-4.88,13.86-5.64,3-14.39.65-20.26-.54-7.39-1.48-14.68-3.39-22.19-4.34-5.49-.69-11.94-1-16.6,2.2-2.17,1.48,0,4.83,2.16,3.33Z"/><path class="e" d="M802.13,136.13a94.59,94.59,0,0,1,7.68-9.47c1.7-1.92-1.3-4.67-3-2.72a103.89,103.89,0,0,0-8.34,10.24c-1.44,2.13,2.26,4.07,3.69,1.95Z"/><path class="e" d="M692.92,188.24l38,17.39c2.45,1.12,4.62-2.2,2.16-3.33l-38-17.39c-2.45-1.12-4.62,2.2-2.16,3.33Z"/><path class="e" d="M699,176.3l38,17.39c2.45,1.12,4.62-2.21,2.16-3.33l-38-17.39c-2.45-1.13-4.62,2.2-2.16,3.33Z"/><path class="e" d="M663.36,118c-6.57,3-13.5,9-9.85,16.16,3.11,6.06,11.79,4.54,17.17,2.68,8-2.75,15.22-7,22.86-10.35a36,36,0,0,1,4.55-1.71c1.81-.52,2.15-.16,3.58,1.06,5.24,4.47-.6,10.1-5.11,12.42-2.39,1.23-.24,4.57,2.16,3.33,6.59-3.39,12.93-11.23,6.78-17.64-2.27-2.37-4.11-3.69-7.53-3.12-3.07.5-6.08,2.08-8.82,3.34-7.65,3.52-15.08,8-23.41,10.1-3.27.84-7.52.68-8.82-2.72-1.79-4.69,4.91-8.55,8.6-10.22,2.47-1.11.3-4.44-2.16-3.33Z"/><path class="e" d="M867.66,257.79c12.36-1.64,24.7-.46,37,.78,10.47,1.05,20.83,2.64,31.16,4.44-.43-.95-.85-1.89-1.28-2.83-5.55,10.85-13,20.68-20.84,30.24-6.56,7.95-14.82,14.53-21.44,22.41H896c-12.91-17-20.7-37.66-27.24-57.3-.79-2.37-4.92-1.36-4.12,1,6.63,19.91,14.58,40.93,27.67,58.22a2.3,2.3,0,0,0,3.69,0c6.34-7.55,14.32-13.84,20.63-21.43,8.19-9.86,15.92-20,21.65-31.23a1.9,1.9,0,0,0-1.27-2.83c-10.16-1.77-20.35-3.39-30.64-4.41-13.32-1.32-26.47-2.58-39.83-.81-2.72.36-1.55,4.07,1.14,3.72Z"/><path class="e" d="M844.41,351.25l38,17.39c2.45,1.13,4.62-2.2,2.16-3.33l-38-17.39c-2.45-1.12-4.62,2.21-2.16,3.33Z"/><path class="e" d="M850.44,339.31l38,17.39c2.45,1.12,4.62-2.2,2.16-3.33L852.6,336c-2.45-1.12-4.62,2.2-2.16,3.33Z"/><path class="e" d="M814.85,281c-6.57,3-13.5,9-9.84,16.16,3.1,6.06,11.78,4.54,17.16,2.68,8-2.75,15.22-7,22.86-10.35a36.12,36.12,0,0,1,4.56-1.7c1.81-.53,2.15-.17,3.57,1.05,5.24,4.47-.6,10.1-5.1,12.43-2.4,1.23-.24,4.56,2.15,3.33,6.59-3.4,12.93-11.24,6.78-17.65-2.27-2.36-4.11-3.68-7.53-3.12-3.07.51-6.08,2.08-8.82,3.34-7.65,3.53-15.08,8-23.41,10.11-3.26.83-7.52.67-8.82-2.73-1.79-4.69,4.91-8.54,8.6-10.22,2.47-1.11.3-4.44-2.16-3.33Z"/><path class="d" d="M596.75,8.75a5.5,5.5,0,0,1,5.76,5.2A5.79,5.79,0,0,1,591,14,5.49,5.49,0,0,1,596.75,8.75Z"/><path class="d" d="M755.75,38.91c0,4.66-4.19,8.44-9.35,8.44S737,43.57,737,38.91s4.2-8.44,9.36-8.44S755.75,34.26,755.75,38.91Zm-15.29,0c0,3,2.67,5.36,5.94,5.36a5.68,5.68,0,0,0,5.93-5.36c0-2.95-2.66-5.35-5.93-5.35S740.46,36,740.46,38.91Z"/><path class="e" d="M731.47,60c-7.94,0-16.88-1-23.08-5.95-7.24-5.73-5.76-15.62.18-21.5,5-5,9.48-8,10.75-15,1.07-5.94-1.65-10.71-7.47-13.5C705.05.75,697.62.24,692.07-5.06c-9.47-9,1.26-15.88,7.34-22.65a16.4,16.4,0,0,0,1.92-20c-4-6.39-12.66-9-20.34-9.11a34.4,34.4,0,0,0-6.16.62c-2.71.46-1.56,4.18,1.14,3.72,9.35-1.6,20.62,1.23,23.33,10.41,2.76,9.38-6.73,14.12-11.86,20.6-5.75,7.26-3.44,15,3.46,20.84,5.23,4.45,12.57,5.24,18.79,8,7.36,3.25,6.89,11.74,2,16.89-4.53,4.78-10,8.09-11.88,14.5-2.09,7,.78,14.66,7,19.1,5.92,4.24,13.9,5.51,21.24,5.92,1.15.06,2.29.08,3.44.08a1.93,1.93,0,1,0,0-3.85Z"/><path class="e" d="M770.64,10.49a94.11,94.11,0,0,0,7.3-11c3.73-6,7.61-11.88,11.81-17.61a1.79,1.79,0,0,0-.33-2.34C780.65-27.95,768-30.56,757.31-35c-1-.4-2.41-.33-2.93.69A277.65,277.65,0,0,1,738-6.24c-1.42,2.14,2.28,4.08,3.69,2a278.85,278.85,0,0,0,16.39-28.09l-2.93.69c10.32,4.3,22.82,6.76,31.24,14L786.06-20c-4.2,5.73-8.07,11.63-11.81,17.62-2.31,3.69-4.46,7.56-7.3,11-1.67,2,2,3.91,3.69,2Z"/><path class="e" d="M649.89,98.5l40-11.79A1.94,1.94,0,1,0,688.73,83l-40,11.78a2,2,0,1,0,1.14,3.72Z"/><path class="e" d="M645,86.47l40.49-11.93a2,2,0,1,0-1.13-3.72l-40.5,11.93A2,2,0,1,0,645,86.47Z"/><path class="e" d="M623.88-17.29c-6.74,7.12-9.73,17.45.13,23.54a15.25,15.25,0,0,0,12.47,1.31c4.85-1.75,7.74-6.52,10.18-10.38C648-5,644.33-6.92,643-4.76c-3.43,5.42-6.83,10.53-14.53,8.69-10.39-2.48-6.32-13.44-1.54-18.5,1.78-1.88-1.23-4.62-3-2.72Z"/><path class="e" d="M606,45.93c5.59-3.82,14.22-1.84,20.46-.66,8.07,1.53,16,3.72,24.17,4.73,6.36.78,12.53.53,17.54-3.46a13.67,13.67,0,0,0,4.46-14.83c-1.89-5.41-8.24-7.76-14.1-7.28-7,.56-12.1,5.54-16,10.32-3.63,4.44-6.36,9.4-10,13.85-5.34,6.56-10,16-20.75,14.55-2.7-.36-3.86,3.36-1.14,3.72a19.3,19.3,0,0,0,17.52-6.17,111.19,111.19,0,0,0,11.15-14.08c3.36-4.86,6.28-9.93,10.77-14.06s13.28-6.9,17.66-1.15c3.56,4.68-.08,11.31-4.88,13.87-5.64,3-14.39.64-20.26-.54-7.39-1.49-14.68-3.4-22.19-4.34-5.49-.69-11.93-1-16.6,2.2-2.17,1.48,0,4.83,2.16,3.33Z"/><path class="e" d="M536.72,25.65l38,17.39c2.45,1.12,4.62-2.21,2.16-3.33l-38-17.39c-2.45-1.13-4.62,2.2-2.16,3.33Z"/><path class="e" d="M542.75,13.7l38,17.39c2.45,1.13,4.62-2.2,2.16-3.33l-38-17.39c-2.45-1.12-4.62,2.21-2.16,3.33Z"/><path class="d" d="M615.32,351.68a5.22,5.22,0,1,1-5.76,5.19A5.5,5.5,0,0,1,615.32,351.68Z"/><path class="d" d="M700.16,265.23a3.63,3.63,0,1,1-4,3.61A3.82,3.82,0,0,1,700.16,265.23Z"/><path class="d" d="M774.32,381.84c0,4.65-4.19,8.44-9.35,8.44s-9.36-3.79-9.36-8.44,4.2-8.44,9.36-8.44S774.32,377.18,774.32,381.84Zm-15.29,0c0,3,2.67,5.35,5.94,5.35s5.93-2.4,5.93-5.35a5.67,5.67,0,0,0-5.93-5.36C761.7,376.48,759,378.88,759,381.84Z"/><path class="e" d="M750,402.9c-7.94,0-16.88-1-23.08-5.95-7.24-5.72-5.76-15.61.18-21.49,5-5,9.48-8,10.75-15,1.07-5.94-1.65-10.72-7.47-13.51-6.8-3.26-14.23-3.76-19.78-9.07-9.47-9.05,1.26-15.87,7.34-22.64a16.41,16.41,0,0,0,1.92-20c-4-6.38-12.66-9-20.34-9.1a34.39,34.39,0,0,0-6.16.61c-2.71.46-1.56,4.18,1.14,3.72,9.35-1.6,20.62,1.23,23.32,10.42,2.77,9.38-6.72,14.12-11.85,20.6-5.75,7.25-3.44,14.95,3.46,20.83,5.23,4.45,12.57,5.25,18.79,8,7.36,3.26,6.89,11.74,2,16.89-4.53,4.79-9.95,8.1-11.88,14.51-2.09,7,.78,14.66,7,19.09,5.92,4.24,13.9,5.52,21.24,5.93,1.15.06,2.29.07,3.44.08a1.93,1.93,0,1,0,0-3.86Z"/><path class="e" d="M578.54,275.1c12.36-1.63,24.7-.45,37,.79,10.47,1.05,20.82,2.64,31.16,4.44l-1.28-2.84c-5.55,10.86-13,20.69-20.84,30.25-6.56,7.95-14.82,14.53-21.44,22.41h3.69c-12.91-17-20.7-37.66-27.24-57.3-.79-2.37-4.92-1.36-4.12,1,6.63,19.91,14.58,40.93,27.67,58.22a2.31,2.31,0,0,0,3.69,0c6.34-7.55,14.31-13.84,20.63-21.43,8.19-9.86,15.92-20,21.65-31.23a1.9,1.9,0,0,0-1.27-2.83c-10.16-1.77-20.35-3.4-30.64-4.41-13.32-1.32-26.47-2.58-39.83-.82-2.72.36-1.56,4.08,1.14,3.72Z"/><path class="e" d="M789.21,353.41a93.16,93.16,0,0,0,7.3-11c3.73-6,7.61-11.89,11.81-17.61a1.79,1.79,0,0,0-.33-2.34c-8.77-7.53-21.39-10.13-32.11-14.59-1-.41-2.41-.33-2.93.69a277.51,277.51,0,0,1-16.38,28.08c-1.42,2.14,2.28,4.08,3.69,1.95a276.72,276.72,0,0,0,16.38-28.08l-2.92.69c10.32,4.29,22.82,6.75,31.24,14l-.33-2.34c-4.2,5.73-8.07,11.63-11.81,17.61-2.31,3.7-4.46,7.57-7.31,11-1.66,2,2.06,3.9,3.7,1.94Z"/><path class="e" d="M668.46,441.42l40-11.78a2,2,0,1,0-1.13-3.72l-40,11.78a2,2,0,1,0,1.14,3.72Z"/><path class="e" d="M663.53,429.4,704,417.46a2,2,0,1,0-1.13-3.72l-40.5,11.94a2,2,0,1,0,1.14,3.72Z"/><path class="e" d="M729.8,271.3l37.5,17.17c2.45,1.12,4.61-2.21,2.16-3.33L732,268c-2.45-1.12-4.61,2.2-2.15,3.33Z"/><path class="e" d="M735.89,259.52l38,17.39c2.46,1.12,4.62-2.2,2.16-3.33l-38-17.39c-2.45-1.13-4.61,2.2-2.15,3.33Z"/><path class="e" d="M741.91,247.57l38,17.4c2.46,1.12,4.62-2.21,2.16-3.33l-38-17.4c-2.45-1.12-4.61,2.21-2.16,3.33Z"/><path class="e" d="M651.61,256.22c2.33-7.56,4-15.32,5.82-23l-3.57.85c6.93,6,14.1,11.88,20.39,18.4a2.28,2.28,0,0,0,3.36-.39c3.49-6.94,7.84-13.54,10.41-20.83l-3.57.85c6.8,5.62,12.07,13.07,20.09,17.39a2.3,2.3,0,0,0,2.59-.31c5.19-5.9,6.36-13.68,9.29-20.56,1-2.32-3.15-3.32-4.12-1-2.62,6.14-3.57,13.6-8.19,18.86l2.59-.3C699,242,694,234.74,687.47,229.38a2.25,2.25,0,0,0-3.57.85c-2.46,7-6.65,13.27-10,19.9l3.35-.39c-6.29-6.52-13.46-12.43-20.39-18.39-1.1-.95-3.22-.62-3.57.85-1.82,7.67-3.49,15.43-5.82,23-.75,2.4,3.38,3.42,4.12,1Z"/><path class="e" d="M642.45,325.63c-6.74,7.12-9.73,17.46.13,23.54a15.25,15.25,0,0,0,12.47,1.32c4.85-1.75,7.74-6.52,10.18-10.38,1.37-2.16-2.33-4.11-3.69-1.95-3.43,5.42-6.83,10.54-14.53,8.7-10.39-2.48-6.32-13.45-1.54-18.5,1.78-1.88-1.23-4.62-3-2.73Z"/><path class="e" d="M624.56,388.85c5.59-3.81,14.22-1.84,20.46-.66,8.07,1.53,16,3.73,24.17,4.73,6.36.78,12.53.54,17.54-3.45a13.67,13.67,0,0,0,4.46-14.83c-1.89-5.42-8.24-7.77-14.1-7.29-7,.57-12.1,5.54-16,10.32-3.62,4.44-6.35,9.4-10,13.85-5.34,6.57-10,16-20.75,14.56-2.7-.36-3.86,3.35-1.14,3.72a19.3,19.3,0,0,0,17.52-6.17,111.63,111.63,0,0,0,11.14-14.08c3.37-4.87,6.29-9.93,10.78-14.06s13.28-6.9,17.66-1.15c3.56,4.68-.08,11.31-4.88,13.86-5.64,3-14.39.65-20.26-.54-7.39-1.48-14.68-3.39-22.19-4.34-5.49-.69-11.94-1-16.6,2.2-2.17,1.48,0,4.83,2.16,3.33Z"/><path class="e" d="M664.5,316.46a93.36,93.36,0,0,1,7.68-9.46c1.7-1.93-1.3-4.67-3-2.73a102.47,102.47,0,0,0-8.34,10.24c-1.44,2.13,2.26,4.07,3.69,1.95Z"/><path class="e" d="M555.29,368.57l38,17.39c2.45,1.13,4.62-2.2,2.16-3.33l-38-17.39c-2.45-1.12-4.62,2.2-2.16,3.33Z"/><path class="e" d="M561.32,356.63l38,17.39c2.45,1.12,4.62-2.2,2.16-3.33l-38-17.39c-2.45-1.13-4.62,2.2-2.16,3.33Z"/><path class="e" d="M525.73,298.34c-6.57,3-13.5,9-9.85,16.16,3.11,6.06,11.79,4.54,17.17,2.68,8-2.75,15.22-7,22.86-10.35a34.5,34.5,0,0,1,4.55-1.7c1.81-.53,2.15-.17,3.58,1.05,5.23,4.47-.6,10.1-5.11,12.42-2.39,1.24-.24,4.57,2.16,3.33,6.59-3.39,12.93-11.23,6.78-17.64-2.27-2.36-4.11-3.68-7.53-3.12-3.07.51-6.08,2.08-8.82,3.34-7.65,3.53-15.08,8-23.41,10.1-3.27.84-7.52.68-8.82-2.72-1.79-4.69,4.91-8.54,8.6-10.22,2.46-1.11.3-4.44-2.16-3.33Z"/><path class="d" d="M470.77,540.22a5.22,5.22,0,1,1-5.75,5.2A5.5,5.5,0,0,1,470.77,540.22Z"/><path class="d" d="M555.61,453.77a3.63,3.63,0,1,1-4,3.62A3.82,3.82,0,0,1,555.61,453.77Z"/><path class="d" d="M629.78,570.38c0,4.65-4.2,8.44-9.36,8.44s-9.36-3.79-9.36-8.44,4.2-8.44,9.36-8.44S629.78,565.73,629.78,570.38Zm-15.3,0c0,3,2.67,5.36,5.94,5.36s5.94-2.41,5.94-5.36-2.67-5.35-5.94-5.35S614.48,567.43,614.48,570.38Z"/><path class="e" d="M605.49,591.44c-7.94,0-16.87-1-23.07-5.94-7.25-5.73-5.77-15.62.17-21.5,5-5,9.48-8,10.75-15,1.08-5.94-1.64-10.71-7.47-13.5-6.8-3.26-14.23-3.77-19.77-9.07-9.48-9.06,1.26-15.88,7.33-22.65a16.4,16.4,0,0,0,1.92-20c-4-6.39-12.66-9-20.33-9.11a35.35,35.35,0,0,0-6.17.61c-2.71.47-1.56,4.18,1.14,3.72,9.35-1.6,20.62,1.24,23.33,10.42,2.76,9.38-6.73,14.12-11.86,20.6-5.75,7.25-3.44,15,3.47,20.84,5.22,4.45,12.56,5.24,18.79,8,7.35,3.25,6.88,11.73,2,16.88-4.53,4.79-10,8.1-11.88,14.51-2.09,7,.78,14.66,7,19.1,5.91,4.23,13.89,5.51,21.24,5.92,1.14.06,2.29.08,3.43.08a1.93,1.93,0,1,0,0-3.86Z"/><path class="e" d="M434,463.65c12.36-1.64,24.7-.46,37,.78,10.47,1.05,20.83,2.64,31.16,4.44-.43-.94-.85-1.89-1.28-2.83-5.55,10.85-13,20.68-20.84,30.25-6.56,7.94-14.82,14.52-21.44,22.41h3.69c-12.91-17.05-20.7-37.67-27.24-57.31-.79-2.37-4.92-1.36-4.12,1,6.63,19.91,14.58,40.93,27.67,58.22a2.3,2.3,0,0,0,3.69,0c6.34-7.55,14.32-13.84,20.63-21.43,8.19-9.86,15.92-20,21.65-31.23a1.9,1.9,0,0,0-1.27-2.83c-10.16-1.77-20.35-3.39-30.64-4.41-13.32-1.32-26.47-2.58-39.83-.81-2.71.36-1.55,4.07,1.14,3.72Z"/><path class="e" d="M644.66,542a94.11,94.11,0,0,0,7.3-11c3.73-6,7.61-11.88,11.81-17.61a1.79,1.79,0,0,0-.33-2.34c-8.77-7.52-21.39-10.13-32.11-14.59-1-.4-2.41-.33-2.93.69A275.78,275.78,0,0,1,612,525.23c-1.42,2.14,2.28,4.08,3.69,1.94a277.6,277.6,0,0,0,16.39-28.08l-2.93.69c10.32,4.3,22.82,6.76,31.25,14-.12-.78-.23-1.56-.34-2.34-4.2,5.73-8.07,11.63-11.81,17.62-2.31,3.69-4.46,7.56-7.3,11-1.67,2,2,3.9,3.69,2Z"/><path class="e" d="M523.91,630l40-11.78a2,2,0,1,0-1.13-3.72l-40,11.79a1.94,1.94,0,1,0,1.14,3.71Z"/><path class="e" d="M519,617.94,559.47,606a2,2,0,1,0-1.13-3.72l-40.5,11.93a2,2,0,1,0,1.14,3.72Z"/><path class="e" d="M585.25,459.84,622.75,477c2.45,1.12,4.62-2.2,2.16-3.33l-37.5-17.17c-2.46-1.12-4.62,2.21-2.16,3.33Z"/><path class="e" d="M591.34,448.06l38,17.39c2.46,1.13,4.62-2.2,2.16-3.33l-38-17.39c-2.45-1.12-4.61,2.21-2.15,3.33Z"/><path class="e" d="M597.37,436.12l38,17.39c2.46,1.12,4.62-2.2,2.16-3.33l-38-17.39c-2.45-1.13-4.61,2.2-2.15,3.33Z"/><path class="e" d="M507.06,444.76c2.34-7.56,4-15.32,5.83-23l-3.58.85c6.93,6,14.1,11.87,20.39,18.39a2.28,2.28,0,0,0,3.36-.39c3.49-6.93,7.84-13.54,10.41-20.82l-3.57.85C546.7,426.26,552,433.71,560,438a2.31,2.31,0,0,0,2.59-.3c5.19-5.91,6.36-13.68,9.29-20.56,1-2.33-3.14-3.32-4.12-1-2.62,6.14-3.57,13.6-8.19,18.86l2.59-.3c-7.66-4.12-12.72-11.42-19.23-16.78a2.26,2.26,0,0,0-3.57.85c-2.46,7-6.64,13.27-10,19.9l3.36-.39c-6.3-6.51-13.47-12.42-20.39-18.39-1.11-.95-3.23-.62-3.58.85-1.82,7.67-3.49,15.43-5.82,23-.74,2.4,3.38,3.42,4.12,1Z"/><path class="e" d="M497.9,514.17c-6.74,7.13-9.73,17.46.13,23.55A15.29,15.29,0,0,0,510.5,539c4.85-1.75,7.74-6.52,10.18-10.38,1.37-2.16-2.32-4.1-3.69-1.94-3.43,5.42-6.83,10.53-14.53,8.69-10.39-2.48-6.32-13.44-1.54-18.5,1.78-1.88-1.23-4.62-3-2.73Z"/><path class="e" d="M480,577.4c5.59-3.82,14.22-1.84,20.46-.66,8.07,1.52,16,3.72,24.17,4.72,6.36.78,12.53.54,17.54-3.45a13.67,13.67,0,0,0,4.46-14.83c-1.89-5.41-8.24-7.76-14.1-7.29-7,.57-12.1,5.55-16,10.32-3.63,4.45-6.36,9.41-10,13.86-5.34,6.56-10,16-20.75,14.55-2.7-.36-3.86,3.36-1.14,3.72a19.3,19.3,0,0,0,17.52-6.17,111.9,111.9,0,0,0,11.15-14.08c3.36-4.86,6.28-9.93,10.77-14.06s13.28-6.9,17.66-1.15c3.56,4.68-.08,11.31-4.88,13.86-5.64,3-14.39.65-20.26-.53-7.39-1.49-14.68-3.4-22.19-4.34-5.49-.69-11.93-1-16.6,2.19-2.17,1.49,0,4.84,2.16,3.34Z"/><path class="e" d="M520,505a95.62,95.62,0,0,1,7.68-9.46c1.7-1.92-1.3-4.67-3-2.73a101.56,101.56,0,0,0-8.35,10.25c-1.44,2.12,2.26,4.06,3.69,1.94Z"/><path class="e" d="M410.74,557.11l38,17.4c2.45,1.12,4.62-2.21,2.16-3.33l-38-17.4c-2.45-1.12-4.62,2.21-2.16,3.33Z"/><path class="e" d="M416.77,545.17l38,17.39c2.45,1.13,4.62-2.2,2.16-3.33l-38-17.39c-2.45-1.12-4.62,2.21-2.16,3.33Z"/><path class="e" d="M381.18,486.89c-6.57,3-13.5,9-9.84,16.15,3.1,6.07,11.78,4.54,17.16,2.68,8-2.75,15.22-7,22.86-10.35a36.12,36.12,0,0,1,4.56-1.7c1.81-.53,2.15-.17,3.57,1.05,5.24,4.47-.6,10.11-5.1,12.43-2.4,1.23-.24,4.56,2.15,3.33,6.59-3.4,12.93-11.24,6.78-17.65-2.27-2.36-4.11-3.68-7.53-3.12-3.07.51-6.08,2.08-8.82,3.34-7.65,3.53-15.08,8-23.41,10.11-3.26.83-7.52.67-8.82-2.73-1.79-4.69,4.91-8.54,8.6-10.21,2.47-1.12.3-4.45-2.16-3.33Z"/><path class="d" d="M329.87,721.54a5.22,5.22,0,1,1-5.76,5.19A5.49,5.49,0,0,1,329.87,721.54Z"/><path class="d" d="M414.7,635.09a3.63,3.63,0,1,1-4,3.61A3.83,3.83,0,0,1,414.7,635.09Z"/><path class="d" d="M488.87,751.7c0,4.65-4.2,8.44-9.36,8.44s-9.35-3.79-9.35-8.44,4.19-8.44,9.35-8.44S488.87,747,488.87,751.7Zm-15.29,0c0,2.95,2.66,5.35,5.93,5.35s5.94-2.4,5.94-5.35a6,6,0,0,0-11.87,0Z"/><path class="e" d="M464.58,772.76c-7.94,0-16.87-1-23.07-6-7.24-5.72-5.77-15.61.17-21.49,5-5,9.48-8,10.75-15,1.08-5.94-1.64-10.72-7.46-13.51-6.8-3.26-14.23-3.76-19.78-9.07-9.48-9.05,1.26-15.87,7.34-22.64a16.43,16.43,0,0,0,1.92-20c-4-6.38-12.67-9-20.34-9.1a34.5,34.5,0,0,0-6.17.61c-2.7.46-1.55,4.18,1.14,3.72,9.36-1.6,20.62,1.23,23.33,10.42,2.76,9.38-6.73,14.12-11.86,20.6-5.75,7.25-3.44,15,3.47,20.83,5.22,4.45,12.56,5.25,18.79,8,7.36,3.26,6.88,11.74,2,16.89-4.53,4.79-9.95,8.1-11.87,14.51-2.09,7,.78,14.66,7,19.09,5.92,4.24,13.89,5.52,21.24,5.93,1.14.06,2.29.07,3.43.08a1.93,1.93,0,1,0,0-3.86Z"/><path class="e" d="M293.08,645c12.36-1.63,24.71-.45,37,.79,10.46,1,20.82,2.64,31.15,4.44-.42-1-.85-1.89-1.27-2.84-5.55,10.86-13,20.69-20.85,30.25-6.55,7.95-14.82,14.53-21.44,22.41h3.7c-12.91-17-20.71-37.66-27.25-57.3-.79-2.37-4.91-1.36-4.12,1,6.63,19.91,14.58,40.93,27.67,58.22a2.32,2.32,0,0,0,3.7,0c6.33-7.55,14.31-13.84,20.62-21.43,8.2-9.86,15.92-20,21.66-31.23a1.9,1.9,0,0,0-1.28-2.83c-10.15-1.77-20.35-3.4-30.63-4.41-13.33-1.32-26.48-2.58-39.83-.82-2.72.36-1.56,4.08,1.13,3.72Z"/><path class="e" d="M503.75,723.27c2.84-3.39,5-7.26,7.31-11,3.72-6,7.61-11.89,11.81-17.62a1.78,1.78,0,0,0-.34-2.33c-8.77-7.53-21.39-10.13-32.11-14.59-1-.41-2.41-.33-2.92.69a277.6,277.6,0,0,1-16.39,28.08c-1.42,2.14,2.28,4.08,3.69,2a278.7,278.7,0,0,0,16.39-28.08l-2.93.69c10.33,4.29,22.82,6.75,31.25,14l-.34-2.34c-4.2,5.73-8.07,11.63-11.81,17.61-2.31,3.7-4.46,7.57-7.3,11-1.66,2,2.05,3.9,3.69,1.94Z"/><path class="e" d="M383,811.28l40-11.78a2,2,0,1,0-1.14-3.72l-40,11.78a2,2,0,1,0,1.14,3.72Z"/><path class="e" d="M378.07,799.26l40.5-11.94a2,2,0,1,0-1.14-3.72l-40.49,11.94a2,2,0,1,0,1.13,3.72Z"/><path class="e" d="M444.34,641.16l37.5,17.17c2.45,1.12,4.62-2.21,2.16-3.33l-37.5-17.17c-2.45-1.12-4.62,2.2-2.16,3.33Z"/><path class="e" d="M450.43,629.38l38,17.39c2.45,1.12,4.61-2.2,2.16-3.33l-38-17.39c-2.45-1.13-4.62,2.2-2.16,3.33Z"/><path class="e" d="M456.46,617.43l38,17.4c2.45,1.12,4.61-2.21,2.16-3.33l-38-17.4c-2.46-1.12-4.62,2.21-2.16,3.33Z"/><path class="e" d="M366.15,626.08c2.34-7.56,4-15.32,5.83-23l-3.57.85c6.92,6,14.09,11.88,20.39,18.4a2.28,2.28,0,0,0,3.35-.39c3.49-6.94,7.84-13.54,10.41-20.83L399,602c6.8,5.62,12.07,13.07,20.09,17.39a2.31,2.31,0,0,0,2.6-.31c5.19-5.9,6.35-13.68,9.28-20.56,1-2.32-3.14-3.32-4.12-1-2.61,6.14-3.57,13.6-8.19,18.86l2.59-.3c-7.65-4.13-12.72-11.42-19.23-16.78a2.26,2.26,0,0,0-3.57.85c-2.46,7-6.64,13.27-10,19.9l3.36-.39c-6.29-6.52-13.47-12.43-20.39-18.39-1.1-1-3.23-.62-3.57.85-1.83,7.67-3.49,15.43-5.83,23-.74,2.4,3.38,3.42,4.12,1Z"/><path class="e" d="M357,695.49c-6.74,7.12-9.73,17.46.13,23.54a15.26,15.26,0,0,0,12.47,1.32c4.85-1.75,7.74-6.52,10.18-10.38,1.37-2.16-2.32-4.11-3.69-2-3.43,5.42-6.83,10.54-14.53,8.7-10.39-2.48-6.32-13.45-1.53-18.5,1.78-1.88-1.23-4.62-3-2.73Z"/><path class="e" d="M339.1,758.71c5.59-3.81,14.22-1.84,20.46-.66,8.07,1.53,16,3.73,24.17,4.73,6.36.78,12.53.54,17.54-3.45a13.66,13.66,0,0,0,4.46-14.83c-1.88-5.42-8.23-7.77-14.09-7.29-7,.57-12.1,5.54-16,10.32-3.63,4.44-6.36,9.4-10,13.85-5.34,6.57-10,16-20.75,14.56-2.69-.36-3.85,3.35-1.13,3.72,7.2,1,12.78-1.27,17.52-6.17a113.47,113.47,0,0,0,11.14-14.08c3.36-4.87,6.28-9.93,10.78-14.06s13.28-6.9,17.65-1.15c3.57,4.68-.08,11.31-4.87,13.86-5.65,3-14.4.65-20.27-.54-7.39-1.48-14.68-3.39-22.19-4.34-5.49-.69-11.93-1-16.6,2.2-2.17,1.48,0,4.83,2.16,3.33Z"/><path class="e" d="M379.05,686.32a91.91,91.91,0,0,1,7.67-9.46c1.71-1.93-1.3-4.67-3-2.73a102.57,102.57,0,0,0-8.35,10.24c-1.44,2.13,2.26,4.07,3.7,2Z"/><path class="e" d="M269.84,738.43l38,17.39c2.46,1.13,4.62-2.2,2.16-3.33L272,735.1c-2.45-1.12-4.61,2.2-2.15,3.33Z"/><path class="e" d="M275.86,726.49l38,17.39c2.46,1.12,4.62-2.2,2.16-3.33l-38-17.39c-2.45-1.13-4.61,2.2-2.16,3.33Z"/><path class="e" d="M240.28,668.2c-6.58,3-13.5,9-9.85,16.16,3.1,6.06,11.78,4.54,17.16,2.68,8-2.75,15.23-7,22.87-10.35A34,34,0,0,1,275,675c1.81-.53,2.15-.17,3.58,1,5.23,4.47-.6,10.1-5.11,12.42-2.39,1.24-.24,4.57,2.16,3.33,6.59-3.39,12.92-11.23,6.77-17.64-2.26-2.36-4.11-3.68-7.53-3.12-3.07.51-6.08,2.08-8.82,3.34-7.65,3.53-15.08,8-23.4,10.1-3.27.84-7.53.68-8.83-2.72-1.79-4.69,4.91-8.54,8.6-10.22,2.47-1.11.3-4.44-2.15-3.33Z"/><path class="d" d="M492.08,879.81a5.22,5.22,0,1,1-5.75,5.19A5.5,5.5,0,0,1,492.08,879.81Z"/><path class="d" d="M576.92,793.36a3.63,3.63,0,1,1-4,3.61A3.82,3.82,0,0,1,576.92,793.36Z"/><path class="d" d="M651.09,910c0,4.66-4.2,8.45-9.36,8.45s-9.36-3.79-9.36-8.45,4.2-8.44,9.36-8.44S651.09,905.31,651.09,910Zm-15.3,0c0,3,2.67,5.36,5.94,5.36s5.94-2.4,5.94-5.36-2.67-5.35-5.94-5.35S635.79,907,635.79,910Z"/><path class="e" d="M626.8,931c-7.94,0-16.87-1-23.07-5.95-7.24-5.72-5.77-15.61.17-21.49,5-5,9.48-8,10.75-15,1.08-6-1.64-10.72-7.47-13.51-6.79-3.26-14.23-3.77-19.77-9.07-9.48-9,1.26-15.88,7.33-22.65a16.4,16.4,0,0,0,1.92-20c-4-6.39-12.66-9-20.33-9.1a33.61,33.61,0,0,0-6.17.61c-2.7.46-1.55,4.18,1.14,3.72,9.36-1.6,20.62,1.23,23.33,10.41,2.76,9.38-6.73,14.13-11.86,20.6-5.75,7.26-3.44,15,3.47,20.84,5.22,4.45,12.56,5.25,18.79,8,7.35,3.26,6.88,11.74,2,16.89-4.53,4.79-9.95,8.1-11.87,14.5a17.53,17.53,0,0,0,7,19.1c5.92,4.24,13.89,5.51,21.24,5.92,1.14.07,2.29.08,3.43.09a1.93,1.93,0,1,0,0-3.86Z"/><path class="e" d="M455.3,803.23c12.36-1.63,24.71-.45,37,.78,10.47,1,20.83,2.64,31.16,4.44-.42-.94-.85-1.88-1.28-2.83-5.55,10.85-13,20.69-20.84,30.25-6.55,8-14.82,14.53-21.44,22.41h3.69c-12.91-17-20.7-37.66-27.24-57.3-.79-2.38-4.92-1.36-4.12,1,6.63,19.92,14.58,40.94,27.67,58.23a2.31,2.31,0,0,0,3.69,0c6.34-7.55,14.32-13.84,20.63-21.43,8.2-9.86,15.92-20,21.66-31.23a1.9,1.9,0,0,0-1.28-2.83c-10.16-1.77-20.35-3.4-30.63-4.42-13.33-1.32-26.48-2.57-39.83-.81-2.72.36-1.56,4.08,1.13,3.72Z"/><path class="e" d="M666,881.54a94,94,0,0,0,7.3-11c3.73-6,7.61-11.89,11.81-17.62a1.77,1.77,0,0,0-.33-2.33C676,843.1,663.36,840.5,652.64,836c-1-.41-2.41-.33-2.92.69a277.6,277.6,0,0,1-16.39,28.08c-1.42,2.14,2.28,4.08,3.69,2a277.74,277.74,0,0,0,16.39-28.09l-2.93.7c10.33,4.29,22.82,6.75,31.25,14l-.34-2.33c-4.2,5.73-8.07,11.63-11.81,17.61-2.31,3.7-4.46,7.57-7.3,11-1.66,2,2.05,3.91,3.69,1.95Z"/><path class="e" d="M545.22,969.55l40-11.78a2,2,0,1,0-1.13-3.72l-40,11.78a2,2,0,1,0,1.14,3.72Z"/><path class="e" d="M540.29,957.53l40.49-11.94a2,2,0,1,0-1.13-3.72l-40.5,11.94a2,2,0,1,0,1.14,3.72Z"/><path class="e" d="M606.56,799.43l37.5,17.17c2.45,1.12,4.62-2.21,2.16-3.33l-37.5-17.17c-2.46-1.13-4.62,2.2-2.16,3.33Z"/><path class="e" d="M612.65,787.65l38,17.39c2.45,1.12,4.61-2.21,2.15-3.33l-38-17.39c-2.46-1.13-4.62,2.2-2.16,3.33Z"/><path class="e" d="M618.68,775.7l38,17.39c2.45,1.13,4.61-2.2,2.15-3.33l-38-17.39c-2.46-1.12-4.62,2.21-2.16,3.33Z"/><path class="e" d="M528.37,784.34c2.34-7.56,4-15.32,5.83-23l-3.58.85c6.93,6,14.1,11.88,20.39,18.4a2.29,2.29,0,0,0,3.36-.39c3.49-6.94,7.84-13.54,10.41-20.83l-3.57.85c6.8,5.61,12.07,13.06,20.09,17.38a2.28,2.28,0,0,0,2.59-.3c5.2-5.9,6.36-13.68,9.29-20.56,1-2.32-3.14-3.32-4.12-1-2.61,6.13-3.57,13.6-8.19,18.85l2.59-.3c-7.65-4.12-12.72-11.41-19.23-16.78a2.26,2.26,0,0,0-3.57.85c-2.46,7-6.64,13.28-10,19.91l3.36-.39c-6.3-6.52-13.47-12.43-20.39-18.4-1.11-1-3.23-.61-3.58.86-1.82,7.67-3.49,15.43-5.82,23-.74,2.4,3.38,3.42,4.12,1Z"/><path class="e" d="M519.21,853.76c-6.74,7.12-9.73,17.45.13,23.54a15.21,15.21,0,0,0,12.47,1.31c4.85-1.74,7.74-6.51,10.18-10.37,1.37-2.17-2.32-4.11-3.69-2-3.43,5.42-6.83,10.53-14.53,8.7-10.39-2.49-6.32-13.45-1.54-18.5,1.78-1.88-1.23-4.63-3-2.73Z"/><path class="e" d="M501.32,917c5.59-3.82,14.22-1.84,20.46-.66,8.07,1.53,16,3.72,24.17,4.73,6.36.78,12.53.54,17.54-3.45A13.67,13.67,0,0,0,568,902.76c-1.89-5.41-8.24-7.76-14.1-7.28-7,.57-12.1,5.54-16,10.32-3.63,4.44-6.36,9.4-10,13.85-5.34,6.56-10,16-20.75,14.56-2.7-.36-3.86,3.35-1.14,3.71,7.21,1,12.79-1.26,17.53-6.16a112.83,112.83,0,0,0,11.14-14.09c3.36-4.86,6.28-9.93,10.77-14.06s13.28-6.89,17.66-1.14c3.56,4.67-.08,11.3-4.87,13.86-5.65,3-14.4.65-20.27-.54-7.39-1.49-14.68-3.39-22.19-4.34-5.49-.69-11.93-1-16.6,2.2-2.17,1.48,0,4.83,2.16,3.33Z"/><path class="e" d="M541.26,844.59a94.59,94.59,0,0,1,7.68-9.47c1.7-1.92-1.3-4.67-3-2.72a102.57,102.57,0,0,0-8.35,10.24c-1.44,2.13,2.26,4.06,3.69,2Z"/><path class="e" d="M432.05,896.7l38,17.39c2.45,1.12,4.62-2.2,2.16-3.33l-38-17.39c-2.45-1.12-4.62,2.2-2.16,3.33Z"/><path class="e" d="M438.08,884.76l38,17.39c2.45,1.12,4.62-2.21,2.16-3.33l-38-17.39c-2.45-1.13-4.62,2.2-2.16,3.33Z"/><path class="e" d="M402.5,826.47c-6.58,3-13.51,9-9.85,16.16,3.1,6.06,11.78,4.54,17.16,2.68,8-2.75,15.22-7,22.86-10.35a36.16,36.16,0,0,1,4.56-1.71c1.81-.52,2.15-.16,3.57,1.06,5.24,4.47-.6,10.1-5.1,12.42-2.4,1.23-.24,4.57,2.16,3.33,6.58-3.39,12.92-11.24,6.77-17.64-2.27-2.37-4.11-3.69-7.53-3.12-3.07.5-6.08,2.07-8.82,3.34-7.65,3.52-15.08,8-23.41,10.1-3.26.84-7.52.68-8.82-2.72-1.79-4.69,4.91-8.55,8.6-10.22,2.47-1.12.3-4.44-2.15-3.33Z"/><ellipse class="d" cx="768.24" cy="516.51" rx="5.76" ry="5.19"/><path class="d" d="M853.08,424.87a3.63,3.63,0,1,1-4,3.61A3.82,3.82,0,0,1,853.08,424.87Z"/><path class="e" d="M903,562.54c-7.94,0-16.87-1-23.07-5.95-7.24-5.72-5.77-15.61.17-21.49,5-5,9.48-8,10.75-15,1.08-6-1.64-10.72-7.47-13.51-6.79-3.26-14.23-3.77-19.77-9.07-9.48-9.05,1.26-15.88,7.33-22.65a16.4,16.4,0,0,0,1.92-20c-4-6.39-12.66-9-20.33-9.1a33.61,33.61,0,0,0-6.17.61c-2.7.46-1.55,4.18,1.14,3.72,9.36-1.6,20.62,1.23,23.33,10.41,2.76,9.38-6.73,14.13-11.86,20.6-5.75,7.26-3.44,15,3.47,20.84,5.22,4.45,12.56,5.25,18.79,8,7.35,3.26,6.88,11.74,2,16.89-4.53,4.79-10,8.1-11.87,14.5a17.53,17.53,0,0,0,7,19.1c5.91,4.24,13.89,5.51,21.24,5.92,1.14.07,2.29.08,3.43.09a1.93,1.93,0,1,0,0-3.86Z"/><path class="e" d="M731.46,434.74c12.36-1.63,24.71-.45,37,.78,10.47,1.05,20.83,2.64,31.16,4.44-.42-.94-.85-1.88-1.28-2.83-5.55,10.85-13,20.69-20.84,30.25-6.55,7.95-14.82,14.53-21.44,22.41h3.69c-12.91-17.05-20.7-37.66-27.24-57.3-.79-2.38-4.92-1.36-4.12,1,6.63,19.92,14.58,40.94,27.67,58.23a2.31,2.31,0,0,0,3.69,0c6.34-7.55,14.32-13.84,20.63-21.44,8.2-9.85,15.92-20,21.66-31.22a1.9,1.9,0,0,0-1.28-2.83c-10.16-1.77-20.35-3.4-30.63-4.42-13.33-1.32-26.48-2.57-39.83-.81-2.72.36-1.56,4.08,1.13,3.72Z"/><path class="e" d="M821.38,601.06l40-11.78a2,2,0,1,0-1.13-3.72l-40,11.78a2,2,0,1,0,1.14,3.72Z"/><path class="e" d="M816.45,589l40.49-11.94a2,2,0,1,0-1.13-3.72l-40.5,11.94a2,2,0,1,0,1.14,3.72Z"/><path class="e" d="M804.53,415.85c2.34-7.56,4-15.32,5.83-23l-3.58.85c6.93,6,14.1,11.88,20.39,18.4a2.3,2.3,0,0,0,3.36-.39c3.49-6.94,7.84-13.54,10.41-20.83l-3.57.85c6.8,5.61,12.07,13.06,20.09,17.38a2.28,2.28,0,0,0,2.59-.3c5.2-5.9,6.36-13.68,9.29-20.56,1-2.32-3.14-3.32-4.12-1-2.61,6.13-3.57,13.6-8.19,18.85l2.59-.3C852,401.67,846.9,394.38,840.39,389a2.26,2.26,0,0,0-3.57.85c-2.46,7-6.64,13.28-10,19.91l3.36-.39c-6.3-6.52-13.47-12.43-20.39-18.4-1.11-1-3.23-.61-3.58.86-1.82,7.67-3.49,15.43-5.82,23-.74,2.4,3.38,3.42,4.12,1Z"/><path class="e" d="M795.37,485.27c-6.74,7.12-9.73,17.45.13,23.54A15.21,15.21,0,0,0,808,510.12c4.85-1.74,7.74-6.51,10.18-10.37,1.37-2.17-2.32-4.11-3.69-1.95-3.43,5.42-6.83,10.53-14.53,8.7-10.39-2.49-6.32-13.45-1.54-18.5,1.78-1.88-1.23-4.63-3-2.73Z"/><path class="e" d="M777.48,548.49c5.59-3.82,14.22-1.84,20.46-.66,8.07,1.53,16,3.72,24.17,4.73,6.36.78,12.53.54,17.54-3.45a13.67,13.67,0,0,0,4.46-14.84c-1.89-5.41-8.24-7.76-14.1-7.28-7,.57-12.1,5.54-16,10.32-3.63,4.44-6.36,9.4-10,13.85-5.34,6.56-10,16-20.75,14.55-2.7-.35-3.86,3.36-1.14,3.72,7.21,1,12.79-1.26,17.53-6.16a112.83,112.83,0,0,0,11.14-14.09c3.36-4.86,6.28-9.93,10.77-14.06s13.28-6.89,17.66-1.14c3.56,4.67-.08,11.3-4.87,13.86-5.65,3-14.4.65-20.27-.54-7.39-1.49-14.68-3.39-22.19-4.34-5.49-.69-11.93-1-16.6,2.2-2.17,1.48,0,4.83,2.16,3.33Z"/><path class="e" d="M817.42,476.1a94.59,94.59,0,0,1,7.68-9.47c1.7-1.92-1.3-4.67-3-2.72a102.57,102.57,0,0,0-8.35,10.24c-1.44,2.13,2.26,4.06,3.69,2Z"/><path class="e" d="M708.21,528.21l38,17.39c2.45,1.12,4.62-2.2,2.16-3.33l-38-17.39c-2.45-1.12-4.62,2.2-2.16,3.33Z"/><path class="e" d="M714.24,516.27l38,17.39c2.45,1.12,4.62-2.21,2.16-3.33l-38-17.4c-2.45-1.12-4.62,2.21-2.16,3.34Z"/><path class="e" d="M678.66,458c-6.58,3-13.51,9-9.85,16.16,3.1,6.06,11.78,4.53,17.16,2.68,8-2.75,15.22-7,22.86-10.35a36.16,36.16,0,0,1,4.56-1.71c1.81-.52,2.15-.16,3.57,1.06,5.24,4.47-.6,10.1-5.1,12.42-2.4,1.23-.24,4.57,2.16,3.33,6.58-3.39,12.92-11.24,6.77-17.64-2.27-2.37-4.11-3.69-7.53-3.12-3.07.5-6.08,2.07-8.82,3.34-7.65,3.52-15.08,8-23.41,10.1-3.26.84-7.52.68-8.82-2.72-1.79-4.69,4.91-8.55,8.6-10.22,2.47-1.12.3-4.44-2.15-3.33Z"/><path class="d" d="M624.06,695.59a5.22,5.22,0,1,1-5.76,5.19A5.5,5.5,0,0,1,624.06,695.59Z"/><path class="d" d="M708.9,609.14a3.63,3.63,0,1,1-4,3.61A3.82,3.82,0,0,1,708.9,609.14Z"/><path class="d" d="M783.06,725.75c0,4.65-4.19,8.44-9.35,8.44s-9.36-3.79-9.36-8.44,4.2-8.44,9.36-8.44S783.06,721.09,783.06,725.75Zm-15.29,0c0,3,2.66,5.35,5.94,5.35s5.93-2.4,5.93-5.35a6,6,0,0,0-11.87,0Z"/><path class="e" d="M758.78,746.81c-7.94,0-16.88-1-23.08-5.95-7.24-5.72-5.77-15.61.17-21.49,5-5,9.49-8,10.76-15,1.07-5.94-1.65-10.72-7.47-13.51-6.8-3.26-14.23-3.76-19.78-9.06-9.47-9.06,1.26-15.88,7.34-22.65a16.43,16.43,0,0,0,1.92-20c-4-6.38-12.67-9-20.34-9.1a34.39,34.39,0,0,0-6.16.61c-2.71.46-1.56,4.18,1.13,3.72,9.36-1.6,20.63,1.23,23.33,10.42,2.76,9.38-6.72,14.12-11.86,20.6-5.75,7.25-3.43,14.95,3.47,20.83,5.22,4.45,12.57,5.25,18.79,8,7.36,3.26,6.88,11.74,2,16.89-4.53,4.79-10,8.1-11.88,14.51-2.09,7,.78,14.66,7,19.09,5.92,4.24,13.9,5.52,21.24,5.93,1.15.06,2.29.07,3.44.08a1.93,1.93,0,1,0,0-3.86Z"/><path class="e" d="M587.28,619c12.36-1.63,24.7-.45,37,.79,10.46,1.05,20.82,2.64,31.16,4.44l-1.28-2.84c-5.55,10.86-13,20.69-20.84,30.25-6.56,8-14.83,14.53-21.44,22.41h3.69c-12.91-17-20.7-37.66-27.24-57.3-.79-2.37-4.92-1.36-4.12,1,6.63,19.91,14.58,40.93,27.67,58.22a2.31,2.31,0,0,0,3.69,0c6.34-7.55,14.31-13.84,20.63-21.43,8.19-9.86,15.91-20,21.65-31.23a1.89,1.89,0,0,0-1.28-2.83c-10.15-1.77-20.34-3.39-30.63-4.41-13.33-1.32-26.47-2.58-39.83-.81-2.72.36-1.56,4.07,1.14,3.71Z"/><path class="e" d="M797.94,697.32a93.24,93.24,0,0,0,7.31-11c3.73-6,7.61-11.88,11.81-17.61a1.79,1.79,0,0,0-.33-2.34c-8.77-7.53-21.39-10.13-32.11-14.59-1-.41-2.41-.33-2.93.69a279.4,279.4,0,0,1-16.38,28.08c-1.42,2.15,2.28,4.08,3.69,1.95a277.51,277.51,0,0,0,16.38-28.08l-2.92.69c10.32,4.29,22.82,6.75,31.24,14l-.33-2.34c-4.2,5.73-8.08,11.63-11.81,17.61a95.48,95.48,0,0,1-7.31,11c-1.66,2,2.06,3.9,3.69,1.94Z"/><path class="e" d="M677.2,785.33l40-11.78a2,2,0,1,0-1.14-3.72l-40,11.78a2,2,0,1,0,1.14,3.72Z"/><path class="e" d="M672.27,773.31l40.49-11.94a2,2,0,1,0-1.14-3.72l-40.49,11.94a2,2,0,1,0,1.14,3.72Z"/><path class="e" d="M738.54,615.21,776,632.38c2.45,1.12,4.61-2.21,2.15-3.33l-37.5-17.17c-2.45-1.12-4.61,2.2-2.15,3.33Z"/><path class="e" d="M744.62,603.43l38,17.39c2.45,1.12,4.62-2.2,2.16-3.33l-38-17.39c-2.45-1.12-4.62,2.2-2.16,3.33Z"/><path class="e" d="M750.65,591.49l38,17.39c2.45,1.12,4.62-2.21,2.16-3.33l-38-17.39c-2.45-1.13-4.62,2.2-2.16,3.33Z"/><path class="e" d="M660.35,600.13c2.33-7.56,4-15.32,5.82-23l-3.57.85c6.92,6,14.1,11.88,20.39,18.4a2.28,2.28,0,0,0,3.36-.39c3.49-6.94,7.84-13.54,10.41-20.83l-3.58.85c6.81,5.62,12.08,13.07,20.1,17.39a2.3,2.3,0,0,0,2.59-.31c5.19-5.9,6.36-13.67,9.29-20.55,1-2.33-3.15-3.33-4.13-1-2.61,6.14-3.56,13.6-8.18,18.86l2.59-.3c-7.66-4.13-12.73-11.42-19.23-16.78a2.26,2.26,0,0,0-3.58.85c-2.45,7-6.64,13.27-10,19.9l3.35-.39c-6.29-6.52-13.46-12.43-20.39-18.39-1.1-1-3.22-.62-3.57.85-1.82,7.67-3.49,15.43-5.83,23-.74,2.4,3.39,3.42,4.13,1Z"/><path class="e" d="M651.19,669.54c-6.74,7.12-9.73,17.46.13,23.54a15.25,15.25,0,0,0,12.47,1.32c4.85-1.75,7.74-6.52,10.18-10.38,1.37-2.16-2.33-4.11-3.69-1.95-3.43,5.42-6.83,10.54-14.53,8.7-10.39-2.48-6.32-13.45-1.54-18.5,1.78-1.88-1.23-4.62-3-2.73Z"/><path class="e" d="M633.3,732.76c5.59-3.81,14.22-1.84,20.46-.66,8.07,1.53,16,3.73,24.17,4.73,6.35.78,12.53.54,17.54-3.45a13.67,13.67,0,0,0,4.46-14.83c-1.89-5.42-8.24-7.77-14.1-7.29-7,.57-12.1,5.55-16,10.32-3.62,4.44-6.35,9.41-10,13.85-5.34,6.57-10,16-20.75,14.56-2.7-.36-3.86,3.35-1.14,3.72a19.3,19.3,0,0,0,17.52-6.17,111.63,111.63,0,0,0,11.14-14.08c3.36-4.87,6.29-9.93,10.78-14.06s13.28-6.9,17.66-1.15c3.56,4.68-.08,11.31-4.88,13.86-5.65,3-14.39.65-20.27-.53-7.38-1.49-14.67-3.4-22.18-4.35-5.49-.69-11.94-1-16.6,2.2-2.17,1.48,0,4.83,2.16,3.33Z"/><path class="e" d="M673.24,660.37a94.48,94.48,0,0,1,7.68-9.46c1.7-1.93-1.31-4.67-3-2.73a102.47,102.47,0,0,0-8.34,10.24c-1.44,2.13,2.25,4.07,3.69,2Z"/><path class="e" d="M564,712.48l38,17.39c2.45,1.13,4.61-2.2,2.16-3.33l-38-17.39c-2.46-1.12-4.62,2.21-2.16,3.33Z"/><path class="e" d="M570.06,700.54l38,17.39c2.45,1.12,4.61-2.2,2.15-3.33l-38-17.39c-2.46-1.12-4.62,2.2-2.16,3.33Z"/><path class="e" d="M534.47,642.25c-6.57,3-13.5,9-9.85,16.16,3.11,6.06,11.79,4.54,17.16,2.68,8-2.75,15.23-7,22.87-10.35a34.5,34.5,0,0,1,4.55-1.7c1.81-.53,2.15-.17,3.58,1.05,5.23,4.47-.6,10.1-5.11,12.42-2.39,1.24-.24,4.57,2.16,3.33,6.59-3.39,12.93-11.23,6.78-17.64-2.27-2.36-4.11-3.68-7.53-3.12-3.07.51-6.08,2.08-8.82,3.34-7.65,3.53-15.08,8-23.41,10.1-3.27.84-7.52.68-8.82-2.72-1.79-4.69,4.91-8.54,8.6-10.22,2.46-1.11.3-4.44-2.16-3.33Z"/><path class="d" d="M193.08,890.5a5.22,5.22,0,1,1-5.75,5.2A5.5,5.5,0,0,1,193.08,890.5Z"/><path class="d" d="M277.92,804.05a3.63,3.63,0,1,1-4,3.62A3.82,3.82,0,0,1,277.92,804.05Z"/><path class="d" d="M352.08,920.66c0,4.66-4.19,8.44-9.35,8.44s-9.36-3.78-9.36-8.44,4.2-8.44,9.36-8.44S352.08,916,352.08,920.66Zm-15.29,0c0,3,2.67,5.36,5.94,5.36a5.68,5.68,0,0,0,5.93-5.36c0-2.95-2.66-5.35-5.93-5.35S336.79,917.71,336.79,920.66Z"/><path class="e" d="M327.8,941.73c-7.94-.05-16.88-1.05-23.08-6-7.24-5.73-5.76-15.62.18-21.5,5-5,9.48-8,10.75-15,1.07-5.94-1.65-10.71-7.47-13.5-6.8-3.26-14.23-3.77-19.78-9.07-9.47-9.05,1.26-15.88,7.34-22.65a16.4,16.4,0,0,0,1.92-20c-4-6.39-12.66-9-20.34-9.11a34.4,34.4,0,0,0-6.16.62c-2.71.46-1.56,4.18,1.14,3.71,9.35-1.59,20.62,1.24,23.33,10.42,2.76,9.38-6.73,14.12-11.86,20.6-5.75,7.26-3.44,15,3.46,20.84,5.23,4.45,12.57,5.24,18.79,8,7.36,3.25,6.89,11.74,2,16.89-4.53,4.78-9.95,8.09-11.88,14.5-2.09,7,.78,14.66,7,19.1,5.92,4.24,13.9,5.51,21.24,5.92,1.15.06,2.29.08,3.44.08a1.93,1.93,0,1,0,0-3.85Z"/><path class="e" d="M156.3,813.93c12.36-1.64,24.7-.46,37,.78,10.47,1,20.82,2.64,31.16,4.44-.43-.94-.85-1.89-1.28-2.83-5.55,10.85-13,20.69-20.84,30.25-6.56,7.94-14.82,14.53-21.44,22.41h3.69c-12.91-17.05-20.7-37.67-27.24-57.3-.79-2.38-4.92-1.37-4.12,1,6.63,19.91,14.58,40.93,27.67,58.22a2.3,2.3,0,0,0,3.69,0c6.34-7.55,14.31-13.83,20.63-21.43,8.19-9.85,15.92-20,21.65-31.22a1.9,1.9,0,0,0-1.27-2.84C215.47,813.66,205.28,812,195,811c-13.32-1.32-26.47-2.58-39.83-.81-2.72.36-1.56,4.08,1.14,3.72Z"/><path class="e" d="M367,892.24a94.11,94.11,0,0,0,7.3-11c3.73-6,7.61-11.88,11.81-17.61a1.79,1.79,0,0,0-.33-2.34c-8.77-7.52-21.39-10.13-32.11-14.59-1-.4-2.41-.33-2.93.69a277.65,277.65,0,0,1-16.38,28.09c-1.42,2.14,2.28,4.08,3.69,2a276.87,276.87,0,0,0,16.38-28.09l-2.92.69c10.32,4.3,22.82,6.76,31.24,14l-.33-2.34c-4.2,5.73-8.07,11.63-11.81,17.62-2.31,3.69-4.46,7.56-7.31,11-1.66,2,2.06,3.91,3.7,2Z"/><path class="e" d="M246.22,980.25l40-11.79a2,2,0,1,0-1.13-3.72l-40,11.79a2,2,0,1,0,1.14,3.72Z"/><path class="e" d="M241.29,968.22l40.49-11.93a2,2,0,1,0-1.13-3.72l-40.5,11.93a2,2,0,1,0,1.14,3.72Z"/><path class="e" d="M307.56,810.12l37.5,17.17c2.45,1.13,4.61-2.2,2.16-3.33l-37.5-17.17c-2.46-1.12-4.62,2.21-2.16,3.33Z"/><path class="e" d="M313.65,798.34l38,17.39c2.46,1.13,4.62-2.2,2.16-3.33L315.8,795c-2.45-1.12-4.61,2.21-2.15,3.33Z"/><path class="e" d="M319.68,786.4l38,17.39c2.46,1.12,4.62-2.2,2.16-3.33l-38-17.39c-2.45-1.12-4.61,2.2-2.15,3.33Z"/><path class="e" d="M229.37,795c2.34-7.56,4-15.32,5.83-23l-3.58.85c6.93,6,14.1,11.87,20.39,18.39a2.28,2.28,0,0,0,3.36-.39c3.49-6.93,7.84-13.54,10.41-20.82l-3.57.85c6.8,5.61,12.07,13.06,20.09,17.38a2.3,2.3,0,0,0,2.59-.3c5.19-5.91,6.36-13.68,9.29-20.56,1-2.33-3.14-3.32-4.12-1-2.62,6.14-3.57,13.6-8.19,18.86l2.59-.3c-7.66-4.12-12.73-11.41-19.23-16.78a2.26,2.26,0,0,0-3.57.85c-2.46,7-6.65,13.28-10,19.91l3.35-.39c-6.29-6.52-13.46-12.43-20.38-18.4-1.11-.95-3.23-.61-3.58.85-1.82,7.67-3.49,15.43-5.82,23-.74,2.4,3.38,3.41,4.12,1Z"/><path class="e" d="M220.21,864.46c-6.74,7.12-9.73,17.45.13,23.54a15.25,15.25,0,0,0,12.47,1.31c4.85-1.75,7.74-6.52,10.18-10.38,1.37-2.16-2.33-4.1-3.69-1.94-3.43,5.42-6.83,10.53-14.53,8.69-10.39-2.48-6.32-13.44-1.54-18.5,1.78-1.88-1.23-4.62-3-2.72Z"/><path class="e" d="M202.32,927.68c5.59-3.82,14.22-1.84,20.46-.66,8.07,1.52,16,3.72,24.17,4.73,6.36.77,12.53.53,17.54-3.46A13.67,13.67,0,0,0,269,913.46c-1.89-5.41-8.24-7.76-14.1-7.28-7,.56-12.1,5.54-16,10.31-3.63,4.45-6.36,9.41-10,13.86-5.34,6.56-10,16-20.75,14.55-2.7-.36-3.86,3.36-1.14,3.72a19.3,19.3,0,0,0,17.52-6.17,111.19,111.19,0,0,0,11.15-14.08c3.36-4.86,6.28-9.93,10.77-14.06s13.28-6.9,17.66-1.15c3.56,4.68-.08,11.31-4.88,13.86-5.64,3-14.39.65-20.26-.53-7.39-1.49-14.68-3.4-22.19-4.34-5.49-.69-11.93-1-16.6,2.2-2.17,1.48,0,4.83,2.16,3.33Z"/><path class="e" d="M242.26,855.28a95.62,95.62,0,0,1,7.68-9.46c1.7-1.92-1.3-4.67-3-2.73a102.85,102.85,0,0,0-8.34,10.25c-1.44,2.12,2.26,4.06,3.69,1.94Z"/><path class="e" d="M133.05,907.4l38,17.39c2.45,1.12,4.62-2.21,2.16-3.33l-38-17.4c-2.45-1.12-4.62,2.21-2.16,3.34Z"/><path class="e" d="M139.08,895.45l38,17.39c2.45,1.13,4.62-2.2,2.16-3.33l-38-17.39c-2.45-1.12-4.62,2.21-2.16,3.33Z"/><path class="e" d="M103.49,837.17c-6.57,3-13.5,9-9.85,16.16,3.11,6.06,11.79,4.53,17.17,2.68,8-2.76,15.22-7,22.86-10.36a37.58,37.58,0,0,1,4.55-1.7c1.81-.52,2.15-.17,3.58,1,5.24,4.47-.6,10.11-5.1,12.43-2.4,1.23-.25,4.56,2.15,3.33,6.59-3.39,12.93-11.24,6.78-17.64-2.27-2.37-4.11-3.69-7.53-3.13-3.07.51-6.08,2.08-8.82,3.34-7.65,3.53-15.08,8-23.41,10.11-3.27.83-7.52.68-8.82-2.73-1.79-4.69,4.91-8.54,8.6-10.21,2.47-1.12.3-4.45-2.16-3.33Z"/><ellipse class="d" cx="48.53" cy="1084.24" rx="5.76" ry="5.19"/><path class="d" d="M133.37,992.6a3.63,3.63,0,1,1-4,3.61A3.82,3.82,0,0,1,133.37,992.6Z"/><path class="e" d="M183.25,1130.27c-7.94,0-16.87-1-23.07-6-7.24-5.72-5.77-15.61.17-21.49,5-5,9.48-8,10.75-15,1.08-6-1.64-10.72-7.47-13.51-6.79-3.26-14.23-3.77-19.77-9.07-9.48-9,1.26-15.88,7.33-22.65a16.4,16.4,0,0,0,1.92-20c-4-6.39-12.66-9-20.33-9.1a33.61,33.61,0,0,0-6.17.61c-2.71.46-1.56,4.18,1.14,3.72,9.36-1.6,20.62,1.23,23.33,10.41,2.76,9.38-6.73,14.13-11.86,20.6-5.75,7.26-3.44,15,3.47,20.84,5.22,4.45,12.56,5.25,18.79,8,7.35,3.26,6.88,11.74,2,16.89-4.53,4.79-9.95,8.1-11.88,14.5a17.56,17.56,0,0,0,7,19.1c5.91,4.24,13.89,5.51,21.24,5.92,1.14.07,2.29.08,3.43.09a1.93,1.93,0,1,0,0-3.86Z"/><path class="e" d="M11.75,1002.47c12.36-1.63,24.71-.45,37,.78,10.47,1,20.83,2.64,31.16,4.44-.42-.94-.85-1.88-1.28-2.83-5.55,10.85-13,20.69-20.84,30.25-6.55,8-14.82,14.53-21.44,22.41h3.69c-12.91-17-20.7-37.66-27.24-57.3-.79-2.38-4.92-1.36-4.12,1,6.63,19.92,14.58,40.94,27.67,58.23a2.31,2.31,0,0,0,3.69,0c6.34-7.55,14.32-13.84,20.63-21.44,8.2-9.85,15.92-20,21.66-31.22a1.9,1.9,0,0,0-1.28-2.83c-10.16-1.77-20.35-3.4-30.63-4.42C37.12,998.24,24,997,10.62,998.75c-2.72.36-1.56,4.08,1.13,3.72Z"/><path class="e" d="M222.42,1080.78a94,94,0,0,0,7.3-11c3.73-6,7.61-11.89,11.81-17.62a1.78,1.78,0,0,0-.33-2.33c-8.77-7.53-21.39-10.14-32.11-14.59-1-.41-2.41-.33-2.93.69a275.63,275.63,0,0,1-16.38,28.08c-1.42,2.14,2.28,4.08,3.69,2a277.74,277.74,0,0,0,16.39-28.09l-2.93.7c10.33,4.29,22.82,6.75,31.25,14l-.34-2.33c-4.2,5.73-8.07,11.63-11.81,17.61-2.31,3.7-4.46,7.57-7.3,11-1.67,2,2.05,3.91,3.69,2Z"/><path class="e" d="M163,998.67l37.5,17.17c2.45,1.12,4.62-2.21,2.16-3.33l-37.5-17.17c-2.46-1.13-4.62,2.2-2.16,3.33Z"/><path class="e" d="M169.1,986.89l38,17.39c2.45,1.12,4.61-2.21,2.15-3.33l-38-17.4c-2.46-1.12-4.62,2.21-2.16,3.34Z"/><path class="e" d="M175.13,974.94l38,17.39c2.46,1.13,4.62-2.2,2.16-3.33l-38-17.39c-2.45-1.12-4.61,2.21-2.15,3.33Z"/><path class="e" d="M84.82,983.58c2.34-7.56,4-15.32,5.83-23l-3.58.85c6.93,6,14.1,11.88,20.39,18.4a2.3,2.3,0,0,0,3.36-.39c3.49-6.94,7.84-13.54,10.41-20.83l-3.57.85c6.8,5.61,12.07,13.06,20.09,17.38a2.28,2.28,0,0,0,2.59-.3c5.19-5.9,6.36-13.68,9.29-20.56,1-2.32-3.14-3.32-4.12-1-2.62,6.13-3.57,13.6-8.19,18.85l2.59-.3c-7.65-4.12-12.72-11.41-19.23-16.78a2.26,2.26,0,0,0-3.57.85c-2.46,7-6.64,13.28-10,19.91l3.36-.39c-6.3-6.52-13.47-12.43-20.39-18.4-1.11-1-3.23-.61-3.58.86-1.82,7.67-3.49,15.43-5.82,23-.74,2.4,3.38,3.42,4.12,1Z"/><path class="e" d="M75.66,1053c-6.74,7.12-9.73,17.45.13,23.54a15.21,15.21,0,0,0,12.47,1.31c4.85-1.74,7.74-6.51,10.18-10.37,1.37-2.17-2.32-4.11-3.69-2-3.43,5.42-6.83,10.53-14.53,8.7-10.39-2.49-6.32-13.45-1.54-18.5,1.78-1.88-1.23-4.63-3-2.73Z"/><path class="e" d="M97.71,1043.83a94.59,94.59,0,0,1,7.68-9.47c1.7-1.92-1.3-4.67-3-2.72A102.57,102.57,0,0,0,94,1041.88c-1.44,2.13,2.26,4.06,3.69,1.95Z"/><path class="e" d="M-41.06,1025.71c-6.57,3-13.5,9-9.84,16.16,3.1,6.06,11.78,4.53,17.16,2.68,8-2.75,15.22-7,22.86-10.35a36.16,36.16,0,0,1,4.56-1.71c1.81-.52,2.15-.16,3.57,1.06,5.24,4.47-.6,10.1-5.1,12.42-2.4,1.23-.24,4.57,2.15,3.33,6.59-3.39,12.93-11.24,6.78-17.64-2.27-2.37-4.11-3.69-7.53-3.12-3.07.5-6.08,2.07-8.82,3.34-7.65,3.52-15.08,8-23.41,10.1-3.26.84-7.52.68-8.82-2.72-1.79-4.69,4.91-8.55,8.6-10.22,2.47-1.12.3-4.44-2.16-3.33Z"/><path class="d" d="M66.82,951.08c0,4.65-4.2,8.44-9.35,8.44s-9.36-3.79-9.36-8.44,4.2-8.44,9.36-8.44S66.82,946.42,66.82,951.08Zm-15.29,0c0,2.95,2.66,5.35,5.94,5.35s5.93-2.4,5.93-5.35a5.68,5.68,0,0,0-5.93-5.36C54.19,945.72,51.53,948.13,51.53,951.08Z"/><path class="e" d="M42.54,972.14c-7.94,0-16.88-1-23.08-5.94-7.24-5.73-5.77-15.62.17-21.5,5-5,9.49-8,10.76-15,1.07-5.94-1.65-10.71-7.47-13.51-6.8-3.26-14.23-3.76-19.78-9.06-9.47-9.06,1.26-15.88,7.34-22.65a16.43,16.43,0,0,0,1.92-20c-4-6.38-12.67-9-20.34-9.1a34.3,34.3,0,0,0-6.16.61c-2.71.47-1.56,4.18,1.13,3.72,9.36-1.6,20.63,1.23,23.33,10.42,2.76,9.38-6.73,14.12-11.86,20.6-5.75,7.25-3.43,15,3.47,20.84,5.22,4.44,12.57,5.24,18.79,8,7.36,3.26,6.88,11.74,2,16.89-4.54,4.79-10,8.1-11.88,14.51-2.09,7,.78,14.66,7,19.09,5.92,4.24,13.89,5.52,21.24,5.93,1.14.06,2.29.07,3.44.08a1.93,1.93,0,1,0,0-3.86Z"/><path class="e" d="M81.7,922.65c2.84-3.39,5-7.26,7.31-11,3.73-6,7.61-11.88,11.81-17.61a1.78,1.78,0,0,0-.34-2.34c-8.76-7.53-21.38-10.13-32.11-14.59-1-.4-2.4-.33-2.92.69a280.67,280.67,0,0,1-16.38,28.09c-1.42,2.14,2.27,4.07,3.69,1.94a277.51,277.51,0,0,0,16.38-28.08l-2.92.69c10.32,4.29,22.81,6.75,31.24,14l-.33-2.34c-4.2,5.73-8.08,11.63-11.81,17.61a95.48,95.48,0,0,1-7.31,11c-1.66,2,2,3.9,3.69,1.94Z"/><path class="e" d="M-39,1010.66l40-11.78a2,2,0,1,0-1.14-3.72l-40,11.78a2,2,0,1,0,1.13,3.72Z"/><path class="e" d="M22.29,840.54l37.5,17.17c2.46,1.12,4.62-2.2,2.16-3.33l-37.5-17.17c-2.45-1.12-4.62,2.2-2.16,3.33Z"/><path class="e" d="M28.38,828.76l38,17.39c2.45,1.12,4.62-2.2,2.16-3.33l-38-17.39c-2.45-1.12-4.62,2.2-2.16,3.33Z"/><path class="e" d="M34.41,816.82l38,17.39c2.45,1.12,4.62-2.21,2.16-3.33l-38-17.39c-2.45-1.13-4.62,2.2-2.16,3.33Z"/><path class="e" d="M-55.89,825.46c2.33-7.56,4-15.32,5.82-23l-3.57.86c6.92,6,14.1,11.87,20.39,18.39a2.28,2.28,0,0,0,3.36-.39c3.49-6.94,7.84-13.54,10.41-20.83l-3.58.85C-16.25,807-11,814.41-3,818.73a2.32,2.32,0,0,0,2.59-.3c5.19-5.91,6.36-13.68,9.29-20.56,1-2.33-3.15-3.33-4.13-1C2.18,803,1.23,810.44-3.39,815.7l2.59-.3C-8.46,811.27-13.53,804-20,798.62a2.26,2.26,0,0,0-3.58.85c-2.45,7-6.64,13.27-10,19.9l3.36-.39c-6.29-6.52-13.46-12.43-20.39-18.39-1.1-1-3.22-.62-3.57.85-1.82,7.67-3.49,15.43-5.83,23-.74,2.4,3.39,3.42,4.13,1Z"/><path class="d" d="M782.78,866.42a5.22,5.22,0,1,1-5.76,5.19A5.5,5.5,0,0,1,782.78,866.42Z"/><path class="d" d="M867.62,780a3.63,3.63,0,1,1-4,3.61A3.82,3.82,0,0,1,867.62,780Z"/><path class="e" d="M917.5,917.64c-7.94,0-16.88-1-23.08-5.95-7.24-5.72-5.76-15.61.18-21.49,5-5,9.48-8,10.75-15,1.07-5.94-1.65-10.72-7.47-13.51-6.8-3.26-14.23-3.76-19.78-9.07-9.47-9.05,1.26-15.87,7.34-22.64a16.41,16.41,0,0,0,1.92-20c-4-6.38-12.67-9-20.34-9.1a34.39,34.39,0,0,0-6.16.61c-2.71.46-1.56,4.18,1.14,3.72,9.35-1.6,20.62,1.23,23.32,10.42,2.77,9.38-6.72,14.12-11.86,20.6-5.75,7.25-3.43,15,3.47,20.83,5.23,4.45,12.57,5.25,18.79,8,7.36,3.26,6.89,11.74,2,16.89-4.53,4.79-10,8.1-11.88,14.51-2.09,7,.78,14.66,7,19.09,5.92,4.24,13.9,5.52,21.24,5.93,1.15.06,2.29.07,3.44.08a1.93,1.93,0,1,0,0-3.86Z"/><path class="e" d="M746,789.84c12.36-1.63,24.7-.45,37,.79,10.46,1,20.82,2.64,31.16,4.44l-1.28-2.84c-5.55,10.86-13,20.69-20.84,30.25-6.56,7.95-14.83,14.53-21.44,22.41h3.69c-12.91-17-20.7-37.66-27.24-57.3-.79-2.37-4.92-1.36-4.12,1,6.63,19.91,14.58,40.93,27.67,58.22a2.31,2.31,0,0,0,3.69,0c6.34-7.55,14.31-13.84,20.63-21.43,8.19-9.86,15.91-20,21.65-31.23a1.9,1.9,0,0,0-1.27-2.83c-10.16-1.77-20.35-3.4-30.64-4.41-13.32-1.32-26.47-2.58-39.83-.81-2.72.35-1.56,4.07,1.14,3.71Z"/><path class="e" d="M835.92,956.16l40-11.78a2,2,0,1,0-1.14-3.72l-40,11.78a2,2,0,1,0,1.14,3.72Z"/><path class="e" d="M831,944.14l40.49-11.94a2,2,0,1,0-1.14-3.72l-40.49,11.94a2,2,0,1,0,1.14,3.72Z"/><path class="e" d="M819.07,771c2.33-7.56,4-15.32,5.82-23l-3.57.85c6.93,6,14.1,11.88,20.39,18.4a2.28,2.28,0,0,0,3.36-.39c3.49-6.94,7.84-13.54,10.41-20.83l-3.57.85c6.8,5.62,12.07,13.07,20.09,17.39a2.3,2.3,0,0,0,2.59-.31c5.19-5.9,6.36-13.68,9.29-20.56,1-2.32-3.15-3.32-4.12-1-2.62,6.14-3.57,13.6-8.19,18.86l2.59-.3c-7.66-4.13-12.73-11.42-19.23-16.78a2.25,2.25,0,0,0-3.57.85c-2.46,7-6.65,13.27-10,19.9l3.35-.39c-6.29-6.52-13.46-12.43-20.39-18.39-1.1-1-3.22-.62-3.57.85-1.82,7.67-3.49,15.43-5.82,23-.75,2.4,3.38,3.42,4.12,1Z"/><path class="e" d="M809.91,840.37c-6.74,7.12-9.73,17.46.13,23.54a15.25,15.25,0,0,0,12.47,1.32c4.85-1.75,7.74-6.52,10.18-10.38,1.37-2.16-2.33-4.11-3.69-2-3.43,5.42-6.83,10.54-14.53,8.7-10.39-2.48-6.32-13.45-1.54-18.5,1.78-1.88-1.23-4.62-3-2.73Z"/><path class="e" d="M792,903.59c5.59-3.81,14.22-1.84,20.46-.66,8.07,1.53,16,3.73,24.17,4.73,6.36.78,12.53.54,17.54-3.45a13.67,13.67,0,0,0,4.46-14.83c-1.89-5.42-8.24-7.77-14.1-7.29-7,.57-12.1,5.54-16,10.32-3.62,4.44-6.35,9.4-10,13.85-5.34,6.57-10,16-20.75,14.56-2.7-.36-3.86,3.35-1.14,3.72a19.3,19.3,0,0,0,17.52-6.17,111.63,111.63,0,0,0,11.14-14.08c3.36-4.87,6.29-9.93,10.78-14.06s13.28-6.9,17.66-1.15c3.56,4.68-.08,11.31-4.88,13.86-5.65,3-14.39.65-20.27-.53-7.38-1.49-14.67-3.4-22.18-4.35-5.49-.69-11.94-1-16.6,2.2-2.17,1.48,0,4.83,2.16,3.33Z"/><path class="e" d="M832,831.2a93.36,93.36,0,0,1,7.68-9.46c1.7-1.93-1.3-4.67-3-2.73a102.47,102.47,0,0,0-8.34,10.24c-1.44,2.13,2.25,4.07,3.69,2Z"/><path class="e" d="M722.75,883.31l38,17.39c2.45,1.13,4.62-2.2,2.16-3.33l-38-17.39c-2.45-1.12-4.62,2.2-2.16,3.33Z"/><path class="e" d="M728.78,871.37l38,17.39c2.45,1.12,4.61-2.2,2.16-3.33l-38-17.39c-2.45-1.13-4.62,2.2-2.16,3.33Z"/><path class="e" d="M693.19,813.08c-6.57,3-13.5,9-9.85,16.16,3.11,6.06,11.79,4.54,17.17,2.68,8-2.75,15.22-7,22.86-10.35a34.5,34.5,0,0,1,4.55-1.7c1.81-.53,2.15-.17,3.58,1,5.23,4.47-.6,10.1-5.11,12.42-2.39,1.24-.24,4.57,2.16,3.33,6.59-3.39,12.93-11.23,6.78-17.64-2.27-2.36-4.11-3.68-7.53-3.12-3.07.51-6.08,2.08-8.82,3.34-7.65,3.53-15.08,8-23.41,10.1-3.27.84-7.52.68-8.82-2.72-1.79-4.69,4.91-8.54,8.6-10.22,2.46-1.11.3-4.44-2.16-3.33Z"/><path class="e" d="M852.67,701l38,17.39c2.45,1.12,4.62-2.2,2.16-3.33l-38-17.39c-2.45-1.12-4.62,2.2-2.16,3.33Z"/><path class="e" d="M858.7,689.05l38,17.39c2.45,1.12,4.61-2.21,2.16-3.33l-38-17.39c-2.45-1.13-4.62,2.2-2.16,3.33Z"/><path class="e" d="M823.11,630.76c-6.57,3-13.5,9-9.85,16.16,3.11,6.06,11.79,4.54,17.17,2.68,8-2.75,15.22-7,22.86-10.35a36,36,0,0,1,4.55-1.71c1.81-.52,2.15-.16,3.58,1.06,5.23,4.47-.6,10.1-5.11,12.42-2.39,1.24-.24,4.57,2.16,3.33,6.59-3.39,12.93-11.23,6.78-17.64-2.27-2.37-4.11-3.69-7.53-3.12-3.07.5-6.08,2.08-8.82,3.34-7.65,3.52-15.08,8-23.41,10.1-3.27.84-7.52.68-8.82-2.72-1.79-4.69,4.91-8.55,8.6-10.22,2.46-1.11.3-4.44-2.16-3.33Z"/><ellipse class="d" cx="648.4" cy="1047.89" rx="5.76" ry="5.19"/><path class="d" d="M733.23,956.25a3.63,3.63,0,1,1-4,3.61A3.82,3.82,0,0,1,733.23,956.25Z"/><path class="d" d="M807.4,1072.86c0,4.65-4.2,8.44-9.36,8.44s-9.35-3.79-9.35-8.44,4.2-8.44,9.35-8.44S807.4,1068.2,807.4,1072.86Zm-15.29,0c0,3,2.66,5.35,5.93,5.35s5.94-2.4,5.94-5.35a6,6,0,0,0-11.87,0Z"/><path class="e" d="M783.12,1093.92c-8-.05-16.88-1-23.08-6-7.24-5.72-5.77-15.61.17-21.49,5-5,9.49-8,10.76-15,1.07-6-1.65-10.72-7.47-13.51-6.8-3.26-14.23-3.76-19.78-9.07-9.47-9.05,1.26-15.88,7.34-22.64a16.43,16.43,0,0,0,1.92-20c-4-6.39-12.67-9-20.34-9.1a33.41,33.41,0,0,0-6.16.61c-2.71.46-1.56,4.18,1.13,3.72,9.36-1.6,20.63,1.23,23.33,10.42,2.76,9.37-6.73,14.12-11.86,20.59-5.75,7.26-3.43,15,3.47,20.84,5.22,4.45,12.56,5.25,18.79,8,7.36,3.26,6.88,11.74,2,16.89-4.54,4.79-10,8.1-11.88,14.5-2.09,7,.78,14.67,7,19.1,5.92,4.24,13.89,5.51,21.24,5.92,1.14.07,2.29.08,3.44.09a1.93,1.93,0,1,0,0-3.86Z"/><path class="e" d="M611.62,966.12c12.35-1.63,24.7-.45,37,.78,10.46,1.06,20.82,2.64,31.16,4.45-.43-1-.86-1.89-1.28-2.84-5.55,10.85-13,20.69-20.85,30.25-6.55,8-14.82,14.53-21.43,22.41h3.69c-12.91-17-20.7-37.66-27.24-57.3-.79-2.38-4.92-1.36-4.13,1,6.64,19.91,14.58,40.93,27.68,58.22a2.31,2.31,0,0,0,3.69,0c6.34-7.55,14.31-13.84,20.63-21.43,8.19-9.86,15.91-20,21.65-31.23a1.9,1.9,0,0,0-1.28-2.83c-10.15-1.77-20.35-3.4-30.63-4.42-13.33-1.32-26.47-2.57-39.83-.81-2.72.36-1.56,4.08,1.14,3.72Z"/><path class="e" d="M822.28,1044.43a95.36,95.36,0,0,0,7.31-11c3.73-6,7.61-11.89,11.81-17.62a1.78,1.78,0,0,0-.34-2.33c-8.76-7.53-21.38-10.13-32.11-14.59-1-.41-2.4-.33-2.92.69a279.4,279.4,0,0,1-16.38,28.08c-1.42,2.14,2.27,4.08,3.69,2a280.52,280.52,0,0,0,16.38-28.08l-2.92.69c10.32,4.29,22.81,6.75,31.24,14l-.33-2.33c-4.2,5.73-8.08,11.63-11.81,17.61-2.31,3.7-4.47,7.57-7.31,11-1.66,2,2,3.91,3.69,2Z"/><path class="e" d="M762.87,962.32l37.5,17.17c2.46,1.12,4.62-2.21,2.16-3.33L765,959c-2.45-1.13-4.62,2.2-2.16,3.33Z"/><path class="e" d="M769,950.54l38,17.39c2.45,1.12,4.62-2.21,2.16-3.33l-38-17.39c-2.45-1.13-4.62,2.2-2.16,3.33Z"/><path class="e" d="M775,938.59,813,956c2.45,1.12,4.62-2.21,2.16-3.33l-38-17.4c-2.45-1.12-4.62,2.21-2.16,3.33Z"/><path class="e" d="M684.69,947.23c2.33-7.56,4-15.32,5.82-23l-3.57.85c6.92,6,14.1,11.88,20.39,18.4a2.29,2.29,0,0,0,3.36-.39c3.49-6.94,7.84-13.54,10.41-20.83l-3.58.85c6.81,5.61,12.07,13.06,20.1,17.38a2.28,2.28,0,0,0,2.59-.3c5.19-5.9,6.36-13.68,9.29-20.56,1-2.32-3.15-3.32-4.13-1-2.61,6.13-3.56,13.6-8.19,18.86l2.6-.31c-7.66-4.12-12.73-11.41-19.23-16.78a2.27,2.27,0,0,0-3.58.86c-2.45,7-6.64,13.27-10,19.9l3.36-.39c-6.29-6.52-13.46-12.43-20.39-18.39-1.1-1-3.22-.62-3.57.85-1.82,7.67-3.49,15.43-5.83,23-.74,2.4,3.39,3.42,4.13,1Z"/><path class="e" d="M675.53,1016.65c-6.75,7.12-9.73,17.46.12,23.54a15.28,15.28,0,0,0,12.48,1.32c4.84-1.75,7.73-6.52,10.18-10.38,1.37-2.17-2.33-4.11-3.7-2-3.43,5.42-6.83,10.53-14.52,8.7-10.39-2.49-6.33-13.45-1.54-18.5,1.78-1.88-1.23-4.63-3-2.73Z"/><path class="e" d="M657.63,1079.87c5.6-3.82,14.23-1.84,20.46-.66,8.07,1.53,16,3.73,24.18,4.73,6.35.78,12.52.54,17.54-3.45a13.7,13.7,0,0,0,4.46-14.84c-1.89-5.41-8.24-7.76-14.1-7.28-7,.57-12.1,5.54-16,10.32-3.62,4.44-6.35,9.4-10,13.85-5.35,6.56-10,16-20.76,14.56-2.69-.36-3.85,3.35-1.13,3.71,7.21,1,12.78-1.26,17.52-6.16A111,111,0,0,0,691,1080.56c3.36-4.86,6.28-9.93,10.78-14.06s13.28-6.89,17.66-1.14c3.56,4.68-.08,11.3-4.88,13.86-5.65,3-14.39.65-20.27-.54-7.39-1.48-14.68-3.39-22.19-4.34-5.48-.69-11.93-1-16.59,2.2-2.17,1.48-.05,4.83,2.15,3.33Z"/><path class="e" d="M697.58,1007.48a94.49,94.49,0,0,1,7.67-9.47c1.71-1.92-1.3-4.67-3-2.72a102.47,102.47,0,0,0-8.34,10.24c-1.45,2.13,2.25,4.07,3.69,2Z"/><path class="e" d="M588.37,1059.59l38,17.39c2.45,1.12,4.61-2.2,2.15-3.33l-38-17.39c-2.46-1.12-4.62,2.2-2.16,3.33Z"/><path class="e" d="M594.4,1047.65l38,17.39c2.45,1.12,4.61-2.21,2.15-3.33l-38-17.39c-2.46-1.13-4.62,2.2-2.16,3.33Z"/><path class="e" d="M558.81,989.36c-6.57,3-13.5,9-9.85,16.16,3.11,6.06,11.78,4.54,17.16,2.68,8-2.75,15.23-7,22.87-10.35a36,36,0,0,1,4.55-1.71c1.81-.52,2.15-.16,3.58,1.06,5.23,4.47-.6,10.1-5.11,12.42-2.39,1.23-.24,4.57,2.16,3.33,6.59-3.39,12.93-11.23,6.78-17.64-2.27-2.37-4.12-3.69-7.53-3.12-3.07.5-6.08,2.08-8.82,3.34-7.65,3.52-15.09,8-23.41,10.1-3.27.84-7.53.68-8.82-2.72-1.79-4.69,4.9-8.55,8.6-10.22,2.46-1.11.3-4.44-2.16-3.33Z"/><path class="d" d="M346,1050.14a5.22,5.22,0,1,1-5.76,5.2A5.5,5.5,0,0,1,346,1050.14Z"/><path class="d" d="M430.84,963.69a3.63,3.63,0,1,1-4,3.61A3.83,3.83,0,0,1,430.84,963.69Z"/><path class="d" d="M505,1080.3c0,4.65-4.2,8.44-9.36,8.44s-9.36-3.79-9.36-8.44,4.2-8.44,9.36-8.44S505,1075.64,505,1080.3Zm-15.3,0c0,3,2.67,5.35,5.94,5.35s5.94-2.4,5.94-5.35-2.67-5.36-5.94-5.36S489.71,1077.35,489.71,1080.3Z"/><path class="e" d="M480.72,1101.36c-7.94,0-16.87-1-23.07-5.94-7.24-5.73-5.77-15.62.17-21.5,5-5,9.48-8,10.75-15,1.08-5.94-1.64-10.71-7.47-13.51-6.79-3.25-14.22-3.76-19.77-9.06-9.48-9.06,1.26-15.88,7.33-22.65a16.39,16.39,0,0,0,1.92-20c-4-6.39-12.66-9-20.33-9.11a34.5,34.5,0,0,0-6.17.61c-2.7.47-1.55,4.18,1.14,3.72,9.36-1.6,20.62,1.23,23.33,10.42,2.76,9.38-6.73,14.12-11.86,20.6-5.75,7.25-3.44,14.95,3.47,20.84,5.22,4.44,12.56,5.24,18.79,8,7.35,3.25,6.88,11.73,2,16.88-4.53,4.79-9.95,8.1-11.87,14.51-2.09,7,.77,14.66,7,19.09,5.92,4.24,13.89,5.52,21.24,5.93,1.14.06,2.29.07,3.43.08a1.93,1.93,0,1,0,0-3.86Z"/><path class="e" d="M309.22,973.57c12.36-1.64,24.71-.46,37,.78,10.47,1,20.83,2.64,31.16,4.44-.42-.95-.85-1.89-1.28-2.83-5.54,10.85-12.95,20.68-20.84,30.24-6.55,7.95-14.82,14.53-21.44,22.41h3.69c-12.91-17-20.7-37.66-27.24-57.3-.79-2.37-4.92-1.36-4.12,1,6.63,19.91,14.58,40.93,27.67,58.22a2.3,2.3,0,0,0,3.69,0c6.34-7.55,14.32-13.84,20.63-21.43,8.2-9.86,15.92-20,21.66-31.23a1.91,1.91,0,0,0-1.28-2.83c-10.16-1.77-20.35-3.39-30.63-4.41-13.33-1.32-26.48-2.58-39.83-.81-2.72.36-1.56,4.07,1.13,3.72Z"/><path class="e" d="M519.89,1051.87a93.16,93.16,0,0,0,7.3-11c3.73-6,7.61-11.88,11.81-17.61a1.78,1.78,0,0,0-.33-2.34c-8.77-7.53-21.39-10.13-32.11-14.59-1-.4-2.41-.33-2.92.69a278.85,278.85,0,0,1-16.39,28.09c-1.42,2.14,2.28,4.07,3.69,1.94A277.6,277.6,0,0,0,507.33,1009l-2.93.69c10.33,4.29,22.82,6.75,31.25,14l-.34-2.34c-4.2,5.73-8.07,11.63-11.81,17.61-2.31,3.7-4.46,7.57-7.3,11-1.66,2,2,3.9,3.69,1.94Z"/><path class="e" d="M460.48,969.76,498,986.93c2.45,1.12,4.62-2.2,2.16-3.33l-37.5-17.17c-2.45-1.12-4.62,2.21-2.16,3.33Z"/><path class="e" d="M466.57,958l38,17.39c2.45,1.12,4.61-2.2,2.15-3.33l-38-17.39c-2.46-1.12-4.62,2.2-2.16,3.33Z"/><path class="e" d="M472.6,946l38,17.39c2.45,1.12,4.61-2.21,2.15-3.33l-38-17.39c-2.46-1.13-4.62,2.2-2.16,3.33Z"/><path class="e" d="M382.29,954.68c2.34-7.56,4-15.32,5.83-23l-3.58.85c6.93,6,14.1,11.87,20.39,18.39a2.28,2.28,0,0,0,3.36-.39c3.49-6.93,7.84-13.54,10.41-20.83l-3.57.86c6.8,5.61,12.07,13.06,20.09,17.38a2.31,2.31,0,0,0,2.59-.3c5.2-5.91,6.36-13.68,9.29-20.56,1-2.33-3.14-3.33-4.12-1-2.61,6.14-3.57,13.6-8.19,18.86l2.59-.3c-7.65-4.12-12.72-11.42-19.23-16.78a2.25,2.25,0,0,0-3.57.85c-2.46,7-6.64,13.27-10,19.9l3.36-.39c-6.3-6.52-13.47-12.42-20.39-18.39-1.11-.95-3.23-.62-3.57.85-1.83,7.67-3.49,15.43-5.83,23-.74,2.4,3.38,3.42,4.12,1Z"/><path class="e" d="M373.13,1024.09c-6.74,7.13-9.73,17.46.13,23.55a15.29,15.29,0,0,0,12.47,1.31c4.85-1.75,7.74-6.52,10.18-10.38,1.37-2.16-2.32-4.1-3.69-2-3.43,5.43-6.83,10.54-14.53,8.7-10.39-2.48-6.32-13.45-1.54-18.5,1.78-1.88-1.23-4.62-3-2.73Z"/><path class="e" d="M355.24,1087.31c5.59-3.81,14.22-1.84,20.46-.65,8.07,1.52,16,3.72,24.17,4.72,6.36.78,12.53.54,17.54-3.45a13.65,13.65,0,0,0,4.46-14.83c-1.89-5.41-8.23-7.76-14.09-7.29-7,.57-12.11,5.55-16,10.32-3.63,4.45-6.36,9.41-10,13.85-5.34,6.57-10,16-20.75,14.56-2.69-.36-3.86,3.36-1.14,3.72a19.32,19.32,0,0,0,17.53-6.17A113.47,113.47,0,0,0,388.58,1088c3.36-4.87,6.28-9.93,10.77-14.06s13.28-6.9,17.66-1.15c3.56,4.68-.08,11.31-4.87,13.86-5.65,3-14.4.65-20.27-.53-7.39-1.49-14.68-3.4-22.19-4.34-5.49-.69-11.93-1-16.6,2.19-2.17,1.48,0,4.84,2.16,3.33Z"/><path class="e" d="M395.18,1014.92a94.48,94.48,0,0,1,7.68-9.46c1.7-1.92-1.3-4.67-3-2.73a102.57,102.57,0,0,0-8.35,10.24c-1.44,2.13,2.26,4.07,3.69,1.95Z"/><path class="e" d="M286,1067l38,17.39c2.45,1.13,4.62-2.2,2.16-3.33l-38-17.39c-2.45-1.12-4.61,2.21-2.16,3.33Z"/><path class="e" d="M292,1055.09l38,17.39c2.45,1.12,4.62-2.2,2.16-3.33l-38-17.39c-2.45-1.12-4.62,2.2-2.16,3.33Z"/><path class="e" d="M256.42,996.8c-6.58,3-13.51,9-9.85,16.16,3.1,6.06,11.78,4.54,17.16,2.68,8-2.75,15.22-7,22.86-10.35a36.12,36.12,0,0,1,4.56-1.7c1.81-.53,2.15-.17,3.57,1,5.24,4.47-.59,10.1-5.1,12.43-2.4,1.23-.24,4.56,2.16,3.33,6.59-3.4,12.92-11.24,6.77-17.65-2.27-2.36-4.11-3.68-7.53-3.12-3.07.51-6.08,2.08-8.82,3.34-7.65,3.53-15.08,8-23.41,10.11-3.26.83-7.52.67-8.82-2.73-1.79-4.69,4.91-8.54,8.6-10.21,2.47-1.12.3-4.45-2.15-3.34Z"/></g><g class="f"><path class="g" d="M868.55,1050V30.28a30.08,30.08,0,0,0-30-30h-30.5a30.08,30.08,0,0,1,30,30V1050a30.09,30.09,0,0,1-30,30h30.5a30.09,30.09,0,0,0,30-30"/></g><rect class="h" x="733.28" y="-0.04" width="24" height="1079.51"/></svg>