<svg xmlns="http://www.w3.org/2000/svg" xmlns:xlink="http://www.w3.org/1999/xlink" viewBox="0 0 868 1079.75"><defs><style>.a{fill:none;}.b{clip-path:url(#a);}.c{fill:#e5e5e5;}.d{fill:#942780;}.e{fill:#fac2bf;}.f{fill:#6c9c8d;}.g{fill:#fff;}</style><clipPath id="a" transform="translate(-11.26 -9.82)"><rect class="a" x="11.26" y="9.82" width="868" height="1079.75"/></clipPath></defs><title>06 Cubes</title><g class="b"><path class="c" d="M849.26,1089.57h-64V9.82h64a30.09,30.09,0,0,1,30,30V1059.58a30.09,30.09,0,0,1-30,30" transform="translate(-11.26 -9.82)"/><path class="d" d="M818.76,1089.57H11.26V9.82h807.5a30.09,30.09,0,0,1,30,30V1059.58a30.09,30.09,0,0,1-30,30" transform="translate(-11.26 -9.82)"/></g><path class="e" d="M317.05,207.74l6.36-3.55,6.36,3.56ZM323.41,222h0l-6.36-3.56h12.72Zm12.73-7.12H310.68l-3.18-1.78,3.19-1.78h25.45l3.18,1.78Zm6.36,0-3.18-1.78V195.3l3.18-1.78v21.34Zm19.09-7.11v-7.12l6.37-3.56V211.3ZM342.5,229.09H304.32L298,225.53h50.91ZM355.23,222l-6.36-3.56V190l6.36-3.56V222Zm19.09-10.68V197.07l6.37,3.56v7.11Zm-44.55,32v-7.11h0l6.37-3.56v14.23Zm12.73,3.56V232.65l6.36,3.56v7.11Zm38.19-21.34,6.36-3.56,2.47,1.38,3.89,2.18Zm-19.1-7.12,6.37-3.56h38.18l6.37,3.56Zm-6.36,39.13V222l6.36,3.55V254Zm31.82-17.78-6.36-3.56h12.72Zm12.73-7.12H374.32l-3.18-1.78v17.79L368,250.44V229.09l3.18,1.78,3.18-1.78h25.46l3.18,1.78Z" transform="translate(-11.26 -9.82)"/><path class="e" d="M380.69,172.17l6.36-3.56,6.36,3.56Zm6.36,14.23h0l-6.36-3.56h12.72Zm12.73-7.12H374.32l-3.18-1.78,3.18-1.78h25.46l3.18,1.78Zm6.36,0L403,177.51V159.72l3.18-1.78v21.34Zm19.09-7.11v-7.12l6.37-3.55v14.23Zm-19.09,21.34H368L361.6,190h50.91Zm12.73-7.11-6.36-3.56V154.38l6.36-3.56V186.4ZM438,175.73V161.49l6.37,3.56v7.12Zm-44.55,32v-7.11l6.37-3.56h0V211.3Zm12.73,3.56V197.07l6.36,3.56v7.11ZM444.33,190l6.36-3.56,2.47,1.38h0l3.89,2.18Zm-19.1-7.12,6.37-3.56h38.18l6.37,3.56ZM418.87,222V186.4l6.36,3.56v28.46Zm31.82-17.79-6.37-3.56h12.73Zm12.73-7.12H438l-3.18-1.78v17.79l-3.18,1.78V193.51l3.18,1.78,3.18-1.77h25.46l3.18,1.78Z" transform="translate(-11.26 -9.82)"/><path class="e" d="M418.87,222Zm-38.18,21.34,6.36-3.55,6.36,3.55Zm6.36,14.23L380.68,254h12.73Zm12.73-7.11H374.32l-3.18-1.78,3.18-1.78h25.46l3.18,1.78Zm19.09-10.67ZM403,248.66V230.87l3.18-1.78v21.35Zm22.27-5.33v-7.12l6.37-3.56v14.23Zm-19.09,21.34H368l-6.37-3.56h50.92ZM412.51,254V225.53l6.36-3.55v35.58ZM438,246.88V232.65l6.37,3.56v7.11Zm-44.55,32v-7.11h0l6.37-3.56v14.23Zm12.73,3.56V268.23l6.37,3.56v7.11Zm38.19-21.35,6.36-3.55,2.47,1.38,3.89,2.17ZM425.23,254l6.37-3.56h38.18l6.37,3.56Zm-6.36,39.13V257.56l6.36,3.55v28.47Zm31.82-17.79-6.36-3.55h12.72Zm12.73-7.11H438l-3.18-1.78v17.79L431.6,286V264.67l3.18,1.78,3.18-1.78h25.46l3.18,1.78Z" transform="translate(-11.26 -9.82)"/><path class="e" d="M482.51,186.4Zm-38.18,21.35,6.36-3.56,6.36,3.56ZM450.69,222l-6.37-3.56h12.73Zm12.73-7.12H438l-3.18-1.78L438,211.3h25.46l3.18,1.78Zm19.09-10.67Zm-15.91,8.89V195.29l3.18-1.78v21.35Zm22.27-5.33v-7.12l6.37-3.56V211.3Zm-19.09,21.34H431.6l-6.37-3.56h50.92Zm6.37-10.67V190l6.36-3.56V222Zm25.45-7.12V197.07l6.37,3.56v7.12Zm-44.55,32v-7.11l6.37-3.56h0v14.23Zm12.73,3.56V232.65l6.37,3.56v7.11ZM508,225.53l6.36-3.55,2.47,1.38h0l3.89,2.17Zm-19.1-7.11,6.37-3.56h38.18l6.37,3.56Zm-6.36,39.13V222l6.36,3.55V254Zm31.82-17.78L508,236.21h12.72Zm12.73-7.12H501.6l-3.18-1.78v17.79l-3.18,1.78V229.09l3.18,1.78,3.18-1.78h25.46l3.18,1.78Z" transform="translate(-11.26 -9.82)"/><path class="f" d="M444.08,280.49l6.38-3.68v7.09Zm-9.57,23.24h0v-7.08l6.38,3.4Zm12.76-7.36-12.76-6.81V286l3.19-1.84,12.76,6.8v3.55Zm3.19,1.7v-3.54l15.94-26.92,3.19-1.85-19.13,32.31Zm15.94-5.66,6.38-10.77,6.38-3.68L466.4,299.5Zm-28.7,27.2-19.13-10.22v-7.08l25.51,13.62Zm12.76-7.37v-7.08L476,262.08l6.38-3.68-16,26.92-15.94,26.92Zm19.13-11,12.76-21.54v7.08L476,297.51Zm-51,36.54L425,327h0l6.38-3.68-12.75,21.54Zm3.19,8.79L434.51,325v7.09l-6.38,10.77ZM460,324.44l6.38-3.68v7.08Zm-3.19-15.88,6.38-3.68,19.14,10.21v7.09Zm-38.26,57.53,31.89-53.85v7.09l-25.52,43.08Zm31.89-18.41v-7.09l6.37,3.4Zm12.75-7.37-12.75-6.81V330l-15.95,26.92-3.19,1.84,19.14-32.3V330l3.19-1.84,12.75,6.81v3.54Z" transform="translate(-11.26 -9.82)"/><path class="f" d="M507.86,243.67l6.38-3.68v7.08Zm-9.57,23.24h0v-7.09l6.38,3.41Zm12.76-7.36-12.76-6.81v-3.55l3.19-1.84,12.76,6.81v3.54Zm3.19,1.7V257.7l15.94-26.92,3.19-1.84-19.13,32.31Zm15.94-5.67,6.38-10.76,6.38-3.69-12.76,21.54Zm-28.7,27.21-19.13-10.22v-7.09l25.51,13.62Zm12.76-7.37v-7.09l25.51-43.07,6.37-3.68L530.18,248.5l-15.94,26.92Zm19.13-11.05,12.76-21.53v7.08l-6.38,10.77Zm-51,36.55,6.37-10.77,6.38-3.68h0L482.35,308Zm3.19,8.79,12.75-21.54v7.09L491.91,306Zm38.26-22.1,6.38-3.68v2.75h0V291Zm-3.19-15.87,6.38-3.68,19.14,10.21v7.09Zm-38.26,57.52,31.89-53.84v7.09l-25.52,43.07Zm31.89-18.41v-7.08l6.37,3.4ZM527,303.49l-12.75-6.81v-3.54l-15.95,26.92-3.19,1.84,19.14-32.31v3.55l3.19-1.84,12.75,6.8v3.55Z" transform="translate(-11.26 -9.82)"/><path class="f" d="M482.35,329.26Zm-38.27,22.1,6.38-3.68v7.08Zm-9.57,23.24v-7.09l6.38,3.41Zm12.76-7.37-12.76-6.8v-3.55L437.7,355l12.76,6.81v3.54Zm19.13-11Zm-15.94,12.74v-3.54l15.94-26.92,3.19-1.84-19.13,32.31Zm15.94-5.66,6.38-10.77,6.38-3.68L466.4,370.36Zm-28.7,27.21-19.13-10.22v-7.09l25.51,13.62ZM450.46,376,476,333l6.38-3.69-16,26.93-15.94,26.92Zm19.13-4,12.76-21.54v7.09L476,368.38Zm-51,36.55L425,397.84h0l6.38-3.68L418.57,415.7Zm3.19,8.79,12.75-21.54V403l-6.38,10.76ZM460,395.3l6.38-3.68v7.09Zm-3.19-15.87,6.38-3.68L482.35,386V393ZM418.57,437l31.89-53.84v7.09l-25.52,43.07Zm31.89-18.41v-7.08l6.37,3.4Zm12.75-7.36-12.75-6.81v-3.54l-15.95,26.92-3.19,1.84,19.14-32.31v3.55l3.19-1.84,12.75,6.8v3.55Z" transform="translate(-11.26 -9.82)"/><path class="f" d="M546.12,292.44h0Zm-38.26,22.09,6.38-3.68v7.09Zm-9.57,23.25v-7.09l6.38,3.4Zm12.76-7.37-12.76-6.81v-3.54l3.19-1.84L514.24,325v3.54Zm19.13-11.05Zm-15.94,12.75v-3.54l15.94-26.92,3.19-1.84-19.13,32.3Zm15.94-5.66,6.38-10.77,6.38-3.68-12.76,21.54Zm-28.7,27.2-19.13-10.21v-7.09L507.86,350Zm12.76-14.45,25.51-43.08,6.37-3.68-15.94,26.92-15.94,26.93Zm19.13-4,12.76-21.54v7.09l-6.38,10.77Zm-51,36.55L488.72,361l6.38-3.69h0l-12.75,21.54Zm3.19,8.78L498.29,359v7.08l-6.38,10.77Zm38.26-22.09,6.38-3.68v2.75h0v4.33Zm-3.19-15.87,6.38-3.69,19.14,10.22v7.08Zm-38.26,57.52,31.89-53.84v7.08l-25.52,43.08Zm31.89-18.41v-7.09l6.37,3.41ZM527,374.36l-12.75-6.81V364l-15.95,26.93-3.19,1.84,19.14-32.31V364l3.19-1.84L530.18,369v3.54Z" transform="translate(-11.26 -9.82)"/><path class="g" d="M393.05,280.49l-6.37-3.68v7.09Zm9.57,23.24h0v-7.08l-6.38,3.4Zm-12.75-7.36,12.75-6.81V286l-3.19-1.85L386.68,291v3.55Zm-3.19,1.7v-3.54l-15.95-26.92-3.19-1.85Zm-15.95-5.66-6.38-10.77L358,278l12.75,21.53Zm28.7,27.2,19.14-10.22v-7.08l-25.52,13.62Zm-12.75-7.37v-7.08l-25.51-43.08-6.38-3.68,15.94,26.92,15.95,26.92Zm-19.14-11-12.75-21.54v7.08l6.37,10.77Zm51,36.54L412.19,327h0l-6.38-3.68,12.76,21.54Zm-3.19,8.79L402.62,325v7.09L409,342.85Zm-38.27-22.09-6.38-3.68v7.08Zm3.19-15.88-6.38-3.68-19.13,10.21v7.09Zm38.27,57.53-31.89-53.85v7.09l25.51,43.08Zm-31.89-18.41v-7.09L380.3,344Zm-12.76-7.37,12.76-6.81V330l15.94,26.92,3.19,1.84-19.13-32.3V330l-3.19-1.84-12.76,6.81v3.54Z" transform="translate(-11.26 -9.82)"/><path class="g" d="M329.27,243.67,322.9,240v7.08Zm9.57,23.24h0v-7.09l-6.38,3.41Zm-12.75-7.36,12.75-6.81v-3.55l-3.19-1.84-12.75,6.81v3.54Zm-3.19,1.7V257.7L307,230.78l-3.18-1.84ZM307,255.59l-6.37-10.77-6.38-3.69L307,262.67Zm28.7,27.2,19.14-10.22v-7.09L329.28,279.1Zm-12.75-7.37v-7.09l-25.51-43.07L291,221.58,307,248.5l15.95,26.92Zm-19.14-11.05L291,242.84v7.08l6.38,10.77Zm51,36.55-6.38-10.77L342,286.47h0L354.79,308Zm-3.19,8.79-12.76-21.54v7.09L345.22,306Zm-38.27-22.1L307,283.93v2.75h0V291Zm3.19-15.87-6.38-3.68L291,278.27v7.09Zm38.27,57.52L322.9,275.42v7.09l25.51,43.07ZM322.9,310.85v-7.08l-6.38,3.4Zm-12.76-7.36,12.76-6.81v-3.54l15.94,26.92L342,321.9,322.9,289.59v3.55l-3.19-1.84L307,298.1v3.55Z" transform="translate(-11.26 -9.82)"/><path class="g" d="M354.79,329.26Zm38.26,22.1-6.37-3.68v7.08Zm9.57,23.24v-7.09l-6.38,3.41Zm-12.75-7.37,12.75-6.81v-3.54L399.43,355l-12.75,6.81v3.54Zm-19.14-11Zm15.95,9.2-15.95-26.92-3.19-1.84,19.14,32.31Zm-15.95-2.11-6.38-10.78L358,348.82l12.75,21.54Zm28.7,27.19,19.14-10.21v-7.09l-25.52,13.62ZM386.68,376,361.16,333l-6.37-3.69,15.94,26.93,15.95,26.92Zm-19.14-4-12.75-21.54v7.09l6.37,10.77Zm51,36.55-6.38-10.77h0l-6.38-3.68,12.76,21.54Zm-3.19,8.79-12.76-21.54V403L409,413.71Zm-38.27-22.1-6.38-3.68v7.09Zm3.19-15.87-6.38-3.68L354.79,386v7.09ZM418.57,437l-31.89-53.84v7.09l25.51,43.07Zm-31.89-18.41v-7.08l-6.38,3.4Zm-12.76-7.36,12.76-6.81v-3.54l15.94,26.92,3.19,1.84-19.13-32.31v3.55L383.49,399l-12.76,6.8v3.55Z" transform="translate(-11.26 -9.82)"/><path class="g" d="M291,292.44Zm38.27,22.09-6.38-3.68v7.09Zm9.56,23.25v-7.09l-6.38,3.4Zm-12.75-7.37,12.75-6.81v-3.54l-3.19-1.84L322.9,325v3.54ZM307,319.36Zm15.95,9.21L307,301.65l-3.19-1.84,19.14,32.3ZM307,326.45l-6.37-10.77L294.2,312,307,333.54Zm28.7,27.2,19.14-10.21v-7.09L329.28,350ZM322.9,339.2l-25.51-43.08L291,292.44,307,319.36l15.95,26.93Zm-19.14-4L291,313.7v7.09l6.38,10.77Zm51,36.55L348.41,361,342,357.33h0l12.76,21.54Zm-3.19,8.78L338.84,359v7.08l6.38,10.77Zm-38.27-22.09L307,354.8v2.75h0v4.33Zm3.19-15.87-6.38-3.69L291,349.14v7.08Zm38.27,57.52L322.9,346.29v7.08l25.51,43.08ZM322.9,381.72v-7.09L316.52,378Zm-12.76-7.37,12.76-6.8V364l15.94,26.93,3.19,1.84L322.9,360.46V364l-3.19-1.84L307,369v3.54Z" transform="translate(-11.26 -9.82)"/><path class="e" d="M198.91,429.61l4.84-2.71,1.52-.85,6.36,3.56Zm6.36,14.23-6.37-3.55h12.73ZM218,436.73H192.54L189.36,435l3.18-1.78H218l3.18,1.78Zm6.36,0L221.18,435V417.16l1.22-.68,2-1.1v21.35Zm19.09-7.12V422.5l6.37-3.56v14.23ZM224.36,451H186.18l-6.37-3.56h50.92Zm12.73-7.12-6.37-3.55V411.82l6.36-3.55h0v35.57Zm19.09-10.67V418.94l6.37,3.56v7.11Zm-44.55,32v-7.12h0l6.37-3.55v14.23Zm12.73,3.56V454.52l6.36,3.55v7.12Zm38.18-21.35,6.37-3.56,2.47,1.38,3.89,2.18Zm-19.09-7.11,6.37-3.56H288l6.36,3.55Zm-6.36,39.13V443.84l6.36,3.56v28.46Zm31.82-17.79-6.37-3.56h12.73Zm12.73-7.11H256.18L253,452.74v17.79l-3.18,1.78V451l3.18,1.78,3.18-1.78h25.46l3.18,1.78Z" transform="translate(-11.26 -9.82)"/><path class="e" d="M262.55,394l1.81-1,4.55-2.54,6.36,3.55Zm6.36,14.24-6.37-3.56h12.73Zm12.73-7.12H256.18L253,399.37l3.18-1.78h25.46l3.18,1.78Zm6.36,0-3.18-1.78V381.58l2.85-1.6.33-.18v21.35ZM307.09,394v-7.11l6.37-3.56v14.23ZM288,415.38H249.82l-6.37-3.56h50.91Zm12.73-7.12-6.37-3.55V376.24l6.37-3.55h0v35.58Zm19.09-10.67V383.36l6.36,3.56V394Zm-44.55,32V422.5l6.37-3.56h0v14.23ZM288,433.17V418.94l6.36,3.56v7.11Zm38.18-21.35,6.37-3.55,2.47,1.38h0l3.89,2.17Zm-19.09-7.11,6.37-3.56h38.18l6.36,3.56Zm-6.36,39.13V408.27l6.36,3.55v28.47Zm31.82-17.79-6.37-3.55h12.73Zm12.73-7.11H319.82l-3.18-1.78V435l-3.18,1.78V415.38l3.19,1.78,3.18-1.78h25.46l3.18,1.78Z" transform="translate(-11.26 -9.82)"/><path class="e" d="M300.73,443.84Zm-38.18,21.35,6.36-3.56,6.36,3.56Zm6.36,14.23-6.37-3.56h12.73Zm12.73-7.11H256.18L253,470.53l3.18-1.78h25.46l3.18,1.78Zm19.09-10.68ZM288,472.31l-3.18-1.78V452.74L288,451v21.35Zm19.09-7.12v-7.12l6.37-3.55v14.23ZM288,486.54H249.82L243.45,483h50.92Zm6.37-10.68V447.4l6.36-3.56v35.58Zm25.45-7.11V454.52l6.37,3.55v7.12Zm-44.55,32v-7.12h0l6.37-3.56v14.24ZM288,504.32V490.09l6.36,3.56v7.12ZM326.18,483l6.37-3.56L335,480.8l3.89,2.18Zm-19.09-7.12,6.37-3.55h38.18l6.37,3.55ZM300.73,515V479.42l6.36,3.56v28.46Zm31.82-17.79-6.36-3.56h12.72Zm12.73-7.12H319.82l-3.18-1.77V506.1l-3.18,1.78V486.54l3.18,1.78,3.18-1.78h25.45l3.19,1.78Z" transform="translate(-11.26 -9.82)"/><path class="e" d="M364.37,408.27h0Zm-38.19,21.34,6.37-3.56,6.36,3.56Zm6.37,14.23-6.37-3.56h12.73Zm12.73-7.11H319.82L316.64,435l3.18-1.78h25.46l3.18,1.78Zm19.09-10.68Zm-12.73,10.68L348.46,435V417.16l3.18-1.78v21.35Zm19.09-7.12V422.5l6.36-3.56v14.23ZM351.64,451H313.46l-6.37-3.56H358ZM358,440.29V411.82l6.37-3.55v35.57Zm25.46-7.12V418.94l6.37,3.56v7.11Zm-44.55,32v-7.11l6.37-3.56h0v14.23Zm12.73,3.56V454.52l6.36,3.55v7.12Zm38.18-21.35,6.37-3.56,2.47,1.38h0l3.89,2.18Zm-19.09-7.11,6.37-3.56h38.18l6.37,3.56Zm-6.36,39.13V443.84l6.36,3.56v28.46Zm31.82-17.79-6.37-3.55h12.73Zm12.73-7.11H383.46l-3.18-1.78v17.79l-3.18,1.78V451l3.19,1.78,3.18-1.78h25.45l3.19,1.78Z" transform="translate(-11.26 -9.82)"/><path class="g" d="M274.91,502.36l-6.37-3.68v7.08Zm9.57,23.24h0v-7.09l-6.38,3.41Zm-12.76-7.37,12.76-6.81v-3.54L281.29,506l-12.75,6.81v3.54Zm-3.18,1.7v-3.54l-16-26.92-3.19-1.84,19.14,32.31Zm-16-5.66-6.38-10.76-6.37-3.69,12.75,21.54Zm28.7,27.2,19.14-10.21v-7.09l-25.52,13.62Zm-12.75-7.36V527L243,484l-6.37-3.68,15.94,26.92,16,26.92ZM249.4,523.06l-12.75-21.54v7.09L243,519.38Zm51,36.55-6.38-10.77h0l-6.38-3.68,12.76,21.54Zm-3.19,8.78-12.76-21.53V554l6.38,10.76ZM259,546.3l-6.38-3.68v7.09Zm3.19-15.87-6.38-3.68L236.65,537V544ZM300.43,588l-31.89-53.84v7.09l25.51,43.07Zm-31.89-18.41v-7.08l-6.38,3.4Zm-12.76-7.36,12.76-6.81v-3.54l15.94,26.92,3.19,1.84-19.13-32.31v3.55L265.35,550l-12.76,6.8v3.55Z" transform="translate(-11.26 -9.82)"/><path class="g" d="M211.13,465.54l-6.37-3.69v7.09Zm9.57,23.24h0v-7.09l-6.38,3.4ZM208,481.41l12.75-6.81v-3.54l-3.19-1.84L204.76,476v3.54Zm-3.19,1.7v-3.54l-15.95-26.92-3.19-1.84,19.14,32.3Zm-15.95-5.66-6.38-10.77L176.06,463l12.75,21.54Zm28.7,27.2,19.14-10.21v-7.09L211.13,501Zm-12.75-7.36V490.2l-25.51-43.08-6.38-3.68,15.94,26.92,15.95,26.93Zm-19.14-11.05L172.87,464.7v7.09l6.37,10.77Zm51,36.54L230.27,512l-6.38-3.69h0l12.76,21.54Zm-3.19,8.79L220.7,510v7.08l6.38,10.77Zm-38.27-22.09-6.38-3.68v2.75h0v4.33Zm3.19-15.87L192,489.92l-19.13,10.21v7.09Zm38.27,57.52-31.89-53.84v7.08l25.51,43.08Zm-31.89-18.41v-7.09L198.38,529ZM192,525.36l12.76-6.81V515l15.94,26.93,3.19,1.84-19.13-32.31V515l-3.19-1.84L188.81,520v3.54Z" transform="translate(-11.26 -9.82)"/><path class="g" d="M236.65,551.13Zm38.26,22.09-6.37-3.68v7.09Zm9.57,23.24v-7.08l-6.38,3.4Zm-12.76-7.36,12.76-6.81v-3.54l-3.19-1.84-12.75,6.81v3.54Zm-19.13-11.05Zm16,12.75v-3.54l-16-26.92-3.19-1.85Zm-16-5.66-6.38-10.77-6.37-3.68,12.75,21.54Zm28.7,27.2,19.14-10.21V595l-25.52,13.62Zm-12.75-14.45L243,554.81l-6.37-3.68,15.94,26.92,16,26.93Zm-19.14-4-12.75-21.54v7.09L243,590.25Zm51,36.55-6.38-10.78h0L287.67,616l12.76,21.54Zm-3.19,8.78-12.76-21.54v7.09l6.38,10.77ZM259,617.17l-6.38-3.68v7.08Zm3.19-15.88-6.38-3.68-19.13,10.22v7.08Zm38.27,57.53L268.54,605v7.08l25.51,43.08Zm-31.89-18.41v-7.09l-6.38,3.41Zm-12.76-7.36,12.76-6.81v-3.55l15.94,26.93,3.19,1.84-19.13-32.31v3.54l-3.19-1.84-12.76,6.81v3.54Z" transform="translate(-11.26 -9.82)"/><path class="g" d="M172.87,514.31Zm38.26,22.09-6.37-3.68v7.08Zm9.57,23.24v-7.08l-6.38,3.4ZM208,552.28l12.75-6.81v-3.54l-3.19-1.85-12.75,6.81v3.55Zm-19.14-11ZM204.76,554v-3.54l-15.95-26.93-3.19-1.84Zm-15.95-5.66-6.38-10.77-6.37-3.68,12.75,21.53Zm28.7,27.2,19.14-10.22v-7.08l-25.52,13.62Zm-12.75-14.45L179.24,518l-6.37-3.68,15.94,26.92,15.95,26.92Zm-19.14-4-12.75-21.54v7.09l6.37,10.76Zm51,36.54-6.38-10.77-6.38-3.68h0l12.76,21.54Zm-3.19,8.79L220.7,580.9V588l6.38,10.77Zm-38.27-22.09-6.38-3.68v2.74h0v4.34Zm3.19-15.88L192,560.79,172.87,571v7.09ZM236.65,622l-31.89-53.85v7.09l25.51,43.08Zm-31.89-18.41V596.5l-6.38,3.4ZM192,596.22l12.76-6.81v-3.54l15.94,26.92,3.19,1.84-19.13-32.31v3.55L201.57,584l-12.76,6.81v3.54Z" transform="translate(-11.26 -9.82)"/><path class="e" d="M450.05,711.74l6.36-3.55,6.36,3.56ZM456.41,726h0l-6.36-3.56h12.72Zm12.73-7.12H443.68l-3.18-1.78,3.18-1.78h25.46l3.18,1.78Zm6.36,0-3.18-1.78V699.29l3.18-1.77v21.34Zm19.09-7.11v-7.12l6.37-3.56V715.3ZM475.5,733.09H437.32L431,729.53h50.92ZM488.23,726l-6.36-3.56V694l6.36-3.56V726Zm19.09-10.68V701.07l6.37,3.56v7.11Zm-44.55,32v-7.11h0l6.37-3.56v14.23Zm12.73,3.56V736.65l6.37,3.56v7.11Zm38.19-21.34,6.36-3.56,2.47,1.38,3.89,2.18Zm-19.1-7.12,6.37-3.56h38.18l6.37,3.56Zm-6.36,39.14V726l6.37,3.55V758Zm31.82-17.79-6.36-3.56h12.72Zm12.73-7.12H507.32l-3.18-1.78v17.79L501,754.44V733.09l3.18,1.78,3.18-1.78h25.46l3.18,1.78Z" transform="translate(-11.26 -9.82)"/><path class="e" d="M513.69,676.17l6.36-3.56,6.36,3.56Zm6.36,14.23h0l-6.36-3.56h12.72Zm12.73-7.12H507.32l-3.18-1.78,3.18-1.78h25.46l3.18,1.78Zm6.36,0L536,681.51V663.72l3.18-1.78v21.34Zm19.09-7.11v-7.12l6.37-3.55v14.23Zm-19.09,21.35H501L494.6,694h50.91Zm12.73-7.12-6.37-3.56V658.38l6.36-3.56V690.4ZM571,679.73V665.49l6.37,3.56v7.12Zm-44.54,32v-7.12l6.37-3.56h0V715.3Zm12.72,3.55V701.07l6.36,3.56v7.11ZM577.33,694l6.36-3.56,2.47,1.38h0l3.89,2.18Zm-19.1-7.12,6.37-3.56h38.18l6.37,3.56ZM551.87,726V690.4l6.36,3.56v28.46Zm31.82-17.79-6.37-3.56h12.73Zm12.73-7.12H571l-3.18-1.78v17.79l-3.18,1.78V697.51l3.18,1.78,3.18-1.78h25.46l3.18,1.78Z" transform="translate(-11.26 -9.82)"/><path class="e" d="M551.87,726Zm-38.18,21.34,6.36-3.55,6.36,3.55Zm6.36,14.23L513.69,758h12.72Zm12.73-7.11H507.32l-3.18-1.78,3.18-1.78h25.46l3.18,1.78Zm19.09-10.67ZM536,752.66V734.87l3.18-1.78v21.35Zm22.27-5.33v-7.12l6.37-3.56v14.23Zm-19.09,21.34H501l-6.37-3.56h50.92ZM545.51,758V729.53l6.36-3.55v35.57ZM571,750.88V736.65l6.37,3.56v7.11Zm-44.55,32v-7.11h0l6.37-3.56v14.23Zm12.73,3.56V772.23l6.37,3.56v7.11Zm38.18-21.35,6.37-3.55,2.47,1.38,3.89,2.17ZM558.23,758l6.37-3.56h38.18l6.37,3.56Zm-6.36,39.13V761.55l6.36,3.56v28.47Zm31.82-17.79-6.36-3.55h12.72Zm12.73-7.11H571l-3.18-1.78v17.79L564.6,790V768.67l3.18,1.78,3.18-1.78h25.46l3.18,1.78Z" transform="translate(-11.26 -9.82)"/><path class="e" d="M615.51,690.4Zm-38.18,21.35,6.36-3.56,6.36,3.56ZM583.69,726l-6.36-3.56h12.72Zm12.73-7.12H571l-3.18-1.78L571,715.3h25.46l3.18,1.78Zm19.09-10.67Zm-15.91,8.89V699.29l3.18-1.78v21.35Zm22.27-5.33v-7.12l6.37-3.56V715.3Zm-19.09,21.34H564.6l-6.37-3.56h50.92Zm6.37-10.67V694l6.36-3.56V726Zm25.45-7.12V701.07l6.37,3.56v7.12Zm-44.54,32v-7.11l6.37-3.56h0v14.23Zm12.72,3.56V736.65l6.37,3.56v7.11ZM641,729.53l6.36-3.55,2.47,1.38h0l3.89,2.17Zm-19.1-7.11,6.37-3.56h38.18l6.37,3.56Zm-6.36,39.13V726l6.36,3.55V758Zm31.82-17.78L641,740.21h12.73Zm12.73-7.12H634.6l-3.18-1.78v17.79l-3.18,1.78V733.09l3.19,1.78,3.18-1.78h25.46l3.18,1.78Z" transform="translate(-11.26 -9.82)"/><path class="f" d="M577.08,784.49l6.38-3.68v7.09Zm-9.57,23.24h0v-7.08l6.38,3.4Zm12.76-7.36-12.76-6.81V790l3.19-1.84,12.76,6.8v3.55Zm3.19,1.7v-3.54l15.94-26.92,3.19-1.84-19.13,32.3Zm15.94-5.66,6.38-10.77,6.38-3.68L599.4,803.49Zm-28.7,27.2-19.13-10.22v-7.08l25.51,13.62Zm12.76-7.37v-7.08L609,766.08l6.38-3.68-16,26.92-15.94,26.92Zm19.13-11,12.76-21.54v7.08L609,801.51Zm-51,36.54L558,831h0l6.38-3.68-12.75,21.54Zm3.19,8.79L567.51,829v7.09l-6.38,10.77ZM593,828.44l6.38-3.69v7.09Zm-3.19-15.88,6.38-3.68,19.14,10.21v7.09Zm-38.26,57.53,31.89-53.85v7.09l-25.52,43.08Zm31.89-18.41v-7.09l6.37,3.4Zm12.75-7.37-12.75-6.81V834l-16,26.92-3.19,1.84,19.14-32.3V834l3.19-1.84,12.75,6.81v3.54Z" transform="translate(-11.26 -9.82)"/><path class="f" d="M640.86,747.67l6.38-3.68v7.08Zm-9.57,23.24h0v-7.09l6.38,3.41Zm12.76-7.36-12.76-6.81v-3.55l3.19-1.84,12.76,6.81v3.54Zm3.19,1.7V761.7l15.94-26.92,3.19-1.84-19.13,32.31Zm15.94-5.66,6.38-10.77,6.38-3.69-12.76,21.54Zm-28.7,27.2-19.13-10.22v-7.09l25.51,13.62Zm12.76-7.37v-7.09l25.51-43.07,6.37-3.68L663.18,752.5l-15.94,26.92Zm19.13-11,12.76-21.54v7.09l-6.38,10.77Zm-51,36.55,6.37-10.77,6.38-3.68h0L615.35,812Zm3.19,8.79,12.75-21.54v7.09L624.91,810Zm38.26-22.1,6.38-3.68v2.75h0V795Zm-3.19-15.87,6.38-3.68,19.14,10.21v7.09Zm-38.26,57.52,31.89-53.84v7.09l-25.52,43.07Zm31.89-18.41v-7.08l6.37,3.4ZM660,807.49l-12.75-6.81v-3.54l-16,26.92-3.19,1.84,19.14-32.31v3.55l3.19-1.84,12.75,6.8v3.55Z" transform="translate(-11.26 -9.82)"/><path class="f" d="M615.35,833.26Zm-38.27,22.1,6.38-3.68v7.08Zm-9.57,23.24v-7.09l6.38,3.41Zm12.76-7.37-12.76-6.81v-3.54L570.7,859l12.76,6.81v3.54Zm19.13-11Zm-15.94,9.2,15.94-26.92,3.19-1.84-19.13,32.31Zm15.94-2.11,6.38-10.78,6.38-3.68L599.4,874.36Zm-28.7,27.19-19.13-10.21v-7.09l25.51,13.62ZM583.46,880,609,837l6.38-3.69-16,26.93-15.94,26.92Zm19.13-4,12.76-21.54v7.09L609,872.38Zm-51,36.55L558,901.84h0l6.38-3.68L551.57,919.7Zm3.19,8.79,12.75-21.54V907l-6.38,10.76ZM593,899.3l6.38-3.68v7.09Zm-3.19-15.87,6.38-3.68L615.35,890v7.09ZM551.57,941l31.89-53.84v7.09l-25.52,43.07Zm31.89-18.41v-7.08l6.37,3.4Zm12.75-7.36-12.75-6.81v-3.54l-16,26.92-3.19,1.84,19.14-32.31v3.55l3.19-1.85,12.75,6.81v3.55Z" transform="translate(-11.26 -9.82)"/><path class="f" d="M679.12,796.44h0Zm-38.26,22.09,6.38-3.68v7.09Zm-9.57,23.25v-7.09l6.38,3.4Zm12.76-7.37-12.76-6.81v-3.54l3.19-1.84L647.24,829v3.54Zm19.13-11Zm-15.94,9.21,15.94-26.92,3.19-1.84-19.13,32.3Zm15.94-2.12,6.38-10.77,6.38-3.68-12.76,21.54Zm-28.7,27.2-19.13-10.21v-7.09L640.86,854Zm12.76-14.45,25.51-43.08,6.37-3.68-15.94,26.92-15.94,26.93Zm19.13-4,12.76-21.54v7.09l-6.38,10.77Zm-51,36.55L621.72,865l6.38-3.69h0l-12.75,21.54Zm3.19,8.78L631.29,863v7.08l-6.38,10.77Zm38.26-22.09,6.38-3.68v2.75h0v4.33Zm-3.19-15.88,6.38-3.68,19.14,10.22v7.08Zm-38.26,57.53,31.89-53.84v7.08l-25.52,43.08Zm31.89-18.41v-7.09l6.37,3.41ZM660,878.36l-12.75-6.81V868l-16,26.93-3.19,1.84,19.14-32.31V868l3.19-1.84L663.18,873v3.54Z" transform="translate(-11.26 -9.82)"/><path class="e" d="M572.91,637.74l6.36-3.55,6.36,3.56ZM579.27,652h0l-6.36-3.56h12.72ZM592,644.86H566.54l-3.18-1.78,3.18-1.78H592l3.18,1.78Zm6.36,0-3.18-1.78V625.29l3.18-1.77v21.34Zm19.09-7.11v-7.12l6.37-3.56V641.3Zm-19.09,21.34H560.18l-6.37-3.56h50.92ZM611.09,652l-6.36-3.56V620l6.36-3.56V652Zm19.09-10.68V627.07l6.37,3.56v7.11Zm-44.55,32v-7.11h0l6.37-3.56v14.23Zm12.73,3.56V662.65l6.36,3.56v7.11Zm38.18-21.34,6.37-3.56,2.47,1.38,3.89,2.18Zm-19.09-7.12,6.37-3.56H662l6.36,3.56Zm-6.36,39.14V652l6.36,3.55V684Zm31.82-17.79-6.37-3.56h12.73Zm12.73-7.12H630.18L627,660.87v17.79l-3.18,1.78V659.09l3.18,1.78,3.18-1.78h25.45l3.19,1.78Z" transform="translate(-11.26 -9.82)"/><path class="e" d="M636.55,602.17l6.36-3.56,6.36,3.56Zm6.36,14.23h0l-6.36-3.56h12.72Zm12.73-7.12H630.18L627,607.5l3.18-1.78h25.46l3.18,1.78Zm6.36,0-3.18-1.77V589.72l3.18-1.78v21.34Zm19.09-7.11v-7.12l6.37-3.55v14.23ZM662,623.52H623.82L617.45,620h50.91Zm12.73-7.12-6.37-3.56V584.38l6.37-3.56V616.4Zm19.09-10.67V591.49l6.36,3.56v7.12Zm-44.55,32v-7.12l6.37-3.56h0V641.3ZM662,641.3V627.07l6.36,3.56v7.11ZM700.18,620l6.37-3.56,2.47,1.38h0l3.89,2.18Zm-19.09-7.12,6.37-3.56h38.18l6.36,3.56ZM674.73,652V616.4l6.36,3.56v28.46Zm31.82-17.79-6.37-3.56h12.73Zm12.73-7.12H693.82l-3.18-1.78v17.79l-3.18,1.78V623.51l3.19,1.78,3.18-1.78h25.45l3.19,1.78Z" transform="translate(-11.26 -9.82)"/><path class="e" d="M674.73,652Zm-38.18,21.34,6.36-3.55,6.36,3.55Zm6.36,14.23L636.54,684h12.73Zm12.73-7.11H630.18L627,678.66l3.18-1.78h25.46l3.18,1.78Zm19.09-10.67Zm-15.91,8.89V660.87l3.18-1.78v21.35Zm22.27-5.33v-7.12l6.37-3.56v14.23ZM662,694.67H623.82l-6.37-3.56h50.92ZM668.37,684V655.53l6.36-3.55v35.57Zm25.45-7.12V662.65l6.37,3.56v7.11Zm-44.55,32v-7.11h0l6.37-3.56v14.23ZM662,712.46V698.23l6.37,3.56v7.11Zm38.18-21.35,6.37-3.55,2.47,1.38,3.89,2.17ZM681.09,684l6.37-3.56h38.18L732,684Zm-6.36,39.13V687.55l6.36,3.56v28.47Zm31.82-17.79-6.36-3.55h12.72Zm12.73-7.11H693.82l-3.18-1.78v17.79L687.46,716V694.67l3.18,1.78,3.18-1.78h25.45l3.19,1.78Z" transform="translate(-11.26 -9.82)"/><path class="e" d="M738.37,616.4Zm-38.19,21.35,6.37-3.56,6.36,3.56ZM706.55,652l-6.37-3.56h12.73Zm12.72-7.12H693.82l-3.18-1.78,3.18-1.78h25.46l3.18,1.78Zm19.1-10.67Zm-15.91,8.89V625.29l3.18-1.78v21.35Zm22.27-5.33v-7.12l6.36-3.56V641.3Zm-19.09,21.34H687.46l-6.37-3.56H732ZM732,648.42V620l6.37-3.56V652Zm25.46-7.12V627.07l6.37,3.56v7.12Zm-44.55,32v-7.11l6.37-3.56h0v14.23Zm12.73,3.56V662.65l6.37,3.56v7.11Zm38.18-21.35,6.37-3.55,2.46,1.38h0l3.89,2.17Zm-19.09-7.11,6.37-3.56h38.18l6.36,3.56Zm-6.36,39.13V652l6.36,3.55V684Zm31.82-17.78-6.37-3.56h12.73Zm12.73-7.12H757.46l-3.18-1.78v17.79l-3.18,1.78V659.09l3.19,1.78,3.18-1.78h25.45l3.19,1.78Z" transform="translate(-11.26 -9.82)"/><path class="f" d="M699.94,710.49l6.38-3.68v7.09Zm-9.57,23.24h0v-7.08l6.38,3.4Zm12.76-7.36-12.76-6.81V716l3.19-1.85L706.32,721v3.55Zm3.19,1.7v-3.54l15.94-26.92,3.19-1.85-19.13,32.31Zm15.94-5.66,6.38-10.77L735,708l-12.76,21.53Zm-28.7,27.2-19.13-10.22v-7.08l25.51,13.62Zm12.76-7.37v-7.08l25.51-43.08,6.37-3.68-15.94,26.92-15.94,26.92Zm19.13-11,12.76-21.54v7.08l-6.38,10.77Zm-51,36.54L680.8,757h0l6.38-3.68-12.75,21.54Zm3.19,8.79L690.37,755v7.09L684,772.85Zm38.26-22.09,6.38-3.69v7.09Zm-3.19-15.88,6.38-3.68,19.14,10.21v7.09Zm-38.26,57.53,31.89-53.85v7.09L680.8,792.41Zm31.89-18.41v-7.09l6.37,3.4Zm12.75-7.37-12.75-6.81V760l-16,26.92-3.19,1.84,19.14-32.3V760l3.18-1.84,12.76,6.81v3.54Z" transform="translate(-11.26 -9.82)"/><path class="f" d="M763.72,673.67,770.1,670v7.08Zm-9.57,23.24h0v-7.09l6.38,3.41Zm12.76-7.36-12.76-6.81v-3.55l3.19-1.84,12.76,6.81v3.54Zm3.19,1.7V687.7L786,660.78l3.19-1.84L770.1,691.25ZM786,685.59l6.38-10.77,6.37-3.69L786,692.67Zm-28.7,27.2-19.13-10.22v-7.09l25.51,13.62Zm12.76-7.37v-7.09l25.51-43.07,6.37-3.68L786,678.5,770.1,705.42Zm19.13-11L802,672.84v7.08l-6.37,10.77Zm-51,36.55,6.37-10.77,6.38-3.68h0L738.21,738Zm3.19,8.79,12.75-21.54v7.09L747.77,736Zm38.26-22.1,6.38-3.68v2.75h0V721Zm-3.19-15.87,6.38-3.68L802,708.27v7.08Zm-38.26,57.52,31.89-53.84v7.09l-25.52,43.07Zm31.89-18.41v-7.08l6.37,3.4Zm12.75-7.36-12.75-6.81v-3.54l-16,26.92L751,751.9l19.14-32.31v3.55l3.18-1.84L786,728.1v3.55Z" transform="translate(-11.26 -9.82)"/><path class="f" d="M738.2,759.26h0Zm-38.26,22.1,6.38-3.68v7.08Zm-9.57,23.24v-7.09l6.38,3.41Zm12.76-7.37-12.76-6.81v-3.54l3.19-1.84,12.76,6.81v3.54Zm19.13-11Zm-15.94,9.2,15.94-26.92,3.19-1.84-19.13,32.31Zm15.94-2.11,6.38-10.78,6.38-3.68-12.76,21.54Zm-28.7,27.19-19.13-10.21v-7.09l25.51,13.62ZM706.32,806,731.83,763l6.37-3.69-15.94,26.93-15.94,26.92Zm19.13-4,12.76-21.54v7.09l-6.38,10.77Zm-51,36.55,6.37-10.77h0l6.38-3.68L674.43,845.7Zm3.19,8.79,12.75-21.54V833L684,843.71Zm38.26-22.1,6.38-3.68v7.09Zm-3.19-15.87,6.38-3.68L738.21,816v7.09ZM674.43,867l31.89-53.84v7.09L680.8,863.27Zm31.89-18.41v-7.08l6.37,3.4Zm12.75-7.36-12.75-6.81v-3.54l-16,26.92-3.19,1.84,19.14-32.31v3.55L709.5,829l12.76,6.8v3.55Z" transform="translate(-11.26 -9.82)"/><path class="f" d="M802,722.44Zm-38.26,22.09,6.38-3.68v7.09Zm-9.57,23.25v-7.09l6.38,3.4Zm12.76-7.37-12.76-6.81v-3.54l3.19-1.84L770.1,755v3.54Zm19.13-11Zm-15.94,9.21L786,731.65l3.19-1.84-19.13,32.3ZM786,756.45l6.38-10.77,6.37-3.68L786,763.54Zm-28.7,27.2-19.13-10.21v-7.09L763.72,780ZM770.1,769.2l25.51-43.08,6.37-3.68L786,749.36,770.1,776.29Zm19.13-4L802,743.7v7.09l-6.37,10.77Zm-51,36.55L744.58,791l6.38-3.69h0l-12.75,21.54Zm3.19,8.78L754.15,789v7.08l-6.38,10.77Zm38.26-22.09L786,784.8v2.75h0v4.33Zm-3.19-15.88,6.38-3.68L802,779.14v7.08Zm-38.26,57.53,31.89-53.84v7.08l-25.52,43.08Zm31.89-18.41v-7.09l6.37,3.41Zm12.75-7.36-12.75-6.81V794l-16,26.93L751,822.77l19.14-32.31V794l3.18-1.84L786,799v3.54Z" transform="translate(-11.26 -9.82)"/><path class="e" d="M326.05,496.74l6.36-3.55,6.36,3.56ZM332.41,511h0l-6.36-3.56h12.72Zm12.73-7.12H319.68l-3.18-1.78,3.19-1.78h25.45l3.18,1.78Zm6.36,0-3.18-1.78V484.3l3.18-1.78v21.34Zm19.09-7.11v-7.12l6.37-3.56V500.3ZM351.5,518.09H313.32L307,514.53h50.91ZM364.23,511l-6.36-3.56V479l6.36-3.56V511Zm19.09-10.68V486.07l6.37,3.56v7.11Zm-44.55,32v-7.11h0l6.37-3.56v14.23Zm12.73,3.56V521.65l6.36,3.56v7.11Zm38.19-21.34,6.36-3.56,2.47,1.38,3.89,2.18Zm-19.1-7.12,6.37-3.56h38.18l6.37,3.56Zm-6.36,39.13V511l6.36,3.55V543Zm31.82-17.78-6.36-3.56h12.72Zm12.73-7.12H383.32l-3.18-1.78v17.79L377,539.44V518.09l3.18,1.78,3.18-1.78h25.46l3.18,1.78Z" transform="translate(-11.26 -9.82)"/><path class="e" d="M389.69,461.17l6.36-3.56,6.36,3.56Zm6.36,14.23h0l-6.36-3.56h12.72Zm12.73-7.12H383.32l-3.18-1.77,3.19-1.79h25.45l3.18,1.78Zm6.36,0L412,466.51V448.72l3.18-1.78v21.34Zm19.09-7.11v-7.12l6.37-3.55v14.23Zm-19.09,21.34H377L370.6,479h50.91Zm12.73-7.11-6.36-3.56V443.38l6.36-3.56V475.4ZM447,464.73V450.49l6.37,3.56v7.12Zm-44.55,32v-7.11l6.37-3.56h0V500.3Zm12.73,3.56V486.07l6.36,3.56v7.11ZM453.33,479l6.36-3.56,2.47,1.38h0l3.89,2.18Zm-19.1-7.12,6.37-3.56h38.18l6.36,3.56ZM427.87,511V475.4l6.36,3.56v28.46Zm31.82-17.79-6.37-3.56h12.73Zm12.73-7.12H447l-3.18-1.78v17.79l-3.18,1.78V482.51l3.18,1.78,3.18-1.77h25.46l3.18,1.78Z" transform="translate(-11.26 -9.82)"/><path class="e" d="M427.87,511Zm-38.18,21.34,6.36-3.55,6.36,3.55Zm6.36,14.23L389.68,543h12.73Zm12.73-7.11H383.32l-3.18-1.78,3.18-1.78h25.46l3.18,1.78Zm19.09-10.67ZM412,537.66V519.87l3.18-1.78v21.35Zm22.27-5.33v-7.12l6.37-3.56v14.23Zm-19.09,21.34H377l-6.37-3.56h50.92ZM421.51,543V514.53l6.36-3.55v35.58ZM447,535.88V521.65l6.37,3.56v7.11Zm-44.55,32v-7.11h0l6.37-3.56v14.23Zm12.73,3.56V557.23l6.37,3.56v7.11Zm38.19-21.35,6.36-3.55,2.47,1.38,3.89,2.17ZM434.23,543l6.37-3.56h38.18l6.37,3.56Zm-6.36,39.13V546.56l6.36,3.55v28.47Zm31.82-17.79-6.36-3.55h12.72Zm12.73-7.11H447l-3.18-1.78v17.79L440.6,575V553.67l3.18,1.78,3.18-1.78h25.46l3.18,1.78Z" transform="translate(-11.26 -9.82)"/><path class="e" d="M491.51,475.4Zm-38.18,21.35,6.36-3.56,6.36,3.56ZM459.69,511l-6.37-3.56h12.73Zm12.73-7.12H447l-3.18-1.78L447,500.3h25.46l3.18,1.78Zm19.09-10.67Zm-15.91,8.89V484.29l3.18-1.78v21.35Zm22.27-5.33v-7.12l6.37-3.56V500.3Zm-19.09,21.34H440.6l-6.37-3.56h50.92Zm6.37-10.67V479l6.36-3.56V511Zm25.45-7.12V486.07l6.37,3.56v7.12Zm-44.55,32v-7.11l6.37-3.56h0v14.23Zm12.73,3.56V521.65l6.37,3.56v7.11ZM517,514.53l6.36-3.55,2.47,1.38h0l3.89,2.17Zm-19.1-7.11,6.37-3.56h38.18l6.37,3.56Zm-6.36,39.13V511l6.36,3.55V543Zm31.82-17.78L517,525.21h12.72Zm12.73-7.12H510.6l-3.18-1.78v17.79l-3.18,1.78V518.09l3.18,1.78,3.18-1.78h25.46l3.18,1.78Z" transform="translate(-11.26 -9.82)"/><path class="f" d="M453.08,569.49l6.38-3.68v7.09Zm-9.57,23.24h0v-7.08l6.38,3.4Zm12.76-7.36-12.76-6.81V575l3.19-1.84,12.76,6.8v3.55Zm3.19,1.7v-3.54l15.94-26.92,3.19-1.84-19.13,32.3Zm15.94-5.66,6.38-10.77,6.38-3.68L475.4,588.5Zm-28.7,27.2-19.13-10.22v-7.08l25.51,13.62Zm12.76-7.37v-7.08L485,551.08l6.38-3.68-16,26.92-15.94,26.92Zm19.13-11,12.76-21.54v7.08L485,586.51Zm-51,36.54L434,616h0l6.38-3.68-12.75,21.54Zm3.19,8.79L443.51,614v7.09l-6.38,10.77ZM469,613.44l6.38-3.68v7.08Zm-3.19-15.88,6.38-3.68,19.14,10.21v7.09Zm-38.26,57.53,31.89-53.85v7.09l-25.52,43.08Zm31.89-18.41v-7.09l6.37,3.4Zm12.75-7.37-12.75-6.81V619l-15.95,26.92-3.19,1.84,19.14-32.3V619l3.19-1.84,12.75,6.81v3.54Z" transform="translate(-11.26 -9.82)"/><path class="f" d="M516.86,532.67l6.38-3.68v7.08Zm-9.57,23.24h0v-7.09l6.38,3.41Zm12.76-7.36-12.76-6.81v-3.55l3.19-1.84,12.76,6.81v3.54Zm3.19,1.7V546.7l15.94-26.92,3.19-1.84-19.13,32.31Zm15.94-5.67,6.38-10.76,6.38-3.69-12.76,21.54Zm-28.7,27.21-19.13-10.22v-7.09l25.51,13.62Zm12.76-7.37v-7.09l25.51-43.07,6.37-3.68L539.18,537.5l-15.94,26.92Zm19.13-11,12.76-21.53v7.08l-6.38,10.77Zm-51,36.55,6.37-10.77,6.38-3.68h0L491.35,597Zm3.19,8.79,12.75-21.54v7.09L500.91,595Zm38.26-22.1,6.38-3.68v2.75h0V580Zm-3.19-15.87,6.38-3.68,19.14,10.21v7.09Zm-38.26,57.52,31.89-53.84v7.09l-25.52,43.07Zm31.89-18.41v-7.08l6.37,3.4ZM536,592.49l-12.75-6.81v-3.54l-15.95,26.92-3.19,1.84,19.14-32.31v3.55l3.19-1.84,12.75,6.8v3.55Z" transform="translate(-11.26 -9.82)"/><path class="f" d="M491.35,618.26Zm-38.27,22.1,6.38-3.68v7.08Zm-9.57,23.24v-7.09l6.38,3.41Zm12.76-7.37-12.76-6.8v-3.55L446.7,644l12.76,6.81v3.54Zm19.13-11Zm-15.94,12.74v-3.54l15.94-26.92,3.19-1.84-19.13,32.31Zm15.94-5.66,6.38-10.77,6.38-3.68L475.4,659.36Zm-28.7,27.2-19.13-10.21v-7.09l25.51,13.62ZM459.46,665,485,622l6.38-3.69-16,26.93-15.94,26.92Zm19.13-4,12.76-21.54v7.09L485,657.38Zm-51,36.55L434,686.84h0l6.38-3.68L427.57,704.7Zm3.19,8.79,12.75-21.54V692l-6.38,10.76ZM469,684.3l6.38-3.68v7.09Zm-3.19-15.87,6.38-3.68L491.35,675V682ZM427.57,726l31.89-53.84v7.09l-25.52,43.07Zm31.89-18.41v-7.08l6.37,3.4Zm12.75-7.36-12.75-6.81v-3.54l-15.95,26.92-3.19,1.84,19.14-32.31v3.55l3.19-1.84,12.75,6.8v3.55Z" transform="translate(-11.26 -9.82)"/><path class="f" d="M555.12,581.44h0Zm-38.26,22.09,6.38-3.68v7.09Zm-9.57,23.25v-7.09l6.38,3.4Zm12.76-7.37-12.76-6.81v-3.54l3.19-1.84L523.24,614v3.54Zm19.13-11Zm-15.94,12.75v-3.54l15.94-26.92,3.19-1.84-19.13,32.3Zm15.94-5.66,6.38-10.77,6.38-3.68-12.76,21.54Zm-28.7,27.2-19.13-10.21v-7.09L516.86,639Zm12.76-14.45,25.51-43.08,6.37-3.68-15.94,26.92-15.94,26.93Zm19.13-4,12.76-21.54v7.09l-6.38,10.77Zm-51,36.55L497.72,650l6.38-3.69h0l-12.75,21.54Zm3.19,8.78L507.29,648v7.08l-6.38,10.77Zm38.26-22.09,6.38-3.68v2.75h0v4.33Zm-3.19-15.87,6.38-3.69,19.14,10.22v7.08Zm-38.26,57.52,31.89-53.84v7.08l-25.52,43.08Zm31.89-18.41v-7.09l6.37,3.41ZM536,663.36l-12.75-6.81V653l-15.95,26.93-3.19,1.84,19.14-32.31V653l3.19-1.84L539.18,658v3.54Z" transform="translate(-11.26 -9.82)"/><path class="g" d="M402.05,569.49l-6.37-3.68v7.09Zm9.57,23.24h0v-7.08l-6.38,3.4Zm-12.75-7.36,12.75-6.81V575l-3.19-1.84L395.68,580v3.55Zm-3.19,1.7v-3.54l-15.95-26.92-3.19-1.84Zm-15.95-5.66-6.38-10.77L367,567l12.75,21.53Zm28.7,27.2,19.14-10.22v-7.08l-25.52,13.62Zm-12.75-7.37v-7.08l-25.51-43.08-6.38-3.68,15.94,26.92,15.95,26.92Zm-19.14-11-12.75-21.54v7.08l6.37,10.77Zm51,36.54L421.19,616h0l-6.38-3.68,12.76,21.54Zm-3.19,8.79L411.62,614v7.09L418,631.85Zm-38.27-22.09-6.38-3.68v7.08Zm3.19-15.88-6.38-3.68-19.13,10.21v7.09Zm38.27,57.53-31.89-53.85v7.09l25.51,43.08Zm-31.89-18.41v-7.09L389.3,633Zm-12.76-7.37,12.76-6.81V619l15.94,26.92,3.19,1.84-19.13-32.3V619l-3.19-1.84-12.76,6.81v3.54Z" transform="translate(-11.26 -9.82)"/><path class="g" d="M338.27,532.67,331.9,529v7.08Zm9.57,23.24h0v-7.09l-6.38,3.41Zm-12.75-7.36,12.75-6.82v-3.54l-3.19-1.84-12.75,6.81v3.54Zm-3.19,1.7V546.7L316,519.78l-3.18-1.84ZM316,544.59l-6.37-10.77-6.38-3.69L316,551.67Zm28.7,27.2,19.14-10.22v-7.09L338.28,568.1Zm-12.75-7.37v-7.09l-25.51-43.07L300,510.58,316,537.5l15.95,26.92Zm-19.14-11L300,531.84v7.08l6.38,10.77Zm51,36.55-6.38-10.77L351,575.47h0L363.79,597Zm-3.19,8.79-12.76-21.54v7.09L354.22,595Zm-38.27-22.1L316,572.93v2.75h0V580Zm3.19-15.87-6.38-3.68L300,567.27v7.09Zm38.27,57.52L331.9,564.42v7.09l25.51,43.07ZM331.9,599.85v-7.08l-6.38,3.4Zm-12.76-7.36,12.76-6.81v-3.54l15.94,26.92L351,610.9,331.9,578.59v3.55l-3.19-1.84L316,587.1v3.55Z" transform="translate(-11.26 -9.82)"/><path class="g" d="M363.79,618.26Zm38.26,22.1-6.37-3.68v7.08Zm9.57,23.24v-7.09l-6.38,3.41Zm-12.75-7.37,12.75-6.81v-3.54L408.43,644l-12.75,6.81v3.54Zm-19.14-11Zm15.95,9.2-15.95-26.92-3.19-1.84,19.14,32.31Zm-15.95-2.11-6.38-10.78L367,637.82l12.75,21.54Zm28.7,27.19,19.14-10.21v-7.09l-25.52,13.62ZM395.68,665,370.16,622l-6.37-3.69,15.94,26.93,15.95,26.92Zm-19.14-4-12.75-21.54v7.09l6.37,10.77Zm51,36.55-6.38-10.77h0l-6.38-3.68,12.76,21.54Zm-3.19,8.79-12.76-21.54V692L418,702.71Zm-38.27-22.1-6.38-3.68v7.09Zm3.19-15.87-6.38-3.68L363.79,675v7.09ZM427.57,726l-31.89-53.84v7.09l25.51,43.07Zm-31.89-18.41v-7.08l-6.38,3.4Zm-12.76-7.36,12.76-6.81v-3.54l15.94,26.92,3.19,1.84-19.13-32.31v3.55L392.49,688l-12.76,6.8v3.55Z" transform="translate(-11.26 -9.82)"/><path class="g" d="M300,581.44Zm38.27,22.09-6.38-3.68v7.09Zm9.56,23.25v-7.09l-6.38,3.4Zm-12.75-7.37,12.75-6.81v-3.54l-3.19-1.84L331.9,614v3.54Zm-19.14-11Zm15.95,9.21L316,590.65l-3.19-1.84,19.14,32.3ZM316,615.45l-6.37-10.77L303.2,601,316,622.54Zm28.7,27.2,19.14-10.21v-7.09L338.28,639ZM331.9,628.2l-25.51-43.08L300,581.44,316,608.36l15.95,26.93Zm-19.14-4L300,602.7v7.09l6.38,10.77Zm51,36.55L357.41,650,351,646.33h0l12.76,21.54Zm-3.19,8.78L347.84,648v7.08l6.38,10.77Zm-38.27-22.09L316,643.8v2.75h0v4.33Zm3.19-15.87-6.38-3.69L300,638.14v7.08Zm38.27,57.52L331.9,635.29v7.08l25.51,43.08ZM331.9,670.72v-7.09L325.52,667Zm-12.76-7.37,12.76-6.8V653l15.94,26.93,3.19,1.84L331.9,649.46V653l-3.19-1.84L316,658v3.54Z" transform="translate(-11.26 -9.82)"/><path class="e" d="M330.05,786.74l6.36-3.55,6.36,3.56ZM336.41,801h0l-6.36-3.56h12.72Zm12.73-7.12H323.68l-3.18-1.78,3.18-1.78h25.46l3.18,1.78Zm6.36,0-3.18-1.78V774.29l3.18-1.78v21.35Zm19.09-7.11v-7.12l6.37-3.56V790.3ZM355.5,808.09H317.32L311,804.53h50.91ZM368.23,801l-6.36-3.56V769l6.36-3.56V801Zm19.09-10.68V776.07l6.37,3.56v7.11Zm-44.55,32v-7.11h0l6.37-3.56v14.23Zm12.73,3.56V811.65l6.36,3.56v7.11Zm38.19-21.35,6.36-3.55,2.47,1.38,3.89,2.18Zm-19.1-7.11,6.37-3.56h38.18l6.37,3.56Zm-6.36,39.13V801l6.36,3.55V833Zm31.82-17.78-6.36-3.56h12.72Zm12.73-7.12H387.32l-3.18-1.78v17.79L381,829.44V808.09l3.18,1.78,3.18-1.78h25.46l3.18,1.78Z" transform="translate(-11.26 -9.82)"/><path class="e" d="M393.69,751.17l6.36-3.56,6.36,3.56Zm6.36,14.23h0l-6.36-3.56h12.72Zm12.73-7.12H387.32l-3.18-1.77,3.19-1.79h25.45l3.18,1.78Zm6.36,0L416,756.51V738.72l3.18-1.78v21.34Zm19.09-7.11v-7.12l6.37-3.55v14.23Zm-19.09,21.34H381L374.6,769h50.91Zm12.73-7.11-6.36-3.56V733.38l6.36-3.56V765.4ZM451,754.73V740.49l6.37,3.56v7.12Zm-44.55,32v-7.11l6.37-3.56h0V790.3Zm12.73,3.56V776.07l6.36,3.56v7.11ZM457.33,769l6.36-3.56,2.47,1.38h0l3.89,2.18Zm-19.1-7.12,6.37-3.56h38.18l6.37,3.56ZM431.87,801V765.4l6.36,3.56v28.46Zm31.82-17.79-6.37-3.56h12.73Zm12.73-7.12H451l-3.18-1.78v17.79l-3.18,1.78V772.51l3.18,1.78,3.18-1.77h25.46l3.18,1.78Z" transform="translate(-11.26 -9.82)"/><path class="e" d="M431.87,801Zm-38.18,21.34,6.36-3.55,6.36,3.55Zm6.36,14.23L393.68,833h12.73Zm12.73-7.11H387.32l-3.18-1.78,3.18-1.78h25.46l3.18,1.78Zm19.09-10.67ZM416,827.66V809.87l3.18-1.78v21.35Zm22.27-5.33v-7.12l6.37-3.56v14.23Zm-19.09,21.34H381l-6.37-3.56h50.92ZM425.51,833V804.53l6.36-3.55v35.58ZM451,825.88V811.65l6.37,3.56v7.11Zm-44.55,32v-7.11h0l6.37-3.56v14.23Zm12.73,3.56V847.23l6.37,3.56v7.11Zm38.19-21.35,6.36-3.55,2.47,1.38,3.89,2.17ZM438.23,833l6.37-3.56h38.18l6.37,3.56Zm-6.36,39.13V836.56l6.36,3.55v28.47Zm31.82-17.79-6.36-3.55h12.72Zm12.73-7.11H451l-3.18-1.78v17.79L444.6,865V843.67l3.18,1.78,3.18-1.78h25.46l3.18,1.78Z" transform="translate(-11.26 -9.82)"/><path class="e" d="M495.51,765.4Zm-38.18,21.35,6.36-3.56,6.36,3.56ZM463.69,801l-6.37-3.56h12.73Zm12.73-7.12H451l-3.18-1.78L451,790.3h25.46l3.18,1.78Zm19.09-10.67Zm-15.91,8.89V774.29l3.18-1.78v21.35Zm22.27-5.33v-7.12l6.37-3.56V790.3Zm-19.09,21.34H444.6l-6.37-3.56h50.92Zm6.37-10.67V769l6.36-3.56V801Zm25.45-7.12V776.07l6.37,3.56v7.12Zm-44.55,32v-7.11l6.37-3.56h0v14.23Zm12.73,3.56V811.65l6.37,3.56v7.11ZM521,804.53l6.36-3.55,2.47,1.38h0l3.89,2.17Zm-19.1-7.11,6.37-3.56h38.18l6.37,3.56Zm-6.36,39.13V801l6.36,3.55V833Zm31.82-17.78L521,815.21h12.72Zm12.73-7.12H514.6l-3.18-1.78v17.79l-3.18,1.78V808.09l3.18,1.78,3.18-1.78h25.46l3.18,1.78Z" transform="translate(-11.26 -9.82)"/><path class="f" d="M457.08,859.49l6.38-3.68v7.09Zm-9.57,23.24h0v-7.08l6.38,3.4Zm12.76-7.36-12.76-6.81V865l3.19-1.84,12.76,6.8v3.55Zm3.19,1.7v-3.54l15.94-26.92,3.19-1.85-19.13,32.31Zm15.94-5.66,6.38-10.77,6.38-3.68L479.4,878.5Zm-28.7,27.2-19.13-10.22v-7.08l25.51,13.62Zm12.76-7.37v-7.08L489,841.08l6.38-3.68-16,26.92-15.94,26.92Zm19.13-11,12.76-21.54v7.08L489,876.51Zm-51,36.54L438,906h0l6.38-3.68-12.75,21.54Zm3.19,8.79L447.51,904v7.09l-6.38,10.77ZM473,903.44l6.38-3.68v7.08Zm-3.19-15.88,6.38-3.68,19.14,10.21v7.09Zm-38.26,57.53,31.89-53.85v7.09l-25.52,43.08Zm31.89-18.41v-7.09l6.37,3.4Zm12.75-7.37-12.75-6.81V909l-15.95,26.92-3.19,1.84,19.14-32.3V909l3.19-1.84,12.75,6.81v3.54Z" transform="translate(-11.26 -9.82)"/><path class="f" d="M520.86,822.67l6.38-3.68v7.08Zm-9.57,23.24h0v-7.09l6.38,3.41Zm12.76-7.36-12.76-6.81v-3.55l3.19-1.84,12.76,6.81v3.54Zm3.19,1.7V836.7l15.94-26.92,3.19-1.84-19.13,32.31Zm15.94-5.67,6.38-10.76,6.38-3.69-12.76,21.54Zm-28.7,27.21-19.13-10.22v-7.09l25.51,13.62Zm12.76-7.37v-7.09l25.51-43.07,6.37-3.68L543.18,827.5l-15.94,26.92Zm19.13-11,12.76-21.53v7.08l-6.38,10.77Zm-51,36.55,6.37-10.77,6.38-3.68h0L495.35,887Zm3.19,8.79,12.75-21.54v7.09L504.91,885Zm38.26-22.1,6.38-3.68v2.75h0V870Zm-3.19-15.87,6.38-3.68,19.14,10.21v7.09Zm-38.26,57.52,31.89-53.84v7.09l-25.52,43.07Zm31.89-18.41v-7.08l6.37,3.4ZM540,882.49l-12.75-6.81v-3.54l-15.95,26.92-3.19,1.84,19.14-32.31v3.55l3.19-1.84,12.75,6.8v3.55Z" transform="translate(-11.26 -9.82)"/><path class="f" d="M495.35,908.26Zm-38.27,22.1,6.38-3.68v7.08Zm-9.57,23.24v-7.09l6.38,3.41Zm12.76-7.37-12.76-6.8v-3.55L450.7,934l12.76,6.81v3.54Zm19.13-11Zm-15.94,12.74v-3.54l15.94-26.92,3.19-1.84-19.13,32.31Zm15.94-5.66,6.38-10.77,6.38-3.68L479.4,949.36Zm-28.7,27.2-19.13-10.21v-7.09l25.51,13.62ZM463.46,955,489,912l6.38-3.69-16,26.93-15.94,26.92Zm19.13-4,12.76-21.54v7.09L489,947.38Zm-51,36.55L438,976.84h0l6.38-3.68L431.57,994.7Zm3.19,8.79,12.75-21.54V982l-6.38,10.76ZM473,974.3l6.38-3.68v7.09Zm-3.19-15.87,6.38-3.68L495.35,965V972ZM431.57,1016l31.89-53.84v7.09l-25.52,43.07Zm31.89-18.41v-7.08l6.37,3.4Zm12.75-7.36-12.75-6.81v-3.54l-15.95,26.92-3.19,1.84,19.14-32.31v3.55l3.19-1.84,12.75,6.8v3.55Z" transform="translate(-11.26 -9.82)"/><path class="f" d="M559.12,871.44h0Zm-38.26,22.09,6.38-3.68v7.09Zm-9.57,23.25v-7.09l6.38,3.4Zm12.76-7.37-12.76-6.81v-3.54l3.19-1.84L527.24,904v3.54Zm19.13-11Zm-15.94,12.75v-3.54l15.94-26.92,3.19-1.84-19.13,32.3Zm15.94-5.66,6.38-10.77,6.38-3.68-12.76,21.54Zm-28.7,27.2-19.13-10.21v-7.09L520.86,929Zm12.76-14.45,25.51-43.08,6.37-3.68-15.94,26.92-15.94,26.93Zm19.13-4,12.76-21.54v7.09l-6.38,10.77Zm-51,36.55L501.72,940l6.38-3.69h0l-12.75,21.54Zm3.19,8.78L511.29,938v7.08l-6.38,10.77Zm38.26-22.09,6.38-3.68v2.75h0v4.33Zm-3.19-15.87,6.38-3.69,19.14,10.22v7.08Zm-38.26,57.52,31.89-53.84v7.08l-25.52,43.08Zm31.89-18.41v-7.09l6.37,3.41ZM540,953.36l-12.75-6.81V943l-15.95,26.93-3.19,1.84,19.14-32.31V943l3.19-1.84L543.18,948v3.54Z" transform="translate(-11.26 -9.82)"/><path class="g" d="M406.05,859.49l-6.37-3.68v7.09Zm9.57,23.24h0v-7.08l-6.38,3.4Zm-12.75-7.36,12.75-6.81V865l-3.19-1.84L399.68,870v3.55Zm-3.19,1.7v-3.54l-15.95-26.92-3.18-1.84Zm-15.95-5.66-6.38-10.77L371,857l12.75,21.53Zm28.7,27.2,19.14-10.22v-7.08l-25.52,13.62Zm-12.75-7.37v-7.08l-25.51-43.08-6.38-3.68,15.94,26.92,15.95,26.92Zm-19.14-11-12.75-21.54v7.08l6.37,10.77Zm51,36.54L425.19,906h0l-6.38-3.68,12.76,21.54Zm-3.19,8.79L415.62,904v7.09L422,921.85Zm-38.27-22.09-6.38-3.68v7.08Zm3.19-15.88-6.38-3.68-19.13,10.21v7.09Zm38.27,57.53-31.89-53.85v7.09l25.51,43.08Zm-31.89-18.41v-7.09L393.3,923Zm-12.76-7.37,12.76-6.81V909l15.94,26.92,3.19,1.84-19.13-32.3V909l-3.19-1.84-12.76,6.81v3.54Z" transform="translate(-11.26 -9.82)"/><path class="g" d="M342.27,822.67,335.9,819v7.08Zm9.57,23.24h0v-7.09l-6.38,3.41Zm-12.75-7.36,12.75-6.82v-3.54l-3.19-1.84-12.75,6.81v3.54Zm-3.19,1.7V836.7L320,809.78l-3.18-1.84ZM320,834.59l-6.37-10.77-6.38-3.69L320,841.67Zm28.7,27.2,19.14-10.22v-7.09L342.28,858.1Zm-12.75-7.37v-7.09l-25.51-43.07L304,800.58,320,827.5l15.95,26.92Zm-19.14-11L304,821.84v7.08l6.38,10.77Zm51,36.55-6.38-10.77L355,865.47h0L367.79,887Zm-3.19,8.79-12.76-21.54v7.09L358.22,885Zm-38.27-22.1L320,862.93v2.75h0V870Zm3.19-15.87-6.38-3.68L304,857.27v7.09Zm38.27,57.52L335.9,854.42v7.09l25.51,43.07ZM335.9,889.85v-7.08l-6.38,3.4Zm-12.76-7.36,12.76-6.81v-3.54l15.94,26.92L355,900.9,335.9,868.59v3.55l-3.19-1.84L320,877.1v3.55Z" transform="translate(-11.26 -9.82)"/><path class="g" d="M367.79,908.26Zm38.26,22.1-6.37-3.68v7.08Zm9.57,23.24v-7.09l-6.38,3.41Zm-12.75-7.37,12.75-6.81v-3.54L412.43,934l-12.75,6.81v3.54Zm-19.14-11Zm15.95,9.2-15.95-26.92-3.19-1.84,19.14,32.31Zm-15.95-2.11-6.38-10.78L371,927.82l12.75,21.54Zm28.7,27.19,19.14-10.21v-7.09l-25.52,13.62ZM399.68,955,374.16,912l-6.37-3.69,15.94,26.93,15.95,26.92Zm-19.14-4-12.75-21.54v7.09l6.37,10.77Zm51,36.55-6.38-10.77h0l-6.38-3.68,12.76,21.54Zm-3.19,8.79-12.76-21.54V982L422,992.71Zm-38.27-22.1-6.38-3.68v7.09Zm3.19-15.87-6.38-3.68L367.79,965v7.09ZM431.57,1016l-31.89-53.84v7.09l25.51,43.07Zm-31.89-18.41v-7.08l-6.38,3.4Zm-12.76-7.36,12.76-6.81v-3.54l15.94,26.92,3.19,1.84-19.13-32.31v3.55L396.49,978l-12.76,6.8v3.55Z" transform="translate(-11.26 -9.82)"/><path class="g" d="M304,871.44Zm38.27,22.09-6.38-3.68v7.09Zm9.56,23.25v-7.09l-6.38,3.4Zm-12.75-7.37,12.75-6.81v-3.54l-3.19-1.84L335.9,904v3.54Zm-19.14-11Zm15.95,9.21L320,880.65l-3.19-1.84,19.14,32.3ZM320,905.45l-6.37-10.77L307.2,891,320,912.54Zm28.7,27.2,19.14-10.21v-7.09L342.28,929ZM335.9,918.2l-25.51-43.08L304,871.44,320,898.36l15.95,26.93Zm-19.14-4L304,892.7v7.09l6.38,10.77Zm51,36.55L361.41,940,355,936.33h0l12.76,21.54Zm-3.19,8.78L351.84,938v7.08l6.38,10.77Zm-38.27-22.09L320,933.8v2.75h0v4.33Zm3.19-15.87-6.38-3.69L304,928.14v7.08Zm38.27,57.52L335.9,925.29v7.08l25.51,43.08ZM335.9,960.72v-7.09L329.52,957Zm-12.76-7.37,12.76-6.8V943l15.94,26.93,3.19,1.84L335.9,939.46V943l-3.19-1.84L320,948v3.54Z" transform="translate(-11.26 -9.82)"/><path class="e" d="M444.47,421.74l6.36-3.55,6.36,3.56ZM450.83,436h0l-6.37-3.56h12.73Zm12.73-7.12H438.1l-3.18-1.78,3.18-1.78h25.46l3.18,1.78Zm6.36,0-3.18-1.78V409.3l3.18-1.78v21.34ZM489,421.75v-7.12l6.37-3.56V425.3Zm-19.09,21.34H431.74l-6.37-3.56h50.91ZM482.65,436l-6.37-3.56V404l6.37-3.56V436Zm19.09-10.68V411.07l6.36,3.56v7.11Zm-44.55,32v-7.11h0l6.37-3.56v14.23Zm12.73,3.56V446.65l6.36,3.56v7.11Zm38.18-21.35,6.37-3.55,2.47,1.38,3.89,2.18ZM489,432.42l6.36-3.56h38.19l6.36,3.56Zm-6.36,39.14V436l6.36,3.55V468Zm31.82-17.79-6.37-3.56h12.73Zm12.72-7.12H501.74l-3.18-1.78v17.79l-3.18,1.78V443.09l3.18,1.78,3.18-1.78h25.45l3.19,1.78Z" transform="translate(-11.26 -9.82)"/><path class="e" d="M508.1,386.17l6.37-3.56,6.36,3.56Zm6.37,14.23h0l-6.37-3.56h12.73Zm12.73-7.12H501.74l-3.18-1.78,3.18-1.78h25.45l3.19,1.78Zm6.36,0-3.18-1.77V373.72l3.18-1.78v21.34Zm19.09-7.11v-7.12L559,375.5v14.23Zm-19.09,21.35H495.38L489,404h50.91Zm12.73-7.12-6.37-3.56V368.38l6.37-3.56V400.4Zm19.09-10.67V375.49l6.36,3.56v7.12Zm-44.55,32v-7.11l6.37-3.56h0V425.3Zm12.73,3.56V411.07l6.36,3.56v7.11ZM571.74,404l6.36-3.56,2.47,1.38h0l3.89,2.18Zm-19.09-7.12,6.37-3.56H597.2l6.36,3.56ZM546.29,436V400.4l6.36,3.56v28.46Zm31.82-17.79-6.37-3.56h12.73Zm12.73-7.12H565.38l-3.18-1.78v17.79L559,428.86V407.51l3.19,1.78,3.18-1.77h25.45l3.19,1.78Z" transform="translate(-11.26 -9.82)"/><path class="e" d="M546.29,436ZM508.1,457.32l6.37-3.55,6.36,3.55Zm6.37,14.23L508.1,468h12.73Zm12.72-7.11H501.74l-3.18-1.78,3.18-1.78H527.2l3.18,1.78Zm19.09-10.67h0Zm-15.9,8.89V444.87l3.18-1.78v21.35Zm22.27-5.33v-7.12l6.36-3.56v14.23Zm-19.09,21.34H495.38L489,475.11h50.91ZM539.92,468V439.53l6.37-3.55v35.57Zm25.46-7.12V446.65l6.36,3.56v7.11Zm-44.55,32v-7.11h0l6.37-3.56v14.23Zm12.73,3.56V482.23l6.36,3.56v7.11Zm38.18-21.35,6.37-3.55,2.47,1.38,3.89,2.17ZM552.65,468l6.36-3.56H597.2l6.36,3.56Zm-6.36,39.13V471.55l6.36,3.56v28.47Zm31.82-17.79-6.37-3.55h12.73Zm12.72-7.11H565.38l-3.18-1.78v17.79L559,500V478.67l3.19,1.78,3.18-1.78h25.45l3.19,1.78Z" transform="translate(-11.26 -9.82)"/><path class="e" d="M609.92,400.4h0Zm-38.18,21.35,6.37-3.56,6.36,3.56ZM578.11,436l-6.37-3.56h12.73Zm12.72-7.12H565.38l-3.18-1.78,3.18-1.78h25.45l3.19,1.78Zm19.1-10.67ZM594,427.08V409.29l3.18-1.78v21.35Zm22.27-5.33v-7.12l6.36-3.56V425.3ZM597.2,443.09H559l-6.37-3.56h50.91Zm6.36-10.67V404l6.36-3.56V436ZM629,425.3V411.07l6.36,3.56v7.12Zm-44.55,32v-7.11l6.36-3.56h0v14.23Zm12.73,3.56V446.65l6.36,3.56v7.11Zm38.18-21.35,6.36-3.55,2.47,1.38h0l3.89,2.17Zm-19.09-7.11,6.36-3.56h38.19l6.36,3.56Zm-6.36,39.13V436l6.36,3.55V468Zm31.82-17.78-6.37-3.56h12.73Zm12.73-7.12H629l-3.18-1.78v17.79l-3.18,1.78V443.09l3.19,1.78,3.18-1.78h25.45l3.19,1.78Z" transform="translate(-11.26 -9.82)"/><path class="f" d="M571.5,494.49l6.37-3.68v7.09Zm-9.57,23.24h0v-7.08l6.38,3.4Zm12.76-7.36-12.76-6.81V500l3.19-1.85L577.87,505v3.55Zm3.18,1.7v-3.54l16-26.92,3.19-1.85-19.14,32.31Zm16-5.66,6.38-10.77,6.37-3.68-12.75,21.53Zm-28.7,27.2L546,523.39v-7.08l25.52,13.62Zm12.75-14.45,25.52-43.08,6.37-3.68-15.94,26.92-16,26.92Zm19.14-4,12.76-21.54v7.08l-6.38,10.77Zm-51,36.54L552.36,541h0l6.38-3.68L546,558.83Zm3.19,8.79L561.93,539v7.09l-6.38,10.77Zm38.27-22.09,6.38-3.69v7.09Zm-3.19-15.88,6.38-3.68,19.14,10.21v7.09ZM546,580.09l31.89-53.85v7.09l-25.51,43.08Zm31.89-18.41v-7.09l6.38,3.4Zm12.76-7.37-12.76-6.81V544l-15.94,26.92-3.19,1.84,19.13-32.3V544l3.19-1.84,12.76,6.81v3.54Z" transform="translate(-11.26 -9.82)"/><path class="f" d="M635.28,457.67l6.37-3.68v7.08Zm-9.57,23.24h0v-7.09l6.38,3.41Zm12.75-7.37-12.75-6.8v-3.55l3.19-1.84,12.75,6.81v3.54Zm3.19,1.71V471.7l16-26.92,3.19-1.84-19.14,32.31Zm16-5.66L664,458.82l6.37-3.69L657.6,476.67Zm-28.7,27.2-19.13-10.22v-7.09l25.51,13.62Zm12.75-14.46,25.51-43.07,6.38-3.68L657.6,462.5l-16,26.92Zm19.14-4,12.75-21.53v7.08l-6.37,10.77Zm-51,36.55,6.37-10.77,6.38-3.68h0L609.77,522Zm3.18,8.79,12.76-21.54v7.09L619.33,520Zm38.27-22.1,6.38-3.68v2.75h0V505ZM648,485.74l6.38-3.68,19.13,10.21v7.09Zm-38.26,57.52,31.88-53.84v7.09l-25.51,43.07Zm31.88-18.41v-7.08l6.38,3.4Zm12.76-7.36-12.76-6.81v-3.54l-15.94,26.92-3.19,1.84,19.13-32.31v3.55l3.19-1.84,12.76,6.8v3.55Z" transform="translate(-11.26 -9.82)"/><path class="f" d="M609.76,543.27h0ZM571.5,565.36l6.37-3.68v7.08Zm-9.57,23.24v-7.09l6.38,3.41Zm12.76-7.37-12.76-6.8v-3.55l3.19-1.84,12.75,6.81v3.54Zm3.18,1.71v-3.55l16-26.92,3.19-1.84-19.14,32.31Zm16-5.66,6.38-10.78,6.37-3.68-12.75,21.54Zm-28.7,27.19L546,594.26v-7.09l25.52,13.62ZM577.87,590,603.39,547l6.37-3.68-15.94,26.92-16,26.92Zm19.14-4,12.76-21.54v7.09l-6.38,10.77Zm-51,36.55,6.38-10.77h0l6.38-3.68L546,629.7Zm3.19,8.79,12.76-21.54V617l-6.38,10.76Zm38.27-22.1,6.38-3.68v7.09Zm-3.19-15.87,6.38-3.68L609.77,600v7.09ZM546,651l31.89-53.84v7.09l-25.51,43.07Zm31.89-18.41v-7.08l6.38,3.4Zm12.76-7.36-12.76-6.81v-3.54l-15.94,26.92-3.19,1.84,19.13-32.31v3.55l3.19-1.84,12.76,6.8v3.55Z" transform="translate(-11.26 -9.82)"/><path class="f" d="M673.54,506.44Zm-38.26,22.1,6.37-3.69v7.09Zm-9.57,23.24v-7.09l6.38,3.4Zm12.75-7.37-12.75-6.81v-3.54l3.19-1.84L641.65,539v3.54Zm3.19,1.7v-3.54l16-26.92,3.19-1.84-19.14,32.3Zm16-5.66L664,529.68l6.37-3.68L657.6,547.54Zm-28.7,27.2-19.13-10.21v-7.09L635.28,564Zm12.75-14.45,25.52-43.08,6.37-3.68L657.6,533.36l-16,26.93Zm19.14-4,12.75-21.54v7.09l-6.37,10.77Zm-51,36.54L616.14,575l6.38-3.69h0l-12.75,21.54Zm3.18,8.79L625.71,573v7.08l-6.38,10.77Zm38.27-22.09,6.38-3.68v2.75h0v4.33ZM648,556.6l6.38-3.68,19.13,10.22v7.08Zm-38.26,57.53,31.88-53.84v7.08l-25.51,43.08Zm31.88-18.41v-7.09L648,592Zm12.76-7.37-12.76-6.8V578l-15.94,26.93-3.19,1.84,19.13-32.31V578l3.19-1.84L657.6,583v3.54Z" transform="translate(-11.26 -9.82)"/><path class="e" d="M208.05,711.74l6.36-3.55,6.36,3.56ZM214.41,726h0l-6.36-3.56h12.72Zm12.73-7.12H201.68l-3.18-1.78,3.19-1.78h25.45l3.18,1.78Zm6.36,0-3.18-1.78V699.3l3.18-1.78v21.34Zm19.09-7.11v-7.12l6.37-3.56V715.3ZM233.5,733.09H195.32L189,729.53h50.91ZM246.23,726l-6.36-3.56V694l6.36-3.56V726Zm19.09-10.68V701.07l6.37,3.56v7.11Zm-44.55,32v-7.11h0l6.37-3.56v14.23Zm12.73,3.56V736.65l6.36,3.56v7.11Zm38.19-21.35,6.36-3.55,2.47,1.38,3.89,2.18Zm-19.1-7.11,6.37-3.56h38.18l6.37,3.56Zm-6.36,39.13V726l6.36,3.55V758Zm31.82-17.78-6.36-3.56h12.72Zm12.73-7.12H265.32l-3.18-1.78v17.79L259,754.44V733.09l3.18,1.78,3.18-1.78h25.46l3.18,1.78Z" transform="translate(-11.26 -9.82)"/><path class="e" d="M271.69,676.17l6.36-3.56,6.36,3.56Zm6.36,14.23h0l-6.36-3.56h12.72Zm12.73-7.12H265.32l-3.18-1.78,3.18-1.78h25.46l3.18,1.78Zm6.36,0L294,681.51V663.72l3.18-1.78v21.34Zm19.09-7.11v-7.12l6.37-3.55v14.23Zm-19.09,21.34H259L252.6,694h50.91Zm12.73-7.11-6.36-3.56V658.38l6.36-3.56V690.4ZM329,679.73V665.49l6.37,3.56v7.12Zm-44.55,32v-7.11l6.37-3.56h0V715.3Zm12.73,3.56V701.07l6.36,3.56v7.11ZM335.33,694l6.36-3.56,2.47,1.38h0l3.89,2.18Zm-19.1-7.12,6.37-3.56h38.18l6.37,3.56ZM309.87,726V690.4l6.36,3.56v28.46Zm31.82-17.79-6.37-3.56h12.73Zm12.73-7.12H329l-3.18-1.78v17.79l-3.18,1.78V697.51l3.18,1.78,3.18-1.77h25.46l3.18,1.78Z" transform="translate(-11.26 -9.82)"/><path class="e" d="M309.87,726Zm-38.18,21.34,6.36-3.55,6.36,3.55Zm6.36,14.23L271.68,758h12.73Zm12.73-7.11H265.32l-3.18-1.78,3.18-1.78h25.46l3.18,1.78Zm19.09-10.67ZM294,752.66V734.87l3.18-1.78v21.35Zm22.27-5.33v-7.12l6.37-3.56v14.23Zm-19.09,21.34H259l-6.37-3.56h50.92ZM303.51,758V729.53l6.36-3.55v35.58ZM329,750.88V736.65l6.37,3.56v7.11Zm-44.55,32v-7.11h0l6.37-3.56v14.23Zm12.73,3.56V772.23l6.37,3.56v7.11Zm38.19-21.35,6.36-3.55,2.47,1.38,3.89,2.17ZM316.23,758l6.37-3.56h38.18l6.37,3.56Zm-6.36,39.13V761.56l6.36,3.55v28.47Zm31.82-17.79-6.36-3.55h12.72Zm12.73-7.11H329l-3.18-1.78v17.79L322.6,790V768.67l3.18,1.78,3.18-1.78h25.46l3.18,1.78Z" transform="translate(-11.26 -9.82)"/><path class="e" d="M373.51,690.4Zm-38.18,21.35,6.36-3.56,6.36,3.56ZM341.69,726l-6.37-3.56h12.73Zm12.73-7.12H329l-3.18-1.78L329,715.3h25.46l3.18,1.78Zm19.09-10.67Zm-15.91,8.89V699.29l3.18-1.78v21.35Zm22.27-5.33v-7.12l6.37-3.56V715.3Zm-19.09,21.34H322.6l-6.37-3.56h50.92Zm6.37-10.67V694l6.36-3.56V726Zm25.45-7.12V701.07l6.37,3.56v7.12Zm-44.55,32v-7.11l6.37-3.56h0v14.23Zm12.73,3.56V736.65l6.37,3.56v7.11ZM399,729.53l6.36-3.55,2.47,1.38h0l3.89,2.17Zm-19.1-7.11,6.37-3.56h38.18l6.37,3.56Zm-6.36,39.13V726l6.36,3.55V758Zm31.82-17.78L399,740.21h12.72Zm12.73-7.12H392.6l-3.18-1.78v17.79l-3.18,1.78V733.09l3.18,1.78,3.18-1.78h25.46l3.18,1.78Z" transform="translate(-11.26 -9.82)"/><path class="g" d="M284.05,784.49l-6.37-3.68v7.09Zm9.57,23.24h0v-7.08l-6.38,3.4Zm-12.75-7.36,12.75-6.81V790l-3.19-1.85L277.68,795v3.55Zm-3.19,1.7v-3.54l-15.95-26.92-3.19-1.85Zm-15.95-5.66-6.38-10.77L249,782l12.75,21.53Zm28.7,27.2,19.14-10.22v-7.08l-25.52,13.62Zm-12.75-7.37v-7.08l-25.51-43.08-6.38-3.68,15.94,26.92,15.95,26.92Zm-19.14-11-12.75-21.54v7.08l6.37,10.77Zm51,36.54L303.19,831h0l-6.38-3.68,12.76,21.54Zm-3.19,8.79L293.62,829v7.09L300,846.85Zm-38.27-22.09-6.38-3.68v7.08Zm3.19-15.88-6.38-3.68-19.13,10.21v7.09Zm38.27,57.53-31.89-53.85v7.09l25.51,43.08Zm-31.89-18.41v-7.09L271.3,848Zm-12.76-7.37,12.76-6.81V834l15.94,26.92,3.19,1.84-19.13-32.3V834l-3.19-1.84-12.76,6.81v3.54Z" transform="translate(-11.26 -9.82)"/><path class="g" d="M220.27,747.67,213.9,744v7.08Zm9.57,23.24h0v-7.09l-6.38,3.41Zm-12.75-7.36,12.75-6.82v-3.54l-3.19-1.84-12.75,6.81v3.54Zm-3.19,1.7V761.7l-16-26.92-3.18-1.84Zm-16-5.66-6.37-10.77-6.38-3.69L198,766.67Zm28.7,27.2,19.14-10.22v-7.09L220.28,783.1Zm-12.75-7.37v-7.09l-25.51-43.07L182,725.58,198,752.5l16,26.92Zm-19.14-11L182,746.84v7.08l6.38,10.77Zm51,36.55-6.38-10.77L233,790.47h0L245.79,812Zm-3.19,8.79-12.76-21.54v7.09L236.22,810Zm-38.27-22.1L198,787.93v2.75h0V795Zm3.19-15.87-6.38-3.68L182,782.27v7.09Zm38.27,57.52L213.9,779.42v7.09l25.51,43.07ZM213.9,814.85v-7.08l-6.38,3.4Zm-12.76-7.36,12.76-6.81v-3.54l15.94,26.92L233,825.9,213.9,793.59v3.55l-3.19-1.84L198,802.1v3.55Z" transform="translate(-11.26 -9.82)"/><path class="g" d="M245.79,833.26Zm38.26,22.1-6.37-3.68v7.08Zm9.57,23.24v-7.09l-6.38,3.41Zm-12.75-7.37,12.75-6.81v-3.54L290.43,859l-12.75,6.81v3.54Zm-19.14-11Zm15.95,9.2-15.95-26.92-3.19-1.84,19.14,32.31Zm-15.95-2.11-6.38-10.78L249,852.82l12.75,21.54Zm28.7,27.19,19.14-10.21v-7.09l-25.52,13.62ZM277.68,880,252.16,837l-6.37-3.69,15.94,26.93,15.95,26.92Zm-19.14-4-12.75-21.54v7.09l6.37,10.77Zm51,36.55-6.38-10.77h0l-6.38-3.68,12.76,21.54Zm-3.19,8.79-12.76-21.54V907L300,917.71Zm-38.27-22.1-6.38-3.68v7.09Zm3.19-15.87-6.38-3.68L245.79,890v7.09ZM309.57,941l-31.89-53.84v7.09l25.51,43.07Zm-31.89-18.41v-7.08l-6.38,3.4Zm-12.76-7.36,12.76-6.81v-3.54l15.94,26.92,3.19,1.84-19.13-32.31v3.55L274.49,903l-12.76,6.8v3.55Z" transform="translate(-11.26 -9.82)"/><path class="g" d="M182,796.44Zm38.27,22.09-6.38-3.68v7.09Zm9.56,23.25v-7.09l-6.38,3.4Zm-12.75-7.37,12.75-6.81v-3.54l-3.19-1.84L213.9,829v3.54Zm-19.14-11Zm16,9.21-16-26.92-3.19-1.84,19.14,32.3Zm-16-2.12-6.37-10.77L185.2,816,198,837.54Zm28.7,27.2,19.14-10.21v-7.09L220.28,854ZM213.9,843.2l-25.51-43.08L182,796.44,198,823.36l16,26.93Zm-19.14-4L182,817.7v7.09l6.38,10.77Zm51,36.55L239.41,865,233,861.33h0l12.76,21.54Zm-3.19,8.78L229.84,863v7.08l6.38,10.77Zm-38.27-22.09L198,858.8v2.75h0v4.33Zm3.19-15.87-6.38-3.69L182,853.14v7.08Zm38.27,57.52L213.9,850.29v7.08l25.51,43.08ZM213.9,885.72v-7.09L207.52,882Zm-12.76-7.37,12.76-6.8V868l15.94,26.93,3.19,1.84L213.9,864.46V868l-3.19-1.84L198,873v3.54Z" transform="translate(-11.26 -9.82)"/><path class="e" d="M84.05,637.61l6.36-3.56,6.36,3.56Zm6.36,14.23h0l-6.36-3.55H96.77Zm12.73-7.11H77.68L74.5,643l3.19-1.78h25.45l3.18,1.78Zm6.36,0L106.32,643V625.16l3.18-1.78v21.35Zm19.09-7.12V630.5l6.37-3.56v14.23ZM109.5,659H71.32L65,655.4h50.91Zm12.73-7.12-6.36-3.55V619.82l6.36-3.55v35.57Zm19.09-10.67V626.94l6.37,3.56v7.11Zm-44.55,32v-7.12h0l6.37-3.55v14.23Zm12.73,3.56V662.52l6.36,3.55v7.12Zm38.19-21.35,6.36-3.56,2.47,1.38,3.89,2.18Zm-19.1-7.12,6.37-3.55h38.18l6.37,3.55Zm-6.36,39.14V651.84l6.36,3.56v28.46Zm31.82-17.79-6.36-3.56h12.72Zm12.73-7.11H141.32l-3.18-1.78v17.79L135,680.31V659l3.18,1.78,3.18-1.78h25.46l3.18,1.78Z" transform="translate(-11.26 -9.82)"/><path class="e" d="M147.69,602l6.36-3.55,6.36,3.55Zm6.36,14.24h0l-6.36-3.55h12.72Zm12.73-7.12H141.32l-3.18-1.78,3.18-1.78h25.46l3.18,1.78Zm6.36,0L170,607.37V589.58l3.18-1.78v21.35ZM192.23,602v-7.11l6.37-3.56v14.23Zm-19.09,21.35H135l-6.36-3.56h50.91Zm12.73-7.12-6.36-3.55V584.24l6.36-3.55v35.57ZM205,605.59V591.36l6.37,3.56V602Zm-44.55,32V630.5l6.37-3.56h0v14.23Zm12.73,3.56V626.94l6.36,3.56v7.11Zm38.19-21.35,6.36-3.55,2.47,1.38h0l3.89,2.18Zm-19.1-7.11,6.37-3.56h38.18l6.37,3.56Zm-6.36,39.13V616.26l6.36,3.56v28.47Zm31.82-17.79-6.37-3.55h12.73Zm12.73-7.11H205l-3.18-1.78V643l-3.18,1.78V623.38l3.18,1.78,3.18-1.78h25.46l3.18,1.78Z" transform="translate(-11.26 -9.82)"/><path class="e" d="M185.87,651.84Zm-38.18,21.35,6.36-3.56,6.36,3.56Zm6.36,14.23-6.37-3.56h12.73Zm12.73-7.12H141.32l-3.18-1.78,3.18-1.78h25.46l3.18,1.78Zm19.09-10.67ZM170,678.53V660.74l3.18-1.78v21.35Zm22.27-5.34v-7.12l6.37-3.55v14.23Zm-19.09,21.35H135L128.59,691h50.92Zm6.37-10.68V655.4l6.36-3.56v35.58ZM205,676.75V662.52l6.37,3.55v7.12Zm-44.55,32v-7.12h0l6.37-3.56v14.24Zm12.73,3.55V698.09l6.37,3.56v7.12ZM211.33,691l6.36-3.56,2.47,1.38,3.89,2.18Zm-19.1-7.12,6.37-3.55h38.18l6.37,3.55ZM185.87,723V687.42l6.36,3.56v28.46Zm31.82-17.79-6.36-3.56h12.72Zm12.73-7.11H205l-3.18-1.77v17.79l-3.18,1.77V694.54l3.18,1.78,3.18-1.78h25.46l3.18,1.78Z" transform="translate(-11.26 -9.82)"/><path class="e" d="M249.51,616.27h0Zm-38.18,21.34,6.36-3.56,6.36,3.56Zm6.36,14.23-6.37-3.56h12.73Zm12.73-7.11H205L201.78,643l3.18-1.78h25.46L233.6,643Zm19.09-10.68ZM233.6,643V625.16l3.18-1.78v21.35Zm22.27-5.34V630.5l6.37-3.56v14.23ZM236.78,659H198.6l-6.37-3.56h50.92Zm6.37-10.67V619.82l6.36-3.55v35.57Zm25.45-7.12V626.94L275,630.5v7.11Zm-44.55,32v-7.11l6.37-3.56h0v14.23Zm12.73,3.56V662.52l6.37,3.55v7.12ZM275,655.4l6.36-3.56,2.47,1.39h0l3.89,2.18Zm-19.1-7.11,6.37-3.56h38.18l6.37,3.56Zm-6.36,39.13V651.84l6.36,3.56v28.46Zm31.82-17.79L275,666.07h12.72Zm12.73-7.11H268.6l-3.18-1.78v17.79l-3.18,1.78V659l3.18,1.78L268.6,659h25.46l3.18,1.78Z" transform="translate(-11.26 -9.82)"/><path class="g" d="M160.05,710.36l-6.37-3.68v7.08Zm9.57,23.24h0v-7.09l-6.38,3.41Zm-12.75-7.37,12.75-6.81v-3.54L166.43,714l-12.75,6.81v3.54Zm-3.19,1.71v-3.55l-16-26.92-3.19-1.84Zm-16-5.66-6.38-10.77L125,707.82l12.75,21.54Zm28.7,27.19,19.14-10.21v-7.09l-25.52,13.62Zm-12.75-7.36V735L128.17,692l-6.38-3.68,15.94,26.92,16,26.92Zm-19.14-11.05-12.75-21.54v7.09l6.37,10.77Zm51,36.55-6.38-10.77h0l-6.38-3.68,12.76,21.54Zm-3.19,8.78-12.76-21.53V762L176,772.71ZM144.11,754.3l-6.38-3.68v7.09Zm3.19-15.87-6.38-3.68L121.79,745V752ZM185.57,796l-31.89-53.84v7.09l25.51,43.07Zm-31.89-18.41v-7.08l-6.38,3.4Zm-12.76-7.36,12.76-6.81v-3.54l15.94,26.92,3.19,1.84-19.13-32.31v3.55L150.49,758l-12.76,6.8v3.55Z" transform="translate(-11.26 -9.82)"/><path class="g" d="M96.27,673.54l-6.37-3.69v7.09Zm9.57,23.24h0v-7.09l-6.38,3.4Zm-12.75-7.37,12.75-6.81v-3.54l-3.19-1.84L89.9,684v3.54Zm-3.19,1.7v-3.54L74,660.65l-3.18-1.84Zm-16-5.66-6.37-10.77L61.2,671,74,692.54Zm28.7,27.2,19.14-10.21v-7.09L96.28,709ZM89.9,705.29V698.2L64.39,655.12,58,651.44,74,678.36l16,26.93Zm-19.14-11L58,672.7v7.09l6.38,10.77Zm51,36.55L115.41,720,109,716.33h0l12.76,21.54Zm-3.19,8.78L105.84,718v7.08l6.38,10.77ZM80.33,717.48,74,713.8v2.75h0v4.33Zm3.19-15.87-6.38-3.69L58,708.13v7.09Zm38.27,57.52L89.9,705.29v7.08l25.51,43.08ZM89.9,740.72v-7.09L83.52,737Zm-12.76-7.37,12.76-6.8V723l15.94,26.93,3.19,1.84L89.9,719.46V723l-3.19-1.84L74,728v3.54Z" transform="translate(-11.26 -9.82)"/><path class="g" d="M121.79,759.13Zm38.26,22.09-6.37-3.68v7.09Zm9.57,23.24v-7.08l-6.38,3.4Zm-12.75-7.36,12.75-6.81v-3.54l-3.19-1.84-12.75,6.81v3.54Zm-19.14-11.05Zm16,9.21-16-26.92-3.19-1.85,19.14,32.31Zm-16-2.12-6.38-10.77L125,778.69l12.75,21.54Zm28.7,27.2,19.14-10.21V803l-25.52,13.62Zm-12.75-14.45-25.52-43.08-6.37-3.68,15.94,26.92,16,26.93Zm-19.14-4-12.75-21.54v7.09l6.37,10.77Zm51,36.54-6.38-10.77h0L172.81,824l12.76,21.54Zm-3.19,8.79-12.76-21.54v7.09L176,843.58Zm-38.27-22.09-6.38-3.68v7.08Zm3.19-15.88-6.38-3.68-19.13,10.22v7.08Zm38.27,57.53L153.68,813v7.08l25.51,43.08Zm-31.89-18.41v-7.09l-6.38,3.41ZM140.92,841l12.76-6.8v-3.55l15.94,26.92,3.19,1.85-19.13-32.31v3.54l-3.19-1.84-12.76,6.81v3.54Z" transform="translate(-11.26 -9.82)"/><path class="g" d="M58,722.31ZM96.28,744.4l-6.38-3.68v7.09Zm9.56,23.24v-7.09L99.46,764Zm-12.75-7.36,12.75-6.81v-3.55l-3.19-1.84L89.9,754.89v3.55ZM74,749.23Zm16,9.21L74,731.51l-3.19-1.84L89.9,762Zm-16-2.12-6.37-10.77-6.38-3.68L74,763.4Zm28.7,27.2,19.14-10.22v-7.08L96.28,779.83ZM89.9,769.07,64.39,726,58,722.31,74,749.23l16,26.92Zm-19.14-4L58,743.57v7.09l6.38,10.76Zm51,36.54-6.38-10.77L109,787.2h0l12.76,21.54Zm-3.19,8.79L105.84,788.9V796l6.38,10.77ZM80.33,788.35,74,784.66v2.75h0v4.34Zm3.19-15.88-6.38-3.68L58,779v7.09ZM121.79,830,89.9,776.15v7.09l25.51,43.08ZM89.9,811.59V804.5l-6.38,3.4Zm-12.76-7.37,12.76-6.81v-3.54l15.94,26.92,3.19,1.84L89.9,790.32v3.55L86.71,792,74,798.84v3.54Z" transform="translate(-11.26 -9.82)"/></svg>