<svg xmlns="http://www.w3.org/2000/svg" xmlns:xlink="http://www.w3.org/1999/xlink" viewBox="0 0 612 792"><defs><style>.a,.c,.d,.e,.g{fill:none;}.b{fill:#fcfcfc;}.c,.d,.e{stroke:#d4d4d4;}.c,.d{stroke-linecap:round;stroke-linejoin:round;stroke-width:1.5px;}.c{stroke-dasharray:0 4.5;}.e,.f,.g{stroke-width:0.6px;}.f,.i,.j,.m{fill:#202020;}.f{stroke:#000;}.g{stroke:#202020;}.h{clip-path:url(#a);}.j{font-size:11px;}.j,.m{font-family:HelveticaNowText-Regular, HelveticaNowText Regular;}.k{letter-spacing:-0.02em;}.l{letter-spacing:-0.03em;}.m{font-size:6px;}.n{letter-spacing:-0.04em;}</style><clipPath id="a"><rect class="a" width="612" height="792"/></clipPath></defs><title>White</title><rect class="b" width="612" height="792"/><line class="c" x1="64.9" y1="95.21" x2="64.9" y2="763.81"/><path class="d" d="M64.9,766.06h0m0-675.35h0"/><line class="c" x1="86.16" y1="95.21" x2="86.16" y2="763.81"/><path class="d" d="M86.16,766.06h0m0-675.35h0"/><line class="c" x1="107.42" y1="95.21" x2="107.42" y2="763.81"/><path class="d" d="M107.42,766.06h0m0-675.35h0"/><line class="c" x1="128.68" y1="95.21" x2="128.68" y2="763.81"/><path class="d" d="M128.68,766.06h0m0-675.35h0"/><line class="c" x1="149.94" y1="95.21" x2="149.94" y2="763.81"/><path class="d" d="M149.94,766.06h0m0-675.35h0"/><line class="c" x1="171.2" y1="95.21" x2="171.2" y2="763.81"/><path class="d" d="M171.2,766.06h0m0-675.35h0"/><line class="c" x1="192.46" y1="95.21" x2="192.46" y2="763.81"/><path class="d" d="M192.46,766.06h0m0-675.35h0"/><line class="c" x1="213.72" y1="95.21" x2="213.72" y2="763.81"/><path class="d" d="M213.72,766.06h0m0-675.35h0"/><line class="c" x1="234.98" y1="95.21" x2="234.98" y2="763.81"/><path class="d" d="M235,766.06h0m0-675.35h0"/><line class="c" x1="256.24" y1="95.21" x2="256.24" y2="763.81"/><path class="d" d="M256.24,766.06h0m0-675.35h0"/><line class="c" x1="277.5" y1="95.21" x2="277.5" y2="763.81"/><path class="d" d="M277.5,766.06h0m0-675.35h0"/><line class="c" x1="298.76" y1="95.21" x2="298.76" y2="763.81"/><path class="d" d="M298.76,766.06h0m0-675.35h0"/><line class="c" x1="320.02" y1="95.21" x2="320.02" y2="763.81"/><path class="d" d="M320,766.06h0m0-675.35h0"/><line class="c" x1="341.28" y1="95.21" x2="341.28" y2="763.81"/><path class="d" d="M341.28,766.06h0m0-675.35h0"/><line class="c" x1="362.54" y1="95.21" x2="362.54" y2="763.81"/><path class="d" d="M362.54,766.06h0m0-675.35h0"/><line class="c" x1="383.79" y1="95.21" x2="383.79" y2="763.81"/><path class="d" d="M383.79,766.06h0m0-675.35h0"/><line class="c" x1="405.05" y1="95.21" x2="405.05" y2="763.81"/><path class="d" d="M405.05,766.06h0m0-675.35h0"/><line class="c" x1="426.31" y1="95.21" x2="426.31" y2="763.81"/><path class="d" d="M426.31,766.06h0m0-675.35h0"/><line class="c" x1="447.57" y1="95.21" x2="447.57" y2="763.81"/><path class="d" d="M447.57,766.06h0m0-675.35h0"/><line class="c" x1="468.83" y1="95.21" x2="468.83" y2="763.81"/><path class="d" d="M468.83,766.06h0m0-675.35h0"/><line class="c" x1="490.09" y1="95.21" x2="490.09" y2="763.81"/><path class="d" d="M490.09,766.06h0m0-675.35h0"/><line class="c" x1="511.35" y1="95.21" x2="511.35" y2="763.81"/><path class="d" d="M511.35,766.06h0m0-675.35h0"/><line class="c" x1="532.61" y1="95.21" x2="532.61" y2="763.81"/><path class="d" d="M532.61,766.06h0m0-675.35h0"/><line class="c" x1="553.87" y1="95.21" x2="553.87" y2="763.81"/><path class="d" d="M553.87,766.06h0m0-675.35h0"/><line class="c" x1="575.13" y1="95.21" x2="575.13" y2="763.81"/><path class="d" d="M575.13,766.06h0m0-675.35h0"/><line class="e" x1="35.43" y1="107.31" x2="576.57" y2="107.31"/><line class="f" x1="65.2" y1="86.05" x2="299.05" y2="86.05"/><line class="e" x1="35.43" y1="129.28" x2="576.57" y2="129.28"/><line class="e" x1="35.43" y1="151.26" x2="576.57" y2="151.26"/><line class="e" x1="35.43" y1="173.23" x2="576.57" y2="173.23"/><line class="e" x1="35.43" y1="195.2" x2="576.57" y2="195.2"/><line class="e" x1="35.43" y1="217.17" x2="576.57" y2="217.17"/><line class="e" x1="35.43" y1="239.14" x2="576.57" y2="239.14"/><line class="e" x1="35.43" y1="261.12" x2="576.57" y2="261.12"/><line class="e" x1="35.43" y1="283.09" x2="576.57" y2="283.09"/><line class="e" x1="35.43" y1="305.06" x2="576.57" y2="305.06"/><line class="e" x1="35.43" y1="327.03" x2="576.57" y2="327.03"/><line class="e" x1="35.43" y1="349" x2="576.57" y2="349"/><line class="e" x1="35.43" y1="370.97" x2="576.57" y2="370.97"/><line class="e" x1="35.43" y1="392.95" x2="576.57" y2="392.95"/><line class="e" x1="35.43" y1="414.92" x2="576.57" y2="414.92"/><line class="e" x1="35.43" y1="436.89" x2="576.57" y2="436.89"/><line class="e" x1="35.43" y1="458.86" x2="576.57" y2="458.86"/><line class="e" x1="35.43" y1="480.84" x2="576.57" y2="480.84"/><line class="e" x1="35.43" y1="502.81" x2="576.57" y2="502.81"/><line class="e" x1="35.43" y1="524.78" x2="576.57" y2="524.78"/><line class="e" x1="35.43" y1="546.75" x2="576.57" y2="546.75"/><line class="e" x1="35.43" y1="568.72" x2="576.57" y2="568.72"/><line class="e" x1="35.43" y1="590.7" x2="576.57" y2="590.7"/><line class="e" x1="35.43" y1="612.67" x2="576.57" y2="612.67"/><line class="e" x1="35.43" y1="634.64" x2="576.57" y2="634.64"/><line class="e" x1="35.43" y1="656.61" x2="576.57" y2="656.61"/><line class="e" x1="35.43" y1="678.58" x2="576.57" y2="678.58"/><line class="e" x1="35.43" y1="700.55" x2="576.57" y2="700.55"/><line class="e" x1="35.43" y1="722.53" x2="576.57" y2="722.53"/><line class="e" x1="35.43" y1="744.5" x2="576.57" y2="744.5"/><line class="e" x1="35.43" y1="766.47" x2="576.57" y2="766.47"/><line class="g" x1="39.69" y1="42.82" x2="181.42" y2="42.82"/><g class="h"><path class="i" d="M47.66,84.83a4,4,0,1,0-4-4,4,4,0,0,0,4,4"/></g><rect class="i" x="47.17" y="72.54" width="0.95" height="3.33"/><polygon class="i" points="41.9 74.81 41.9 74.81 44.04 77.36 44.77 76.75 42.63 74.2 41.9 74.81"/><polygon class="i" points="39.38 79.87 39.38 79.87 42.66 80.45 42.82 79.51 39.54 78.93 39.38 79.87"/><polygon class="i" points="40.67 85.42 40.67 85.42 43.56 83.75 43.08 82.93 40.2 84.59 40.67 85.42"/><polygon class="i" points="45.23 88.86 45.23 88.86 46.36 85.73 45.47 85.41 44.33 88.53 45.23 88.86"/><polygon class="i" points="50.96 88.54 50.96 88.54 49.82 85.41 48.93 85.74 50.07 88.87 50.96 88.54"/><polygon class="i" points="55.12 84.63 55.12 84.63 52.23 82.97 51.76 83.79 54.64 85.45 55.12 84.63"/><polygon class="i" points="55.77 78.91 55.77 78.91 52.49 79.49 52.66 80.42 55.94 79.84 55.77 78.91"/><polygon class="i" points="52.65 74.17 52.65 74.17 50.5 76.72 51.23 77.33 53.37 74.78 52.65 74.17"/><g class="h"><path class="i" d="M582.5,78.79a5.74,5.74,0,1,0,6.94,8.27,5.65,5.65,0,0,1-2,.35,5.74,5.74,0,0,1-5.74-5.74,5.62,5.62,0,0,1,.78-2.88"/></g><text class="j" transform="translate(44.87 100.33)">1</text><text class="j" transform="translate(43.82 122.31)">2</text><text class="j" transform="translate(43.82 144.29)">3</text><text class="j" transform="translate(43.82 166.27)">4</text><text class="j" transform="translate(43.82 188.25)">5</text><text class="j" transform="translate(43.82 210.22)">6</text><text class="j" transform="translate(43.82 232.2)">7</text><text class="j" transform="translate(43.82 254.18)">8</text><text class="j" transform="translate(43.82 276.16)">9</text><text class="j" transform="translate(41.35 298.14)">10</text><text class="j" transform="translate(42.41 320.11)">11</text><text class="j" transform="translate(41.35 342.09)">12</text><text class="j" transform="translate(41.35 364.07)">13</text><text class="j" transform="translate(41.35 386.05)">14</text><text class="j" transform="translate(41.35 408.03)">15</text><text class="j" transform="translate(41.35 430)">16</text><text class="j" transform="translate(41.46 451.98)"><tspan class="k">1</tspan><tspan x="5.43" y="0">7</tspan></text><text class="j" transform="translate(41.35 473.96)">18</text><text class="j" transform="translate(41.35 495.94)">19</text><text class="j" transform="translate(40.3 517.92)">20</text><text class="j" transform="translate(41.35 539.89)">21</text><text class="j" transform="translate(40.3 561.87)">22</text><text class="j" transform="translate(40.3 583.85)">23</text><text class="j" transform="translate(40.3 605.83)">24</text><text class="j" transform="translate(40.3 627.81)">25</text><text class="j" transform="translate(40.3 649.78)">26</text><text class="j" transform="translate(40.47 671.76)"><tspan class="l">2</tspan><tspan x="5.32" y="0">7</tspan></text><text class="j" transform="translate(40.3 693.74)">28</text><text class="j" transform="translate(40.3 715.72)">29</text><text class="j" transform="translate(40.3 737.7)">30</text><text class="j" transform="translate(41.35 759.67)">31</text><line class="f" x1="320.31" y1="86.05" x2="575.43" y2="86.05"/><line class="f" x1="64.93" y1="85.78" x2="64.93" y2="89.18"/><line class="f" x1="86.19" y1="85.78" x2="86.19" y2="89.18"/><line class="f" x1="107.45" y1="85.78" x2="107.45" y2="89.18"/><line class="f" x1="128.71" y1="85.78" x2="128.71" y2="89.18"/><line class="f" x1="149.97" y1="85.78" x2="149.97" y2="89.18"/><line class="f" x1="171.23" y1="85.78" x2="171.23" y2="89.18"/><line class="f" x1="192.49" y1="85.78" x2="192.49" y2="89.18"/><line class="f" x1="213.75" y1="85.78" x2="213.75" y2="89.18"/><line class="f" x1="235.01" y1="85.78" x2="235.01" y2="89.18"/><line class="f" x1="256.27" y1="85.78" x2="256.27" y2="89.18"/><line class="f" x1="277.53" y1="85.78" x2="277.53" y2="89.18"/><line class="f" x1="298.79" y1="85.78" x2="298.79" y2="89.18"/><line class="f" x1="320.05" y1="85.78" x2="320.05" y2="89.18"/><line class="f" x1="341.31" y1="85.78" x2="341.31" y2="89.18"/><line class="f" x1="362.57" y1="85.78" x2="362.57" y2="89.18"/><line class="f" x1="383.83" y1="85.78" x2="383.83" y2="89.18"/><line class="f" x1="405.09" y1="85.78" x2="405.09" y2="89.18"/><line class="f" x1="426.35" y1="85.78" x2="426.35" y2="89.18"/><line class="f" x1="447.61" y1="85.78" x2="447.61" y2="89.18"/><line class="f" x1="468.87" y1="85.78" x2="468.87" y2="89.18"/><line class="f" x1="490.13" y1="85.78" x2="490.13" y2="89.18"/><line class="f" x1="511.39" y1="85.78" x2="511.39" y2="89.18"/><line class="f" x1="532.65" y1="85.78" x2="532.65" y2="89.18"/><line class="f" x1="553.91" y1="85.78" x2="553.91" y2="89.18"/><text class="m" transform="translate(72.23 81.24)">01</text><text class="m" transform="translate(92.9 81.24)">02</text><text class="m" transform="translate(114.15 81.24)">03</text><text class="m" transform="translate(135.41 81.24)">04</text><text class="m" transform="translate(156.66 81.24)">05</text><text class="m" transform="translate(177.91 81.24)">06</text><text class="m" transform="translate(199.28 81.24)"><tspan class="n">0</tspan><tspan x="2.84" y="0">7</tspan></text><text class="m" transform="translate(220.41 81.24)">08</text><text class="m" transform="translate(241.67 81.24)">09</text><text class="m" transform="translate(263.49 81.24)">10</text><text class="m" transform="translate(285.32 81.24)">11</text><text class="m" transform="translate(306 81.24)">12</text><text class="m" transform="translate(327.25 81.24)">13</text><text class="m" transform="translate(348.5 81.24)">14</text><text class="m" transform="translate(369.75 81.24)">15</text><text class="m" transform="translate(391 81.24)">16</text><text class="m" transform="translate(412.32 81.24)"><tspan class="k">1</tspan><tspan x="2.96" y="0">7</tspan></text><text class="m" transform="translate(433.51 81.24)">18</text><text class="m" transform="translate(454.76 81.24)">19</text><text class="m" transform="translate(475.44 81.24)">20</text><text class="m" transform="translate(497.27 81.24)">21</text><text class="m" transform="translate(517.95 81.24)">22</text><text class="m" transform="translate(539.2 81.24)">23</text><text class="m" transform="translate(560.45 81.24)">24</text></svg>