<svg xmlns="http://www.w3.org/2000/svg" xmlns:xlink="http://www.w3.org/1999/xlink" viewBox="0 0 792 612"><defs><style>.a,.d{fill:none;}.b{fill:#333;}.c{clip-path:url(#a);}.d{stroke:#424142;stroke-width:0.6px;}</style><clipPath id="a" transform="translate(0)"><rect class="a" width="792" height="612"/></clipPath></defs><title>Black</title><rect class="b" width="792" height="612"/><g class="c"><line class="d" x1="17.01" y1="612" x2="17.01"/><line class="d" x1="34.02" y1="612" x2="34.02"/><line class="d" x1="51.02" y1="612" x2="51.02"/><line class="d" x1="68.03" y1="612" x2="68.03"/><line class="d" x1="85.04" y1="612" x2="85.04"/><line class="d" x1="102.05" y1="612" x2="102.05"/><line class="d" x1="119.06" y1="612" x2="119.06"/><line class="d" x1="136.06" y1="612" x2="136.06"/><line class="d" x1="153.07" y1="612" x2="153.07"/><line class="d" x1="170.08" y1="612" x2="170.08"/><line class="d" x1="187.09" y1="612" x2="187.09"/><line class="d" x1="204.09" y1="612" x2="204.09"/><line class="d" x1="221.1" y1="612" x2="221.1"/><line class="d" x1="238.11" y1="612" x2="238.11"/><line class="d" x1="255.12" y1="612" x2="255.12"/><line class="d" x1="272.13" y1="612" x2="272.13"/><line class="d" x1="289.13" y1="612" x2="289.13"/><line class="d" x1="306.14" y1="612" x2="306.14"/><line class="d" x1="323.15" y1="612" x2="323.15"/><line class="d" x1="340.16" y1="612" x2="340.16"/><line class="d" x1="357.17" y1="612" x2="357.17"/><line class="d" x1="374.17" y1="612" x2="374.17"/><line class="d" x1="391.18" y1="612" x2="391.18"/><line class="d" x1="408.19" y1="612" x2="408.19"/><line class="d" x1="425.2" y1="612" x2="425.2"/><line class="d" x1="442.2" y1="612" x2="442.2"/><line class="d" x1="459.21" y1="612" x2="459.21"/><line class="d" x1="476.22" y1="612" x2="476.22"/><line class="d" x1="493.23" y1="612" x2="493.23"/><line class="d" x1="510.24" y1="612" x2="510.24"/><line class="d" x1="527.24" y1="612" x2="527.24"/><line class="d" x1="544.25" y1="612" x2="544.25"/><line class="d" x1="561.26" y1="612" x2="561.26"/><line class="d" x1="578.27" y1="612" x2="578.27"/><line class="d" x1="595.28" y1="612" x2="595.28"/><line class="d" x1="612.28" y1="612" x2="612.28"/><line class="d" x1="629.29" y1="612" x2="629.29"/><line class="d" x1="646.3" y1="612" x2="646.3"/><line class="d" x1="663.31" y1="612" x2="663.31"/><line class="d" x1="680.31" y1="612" x2="680.31"/><line class="d" x1="697.32" y1="612" x2="697.32"/><line class="d" x1="714.33" y1="612" x2="714.33"/><line class="d" x1="731.34" y1="612" x2="731.34"/><line class="d" x1="748.35" y1="612" x2="748.35"/><line class="d" x1="765.35" y1="612" x2="765.35"/><line class="d" x1="782.36" y1="612" x2="782.36"/><line class="d" y1="594.99" x2="792" y2="594.99"/><line class="d" y1="577.98" x2="792" y2="577.98"/><line class="d" y1="560.98" x2="792" y2="560.98"/><line class="d" y1="543.97" x2="792" y2="543.97"/><line class="d" y1="526.96" x2="792" y2="526.96"/><line class="d" y1="509.95" x2="792" y2="509.95"/><line class="d" y1="492.94" x2="792" y2="492.94"/><line class="d" y1="475.94" x2="792" y2="475.94"/><line class="d" y1="458.93" x2="792" y2="458.93"/><line class="d" y1="441.92" x2="792" y2="441.92"/><line class="d" y1="424.91" x2="792" y2="424.91"/><line class="d" y1="407.91" x2="792" y2="407.91"/><line class="d" y1="390.9" x2="792" y2="390.9"/><line class="d" y1="373.89" x2="792" y2="373.89"/><line class="d" y1="356.88" x2="792" y2="356.88"/><line class="d" y1="339.87" x2="792" y2="339.87"/><line class="d" y1="322.87" x2="792" y2="322.87"/><line class="d" y1="305.86" x2="792" y2="305.86"/><line class="d" y1="288.85" x2="792" y2="288.85"/><line class="d" y1="271.84" x2="792" y2="271.84"/><line class="d" y1="254.83" x2="792" y2="254.83"/><line class="d" y1="237.83" x2="792" y2="237.83"/><line class="d" y1="220.82" x2="792" y2="220.82"/><line class="d" y1="203.81" x2="792" y2="203.81"/><line class="d" y1="186.8" x2="792" y2="186.8"/><line class="d" y1="169.8" x2="792" y2="169.8"/><line class="d" y1="152.79" x2="792" y2="152.79"/><line class="d" y1="135.78" x2="792" y2="135.78"/><line class="d" y1="118.77" x2="792" y2="118.77"/><line class="d" y1="101.76" x2="792" y2="101.76"/><line class="d" y1="84.76" x2="792" y2="84.76"/><line class="d" y1="67.75" x2="792" y2="67.75"/><line class="d" y1="50.74" x2="792" y2="50.74"/><line class="d" y1="33.73" x2="792" y2="33.73"/><line class="d" y1="16.72" x2="792" y2="16.72"/></g></svg>