<svg xmlns="http://www.w3.org/2000/svg" xmlns:xlink="http://www.w3.org/1999/xlink" viewBox="0 0 868 1078.75"><defs><style>.a{fill:none;}.b{clip-path:url(#a);}.c{fill:#e5e5e5;}.d{fill:#942780;}.e{clip-path:url(#c);}.f{opacity:0.25;}.g{clip-path:url(#d);}.h{fill:#fac2bf;}.i{fill:#82baa8;}.j{fill:#ff7070;}.k{fill:#c2e3d9;}.l{fill:#ffb2d3;}</style><clipPath id="a"><rect class="a" y="-1.28" width="868" height="1080.25"/></clipPath><clipPath id="c"><path class="a" d="M0-1V1078.72H807.5a30.09,30.09,0,0,0,30-30V29a30.09,30.09,0,0,0-30-30Z"/></clipPath><clipPath id="d"><rect class="a" x="-473" y="567.72" width="935.4" height="1157"/></clipPath></defs><title>06 Flowers</title><g class="b"><g class="b"><path class="c" d="M838,1078.72H774V-1h64a30.09,30.09,0,0,1,30,30V1048.73a30.09,30.09,0,0,1-30,30"/><path class="d" d="M807.5,1078.72H0V-1H807.5a30.09,30.09,0,0,1,30,30V1048.73a30.09,30.09,0,0,1-30,30"/></g><g class="e"><g class="f"><g class="g"><path class="h" d="M53.06,640.12A59.41,59.41,0,0,1-6.37,699.51a59.37,59.37,0,0,1-59.37-59.39,59.38,59.38,0,0,1,59.37-59.4,59.41,59.41,0,0,1,59.43,59.4"/><path class="h" d="M392,1028.19c29.82,0,55.58,22.55,53.31,52.17.23,27.49-22.36,53.28-52.15,53.31-27.51.2-53.3-22.4-53.3-52.17-.19-27.5,22.37-53.28,52.14-53.31"/><path class="h" d="M258.62,704.08a59.39,59.39,0,1,1-59.38-59.39,59.39,59.39,0,0,1,59.38,59.39"/><path class="i" d="M341.07,1091.12c3.06,0,4.68-1.28,5.51-2.46a2.76,2.76,0,0,0,.55-2.41l-.38-.92.09-1a5.81,5.81,0,0,0-1.56-4.4,4.1,4.1,0,0,0-2.8-1.48l-2.09.41-317,5.81L302,894.78c1.5-1.63,4.74-6.48,1.66-9.54-3.42-3.42-7.65-4.65-10-2.28L13.38,1074.07,179.51,757c1.41-4.34-.2-9-2.71-10.25a14.08,14.08,0,0,0-3.53-.46c-3.15,0-5.86,1.25-6.81,3.11L.84,1065.55v-366c0-4.52-2.69-7.21-7.21-7.21s-7.2,2.69-7.2,7.21v364.23L-178.8,752.34c-3.08-2.87-7.57-4.42-10.17-3.6-3.07,3.41-4.5,8-3.22,10.55l169.37,317L-305.71,883.47c-1.47-1.37-2.42-1.78-3.59-1.78-2.16,0-4.86,1.37-7,3.55a4.17,4.17,0,0,0-1.14,4.2,11.94,11.94,0,0,0,3.41,5.85l277.8,189.27-316.24-6-.33,0a4.08,4.08,0,0,0-3.06,1.4,5.85,5.85,0,0,0-1.53,4.4l.07,1-.37.91a2.89,2.89,0,0,0,.55,2.44,5.91,5.91,0,0,0,4.76,2.5l334.3,5.77,4.54,3.11v616.46c0,4.5,2.69,7.2,7.2,7.2s7.21-2.7,7.21-7.2V1100.07l4.4-3,1.24,0L341,1091.12Z"/><path class="h" d="M402.54,854.86a57.11,57.11,0,1,1-57.1-57.11,57.08,57.08,0,0,1,57.1,57.11"/></g></g></g><g class="b"><path class="j" d="M589.89,815.55A19.82,19.82,0,1,1,617.55,820a19.85,19.85,0,0,1-27.66-4.46"/><path class="h" d="M411.8,266.27a44.55,44.55,0,1,1-44.58-44.55,44.56,44.56,0,0,1,44.58,44.55"/><path class="h" d="M257.58,314.24A44.55,44.55,0,1,1,213,269.7a44.54,44.54,0,0,1,44.55,44.54"/><path class="h" d="M146.23,427.32a42.84,42.84,0,1,1-42.85-42.83,42.85,42.85,0,0,1,42.85,42.83"/><path class="h" d="M70.07,557.33c22.33,0,39.26,19.35,39.12,40,0,22.33-19.32,39.29-39.95,39.14-22.35,0-39.3-19.34-39.14-40-1.7-22.21,17.61-39.15,40-39.14"/><path class="h" d="M666,557.32c22.35,0,41.68,16.91,40,39.13.18,20.62-16.77,40-39.11,40-20.63.14-40-16.81-40-39.14-.14-20.62,16.78-39.95,39.11-40"/><path class="h" d="M566,314.24a44.54,44.54,0,1,1-44.53-44.54A44.54,44.54,0,0,1,566,314.24"/><path class="i" d="M627.8,604.26a4.71,4.71,0,0,0,4.14-1.85,2.11,2.11,0,0,0,.41-1.8l-.29-.69.07-.74a4.36,4.36,0,0,0-1.17-3.3,3.09,3.09,0,0,0-2.1-1.11l-1.57.31-237.74,4.36L598.47,457c1.12-1.22,3.55-4.85,1.25-7.15-2.57-2.56-5.74-3.49-7.53-1.71L382,591.48l124.6-237.84c1.05-3.26-.15-6.75-2-7.7a10.69,10.69,0,0,0-2.65-.34c-2.36,0-4.39.93-5.11,2.34L372.63,585.08V310.55c0-3.39-2-5.41-5.41-5.41s-5.4,2-5.4,5.41V583.72L237.9,350.17c-2.31-2.14-5.67-3.31-7.62-2.69-2.31,2.55-3.38,6-2.42,7.91l127,237.79L142.71,448.52a3.72,3.72,0,0,0-2.69-1.33,8.17,8.17,0,0,0-5.27,2.66,3.12,3.12,0,0,0-.85,3.15,9,9,0,0,0,2.55,4.39l208.36,142-237.18-4.49-.25,0a3,3,0,0,0-2.29,1,4.4,4.4,0,0,0-1.16,3.3l.06.74-.28.68a2.14,2.14,0,0,0,.41,1.83,4.44,4.44,0,0,0,3.58,1.87l250.72,4.33,3.4,2.34v462.34c0,3.38,2,5.4,5.4,5.4s5.41-2,5.41-5.4V611l3.3-2.26h.93l250.86-4.45Z"/><path class="h" d="M673.9,427.32a42.83,42.83,0,1,1-42.82-42.83,42.81,42.81,0,0,1,42.82,42.83"/><path class="k" d="M686.62,108.56c-.45-5.9-14.07-7.61-29.8-3.83-13,3.15-24.18,5.5-27.61,5.93,3.42.18,14.49,1.7,27.86,3.89,15.86,2.67,29.76,0,29.55-6"/><path class="k" d="M648.67,131.56c11.08,11.94,23.3,18.08,26.93,13.34s-6.61-14.74-21.26-21.36c-12.4-5.63-22.4-10.47-25.34-12.22,2.61,2.27,10.59,10.45,19.67,20.24"/><path class="k" d="M644.57,166.79c5.74-1.66,3.94-15.41-3.64-29.86-6.23-11.84-11.22-22-12.48-25.21.69,3.36,1.9,14.38,3.08,27.93,1.37,16,7.37,29,13,27.14"/><path class="k" d="M606.64,165.18c5.61,1.94,12.64-9.91,15.48-25.83,2.32-13.13,4.6-24.18,5.58-27.53-1.58,3.1-7.43,12.66-14.68,23.84-8.79,13.56-11.84,27.17-6.38,29.52"/><path class="k" d="M577.83,140.5c2.82,5.29,16.18-.16,28.06-10.92,10-9,18.23-16.15,21.16-18.25-3.31,1.56-13.75,5.51-26.18,9.81-15.42,5.36-26.1,14.18-23,19.36"/><path class="k" d="M570.09,103.34c-.72,6,12.59,9.81,28.86,8.6,13.13-1,24.31-1.55,27.94-1.41-3.51-.77-13.92-4-26.67-8.3-15.18-5.15-29.61-4.85-30.13,1.11"/><path class="k" d="M586.73,69.24c-4.05,4.32,4.13,15.6,17.56,24.52,11.21,7.46,20.44,13.95,23.06,16.13-2.19-2.63-8.73-11.93-16.13-23.11-9-13.51-20.1-21.58-24.49-17.54"/><path class="k" d="M629.44,81.51c1.19-16.24-2.64-29.61-8.54-28.84-6,.53-6.29,14.86-1.18,30.1,4.31,12.92,7.58,23.5,8.29,26.86-.11-3.47.43-14.76,1.43-28.12"/><path class="k" d="M658.06,60.41c-5.2-2.91-14,7.59-19.4,23-4.41,12.55-8.49,23.23-10,26.35,2-2.76,9.26-11.19,18.37-21.26,10.82-11.91,16.15-25.1,11-28.06"/><path class="k" d="M630.2,110c3.15-1.44,13.81-5.34,26.49-9.58,15.34-5.15,26-13.8,23.23-19.06-3-5.15-16.2-.08-28.27,10.6C641.53,100.84,633,108,630.2,110"/><path class="k" d="M195.42,151.75c-.34-4.43-10.55-5.71-22.35-2.88-9.77,2.36-18.13,4.13-20.7,4.45,2.56.14,10.86,1.28,20.89,2.92,11.9,2,22.32,0,22.16-4.49"/><path class="k" d="M167,169c8.31,9,17.47,13.56,20.19,10s-5-11.06-15.94-16c-9.3-4.23-16.8-7.86-19-9.16,1.95,1.7,7.94,7.83,14.75,15.17"/><path class="k" d="M163.88,195.42c4.31-1.24,3-11.56-2.72-22.4-4.68-8.88-8.42-16.48-9.37-18.91.52,2.53,1.43,10.79,2.31,20.95,1,12,5.53,21.77,9.78,20.36"/><path class="k" d="M135.43,194.21c4.22,1.45,9.49-7.43,11.62-19.37,1.74-9.85,3.45-18.13,4.18-20.65-1.19,2.32-5.57,9.49-11,17.88-6.59,10.17-8.88,20.38-4.79,22.14"/><path class="k" d="M113.82,175.7c2.13,4,12.14-.12,21.05-8.19,7.48-6.78,13.67-12.11,15.87-13.69-2.48,1.18-10.31,4.14-19.63,7.36-11.57,4-19.58,10.63-17.29,14.52"/><path class="k" d="M108,147.83c-.54,4.49,9.45,7.36,21.65,6.45,9.85-.74,18.23-1.16,21-1.06-2.63-.57-10.44-3-20-6.22-11.38-3.86-22.21-3.64-22.6.83"/><path class="k" d="M120.5,122.26c-3,3.24,3.1,11.69,13.18,18.38,8.4,5.6,15.32,10.47,17.29,12.1-1.64-2-6.55-8.94-12.1-17.33-6.71-10.13-15.07-16.18-18.37-13.15"/><path class="k" d="M152.54,131.46c.89-12.18-2-22.21-6.41-21.63-4.47.39-4.72,11.15-.89,22.57,3.24,9.7,5.69,17.63,6.23,20.15-.09-2.6.31-11.07,1.07-21.09"/><path class="k" d="M174,115.64c-3.9-2.19-10.48,5.69-14.55,17.22-3.31,9.41-6.37,17.42-7.48,19.76,1.5-2.07,6.94-8.39,13.78-15.94,8.11-8.93,12.1-18.83,8.25-21"/><path class="k" d="M153.1,152.79c2.37-1.07,10.36-4,19.88-7.18,11.5-3.87,19.48-10.35,17.42-14.29-2.24-3.87-12.15-.07-21.2,7.94-7.6,6.7-14,12.05-16.1,13.53"/></g><rect class="l" x="733.25" y="-1.28" width="24" height="1080"/></g></svg>