<svg xmlns="http://www.w3.org/2000/svg" xmlns:xlink="http://www.w3.org/1999/xlink" viewBox="0 0 612 793.43"><defs><style>.a,.d,.e{fill:none;}.b{fill:#fcfcfc;}.c{clip-path:url(#a);}.d{stroke:#d4d4d4;}.d,.e{stroke-width:0.6px;}.e{stroke:#303030;}.f{clip-path:url(#c);}</style><clipPath id="a"><rect class="a" width="612" height="792"/></clipPath><clipPath id="c"><polyline class="a" points="612 792 612 0 0 0 0 792"/></clipPath></defs><title>White</title><rect class="b" width="612" height="792"/><g class="c"><line class="d" y1="70.57" x2="612" y2="70.57"/><line class="d" y1="84.74" x2="612" y2="84.74"/><line class="d" y1="98.91" x2="612" y2="98.91"/><line class="d" y1="113.09" x2="612" y2="113.09"/></g><line class="d" x1="14.17" y1="792" x2="14.17" y2="70.27"/><line class="d" x1="28.35" y1="792" x2="28.35" y2="70.27"/><line class="d" x1="42.52" y1="792" x2="42.52" y2="70.27"/><line class="d" x1="56.69" y1="792" x2="56.69" y2="70.27"/><line class="d" x1="70.87" y1="792" x2="70.87" y2="70.27"/><line class="d" x1="85.04" y1="792" x2="85.04" y2="70.27"/><line class="d" x1="99.21" y1="792" x2="99.21" y2="70.27"/><line class="d" x1="113.39" y1="792" x2="113.39" y2="70.27"/><line class="d" x1="127.56" y1="792" x2="127.56" y2="70.27"/><line class="d" x1="141.73" y1="792" x2="141.73" y2="70.27"/><line class="d" x1="155.91" y1="792" x2="155.91" y2="70.27"/><line class="d" x1="170.08" y1="792" x2="170.08" y2="70.27"/><line class="d" x1="184.25" y1="792" x2="184.25" y2="70.27"/><line class="d" x1="198.43" y1="792" x2="198.43" y2="70.27"/><line class="d" x1="212.6" y1="792" x2="212.6" y2="70.27"/><line class="d" x1="226.77" y1="792" x2="226.77" y2="70.27"/><line class="d" x1="240.94" y1="792" x2="240.94" y2="70.27"/><line class="d" x1="255.12" y1="792" x2="255.12" y2="70.27"/><line class="d" x1="269.29" y1="792" x2="269.29" y2="70.27"/><line class="d" x1="283.46" y1="792" x2="283.46" y2="70.27"/><line class="d" x1="297.64" y1="792" x2="297.64" y2="70.27"/><line class="d" x1="311.81" y1="792" x2="311.81" y2="70.27"/><line class="d" x1="325.98" y1="792" x2="325.98" y2="70.27"/><line class="d" x1="340.16" y1="792" x2="340.16" y2="70.27"/><line class="d" x1="354.33" y1="792" x2="354.33" y2="70.27"/><line class="d" x1="368.5" y1="792" x2="368.5" y2="70.27"/><line class="d" x1="382.68" y1="792" x2="382.68" y2="70.27"/><line class="d" x1="396.85" y1="792" x2="396.85" y2="70.27"/><line class="d" x1="411.02" y1="792" x2="411.02" y2="70.27"/><line class="d" x1="425.2" y1="792" x2="425.2" y2="70.27"/><line class="d" x1="439.37" y1="792" x2="439.37" y2="70.27"/><line class="d" x1="453.54" y1="792" x2="453.54" y2="70.27"/><line class="d" x1="467.72" y1="792" x2="467.72" y2="70.27"/><line class="d" x1="481.89" y1="792" x2="481.89" y2="70.27"/><line class="d" x1="496.06" y1="792" x2="496.06" y2="70.27"/><line class="d" x1="510.24" y1="792" x2="510.24" y2="70.27"/><line class="d" x1="524.41" y1="792" x2="524.41" y2="70.27"/><line class="d" x1="538.58" y1="792" x2="538.58" y2="70.27"/><line class="d" x1="552.76" y1="792" x2="552.76" y2="70.27"/><line class="d" x1="566.93" y1="792" x2="566.93" y2="70.27"/><line class="d" x1="581.1" y1="792" x2="581.1" y2="70.27"/><line class="d" x1="595.28" y1="792" x2="595.28" y2="70.27"/><line class="d" x1="609.45" y1="792" x2="609.45" y2="70.27"/><g class="c"><line class="d" y1="141.43" x2="612" y2="141.43"/><line class="d" y1="155.61" x2="612" y2="155.61"/><line class="d" y1="169.78" x2="612" y2="169.78"/><line class="d" y1="183.95" x2="612" y2="183.95"/><line class="d" y1="198.13" x2="612" y2="198.13"/><line class="d" y1="212.3" x2="612" y2="212.3"/><line class="d" y1="226.47" x2="612" y2="226.47"/><line class="d" y1="240.64" x2="612" y2="240.64"/><line class="d" y1="254.82" x2="612" y2="254.82"/><line class="d" y1="268.99" x2="612" y2="268.99"/><line class="d" y1="283.16" x2="612" y2="283.16"/><line class="d" y1="297.34" x2="612" y2="297.34"/><line class="d" y1="311.51" x2="612" y2="311.51"/><line class="d" y1="325.68" x2="612" y2="325.68"/><line class="d" y1="339.86" x2="612" y2="339.86"/><line class="d" y1="354.03" x2="612" y2="354.03"/><line class="d" y1="368.2" x2="612" y2="368.2"/><line class="d" y1="382.38" x2="612" y2="382.38"/><line class="d" y1="396.55" x2="612" y2="396.55"/><line class="d" y1="410.72" x2="612" y2="410.72"/><line class="d" y1="424.9" x2="612" y2="424.9"/><line class="d" y1="439.07" x2="612" y2="439.07"/><line class="d" y1="453.24" x2="612" y2="453.24"/><line class="d" y1="467.42" x2="612" y2="467.42"/><line class="d" y1="481.59" x2="612" y2="481.59"/><line class="d" y1="495.76" x2="612" y2="495.76"/><line class="d" y1="509.94" x2="612" y2="509.94"/><line class="d" y1="524.11" x2="612" y2="524.11"/><line class="d" y1="538.28" x2="612" y2="538.28"/><line class="d" y1="552.46" x2="612" y2="552.46"/><line class="d" y1="566.63" x2="612" y2="566.63"/><line class="d" y1="580.8" x2="612" y2="580.8"/><line class="d" y1="594.98" x2="612" y2="594.98"/><line class="d" y1="609.15" x2="612" y2="609.15"/><line class="d" y1="623.32" x2="612" y2="623.32"/><line class="d" y1="651.67" x2="612" y2="651.67"/><line class="d" y1="665.84" x2="612" y2="665.84"/><line class="d" y1="680.01" x2="612" y2="680.01"/><line class="d" y1="694.19" x2="612" y2="694.19"/><line class="d" y1="708.36" x2="612" y2="708.36"/><line class="d" y1="722.53" x2="612" y2="722.53"/><path class="d" d="M612,722.27"/><path class="d" d="M0,722.27"/><line class="d" y1="736.44" x2="612" y2="736.44"/><line class="d" y1="750.61" x2="612" y2="750.61"/><line class="d" y1="764.79" x2="612" y2="764.79"/><line class="d" y1="778.96" x2="612" y2="778.96"/><line class="d" y1="793.13" x2="612" y2="793.13"/><line class="e" y1="127.51" x2="612" y2="127.51"/></g><line class="e" x1="184.55" y1="126.96" x2="184.55" y2="637.72"/><g class="f"><line class="e" y1="637.5" x2="612" y2="637.5"/></g></svg>