<svg xmlns="http://www.w3.org/2000/svg" viewBox="0 0 792 612"><defs><style>.a{fill:#fcfcfc;}.b{fill:none;stroke:#d4d4d4;stroke-width:0.6px;}</style></defs><title>White</title><rect class="a" width="792" height="612"/><line class="b" x1="28.35" y1="78.42" x2="763.51" y2="78.42"/><line class="b" x1="28.35" y1="99.68" x2="763.51" y2="99.68"/><line class="b" x1="28.35" y1="120.94" x2="763.51" y2="120.94"/><line class="b" x1="28.35" y1="142.2" x2="763.51" y2="142.2"/><line class="b" x1="28.35" y1="163.46" x2="763.51" y2="163.46"/><line class="b" x1="28.35" y1="184.72" x2="763.51" y2="184.72"/><line class="b" x1="28.35" y1="205.98" x2="763.51" y2="205.98"/><line class="b" x1="28.35" y1="227.24" x2="763.51" y2="227.24"/><line class="b" x1="28.35" y1="248.5" x2="763.51" y2="248.5"/><line class="b" x1="28.35" y1="269.76" x2="763.51" y2="269.76"/><line class="b" x1="28.35" y1="291.02" x2="763.51" y2="291.02"/><line class="b" x1="28.35" y1="312.28" x2="763.51" y2="312.28"/><line class="b" x1="28.35" y1="333.54" x2="763.51" y2="333.54"/><line class="b" x1="28.35" y1="354.8" x2="763.51" y2="354.8"/><line class="b" x1="28.35" y1="376.06" x2="763.51" y2="376.06"/><line class="b" x1="28.35" y1="397.32" x2="763.51" y2="397.32"/><line class="b" x1="28.35" y1="418.58" x2="763.51" y2="418.58"/><line class="b" x1="28.35" y1="439.84" x2="763.51" y2="439.84"/><line class="b" x1="28.35" y1="461.1" x2="763.51" y2="461.1"/><line class="b" x1="28.35" y1="482.36" x2="763.51" y2="482.36"/><line class="b" x1="28.35" y1="503.62" x2="763.51" y2="503.62"/><line class="b" x1="28.35" y1="524.88" x2="763.51" y2="524.88"/><line class="b" x1="28.35" y1="546.14" x2="763.51" y2="546.14"/><line class="b" x1="28.35" y1="567.4" x2="763.51" y2="567.4"/><line class="b" x1="28.65" y1="567.64" x2="28.65" y2="78.7"/><line class="b" x1="82.93" y1="567.64" x2="82.93" y2="78.62"/><line class="b" x1="763.35" y1="567.64" x2="763.35" y2="78.62"/><line class="b" x1="652.87" y1="567.64" x2="652.87" y2="78.62"/><line class="b" x1="543.73" y1="567.64" x2="543.73" y2="78.62"/><line class="b" x1="434.28" y1="567.64" x2="434.28" y2="78.62"/><line class="b" x1="28.35" y1="28.65" x2="763.37" y2="28.65"/><line class="b" x1="28.35" y1="49.91" x2="763.37" y2="49.91"/><line class="b" x1="28.35" y1="71.17" x2="763.37" y2="71.17"/><line class="b" x1="28.65" y1="71.29" x2="28.65" y2="28.35"/><line class="b" x1="82.93" y1="71.29" x2="82.93" y2="28.35"/><line class="b" x1="763.35" y1="71.29" x2="763.35" y2="28.35"/><line class="b" x1="652.87" y1="71.29" x2="652.87" y2="28.35"/><line class="b" x1="543.73" y1="71.29" x2="543.73" y2="28.35"/><line class="b" x1="434.28" y1="71.29" x2="434.28" y2="28.35"/><line class="b" x1="28.35" y1="574.44" x2="763.37" y2="574.44"/><line class="b" x1="28.35" y1="595.7" x2="763.37" y2="595.7"/><line class="b" x1="28.65" y1="595.7" x2="28.65" y2="574.14"/><line class="b" x1="82.93" y1="595.7" x2="82.93" y2="574.14"/><line class="b" x1="763.35" y1="595.7" x2="763.35" y2="574.14"/><line class="b" x1="652.87" y1="595.7" x2="652.87" y2="574.14"/><line class="b" x1="543.73" y1="595.7" x2="543.73" y2="574.14"/><line class="b" x1="434.28" y1="595.7" x2="434.28" y2="574.14"/></svg>