<svg xmlns="http://www.w3.org/2000/svg" xmlns:xlink="http://www.w3.org/1999/xlink" viewBox="0 0 868 1079.75"><defs><style>.a{fill:none;}.b{clip-path:url(#a);}.c{fill:#e5e5e5;}.d{fill:#ff7070;}.e{fill:#456b61;}.f{fill:#82baa8;}.g{fill:#c2e3d9;}</style><clipPath id="a" transform="translate(-10.26 -10.82)"><rect class="a" x="10.26" y="10.82" width="868" height="1079.75"/></clipPath></defs><title>08 Cubes</title><g class="b"><path class="c" d="M848.26,1090.57h-64V10.82h64a30.09,30.09,0,0,1,30,30V1060.58a30.09,30.09,0,0,1-30,30" transform="translate(-10.26 -10.82)"/><path class="d" d="M817.76,1090.57H10.26V10.82h807.5a30.09,30.09,0,0,1,30,30V1060.58a30.09,30.09,0,0,1-30,30" transform="translate(-10.26 -10.82)"/></g><polygon class="d" points="419.31 340.23 546.87 266.58 546.87 408.31 419.31 481.96 419.31 340.23"/><path class="e" d="M429.57,351.05l15.94-9.21v17.72l-15.94,9.2Zm47.83-9.9V323.43l-15.94,26.92-15.95-8.51,47.84-27.61v17.71Zm-23.91,22.66,8-13.46,8,4.26Zm-8,13.46,8-13.46v17.72Zm23.92-22.66,8,4.25-8,13.46Zm-39.86,14.15,15.94,8.51-15.94,26.92Zm47.83-9.9,16-26.92v35.43Zm-47.83,45.33,15.94-9.2v17.72l-15.94,9.2Zm15.94,8.52,15.95-26.93-8-4.25,15.94-9.21-8,13.46,15.94,8.52V376.58l16-9.21v17.72Z" transform="translate(-10.26 -10.82)"/><path class="e" d="M493.35,314.23,509.29,305v17.71l-15.94,9.21Zm47.83-9.91V286.61l-15.94,26.92L509.29,305l47.83-27.62v17.72ZM517.26,327l8-13.46,8,4.26Zm-8,13.46,8-13.46v17.72Zm23.92-22.66,8,4.25-8,13.46Zm-39.86,14.15,15.94,8.51-15.94,26.92Zm47.83-9.9,15.94-26.92v35.43Zm-47.83,45.33,15.94-9.2v17.71l-15.94,9.21Zm15.94,8.51L525.24,349l-8-4.25,16-9.21-8,13.46,15.94,8.51V339.76l15.94-9.21v17.72Z" transform="translate(-10.26 -10.82)"/><path class="e" d="M429.57,421.91l15.94-9.2v17.71l-15.94,9.21ZM477.4,412V394.3l-15.94,26.92-15.95-8.51,47.84-27.62v17.72Zm-23.91,22.67,8-13.46,8,4.25Zm-8,13.46,8-13.46v17.71Zm23.92-22.67,8,4.26-8,13.46Zm-39.86,14.16,15.94,8.51-15.94,26.92Zm47.83-9.9,16-26.92v35.43Zm-47.83,45.33,15.94-9.21v17.72l-15.94,9.2Zm15.94,8.51,15.95-26.92-8-4.26,15.94-9.2-8,13.46,15.94,8.51V447.44l16-9.2V456Z" transform="translate(-10.26 -10.82)"/><path class="e" d="M493.35,385.09l15.94-9.21V393.6l-15.94,9.21Zm47.83-9.9V357.47l-15.94,26.92-15.95-8.51,47.83-27.61V366Zm-23.92,22.67,8-13.47,8,4.26Zm-8,13.45,8-13.45v17.71Zm23.92-22.66,8,4.25-8,13.47Zm-39.86,14.16,15.94,8.5-15.94,26.93Zm47.83-9.91L557.12,366v35.44Zm-47.83,45.34L509.29,429v17.72L493.35,456Zm15.94,8.51,15.95-26.92-8-4.26,16-9.2-8,13.46,15.94,8.51V410.62l15.94-9.2v17.71Z" transform="translate(-10.26 -10.82)"/><polygon class="d" points="419.31 340.23 291.75 266.58 291.75 408.31 419.31 481.96 419.31 340.23"/><path class="f" d="M429.57,351.05l-15.95-9.21v17.72l15.95,9.2Zm-47.83-9.9V323.43l15.94,26.92,15.94-8.51-47.83-27.61v17.71Zm23.91,22.66-8-13.46-8,4.26Zm8,13.46-8-13.46v17.72Zm-23.91-22.66-8,4.25,8,13.46Zm39.86,14.15-15.95,8.51,15.95,26.92Zm-47.83-9.9-15.95-26.92v35.43Zm47.83,45.33L413.62,395V412.7l15.95,9.21Zm-15.95,8.51-15.94-26.92,8-4.25-15.94-9.21,8,13.46-15.94,8.52V376.58l-15.95-9.21v17.72Z" transform="translate(-10.26 -10.82)"/><path class="f" d="M365.79,314.23,349.85,305v17.71l15.94,9.21ZM318,304.32V286.61l15.94,26.92,16-8.51L302,277.4v17.72ZM341.88,327l-8-13.46-8,4.25Zm8,13.46-8-13.46v17.72Zm-23.92-22.67L318,322l8,13.46Zm39.86,14.16-15.94,8.51,15.94,26.92ZM318,322,302,295.12v35.43Zm47.83,45.33-15.94-9.2v17.71l15.94,9.21Zm-15.94,8.51L333.9,349l8-4.25-15.95-9.21,8,13.46L318,357.47V339.76L302,330.55v17.72Z" transform="translate(-10.26 -10.82)"/><path class="f" d="M429.57,421.91l-15.95-9.2v17.71l15.95,9.21ZM381.74,412V394.3l15.94,26.92,15.94-8.51-47.83-27.62v17.72Zm23.91,22.67-8-13.46-8,4.25Zm8,13.46-8-13.46v17.71Zm-23.91-22.67-8,4.26,8,13.46Zm39.86,14.16-15.95,8.51,15.95,26.92Zm-47.83-9.9-15.95-26.92v35.43Zm47.83,45.33-15.95-9.21v17.72l15.95,9.2Zm-15.95,8.51-15.94-26.92,8-4.26-15.94-9.2,8,13.46-15.94,8.51V447.44l-15.95-9.2V456Z" transform="translate(-10.26 -10.82)"/><path class="f" d="M365.79,385.09l-15.94-9.21V393.6l15.94,9.21ZM318,375.19V357.47l15.94,26.92,16-8.51L302,348.27V366Zm23.92,22.67-8-13.47-8,4.26Zm8,13.45-8-13.45v17.71Zm-23.92-22.66-8,4.25,8,13.47Zm39.86,14.16-15.94,8.5,15.94,26.93ZM318,392.9,302,366v35.44Zm47.83,45.34L349.85,429v17.72l15.94,9.2Zm-15.94,8.51-16-26.92,8-4.26-15.95-9.2,8,13.46L318,428.34V410.62L302,401.42v17.71Z" transform="translate(-10.26 -10.82)"/><polygon class="d" points="291.53 266.95 419.31 193.79 547.09 266.95 419.31 340.11 291.53 266.95"/><path class="g" d="M301.79,277.77l16-9.14,16,9.14-16,9.15Zm63.88-18.29-16-9.14v18.29H317.76l47.92-27.44,16,9.15Zm-16,18.29v-9.14h16Zm0,9.15v-9.15l16,9.15Zm16-18.29h16v9.14Zm-47.91,18.29H349.7v18.29Zm63.88-18.29V250.34l31.94,18.29ZM349.7,305.21l16-9.15,16,9.15-16,9.14Zm31.95,0V286.92h-16l16-9.15v9.15h31.94l-16-9.15,16-9.14,16,9.14Z" transform="translate(-10.26 -10.82)"/><path class="g" d="M365.68,241.19l16-9.14,16,9.14-16,9.15Zm63.88-18.29-16-9.14v18.29H381.65l47.91-27.44,16,9.15Zm-16,18.29v-9.14h16Zm0,9.15v-9.15l16,9.15Zm16-18.29h16v9.14Zm-47.91,18.29h31.94v18.29Zm63.88-18.29V213.76l31.94,18.29Zm-31.94,36.58,16-9.15,16,9.15-16,9.14Zm32,0V250.34h-16l16-9.15v9.15h31.94l-16-9.15,16-9.14,16,9.14Z" transform="translate(-10.26 -10.82)"/><path class="g" d="M365.68,314.35l16-9.14,16,9.14-16,9.15Zm63.88-18.29-16-9.14v18.29H381.65l47.91-27.44,16,9.15Zm-16,18.29v-9.14h16Zm0,9.15v-9.15l16,9.15Zm16-18.29h16v9.14ZM381.65,323.5h31.94v18.29Zm63.88-18.29V286.92l31.94,18.29Zm-31.94,36.58,16-9.15,16,9.14-16,9.15Zm32,0V323.5h-16l16-9.15v9.15h31.94l-16-9.15,16-9.14,16,9.14Z" transform="translate(-10.26 -10.82)"/><path class="g" d="M429.56,277.77l16-9.14,16,9.14-16,9.15Zm63.89-18.29-16-9.14v18.29H445.54l47.91-27.44,16,9.15Zm-16,18.29v-9.14h16Zm0,9.15v-9.15l16,9.15Zm16-18.29h16v9.14Zm-47.91,18.29h31.94v18.29Zm63.88-18.29V250.34l31.94,18.29Zm-31.94,36.58,16-9.15,16,9.15-16,9.14Zm31.94,0V286.92h-16l16-9.15v9.15h31.94l-16-9.15,16-9.14,16,9.14Z" transform="translate(-10.26 -10.82)"/><polygon class="d" points="226.75 452.23 354.31 378.58 354.31 520.31 226.75 593.96 226.75 452.23"/><path class="e" d="M237,463.05,253,453.84v17.72L237,480.76Zm47.83-9.9V435.43L268.9,462.35,253,453.84l47.83-27.61v17.71Zm-23.91,22.66,8-13.46,8,4.26Zm-8,13.46,8-13.46v17.72Zm23.92-22.66,8,4.25-8,13.46ZM237,480.76,253,489.27,237,516.19Zm47.83-9.9,15.94-26.92v35.43ZM237,516.19,253,507v17.72L237,533.91ZM253,524.71l15.95-26.93-8-4.25,15.94-9.21-8,13.46,15.94,8.52V488.58l15.94-9.21v17.72Z" transform="translate(-10.26 -10.82)"/><path class="e" d="M300.79,426.23,316.73,417v17.71l-15.94,9.21Zm47.83-9.91V398.61l-15.94,26.92L316.73,417l47.83-27.62v17.72ZM324.7,439l8-13.46,8,4.26Zm-8,13.46,8-13.46v17.72Zm23.92-22.66,8,4.25-8,13.46Zm-39.86,14.15,15.94,8.51-15.94,26.92Zm47.83-9.9,15.94-26.92v35.43Zm-47.83,45.33,15.94-9.2v17.71l-15.94,9.21Zm15.94,8.51L332.68,461l-8-4.25,15.95-9.21-8,13.46,15.94,8.51V451.76l15.94-9.21v17.72Z" transform="translate(-10.26 -10.82)"/><path class="e" d="M237,533.91l15.94-9.2v17.71L237,551.63Zm47.83-9.9V506.3L268.9,533.22,253,524.71l47.83-27.62v17.72Zm-23.91,22.67,8-13.46,8,4.25Zm-8,13.46,8-13.46v17.71Zm23.92-22.67,8,4.26-8,13.46ZM237,551.63,253,560.14,237,587.06Zm47.83-9.9,15.94-26.92v35.43ZM237,587.06,253,577.85v17.72L237,604.77ZM253,595.57l15.95-26.92-8-4.26,15.94-9.2-8,13.46,15.94,8.51V559.44l15.94-9.2V568Z" transform="translate(-10.26 -10.82)"/><path class="e" d="M300.79,497.09l15.94-9.21V505.6l-15.94,9.21Zm47.83-9.9V469.47l-15.94,26.92-15.95-8.51,47.83-27.61V478ZM324.7,509.86l8-13.47,8,4.26Zm-8,13.45,8-13.45v17.71Zm23.92-22.66,8,4.25-8,13.47Zm-39.86,14.16,15.94,8.5-15.94,26.93Zm47.83-9.91L364.56,478v35.44Zm-47.83,45.34L316.73,541v17.72L300.79,568Zm15.94,8.51,15.95-26.92-8-4.26,15.95-9.2-8,13.46,15.94,8.51V522.62l15.94-9.2v17.71Z" transform="translate(-10.26 -10.82)"/><polygon class="d" points="226.75 452.23 99.19 378.58 99.19 520.31 226.75 593.96 226.75 452.23"/><path class="f" d="M237,463.05l-15.95-9.21v17.72l15.95,9.2Zm-47.83-9.9V435.43l15.94,26.92,15.94-8.51-47.83-27.61v17.71Zm23.91,22.66-8-13.46-8,4.26Zm8,13.46-8-13.46v17.72Zm-23.91-22.66-8,4.25,8,13.46ZM237,480.76l-15.95,8.51L237,516.19Zm-47.83-9.9-16-26.92v35.43ZM237,516.19,221.06,507V524.7L237,533.91Zm-15.95,8.51-15.94-26.92,8-4.25-15.94-9.21,8,13.46-15.94,8.51V488.58l-16-9.21v17.72Z" transform="translate(-10.26 -10.82)"/><path class="f" d="M173.23,426.23,157.29,417v17.71l15.94,9.21Zm-47.83-9.91V398.61l15.94,26.92L157.29,417,109.45,389.4v17.72ZM149.31,439l-8-13.46-8,4.25Zm8,13.46-8-13.46v17.72Zm-23.92-22.67-8,4.26,8,13.46Zm39.86,14.16-15.94,8.51,15.94,26.92ZM125.4,434l-16-26.92v35.43Zm47.83,45.33-15.94-9.2v17.71l15.94,9.21Zm-15.94,8.51L141.34,461l8-4.25-15.94-9.21,8,13.46-15.94,8.51V451.76l-16-9.21v17.72Z" transform="translate(-10.26 -10.82)"/><path class="f" d="M237,533.91l-15.95-9.2v17.71L237,551.63ZM189.18,524V506.3l15.94,26.92,15.94-8.51-47.83-27.62v17.72Zm23.91,22.67-8-13.46-8,4.25Zm8,13.46-8-13.46v17.71Zm-23.91-22.67-8,4.26,8,13.46ZM237,551.63l-15.95,8.51L237,587.06Zm-47.83-9.9-16-26.92v35.43ZM237,587.06l-15.95-9.21v17.72l15.95,9.2Zm-15.95,8.51-15.94-26.92,8-4.26-15.94-9.2,8,13.46-15.94,8.51V559.44l-16-9.2V568Z" transform="translate(-10.26 -10.82)"/><path class="f" d="M173.23,497.09l-15.94-9.21V505.6l15.94,9.21Zm-47.83-9.9V469.47l15.94,26.92,15.95-8.51-47.84-27.61V478Zm23.91,22.67-8-13.47-8,4.26Zm8,13.45-8-13.45v17.71Zm-23.92-22.66-8,4.25,8,13.47Zm39.86,14.16-15.94,8.5,15.94,26.93ZM125.4,504.9l-16-26.92v35.44Zm47.83,45.34L157.29,541v17.72l15.94,9.2Zm-15.94,8.51-15.95-26.92,8-4.26-15.94-9.2,8,13.46-15.94,8.51V522.62l-16-9.2v17.71Z" transform="translate(-10.26 -10.82)"/><polygon class="d" points="98.97 378.95 226.75 305.79 354.53 378.95 226.75 452.11 98.97 378.95"/><path class="g" d="M109.23,389.77l16-9.14,16,9.14-16,9.15Zm63.88-18.29-16-9.14v18.29H125.2l47.91-27.44,16,9.15Zm-16,18.29v-9.14h16Zm0,9.15v-9.15l16,9.15Zm16-18.29h16v9.14ZM125.2,398.92h31.94v18.29Zm63.88-18.29V362.34L221,380.63Zm-31.94,36.58,16-9.15,16,9.15-16,9.14Zm32,0V398.92h-16l16-9.15v9.15H221l-16-9.15,16-9.14,16,9.14Z" transform="translate(-10.26 -10.82)"/><path class="g" d="M173.12,353.19l16-9.14,16,9.14-16,9.15ZM237,334.9l-16-9.14v18.29H189.09L237,316.61l16,9.15Zm-16,18.29v-9.14h16Zm0,9.15v-9.15l16,9.15Zm16-18.29h16v9.14Zm-47.91,18.29H221v18.29ZM253,344.05V325.76l31.94,18.29ZM221,380.63l16-9.15,16,9.15-16,9.14Zm31.95,0V362.34H237l16-9.15v9.15h31.94l-16-9.15,16-9.14,16,9.14Z" transform="translate(-10.26 -10.82)"/><path class="g" d="M173.11,426.35l16-9.14,16,9.14-16,9.15ZM237,408.06l-16-9.14v18.29H189.09L237,389.77l16,9.15Zm-16,18.29v-9.14h16Zm0,9.15v-9.15l16,9.15Zm16-18.29h16v9.14ZM189.09,435.5H221v18.29ZM253,417.21V398.92l31.94,18.29ZM221,453.79l16-9.15,16,9.14-16,9.15Zm31.95,0V435.5H237l16-9.15v9.15h31.94l-16-9.15,16-9.14,16,9.14Z" transform="translate(-10.26 -10.82)"/><path class="g" d="M237,389.77l16-9.14,16,9.14-16,9.15Zm63.89-18.29-16-9.14v18.29H253l47.91-27.44,16,9.15Zm-16,18.29v-9.14h16Zm0,9.15v-9.15l16,9.15Zm16-18.29h16v9.14ZM253,398.92h31.94v18.29Zm63.88-18.29V362.34l31.95,18.29Zm-31.94,36.58,16-9.15,16,9.15-16,9.14Zm31.94,0V398.92h-16l16-9.15v9.15h31.95l-16-9.15,16-9.14,16,9.14Z" transform="translate(-10.26 -10.82)"/><polygon class="d" points="610.75 452.23 738.31 378.58 738.31 520.31 610.75 593.96 610.75 452.23"/><path class="e" d="M621,463.05,637,453.84v17.72L621,480.76Zm47.83-9.9V435.43L652.9,462.35,637,453.84l47.83-27.61v17.71Zm-23.91,22.66,8-13.46,8,4.26Zm-8,13.46,8-13.46v17.72Zm23.92-22.66,8,4.25-8,13.46ZM621,480.76,637,489.27,621,516.19Zm47.83-9.9,15.94-26.92v35.43ZM621,516.19,637,507v17.72L621,533.91ZM637,524.71l15.95-26.93-8-4.25,15.94-9.21-8,13.46,15.94,8.52V488.58l15.94-9.21v17.72Z" transform="translate(-10.26 -10.82)"/><path class="e" d="M684.78,426.23l16-9.21v17.71l-16,9.21Zm47.84-9.91V398.61l-15.94,26.92L700.73,417l47.83-27.62v17.72ZM708.7,439l8-13.46,8,4.26Zm-8,13.46,8-13.46v17.72Zm23.92-22.66,8,4.25-8,13.46Zm-39.87,14.15,16,8.51-16,26.92Zm47.84-9.9,15.94-26.92v35.43Zm-47.84,45.33,16-9.2v17.71l-16,9.21Zm16,8.51L716.68,461l-8-4.25,15.95-9.21-8,13.46,15.94,8.51V451.76l15.94-9.21v17.72Z" transform="translate(-10.26 -10.82)"/><path class="e" d="M621,533.91l15.94-9.2v17.71L621,551.63Zm47.83-9.9V506.3L652.9,533.22,637,524.71l47.83-27.62v17.72Zm-23.91,22.67,8-13.46,8,4.25Zm-8,13.46,8-13.46v17.71Zm23.92-22.67,8,4.26-8,13.46ZM621,551.63,637,560.14,621,587.06Zm47.83-9.9,15.94-26.92v35.43ZM621,587.06,637,577.85v17.72L621,604.77ZM637,595.57l15.95-26.92-8-4.26,15.94-9.2-8,13.46,15.94,8.51V559.44l15.94-9.2V568Z" transform="translate(-10.26 -10.82)"/><path class="e" d="M684.78,497.09l16-9.21V505.6l-16,9.21Zm47.84-9.9V469.47l-15.94,26.92-15.95-8.51,47.83-27.61V478ZM708.7,509.86l8-13.47,8,4.26Zm-8,13.45,8-13.45v17.71Zm23.92-22.66,8,4.25-8,13.47Zm-39.87,14.16,16,8.5-16,26.93Zm47.84-9.91L748.56,478v35.44Zm-47.84,45.34,16-9.21v17.72l-16,9.2Zm16,8.51,15.95-26.92-8-4.26,15.95-9.2-8,13.46,15.94,8.51V522.62l15.94-9.2v17.71Z" transform="translate(-10.26 -10.82)"/><polygon class="d" points="610.75 452.23 483.19 378.58 483.19 520.31 610.75 593.96 610.75 452.23"/><path class="f" d="M621,463.05l-16-9.21v17.72l16,9.2Zm-47.83-9.9V435.43l15.94,26.92,15.94-8.51-47.83-27.61v17.71Zm23.91,22.66-8-13.46-8,4.26Zm8,13.46-8-13.46v17.72Zm-23.91-22.66-8,4.25,8,13.46ZM621,480.76l-16,8.51,16,26.92Zm-47.83-9.9-15.95-26.92v35.43ZM621,516.19l-16-9.2V524.7l16,9.21Zm-16,8.51-15.94-26.92,8-4.25-15.94-9.21,8,13.46-15.94,8.51V488.58l-15.95-9.21v17.72Z" transform="translate(-10.26 -10.82)"/><path class="f" d="M557.23,426.23,541.29,417v17.71l15.94,9.21Zm-47.83-9.91V398.61l15.94,26.92L541.29,417,493.45,389.4v17.72ZM533.31,439l-8-13.46-8,4.25Zm8,13.46-8-13.46v17.72Zm-23.92-22.67-8,4.26,8,13.46Zm39.86,14.16-15.94,8.51,15.94,26.92ZM509.4,434l-15.95-26.92v35.43Zm47.83,45.33-15.94-9.2v17.71l15.94,9.21Zm-15.94,8.51L525.34,461l8-4.25-15.94-9.21,8,13.46-15.94,8.51V451.76l-15.95-9.21v17.72Z" transform="translate(-10.26 -10.82)"/><path class="f" d="M621,533.91l-16-9.2v17.71l16,9.21ZM573.18,524V506.3l15.94,26.92,15.94-8.51-47.83-27.62v17.72Zm23.91,22.67-8-13.46-8,4.25Zm8,13.46-8-13.46v17.71Zm-23.91-22.67-8,4.26,8,13.46ZM621,551.63l-16,8.51,16,26.92Zm-47.83-9.9-15.95-26.92v35.43ZM621,587.06l-16-9.21v17.72l16,9.2Zm-16,8.51-15.94-26.92,8-4.26-15.94-9.2,8,13.46-15.94,8.51V559.44l-15.95-9.2V568Z" transform="translate(-10.26 -10.82)"/><path class="f" d="M557.23,497.09l-15.94-9.21V505.6l15.94,9.21Zm-47.83-9.9V469.47l15.94,26.92,15.95-8.51-47.84-27.61V478Zm23.91,22.67-8-13.47-8,4.26Zm8,13.45-8-13.45v17.71Zm-23.92-22.66-8,4.25,8,13.47Zm39.86,14.16-15.94,8.5,15.94,26.93ZM509.4,504.9,493.45,478v35.44Zm47.83,45.34L541.29,541v17.72l15.94,9.2Zm-15.94,8.51-15.95-26.92,8-4.26-15.94-9.2,8,13.46-15.94,8.51V522.62l-15.95-9.2v17.71Z" transform="translate(-10.26 -10.82)"/><polygon class="d" points="482.97 378.95 610.75 305.79 738.53 378.95 610.75 452.11 482.97 378.95"/><path class="g" d="M493.23,389.77l16-9.14,16,9.14-16,9.15Zm63.88-18.29-16-9.14v18.29H509.2l47.91-27.44,16,9.15Zm-16,18.29v-9.14h16Zm0,9.15v-9.15l16,9.15Zm16-18.29h16v9.14ZM509.2,398.92h31.94v18.29Zm63.88-18.29V362.34L605,380.63Zm-31.94,36.58,16-9.15,16,9.15-16,9.14Zm32,0V398.92h-16l16-9.15v9.15H605l-16-9.15,16-9.14,16,9.14Z" transform="translate(-10.26 -10.82)"/><path class="g" d="M557.12,353.19l16-9.14,16,9.14-16,9.15ZM621,334.9l-16-9.14v18.29H573.09L621,316.61l16,9.15Zm-16,18.29v-9.14h16Zm0,9.15v-9.15l16,9.15Zm16-18.29h16v9.14Zm-47.91,18.29H605v18.29ZM637,344.05V325.76l31.94,18.29ZM605,380.63l16-9.15,16,9.15-16,9.14Zm32,0V362.34H621l16-9.15v9.15h31.94l-16-9.15,16-9.14,16,9.14Z" transform="translate(-10.26 -10.82)"/><path class="g" d="M557.11,426.35l16-9.14,16,9.14-16,9.15ZM621,408.06l-16-9.14v18.29H573.09L621,389.77l16,9.15Zm-16,18.29v-9.14h16Zm0,9.15v-9.15l16,9.15Zm16-18.29h16v9.14ZM573.09,435.5H605v18.29ZM637,417.21V398.92l31.94,18.29ZM605,453.79l16-9.15,16,9.14-16,9.15Zm32,0V435.5H621l16-9.15v9.15h31.94l-16-9.15,16-9.14,16,9.14Z" transform="translate(-10.26 -10.82)"/><path class="g" d="M621,389.77l16-9.14,16,9.14-16,9.15Zm63.89-18.29-16-9.14v18.29H637l47.91-27.44,16,9.15Zm-16,18.29v-9.14h16Zm0,9.15v-9.15l16,9.15Zm16-18.29h16v9.14ZM637,398.92h31.94v18.29Zm63.88-18.29V362.34l31.95,18.29Zm-31.94,36.58,16-9.15,16,9.15-16,9.14Zm31.94,0V398.92h-16l16-9.15v9.15h31.95l-16-9.15,16-9.14,16,9.14Z" transform="translate(-10.26 -10.82)"/><polygon class="d" points="226.75 676.23 354.31 602.58 354.31 744.31 226.75 817.96 226.75 676.23"/><path class="e" d="M237,687.05,253,677.84v17.72L237,704.76Zm47.83-9.9V659.43L268.9,686.35,253,677.84l47.83-27.61v17.71Zm-23.91,22.66,8-13.46,8,4.26Zm-8,13.46,8-13.46v17.72Zm23.92-22.66,8,4.25-8,13.46ZM237,704.76,253,713.27,237,740.19Zm47.83-9.9,15.94-26.92v35.43ZM237,740.19,253,731v17.72L237,757.91ZM253,748.71l15.95-26.93-8-4.25,15.94-9.21-8,13.46,15.94,8.52V712.58l15.94-9.21v17.72Z" transform="translate(-10.26 -10.82)"/><path class="e" d="M300.79,650.23,316.73,641v17.71l-15.94,9.21Zm47.83-9.91V622.61l-15.94,26.92L316.73,641l47.83-27.62v17.72ZM324.7,663l8-13.46,8,4.26Zm-8,13.46,8-13.46v17.72Zm23.92-22.66,8,4.25-8,13.46Zm-39.86,14.15,15.94,8.51-15.94,26.92Zm47.83-9.9,15.94-26.92v35.43Zm-47.83,45.33,15.94-9.2v17.71l-15.94,9.21Zm15.94,8.51L332.68,685l-8-4.25,15.95-9.21-8,13.46,15.94,8.51V675.76l15.94-9.21v17.72Z" transform="translate(-10.26 -10.82)"/><path class="e" d="M237,757.91l15.94-9.2v17.71L237,775.63Zm47.83-9.9V730.3L268.9,757.22,253,748.71l47.83-27.62v17.72Zm-23.91,22.67,8-13.46,8,4.25Zm-8,13.46,8-13.46v17.71Zm23.92-22.67,8,4.26-8,13.46ZM237,775.63,253,784.14,237,811.06Zm47.83-9.9,15.94-26.92v35.43ZM237,811.06,253,801.85v17.72L237,828.77ZM253,819.57l15.95-26.92-8-4.26,15.94-9.2-8,13.46,15.94,8.51V783.44l15.94-9.2V792Z" transform="translate(-10.26 -10.82)"/><path class="e" d="M300.79,721.09l15.94-9.21V729.6l-15.94,9.21Zm47.83-9.9V693.47l-15.94,26.92-15.95-8.51,47.83-27.61V702ZM324.7,733.86l8-13.47,8,4.26Zm-8,13.45,8-13.45v17.71Zm23.92-22.66,8,4.25-8,13.47Zm-39.86,14.16,15.94,8.5-15.94,26.93Zm47.83-9.91L364.56,702v35.44Zm-47.83,45.34L316.73,765v17.72L300.79,792Zm15.94,8.51,15.95-26.92-8-4.26,15.95-9.2-8,13.46,15.94,8.51V746.62l15.94-9.2v17.71Z" transform="translate(-10.26 -10.82)"/><polygon class="d" points="226.75 676.23 99.19 602.58 99.19 744.31 226.75 817.96 226.75 676.23"/><path class="f" d="M237,687.05l-15.95-9.21v17.72l15.95,9.2Zm-47.83-9.9V659.43l15.94,26.92,15.94-8.51-47.83-27.61v17.71Zm23.91,22.66-8-13.46-8,4.26Zm8,13.46-8-13.46v17.72Zm-23.91-22.66-8,4.25,8,13.46ZM237,704.76l-15.95,8.51L237,740.19Zm-47.83-9.9-16-26.92v35.43ZM237,740.19,221.06,731V748.7L237,757.91Zm-15.95,8.51-15.94-26.92,8-4.25-15.94-9.21,8,13.46-15.94,8.51V712.58l-16-9.21v17.72Z" transform="translate(-10.26 -10.82)"/><path class="f" d="M173.23,650.23,157.29,641v17.71l15.94,9.21Zm-47.83-9.91V622.61l15.94,26.92L157.29,641,109.45,613.4v17.72ZM149.31,663l-8-13.46-8,4.25Zm8,13.46-8-13.46v17.72Zm-23.92-22.67-8,4.26,8,13.46Zm39.86,14.16-15.94,8.51,15.94,26.92ZM125.4,658l-16-26.92v35.43Zm47.83,45.33-15.94-9.2v17.71l15.94,9.21Zm-15.94,8.51L141.34,685l8-4.25-15.94-9.21,8,13.46-15.94,8.51V675.76l-16-9.21v17.72Z" transform="translate(-10.26 -10.82)"/><path class="f" d="M237,757.91l-15.95-9.2v17.71L237,775.63ZM189.18,748V730.3l15.94,26.92,15.94-8.51-47.83-27.62v17.72Zm23.91,22.67-8-13.46-8,4.25Zm8,13.46-8-13.46v17.71Zm-23.91-22.67-8,4.26,8,13.46ZM237,775.63l-15.95,8.51L237,811.06Zm-47.83-9.9-16-26.92v35.43ZM237,811.06l-15.95-9.21v17.72l15.95,9.2Zm-15.95,8.51-15.94-26.92,8-4.26-15.94-9.2,8,13.46-15.94,8.51V783.44l-16-9.2V792Z" transform="translate(-10.26 -10.82)"/><path class="f" d="M173.23,721.09l-15.94-9.21V729.6l15.94,9.21Zm-47.83-9.9V693.47l15.94,26.92,15.95-8.51-47.84-27.61V702Zm23.91,22.67-8-13.47-8,4.26Zm8,13.45-8-13.45v17.71Zm-23.92-22.66-8,4.25,8,13.47Zm39.86,14.16-15.94,8.5,15.94,26.93ZM125.4,728.9l-16-26.92v35.44Zm47.83,45.34L157.29,765v17.72l15.94,9.2Zm-15.94,8.51-15.95-26.92,8-4.26-15.94-9.2,8,13.46-15.94,8.51V746.62l-16-9.2v17.71Z" transform="translate(-10.26 -10.82)"/><polygon class="d" points="98.97 602.95 226.75 529.79 354.53 602.95 226.75 676.11 98.97 602.95"/><path class="g" d="M109.23,613.77l16-9.14,16,9.14-16,9.15Zm63.88-18.29-16-9.14v18.29H125.2l47.91-27.44,16,9.15Zm-16,18.29v-9.14h16Zm0,9.15v-9.15l16,9.15Zm16-18.29h16v9.14ZM125.2,622.92h31.94v18.29Zm63.88-18.29V586.34L221,604.63Zm-31.94,36.58,16-9.15,16,9.15-16,9.14Zm32,0V622.92h-16l16-9.15v9.15H221l-16-9.15,16-9.14,16,9.14Z" transform="translate(-10.26 -10.82)"/><path class="g" d="M173.12,577.19l16-9.14,16,9.14-16,9.15ZM237,558.9l-16-9.14v18.29H189.09L237,540.61l16,9.15Zm-16,18.29v-9.14h16Zm0,9.15v-9.15l16,9.15Zm16-18.29h16v9.14Zm-47.91,18.29H221v18.29ZM253,568.05V549.76l31.94,18.29ZM221,604.63l16-9.15,16,9.15-16,9.14Zm31.95,0V586.34H237l16-9.15v9.15h31.94l-16-9.15,16-9.14,16,9.14Z" transform="translate(-10.26 -10.82)"/><path class="g" d="M173.11,650.35l16-9.14,16,9.14-16,9.15ZM237,632.06l-16-9.14v18.29H189.09L237,613.77l16,9.15Zm-16,18.29v-9.14h16Zm0,9.15v-9.15l16,9.15Zm16-18.29h16v9.14ZM189.09,659.5H221v18.29ZM253,641.21V622.92l31.94,18.29ZM221,677.79l16-9.15,16,9.14-16,9.15Zm31.95,0V659.5H237l16-9.15v9.15h31.94l-16-9.15,16-9.14,16,9.14Z" transform="translate(-10.26 -10.82)"/><path class="g" d="M237,613.77l16-9.14,16,9.14-16,9.15Zm63.89-18.29-16-9.14v18.29H253l47.91-27.44,16,9.15Zm-16,18.29v-9.14h16Zm0,9.15v-9.15l16,9.15Zm16-18.29h16v9.14ZM253,622.92h31.94v18.29Zm63.88-18.29V586.34l31.95,18.29Zm-31.94,36.58,16-9.15,16,9.15-16,9.14Zm31.94,0V622.92h-16l16-9.15v9.15h31.95l-16-9.15,16-9.14,16,9.14Z" transform="translate(-10.26 -10.82)"/><polygon class="d" points="610.75 676.23 738.31 602.58 738.31 744.31 610.75 817.96 610.75 676.23"/><path class="e" d="M621,687.05,637,677.84v17.72L621,704.76Zm47.83-9.9V659.43L652.9,686.35,637,677.84l47.83-27.61v17.71Zm-23.91,22.66,8-13.46,8,4.26Zm-8,13.46,8-13.46v17.72Zm23.92-22.66,8,4.25-8,13.46ZM621,704.76,637,713.27,621,740.19Zm47.83-9.9,15.94-26.92v35.43ZM621,740.19,637,731v17.72L621,757.91ZM637,748.71l15.95-26.93-8-4.25,15.94-9.21-8,13.46,15.94,8.52V712.58l15.94-9.21v17.72Z" transform="translate(-10.26 -10.82)"/><path class="e" d="M684.78,650.23l16-9.21v17.71l-16,9.21Zm47.84-9.91V622.61l-15.94,26.92L700.73,641l47.83-27.62v17.72ZM708.7,663l8-13.46,8,4.26Zm-8,13.46,8-13.46v17.72Zm23.92-22.66,8,4.25-8,13.46Zm-39.87,14.15,16,8.51-16,26.92Zm47.84-9.9,15.94-26.92v35.43Zm-47.84,45.33,16-9.2v17.71l-16,9.21Zm16,8.51L716.68,685l-8-4.25,15.95-9.21-8,13.46,15.94,8.51V675.76l15.94-9.21v17.72Z" transform="translate(-10.26 -10.82)"/><path class="e" d="M621,757.91l15.94-9.2v17.71L621,775.63Zm47.83-9.9V730.3L652.9,757.22,637,748.71l47.83-27.62v17.72Zm-23.91,22.67,8-13.46,8,4.25Zm-8,13.46,8-13.46v17.71Zm23.92-22.67,8,4.26-8,13.46ZM621,775.63,637,784.14,621,811.06Zm47.83-9.9,15.94-26.92v35.43ZM621,811.06,637,801.85v17.72L621,828.77ZM637,819.57l15.95-26.92-8-4.26,15.94-9.2-8,13.46,15.94,8.51V783.44l15.94-9.2V792Z" transform="translate(-10.26 -10.82)"/><path class="e" d="M684.78,721.09l16-9.21V729.6l-16,9.21Zm47.84-9.9V693.47l-15.94,26.92-15.95-8.51,47.83-27.61V702ZM708.7,733.86l8-13.47,8,4.26Zm-8,13.45,8-13.45v17.71Zm23.92-22.66,8,4.25-8,13.47Zm-39.87,14.16,16,8.5-16,26.93Zm47.84-9.91L748.56,702v35.44Zm-47.84,45.34,16-9.21v17.72l-16,9.2Zm16,8.51,15.95-26.92-8-4.26,15.95-9.2-8,13.46,15.94,8.51V746.62l15.94-9.2v17.71Z" transform="translate(-10.26 -10.82)"/><polygon class="d" points="610.75 676.23 483.19 602.58 483.19 744.31 610.75 817.96 610.75 676.23"/><path class="f" d="M621,687.05l-16-9.21v17.72l16,9.2Zm-47.83-9.9V659.43l15.94,26.92,15.94-8.51-47.83-27.61v17.71Zm23.91,22.66-8-13.46-8,4.26Zm8,13.46-8-13.46v17.72Zm-23.91-22.66-8,4.25,8,13.46ZM621,704.76l-16,8.51,16,26.92Zm-47.83-9.9-15.95-26.92v35.43ZM621,740.19l-16-9.2V748.7l16,9.21Zm-16,8.51-15.94-26.92,8-4.25-15.94-9.21,8,13.46-15.94,8.51V712.58l-15.95-9.21v17.72Z" transform="translate(-10.26 -10.82)"/><path class="f" d="M557.23,650.23,541.29,641v17.71l15.94,9.21Zm-47.83-9.91V622.61l15.94,26.92L541.29,641,493.45,613.4v17.72ZM533.31,663l-8-13.46-8,4.25Zm8,13.46-8-13.46v17.72Zm-23.92-22.67-8,4.26,8,13.46Zm39.86,14.16-15.94,8.51,15.94,26.92ZM509.4,658l-15.95-26.92v35.43Zm47.83,45.33-15.94-9.2v17.71l15.94,9.21Zm-15.94,8.51L525.34,685l8-4.25-15.94-9.21,8,13.46-15.94,8.51V675.76l-15.95-9.21v17.72Z" transform="translate(-10.26 -10.82)"/><path class="f" d="M621,757.91l-16-9.2v17.71l16,9.21ZM573.18,748V730.3l15.94,26.92,15.94-8.51-47.83-27.62v17.72Zm23.91,22.67-8-13.46-8,4.25Zm8,13.46-8-13.46v17.71Zm-23.91-22.67-8,4.26,8,13.46ZM621,775.63l-16,8.51,16,26.92Zm-47.83-9.9-15.95-26.92v35.43ZM621,811.06l-16-9.21v17.72l16,9.2Zm-16,8.51-15.94-26.92,8-4.26-15.94-9.2,8,13.46-15.94,8.51V783.44l-15.95-9.2V792Z" transform="translate(-10.26 -10.82)"/><path class="f" d="M557.23,721.09l-15.94-9.21V729.6l15.94,9.21Zm-47.83-9.9V693.47l15.94,26.92,15.95-8.51-47.84-27.61V702Zm23.91,22.67-8-13.47-8,4.26Zm8,13.45-8-13.45v17.71Zm-23.92-22.66-8,4.25,8,13.47Zm39.86,14.16-15.94,8.5,15.94,26.93ZM509.4,728.9,493.45,702v35.44Zm47.83,45.34L541.29,765v17.72l15.94,9.2Zm-15.94,8.51-15.95-26.92,8-4.26-15.94-9.2,8,13.46-15.94,8.51V746.62l-15.95-9.2v17.71Z" transform="translate(-10.26 -10.82)"/><polygon class="d" points="482.97 602.95 610.75 529.79 738.53 602.95 610.75 676.11 482.97 602.95"/><path class="g" d="M493.23,613.77l16-9.14,16,9.14-16,9.15Zm63.88-18.29-16-9.14v18.29H509.2l47.91-27.44,16,9.15Zm-16,18.29v-9.14h16Zm0,9.15v-9.15l16,9.15Zm16-18.29h16v9.14ZM509.2,622.92h31.94v18.29Zm63.88-18.29V586.34L605,604.63Zm-31.94,36.58,16-9.15,16,9.15-16,9.14Zm32,0V622.92h-16l16-9.15v9.15H605l-16-9.15,16-9.14,16,9.14Z" transform="translate(-10.26 -10.82)"/><path class="g" d="M557.12,577.19l16-9.14,16,9.14-16,9.15ZM621,558.9l-16-9.14v18.29H573.09L621,540.61l16,9.15Zm-16,18.29v-9.14h16Zm0,9.15v-9.15l16,9.15Zm16-18.29h16v9.14Zm-47.91,18.29H605v18.29ZM637,568.05V549.76l31.94,18.29ZM605,604.63l16-9.15,16,9.15-16,9.14Zm32,0V586.34H621l16-9.15v9.15h31.94l-16-9.15,16-9.14,16,9.14Z" transform="translate(-10.26 -10.82)"/><path class="g" d="M557.11,650.35l16-9.14,16,9.14-16,9.15ZM621,632.06l-16-9.14v18.29H573.09L621,613.77l16,9.15Zm-16,18.29v-9.14h16Zm0,9.15v-9.15l16,9.15Zm16-18.29h16v9.14ZM573.09,659.5H605v18.29ZM637,641.21V622.92l31.94,18.29ZM605,677.79l16-9.15,16,9.14-16,9.15Zm32,0V659.5H621l16-9.15v9.15h31.94l-16-9.15,16-9.14,16,9.14Z" transform="translate(-10.26 -10.82)"/><path class="g" d="M621,613.77l16-9.14,16,9.14-16,9.15Zm63.89-18.29-16-9.14v18.29H637l47.91-27.44,16,9.15Zm-16,18.29v-9.14h16Zm0,9.15v-9.15l16,9.15Zm16-18.29h16v9.14ZM637,622.92h31.94v18.29Zm63.88-18.29V586.34l31.95,18.29Zm-31.94,36.58,16-9.15,16,9.15-16,9.14Zm31.94,0V622.92h-16l16-9.15v9.15h31.95l-16-9.15,16-9.14,16,9.14Z" transform="translate(-10.26 -10.82)"/><polygon class="d" points="419.31 785.23 546.87 711.58 546.87 853.31 419.31 926.96 419.31 785.23"/><path class="e" d="M429.57,796.05l15.94-9.21v17.72l-15.94,9.2Zm47.83-9.9V768.43l-15.94,26.92-15.95-8.51,47.84-27.61v17.71Zm-23.91,22.66,8-13.46,8,4.26Zm-8,13.46,8-13.46v17.72Zm23.92-22.66,8,4.25-8,13.46Zm-39.86,14.15,15.94,8.51-15.94,26.92Zm47.83-9.9,16-26.92v35.43Zm-47.83,45.33,15.94-9.2v17.72l-15.94,9.2Zm15.94,8.52,15.95-26.93-8-4.25,15.94-9.21-8,13.46,15.94,8.52V821.58l16-9.21v17.72Z" transform="translate(-10.26 -10.82)"/><path class="e" d="M493.35,759.23,509.29,750v17.71l-15.94,9.21Zm47.83-9.91V731.61l-15.94,26.92L509.29,750l47.83-27.62v17.72ZM517.26,772l8-13.46,8,4.26Zm-8,13.46,8-13.46v17.72Zm23.92-22.66,8,4.25-8,13.46Zm-39.86,14.15,15.94,8.51-15.94,26.92Zm47.83-9.9,15.94-26.92v35.43Zm-47.83,45.33,15.94-9.2v17.71l-15.94,9.21Zm15.94,8.51L525.24,794l-8-4.25,16-9.21-8,13.46,15.94,8.51V784.76l15.94-9.21v17.72Z" transform="translate(-10.26 -10.82)"/><path class="e" d="M429.57,866.91l15.94-9.2v17.71l-15.94,9.21ZM477.4,857V839.3l-15.94,26.92-15.95-8.51,47.84-27.62v17.72Zm-23.91,22.67,8-13.46,8,4.25Zm-8,13.46,8-13.46v17.71Zm23.92-22.67,8,4.26-8,13.46Zm-39.86,14.16,15.94,8.51-15.94,26.92Zm47.83-9.9,16-26.92v35.43Zm-47.83,45.33,15.94-9.21v17.72l-15.94,9.2Zm15.94,8.51,15.95-26.92-8-4.26,15.94-9.2-8,13.46,15.94,8.51V892.44l16-9.2V901Z" transform="translate(-10.26 -10.82)"/><path class="e" d="M493.35,830.09l15.94-9.21V838.6l-15.94,9.21Zm47.83-9.9V802.47l-15.94,26.92-15.95-8.51,47.83-27.61V811Zm-23.92,22.67,8-13.47,8,4.26Zm-8,13.45,8-13.45v17.71Zm23.92-22.66,8,4.25-8,13.47Zm-39.86,14.16,15.94,8.5-15.94,26.93Zm47.83-9.91L557.12,811v35.44Zm-47.83,45.34L509.29,874v17.72L493.35,901Zm15.94,8.51,15.95-26.92-8-4.26,16-9.2-8,13.46,15.94,8.51V855.62l15.94-9.2v17.71Z" transform="translate(-10.26 -10.82)"/><polygon class="d" points="419.31 785.23 291.75 711.58 291.75 853.31 419.31 926.96 419.31 785.23"/><path class="f" d="M429.57,796.05l-15.95-9.21v17.72l15.95,9.2Zm-47.83-9.9V768.43l15.94,26.92,15.94-8.51-47.83-27.61v17.71Zm23.91,22.66-8-13.46-8,4.26Zm8,13.46-8-13.46v17.72Zm-23.91-22.66-8,4.25,8,13.46Zm39.86,14.15-15.95,8.51,15.95,26.92Zm-47.83-9.9-15.95-26.92v35.43Zm47.83,45.33L413.62,840V857.7l15.95,9.21Zm-15.95,8.51-15.94-26.92,8-4.25-15.94-9.21,8,13.46-15.94,8.51V821.58l-15.95-9.21v17.72Z" transform="translate(-10.26 -10.82)"/><path class="f" d="M365.79,759.23,349.85,750v17.71l15.94,9.21ZM318,749.32V731.61l15.94,26.92,16-8.51L302,722.4v17.72ZM341.88,772l-8-13.46-8,4.25Zm8,13.46-8-13.46v17.72Zm-23.92-22.67L318,767l8,13.46Zm39.86,14.16-15.94,8.51,15.94,26.92ZM318,767,302,740.12v35.43Zm47.83,45.33-15.94-9.2v17.71l15.94,9.21Zm-15.94,8.51L333.9,794l8-4.25-15.95-9.21,8,13.46L318,802.47V784.76L302,775.55v17.72Z" transform="translate(-10.26 -10.82)"/><path class="f" d="M429.57,866.91l-15.95-9.2v17.71l15.95,9.21ZM381.74,857V839.3l15.94,26.92,15.94-8.51-47.83-27.62v17.72Zm23.91,22.67-8-13.46-8,4.25Zm8,13.46-8-13.46v17.71Zm-23.91-22.67-8,4.26,8,13.46Zm39.86,14.16-15.95,8.51,15.95,26.92Zm-47.83-9.9-15.95-26.92v35.43Zm47.83,45.33-15.95-9.21v17.72l15.95,9.2Zm-15.95,8.51-15.94-26.92,8-4.26-15.94-9.2,8,13.46-15.94,8.51V892.44l-15.95-9.2V901Z" transform="translate(-10.26 -10.82)"/><path class="f" d="M365.79,830.09l-15.94-9.21V838.6l15.94,9.21ZM318,820.19V802.47l15.94,26.92,16-8.51L302,793.27V811Zm23.92,22.67-8-13.47-8,4.26Zm8,13.45-8-13.45v17.71Zm-23.92-22.66-8,4.25,8,13.47Zm39.86,14.16-15.94,8.5,15.94,26.93ZM318,837.9,302,811v35.43Zm47.83,45.34L349.85,874v17.72l15.94,9.2Zm-15.94,8.51-16-26.92,8-4.26-15.95-9.2,8,13.46L318,873.34V855.62L302,846.41v17.72Z" transform="translate(-10.26 -10.82)"/><polygon class="d" points="291.53 711.95 419.31 638.79 547.09 711.95 419.31 785.11 291.53 711.95"/><path class="g" d="M301.79,722.77l16-9.14,16,9.14-16,9.15Zm63.88-18.29-16-9.14v18.29H317.76l47.92-27.44,16,9.15Zm-16,18.29v-9.14h16Zm0,9.15v-9.15l16,9.15Zm16-18.29h16v9.14Zm-47.91,18.29H349.7v18.29Zm63.88-18.29V695.34l31.94,18.29ZM349.7,750.21l16-9.15,16,9.15-16,9.14Zm31.95,0V731.92h-16l16-9.15v9.15h31.94l-16-9.15,16-9.14,16,9.14Z" transform="translate(-10.26 -10.82)"/><path class="g" d="M365.68,686.19l16-9.14,16,9.14-16,9.15Zm63.88-18.29-16-9.14v18.29H381.65l47.91-27.44,16,9.15Zm-16,18.29v-9.14h16Zm0,9.15v-9.15l16,9.15Zm16-18.29h16v9.14Zm-47.91,18.29h31.94v18.29Zm63.88-18.29V658.76l31.94,18.29Zm-31.94,36.58,16-9.15,16,9.15-16,9.14Zm32,0V695.34h-16l16-9.15v9.15h31.94l-16-9.15,16-9.14,16,9.14Z" transform="translate(-10.26 -10.82)"/><path class="g" d="M365.68,759.35l16-9.14,16,9.14-16,9.15Zm63.88-18.29-16-9.14v18.29H381.65l47.91-27.44,16,9.15Zm-16,18.29v-9.14h16Zm0,9.15v-9.15l16,9.15Zm16-18.29h16v9.14ZM381.65,768.5h31.94v18.29Zm63.88-18.29V731.92l31.94,18.29Zm-31.94,36.58,16-9.15,16,9.14-16,9.15Zm32,0V768.5h-16l16-9.15v9.15h31.94l-16-9.15,16-9.14,16,9.14Z" transform="translate(-10.26 -10.82)"/><path class="g" d="M429.56,722.77l16-9.14,16,9.14-16,9.15Zm63.89-18.29-16-9.14v18.29H445.54l47.91-27.44,16,9.15Zm-16,18.29v-9.14h16Zm0,9.15v-9.15l16,9.15Zm16-18.29h16v9.14Zm-47.91,18.29h31.94v18.29Zm63.88-18.29V695.34l31.94,18.29Zm-31.94,36.58,16-9.15,16,9.15-16,9.14Zm31.94,0V731.92h-16l16-9.15v9.15h31.94l-16-9.15,16-9.14,16,9.14Z" transform="translate(-10.26 -10.82)"/><polygon class="d" points="419.31 564.14 546.87 490.5 546.87 632.23 419.31 705.87 419.31 564.14"/><path class="e" d="M429.57,575l15.94-9.2v17.71l-15.94,9.21Zm47.83-9.9V547.35l-15.94,26.92-15.95-8.51,47.84-27.62v17.72Zm-23.91,22.67,8-13.46,8,4.25Zm-8,13.46,8-13.46v17.71Zm23.92-22.67,8,4.26-8,13.46Zm-39.86,14.16,15.94,8.51-15.94,26.92Zm47.83-9.9,16-26.92v35.43Zm-47.83,45.33,15.94-9.21v17.72l-15.94,9.21Zm15.94,8.51,15.95-26.92-8-4.26,15.94-9.2-8,13.46,15.94,8.51V600.49l16-9.2V609Z" transform="translate(-10.26 -10.82)"/><path class="e" d="M493.35,538.14l15.94-9.2v17.71l-15.94,9.21Zm47.83-9.9V510.52l-15.94,26.93-15.95-8.51,47.83-27.62V519Zm-23.92,22.67,8-13.46,8,4.25Zm-8,13.46,8-13.46v17.71Zm23.92-22.67,8,4.26-8,13.46Zm-39.86,14.16,15.94,8.51-15.94,26.92Zm47.83-9.9L557.12,519v35.44Zm-47.83,45.33,15.94-9.21V599.8L493.35,609Zm15.94,8.51,15.95-26.92-8-4.26,16-9.2-8,13.46,15.94,8.51V563.67l15.94-9.2v17.71Z" transform="translate(-10.26 -10.82)"/><path class="e" d="M429.57,645.83l15.94-9.21v17.72l-15.94,9.2Zm47.83-9.9V618.21l-15.94,26.92-15.95-8.51L493.35,609v17.71Zm-23.91,22.66,8-13.46,8,4.26Zm-8,13.46,8-13.46v17.72Zm23.92-22.66,8,4.25-8,13.47Zm-39.86,14.15,15.94,8.51L429.57,699Zm47.83-9.9,16-26.92v35.43ZM429.57,699l15.94-9.21v17.71l-15.94,9.21Zm15.94,8.5,15.95-26.92-8-4.25,15.94-9.2-8,13.45,15.94,8.51V671.36l16-9.21v17.72Z" transform="translate(-10.26 -10.82)"/><path class="e" d="M493.35,609l15.94-9.21v17.72l-15.94,9.2Zm47.83-9.9V581.39l-15.94,26.92-15.95-8.51,47.83-27.62V589.9Zm-23.92,22.66,8-13.46,8,4.26Zm-8,13.46,8-13.46v17.72Zm23.92-22.66,8,4.25-8,13.46Zm-39.86,14.15,15.94,8.51-15.94,26.92Zm47.83-9.9,15.94-26.92v35.43Zm-47.83,45.33,15.94-9.2v17.71l-15.94,9.21Zm15.94,8.51,15.95-26.92-8-4.25,16-9.21-8,13.46,15.94,8.51V634.54l15.94-9.21v17.72Z" transform="translate(-10.26 -10.82)"/><polygon class="d" points="419.31 564.14 291.75 490.5 291.75 632.23 419.31 705.88 419.31 564.14"/><path class="f" d="M429.57,575l-15.95-9.2v17.71l15.95,9.21Zm-47.83-9.9V547.35l15.94,26.92,15.94-8.51-47.83-27.62v17.72Zm23.91,22.67-8-13.46-8,4.25Zm8,13.46-8-13.46v17.71Zm-23.91-22.67-8,4.26,8,13.46Zm39.86,14.16-15.95,8.51,15.95,26.92Zm-47.83-9.9-15.95-26.92v35.43Zm47.83,45.33-15.95-9.21v17.72l15.95,9.21Zm-15.95,8.51L397.68,609.7l8-4.26-15.94-9.2,8,13.46-15.94,8.51V600.49l-15.95-9.2V609Z" transform="translate(-10.26 -10.82)"/><path class="f" d="M365.79,538.14l-15.94-9.2v17.71l15.94,9.21ZM318,528.24V510.53l15.94,26.92,16-8.51L302,501.32V519Zm23.92,22.67-8-13.46-8,4.25Zm8,13.46-8-13.46v17.71ZM325.93,541.7,318,546l8,13.46Zm39.86,14.16-15.94,8.51,15.94,26.92ZM318,546,302,519v35.44Zm47.83,45.33-15.94-9.21V599.8L365.79,609Zm-15.94,8.51-16-26.92,8-4.26-15.95-9.2,8,13.46L318,581.39V563.67L302,554.47v17.71Z" transform="translate(-10.26 -10.82)"/><path class="f" d="M429.57,645.83l-15.95-9.21v17.72l15.95,9.2Zm-47.83-9.9V618.21l15.94,26.92,15.94-8.51L365.79,609v17.71Zm23.91,22.66-8-13.46-8,4.26Zm8,13.46-8-13.46v17.72Zm-23.91-22.66-8,4.25,8,13.46Zm39.86,14.15-15.95,8.51L429.57,699Zm-47.83-9.9-15.95-26.92v35.43ZM429.57,699l-15.95-9.21v17.71l15.95,9.21Zm-15.95,8.5-15.94-26.92,8-4.25-15.94-9.21,8,13.46-15.94,8.51V671.36l-15.95-9.21v17.72Z" transform="translate(-10.26 -10.82)"/><path class="f" d="M365.79,609l-15.94-9.21v17.72l15.94,9.2ZM318,599.11V581.39l15.94,26.92,16-8.51L302,572.18V589.9Zm23.92,22.66-8-13.46-8,4.26Zm8,13.46-8-13.46v17.72Zm-23.92-22.66-8,4.25,8,13.46Zm39.86,14.15-15.94,8.51,15.94,26.92ZM318,616.82,302,589.9v35.43Zm47.83,45.33L349.85,653v17.71l15.94,9.21Zm-15.94,8.51-16-26.92,8-4.25-15.95-9.21,8,13.46L318,652.25V634.54L302,625.33v17.72Z" transform="translate(-10.26 -10.82)"/><polygon class="d" points="291.53 490.87 419.31 417.71 547.09 490.87 419.31 564.03 291.53 490.87"/><path class="g" d="M301.79,501.69l16-9.15,16,9.15-16,9.14Zm63.88-18.29-16-9.14v18.28H317.76l47.92-27.43,16,9.15Zm-16,18.29v-9.15h16Zm0,9.14v-9.14l16,9.14Zm16-18.29h16v9.15Zm-47.91,18.29H349.7v18.29Zm63.88-18.29V474.26l31.94,18.28ZM349.7,529.12l16-9.14,16,9.14-16,9.15Zm31.95,0V510.83h-16l16-9.14v9.14h31.94l-16-9.14,16-9.15,16,9.15Z" transform="translate(-10.26 -10.82)"/><path class="g" d="M365.68,465.11l16-9.15,16,9.15-16,9.14Zm63.88-18.29-16-9.14V456H381.65l47.91-27.43,16,9.15Zm-16,18.29V456h16Zm0,9.14v-9.14l16,9.14Zm16-18.28h16v9.15Zm-47.91,18.29h31.94v18.29ZM445.53,456V437.68L477.48,456Zm-31.94,36.58,16-9.14,16,9.14-16,9.15Zm32,0V474.25h-16l16-9.14v9.14h31.94l-16-9.14,16-9.15,16,9.15Z" transform="translate(-10.26 -10.82)"/><path class="g" d="M365.68,538.27l16-9.15,16,9.15-16,9.14ZM429.56,520l-16-9.15v18.29H381.65l47.91-27.43,16,9.14Zm-16,18.29v-9.15h16Zm0,9.14v-9.14l16,9.14Zm16-18.29h16v9.15Zm-47.91,18.29h31.94V565.7Zm63.88-18.29V510.83l31.94,18.29ZM413.59,565.7l16-9.14,16,9.14-16,9.15Zm32,0V547.41h-16l16-9.14v9.14h31.94l-16-9.14,16-9.15,16,9.15Z" transform="translate(-10.26 -10.82)"/><path class="g" d="M429.56,501.69l16-9.15,16,9.15-16,9.14Zm63.89-18.29-16-9.15v18.29H445.54l47.91-27.43,16,9.14Zm-16,18.29v-9.15h16Zm0,9.14v-9.14l16,9.14Zm16-18.28h16v9.15Zm-47.91,18.28h31.94v18.29Zm63.88-18.29V474.25l31.94,18.29Zm-31.94,36.58,16-9.14,16,9.14-16,9.15Zm31.94,0V510.83h-16l16-9.14v9.14h31.94l-16-9.14,16-9.15,16,9.15Z" transform="translate(-10.26 -10.82)"/></svg>