<svg xmlns="http://www.w3.org/2000/svg" xmlns:xlink="http://www.w3.org/1999/xlink" viewBox="0 0 612 792"><defs><style>.a,.d{fill:none;}.b{fill:#faf5e1;}.c{clip-path:url(#a);}.d{stroke:#d4d4d4;stroke-width:0.6px;}</style><clipPath id="a"><rect class="a" width="612" height="792"/></clipPath></defs><title>Yellow</title><rect class="b" width="612" height="792"/><g class="c"><line class="d" y1="21.56" x2="612" y2="21.56"/><line class="d" y1="42.82" x2="612" y2="42.82"/><line class="d" y1="64.08" x2="612" y2="64.08"/><line class="d" y1="85.34" x2="612" y2="85.34"/><line class="d" y1="106.6" x2="612" y2="106.6"/><line class="d" y1="127.86" x2="612" y2="127.86"/><line class="d" y1="149.12" x2="612" y2="149.12"/><line class="d" y1="170.38" x2="612" y2="170.38"/><line class="d" y1="191.64" x2="612" y2="191.64"/><line class="d" y1="212.9" x2="612" y2="212.9"/><line class="d" y1="234.16" x2="612" y2="234.16"/><line class="d" y1="255.42" x2="612" y2="255.42"/><line class="d" y1="276.68" x2="612" y2="276.68"/><line class="d" y1="297.94" x2="612" y2="297.94"/><line class="d" y1="319.2" x2="612" y2="319.2"/><line class="d" y1="340.46" x2="612" y2="340.46"/><line class="d" y1="361.72" x2="612" y2="361.72"/><line class="d" y1="382.98" x2="612" y2="382.98"/><line class="d" y1="404.24" x2="612" y2="404.24"/><line class="d" y1="425.5" x2="612" y2="425.5"/><line class="d" y1="446.76" x2="612" y2="446.76"/><line class="d" y1="468.02" x2="612" y2="468.02"/><line class="d" y1="489.28" x2="612" y2="489.28"/><line class="d" y1="510.54" x2="612" y2="510.54"/><line class="d" y1="531.8" x2="612" y2="531.8"/><line class="d" y1="553.06" x2="612" y2="553.06"/><line class="d" y1="574.32" x2="612" y2="574.32"/><line class="d" y1="595.58" x2="612" y2="595.58"/><line class="d" y1="616.84" x2="612" y2="616.84"/><line class="d" y1="638.1" x2="612" y2="638.1"/><line class="d" y1="659.36" x2="612" y2="659.36"/><line class="d" y1="680.62" x2="612" y2="680.62"/><line class="d" y1="701.88" x2="612" y2="701.88"/><line class="d" y1="723.14" x2="612" y2="723.14"/><line class="d" y1="744.4" x2="612" y2="744.4"/><line class="d" y1="765.66" x2="612" y2="765.66"/><line class="d" y1="786.92" x2="612" y2="786.92"/></g></svg>