<svg xmlns="http://www.w3.org/2000/svg" xmlns:xlink="http://www.w3.org/1999/xlink" viewBox="0 0 792 612"><defs><style>.a,.c,.d,.e{fill:none;}.b{fill:#faf5e1;}.c{stroke:#d4d4d4;}.c,.d,.e{stroke-width:0.6px;}.d{stroke:#2b2b2b;}.e{stroke:#303030;}.f{clip-path:url(#a);}</style><clipPath id="a" transform="translate(0)"><rect class="a" width="792" height="612"/></clipPath></defs><title>Yellow</title><rect class="b" width="792" height="612"/><line class="c" x1="721.43" y1="42.5" x2="721.43" y2="612"/><line class="c" x1="735.61" y1="42.5" x2="735.61" y2="612"/><line class="c" x1="749.78" y1="42.5" x2="749.78" y2="612"/><line class="c" x1="763.95" y1="42.5" x2="763.95" y2="612"/><line class="c" x1="778.13" y1="42.5" x2="778.13" y2="612"/><line class="c" x1="707.26" y1="42.5" x2="707.26" y2="612"/><line class="c" x1="693.09" y1="42.5" x2="693.09" y2="612"/><line class="c" x1="678.91" y1="42.5" x2="678.91" y2="612"/><path class="c" d="M792,14.17" transform="translate(0)"/><path class="c" d="M0,14.17" transform="translate(0)"/><path class="c" d="M792,28.35" transform="translate(0)"/><path class="c" d="M0,28.35" transform="translate(0)"/><line class="c" y1="42.52" x2="792" y2="42.52"/><line class="c" y1="56.69" x2="792" y2="56.69"/><line class="c" y1="70.87" x2="792" y2="70.87"/><line class="d" y1="85.04" x2="792" y2="85.04"/><line class="c" y1="99.21" x2="792" y2="99.21"/><line class="c" y1="113.39" x2="792" y2="113.39"/><line class="c" y1="127.56" x2="792" y2="127.56"/><line class="c" y1="141.73" x2="792" y2="141.73"/><line class="c" y1="155.91" x2="792" y2="155.91"/><line class="c" y1="170.08" x2="792" y2="170.08"/><line class="c" y1="184.25" x2="792" y2="184.25"/><line class="c" y1="198.43" x2="792" y2="198.43"/><line class="c" y1="212.6" x2="792" y2="212.6"/><line class="c" y1="226.77" x2="792" y2="226.77"/><line class="c" y1="240.94" x2="792" y2="240.94"/><line class="c" y1="255.12" x2="792" y2="255.12"/><line class="c" y1="269.29" x2="792" y2="269.29"/><line class="c" y1="283.46" x2="792" y2="283.46"/><line class="c" y1="297.64" x2="792" y2="297.64"/><line class="c" y1="311.81" x2="792" y2="311.81"/><line class="c" y1="325.98" x2="792" y2="325.98"/><line class="c" y1="340.16" x2="792" y2="340.16"/><line class="c" y1="354.33" x2="792" y2="354.33"/><line class="c" y1="368.5" x2="792" y2="368.5"/><line class="c" y1="382.68" x2="792" y2="382.68"/><line class="c" y1="396.85" x2="792" y2="396.85"/><line class="c" y1="411.02" x2="792" y2="411.02"/><line class="c" y1="425.2" x2="792" y2="425.2"/><line class="c" y1="439.37" x2="792" y2="439.37"/><line class="c" y1="453.54" x2="792" y2="453.54"/><line class="c" y1="467.72" x2="792" y2="467.72"/><line class="c" y1="481.89" x2="792" y2="481.89"/><line class="c" y1="496.06" x2="792" y2="496.06"/><line class="c" y1="510.24" x2="792" y2="510.24"/><line class="d" y1="524.41" x2="792" y2="524.41"/><line class="c" y1="538.58" x2="792" y2="538.58"/><line class="c" y1="552.76" x2="792" y2="552.76"/><line class="c" y1="566.93" x2="792" y2="566.93"/><line class="c" y1="581.1" x2="792" y2="581.1"/><line class="c" y1="595.28" x2="792" y2="595.28"/><line class="c" y1="609.45" x2="792" y2="609.45"/><line class="c" x1="650.57" y1="42.5" x2="650.57" y2="612"/><line class="c" x1="664.74" y1="42.5" x2="664.74" y2="612"/><line class="c" x1="636.39" y1="42.5" x2="636.39" y2="612"/><line class="c" x1="622.22" y1="42.5" x2="622.22" y2="612"/><line class="c" x1="608.05" y1="42.5" x2="608.05" y2="612"/><line class="c" x1="593.87" y1="42.5" x2="593.87" y2="612"/><line class="c" x1="579.7" y1="42.5" x2="579.7" y2="612"/><line class="c" x1="565.53" y1="42.5" x2="565.53" y2="612"/><line class="c" x1="551.36" y1="42.5" x2="551.36" y2="612"/><line class="c" x1="537.18" y1="42.5" x2="537.18" y2="612"/><line class="c" x1="523.01" y1="42.5" x2="523.01" y2="612"/><line class="c" x1="508.84" y1="42.5" x2="508.84" y2="612"/><line class="c" x1="494.66" y1="42.5" x2="494.66" y2="612"/><line class="c" x1="480.49" y1="42.5" x2="480.49" y2="612"/><line class="c" x1="466.32" y1="42.5" x2="466.32" y2="612"/><line class="c" x1="452.14" y1="42.5" x2="452.14" y2="612"/><line class="c" x1="437.97" y1="42.5" x2="437.97" y2="612"/><line class="c" x1="423.8" y1="42.5" x2="423.8" y2="612"/><line class="c" x1="409.62" y1="42.5" x2="409.62" y2="612"/><line class="c" x1="395.45" y1="42.5" x2="395.45" y2="612"/><line class="c" x1="381.28" y1="42.5" x2="381.28" y2="612"/><line class="c" x1="367.1" y1="42.5" x2="367.1" y2="612"/><line class="c" x1="352.93" y1="42.5" x2="352.93" y2="612"/><line class="c" x1="338.76" y1="42.5" x2="338.76" y2="612"/><line class="c" x1="324.58" y1="42.5" x2="324.58" y2="612"/><line class="c" x1="310.41" y1="42.5" x2="310.41" y2="612"/><line class="c" x1="296.24" y1="42.5" x2="296.24" y2="612"/><line class="c" x1="282.06" y1="42.5" x2="282.06" y2="612"/><line class="c" x1="267.89" y1="42.5" x2="267.89" y2="612"/><line class="c" x1="253.72" y1="42.5" x2="253.72" y2="612"/><line class="c" x1="239.54" y1="42.5" x2="239.54" y2="612"/><line class="c" x1="225.37" y1="42.5" x2="225.37" y2="612"/><line class="c" x1="211.2" y1="42.5" x2="211.2" y2="612"/><line class="c" x1="197.02" y1="42.5" x2="197.02" y2="612"/><line class="c" x1="182.85" y1="42.5" x2="182.85" y2="612"/><line class="c" x1="168.68" y1="42.5" x2="168.68" y2="612"/><line class="c" x1="140.33" y1="42.5" x2="140.33" y2="612"/><line class="c" x1="154.5" y1="42.5" x2="154.5" y2="612"/><line class="c" x1="126.16" y1="42.5" x2="126.16" y2="612"/><line class="c" x1="111.99" y1="42.5" x2="111.99" y2="612"/><line class="c" x1="97.81" y1="42.5" x2="97.81" y2="612"/><line class="c" x1="83.64" y1="42.5" x2="83.64" y2="612"/><line class="c" x1="69.47" y1="42.5" x2="69.47" y2="612"/><line class="c" x1="55.29" y1="42.5" x2="55.29" y2="612"/><line class="c" x1="41.12" y1="42.5" x2="41.12" y2="612"/><line class="c" x1="26.95" y1="42.5" x2="26.95" y2="612"/><line class="c" x1="12.77" y1="42.5" x2="12.77" y2="612"/><line class="e" y1="85.04" x2="792" y2="85.04"/><line class="e" x1="239.54" y1="85.34" x2="239.54" y2="524.71"/><g class="f"><line class="e" y1="524.41" x2="792" y2="524.41"/></g></svg>