<svg xmlns="http://www.w3.org/2000/svg" xmlns:xlink="http://www.w3.org/1999/xlink" viewBox="0 0 612 792"><defs><style>.a,.d{fill:none;}.b{fill:#faf5e1;}.c{clip-path:url(#a);}.d{stroke:#d4d4d4;stroke-width:0.6px;}</style><clipPath id="a"><rect class="a" width="612" height="792"/></clipPath></defs><title>Yellow</title><rect class="b" width="612" height="792"/><g class="c"><line class="d" x1="14.17" x2="14.17" y2="792"/><line class="d" x1="28.35" x2="28.35" y2="792"/><line class="d" x1="42.52" x2="42.52" y2="792"/><line class="d" x1="56.69" x2="56.69" y2="792"/><line class="d" x1="70.87" x2="70.87" y2="792"/><line class="d" x1="85.04" x2="85.04" y2="792"/><line class="d" x1="99.21" x2="99.21" y2="792"/><line class="d" x1="113.39" x2="113.39" y2="792"/><line class="d" x1="127.56" x2="127.56" y2="792"/><line class="d" x1="141.73" x2="141.73" y2="792"/><line class="d" x1="155.91" x2="155.91" y2="792"/><line class="d" x1="170.08" x2="170.08" y2="792"/><line class="d" x1="184.25" x2="184.25" y2="792"/><line class="d" x1="198.43" x2="198.43" y2="792"/><line class="d" x1="212.6" x2="212.6" y2="792"/><line class="d" x1="226.77" x2="226.77" y2="792"/><line class="d" x1="240.94" x2="240.94" y2="792"/><line class="d" x1="255.12" x2="255.12" y2="792"/><line class="d" x1="269.29" x2="269.29" y2="792"/><line class="d" x1="283.46" x2="283.46" y2="792"/><line class="d" x1="297.64" x2="297.64" y2="792"/><line class="d" x1="311.81" x2="311.81" y2="792"/><line class="d" x1="325.98" x2="325.98" y2="792"/><line class="d" x1="340.16" x2="340.16" y2="792"/><line class="d" x1="354.33" x2="354.33" y2="792"/><line class="d" x1="368.5" x2="368.5" y2="792"/><line class="d" x1="382.68" x2="382.68" y2="792"/><line class="d" x1="396.85" x2="396.85" y2="792"/><line class="d" x1="411.02" x2="411.02" y2="792"/><line class="d" x1="425.2" x2="425.2" y2="792"/><line class="d" x1="439.37" x2="439.37" y2="792"/><line class="d" x1="453.54" x2="453.54" y2="792"/><line class="d" x1="467.72" x2="467.72" y2="792"/><line class="d" x1="481.89" x2="481.89" y2="792"/><line class="d" x1="496.06" x2="496.06" y2="792"/><line class="d" x1="510.24" x2="510.24" y2="792"/><line class="d" x1="524.41" x2="524.41" y2="792"/><line class="d" x1="538.58" x2="538.58" y2="792"/><line class="d" x1="552.76" x2="552.76" y2="792"/><line class="d" x1="566.93" x2="566.93" y2="792"/><line class="d" x1="581.1" x2="581.1" y2="792"/><line class="d" x1="595.28" x2="595.28" y2="792"/><line class="d" x1="609.45" x2="609.45" y2="792"/><line class="d" y1="14.17" x2="612" y2="14.17"/><line class="d" y1="28.35" x2="612" y2="28.35"/><line class="d" y1="42.52" x2="612" y2="42.52"/><line class="d" y1="56.69" x2="612" y2="56.69"/><line class="d" y1="70.87" x2="612" y2="70.87"/><line class="d" y1="85.04" x2="612" y2="85.04"/><line class="d" y1="99.21" x2="612" y2="99.21"/><line class="d" y1="113.39" x2="612" y2="113.39"/><line class="d" y1="127.56" x2="612" y2="127.56"/><line class="d" y1="141.73" x2="612" y2="141.73"/><line class="d" y1="155.91" x2="612" y2="155.91"/><line class="d" y1="170.08" x2="612" y2="170.08"/><line class="d" y1="184.25" x2="612" y2="184.25"/><line class="d" y1="198.43" x2="612" y2="198.43"/><line class="d" y1="212.6" x2="612" y2="212.6"/><line class="d" y1="226.77" x2="612" y2="226.77"/><line class="d" y1="240.94" x2="612" y2="240.94"/><line class="d" y1="255.12" x2="612" y2="255.12"/><line class="d" y1="269.29" x2="612" y2="269.29"/><line class="d" y1="283.46" x2="612" y2="283.46"/><line class="d" y1="297.64" x2="612" y2="297.64"/><line class="d" y1="311.81" x2="612" y2="311.81"/><line class="d" y1="325.98" x2="612" y2="325.98"/><line class="d" y1="340.16" x2="612" y2="340.16"/><line class="d" y1="354.33" x2="612" y2="354.33"/><line class="d" y1="368.5" x2="612" y2="368.5"/><line class="d" y1="382.68" x2="612" y2="382.68"/><line class="d" y1="396.85" x2="612" y2="396.85"/><line class="d" y1="411.02" x2="612" y2="411.02"/><line class="d" y1="425.2" x2="612" y2="425.2"/><line class="d" y1="439.37" x2="612" y2="439.37"/><line class="d" y1="453.54" x2="612" y2="453.54"/><line class="d" y1="467.72" x2="612" y2="467.72"/><line class="d" y1="481.89" x2="612" y2="481.89"/><line class="d" y1="496.06" x2="612" y2="496.06"/><line class="d" y1="510.24" x2="612" y2="510.24"/><line class="d" y1="524.41" x2="612" y2="524.41"/><line class="d" y1="538.58" x2="612" y2="538.58"/><line class="d" y1="552.76" x2="612" y2="552.76"/><line class="d" y1="566.93" x2="612" y2="566.93"/><line class="d" y1="581.1" x2="612" y2="581.1"/><line class="d" y1="595.28" x2="612" y2="595.28"/><line class="d" y1="609.45" x2="612" y2="609.45"/><line class="d" y1="623.62" x2="612" y2="623.62"/><line class="d" y1="637.8" x2="612" y2="637.8"/><line class="d" y1="651.97" x2="612" y2="651.97"/><line class="d" y1="666.14" x2="612" y2="666.14"/><line class="d" y1="680.32" x2="612" y2="680.32"/><line class="d" y1="694.49" x2="612" y2="694.49"/><line class="d" y1="708.66" x2="612" y2="708.66"/><line class="d" y1="722.83" x2="612" y2="722.83"/><line class="d" y1="737.01" x2="612" y2="737.01"/><line class="d" y1="751.18" x2="612" y2="751.18"/><line class="d" y1="765.35" x2="612" y2="765.35"/><line class="d" y1="779.53" x2="612" y2="779.53"/></g></svg>