<svg xmlns="http://www.w3.org/2000/svg" xmlns:xlink="http://www.w3.org/1999/xlink" viewBox="0 0 613 793"><defs><style>.a,.d{fill:none;}.a,.b,.d{stroke:#424142;}.a,.b{stroke-miterlimit:10;}.b{fill:#333;}.c{clip-path:url(#a);}.d{stroke-width:0.6px;}</style><clipPath id="a" transform="translate(0.5 0.5)"><rect class="a" width="612" height="792"/></clipPath></defs><title>Black</title><rect class="b" x="0.5" y="0.5" width="612" height="792"/><g class="c"><line class="d" x1="0.5" y1="14.97" x2="612.5" y2="14.97"/><line class="d" x1="0.5" y1="29.15" x2="612.5" y2="29.15"/><line class="d" x1="0.5" y1="43.32" x2="612.5" y2="43.32"/><line class="d" x1="0.5" y1="57.49" x2="612.5" y2="57.49"/><line class="d" x1="0.5" y1="71.67" x2="612.5" y2="71.67"/><line class="d" x1="0.5" y1="85.84" x2="612.5" y2="85.84"/><line class="d" x1="0.5" y1="100.01" x2="612.5" y2="100.01"/><line class="d" x1="0.5" y1="114.19" x2="612.5" y2="114.19"/><line class="d" x1="0.5" y1="128.36" x2="612.5" y2="128.36"/><line class="d" x1="0.5" y1="142.53" x2="612.5" y2="142.53"/><line class="d" x1="0.5" y1="156.71" x2="612.5" y2="156.71"/><line class="d" x1="0.5" y1="170.88" x2="612.5" y2="170.88"/><line class="d" x1="0.5" y1="185.05" x2="612.5" y2="185.05"/><line class="d" x1="0.5" y1="199.23" x2="612.5" y2="199.23"/><line class="d" x1="0.5" y1="213.4" x2="612.5" y2="213.4"/><line class="d" x1="0.5" y1="227.57" x2="612.5" y2="227.57"/><line class="d" x1="0.5" y1="241.75" x2="612.5" y2="241.75"/><line class="d" x1="0.5" y1="255.92" x2="612.5" y2="255.92"/><line class="d" x1="0.5" y1="270.09" x2="612.5" y2="270.09"/><line class="d" x1="0.5" y1="284.27" x2="612.5" y2="284.27"/><line class="d" x1="0.5" y1="298.44" x2="612.5" y2="298.44"/><line class="d" x1="0.5" y1="312.61" x2="612.5" y2="312.61"/><line class="d" x1="0.5" y1="326.79" x2="612.5" y2="326.79"/><line class="d" x1="0.5" y1="340.96" x2="612.5" y2="340.96"/><line class="d" x1="0.5" y1="355.13" x2="612.5" y2="355.13"/><line class="d" x1="0.5" y1="369.3" x2="612.5" y2="369.3"/><line class="d" x1="0.5" y1="383.48" x2="612.5" y2="383.48"/><line class="d" x1="0.5" y1="397.65" x2="612.5" y2="397.65"/><line class="d" x1="0.5" y1="411.82" x2="612.5" y2="411.82"/><line class="d" x1="0.5" y1="426" x2="612.5" y2="426"/><line class="d" x1="0.5" y1="440.17" x2="612.5" y2="440.17"/><line class="d" x1="0.5" y1="454.34" x2="612.5" y2="454.34"/><line class="d" x1="0.5" y1="468.52" x2="612.5" y2="468.52"/><line class="d" x1="0.5" y1="482.69" x2="612.5" y2="482.69"/><line class="d" x1="0.5" y1="496.86" x2="612.5" y2="496.86"/><line class="d" x1="0.5" y1="511.04" x2="612.5" y2="511.04"/><line class="d" x1="0.5" y1="525.21" x2="612.5" y2="525.21"/><line class="d" x1="0.5" y1="539.38" x2="612.5" y2="539.38"/><line class="d" x1="0.5" y1="553.56" x2="612.5" y2="553.56"/><line class="d" x1="0.5" y1="567.73" x2="612.5" y2="567.73"/><line class="d" x1="0.5" y1="581.9" x2="612.5" y2="581.9"/><line class="d" x1="0.5" y1="596.08" x2="612.5" y2="596.08"/><line class="d" x1="0.5" y1="610.25" x2="612.5" y2="610.25"/><line class="d" x1="0.5" y1="624.42" x2="612.5" y2="624.42"/><line class="d" x1="0.5" y1="638.6" x2="612.5" y2="638.6"/><line class="d" x1="0.5" y1="652.77" x2="612.5" y2="652.77"/><line class="d" x1="0.5" y1="666.94" x2="612.5" y2="666.94"/><line class="d" x1="0.5" y1="681.12" x2="612.5" y2="681.12"/><line class="d" x1="0.5" y1="695.29" x2="612.5" y2="695.29"/><line class="d" x1="0.5" y1="709.46" x2="612.5" y2="709.46"/><line class="d" x1="0.5" y1="723.64" x2="612.5" y2="723.64"/><line class="d" x1="0.5" y1="737.81" x2="612.5" y2="737.81"/><line class="d" x1="0.5" y1="751.98" x2="612.5" y2="751.98"/><line class="d" x1="0.5" y1="766.16" x2="612.5" y2="766.16"/><line class="d" x1="0.5" y1="780.33" x2="612.5" y2="780.33"/></g><rect class="a" x="0.5" y="0.5" width="612" height="792"/></svg>