<svg xmlns="http://www.w3.org/2000/svg" xmlns:xlink="http://www.w3.org/1999/xlink" viewBox="0 0 868 1080"><defs><style>.a{fill:none;}.b{clip-path:url(#a);}.c{fill:#e5e5e5;}.d{fill:#82baa8;}.e{fill:#6c9c8d;}.f{fill:#ff7070;}.g{fill:#ff8052;}.h{fill:#fac2bf;}.i{fill:#41ad49;}.j{fill:#c2e3d9;}</style><clipPath id="a" transform="translate(-10.26 -10.7)"><rect class="a" x="10.26" y="10.7" width="868" height="1080"/></clipPath></defs><title>02 Flowers</title><g class="b"><path class="c" d="M848.26,1090.7h-64V11h64a30.08,30.08,0,0,1,30,30V1060.7a30.09,30.09,0,0,1-30,30" transform="translate(-10.26 -10.7)"/><path class="d" d="M817.76,1090.7H10.26V11h807.5a30.08,30.08,0,0,1,30,30V1060.7a30.09,30.09,0,0,1-30,30" transform="translate(-10.26 -10.7)"/></g><rect class="e" x="733.25" width="24" height="1080"/><g class="b"><path class="f" d="M192.77,334.74c61.46,15.5,139.43,73.42,174.2,126.43,16.71,25.5,36.49,82.62,15.84,111.14-22.25,30.76-82.16,12.64-112-2.15-83.93-41.71-60.8-159.92-78.08-235.42" transform="translate(-10.26 -10.7)"/><path class="g" d="M281,509.53c-16.83-84.14,10.2-154.22,39.46-228.33-2.33,5.88,96,119.39,108.92,132.33,56.18,56.16,64.18,108.66,52.52,165.18-11.69,56.72-86.93,108.86-140.8,51.3-35.83-38.25-50.61-73-60.1-120.48" transform="translate(-10.26 -10.7)"/><path class="h" d="M210.25,594.79C155.46,528.84,146,454.35,136.48,375.24c.74,6.28,141.19,59.43,158.72,64.67C371.32,462.63,403.3,505,419.9,560.22c16.65,55.46-24.77,137.07-99.51,112-49.7-16.64-79.24-40.23-110.14-77.46" transform="translate(-10.26 -10.7)"/><path class="h" d="M665.25,334.74c-61.47,15.5-139.44,73.42-174.2,126.43-16.71,25.5-36.5,82.62-15.84,111.14,22.25,30.76,82.16,12.64,112-2.15C671.1,528.45,648,410.24,665.25,334.74" transform="translate(-10.26 -10.7)"/><path class="f" d="M577.05,509.53c16.84-84.14-10.19-154.22-39.45-228.33,2.32,5.88-96,119.39-108.93,132.33-56.17,56.16-64.17,108.66-52.51,165.18C387.85,635.43,463.09,687.57,517,630c35.83-38.25,50.61-73,60.09-120.48" transform="translate(-10.26 -10.7)"/><path class="g" d="M647.77,594.79c54.79-65.95,64.29-140.44,73.76-219.55-.74,6.28-141.19,59.43-158.71,64.67C486.7,462.63,454.71,505,438.12,560.22c-16.66,55.46,24.76,137.07,99.51,112,49.7-16.64,79.24-40.23,110.14-77.46" transform="translate(-10.26 -10.7)"/><path class="i" d="M463.73,632.73l0,0H430.06v0H402.27c-26.31,0-47.64,17.35-47.64,38.75,0,0,.18,2.06.67,5.45.15.9.19,1.81.42,2.7,2.49,14.89,10.24,47.06,32.54,69.35.63.62,1.23,1.09,1.85,1.65,9.35,10.51,25.35,17.45,43.6,17.45a64.41,64.41,0,0,0,31.13-7.73,2.11,2.11,0,0,0,.36-.09c15.61-6.33,29-32.8,33.3-42.07.08-.17.15-.35.24-.53.77-1.68,1.21-2.73,1.21-2.73l-.09,0a159.46,159.46,0,0,0,10.39-35.32c.24-.92.27-1.9.44-2.84.46-3.17.63-5.06.65-5.25,0,0,0,0,0-.07h0c0-21.4-21.33-38.71-47.62-38.73" transform="translate(-10.26 -10.7)"/></g><rect class="i" x="417.1" y="711.65" width="11.25" height="368.35"/><g class="b"><path class="j" d="M797,82.71c-.32-4.2-10-5.41-21.18-2.73-9.28,2.24-17.21,3.92-19.64,4.22,2.43.13,10.3,1.21,19.81,2.77,11.28,1.9,21.16,0,21-4.26" transform="translate(-10.26 -10.7)"/><path class="j" d="M755.39,84.21h0Zm.74,0a2.4,2.4,0,0,0-.74,0s0,0,0,0l.05,0-.06,0h0a2.18,2.18,0,0,0,.37-.65,3,3,0,0,0-.37.6,3.9,3.9,0,0,0-.1-.67c0,.33,0,.54.06.66l0,.06s-.21-.25-.56-.54c.3.35.5.57.55.55s-.05,0-.05,0l0,0a3.76,3.76,0,0,0-.86-.09,4.24,4.24,0,0,0,.85.12h0a3.74,3.74,0,0,0-.72.45,3.26,3.26,0,0,0,.73-.42h0v0s0,0,0,0h0c-.06,0-.17.31-.31.78a2,2,0,0,0,.31-.75,3.8,3.8,0,0,0,.21.69,2.81,2.81,0,0,0-.18-.7,3,3,0,0,0,.58.41,2.8,2.8,0,0,0-.57-.43,2.49,2.49,0,0,0,.72,0" transform="translate(-10.26 -10.7)"/><path class="j" d="M770,99.06c7.88,8.49,16.57,12.86,19.15,9.49S784.42,98.07,774,93.36c-8.82-4-15.94-7.45-18-8.69,1.86,1.61,7.53,7.43,14,14.39" transform="translate(-10.26 -10.7)"/><path class="j" d="M767.05,124.12c4.09-1.18,2.81-11-2.58-21.23-4.43-8.43-8-15.63-8.89-17.93.5,2.39,1.36,10.23,2.2,19.86,1,11.39,5.24,20.64,9.27,19.3" transform="translate(-10.26 -10.7)"/><path class="j" d="M740.08,123c4,1.38,9-7,11-18.37,1.65-9.33,3.27-17.19,4-19.58-1.13,2.21-5.3,9-10.44,17-6.26,9.65-8.42,19.32-4.54,21" transform="translate(-10.26 -10.7)"/><path class="j" d="M719.59,105.42c2,3.76,11.5-.11,20-7.76,7.09-6.43,13-11.49,15-13-2.35,1.11-9.78,3.92-18.62,7-11,3.82-18.56,10.09-16.38,13.77" transform="translate(-10.26 -10.7)"/><path class="j" d="M714.08,79c-.51,4.26,9,7,20.53,6.11,9.33-.7,17.29-1.1,19.86-1-2.48-.55-9.89-2.85-19-5.9-10.79-3.66-21-3.45-21.43.79" transform="translate(-10.26 -10.7)"/><path class="j" d="M725.92,54.75c-2.88,3.07,2.94,11.09,12.49,17.43,8,5.31,14.53,9.92,16.39,11.47-1.55-1.87-6.2-8.48-11.46-16.43C737,57.62,729,51.87,725.92,54.75" transform="translate(-10.26 -10.7)"/><path class="j" d="M756.29,63.47c.86-11.55-1.87-21-6.08-20.5-4.23.37-4.47,10.57-.83,21.4,3.06,9.19,5.39,16.71,5.9,19.1-.09-2.46.3-10.5,1-20" transform="translate(-10.26 -10.7)"/><path class="j" d="M776.64,48.47c-3.69-2.07-9.93,5.4-13.8,16.33-3.13,8.93-6,16.52-7.09,18.74,1.42-2,6.59-8,13.07-15.12,7.69-8.46,11.47-17.85,7.82-20" transform="translate(-10.26 -10.7)"/><path class="j" d="M756.82,83.7c-.48.22-.8.39-.74.43s.33-.15.74-.43" transform="translate(-10.26 -10.7)"/><path class="j" d="M756.82,83.7c2.25-1,9.83-3.79,18.85-6.81,10.9-3.66,18.48-9.81,16.52-13.55-2.12-3.67-11.52-.06-20.1,7.53-7.2,6.35-13.27,11.43-15.27,12.83" transform="translate(-10.26 -10.7)"/><path class="i" d="M618.42,850.77c-.24-3.15-7.5-4.06-15.88-2-7,1.67-12.91,2.93-14.73,3.16,1.82.09,7.72.91,14.85,2.07,8.46,1.43,15.87,0,15.76-3.19" transform="translate(-10.26 -10.7)"/><path class="i" d="M587.25,851.9h0Zm.56,0a1.74,1.74,0,0,0-.56,0h0l0,0,0,0h0a1.73,1.73,0,0,0,.28-.49,3.32,3.32,0,0,0-.28.45,2.93,2.93,0,0,0-.07-.5c0,.25,0,.41,0,.49l0,0s-.16-.19-.42-.4c.22.26.37.42.41.41l0,0,0,0a2.16,2.16,0,0,0-.65-.07,2.93,2.93,0,0,0,.64.09h0a2.89,2.89,0,0,0-.54.33,2.28,2.28,0,0,0,.55-.31h0s-.13.23-.24.58a1.54,1.54,0,0,0,.24-.56,2.12,2.12,0,0,0,.16.51,2.28,2.28,0,0,0-.14-.52,2.12,2.12,0,0,0,.44.31,2.12,2.12,0,0,0-.44-.31,1.86,1.86,0,0,0,.54,0" transform="translate(-10.26 -10.7)"/><path class="i" d="M598.18,863c5.91,6.37,12.43,9.65,14.36,7.12s-3.52-7.86-11.33-11.39c-6.61-3-12-5.59-13.51-6.52,1.39,1.21,5.64,5.57,10.48,10.79" transform="translate(-10.26 -10.7)"/><path class="i" d="M596,881.82c3.07-.88,2.11-8.21-1.94-15.92-3.32-6.32-6-11.72-6.66-13.45.37,1.8,1,7.68,1.64,14.9.74,8.54,3.94,15.48,7,14.47" transform="translate(-10.26 -10.7)"/><path class="i" d="M575.77,881c3,1,6.74-5.28,8.25-13.77,1.24-7,2.45-12.89,3-14.68-.84,1.65-4,6.75-7.83,12.71-4.69,7.24-6.31,14.49-3.4,15.74" transform="translate(-10.26 -10.7)"/><path class="i" d="M560.4,867.8c1.51,2.82,8.63-.08,15-5.82,5.32-4.82,9.72-8.61,11.28-9.74-1.76.84-7.33,3-14,5.24-8.22,2.86-13.92,7.56-12.29,10.32" transform="translate(-10.26 -10.7)"/><path class="i" d="M556.27,848c-.38,3.19,6.72,5.22,15.39,4.58,7-.53,13-.82,14.9-.75-1.86-.41-7.42-2.14-14.22-4.43-8.09-2.74-15.79-2.58-16.07.6" transform="translate(-10.26 -10.7)"/><path class="i" d="M565.15,829.8c-2.16,2.3,2.21,8.32,9.36,13.07,6,4,10.91,7.44,12.3,8.61-1.16-1.41-4.65-6.37-8.6-12.33-4.77-7.2-10.72-11.51-13.06-9.35" transform="translate(-10.26 -10.7)"/><path class="i" d="M587.92,836.34c.65-8.66-1.4-15.79-4.55-15.38s-3.35,7.93-.63,16c2.3,6.9,4,12.54,4.43,14.33-.07-1.85.22-7.87.75-15" transform="translate(-10.26 -10.7)"/><path class="i" d="M603.19,825.09c-2.77-1.55-7.45,4-10.35,12.25-2.35,6.69-4.52,12.39-5.32,14,1.07-1.47,4.94-6,9.8-11.34,5.77-6.35,8.61-13.38,5.87-15" transform="translate(-10.26 -10.7)"/><path class="i" d="M588.33,851.51c-.36.17-.6.29-.56.32s.25-.11.56-.32" transform="translate(-10.26 -10.7)"/><path class="i" d="M588.33,851.51c1.68-.76,7.37-2.84,14.13-5.11,8.18-2.74,13.86-7.36,12.39-10.16s-8.64,0-15.07,5.65c-5.4,4.76-9.95,8.57-11.45,9.62" transform="translate(-10.26 -10.7)"/><path class="i" d="M159.7,614.08c-.16-2.1-5-2.71-10.59-1.36-4.64,1.11-8.6,1.95-9.82,2.11,1.21.06,5.15.6,9.91,1.38,5.64.95,10.57,0,10.5-2.13" transform="translate(-10.26 -10.7)"/><path class="i" d="M138.92,614.83Zm.37,0a1,1,0,0,0-.37,0h0l0,0h0a1.29,1.29,0,0,0,.18-.33,1.27,1.27,0,0,0-.18.3,2.94,2.94,0,0,0,0-.33,1.73,1.73,0,0,0,0,.33.1.1,0,0,1,0,0s-.11-.13-.28-.27a1.35,1.35,0,0,0,.27.28l0,0,0,0a1.3,1.3,0,0,0-.43-.05,1.55,1.55,0,0,0,.43.06h0a2.42,2.42,0,0,0-.36.22,2.06,2.06,0,0,0,.37-.21h0s-.08.15-.16.39c.12-.21.18-.36.16-.38a2.28,2.28,0,0,0,.11.34,3.1,3.1,0,0,0-.09-.35,1.16,1.16,0,0,0,.29.21,1.48,1.48,0,0,0-.29-.22,1.1,1.1,0,0,0,.36,0" transform="translate(-10.26 -10.7)"/><path class="i" d="M146.21,622.25c3.94,4.25,8.28,6.43,9.57,4.75s-2.35-5.24-7.56-7.6c-4.4-2-8-3.72-9-4.34.93.81,3.76,3.72,7,7.19" transform="translate(-10.26 -10.7)"/><path class="i" d="M144.75,634.78c2.05-.59,1.41-5.48-1.29-10.61-2.22-4.22-4-7.82-4.44-9,.24,1.2.67,5.12,1.09,9.93.49,5.7,2.63,10.32,4.64,9.65" transform="translate(-10.26 -10.7)"/><path class="i" d="M131.26,634.21c2,.69,4.5-3.53,5.51-9.18.82-4.67,1.63-8.6,2-9.79-.56,1.1-2.64,4.5-5.22,8.47-3.13,4.83-4.21,9.66-2.27,10.5" transform="translate(-10.26 -10.7)"/><path class="i" d="M121,625.43c1,1.88,5.75,0,10-3.88,3.54-3.21,6.48-5.74,7.52-6.49-1.18.56-4.89,2-9.31,3.49-5.48,1.91-9.28,5-8.19,6.88" transform="translate(-10.26 -10.7)"/><path class="i" d="M118.27,612.22c-.26,2.13,4.48,3.49,10.26,3.06,4.67-.35,8.64-.55,9.93-.5-1.24-.27-4.94-1.42-9.48-2.95-5.39-1.83-10.53-1.73-10.71.39" transform="translate(-10.26 -10.7)"/><path class="i" d="M124.19,600.1c-1.44,1.54,1.47,5.54,6.24,8.72,4,2.65,7.27,5,8.2,5.73-.78-.93-3.11-4.24-5.74-8.22-3.18-4.8-7.14-7.67-8.7-6.23" transform="translate(-10.26 -10.7)"/><path class="i" d="M139.37,604.46c.43-5.77-.94-10.53-3-10.25s-2.23,5.28-.42,10.7c1.54,4.59,2.7,8.36,3,9.55-.05-1.23.15-5.25.5-10" transform="translate(-10.26 -10.7)"/><path class="i" d="M149.55,597c-1.85-1-5,2.7-6.9,8.17-1.57,4.46-3,8.26-3.55,9.36.71-1,3.3-4,6.53-7.55,3.85-4.24,5.74-8.93,3.92-10" transform="translate(-10.26 -10.7)"/><path class="i" d="M139.64,614.57c-.24.11-.4.2-.38.22s.17-.07.38-.22" transform="translate(-10.26 -10.7)"/><path class="i" d="M139.64,614.57c1.12-.51,4.91-1.89,9.42-3.4,5.45-1.83,9.24-4.91,8.26-6.78s-5.76,0-10,3.77c-3.6,3.17-6.63,5.71-7.63,6.41" transform="translate(-10.26 -10.7)"/></g></svg>