<svg xmlns="http://www.w3.org/2000/svg" xmlns:xlink="http://www.w3.org/1999/xlink" viewBox="0 0 612 792"><defs><style>.a,.d{fill:none;}.b{fill:#faf5e1;}.c{clip-path:url(#a);}.d{stroke:#d4d4d4;stroke-width:0.6px;}</style><clipPath id="a"><rect class="a" width="612" height="792"/></clipPath></defs><title>Yellow</title><rect class="b" width="612" height="792"/><g class="c"><line class="d" y1="14.47" x2="612" y2="14.47"/><line class="d" y1="28.65" x2="612" y2="28.65"/><line class="d" y1="42.82" x2="612" y2="42.82"/><line class="d" y1="56.99" x2="612" y2="56.99"/><line class="d" y1="71.17" x2="612" y2="71.17"/><line class="d" y1="85.34" x2="612" y2="85.34"/><line class="d" y1="99.51" x2="612" y2="99.51"/><line class="d" y1="113.69" x2="612" y2="113.69"/><line class="d" y1="127.86" x2="612" y2="127.86"/><line class="d" y1="142.03" x2="612" y2="142.03"/><line class="d" y1="156.21" x2="612" y2="156.21"/><line class="d" y1="170.38" x2="612" y2="170.38"/><line class="d" y1="184.55" x2="612" y2="184.55"/><line class="d" y1="198.73" x2="612" y2="198.73"/><line class="d" y1="212.9" x2="612" y2="212.9"/><line class="d" y1="227.07" x2="612" y2="227.07"/><line class="d" y1="241.25" x2="612" y2="241.25"/><line class="d" y1="255.42" x2="612" y2="255.42"/><line class="d" y1="269.59" x2="612" y2="269.59"/><line class="d" y1="283.77" x2="612" y2="283.77"/><line class="d" y1="297.94" x2="612" y2="297.94"/><line class="d" y1="312.11" x2="612" y2="312.11"/><line class="d" y1="326.29" x2="612" y2="326.29"/><line class="d" y1="340.46" x2="612" y2="340.46"/><line class="d" y1="354.63" x2="612" y2="354.63"/><line class="d" y1="368.8" x2="612" y2="368.8"/><line class="d" y1="382.98" x2="612" y2="382.98"/><line class="d" y1="397.15" x2="612" y2="397.15"/><line class="d" y1="411.32" x2="612" y2="411.32"/><line class="d" y1="425.5" x2="612" y2="425.5"/><line class="d" y1="439.67" x2="612" y2="439.67"/><line class="d" y1="453.84" x2="612" y2="453.84"/><line class="d" y1="468.02" x2="612" y2="468.02"/><line class="d" y1="482.19" x2="612" y2="482.19"/><line class="d" y1="496.36" x2="612" y2="496.36"/><line class="d" y1="510.54" x2="612" y2="510.54"/><line class="d" y1="524.71" x2="612" y2="524.71"/><line class="d" y1="538.88" x2="612" y2="538.88"/><line class="d" y1="553.06" x2="612" y2="553.06"/><line class="d" y1="567.23" x2="612" y2="567.23"/><line class="d" y1="581.4" x2="612" y2="581.4"/><line class="d" y1="595.58" x2="612" y2="595.58"/><line class="d" y1="609.75" x2="612" y2="609.75"/><line class="d" y1="623.92" x2="612" y2="623.92"/><line class="d" y1="638.1" x2="612" y2="638.1"/><line class="d" y1="652.27" x2="612" y2="652.27"/><line class="d" y1="666.44" x2="612" y2="666.44"/><line class="d" y1="680.62" x2="612" y2="680.62"/><line class="d" y1="694.79" x2="612" y2="694.79"/><line class="d" y1="708.96" x2="612" y2="708.96"/><line class="d" y1="723.14" x2="612" y2="723.14"/><line class="d" y1="737.31" x2="612" y2="737.31"/><line class="d" y1="751.48" x2="612" y2="751.48"/><line class="d" y1="765.66" x2="612" y2="765.66"/><line class="d" y1="779.83" x2="612" y2="779.83"/></g></svg>