<svg xmlns="http://www.w3.org/2000/svg" xmlns:xlink="http://www.w3.org/1999/xlink" viewBox="0 0 869.25 1079.75"><defs><style>.a{fill:none;}.b{clip-path:url(#a);}.c{fill:#e5e5e5;}.d{fill:#25408f;}.e{clip-path:url(#b);}.f{fill:#ff8052;}.g{fill:#c7d190;}.h{fill:#6d8b83;}</style><clipPath id="a"><rect class="a" x="0.76" y="0.07" width="868" height="1079.75"/></clipPath><clipPath id="b"><path class="a" d="M.76.07V1079.82h807.5a30.09,30.09,0,0,0,30-30V30.06a30.09,30.09,0,0,0-30-30Z"/></clipPath></defs><title>05 Cubes</title><g class="b"><path class="c" d="M838.76,1079.82h-64V.07h64a30.09,30.09,0,0,1,30,30V1049.83a30.09,30.09,0,0,1-30,30"/><path class="d" d="M808.26,1079.82H.76V.07h807.5a30.09,30.09,0,0,1,30,30V1049.83a30.09,30.09,0,0,1-30,30"/></g><g class="e"><polygon class="f" points="140.98 688.3 268.26 761.46 395.54 688.3 269.55 614.14 140.98 688.3"/><polygon class="g" points="268.84 903.39 396.39 829.74 396.39 688.01 268.84 761.66 268.84 903.39"/><polygon class="h" points="268.84 903.39 141.28 829.74 141.28 688.01 268.84 761.65 268.84 903.39"/><polygon class="g" points="13.29 902.73 140.57 975.89 267.85 902.73 141.85 828.57 13.29 902.73"/><polygon class="h" points="141.14 1117.82 268.7 1044.17 268.7 902.44 141.14 976.09 141.14 1117.82"/><polygon class="f" points="141.14 1117.82 13.58 1044.17 13.58 902.44 141.14 976.09 141.14 1117.82"/><polygon class="g" points="268.41 473.57 395.69 546.73 522.97 473.56 396.97 399.41 268.41 473.57"/><polygon class="f" points="396.26 688.66 523.82 615.01 523.82 473.28 396.26 546.92 396.26 688.66"/><polygon class="h" points="396.26 688.65 268.7 615.01 268.7 473.28 396.26 546.92 396.26 688.65"/><polygon class="f" points="128.45 250.96 255.73 324.12 383.01 250.96 257.01 176.8 128.45 250.96"/><polygon class="g" points="256.31 466.05 383.86 392.4 383.86 250.67 256.31 324.32 256.31 466.05"/><polygon class="h" points="256.31 466.05 128.75 392.4 128.75 250.67 256.31 324.32 256.31 466.05"/><polygon class="g" points="0.76 465.39 128.04 538.55 255.32 465.39 129.32 391.24 0.76 465.39"/><polygon class="h" points="128.61 680.48 256.17 606.84 256.17 465.11 128.61 538.75 128.61 680.48"/><polygon class="f" points="128.61 680.48 1.05 606.84 1.05 465.1 128.61 538.75 128.61 680.48"/><polygon class="g" points="255.88 36.23 383.15 109.39 510.44 36.23 384.44 -37.93 255.88 36.23"/><polygon class="f" points="383.73 251.32 511.29 177.67 511.29 35.94 383.73 109.59 383.73 251.32"/><polygon class="h" points="383.73 251.32 256.17 177.67 256.17 35.94 383.73 109.58 383.73 251.32"/></g></svg>