<svg xmlns="http://www.w3.org/2000/svg" xmlns:xlink="http://www.w3.org/1999/xlink" viewBox="0 0 613.88 793.3"><defs><style>.a,.d,.e{fill:none;}.a,.e{stroke:#424142;}.a{stroke-miterlimit:10;}.b{fill:#333;}.c{clip-path:url(#a);}.d{stroke:#2b2b2b;}.d,.e{stroke-width:0.6px;}</style><clipPath id="a" transform="translate(0.94 0.65)"><rect class="a" x="-0.44" y="-0.15" width="612.88" height="792.3"/></clipPath></defs><title>Black</title><rect class="b" x="0.8" y="0.8" width="612" height="792"/><g class="c"><line class="d" x1="0.8" y1="0.8" x2="612.8" y2="0.8"/><line class="e" x1="0.8" y1="17.81" x2="612.8" y2="17.81"/><line class="e" x1="0.8" y1="34.82" x2="612.8" y2="34.82"/><line class="e" x1="0.8" y1="51.82" x2="612.8" y2="51.82"/><line class="e" x1="0.8" y1="68.83" x2="612.8" y2="68.83"/><line class="e" x1="0.8" y1="85.84" x2="612.8" y2="85.84"/><line class="e" x1="0.8" y1="102.85" x2="612.8" y2="102.85"/><line class="e" x1="0.8" y1="119.86" x2="612.8" y2="119.86"/><line class="e" x1="0.8" y1="136.86" x2="612.8" y2="136.86"/><line class="e" x1="0.8" y1="153.87" x2="612.8" y2="153.87"/><line class="e" x1="0.8" y1="170.88" x2="612.8" y2="170.88"/><line class="e" x1="0.8" y1="187.89" x2="612.8" y2="187.89"/><line class="e" x1="0.8" y1="204.89" x2="612.8" y2="204.89"/><line class="e" x1="0.8" y1="221.9" x2="612.8" y2="221.9"/><line class="e" x1="0.8" y1="238.91" x2="612.8" y2="238.91"/><line class="e" x1="0.8" y1="255.92" x2="612.8" y2="255.92"/><line class="e" x1="0.8" y1="272.93" x2="612.8" y2="272.93"/><line class="e" x1="0.8" y1="289.93" x2="612.8" y2="289.93"/><line class="e" x1="0.8" y1="306.94" x2="612.8" y2="306.94"/><line class="e" x1="0.8" y1="323.95" x2="612.8" y2="323.95"/><line class="e" x1="0.8" y1="340.96" x2="612.8" y2="340.96"/><line class="e" x1="0.8" y1="357.97" x2="612.8" y2="357.97"/><line class="e" x1="0.8" y1="374.97" x2="612.8" y2="374.97"/><line class="e" x1="0.8" y1="391.98" x2="612.8" y2="391.98"/><line class="e" x1="0.8" y1="408.99" x2="612.8" y2="408.99"/><line class="e" x1="0.8" y1="426" x2="612.8" y2="426"/><line class="e" x1="0.8" y1="443" x2="612.8" y2="443"/><line class="e" x1="0.8" y1="460.01" x2="612.8" y2="460.01"/><line class="e" x1="0.8" y1="477.02" x2="612.8" y2="477.02"/><line class="e" x1="0.8" y1="494.03" x2="612.8" y2="494.03"/><line class="e" x1="0.8" y1="511.04" x2="612.8" y2="511.04"/><line class="e" x1="0.8" y1="528.04" x2="612.8" y2="528.04"/><line class="e" x1="0.8" y1="545.05" x2="612.8" y2="545.05"/><line class="e" x1="0.8" y1="562.06" x2="612.8" y2="562.06"/><line class="e" x1="0.8" y1="579.07" x2="612.8" y2="579.07"/><line class="e" x1="0.8" y1="596.08" x2="612.8" y2="596.08"/><line class="e" x1="0.8" y1="613.08" x2="612.8" y2="613.08"/><line class="e" x1="0.8" y1="630.09" x2="612.8" y2="630.09"/><line class="e" x1="0.8" y1="647.1" x2="612.8" y2="647.1"/><line class="e" x1="0.8" y1="664.11" x2="612.8" y2="664.11"/><line class="e" x1="0.8" y1="681.11" x2="612.8" y2="681.11"/><line class="e" x1="0.8" y1="698.12" x2="612.8" y2="698.12"/><line class="e" x1="0.8" y1="715.13" x2="612.8" y2="715.13"/><line class="e" x1="0.8" y1="732.14" x2="612.8" y2="732.14"/><line class="e" x1="0.8" y1="749.15" x2="612.8" y2="749.15"/><line class="e" x1="0.8" y1="766.15" x2="612.8" y2="766.15"/><line class="e" x1="0.8" y1="783.16" x2="612.8" y2="783.16"/><line class="e" x1="0.8" y1="0.8" x2="0.8" y2="792.8"/><line class="e" x1="17.81" y1="0.8" x2="17.81" y2="792.8"/><line class="e" x1="34.82" y1="0.8" x2="34.82" y2="792.8"/><line class="e" x1="51.82" y1="0.8" x2="51.82" y2="792.8"/><line class="e" x1="68.83" y1="0.8" x2="68.83" y2="792.8"/><line class="e" x1="85.84" y1="0.8" x2="85.84" y2="792.8"/><line class="e" x1="102.85" y1="0.8" x2="102.85" y2="792.8"/><line class="e" x1="119.86" y1="0.8" x2="119.86" y2="792.8"/><line class="e" x1="136.86" y1="0.8" x2="136.86" y2="792.8"/><line class="e" x1="153.87" y1="0.8" x2="153.87" y2="792.8"/><line class="e" x1="170.88" y1="0.8" x2="170.88" y2="792.8"/><line class="e" x1="187.89" y1="0.8" x2="187.89" y2="792.8"/><line class="e" x1="204.89" y1="0.8" x2="204.89" y2="792.8"/><line class="e" x1="221.9" y1="0.8" x2="221.9" y2="792.8"/><line class="e" x1="238.91" y1="0.8" x2="238.91" y2="792.8"/><line class="e" x1="255.92" y1="0.8" x2="255.92" y2="792.8"/><line class="e" x1="272.93" y1="0.8" x2="272.93" y2="792.8"/><line class="e" x1="289.93" y1="0.8" x2="289.93" y2="792.8"/><line class="e" x1="306.94" y1="0.8" x2="306.94" y2="792.8"/><line class="e" x1="323.95" y1="0.8" x2="323.95" y2="792.8"/><line class="e" x1="340.96" y1="0.8" x2="340.96" y2="792.8"/><line class="e" x1="357.97" y1="0.8" x2="357.97" y2="792.8"/><line class="e" x1="374.97" y1="0.8" x2="374.97" y2="792.8"/><line class="e" x1="391.98" y1="0.8" x2="391.98" y2="792.8"/><line class="e" x1="408.99" y1="0.8" x2="408.99" y2="792.8"/><line class="e" x1="426" y1="0.8" x2="426" y2="792.8"/><line class="e" x1="443" y1="0.8" x2="443" y2="792.8"/><line class="e" x1="460.01" y1="0.8" x2="460.01" y2="792.8"/><line class="e" x1="477.02" y1="0.8" x2="477.02" y2="792.8"/><line class="e" x1="494.03" y1="0.8" x2="494.03" y2="792.8"/><line class="e" x1="511.04" y1="0.8" x2="511.04" y2="792.8"/><line class="e" x1="528.04" y1="0.8" x2="528.04" y2="792.8"/><line class="e" x1="545.05" y1="0.8" x2="545.05" y2="792.8"/><line class="e" x1="562.06" y1="0.8" x2="562.06" y2="792.8"/><line class="e" x1="579.07" y1="0.8" x2="579.07" y2="792.8"/><line class="e" x1="596.08" y1="0.8" x2="596.08" y2="792.8"/><line class="e" x1="613.08" y1="0.8" x2="613.08" y2="792.8"/></g><rect class="a" x="0.5" y="0.5" width="612.88" height="792.3"/></svg>