<svg xmlns="http://www.w3.org/2000/svg" xmlns:xlink="http://www.w3.org/1999/xlink" viewBox="0 0 867.67 1080.46"><defs><style>.a{fill:none;}.b{clip-path:url(#a);}.c{fill:#e5e5e5;}.d{fill:#f1f4b1;}.e{clip-path:url(#b);}.f{fill:#41ad49;}.g{fill:#d9e021;}.h{fill:#8fa321;}.i{fill:#bdd13b;}</style><clipPath id="a"><rect class="a" x="-0.18" y="0.63" width="868" height="1080"/></clipPath><clipPath id="b"><path class="a" d="M-.18.88V1080.63h807.5a30.09,30.09,0,0,0,30-30V30.87a30.09,30.09,0,0,0-30-30Z"/></clipPath></defs><title>09 Flowers</title><g class="b"><path class="c" d="M837.82,1080.63h-64V.88h64a30.09,30.09,0,0,1,30,30V1050.64a30.09,30.09,0,0,1-30,30"/><path class="d" d="M807.32,1080.63H-.18V.88h807.5a30.09,30.09,0,0,1,30,30V1050.64a30.09,30.09,0,0,1-30,30"/></g><g class="e"><path class="f" d="M143.8,1029.65c-.67-8.82-21-11.36-44.49-5.72-19.47,4.69-36.12,8.21-41.24,8.86,5.1.26,21.63,2.54,41.61,5.8,23.68,4,44.44-.06,44.12-8.94"/><path class="f" d="M56.51,1032.81h0Zm1.56,0a5.15,5.15,0,0,0-1.56,0s0,0,0,0,.12-.07.11-.08l-.12,0v0a5.33,5.33,0,0,0,.78-1.37,5.31,5.31,0,0,0-.78,1.27,8.25,8.25,0,0,0-.22-1.41,8.75,8.75,0,0,0,.14,1.37s0,.12,0,.14-.44-.54-1.16-1.13c.62.73,1.05,1.19,1.14,1.16s-.09-.08-.11-.06l.08.06a6.41,6.41,0,0,0-1.8-.2,7.47,7.47,0,0,0,1.78.25h-.06s0,0,0,0a7.94,7.94,0,0,0-1.51.94,7.58,7.58,0,0,0,1.54-.87h0l0,0s0,0,.05,0h0a4.47,4.47,0,0,0-.64,1.64,4.7,4.7,0,0,0,.66-1.59,7.32,7.32,0,0,0,.45,1.45,6,6,0,0,0-.4-1.46,6.59,6.59,0,0,0,1.23.86,6,6,0,0,0-1.2-.91,5.28,5.28,0,0,0,1.51-.07"/><path class="f" d="M87.12,1064c16.56,17.84,34.81,27,40.22,19.93,5.26-7.12-9.86-22-31.75-31.91-18.51-8.4-33.45-15.63-37.83-18.24,3.89,3.39,15.81,15.61,29.36,30.22"/><path class="f" d="M81,1116.61c8.59-2.47,5.9-23-5.42-44.59-9.31-17.69-16.76-32.82-18.64-37.65,1,5,2.83,21.48,4.59,41.71,2,23.93,11,43.35,19.47,40.53"/><path class="f" d="M24.36,1114.2c8.39,2.9,18.89-14.8,23.12-38.57,3.47-19.61,6.87-36.11,8.34-41.12-2.37,4.64-11.11,18.91-21.93,35.6-13.13,20.27-17.69,40.59-9.53,44.09"/><path class="f" d="M-18.67,1077.34c4.22,7.9,24.17-.23,41.91-16.3,14.9-13.51,27.22-24.12,31.6-27.26-4.94,2.34-20.54,8.24-39.1,14.66-23,8-39,21.17-34.41,28.9"/><path class="f" d="M-30.23,1021.86c-1.07,8.94,18.81,14.64,43.11,12.83,19.61-1.47,36.3-2.3,41.72-2.1-5.23-1.15-20.79-6-39.83-12.39-22.66-7.7-44.22-7.24-45,1.66"/><path class="f" d="M-5.37,970.93c-6,6.45,6.17,23.29,26.23,36.61,16.73,11.15,30.52,20.84,34.43,24.09-3.27-3.93-13-17.81-24.08-34.51C17.83,977,1.18,964.89-5.37,970.93"/><path class="f" d="M58.41,989.25C60.19,965,54.47,945,45.65,946.19c-8.9.78-9.39,22.19-1.76,44.94,6.44,19.3,11.33,35.1,12.39,40.12-.18-5.18.63-22,2.13-42"/><path class="f" d="M101.15,957.75c-7.76-4.35-20.87,11.33-29,34.3-6.58,18.73-12.67,34.69-14.89,39.34,3-4.12,13.83-16.7,27.44-31.75,16.15-17.78,24.1-37.49,16.43-41.89"/><path class="f" d="M59.54,1031.73c-1,.46-1.7.81-1.58.89s.7-.29,1.58-.89"/><path class="f" d="M59.54,1031.73c4.71-2.14,20.63-8,39.57-14.3,22.9-7.7,38.79-20.62,34.69-28.46-4.45-7.7-24.19-.12-42.22,15.82-15.11,13.33-27.85,24-32,26.94"/></g><rect class="g" x="733.07" y="0.63" width="24" height="1080"/><g class="b"><path class="f" d="M26.62,519.68a16.65,16.65,0,1,1,23.23,3.75,16.65,16.65,0,0,1-23.23-3.75"/><path class="f" d="M666,87.22c-.36-4.89-11.34-6.31-24-3.18-10.52,2.61-19.51,4.56-22.27,4.92,2.75.15,11.69,1.41,22.47,3.22,12.79,2.21,24,0,23.82-5"/><path class="f" d="M618.88,89h0Zm.84,0a2.41,2.41,0,0,0-.84,0s0,0,0,0,.07,0,0,0l-.06,0h0a2.32,2.32,0,0,0,.42-.75,3.61,3.61,0,0,0-.42.7,5.66,5.66,0,0,0-.11-.78,6.15,6.15,0,0,0,.06.76l0,.07s-.24-.29-.64-.62c.34.4.57.66.62.64s-.05,0-.06,0l.05,0a3.39,3.39,0,0,0-1-.11,3.87,3.87,0,0,0,1,.14h0s0,0,0,0a4.42,4.42,0,0,0-.81.52,4.35,4.35,0,0,0,.83-.48h0s0,0,0,0h0c-.07,0-.19.35-.36.91a2.37,2.37,0,0,0,.36-.89,4.23,4.23,0,0,0,.24.81,3.54,3.54,0,0,0-.21-.81,3.51,3.51,0,0,0,.67.48,3.19,3.19,0,0,0-.65-.51,2.71,2.71,0,0,0,.81,0"/><path class="f" d="M635.4,106.27c9,9.9,18.8,15,21.73,11.06S651.8,105.11,640,99.63C630,95,621.91,91,619.56,89.51c2.1,1.87,8.53,8.66,15.84,16.76"/><path class="f" d="M632.1,135.47c4.64-1.37,3.19-12.77-2.93-24.74-5-9.82-9-18.21-10.07-20.89.56,2.78,1.53,11.92,2.49,23.14,1.11,13.28,5.94,24,10.51,22.49"/><path class="f" d="M601.51,134.13c4.53,1.61,10.2-8.21,12.48-21.4,1.88-10.88,3.71-20,4.51-22.81-1.28,2.57-6,10.49-11.84,19.75-7.1,11.24-9.54,22.52-5.15,24.46"/><path class="f" d="M578.28,113.68c2.28,4.38,13-.13,22.64-9,8-7.5,14.69-13.39,17.06-15.13-2.67,1.3-11.1,4.57-21.12,8.13-12.43,4.45-21.05,11.75-18.58,16"/><path class="f" d="M572,82.89c-.58,5,10.16,8.13,23.27,7.13,10.59-.82,19.61-1.28,22.53-1.17-2.82-.64-11.22-3.31-21.5-6.88-12.24-4.26-23.88-4-24.3.92"/><path class="f" d="M585.46,54.64c-3.26,3.58,3.33,12.92,14.16,20.31,9,6.19,16.49,11.56,18.59,13.37-1.76-2.18-7-9.89-13-19.15C598,58,589,51.29,585.46,54.64"/><path class="f" d="M619.9,64.8c1-13.46-2.12-24.53-6.89-23.89-4.8.43-5.07,12.31-1,24.94,3.48,10.71,6.12,19.47,6.7,22.26-.1-2.88.34-12.24,1.14-23.31"/><path class="f" d="M643,47.32c-4.19-2.41-11.27,6.29-15.64,19-3.56,10.4-6.84,19.25-8.05,21.84,1.62-2.29,7.47-9.27,14.82-17.62,8.72-9.87,13-20.8,8.87-23.25"/><path class="f" d="M620.51,88.37c-.55.26-.91.45-.85.5s.38-.17.85-.5"/><path class="f" d="M620.51,88.37c2.54-1.19,11.14-4.42,21.37-7.93,12.36-4.27,21-11.44,18.73-15.79-2.4-4.28-13.06-.07-22.79,8.78-8.17,7.39-15,13.31-17.31,14.94"/></g><polygon class="h" points="370.9 285.95 370.9 483.81 273.66 364.21 265.11 372.22 370.9 502.31 370.9 704.76 273.66 585.18 265.11 593.17 370.9 723.27 370.9 925.72 273.66 806.13 265.11 814.14 370.9 944.23 370.9 1080.63 382.25 1080.63 382.25 945.88 489.36 814.14 480.81 806.13 382.25 927.36 382.25 724.91 489.36 593.17 480.81 585.18 382.25 706.39 382.25 503.96 489.36 372.22 480.81 364.21 382.25 485.44 382.25 285.95 370.9 285.95"/><g class="b"><path class="i" d="M457.51,164.43c-3.2,9-10.58,16.31-13.65,22.25-1.84-24.25,2.57-63.43-10.72-85-1.71,7.5-7.62,13.36-10.58,16.29-.61-19.68-1.92-42.35-11.69-60.85-3.07,6-9,11.81-10.57,16.29-6.56-19.23-14.07-34.81-23.07-47.52h0c-9,12.71-16.51,28.29-23.05,47.52-1.6-4.48-7.5-10.34-10.57-16.29-9.76,18.5-11.09,41.17-11.69,60.85-3-2.93-8.86-8.79-10.59-16.29-13.28,21.58-8.86,60.76-10.7,85-3.09-5.94-10.46-13.27-13.66-22.25-15.87,62.5,28.5,122,79.4,155.12.31-.45.59-.87.86-1.3l.89,1.3c50.91-33.11,95.27-92.62,79.4-155.12"/><path class="h" d="M377.83,318.25s-.66-15.66-1.29-39.12c-.19-11.73-.43-3.24-.69-17.9-.1-14.68-.21-30.33-.31-46,.1-15.66.21-31.32.31-46s.49-28.37.69-40.11c.61-23.47,1.29-39.12,1.29-39.12s.65,15.65,1.27,39.12c.21,11.74.45,25.43.7,40.11.09,14.66.2,30.32.3,46-.1,15.63-.21,31.28-.3,46-.26,14.66-.49,6.17-.7,17.9-.63,23.46-1.27,39.12-1.27,39.12"/><path class="h" d="M330.74,153.64s1.19,6.38,3.61,15.65a190.15,190.15,0,0,0,11.75,32.59c1.44,2.74,2.8,5.55,4.37,8.16s3,5.24,4.87,7.42,3.24,4.67,5.13,6.47,3.34,3.93,5.15,5.29,3.33,2.82,4.72,4.09c1.48,1.12,2.88,1.92,4,2.69l3.51,2.41-3.89-1.56a41.82,41.82,0,0,1-9.88-5.43c-2-1.23-3.79-3.17-5.89-4.91s-3.94-4-5.94-6.31a74.11,74.11,0,0,1-5.45-7.58c-1.69-2.71-3.18-5.61-4.74-8.48a116,116,0,0,1-6.7-17.94,134.3,134.3,0,0,1-3.49-16.32,100.08,100.08,0,0,1-1.11-16.24"/><path class="h" d="M346.69,90.06s.8,4.21,2.39,10.36A120.88,120.88,0,0,0,356.85,122,59.1,59.1,0,0,0,369.76,140a37.07,37.07,0,0,0,5.75,4.48l2.32,1.6c.11-.21-4-.92-9.1-4.62a38.87,38.87,0,0,1-3.89-3.26,29.18,29.18,0,0,1-3.92-4.18,65.61,65.61,0,0,1-6.75-10.6,92.13,92.13,0,0,1-4.43-11.88,84,84,0,0,1-2.32-10.79,66.55,66.55,0,0,1-.73-10.73"/><path class="h" d="M424.92,153.64a100.08,100.08,0,0,1-1.11,16.24,134.3,134.3,0,0,1-3.49,16.32,118.19,118.19,0,0,1-6.71,17.94c-1.55,2.87-3.05,5.77-4.74,8.48a74.11,74.11,0,0,1-5.45,7.58,50,50,0,0,1-5.93,6.31c-2.12,1.74-3.87,3.68-5.9,4.91a42,42,0,0,1-9.86,5.43l-3.9,1.56,3.5-2.41c1.1-.77,2.51-1.57,4-2.69,1.4-1.27,3-2.66,4.73-4.09s3.32-3.44,5.15-5.29,3.32-4.28,5.14-6.47,3.14-5,4.86-7.42c1.56-2.61,2.93-5.42,4.37-8.16a190.15,190.15,0,0,0,11.75-32.59c2.41-9.27,3.61-15.65,3.61-15.65"/><path class="h" d="M409,90.06a66,66,0,0,1-.74,10.73,82.28,82.28,0,0,1-2.32,10.79,92,92,0,0,1-4.42,11.88,65,65,0,0,1-6.76,10.6,28.05,28.05,0,0,1-3.91,4.18,38.87,38.87,0,0,1-3.89,3.26c-5.09,3.7-9.22,4.41-9.1,4.62l2.32-1.6A37.55,37.55,0,0,0,385.9,140,59.44,59.44,0,0,0,398.81,122a120.88,120.88,0,0,0,7.77-21.54c1.59-6.15,2.39-10.36,2.39-10.36"/><path class="i" d="M262.45,242.75c3.65,8.77,3.27,19.55,5,26.08-17.28-15.75-40-46.81-63.61-52,3.72,6.62,3.43,15.23,3.26,19.55-13.41-13.44-29.28-28.49-48.39-34.16,1.76,6.53,1.45,15.16,3.26,19.55-17.3-8.64-32.89-13.95-47.63-16.12,2,15.8,7,32.54,15,51.1-4.08-1.95-12.13-1.63-18.21-3.51,5.29,20.5,19.3,37.52,31.85,51.9-4,.17-12.07.51-18.23-3.49,4.83,25.33,33.79,49.69,48.46,68.22-6.08-1.85-16.13-1.44-24.31-5.36,30,56.23,100.58,64.65,158.41,49.46-.08-.56-.16-1.06-.25-1.57l1.48.24c14.17-62,6.32-137.74-46.11-169.9"/><path class="h" d="M307.5,412s-10.78-10.58-26.7-26.69c-7.86-8.15-2.44-2-12.28-12.14S248.38,351.83,238,340.85c-10.25-11.14-20.51-22.29-30.1-32.74s-18.35-20.43-26-28.88c-15-17.06-24.88-28.64-24.88-28.64s10.79,10.56,26.69,26.69c7.89,8.15,17.09,17.65,26.93,27.83s20.14,21.29,30.53,32.29l30.09,32.73c9.48,10.56,3.72,4.75,11.31,13.19,15,17.06,24.88,28.63,24.88,28.63"/><path class="h" d="M165.69,331.25s5.05,3.62,12.87,8.34a164.29,164.29,0,0,0,29.79,14.14c2.83.84,5.64,1.8,8.47,2.45,2.83.43,5.58,1.42,8.34,1.55s5.37.84,7.89.69,5,.23,7.13-.17,4.22-.53,6-.68c1.78-.33,3.29-.83,4.58-1.12l4.08-1-3.79,1.86A41,41,0,0,1,240.52,361c-2.23.67-4.76.64-7.39,1s-5.46.12-8.36,0a66.1,66.1,0,0,1-8.86-1.22c-3-.64-5.95-1.56-8.93-2.41a100.29,100.29,0,0,1-16.56-7.6,114.77,114.77,0,0,1-13.23-8.9,89.81,89.81,0,0,1-11.5-10.65"/><path class="h" d="M135.05,274.21s3.34,2.38,8.53,5.51a104,104,0,0,0,19.68,9.35,52.44,52.44,0,0,0,21.06,3,34.05,34.05,0,0,0,7-1.2l2.7-.62c-.05-.23-3.44,2.39-9.49,3.63a33.28,33.28,0,0,1-4.89.65,26.93,26.93,0,0,1-5.54,0,57,57,0,0,1-11.75-2.39,75.77,75.77,0,0,1-11-5,72.88,72.88,0,0,1-8.75-5.87,59.52,59.52,0,0,1-7.6-7"/><path class="h" d="M232.28,259.83a90.41,90.41,0,0,1,9.92,12.33,127.94,127.94,0,0,1,8.31,14.18,118.68,118.68,0,0,1,7.07,17.78c.8,3.21,1.66,6.39,2.24,9.59a79.28,79.28,0,0,1,1.14,9.5,54.58,54.58,0,0,1,0,9c-.35,2.83-.31,5.52-.93,7.93a48.81,48.81,0,0,1-3.4,11.33c-1.11,2.6-1.72,4.06-1.72,4.06s.31-1.58.87-4.36c.28-1.39.75-3,1.06-4.92.15-2,.32-4.14.63-6.48s.09-5,.16-7.65-.47-5.53-.63-8.47-1.06-5.89-1.46-8.94c-.61-3-1.48-6.05-2.28-9.07a188.13,188.13,0,0,0-13.18-32c-4.4-8.38-7.77-13.81-7.77-13.81"/><path class="h" d="M179.09,227a60.18,60.18,0,0,1,6.56,8.15,79.46,79.46,0,0,1,5.46,9.38,91.65,91.65,0,0,1,4.71,11.75A68.32,68.32,0,0,1,198,268.89a33.43,33.43,0,0,1,0,5.92,43.58,43.58,0,0,1-.62,5.24c-1.16,6.49-3.6,10.13-3.38,10.18l.58-2.89a42.85,42.85,0,0,0,1.11-7.53,63.8,63.8,0,0,0-2.78-22.58,120.65,120.65,0,0,0-8.71-21.13c-2.93-5.55-5.14-9.12-5.14-9.12"/><path class="i" d="M262.45,469c3.65,8.77,3.27,19.56,5,26.09-17.28-15.75-40-46.81-63.61-52,3.72,6.61,3.43,15.23,3.26,19.55-13.41-13.45-29.28-28.49-48.39-34.16,1.76,6.53,1.45,15.15,3.26,19.54-17.3-8.63-32.89-13.94-47.63-16.12,2,15.8,7,32.54,15,51.1-4.08-2-12.13-1.62-18.21-3.51,5.29,20.5,19.3,37.52,31.85,51.9-4,.18-12.07.51-18.23-3.48,4.83,25.32,33.79,49.69,48.46,68.22-6.08-1.86-16.13-1.45-24.31-5.37,30,56.23,100.58,64.66,158.41,49.46-.08-.55-.16-1-.25-1.57l1.48.25c14.17-62,6.32-137.75-46.11-169.91"/><path class="h" d="M307.5,638.23s-10.78-10.57-26.7-26.68c-7.86-8.15-2.44-2-12.28-12.14S248.38,578.12,238,567.14L207.9,534.4c-9.5-10.56-18.35-20.43-26-28.88-15-17.06-24.88-28.64-24.88-28.64s10.79,10.56,26.69,26.69c7.89,8.14,17.09,17.65,26.93,27.83s20.14,21.29,30.53,32.28c10.24,11.14,20.48,22.29,30.09,32.73s3.72,4.75,11.31,13.19c15,17.07,24.88,28.63,24.88,28.63"/><path class="h" d="M165.69,557.54s5.05,3.62,12.87,8.34A165.64,165.64,0,0,0,208.35,580c2.83.84,5.64,1.79,8.47,2.45,2.83.43,5.58,1.41,8.34,1.55s5.37.84,7.89.68,5,.24,7.13-.16,4.22-.53,6-.69c1.78-.33,3.29-.83,4.58-1.12l4.08-1-3.79,1.86a41.43,41.43,0,0,1-10.57,3.64c-2.23.66-4.76.63-7.39,1s-5.46.13-8.36,0a66.1,66.1,0,0,1-8.86-1.22c-3-.63-5.95-1.56-8.93-2.41a98.67,98.67,0,0,1-16.56-7.6,113.5,113.5,0,0,1-13.23-8.9,89.39,89.39,0,0,1-11.5-10.64"/><path class="h" d="M135.05,500.49s3.34,2.38,8.53,5.51a103.36,103.36,0,0,0,19.68,9.35,52.29,52.29,0,0,0,21.06,3,34.75,34.75,0,0,0,7-1.2l2.7-.63c-.05-.22-3.44,2.39-9.49,3.63a34.63,34.63,0,0,1-4.89.66,26.93,26.93,0,0,1-5.54,0,57.7,57.7,0,0,1-11.75-2.39,76.89,76.89,0,0,1-11-5,72.89,72.89,0,0,1-8.75-5.86,60,60,0,0,1-7.6-7"/><path class="h" d="M232.28,486.12a90.64,90.64,0,0,1,9.92,12.32,128.15,128.15,0,0,1,8.31,14.19,118.25,118.25,0,0,1,7.07,17.78c.8,3.21,1.66,6.39,2.24,9.58a79.28,79.28,0,0,1,1.14,9.5,54.57,54.57,0,0,1,0,9c-.35,2.83-.31,5.53-.93,7.94a48.55,48.55,0,0,1-3.4,11.32c-1.11,2.61-1.72,4.06-1.72,4.06s.31-1.58.87-4.36c.28-1.38.75-3,1.06-4.92.15-2,.32-4.13.63-6.47s.09-5,.16-7.65-.47-5.54-.63-8.47-1.06-5.9-1.46-8.94c-.61-3-1.48-6.05-2.28-9.08a188,188,0,0,0-13.18-31.95c-4.4-8.39-7.77-13.81-7.77-13.81"/><path class="h" d="M179.09,453.26a60.18,60.18,0,0,1,6.56,8.15,80.48,80.48,0,0,1,5.46,9.39,91.65,91.65,0,0,1,4.71,11.75A68.21,68.21,0,0,1,198,495.17a33.54,33.54,0,0,1,0,5.93,43.58,43.58,0,0,1-.62,5.24c-1.16,6.49-3.6,10.13-3.38,10.17l.58-2.88a42.83,42.83,0,0,0,1.11-7.54,63.86,63.86,0,0,0-2.78-22.58,120.53,120.53,0,0,0-8.71-21.12c-2.93-5.55-5.14-9.13-5.14-9.13"/><path class="i" d="M262.45,695.32c3.65,8.77,3.27,19.55,5,26.09-17.28-15.75-40-46.82-63.61-52,3.72,6.61,3.43,15.22,3.26,19.54-13.41-13.44-29.28-28.49-48.39-34.16,1.76,6.54,1.45,15.16,3.26,19.55-17.3-8.64-32.89-14-47.63-16.12,2,15.8,7,32.54,15,51.1-4.08-2-12.13-1.62-18.21-3.51,5.29,20.5,19.3,37.52,31.85,51.9-4,.17-12.07.51-18.23-3.49,4.83,25.33,33.79,49.69,48.46,68.22-6.08-1.85-16.13-1.44-24.31-5.36,30,56.23,100.58,64.66,158.41,49.46-.08-.55-.16-1.06-.25-1.57.48.07,1,.16,1.48.25,14.17-62,6.32-137.75-46.11-169.91"/><path class="h" d="M307.5,864.52S296.72,854,280.8,837.84c-7.86-8.16-2.44-2-12.28-12.14S248.38,804.41,238,793.42s-20.51-22.29-30.1-32.74-18.35-20.43-26-28.87c-15-17.07-24.88-28.65-24.88-28.65s10.79,10.57,26.69,26.7c7.89,8.14,17.09,17.64,26.93,27.83L241.22,790l30.09,32.73c9.48,10.56,3.72,4.75,11.31,13.19,15,17.06,24.88,28.63,24.88,28.63"/><path class="h" d="M165.69,783.83s5.05,3.62,12.87,8.33a164.29,164.29,0,0,0,29.79,14.14c2.83.85,5.64,1.8,8.47,2.45,2.83.44,5.58,1.42,8.34,1.55s5.37.84,7.89.69,5,.24,7.13-.16,4.22-.54,6-.69c1.78-.33,3.29-.83,4.58-1.12l4.08-1-3.79,1.85a40.67,40.67,0,0,1-10.57,3.64c-2.23.67-4.76.64-7.39,1s-5.46.12-8.36,0a66.1,66.1,0,0,1-8.86-1.22c-3-.64-5.95-1.56-8.93-2.41a98.67,98.67,0,0,1-16.56-7.6,114.77,114.77,0,0,1-13.23-8.9,90.25,90.25,0,0,1-11.5-10.64"/><path class="h" d="M135.05,726.78s3.34,2.38,8.53,5.51a104,104,0,0,0,19.68,9.35,52.27,52.27,0,0,0,21.06,3,34.05,34.05,0,0,0,7-1.2l2.7-.62c-.05-.23-3.44,2.39-9.49,3.63a33.28,33.28,0,0,1-4.89.65,26.24,26.24,0,0,1-5.54,0,57,57,0,0,1-11.75-2.38,76.89,76.89,0,0,1-11-5,72.89,72.89,0,0,1-8.75-5.86,60,60,0,0,1-7.6-7"/><path class="h" d="M232.28,712.4a90.41,90.41,0,0,1,9.92,12.33,127.94,127.94,0,0,1,8.31,14.18,118.68,118.68,0,0,1,7.07,17.78c.8,3.21,1.66,6.39,2.24,9.59a79.28,79.28,0,0,1,1.14,9.5,54.58,54.58,0,0,1,0,9c-.35,2.83-.31,5.52-.93,7.93A48.65,48.65,0,0,1,256.6,804c-1.11,2.6-1.72,4.06-1.72,4.06s.31-1.58.87-4.36c.28-1.39.75-3,1.06-4.92.15-2,.32-4.14.63-6.47s.09-5,.16-7.65-.47-5.54-.63-8.47-1.06-5.9-1.46-9c-.61-3-1.48-6-2.28-9.07a187.66,187.66,0,0,0-13.18-31.95c-4.4-8.39-7.77-13.82-7.77-13.82"/><path class="h" d="M179.09,679.55a60.18,60.18,0,0,1,6.56,8.15,80.29,80.29,0,0,1,5.46,9.38,91.65,91.65,0,0,1,4.71,11.75A68.32,68.32,0,0,1,198,721.46a33.43,33.43,0,0,1,0,5.92,43.34,43.34,0,0,1-.62,5.24c-1.16,6.5-3.6,10.14-3.38,10.18l.58-2.88a43,43,0,0,0,1.11-7.54,63.83,63.83,0,0,0-2.78-22.58,120.65,120.65,0,0,0-8.71-21.13c-2.93-5.54-5.14-9.12-5.14-9.12"/><path class="i" d="M490.53,242.75c-3.65,8.77-3.28,19.55-5,26.08,17.28-15.75,40-46.81,63.61-52-3.72,6.62-3.42,15.23-3.26,19.55,13.41-13.44,29.29-28.49,48.39-34.16-1.75,6.53-1.45,15.16-3.26,19.55,17.3-8.64,32.9-13.95,47.63-16.12-2,15.8-7,32.54-15,51.1,4.08-1.95,12.13-1.63,18.21-3.51-5.29,20.5-19.3,37.52-31.85,51.9,4,.17,12.07.51,18.23-3.49-4.83,25.33-33.79,49.69-48.46,68.22,6.08-1.85,16.13-1.44,24.31-5.36-30,56.23-100.58,64.65-158.41,49.46.08-.56.17-1.06.25-1.57l-1.48.24c-14.17-62-6.32-137.74,46.12-169.9"/><path class="h" d="M445.47,412s10.79-10.58,26.7-26.69c7.86-8.15,2.44-2,12.28-12.14s20.14-21.29,30.52-32.27c10.25-11.14,20.51-22.29,30.1-32.74s18.36-20.43,25.95-28.88c15.05-17.06,24.88-28.64,24.88-28.64s-10.79,10.56-26.69,26.69c-7.89,8.15-17.09,17.65-26.93,27.83s-20.14,21.29-30.53,32.29-20.47,22.28-30.08,32.73-3.73,4.75-11.31,13.19c-15,17.06-24.89,28.63-24.89,28.63"/><path class="h" d="M587.28,331.25s-5,3.62-12.87,8.34a164,164,0,0,1-29.79,14.14c-2.83.84-5.64,1.8-8.47,2.45-2.83.43-5.58,1.42-8.34,1.55s-5.37.84-7.88.69-5,.23-7.14-.17-4.22-.53-6-.68c-1.78-.33-3.29-.83-4.58-1.12l-4.08-1,3.79,1.86A41,41,0,0,0,512.45,361c2.24.67,4.76.64,7.39,1s5.46.12,8.36,0a66.1,66.1,0,0,0,8.86-1.22c3-.64,6-1.56,8.93-2.41a99.91,99.91,0,0,0,16.56-7.6,114.77,114.77,0,0,0,13.23-8.9,89,89,0,0,0,11.5-10.65"/><path class="h" d="M617.92,274.21s-3.34,2.38-8.52,5.51a104.38,104.38,0,0,1-19.69,9.35,52.44,52.44,0,0,1-21.06,3,34.05,34.05,0,0,1-7-1.2l-2.7-.62c0-.23,3.44,2.39,9.49,3.63a33.28,33.28,0,0,0,4.89.65,26.93,26.93,0,0,0,5.54,0,57,57,0,0,0,11.75-2.39,75.77,75.77,0,0,0,11-5,72.09,72.09,0,0,0,8.75-5.87,59.52,59.52,0,0,0,7.6-7"/><path class="h" d="M520.69,259.83a90.41,90.41,0,0,0-9.92,12.33,129.57,129.57,0,0,0-8.3,14.18,116.58,116.58,0,0,0-7.07,17.78c-.8,3.21-1.66,6.39-2.25,9.59a79.28,79.28,0,0,0-1.14,9.5,54.58,54.58,0,0,0,0,9c.35,2.83.31,5.52.94,7.93a48.39,48.39,0,0,0,3.39,11.33c1.11,2.6,1.72,4.06,1.72,4.06s-.3-1.58-.87-4.36c-.27-1.39-.75-3-1.05-4.92s-.33-4.14-.64-6.48-.09-5-.15-7.65.46-5.53.62-8.47,1.06-5.89,1.46-8.94c.61-3,1.49-6.05,2.29-9.07a187.35,187.35,0,0,1,13.17-32c4.4-8.38,7.77-13.81,7.77-13.81"/><path class="h" d="M573.88,227a60.18,60.18,0,0,0-6.56,8.15,79.46,79.46,0,0,0-5.46,9.38,91.65,91.65,0,0,0-4.71,11.75,68.32,68.32,0,0,0-2.21,12.63,34.41,34.41,0,0,0,0,5.92,43.58,43.58,0,0,0,.62,5.24c1.16,6.49,3.6,10.13,3.38,10.18l-.58-2.89a43.82,43.82,0,0,1-1.11-7.53A63.8,63.8,0,0,1,560,257.23a120.65,120.65,0,0,1,8.71-21.13c2.93-5.55,5.14-9.12,5.14-9.12"/><path class="i" d="M490.53,469c-3.65,8.77-3.28,19.56-5,26.09,17.28-15.75,40-46.81,63.61-52-3.72,6.61-3.42,15.23-3.26,19.55,13.41-13.45,29.29-28.49,48.39-34.16-1.75,6.53-1.45,15.15-3.26,19.54,17.3-8.63,32.9-13.94,47.63-16.12-2,15.8-7,32.54-15,51.1,4.08-2,12.13-1.62,18.21-3.51-5.29,20.5-19.3,37.52-31.85,51.9,4,.18,12.07.51,18.23-3.48-4.83,25.32-33.79,49.69-48.46,68.22,6.08-1.86,16.13-1.45,24.31-5.37-30,56.23-100.58,64.66-158.41,49.46.08-.55.17-1,.25-1.57l-1.48.25c-14.17-62-6.32-137.75,46.12-169.91"/><path class="h" d="M445.47,638.23s10.79-10.57,26.7-26.68c7.86-8.15,2.44-2,12.28-12.14s20.14-21.29,30.52-32.27l30.1-32.74c9.5-10.56,18.36-20.43,25.95-28.88,15.05-17.06,24.88-28.64,24.88-28.64s-10.79,10.56-26.69,26.69c-7.89,8.14-17.09,17.65-26.93,27.83s-20.14,21.29-30.53,32.28c-10.24,11.14-20.47,22.29-30.08,32.73s-3.73,4.75-11.31,13.19c-15,17.07-24.89,28.63-24.89,28.63"/><path class="h" d="M587.28,557.54s-5,3.62-12.87,8.34A165.31,165.31,0,0,1,544.62,580c-2.83.84-5.64,1.79-8.47,2.45-2.83.43-5.58,1.41-8.34,1.55s-5.37.84-7.88.68-5,.24-7.14-.16-4.22-.53-6-.69c-1.78-.33-3.29-.83-4.58-1.12l-4.08-1,3.79,1.86a41.43,41.43,0,0,0,10.57,3.64c2.24.66,4.76.63,7.39,1s5.46.13,8.36,0a66.1,66.1,0,0,0,8.86-1.22c3-.63,6-1.56,8.93-2.41a98.31,98.31,0,0,0,16.56-7.6,113.5,113.5,0,0,0,13.23-8.9,88.54,88.54,0,0,0,11.5-10.64"/><path class="h" d="M617.92,500.49s-3.34,2.38-8.52,5.51a103.76,103.76,0,0,1-19.69,9.35,52.29,52.29,0,0,1-21.06,3,34.75,34.75,0,0,1-7-1.2l-2.7-.63c0-.22,3.44,2.39,9.49,3.63a34.63,34.63,0,0,0,4.89.66,26.93,26.93,0,0,0,5.54,0,57.7,57.7,0,0,0,11.75-2.39,76.89,76.89,0,0,0,11-5,72.09,72.09,0,0,0,8.75-5.86,60,60,0,0,0,7.6-7"/><path class="h" d="M520.69,486.12a90.64,90.64,0,0,0-9.92,12.32,129.78,129.78,0,0,0-8.3,14.19,116.17,116.17,0,0,0-7.07,17.78c-.8,3.21-1.66,6.39-2.25,9.58a79.28,79.28,0,0,0-1.14,9.5,54.57,54.57,0,0,0,0,9c.35,2.83.31,5.53.94,7.94a48.13,48.13,0,0,0,3.39,11.32c1.11,2.61,1.72,4.06,1.72,4.06s-.3-1.58-.87-4.36c-.27-1.38-.75-3-1.05-4.92s-.33-4.13-.64-6.47-.09-5-.15-7.65.46-5.54.62-8.47,1.06-5.9,1.46-8.94c.61-3,1.49-6.05,2.29-9.08a187.22,187.22,0,0,1,13.17-31.95c4.4-8.39,7.77-13.81,7.77-13.81"/><path class="h" d="M573.88,453.26a60.18,60.18,0,0,0-6.56,8.15,80.48,80.48,0,0,0-5.46,9.39,91.65,91.65,0,0,0-4.71,11.75,68.21,68.21,0,0,0-2.21,12.62,34.53,34.53,0,0,0,0,5.93,43.58,43.58,0,0,0,.62,5.24c1.16,6.49,3.6,10.13,3.38,10.17l-.58-2.88a43.8,43.8,0,0,1-1.11-7.54A63.86,63.86,0,0,1,560,483.51a120.53,120.53,0,0,1,8.71-21.12c2.93-5.55,5.14-9.13,5.14-9.13"/><path class="i" d="M490.53,695.32c-3.65,8.77-3.28,19.55-5,26.09,17.28-15.75,40-46.82,63.61-52-3.72,6.61-3.42,15.22-3.26,19.54,13.41-13.44,29.29-28.49,48.39-34.16-1.75,6.54-1.45,15.16-3.26,19.55,17.3-8.64,32.9-14,47.63-16.12-2,15.8-7,32.54-15,51.1,4.08-2,12.13-1.62,18.21-3.51-5.29,20.5-19.3,37.52-31.85,51.9,4,.17,12.07.51,18.23-3.49-4.83,25.33-33.79,49.69-48.46,68.22,6.08-1.85,16.13-1.44,24.31-5.36-30,56.23-100.58,64.66-158.41,49.46.08-.55.17-1.06.25-1.57-.48.07-1,.16-1.48.25-14.17-62-6.32-137.75,46.12-169.91"/><path class="h" d="M445.47,864.52s10.79-10.57,26.7-26.68c7.86-8.16,2.44-2,12.28-12.14s20.14-21.29,30.52-32.28,20.51-22.29,30.1-32.74,18.36-20.43,25.95-28.87c15.05-17.07,24.88-28.65,24.88-28.65s-10.79,10.57-26.69,26.7c-7.89,8.14-17.09,17.64-26.93,27.83L511.75,790c-10.24,11.13-20.47,22.28-30.08,32.73s-3.73,4.75-11.31,13.19c-15,17.06-24.89,28.63-24.89,28.63"/><path class="h" d="M587.28,783.83s-5,3.62-12.87,8.33a164,164,0,0,1-29.79,14.14c-2.83.85-5.64,1.8-8.47,2.45-2.83.44-5.58,1.42-8.34,1.55s-5.37.84-7.88.69-5,.24-7.14-.16-4.22-.54-6-.69c-1.78-.33-3.29-.83-4.58-1.12l-4.08-1,3.79,1.85a40.67,40.67,0,0,0,10.57,3.64c2.24.67,4.76.64,7.39,1s5.46.12,8.36,0a66.1,66.1,0,0,0,8.86-1.22c3-.64,6-1.56,8.93-2.41a98.31,98.31,0,0,0,16.56-7.6,114.77,114.77,0,0,0,13.23-8.9,89.39,89.39,0,0,0,11.5-10.64"/><path class="h" d="M617.92,726.78s-3.34,2.38-8.52,5.51a104.38,104.38,0,0,1-19.69,9.35,52.27,52.27,0,0,1-21.06,3,34.05,34.05,0,0,1-7-1.2l-2.7-.62c0-.23,3.44,2.39,9.49,3.63a33.28,33.28,0,0,0,4.89.65,26.24,26.24,0,0,0,5.54,0,57,57,0,0,0,11.75-2.38,76.89,76.89,0,0,0,11-5,72.09,72.09,0,0,0,8.75-5.86,60,60,0,0,0,7.6-7"/><path class="h" d="M520.69,712.4a90.41,90.41,0,0,0-9.92,12.33,129.57,129.57,0,0,0-8.3,14.18,116.58,116.58,0,0,0-7.07,17.78c-.8,3.21-1.66,6.39-2.25,9.59a79.28,79.28,0,0,0-1.14,9.5,54.58,54.58,0,0,0,0,9c.35,2.83.31,5.52.94,7.93A48.23,48.23,0,0,0,496.37,804c1.11,2.6,1.72,4.06,1.72,4.06s-.3-1.58-.87-4.36c-.27-1.39-.75-3-1.05-4.92s-.33-4.14-.64-6.47-.09-5-.15-7.65.46-5.54.62-8.47,1.06-5.9,1.46-9c.61-3,1.49-6,2.29-9.07a186.88,186.88,0,0,1,13.17-31.95c4.4-8.39,7.77-13.82,7.77-13.82"/><path class="h" d="M573.88,679.55a60.18,60.18,0,0,0-6.56,8.15,80.29,80.29,0,0,0-5.46,9.38,91.65,91.65,0,0,0-4.71,11.75,68.32,68.32,0,0,0-2.21,12.63,34.41,34.41,0,0,0,0,5.92,43.34,43.34,0,0,0,.62,5.24c1.16,6.5,3.6,10.14,3.38,10.18l-.58-2.88a44,44,0,0,1-1.11-7.54A63.83,63.83,0,0,1,560,709.8a120.65,120.65,0,0,1,8.71-21.13c2.93-5.54,5.14-9.12,5.14-9.12"/><path class="f" d="M611.67,971.29A16.65,16.65,0,1,1,634.91,975a16.67,16.67,0,0,1-23.24-3.74"/></g></svg>