<svg xmlns="http://www.w3.org/2000/svg" xmlns:xlink="http://www.w3.org/1999/xlink" viewBox="0 0 868.58 1080"><defs><style>.a{fill:none;}.b{fill:#243f76;}.c{clip-path:url(#a);}.d{fill:#ffc63c;}.e{fill:#56bf9f;}.f{clip-path:url(#b);}.g{fill:#e5e5e5;}.h{fill:#fbae17;}</style><clipPath id="a"><rect class="a" x="0.11" width="838" height="1080"/></clipPath><clipPath id="b"><rect class="a" x="808.08" width="60.5" height="1080.08"/></clipPath></defs><title>10 Pattern</title><rect class="b" width="838" height="1080"/><g class="c"><path class="d" d="M16.44,60.49a5.22,5.22,0,1,1,0,10.39,5.22,5.22,0,1,1,0-10.39Z"/><path class="d" d="M175.45,90.65c0,4.65-4.2,8.44-9.36,8.44s-9.36-3.79-9.36-8.44,4.2-8.44,9.36-8.44S175.45,86,175.45,90.65Zm-15.3,0c0,2.95,2.67,5.35,5.94,5.35S172,93.6,172,90.65a5.68,5.68,0,0,0-5.93-5.36C162.82,85.29,160.15,87.7,160.15,90.65Z"/><path class="e" d="M151.16,111.71c-7.94,0-16.88-1-23.08-5.94-7.24-5.73-5.76-15.62.18-21.5,5-5,9.48-8,10.75-15,1.07-5.94-1.65-10.72-7.47-13.51-6.8-3.26-14.23-3.76-19.78-9.07C102.29,37.62,113,30.8,119.1,24A16.42,16.42,0,0,0,121,4c-4-6.39-12.67-9-20.34-9.1a33.5,33.5,0,0,0-6.16.61C91.81-4,93-.32,95.65-.78,105-2.38,116.28.45,119,9.64c2.77,9.38-6.72,14.12-11.86,20.59-5.75,7.26-3.43,15,3.47,20.84,5.23,4.45,12.57,5.25,18.79,8,7.36,3.26,6.89,11.74,2,16.89-4.53,4.79-10,8.1-11.88,14.51-2.09,7,.78,14.66,7,19.1,5.92,4.23,13.9,5.51,21.24,5.92,1.15.06,2.29.07,3.44.08a1.93,1.93,0,1,0,0-3.86Z"/><path class="e" d="M-20.35-16.09c12.36-1.63,24.71-.45,37,.78,10.46,1.05,20.82,2.64,31.16,4.44-.43-.94-.86-1.88-1.28-2.83C41-2.85,33.61,7,25.72,16.55,19.17,24.5,10.9,31.08,4.28,39H8c-12.91-17-20.71-37.66-27.25-57.3-.79-2.38-4.91-1.36-4.12,1C-16.76,2.6-8.81,23.62,4.28,40.91a2.32,2.32,0,0,0,3.7,0c6.34-7.55,14.31-13.84,20.62-21.43,8.2-9.86,15.92-20,21.66-31.23A1.9,1.9,0,0,0,49-14.58C38.83-16.35,28.63-18,18.35-19,5-20.32-8.13-21.57-21.48-19.81c-2.72.36-1.56,4.08,1.13,3.72Z"/><path class="e" d="M190.33,62.22a93.16,93.16,0,0,0,7.3-11c3.73-6,7.61-11.89,11.81-17.62a1.78,1.78,0,0,0-.33-2.33c-8.77-7.53-21.39-10.13-32.11-14.59-1-.41-2.41-.33-2.93.69a277.51,277.51,0,0,1-16.38,28.08c-1.42,2.14,2.28,4.08,3.69,1.95a278.7,278.7,0,0,0,16.39-28.08l-2.93.69c10.32,4.29,22.82,6.75,31.25,14l-.34-2.33c-4.2,5.73-8.07,11.63-11.81,17.61-2.31,3.7-4.46,7.57-7.3,11-1.67,2,2.05,3.9,3.69,1.94Z"/><path class="e" d="M69.57,150.24l40-11.79a2,2,0,1,0-1.14-3.72l-40,11.79a2,2,0,1,0,1.13,3.72Z"/><path class="e" d="M64.65,138.21l40.49-11.93a2,2,0,1,0-1.14-3.72L63.51,134.49a2,2,0,1,0,1.14,3.72Z"/><path class="e" d="M43.57,34.44c-6.75,7.12-9.73,17.46.12,23.54A15.28,15.28,0,0,0,56.17,59.3C61,57.55,63.9,52.78,66.35,48.92c1.37-2.16-2.33-4.11-3.69-2-3.43,5.42-6.84,10.54-14.53,8.7-10.39-2.48-6.33-13.45-1.54-18.5,1.78-1.88-1.23-4.62-3-2.73Z"/><path class="e" d="M25.67,97.66c5.6-3.81,14.23-1.84,20.46-.65,8.07,1.52,16,3.72,24.18,4.72,6.35.78,12.53.54,17.54-3.45a13.67,13.67,0,0,0,4.46-14.83c-1.89-5.41-8.24-7.77-14.1-7.29-7,.57-12.1,5.55-16,10.32-3.62,4.45-6.35,9.41-10,13.85-5.35,6.57-10,16-20.76,14.56-2.69-.36-3.85,3.36-1.13,3.72,7.21,1,12.78-1.27,17.52-6.17A111.63,111.63,0,0,0,59,98.36c3.36-4.87,6.29-9.93,10.78-14.06s13.28-6.9,17.66-1.15C91,87.83,87.37,94.46,82.57,97c-5.65,3-14.39.65-20.27-.53-7.39-1.49-14.68-3.4-22.19-4.34-5.48-.69-11.93-1-16.59,2.19-2.17,1.48-.05,4.84,2.15,3.33Z"/><path class="e" d="M65.62,25.27a95.91,95.91,0,0,1,7.67-9.47c1.71-1.92-1.3-4.67-3-2.72a102.47,102.47,0,0,0-8.34,10.24c-1.45,2.13,2.25,4.07,3.69,1.95Z"/><path class="e" d="M-37.57,65.44l38,17.39C2.88,84,5,80.63,2.58,79.5l-38-17.39c-2.45-1.12-4.61,2.2-2.16,3.33Z"/><path class="d" d="M313.92,31.58a5.5,5.5,0,0,1,5.76,5.2,5.79,5.79,0,0,1-11.52,0A5.5,5.5,0,0,1,313.92,31.58Z"/><path class="d" d="M472.93,61.74c0,4.66-4.2,8.44-9.36,8.44s-9.36-3.78-9.36-8.44,4.2-8.44,9.36-8.44S472.93,57.09,472.93,61.74Zm-15.3,0c0,2.95,2.67,5.36,5.94,5.36s5.94-2.41,5.94-5.36-2.67-5.35-5.94-5.35S457.63,58.79,457.63,61.74Z"/><path class="e" d="M448.64,82.81c-7.94,0-16.88-1-23.08-6-7.24-5.73-5.76-15.62.18-21.5,5-5,9.48-8,10.75-15,1.07-5.94-1.65-10.71-7.47-13.5-6.8-3.26-14.23-3.77-19.78-9.07-9.47-9.06,1.26-15.88,7.34-22.65a16.4,16.4,0,0,0,1.92-20c-4-6.39-12.67-9-20.34-9.11a34.39,34.39,0,0,0-6.16.61c-2.71.47-1.56,4.18,1.14,3.72,9.35-1.6,20.62,1.23,23.32,10.42,2.77,9.38-6.72,14.12-11.86,20.6-5.75,7.25-3.43,15,3.47,20.84,5.23,4.45,12.57,5.24,18.79,8,7.36,3.25,6.89,11.74,2,16.89-4.53,4.78-10,8.09-11.88,14.5-2.09,7,.78,14.66,7,19.1,5.92,4.24,13.9,5.51,21.24,5.92,1.15.06,2.29.08,3.44.08a1.93,1.93,0,1,0,0-3.85Z"/><path class="e" d="M277.13-45c12.36-1.64,24.71-.46,37,.78,10.46,1.05,20.82,2.64,31.16,4.44-.43-.95-.86-1.89-1.28-2.83-5.55,10.85-13,20.68-20.85,30.24-6.55,8-14.82,14.53-21.44,22.42h3.7c-12.91-17-20.71-37.67-27.25-57.31-.79-2.37-4.91-1.36-4.12,1C280.72-26.31,288.67-5.29,301.76,12a2.31,2.31,0,0,0,3.7,0c6.34-7.55,14.31-13.84,20.62-21.43,8.2-9.86,15.92-20,21.66-31.23a1.9,1.9,0,0,0-1.28-2.83c-10.15-1.77-20.35-3.39-30.63-4.41-13.33-1.32-26.48-2.58-39.83-.81-2.72.36-1.56,4.07,1.13,3.72Z"/><path class="e" d="M487.81,33.32a94.11,94.11,0,0,0,7.3-11c3.73-6,7.61-11.88,11.81-17.61a1.79,1.79,0,0,0-.33-2.34c-8.77-7.52-21.39-10.13-32.11-14.59-1-.4-2.41-.33-2.93.69a278.75,278.75,0,0,1-16.38,28.09c-1.42,2.14,2.28,4.08,3.69,1.94A277.6,277.6,0,0,0,475.25-9.55l-2.93.69c10.32,4.29,22.82,6.75,31.25,14-.12-.78-.23-1.56-.34-2.34-4.2,5.73-8.07,11.63-11.81,17.62-2.31,3.69-4.46,7.56-7.3,11-1.67,2,2.05,3.91,3.69,1.95Z"/><path class="e" d="M367.06,121.33l40-11.78a2,2,0,1,0-1.14-3.72l-40,11.78a2,2,0,1,0,1.14,3.72Z"/><path class="e" d="M362.13,109.3l40.49-11.93a2,2,0,1,0-1.14-3.72L361,105.58a2,2,0,1,0,1.14,3.72Z"/><path class="e" d="M341.05,5.53c-6.75,7.13-9.73,17.46.12,23.55a15.32,15.32,0,0,0,12.48,1.31c4.84-1.75,7.73-6.52,10.18-10.38,1.37-2.16-2.33-4.1-3.69-1.94-3.43,5.42-6.84,10.53-14.53,8.69-10.39-2.48-6.32-13.44-1.54-18.5,1.78-1.88-1.23-4.62-3-2.73Z"/><path class="e" d="M323.15,68.76c5.6-3.82,14.23-1.84,20.46-.66,8.08,1.53,16,3.72,24.18,4.73,6.35.78,12.53.53,17.54-3.46a13.67,13.67,0,0,0,4.46-14.83c-1.89-5.41-8.24-7.76-14.1-7.28-7,.56-12.1,5.54-16,10.32-3.62,4.44-6.35,9.4-10,13.85-5.35,6.56-10,16-20.76,14.55-2.69-.36-3.85,3.36-1.13,3.72,7.21,1,12.78-1.27,17.52-6.16a111,111,0,0,0,11.14-14.09c3.36-4.86,6.29-9.93,10.78-14.06s13.28-6.9,17.66-1.15c3.56,4.68-.08,11.31-4.88,13.87-5.65,3-14.39.64-20.27-.54-7.38-1.49-14.67-3.4-22.19-4.34-5.48-.69-11.93-1-16.59,2.2-2.17,1.48-.05,4.83,2.15,3.33Z"/><path class="e" d="M253.89,48.48l38,17.39c2.46,1.12,4.62-2.21,2.16-3.33l-38-17.4c-2.45-1.12-4.61,2.21-2.15,3.34Z"/><path class="e" d="M259.92,36.53l38,17.39c2.46,1.13,4.62-2.2,2.16-3.33l-38-17.39c-2.45-1.12-4.61,2.21-2.15,3.33Z"/><path class="e" d="M224.33-21.76c-6.58,3-13.51,9-9.85,16.16,3.1,6.07,11.78,4.54,17.16,2.68,8-2.75,15.23-7,22.87-10.35a35.41,35.41,0,0,1,4.55-1.7c1.81-.53,2.15-.17,3.58,1.05,5.23,4.47-.6,10.11-5.11,12.43-2.39,1.23-.24,4.56,2.16,3.33,6.59-3.4,12.92-11.24,6.78-17.65-2.27-2.36-4.12-3.68-7.54-3.12-3.06.51-6.08,2.08-8.82,3.34-7.65,3.53-15.08,8-23.41,10.11-3.26.83-7.52.67-8.82-2.73-1.79-4.69,4.91-8.54,8.6-10.21,2.47-1.12.3-4.45-2.15-3.34Z"/><path class="d" d="M464.66,198.12a5.22,5.22,0,1,1-5.76,5.2A5.5,5.5,0,0,1,464.66,198.12Z"/><path class="d" d="M549.5,111.67a3.63,3.63,0,1,1-4,3.62A3.82,3.82,0,0,1,549.5,111.67Z"/><path class="d" d="M623.67,228.28c0,4.66-4.2,8.44-9.36,8.44s-9.36-3.78-9.36-8.44,4.2-8.44,9.36-8.44S623.67,223.63,623.67,228.28Zm-15.29,0a5.67,5.67,0,0,0,5.93,5.36c3.27,0,5.94-2.4,5.94-5.36s-2.67-5.35-5.94-5.35S608.38,225.33,608.38,228.28Z"/><path class="e" d="M599.38,249.35c-7.94,0-16.87-1-23.07-5.95-7.24-5.73-5.77-15.61.17-21.49,5-5,9.48-8,10.75-15,1.08-5.95-1.64-10.72-7.47-13.51-6.79-3.26-14.23-3.77-19.77-9.07-9.48-9.05,1.26-15.88,7.33-22.65a16.4,16.4,0,0,0,1.92-20c-4-6.39-12.66-9-20.33-9.11a35.35,35.35,0,0,0-6.17.61c-2.71.47-1.56,4.18,1.14,3.72,9.35-1.6,20.62,1.24,23.33,10.42,2.76,9.38-6.73,14.12-11.86,20.6-5.75,7.26-3.44,15,3.47,20.84,5.22,4.45,12.56,5.24,18.79,8,7.35,3.25,6.88,11.74,2,16.89-4.53,4.79-10,8.09-11.87,14.5a17.53,17.53,0,0,0,7,19.1c5.91,4.24,13.89,5.51,21.24,5.92,1.14.07,2.29.08,3.43.09a1.93,1.93,0,1,0,0-3.86Z"/><path class="e" d="M427.88,121.55c12.36-1.64,24.7-.46,37,.78,10.46,1,20.82,2.64,31.16,4.44-.43-.94-.85-1.89-1.28-2.83-5.55,10.85-13,20.68-20.84,30.25-6.56,7.94-14.83,14.53-21.44,22.41h3.69c-12.91-17-20.7-37.67-27.24-57.31-.79-2.37-4.92-1.36-4.13,1,6.64,19.91,14.59,40.93,27.68,58.22a2.3,2.3,0,0,0,3.69,0c6.34-7.55,14.31-13.83,20.63-21.43,8.19-9.85,15.92-20,21.65-31.23a1.9,1.9,0,0,0-1.27-2.83c-10.16-1.77-20.35-3.39-30.64-4.41-13.33-1.32-26.47-2.58-39.83-.81-2.72.36-1.56,4.07,1.14,3.72Z"/><path class="e" d="M638.55,199.86a95.48,95.48,0,0,0,7.31-11c3.72-6,7.61-11.88,11.81-17.61a1.79,1.79,0,0,0-.34-2.34c-8.77-7.52-21.39-10.13-32.11-14.59-1-.4-2.41-.33-2.92.69a277.74,277.74,0,0,1-16.39,28.09c-1.42,2.14,2.28,4.08,3.69,2A278.85,278.85,0,0,0,626,157l-2.93.69c10.33,4.3,22.82,6.76,31.25,14l-.34-2.34c-4.2,5.73-8.07,11.63-11.81,17.62a94.84,94.84,0,0,1-7.3,11c-1.66,2,2,3.91,3.69,2Z"/><path class="e" d="M517.8,287.87l40-11.78a2,2,0,1,0-1.13-3.72l-40,11.78a2,2,0,1,0,1.14,3.72Z"/><path class="e" d="M512.87,275.85l40.49-11.94a2,2,0,1,0-1.13-3.72l-40.5,11.94a2,2,0,1,0,1.14,3.72Z"/><path class="e" d="M579.14,117.74l37.5,17.17c2.45,1.12,4.62-2.2,2.16-3.33l-37.5-17.17c-2.46-1.12-4.62,2.21-2.16,3.33Z"/><path class="e" d="M585.23,106l38,17.39c2.45,1.13,4.61-2.2,2.16-3.33l-38-17.39c-2.46-1.12-4.62,2.2-2.16,3.33Z"/><path class="e" d="M591.26,94l38,17.39c2.45,1.12,4.61-2.21,2.15-3.33l-38-17.39c-2.46-1.13-4.62,2.2-2.16,3.33Z"/><path class="e" d="M501,102.66c2.33-7.56,4-15.32,5.82-23l-3.57.86c6.93,6,14.1,11.87,20.39,18.39a2.28,2.28,0,0,0,3.36-.39c3.49-6.93,7.84-13.54,10.41-20.83l-3.57.85c6.8,5.62,12.07,13.07,20.09,17.39a2.31,2.31,0,0,0,2.59-.3c5.19-5.91,6.36-13.68,9.29-20.56,1-2.33-3.14-3.33-4.12-1-2.62,6.14-3.57,13.6-8.19,18.86l2.59-.3c-7.66-4.12-12.72-11.42-19.23-16.78a2.25,2.25,0,0,0-3.57.85c-2.46,7-6.65,13.27-10,19.9l3.36-.39c-6.3-6.52-13.47-12.43-20.39-18.39-1.11-1-3.23-.62-3.58.85-1.82,7.67-3.49,15.43-5.82,23-.75,2.4,3.38,3.42,4.12,1Z"/><path class="e" d="M491.79,172.08c-6.74,7.12-9.73,17.45.13,23.54a15.21,15.21,0,0,0,12.47,1.31c4.85-1.75,7.74-6.51,10.18-10.38,1.37-2.16-2.33-4.1-3.69-1.94-3.43,5.42-6.83,10.53-14.53,8.69-10.39-2.48-6.32-13.44-1.54-18.5,1.78-1.88-1.23-4.62-3-2.72Z"/><path class="e" d="M473.9,235.3c5.59-3.82,14.22-1.84,20.46-.66,8.07,1.53,16,3.72,24.17,4.73,6.36.78,12.53.54,17.54-3.45a13.68,13.68,0,0,0,4.46-14.84c-1.89-5.41-8.24-7.76-14.1-7.28-7,.57-12.1,5.54-16,10.32-3.63,4.44-6.36,9.4-10,13.85-5.34,6.56-10,16-20.75,14.55-2.7-.36-3.86,3.36-1.14,3.72a19.26,19.26,0,0,0,17.52-6.16A112,112,0,0,0,507.24,236c3.36-4.86,6.28-9.93,10.77-14.06s13.28-6.89,17.66-1.14c3.56,4.67-.08,11.3-4.88,13.86-5.64,3-14.39.65-20.26-.54-7.39-1.49-14.68-3.4-22.19-4.34-5.49-.69-11.94-1-16.6,2.2-2.17,1.48,0,4.83,2.16,3.33Z"/><path class="e" d="M513.84,162.9a95.62,95.62,0,0,1,7.68-9.46c1.7-1.92-1.3-4.67-3-2.73A102.85,102.85,0,0,0,510.15,161c-1.44,2.12,2.26,4.06,3.69,1.94Z"/><path class="e" d="M404.63,215l38,17.39c2.45,1.12,4.61-2.2,2.16-3.33l-38-17.39c-2.46-1.13-4.62,2.2-2.16,3.33Z"/><path class="e" d="M410.66,203.07l38,17.4c2.45,1.12,4.61-2.21,2.15-3.33l-38-17.4c-2.46-1.12-4.62,2.21-2.16,3.33Z"/><path class="e" d="M375.07,144.79c-6.58,3-13.5,9-9.85,16.16,3.11,6.06,11.78,4.53,17.16,2.67,8-2.75,15.23-7,22.87-10.35a36,36,0,0,1,4.55-1.7c1.81-.52,2.15-.17,3.58,1.05,5.23,4.47-.6,10.11-5.11,12.43-2.39,1.23-.24,4.56,2.16,3.33,6.59-3.39,12.93-11.24,6.78-17.65-2.27-2.36-4.12-3.68-7.53-3.12-3.07.51-6.08,2.08-8.82,3.34-7.65,3.53-15.09,8-23.41,10.11-3.27.83-7.53.68-8.82-2.73-1.79-4.69,4.9-8.54,8.6-10.21,2.46-1.12.3-4.45-2.16-3.33Z"/><ellipse class="d" cx="169.73" cy="221.06" rx="5.76" ry="5.19"/><path class="d" d="M254.57,129.41a3.63,3.63,0,1,1-4,3.61A3.82,3.82,0,0,1,254.57,129.41Z"/><path class="d" d="M328.74,246c0,4.66-4.2,8.44-9.36,8.44S310,250.68,310,246s4.2-8.44,9.36-8.44S328.74,241.37,328.74,246Zm-15.3,0c0,3,2.67,5.36,5.94,5.36s5.94-2.4,5.94-5.36-2.67-5.35-5.94-5.35S313.44,243.07,313.44,246Z"/><path class="e" d="M304.45,267.09c-7.94,0-16.87-1-23.08-5.95-7.24-5.73-5.76-15.62.18-21.5,5-5,9.48-8,10.75-15,1.08-5.94-1.64-10.71-7.47-13.5-6.8-3.26-14.23-3.77-19.78-9.07-9.47-9.06,1.26-15.88,7.34-22.65a16.4,16.4,0,0,0,1.92-20c-4-6.39-12.66-9-20.34-9.11a34.39,34.39,0,0,0-6.16.61c-2.71.47-1.56,4.18,1.14,3.72,9.35-1.6,20.62,1.23,23.33,10.42,2.76,9.38-6.73,14.12-11.86,20.6-5.75,7.25-3.44,15,3.46,20.84,5.23,4.45,12.57,5.24,18.79,8,7.36,3.25,6.89,11.73,2,16.89-4.53,4.78-9.95,8.09-11.88,14.5-2.09,7,.78,14.66,7,19.1,5.92,4.24,13.9,5.51,21.25,5.92,1.14.06,2.29.08,3.43.08a1.93,1.93,0,1,0,0-3.85Z"/><path class="e" d="M133,139.28c12.35-1.63,24.7-.45,37,.79,10.46,1.05,20.82,2.64,31.16,4.44l-1.28-2.84c-5.55,10.86-13,20.69-20.84,30.25-6.56,8-14.83,14.53-21.44,22.42h3.69C148.36,177.29,140.57,156.67,134,137c-.8-2.37-4.92-1.36-4.13,1,6.64,19.91,14.58,40.93,27.68,58.22a2.3,2.3,0,0,0,3.69,0c6.34-7.55,14.31-13.84,20.63-21.43,8.19-9.86,15.91-20,21.65-31.23a1.89,1.89,0,0,0-1.28-2.83c-10.15-1.77-20.35-3.39-30.63-4.41-13.33-1.32-26.47-2.58-39.83-.81-2.72.36-1.56,4.07,1.14,3.71Z"/><path class="e" d="M343.62,217.6a94.11,94.11,0,0,0,7.3-11c3.73-6,7.61-11.88,11.81-17.61a1.78,1.78,0,0,0-.33-2.34c-8.77-7.52-21.39-10.13-32.11-14.59-1-.4-2.41-.33-2.92.69A278.85,278.85,0,0,1,311,200.87c-1.42,2.14,2.28,4.08,3.69,1.94a277.6,277.6,0,0,0,16.39-28.08l-2.93.69c10.33,4.29,22.82,6.75,31.25,14l-.34-2.34c-4.2,5.73-8.07,11.63-11.81,17.62-2.31,3.69-4.46,7.56-7.3,11-1.66,2,2.05,3.9,3.69,1.95Z"/><path class="e" d="M222.87,305.61l40-11.78a2,2,0,1,0-1.13-3.72l-40,11.78a2,2,0,1,0,1.14,3.72Z"/><path class="e" d="M217.94,293.58l40.49-11.93a2,2,0,1,0-1.13-3.72l-40.5,11.93a2,2,0,1,0,1.14,3.72Z"/><path class="e" d="M284.21,135.48l37.5,17.17c2.45,1.12,4.62-2.2,2.16-3.33l-37.5-17.17c-2.46-1.12-4.62,2.2-2.16,3.33Z"/><path class="e" d="M290.3,123.7l38,17.39c2.45,1.12,4.61-2.2,2.15-3.33l-38-17.39c-2.45-1.13-4.61,2.2-2.15,3.33Z"/><path class="e" d="M296.33,111.75l38,17.4c2.45,1.12,4.61-2.21,2.15-3.33l-38-17.4c-2.45-1.12-4.61,2.21-2.15,3.33Z"/><path class="e" d="M206,120.4c2.33-7.56,4-15.32,5.82-23l-3.57.85c6.93,6,14.1,11.88,20.39,18.4a2.28,2.28,0,0,0,3.36-.39c3.49-6.94,7.84-13.54,10.41-20.83l-3.57.85c6.8,5.62,12.07,13.07,20.09,17.39a2.3,2.3,0,0,0,2.59-.31c5.19-5.9,6.36-13.68,9.29-20.56,1-2.32-3.14-3.32-4.12-1-2.62,6.13-3.57,13.6-8.19,18.86l2.59-.31c-7.66-4.12-12.73-11.41-19.23-16.77a2.25,2.25,0,0,0-3.57.85c-2.46,7-6.65,13.27-10,19.9l3.35-.39c-6.29-6.52-13.46-12.43-20.39-18.39-1.1-1-3.22-.62-3.57.85-1.82,7.67-3.49,15.43-5.83,23-.74,2.4,3.39,3.42,4.13,1Z"/><path class="e" d="M196.86,189.81c-6.74,7.13-9.73,17.46.13,23.55a15.29,15.29,0,0,0,12.47,1.31c4.85-1.75,7.74-6.52,10.18-10.38,1.37-2.16-2.33-4.1-3.69-1.94-3.43,5.42-6.83,10.53-14.53,8.69-10.39-2.48-6.32-13.44-1.54-18.5,1.78-1.88-1.23-4.62-3-2.73Z"/><path class="e" d="M179,253c5.59-3.82,14.22-1.84,20.46-.66,8.07,1.53,16,3.72,24.17,4.73,6.36.78,12.53.53,17.54-3.46a13.67,13.67,0,0,0,4.46-14.83c-1.89-5.41-8.24-7.76-14.1-7.28-7,.56-12.1,5.54-16,10.32-3.62,4.44-6.35,9.4-10,13.85-5.34,6.56-10,16-20.75,14.55-2.7-.36-3.86,3.36-1.14,3.72a19.31,19.31,0,0,0,17.52-6.16,111,111,0,0,0,11.14-14.09c3.36-4.86,6.29-9.93,10.78-14.06s13.28-6.9,17.66-1.15c3.56,4.68-.08,11.31-4.88,13.87-5.65,3-14.39.64-20.27-.54-7.38-1.49-14.67-3.4-22.18-4.34-5.49-.69-11.94-1-16.6,2.2-2.17,1.48-.05,4.83,2.16,3.33Z"/><path class="e" d="M218.91,180.64a94.48,94.48,0,0,1,7.68-9.46c1.7-1.92-1.3-4.67-3-2.73a102.47,102.47,0,0,0-8.34,10.24c-1.44,2.13,2.25,4.07,3.69,1.95Z"/><path class="e" d="M109.7,232.75l38,17.4c2.45,1.12,4.61-2.21,2.15-3.33l-38-17.4c-2.45-1.12-4.61,2.21-2.15,3.33Z"/><path class="e" d="M115.73,220.81l38,17.39c2.45,1.13,4.61-2.2,2.15-3.33l-38-17.39c-2.45-1.12-4.61,2.21-2.15,3.33Z"/><path class="e" d="M80.14,162.52c-6.58,3-13.5,9-9.85,16.16,3.1,6.06,11.78,4.54,17.16,2.68,8-2.75,15.23-7,22.87-10.35a36,36,0,0,1,4.55-1.7c1.81-.53,2.15-.17,3.58,1.05,5.23,4.47-.6,10.11-5.11,12.43-2.39,1.23-.24,4.56,2.16,3.33,6.59-3.4,12.92-11.24,6.78-17.65-2.27-2.36-4.12-3.68-7.54-3.12-3.06.51-6.07,2.08-8.82,3.34-7.64,3.53-15.08,8-23.4,10.11-3.27.83-7.53.67-8.83-2.73-1.79-4.69,4.91-8.54,8.61-10.22,2.46-1.11.29-4.44-2.16-3.33Z"/><path class="d" d="M40.36,272.63c0,4.65-4.2,8.44-9.36,8.44s-9.35-3.79-9.35-8.44,4.19-8.44,9.35-8.44S40.36,268,40.36,272.63Zm-15.29,0c0,2.95,2.66,5.35,5.93,5.35s5.94-2.4,5.94-5.35-2.66-5.36-5.94-5.36A5.68,5.68,0,0,0,25.07,272.63Z"/><path class="e" d="M16.07,293.69c-7.94,0-16.87-1-23.07-5.94-7.24-5.73-5.77-15.62.17-21.5,5-5,9.48-8,10.75-15,1.08-5.94-1.64-10.71-7.46-13.51-6.8-3.26-14.23-3.76-19.78-9.06C-32.8,219.6-22.06,212.78-16,206a16.4,16.4,0,0,0,1.92-20c-4-6.39-12.66-9-20.33-9.1a33.61,33.61,0,0,0-6.17.61c-2.7.46-1.56,4.18,1.14,3.72,9.36-1.6,20.62,1.23,23.33,10.42,2.76,9.38-6.73,14.12-11.86,20.6-5.75,7.25-3.44,14.95,3.47,20.83,5.22,4.45,12.56,5.25,18.79,8,7.35,3.26,6.88,11.74,2,16.89-4.53,4.79-9.95,8.1-11.87,14.51-2.09,7,.78,14.66,7,19.1,5.92,4.23,13.89,5.51,21.24,5.92,1.14.06,2.29.07,3.43.08a1.93,1.93,0,1,0,0-3.86Z"/><path class="e" d="M55.24,244.2c2.84-3.39,5-7.26,7.31-11,3.73-6,7.61-11.89,11.81-17.62a1.78,1.78,0,0,0-.34-2.33c-8.76-7.53-21.38-10.13-32.11-14.59-1-.41-2.41-.33-2.92.69A277.6,277.6,0,0,1,22.6,227.47c-1.42,2.14,2.28,4.08,3.69,1.95a278.7,278.7,0,0,0,16.39-28.08l-2.93.69c10.33,4.29,22.82,6.75,31.25,14l-.33-2.34c-4.21,5.73-8.08,11.63-11.82,17.61a94.11,94.11,0,0,1-7.3,11c-1.66,2,2.05,3.9,3.69,1.94Z"/><path class="e" d="M-4.17,162.09l37.5,17.17c2.46,1.12,4.62-2.21,2.16-3.33L-2,158.76c-2.45-1.13-4.62,2.2-2.16,3.33Z"/><path class="e" d="M1.92,150.31l38,17.39c2.45,1.12,4.62-2.21,2.16-3.33L4.08,147c-2.46-1.12-4.62,2.21-2.16,3.34Z"/><path class="e" d="M8,138.36l38,17.39c2.45,1.13,4.62-2.2,2.16-3.33L10.11,135c-2.46-1.12-4.62,2.21-2.16,3.33Z"/><path class="d" d="M25.18,404.41a5.22,5.22,0,1,1,0,10.39,5.22,5.22,0,1,1,0-10.39Z"/><path class="d" d="M110,318a3.63,3.63,0,1,1-4,3.61A3.82,3.82,0,0,1,110,318Z"/><path class="d" d="M184.18,434.57c0,4.66-4.19,8.44-9.35,8.44s-9.36-3.78-9.36-8.44,4.2-8.44,9.36-8.44S184.18,429.92,184.18,434.57Zm-15.29,0a6,6,0,0,0,11.87,0c0-2.95-2.66-5.35-5.93-5.35S168.89,431.62,168.89,434.57Z"/><path class="e" d="M159.9,455.64c-7.94-.05-16.88-1.05-23.08-5.95-7.24-5.73-5.77-15.62.17-21.5,5-5,9.49-8,10.76-15,1.07-5.94-1.65-10.71-7.47-13.5-6.8-3.26-14.23-3.77-19.78-9.07-9.47-9.06,1.26-15.88,7.34-22.65a16.42,16.42,0,0,0,1.92-20c-4-6.39-12.67-9-20.34-9.11a34.3,34.3,0,0,0-6.16.61c-2.71.47-1.56,4.18,1.13,3.72,9.36-1.6,20.63,1.23,23.33,10.42,2.76,9.38-6.73,14.12-11.86,20.6-5.75,7.25-3.43,15,3.47,20.84,5.22,4.45,12.57,5.24,18.79,8,7.36,3.25,6.88,11.74,2,16.89-4.54,4.78-10,8.09-11.88,14.5-2.09,7,.78,14.66,7,19.1,5.92,4.24,13.9,5.51,21.24,5.92,1.15.06,2.29.08,3.44.08a1.93,1.93,0,1,0,0-3.85Z"/><path class="e" d="M-11.61,327.84c12.36-1.64,24.71-.46,37,.78,10.46,1.05,20.82,2.64,31.15,4.44-.42-.95-.85-1.89-1.27-2.83-5.55,10.85-13,20.68-20.85,30.24C27.91,368.42,19.64,375,13,382.89h3.7C3.81,365.84-4,345.22-10.53,325.58c-.79-2.37-4.91-1.36-4.12,1C-8,346.52-.07,367.54,13,384.83a2.31,2.31,0,0,0,3.7,0C23.05,377.28,31,371,37.34,363.4c8.2-9.86,15.92-20,21.66-31.23a1.9,1.9,0,0,0-1.28-2.83c-10.15-1.77-20.35-3.39-30.63-4.41-13.33-1.32-26.48-2.58-39.83-.81-2.72.36-1.56,4.07,1.13,3.72Z"/><path class="e" d="M199.07,406.15a94.11,94.11,0,0,0,7.3-11c3.73-6,7.61-11.88,11.81-17.61a1.79,1.79,0,0,0-.33-2.34c-8.77-7.52-21.39-10.13-32.11-14.59-1-.4-2.41-.33-2.93.69a278.75,278.75,0,0,1-16.38,28.09c-1.42,2.14,2.28,4.08,3.69,1.94a275.63,275.63,0,0,0,16.38-28.08l-2.92.69c10.32,4.29,22.82,6.75,31.24,14l-.33-2.34c-4.2,5.73-8.07,11.63-11.81,17.62-2.31,3.69-4.46,7.56-7.31,11-1.66,2,2.06,3.91,3.7,1.95Z"/><path class="e" d="M78.31,494.16l40-11.78a2,2,0,1,0-1.14-3.72l-40,11.78a2,2,0,1,0,1.13,3.72Z"/><path class="e" d="M73.38,482.13l40.5-11.93a2,2,0,1,0-1.14-3.72L72.25,478.41a2,2,0,1,0,1.13,3.72Z"/><path class="e" d="M139.66,324l37.5,17.17c2.45,1.12,4.61-2.2,2.16-3.33L141.81,320.7c-2.45-1.12-4.61,2.2-2.15,3.33Z"/><path class="e" d="M145.74,312.25l38,17.39c2.46,1.12,4.62-2.2,2.16-3.33l-38-17.39c-2.45-1.13-4.62,2.2-2.16,3.33Z"/><path class="e" d="M151.77,300.3l38,17.4c2.46,1.12,4.62-2.21,2.16-3.33l-38-17.4c-2.45-1.12-4.62,2.21-2.16,3.33Z"/><path class="e" d="M61.46,309c2.34-7.56,4-15.32,5.83-23l-3.57.85c6.92,6,14.09,11.88,20.39,18.4a2.28,2.28,0,0,0,3.36-.39C91,297.87,95.31,291.27,97.88,284l-3.58.85c6.81,5.62,12.07,13.07,20.1,17.39a2.3,2.3,0,0,0,2.59-.31c5.19-5.9,6.36-13.68,9.29-20.56,1-2.32-3.15-3.32-4.13-1-2.61,6.13-3.56,13.6-8.18,18.86l2.59-.3c-7.66-4.13-12.73-11.42-19.23-16.78a2.26,2.26,0,0,0-3.58.85c-2.45,7-6.64,13.27-10,19.9l3.36-.39C80.84,296,73.67,290,66.74,284.08c-1.1-.95-3.22-.62-3.57.85-1.83,7.67-3.49,15.43-5.83,23-.74,2.4,3.39,3.42,4.12,1Z"/><path class="e" d="M52.3,378.36c-6.74,7.13-9.73,17.46.13,23.55a15.29,15.29,0,0,0,12.47,1.31c4.85-1.75,7.74-6.52,10.19-10.38,1.36-2.16-2.33-4.1-3.7-1.94-3.43,5.42-6.83,10.53-14.52,8.69-10.4-2.48-6.33-13.44-1.54-18.5,1.78-1.88-1.23-4.62-3-2.73Z"/><path class="e" d="M34.41,441.59c5.59-3.82,14.22-1.84,20.46-.66,8.07,1.53,16,3.72,24.18,4.73,6.35.78,12.52.53,17.54-3.46a13.69,13.69,0,0,0,4.46-14.83c-1.89-5.41-8.24-7.76-14.1-7.28-7,.56-12.1,5.54-16,10.32-3.62,4.44-6.35,9.4-10,13.85-5.35,6.56-10,16-20.76,14.55-2.69-.36-3.85,3.36-1.13,3.72,7.21,1,12.78-1.27,17.52-6.16a112.83,112.83,0,0,0,11.14-14.09c3.36-4.86,6.28-9.93,10.78-14.06s13.28-6.9,17.66-1.15c3.56,4.68-.08,11.31-4.88,13.87-5.65,3-14.39.64-20.27-.54-7.39-1.49-14.68-3.4-22.19-4.34-5.49-.69-11.93-1-16.6,2.2-2.16,1.48,0,4.83,2.16,3.33Z"/><path class="e" d="M74.36,369.19A93,93,0,0,1,82,359.73c1.71-1.92-1.3-4.67-3-2.73a102.47,102.47,0,0,0-8.34,10.24c-1.45,2.13,2.25,4.07,3.69,1.95Z"/><path class="e" d="M-34.86,421.31l38,17.39c2.46,1.12,4.62-2.21,2.16-3.33l-38-17.4c-2.45-1.12-4.62,2.21-2.16,3.34Z"/><path class="e" d="M-28.83,409.36l38,17.39c2.46,1.13,4.62-2.2,2.16-3.33l-38-17.39c-2.45-1.12-4.62,2.21-2.16,3.33Z"/><ellipse class="d" cx="322.66" cy="380.7" rx="5.76" ry="5.19"/><path class="d" d="M407.5,289.05a3.63,3.63,0,1,1-4,3.62A3.82,3.82,0,0,1,407.5,289.05Z"/><path class="d" d="M481.66,405.67c0,4.65-4.19,8.44-9.35,8.44s-9.36-3.79-9.36-8.44,4.2-8.45,9.36-8.45S481.66,401,481.66,405.67Zm-15.29,0c0,2.95,2.66,5.35,5.94,5.35s5.93-2.4,5.93-5.35a6,6,0,0,0-11.87,0Z"/><path class="e" d="M457.38,426.73c-7.94-.05-16.88-1-23.08-6-7.24-5.72-5.77-15.61.17-21.49,5-5,9.49-8,10.76-15,1.07-5.95-1.65-10.72-7.47-13.51C431,367.5,423.53,367,418,361.69c-9.47-9.05,1.26-15.88,7.34-22.65a16.42,16.42,0,0,0,1.92-20c-4-6.39-12.67-9-20.34-9.11a34.4,34.4,0,0,0-6.16.62c-2.71.46-1.56,4.18,1.13,3.72,9.36-1.6,20.63,1.23,23.33,10.41,2.76,9.38-6.73,14.13-11.86,20.6-5.75,7.26-3.43,15,3.47,20.84,5.22,4.45,12.57,5.25,18.79,8,7.36,3.26,6.88,11.74,2,16.89-4.53,4.79-10,8.1-11.88,14.5-2.09,7,.78,14.67,7,19.1,5.92,4.24,13.9,5.52,21.24,5.92,1.15.07,2.29.08,3.44.09a1.93,1.93,0,1,0,0-3.86Z"/><path class="e" d="M285.87,298.93c12.36-1.64,24.71-.46,37,.78,10.46,1.05,20.82,2.64,31.16,4.44-.43-.94-.86-1.89-1.28-2.83-5.55,10.85-13,20.69-20.85,30.25-6.55,7.94-14.82,14.53-21.44,22.41h3.7c-12.91-17.05-20.71-37.67-27.25-57.3-.79-2.38-4.91-1.37-4.12,1,6.63,19.91,14.58,40.93,27.67,58.23a2.32,2.32,0,0,0,3.7,0c6.33-7.56,14.31-13.84,20.62-21.44,8.2-9.85,15.92-20,21.66-31.22a1.91,1.91,0,0,0-1.28-2.84c-10.15-1.77-20.35-3.39-30.63-4.41-13.33-1.32-26.48-2.58-39.83-.81-2.72.36-1.56,4.08,1.13,3.72Z"/><path class="e" d="M496.55,377.24a94.84,94.84,0,0,0,7.3-11c3.73-6,7.61-11.89,11.81-17.62a1.79,1.79,0,0,0-.33-2.34c-8.77-7.52-21.39-10.13-32.11-14.59-1-.4-2.41-.33-2.93.7a278.61,278.61,0,0,1-16.38,28.08c-1.42,2.14,2.28,4.08,3.69,1.95A276.87,276.87,0,0,0,484,334.37l-2.92.69c10.32,4.3,22.82,6.76,31.24,14l-.33-2.34c-4.2,5.73-8.07,11.64-11.81,17.62-2.31,3.7-4.46,7.57-7.31,11-1.66,2,2.06,3.91,3.7,1.95Z"/><path class="e" d="M375.79,465.25l40-11.78a2,2,0,1,0-1.14-3.72l-40,11.78a2,2,0,1,0,1.13,3.72Z"/><path class="e" d="M370.86,453.23l40.5-11.94a2,2,0,1,0-1.14-3.72l-40.49,11.94a2,2,0,1,0,1.13,3.72Z"/><path class="e" d="M437.14,295.12l37.5,17.17c2.45,1.13,4.61-2.2,2.16-3.33l-37.51-17.17c-2.45-1.12-4.61,2.21-2.15,3.33Z"/><path class="e" d="M443.22,283.34l38,17.39c2.46,1.13,4.62-2.2,2.16-3.33l-38-17.39c-2.45-1.12-4.61,2.21-2.16,3.33Z"/><path class="e" d="M449.25,271.4l38,17.39c2.46,1.12,4.62-2.2,2.16-3.33l-38-17.39c-2.45-1.13-4.62,2.2-2.16,3.33Z"/><path class="e" d="M359,280c2.33-7.56,4-15.32,5.82-23l-3.57.85c6.92,6,14.1,11.87,20.39,18.39a2.28,2.28,0,0,0,3.36-.39c3.49-6.93,7.84-13.54,10.41-20.82l-3.58.85c6.81,5.61,12.07,13.06,20.1,17.38a2.32,2.32,0,0,0,2.59-.3c5.19-5.91,6.36-13.68,9.29-20.56,1-2.33-3.15-3.32-4.13-1-2.61,6.14-3.56,13.6-8.18,18.86L414,270c-7.66-4.12-12.73-11.42-19.23-16.78a2.26,2.26,0,0,0-3.58.85c-2.45,7-6.64,13.27-10,19.91l3.36-.4c-6.29-6.51-13.46-12.42-20.39-18.39-1.1-.95-3.22-.62-3.57.85-1.83,7.67-3.49,15.43-5.83,23-.74,2.41,3.39,3.42,4.13,1Z"/><path class="e" d="M349.78,349.46c-6.74,7.12-9.73,17.45.13,23.54a15.23,15.23,0,0,0,12.48,1.31c4.84-1.75,7.73-6.51,10.18-10.37,1.36-2.17-2.33-4.11-3.7-1.95-3.43,5.42-6.83,10.53-14.52,8.69-10.4-2.48-6.33-13.44-1.54-18.5,1.78-1.88-1.23-4.62-3-2.72Z"/><path class="e" d="M331.89,412.68c5.59-3.82,14.22-1.84,20.46-.66,8.07,1.53,16,3.73,24.18,4.73,6.35.78,12.52.54,17.54-3.45a13.68,13.68,0,0,0,4.46-14.84c-1.89-5.41-8.24-7.76-14.1-7.28-7,.57-12.1,5.54-16,10.32-3.62,4.44-6.35,9.4-10,13.85-5.35,6.56-10,16-20.76,14.56-2.69-.36-3.85,3.35-1.13,3.72,7.21,1,12.78-1.27,17.52-6.17a111.92,111.92,0,0,0,11.14-14.09c3.36-4.86,6.28-9.93,10.78-14.06s13.28-6.89,17.66-1.14c3.56,4.68-.08,11.3-4.88,13.86-5.65,3-14.39.65-20.27-.54-7.39-1.48-14.68-3.39-22.19-4.34-5.49-.69-11.93-1-16.6,2.2-2.16,1.48,0,4.83,2.16,3.33Z"/><path class="e" d="M371.84,340.28a94.11,94.11,0,0,1,7.67-9.46c1.71-1.92-1.3-4.67-3-2.73a102.59,102.59,0,0,0-8.34,10.25c-1.45,2.13,2.25,4.06,3.69,1.94Z"/><path class="e" d="M262.62,392.4l38,17.39c2.46,1.12,4.62-2.2,2.16-3.33l-38-17.39c-2.45-1.12-4.61,2.2-2.16,3.33Z"/><path class="e" d="M268.65,380.46l38,17.39c2.46,1.12,4.62-2.21,2.16-3.33l-38-17.4c-2.45-1.12-4.62,2.21-2.16,3.34Z"/><path class="e" d="M233.06,322.17c-6.57,3-13.5,9-9.84,16.16,3.1,6.06,11.78,4.53,17.16,2.68,8-2.76,15.22-7,22.86-10.36a37.73,37.73,0,0,1,4.56-1.7c1.81-.52,2.15-.17,3.57,1.05,5.24,4.47-.59,10.11-5.1,12.43-2.4,1.23-.24,4.57,2.16,3.33,6.59-3.39,12.92-11.24,6.77-17.64-2.27-2.37-4.11-3.69-7.53-3.13-3.07.51-6.08,2.08-8.82,3.35-7.65,3.52-15.08,8-23.41,10.1-3.26.84-7.52.68-8.82-2.73-1.79-4.69,4.91-8.54,8.6-10.21,2.47-1.12.3-4.44-2.16-3.33Z"/><path class="d" d="M178.47,559.79a5.22,5.22,0,1,1-5.76,5.19A5.5,5.5,0,0,1,178.47,559.79Z"/><path class="d" d="M263.31,473.33a3.63,3.63,0,1,1-4,3.62A3.82,3.82,0,0,1,263.31,473.33Z"/><path class="d" d="M337.48,590c0,4.65-4.2,8.44-9.36,8.44s-9.36-3.79-9.36-8.44,4.2-8.45,9.36-8.45S337.48,585.29,337.48,590Zm-15.3,0c0,2.95,2.67,5.35,5.94,5.35s5.93-2.4,5.93-5.35a5.67,5.67,0,0,0-5.93-5.36C324.85,584.59,322.18,587,322.18,590Z"/><path class="e" d="M313.19,611c-7.94,0-16.88-1-23.08-6-7.24-5.72-5.76-15.61.18-21.49,5-5,9.48-8,10.75-15,1.07-5.95-1.65-10.72-7.47-13.51-6.8-3.26-14.23-3.77-19.78-9.07-9.47-9.05,1.26-15.88,7.34-22.65a16.4,16.4,0,0,0,1.92-20c-4-6.39-12.67-9-20.34-9.11a34.4,34.4,0,0,0-6.16.62c-2.71.46-1.56,4.18,1.14,3.72,9.35-1.6,20.62,1.23,23.32,10.41,2.77,9.38-6.72,14.13-11.86,20.6-5.75,7.26-3.43,15,3.47,20.84,5.23,4.45,12.57,5.25,18.79,8,7.36,3.26,6.89,11.74,2,16.89-4.53,4.79-10,8.1-11.88,14.5-2.09,7,.78,14.67,7,19.1,5.92,4.24,13.9,5.52,21.24,5.92,1.15.07,2.29.08,3.44.09a1.93,1.93,0,1,0,0-3.86Z"/><path class="e" d="M141.68,483.21c12.36-1.64,24.71-.46,37,.78,10.46,1.05,20.82,2.64,31.16,4.44-.43-.94-.86-1.89-1.28-2.83-5.55,10.85-13,20.69-20.85,30.25-6.55,7.94-14.82,14.53-21.43,22.41H170c-12.91-17-20.71-37.67-27.25-57.3-.79-2.38-4.91-1.37-4.12,1,6.63,19.91,14.58,40.93,27.68,58.23a2.31,2.31,0,0,0,3.69,0c6.34-7.56,14.31-13.84,20.63-21.44,8.19-9.85,15.91-20,21.65-31.23a1.9,1.9,0,0,0-1.28-2.83c-10.15-1.77-20.35-3.39-30.63-4.41-13.33-1.32-26.48-2.58-39.83-.81-2.72.36-1.56,4.07,1.13,3.72Z"/><path class="e" d="M352.36,561.52a94.84,94.84,0,0,0,7.3-11c3.73-6,7.61-11.89,11.81-17.62a1.79,1.79,0,0,0-.33-2.34c-8.77-7.52-21.39-10.13-32.11-14.59-1-.4-2.41-.33-2.93.7a278.61,278.61,0,0,1-16.38,28.08c-1.42,2.14,2.28,4.08,3.69,2a278.85,278.85,0,0,0,16.39-28.09l-2.93.69c10.32,4.3,22.82,6.76,31.25,14l-.34-2.34c-4.2,5.73-8.07,11.64-11.81,17.62-2.31,3.7-4.46,7.57-7.3,11-1.67,2,2.05,3.91,3.69,1.95Z"/><path class="e" d="M231.61,649.53l40-11.78a2,2,0,1,0-1.14-3.72l-40,11.78a2,2,0,1,0,1.14,3.72Z"/><path class="e" d="M226.68,637.51l40.49-11.94a2,2,0,1,0-1.14-3.72l-40.49,11.94a2,2,0,1,0,1.14,3.72Z"/><path class="e" d="M293,479.4l37.5,17.17c2.45,1.13,4.62-2.2,2.16-3.33L295.1,476.07c-2.45-1.12-4.61,2.21-2.15,3.33Z"/><path class="e" d="M299,467.62,337,485c2.46,1.13,4.62-2.2,2.16-3.33l-38-17.39c-2.45-1.12-4.61,2.21-2.15,3.33Z"/><path class="e" d="M305.07,455.68l38,17.39c2.46,1.12,4.62-2.2,2.16-3.33l-38-17.39c-2.45-1.13-4.61,2.2-2.15,3.33Z"/><path class="e" d="M214.76,464.32c2.33-7.56,4-15.32,5.82-23l-3.57.85c6.92,6,14.1,11.87,20.39,18.39a2.28,2.28,0,0,0,3.36-.39c3.49-6.93,7.84-13.54,10.41-20.82l-3.58.85c6.81,5.61,12.08,13.06,20.1,17.38a2.31,2.31,0,0,0,2.59-.3c5.19-5.91,6.36-13.68,9.29-20.56,1-2.33-3.15-3.33-4.12-1-2.62,6.14-3.57,13.6-8.19,18.86l2.59-.3c-7.66-4.12-12.73-11.42-19.23-16.78a2.26,2.26,0,0,0-3.58.85c-2.45,7-6.64,13.27-10,19.9l3.35-.39c-6.29-6.51-13.46-12.42-20.39-18.39-1.1-.95-3.22-.62-3.57.85-1.82,7.67-3.49,15.43-5.83,23-.74,2.4,3.39,3.42,4.13,1Z"/><path class="e" d="M205.6,533.74c-6.75,7.12-9.73,17.45.12,23.54a15.24,15.24,0,0,0,12.48,1.31c4.84-1.75,7.73-6.51,10.18-10.37,1.37-2.17-2.33-4.11-3.69-2-3.43,5.42-6.84,10.53-14.53,8.69-10.39-2.48-6.32-13.44-1.54-18.5,1.78-1.88-1.23-4.62-3-2.72Z"/><path class="e" d="M187.7,597c5.6-3.82,14.23-1.84,20.46-.66,8.08,1.53,16,3.73,24.18,4.73,6.35.78,12.53.54,17.54-3.45a13.68,13.68,0,0,0,4.46-14.84c-1.89-5.41-8.24-7.76-14.1-7.28-7,.57-12.1,5.54-16,10.32-3.62,4.44-6.35,9.4-10,13.85-5.35,6.56-10,16-20.76,14.56-2.69-.36-3.85,3.35-1.13,3.72,7.21,1,12.78-1.27,17.52-6.17A111,111,0,0,0,221,597.65c3.36-4.86,6.29-9.93,10.78-14.06s13.28-6.89,17.66-1.14c3.56,4.67-.08,11.3-4.88,13.86-5.65,3-14.39.65-20.27-.54-7.38-1.49-14.67-3.39-22.19-4.34-5.48-.69-11.93-1-16.59,2.2-2.17,1.48-.05,4.83,2.15,3.33Z"/><path class="e" d="M227.65,524.56a95.62,95.62,0,0,1,7.68-9.46c1.7-1.92-1.31-4.67-3-2.73A102.59,102.59,0,0,0,224,522.62c-1.45,2.13,2.25,4.06,3.69,1.94Z"/><path class="e" d="M118.44,576.68l38,17.39c2.46,1.12,4.62-2.2,2.16-3.33l-38-17.39c-2.45-1.13-4.61,2.2-2.15,3.33Z"/><path class="e" d="M124.47,564.73l38,17.4c2.46,1.12,4.62-2.21,2.16-3.33l-38-17.4c-2.45-1.12-4.61,2.21-2.15,3.33Z"/><path class="e" d="M88.88,506.45c-6.58,3-13.51,9-9.85,16.16,3.1,6.06,11.78,4.53,17.16,2.68,8-2.76,15.23-7,22.87-10.36a37,37,0,0,1,4.55-1.7c1.81-.52,2.15-.17,3.58,1,5.23,4.47-.6,10.11-5.11,12.43-2.39,1.23-.24,4.56,2.16,3.33,6.59-3.39,12.92-11.24,6.78-17.64-2.27-2.37-4.12-3.69-7.54-3.13-3.06.51-6.08,2.08-8.82,3.35-7.65,3.52-15.08,8-23.41,10.1-3.26.84-7.52.68-8.82-2.73-1.79-4.69,4.91-8.54,8.6-10.21,2.47-1.12.3-4.45-2.15-3.33Z"/><ellipse class="d" cx="32.1" cy="742.36" rx="5.76" ry="5.19"/><path class="d" d="M116.93,650.71a3.63,3.63,0,1,1-4,3.62A3.83,3.83,0,0,1,116.93,650.71Z"/><path class="d" d="M191.1,767.33c0,4.65-4.2,8.44-9.35,8.44s-9.36-3.79-9.36-8.44,4.2-8.44,9.36-8.44S191.1,762.67,191.1,767.33Zm-15.29,0c0,2.95,2.66,5.35,5.94,5.35s5.93-2.4,5.93-5.35a6,6,0,0,0-11.87,0Z"/><path class="e" d="M166.82,788.39c-7.95,0-16.88-1-23.08-5.95-7.24-5.72-5.77-15.61.17-21.49,5-5,9.49-8,10.75-15,1.08-5.95-1.64-10.72-7.46-13.51-6.8-3.26-14.23-3.76-19.78-9.07-9.47-9.05,1.26-15.88,7.34-22.65a16.41,16.41,0,0,0,1.92-20c-4-6.39-12.67-9-20.34-9.11a34.31,34.31,0,0,0-6.16.62c-2.71.46-1.56,4.18,1.13,3.72,9.36-1.6,20.63,1.23,23.33,10.41,2.76,9.38-6.73,14.13-11.86,20.6-5.75,7.26-3.44,15,3.47,20.84,5.22,4.45,12.56,5.25,18.79,8,7.36,3.26,6.88,11.74,2,16.89-4.54,4.79-10,8.1-11.88,14.51-2.09,7,.78,14.66,7,19.09,5.92,4.24,13.89,5.52,21.24,5.93,1.14.06,2.29.07,3.44.08a1.93,1.93,0,1,0,0-3.86Z"/><path class="e" d="M-4.69,660.59c12.36-1.63,24.71-.46,37,.78,10.47,1,20.83,2.64,31.16,4.44L62.23,663c-5.55,10.85-13,20.69-20.85,30.25-6.55,7.95-14.82,14.53-21.44,22.41h3.69c-12.91-17-20.7-37.67-27.24-57.3-.79-2.38-4.92-1.37-4.12,1,6.63,19.92,14.58,40.94,27.67,58.23a2.31,2.31,0,0,0,3.69,0C30,710,38,703.75,44.26,696.15c8.2-9.85,15.92-20,21.66-31.22a1.91,1.91,0,0,0-1.28-2.84c-10.16-1.77-20.35-3.39-30.63-4.41-13.33-1.32-26.48-2.58-39.84-.81-2.71.36-1.55,4.08,1.14,3.72Z"/><path class="e" d="M206,738.9a94.08,94.08,0,0,0,7.31-11c3.73-6,7.61-11.89,11.81-17.62a1.78,1.78,0,0,0-.33-2.33c-8.77-7.53-21.39-10.14-32.11-14.6-1-.4-2.41-.32-2.93.7a279.4,279.4,0,0,1-16.38,28.08c-1.42,2.14,2.27,4.08,3.69,2A277.65,277.65,0,0,0,193.42,696l-2.92.7c10.32,4.29,22.82,6.75,31.24,14l-.33-2.33c-4.2,5.73-8.08,11.63-11.81,17.61-2.31,3.7-4.47,7.57-7.31,11-1.66,2,2.06,3.91,3.69,1.95Z"/><path class="e" d="M85.23,826.91l40-11.78a2,2,0,1,0-1.14-3.72l-40,11.78a2,2,0,1,0,1.13,3.72Z"/><path class="e" d="M80.3,814.89,120.8,803a2,2,0,1,0-1.14-3.72L79.17,811.17a2,2,0,1,0,1.13,3.72Z"/><path class="e" d="M146.57,656.78,184.08,674c2.45,1.13,4.61-2.2,2.15-3.33l-37.5-17.17c-2.45-1.12-4.62,2.21-2.16,3.33Z"/><path class="e" d="M152.66,645l38,17.4c2.45,1.12,4.62-2.21,2.16-3.33l-38-17.4c-2.45-1.12-4.62,2.21-2.16,3.33Z"/><path class="e" d="M158.69,633.06l38,17.39c2.45,1.13,4.62-2.2,2.16-3.33l-38-17.39c-2.45-1.12-4.62,2.2-2.16,3.33Z"/><path class="e" d="M68.38,641.7c2.34-7.56,4-15.32,5.83-23l-3.57.85c6.92,6,14.09,11.87,20.39,18.39a2.27,2.27,0,0,0,3.35-.39c3.49-6.93,7.84-13.54,10.41-20.82l-3.57.85c6.81,5.61,12.07,13.06,20.1,17.38a2.3,2.3,0,0,0,2.59-.3c5.19-5.91,6.35-13.68,9.29-20.56,1-2.33-3.15-3.32-4.13-1-2.61,6.14-3.56,13.6-8.19,18.86l2.59-.3c-7.65-4.12-12.72-11.41-19.23-16.78a2.26,2.26,0,0,0-3.57.85c-2.46,7-6.64,13.28-10,19.91l3.36-.39c-6.29-6.52-13.47-12.43-20.39-18.4-1.1-1-3.23-.61-3.57.85-1.83,7.67-3.49,15.43-5.83,23-.74,2.4,3.38,3.41,4.12,1Z"/><path class="e" d="M59.22,711.12c-6.74,7.12-9.73,17.46.13,23.54A15.26,15.26,0,0,0,71.82,736c4.85-1.75,7.74-6.52,10.18-10.38,1.37-2.17-2.32-4.11-3.69-2-3.43,5.42-6.83,10.53-14.53,8.7-10.39-2.49-6.32-13.45-1.53-18.5,1.78-1.88-1.23-4.63-3-2.73Z"/><path class="e" d="M41.33,774.34c5.59-3.81,14.22-1.84,20.46-.66,8.07,1.53,16,3.73,24.18,4.73,6.35.78,12.52.54,17.53-3.45A13.66,13.66,0,0,0,108,760.13c-1.88-5.42-8.23-7.77-14.09-7.29-7,.57-12.1,5.54-16,10.32-3.63,4.44-6.36,9.4-10,13.85-5.34,6.57-10,16-20.75,14.56-2.69-.36-3.85,3.35-1.14,3.72a19.32,19.32,0,0,0,17.53-6.17A113.47,113.47,0,0,0,74.67,775C78,770.17,81,765.11,85.45,761s13.28-6.9,17.65-1.15c3.57,4.68-.08,11.31-4.87,13.86-5.65,3-14.4.65-20.27-.54-7.39-1.48-14.68-3.39-22.19-4.34-5.49-.69-11.93-1-16.6,2.2-2.17,1.48,0,4.83,2.16,3.33Z"/><path class="e" d="M81.28,702A93.11,93.11,0,0,1,89,692.48c1.71-1.92-1.3-4.67-3-2.73A103.84,103.84,0,0,0,77.58,700c-1.44,2.13,2.26,4.06,3.7,2Z"/><path class="e" d="M-27.94,754.06l38,17.39c2.45,1.13,4.62-2.2,2.16-3.33l-38-17.39c-2.45-1.12-4.62,2.2-2.16,3.33Z"/><path class="e" d="M-21.91,742.12l38,17.39c2.45,1.12,4.62-2.21,2.16-3.33l-38-17.39c-2.45-1.13-4.62,2.2-2.16,3.33Z"/><path class="d" d="M43.64,606.7c0,4.65-4.2,8.44-9.36,8.44s-9.36-3.79-9.36-8.44,4.2-8.44,9.36-8.44S43.64,602,43.64,606.7Zm-15.3,0c0,2.95,2.67,5.35,5.94,5.35s5.94-2.4,5.94-5.35-2.67-5.36-5.94-5.36S28.34,603.75,28.34,606.7Z"/><path class="e" d="M19.35,627.76c-7.94,0-16.87-1-23.08-5.94-7.24-5.73-5.76-15.62.18-21.5,5-5,9.48-8,10.75-15,1.08-5.94-1.65-10.72-7.47-13.51C-7.07,568.53-14.5,568-20,562.72c-9.47-9.05,1.26-15.87,7.34-22.65a16.4,16.4,0,0,0,1.92-20c-4-6.39-12.66-9-20.34-9.1a33.5,33.5,0,0,0-6.16.61c-2.71.46-1.56,4.18,1.14,3.72,9.35-1.6,20.62,1.23,23.33,10.41,2.76,9.38-6.73,14.13-11.86,20.6-5.75,7.26-3.44,15,3.46,20.84,5.23,4.45,12.57,5.25,18.79,8,7.36,3.26,6.89,11.74,2,16.89-4.53,4.79-9.95,8.1-11.88,14.51-2.09,7,.78,14.66,7,19.09,5.92,4.24,13.9,5.52,21.24,5.93,1.15.06,2.3.07,3.44.08a1.93,1.93,0,1,0,0-3.86Z"/><path class="e" d="M58.52,578.27a93.16,93.16,0,0,0,7.3-11c3.73-6,7.61-11.89,11.81-17.62a1.77,1.77,0,0,0-.33-2.33c-8.77-7.53-21.39-10.13-32.11-14.59-1-.41-2.41-.33-2.93.69a275.63,275.63,0,0,1-16.38,28.08c-1.42,2.14,2.28,4.08,3.69,2A277.74,277.74,0,0,0,46,535.4l-2.93.7c10.33,4.29,22.82,6.75,31.25,14l-.34-2.33c-4.2,5.73-8.07,11.63-11.81,17.61-2.31,3.7-4.46,7.57-7.3,11-1.67,2,2.05,3.9,3.69,1.94Z"/><path class="e" d="M-.89,496.16l37.5,17.17c2.45,1.12,4.62-2.21,2.16-3.33L1.27,492.83c-2.46-1.13-4.62,2.2-2.16,3.33Z"/><path class="e" d="M5.2,484.37l38,17.4c2.45,1.12,4.61-2.21,2.15-3.33L7.35,481c-2.45-1.12-4.61,2.21-2.15,3.33Z"/><path class="e" d="M11.23,472.43l38,17.39c2.45,1.13,4.61-2.2,2.15-3.33l-38-17.39c-2.45-1.12-4.61,2.2-2.15,3.33Z"/><path class="d" d="M753,170.53a5.22,5.22,0,1,1-5.76,5.2A5.5,5.5,0,0,1,753,170.53Z"/><path class="d" d="M837.88,84.08a3.63,3.63,0,1,1-4,3.61A3.82,3.82,0,0,1,837.88,84.08Z"/><path class="e" d="M887.76,221.76c-7.94,0-16.88-1-23.08-5.95-7.24-5.73-5.76-15.62.18-21.5,5-5,9.48-8,10.75-15,1.07-5.94-1.65-10.71-7.47-13.5-6.8-3.26-14.23-3.77-19.78-9.07-9.47-9.06,1.26-15.88,7.34-22.65a16.41,16.41,0,0,0,1.92-20c-4-6.38-12.67-9-20.34-9.1a34.39,34.39,0,0,0-6.16.61c-2.71.46-1.56,4.18,1.14,3.72,9.35-1.6,20.62,1.23,23.32,10.42,2.77,9.38-6.72,14.12-11.86,20.6-5.75,7.25-3.43,15,3.47,20.84,5.23,4.44,12.57,5.24,18.79,8,7.36,3.25,6.89,11.73,2,16.89-4.53,4.78-10,8.09-11.88,14.5-2.09,7,.78,14.66,7,19.1,5.92,4.24,13.9,5.51,21.24,5.92,1.15.06,2.29.08,3.44.08a1.93,1.93,0,1,0,0-3.85Z"/><path class="e" d="M716.25,94c12.36-1.63,24.71-.45,37,.79,10.46,1.05,20.82,2.64,31.16,4.44-.43-1-.86-1.89-1.28-2.84-5.55,10.86-13,20.69-20.85,30.25-6.55,7.95-14.82,14.53-21.43,22.42h3.69c-12.91-17-20.71-37.67-27.24-57.31-.8-2.37-4.92-1.36-4.13,1,6.63,19.91,14.58,40.93,27.68,58.22a2.3,2.3,0,0,0,3.69,0c6.34-7.55,14.31-13.84,20.63-21.43,8.19-9.86,15.91-20,21.65-31.23a1.9,1.9,0,0,0-1.28-2.83c-10.15-1.77-20.35-3.4-30.63-4.41-13.33-1.32-26.48-2.58-39.83-.82-2.72.36-1.56,4.08,1.13,3.72Z"/><path class="e" d="M806.18,260.28l40-11.78a2,2,0,1,0-1.14-3.72l-40,11.78a2,2,0,1,0,1.14,3.72Z"/><path class="e" d="M801.25,248.25l40.49-11.93a2,2,0,1,0-1.14-3.72l-40.49,11.93a2,2,0,1,0,1.14,3.72Z"/><path class="e" d="M867.52,90.15,905,107.32c2.45,1.12,4.62-2.21,2.16-3.33L869.67,86.82c-2.45-1.12-4.61,2.2-2.15,3.33Z"/><path class="e" d="M789.33,75.07c2.33-7.57,4-15.33,5.82-23l-3.57.85c6.92,6,14.1,11.88,20.39,18.4a2.29,2.29,0,0,0,3.36-.39c3.49-6.94,7.84-13.54,10.41-20.83l-3.58.85C829,56.56,834.24,64,842.26,68.33a2.28,2.28,0,0,0,2.59-.3c5.19-5.9,6.36-13.68,9.29-20.56,1-2.32-3.15-3.32-4.12-1-2.62,6.13-3.57,13.6-8.19,18.86l2.59-.31c-7.66-4.12-12.73-11.41-19.23-16.78a2.26,2.26,0,0,0-3.57.86c-2.46,7-6.65,13.27-10,19.9l3.35-.39c-6.29-6.52-13.46-12.43-20.39-18.39-1.1-1-3.22-.62-3.57.85-1.82,7.67-3.49,15.43-5.83,23-.74,2.4,3.39,3.42,4.13,1Z"/><path class="e" d="M780.17,144.48c-6.74,7.13-9.73,17.46.12,23.55a15.32,15.32,0,0,0,12.48,1.31c4.84-1.75,7.73-6.52,10.18-10.38,1.37-2.16-2.33-4.1-3.69-2-3.43,5.43-6.84,10.54-14.53,8.7-10.39-2.48-6.32-13.44-1.54-18.5,1.78-1.88-1.23-4.62-3-2.73Z"/><path class="e" d="M762.27,207.71c5.6-3.82,14.23-1.84,20.46-.66,8.08,1.52,16,3.72,24.18,4.73,6.35.77,12.53.53,17.54-3.46a13.67,13.67,0,0,0,4.46-14.83c-1.89-5.41-8.24-7.76-14.1-7.29-7,.57-12.1,5.55-16,10.32-3.62,4.45-6.35,9.41-10,13.86-5.35,6.56-10,16-20.76,14.55-2.69-.36-3.85,3.36-1.13,3.72a19.3,19.3,0,0,0,17.52-6.17,110.22,110.22,0,0,0,11.14-14.08c3.36-4.86,6.29-9.93,10.78-14.06s13.28-6.9,17.66-1.15c3.56,4.68-.08,11.31-4.88,13.86-5.65,3-14.39.65-20.27-.53-7.38-1.49-14.67-3.4-22.19-4.34-5.48-.69-11.93-1-16.59,2.2-2.17,1.48,0,4.83,2.15,3.33Z"/><path class="e" d="M802.22,135.31a94.48,94.48,0,0,1,7.68-9.46c1.7-1.93-1.31-4.67-3-2.73a102.47,102.47,0,0,0-8.34,10.24c-1.45,2.13,2.25,4.07,3.69,1.95Z"/><path class="e" d="M693,187.42l38,17.4c2.46,1.12,4.62-2.21,2.16-3.33l-38-17.4c-2.45-1.12-4.61,2.21-2.15,3.33Z"/><path class="e" d="M699,175.48l38,17.39c2.46,1.13,4.62-2.2,2.16-3.33l-38-17.39c-2.45-1.12-4.61,2.2-2.15,3.33Z"/><path class="e" d="M663.45,117.19c-6.58,3-13.51,9-9.85,16.16,3.1,6.06,11.78,4.54,17.16,2.68,8-2.75,15.23-7,22.87-10.35a34,34,0,0,1,4.55-1.7c1.81-.53,2.15-.17,3.58,1,5.23,4.47-.6,10.1-5.11,12.43-2.39,1.23-.24,4.56,2.16,3.33,6.59-3.4,12.92-11.24,6.78-17.65-2.27-2.36-4.12-3.68-7.54-3.12-3.06.51-6.08,2.08-8.82,3.34-7.65,3.53-15.08,8-23.41,10.11-3.26.83-7.52.67-8.82-2.73-1.79-4.69,4.91-8.54,8.6-10.22,2.47-1.11.3-4.44-2.15-3.33Z"/><path class="e" d="M867.75,257c12.36-1.63,24.71-.45,37,.79,10.47,1.05,20.83,2.63,31.16,4.44-.42-.95-.85-1.89-1.28-2.84-5.54,10.85-12.95,20.69-20.84,30.25-6.55,7.95-14.82,14.53-21.44,22.41h3.69c-12.91-17-20.7-37.66-27.24-57.3-.79-2.38-4.92-1.36-4.12,1,6.63,19.91,14.58,40.93,27.67,58.22a2.31,2.31,0,0,0,3.69,0c6.34-7.55,14.32-13.84,20.63-21.43,8.2-9.86,15.92-20,21.66-31.23a1.9,1.9,0,0,0-1.28-2.83c-10.16-1.77-20.35-3.4-30.63-4.42-13.33-1.32-26.48-2.57-39.84-.81-2.72.36-1.55,4.08,1.14,3.72Z"/><path class="e" d="M844.5,350.44l38,17.4c2.45,1.12,4.62-2.21,2.16-3.33l-38-17.4c-2.45-1.12-4.62,2.21-2.16,3.33Z"/><path class="e" d="M850.53,338.5l38,17.39c2.45,1.13,4.62-2.2,2.16-3.33l-38-17.39c-2.45-1.12-4.62,2.2-2.16,3.33Z"/><path class="e" d="M814.94,280.21c-6.57,3-13.5,9-9.85,16.16,3.11,6.06,11.79,4.54,17.17,2.68,8-2.75,15.22-7,22.86-10.35a34.5,34.5,0,0,1,4.55-1.7c1.81-.53,2.15-.17,3.58,1.05,5.24,4.47-.6,10.1-5.1,12.42-2.4,1.24-.25,4.57,2.15,3.33,6.59-3.39,12.93-11.23,6.78-17.64-2.27-2.36-4.11-3.69-7.53-3.12-3.07.51-6.08,2.08-8.82,3.34-7.65,3.53-15.08,8-23.41,10.1-3.27.84-7.52.68-8.82-2.72-1.79-4.69,4.91-8.54,8.6-10.22,2.46-1.11.3-4.44-2.16-3.33Z"/><path class="d" d="M596.83,7.93a5.5,5.5,0,0,1,5.76,5.2,5.79,5.79,0,0,1-11.51,0A5.49,5.49,0,0,1,596.83,7.93Z"/><path class="d" d="M755.84,38.09c0,4.66-4.2,8.44-9.36,8.44s-9.35-3.78-9.35-8.44,4.2-8.44,9.35-8.44S755.84,33.44,755.84,38.09Zm-15.29,0a5.68,5.68,0,0,0,5.93,5.36c3.28,0,5.94-2.41,5.94-5.36s-2.66-5.35-5.94-5.35S740.55,35.14,740.55,38.09Z"/><path class="e" d="M731.56,59.16c-7.95,0-16.88-1-23.08-5.95-7.24-5.73-5.77-15.62.17-21.5,5-5,9.48-8,10.75-15,1.08-5.94-1.64-10.71-7.46-13.5-6.8-3.26-14.23-3.77-19.78-9.07-9.47-9.06,1.26-15.88,7.34-22.65a16.43,16.43,0,0,0,1.92-20c-4-6.38-12.67-9-20.34-9.1a34.5,34.5,0,0,0-6.17.61c-2.7.46-1.55,4.18,1.14,3.72,9.36-1.6,20.63,1.23,23.33,10.42,2.76,9.38-6.73,14.12-11.86,20.6-5.75,7.25-3.44,15,3.47,20.84,5.22,4.45,12.56,5.24,18.79,8,7.36,3.25,6.88,11.73,2,16.89-4.53,4.78-9.95,8.09-11.87,14.5-2.09,7,.78,14.66,7,19.1,5.92,4.24,13.89,5.51,21.24,5.92,1.14.06,2.29.08,3.44.08a1.93,1.93,0,1,0,0-3.85Z"/><path class="e" d="M770.72,9.67A95.48,95.48,0,0,0,778-1.3c3.73-6,7.61-11.88,11.81-17.61a1.79,1.79,0,0,0-.33-2.34c-8.77-7.53-21.39-10.13-32.12-14.59-1-.4-2.4-.33-2.92.69A278.85,278.85,0,0,1,738.08-7.06c-1.41,2.14,2.28,4.08,3.7,1.94A279.4,279.4,0,0,0,758.16-33.2l-2.92.69c10.32,4.29,22.81,6.75,31.24,14l-.33-2.34c-4.2,5.73-8.08,11.63-11.81,17.62a96.24,96.24,0,0,1-7.31,11c-1.66,2,2.05,3.9,3.69,2Z"/><path class="e" d="M650,97.68,690,85.9a2,2,0,1,0-1.14-3.72L648.83,94A2,2,0,1,0,650,97.68Z"/><path class="e" d="M645,85.65l40.5-11.93A2,2,0,1,0,684.4,70L643.91,81.93A2,2,0,1,0,645,85.65Z"/><path class="e" d="M624-18.12c-6.74,7.13-9.73,17.46.13,23.55a15.29,15.29,0,0,0,12.47,1.31C641.41,5,644.3.22,646.74-3.64c1.37-2.16-2.32-4.1-3.69-1.95C639.62-.16,636.22,5,628.52,3.11,618.13.63,622.2-10.33,627-15.39c1.78-1.88-1.23-4.62-3-2.73Z"/><path class="e" d="M606.07,45.11c5.59-3.82,14.22-1.84,20.46-.66,8.07,1.52,16,3.72,24.17,4.73,6.36.77,12.53.53,17.54-3.46a13.65,13.65,0,0,0,4.46-14.83c-1.88-5.41-8.23-7.76-14.09-7.29-7,.57-12.11,5.55-16,10.32-3.63,4.45-6.36,9.41-10,13.86-5.34,6.56-10,16-20.75,14.55-2.7-.36-3.86,3.36-1.14,3.72a19.32,19.32,0,0,0,17.53-6.17A112,112,0,0,0,639.41,45.8c3.36-4.86,6.28-9.93,10.78-14.06s13.28-6.9,17.65-1.15c3.57,4.68-.08,11.31-4.87,13.86-5.65,3-14.4.65-20.27-.53-7.39-1.49-14.68-3.4-22.19-4.34-5.49-.69-11.93-1-16.6,2.2-2.17,1.48,0,4.83,2.16,3.33Z"/><path class="e" d="M536.8,24.82l38,17.4c2.45,1.12,4.62-2.21,2.16-3.33l-38-17.4c-2.45-1.12-4.62,2.21-2.16,3.33Z"/><path class="e" d="M542.83,12.88l38,17.39c2.45,1.13,4.62-2.2,2.16-3.33L545,9.55c-2.45-1.12-4.62,2.21-2.16,3.33Z"/><path class="d" d="M615.4,350.87a5.22,5.22,0,1,1-5.75,5.19A5.5,5.5,0,0,1,615.4,350.87Z"/><path class="d" d="M700.24,264.42a3.63,3.63,0,1,1-4,3.61A3.82,3.82,0,0,1,700.24,264.42Z"/><path class="d" d="M774.41,381c0,4.65-4.2,8.44-9.36,8.44s-9.35-3.79-9.35-8.44,4.2-8.44,9.35-8.44S774.41,376.37,774.41,381Zm-15.29,0c0,3,2.66,5.35,5.93,5.35S771,384,771,381s-2.66-5.36-5.94-5.36A5.68,5.68,0,0,0,759.12,381Z"/><path class="e" d="M750.13,402.09c-8,0-16.88-1-23.08-5.94-7.24-5.73-5.77-15.62.17-21.5,5-5,9.48-8,10.75-15,1.08-5.94-1.64-10.71-7.46-13.51-6.8-3.26-14.23-3.76-19.78-9.06-9.48-9.06,1.26-15.88,7.34-22.65a16.43,16.43,0,0,0,1.92-20c-4-6.39-12.67-9-20.34-9.1a33.61,33.61,0,0,0-6.17.61c-2.7.46-1.55,4.18,1.14,3.72C704,288,715.25,290.83,718,300c2.76,9.38-6.73,14.12-11.86,20.6-5.75,7.25-3.44,14.95,3.47,20.83,5.22,4.45,12.56,5.25,18.79,8,7.36,3.26,6.88,11.74,2,16.89-4.53,4.79-10,8.1-11.87,14.51-2.09,7,.78,14.66,7,19.1,5.92,4.23,13.89,5.51,21.24,5.92,1.14.06,2.29.07,3.44.08a1.93,1.93,0,1,0,0-3.86Z"/><path class="e" d="M578.62,274.29c12.36-1.63,24.7-.45,37,.78,10.47,1.05,20.83,2.64,31.16,4.45-.42-.95-.85-1.89-1.28-2.84-5.55,10.85-12.95,20.69-20.84,30.25-6.56,7.95-14.82,14.53-21.44,22.41h3.69c-12.91-17-20.7-37.66-27.24-57.3-.79-2.38-4.92-1.36-4.12,1,6.63,19.91,14.58,40.93,27.67,58.22a2.31,2.31,0,0,0,3.69,0c6.34-7.55,14.32-13.84,20.63-21.43,8.2-9.86,15.92-20,21.66-31.23A1.9,1.9,0,0,0,648,275.8c-10.16-1.77-20.35-3.4-30.64-4.42-13.32-1.32-26.47-2.57-39.83-.81-2.72.36-1.56,4.08,1.14,3.72Z"/><path class="e" d="M789.29,352.6c2.84-3.39,5-7.26,7.31-11,3.73-6,7.61-11.89,11.81-17.62a1.77,1.77,0,0,0-.34-2.33c-8.76-7.53-21.38-10.13-32.11-14.59-1-.41-2.4-.33-2.92.69a277.6,277.6,0,0,1-16.39,28.08c-1.41,2.14,2.28,4.08,3.7,1.95a280.52,280.52,0,0,0,16.38-28.08l-2.92.69c10.32,4.29,22.81,6.75,31.24,14l-.33-2.34c-4.2,5.73-8.08,11.63-11.81,17.61a95.48,95.48,0,0,1-7.31,11c-1.66,2,2,3.9,3.69,1.94Z"/><path class="e" d="M668.54,440.62l40-11.79a2,2,0,1,0-1.14-3.72l-40,11.79a2,2,0,1,0,1.14,3.72Z"/><path class="e" d="M663.61,428.59l40.5-11.93a2,2,0,1,0-1.14-3.72l-40.5,11.93a2,2,0,1,0,1.14,3.72Z"/><path class="e" d="M729.88,270.49l37.5,17.17c2.46,1.12,4.62-2.21,2.16-3.33L732,267.16c-2.45-1.13-4.62,2.2-2.16,3.33Z"/><path class="e" d="M736,258.71l38,17.39c2.45,1.12,4.62-2.21,2.16-3.33l-38-17.4c-2.45-1.12-4.62,2.21-2.16,3.34Z"/><path class="e" d="M742,246.76l38,17.39c2.45,1.13,4.62-2.2,2.16-3.33l-38-17.39c-2.45-1.12-4.62,2.21-2.16,3.33Z"/><path class="e" d="M651.69,255.4c2.34-7.56,4-15.32,5.83-23l-3.58.85c6.93,6,14.1,11.88,20.4,18.4a2.29,2.29,0,0,0,3.35-.39c3.49-6.94,7.84-13.54,10.41-20.83l-3.57.85c6.8,5.61,12.07,13.06,20.09,17.38a2.29,2.29,0,0,0,2.6-.3c5.19-5.91,6.35-13.68,9.28-20.56,1-2.32-3.14-3.32-4.12-1-2.61,6.13-3.57,13.6-8.19,18.85l2.59-.3c-7.65-4.12-12.72-11.41-19.23-16.78a2.26,2.26,0,0,0-3.57.85c-2.46,7-6.64,13.28-10,19.91l3.36-.39c-6.29-6.52-13.47-12.43-20.39-18.4-1.11-.95-3.23-.61-3.58.85-1.82,7.68-3.49,15.44-5.82,23-.74,2.4,3.38,3.42,4.12,1Z"/><path class="e" d="M642.53,324.82c-6.74,7.12-9.73,17.46.13,23.54a15.25,15.25,0,0,0,12.47,1.32c4.85-1.75,7.74-6.52,10.18-10.38,1.37-2.16-2.32-4.11-3.69-1.95-3.43,5.42-6.83,10.54-14.53,8.7-10.39-2.48-6.32-13.45-1.54-18.5,1.78-1.88-1.23-4.62-3-2.73Z"/><path class="e" d="M624.64,388c5.59-3.81,14.22-1.84,20.46-.65,8.07,1.52,16,3.72,24.17,4.72,6.36.78,12.53.54,17.54-3.45a13.65,13.65,0,0,0,4.46-14.83c-1.88-5.41-8.23-7.77-14.09-7.29-7,.57-12.11,5.55-16,10.32-3.63,4.45-6.36,9.41-10,13.85-5.34,6.57-10,16-20.75,14.56-2.7-.36-3.86,3.36-1.14,3.72a19.32,19.32,0,0,0,17.53-6.17A112.74,112.74,0,0,0,658,388.74c3.36-4.87,6.28-9.93,10.78-14.06s13.28-6.9,17.65-1.15c3.57,4.68-.08,11.31-4.87,13.86-5.65,3-14.4.65-20.27-.53-7.39-1.49-14.68-3.4-22.19-4.34-5.49-.69-11.93-1-16.6,2.19-2.17,1.48,0,4.84,2.16,3.33Z"/><path class="e" d="M664.58,315.65a94.59,94.59,0,0,1,7.68-9.47c1.7-1.92-1.3-4.67-3-2.72a102.57,102.57,0,0,0-8.35,10.24c-1.44,2.13,2.26,4.07,3.69,1.95Z"/><path class="e" d="M555.37,367.76l38,17.39c2.45,1.13,4.62-2.2,2.16-3.33l-38-17.39c-2.45-1.12-4.62,2.21-2.16,3.33Z"/><path class="e" d="M561.4,355.82l38,17.39c2.45,1.12,4.62-2.2,2.16-3.33l-38-17.39c-2.45-1.12-4.62,2.2-2.16,3.33Z"/><path class="e" d="M525.81,297.53c-6.57,3-13.5,9-9.85,16.16,3.11,6.06,11.79,4.54,17.17,2.68,8-2.75,15.22-7,22.86-10.35a34.5,34.5,0,0,1,4.55-1.7c1.81-.53,2.15-.17,3.58,1.05,5.24,4.47-.6,10.1-5.11,12.42-2.39,1.24-.24,4.57,2.16,3.33,6.59-3.39,12.93-11.23,6.78-17.64-2.27-2.37-4.11-3.69-7.53-3.12-3.07.5-6.08,2.08-8.82,3.34-7.65,3.52-15.08,8-23.41,10.1-3.27.84-7.52.68-8.82-2.72-1.79-4.69,4.91-8.55,8.6-10.22,2.46-1.11.3-4.44-2.16-3.33Z"/><path class="d" d="M470.85,539.42a5.22,5.22,0,1,1-5.76,5.19A5.5,5.5,0,0,1,470.85,539.42Z"/><path class="d" d="M555.69,453a3.63,3.63,0,1,1-4,3.61A3.82,3.82,0,0,1,555.69,453Z"/><path class="d" d="M629.86,569.58c0,4.65-4.2,8.44-9.36,8.44s-9.35-3.79-9.35-8.44,4.19-8.44,9.35-8.44S629.86,564.92,629.86,569.58Zm-15.29,0c0,2.95,2.66,5.35,5.93,5.35s5.94-2.4,5.94-5.35-2.67-5.36-5.94-5.36A5.68,5.68,0,0,0,614.57,569.58Z"/><path class="e" d="M605.57,590.64c-7.94,0-16.87-1-23.07-5.94-7.24-5.73-5.77-15.62.17-21.5,5-5,9.48-8,10.75-15,1.08-5.94-1.64-10.71-7.47-13.51-6.79-3.26-14.23-3.76-19.77-9.06-9.48-9.06,1.26-15.88,7.33-22.65a16.42,16.42,0,0,0,1.92-20c-4-6.39-12.66-9-20.33-9.1a33.52,33.52,0,0,0-6.17.61c-2.71.46-1.56,4.18,1.14,3.72,9.35-1.6,20.62,1.23,23.33,10.42,2.76,9.38-6.73,14.12-11.86,20.6-5.75,7.25-3.44,14.95,3.47,20.83,5.22,4.45,12.56,5.25,18.79,8,7.35,3.26,6.88,11.74,2,16.89-4.53,4.79-9.95,8.1-11.88,14.51-2.08,7,.78,14.66,7,19.1,5.91,4.23,13.89,5.51,21.24,5.92,1.14.06,2.29.08,3.43.08a1.93,1.93,0,1,0,0-3.86Z"/><path class="e" d="M434.07,462.84c12.36-1.63,24.7-.45,37,.78,10.46,1.05,20.82,2.64,31.16,4.45L501,465.23c-5.55,10.85-13,20.69-20.84,30.25-6.56,7.95-14.83,14.53-21.44,22.41h3.69c-12.91-17.05-20.7-37.66-27.24-57.3-.79-2.38-4.92-1.36-4.13,1,6.64,19.91,14.59,40.93,27.68,58.22a2.31,2.31,0,0,0,3.69,0c6.34-7.55,14.31-13.84,20.63-21.43,8.19-9.86,15.92-20,21.65-31.23a1.9,1.9,0,0,0-1.27-2.83c-10.16-1.77-20.35-3.4-30.64-4.42-13.33-1.32-26.47-2.57-39.83-.81-2.72.36-1.56,4.08,1.14,3.72Z"/><path class="e" d="M644.74,541.15c2.84-3.39,5-7.26,7.31-11,3.72-6,7.61-11.89,11.81-17.61a1.79,1.79,0,0,0-.34-2.34c-8.77-7.53-21.39-10.13-32.11-14.59-1-.41-2.41-.33-2.92.69a277.6,277.6,0,0,1-16.39,28.08c-1.42,2.14,2.28,4.08,3.69,2a278.7,278.7,0,0,0,16.39-28.08l-2.93.69c10.33,4.29,22.82,6.75,31.25,14-.11-.78-.22-1.56-.34-2.34-4.2,5.73-8.07,11.63-11.81,17.61a94.11,94.11,0,0,1-7.3,11c-1.66,2,2.05,3.9,3.69,1.94Z"/><path class="e" d="M524,629.17l40-11.79a2,2,0,1,0-1.13-3.72l-40,11.79a2,2,0,1,0,1.14,3.72Z"/><path class="e" d="M519.06,617.14l40.49-11.93a2,2,0,1,0-1.13-3.72l-40.5,11.93a2,2,0,1,0,1.14,3.72Z"/><path class="e" d="M585.33,459l37.5,17.17c2.45,1.12,4.62-2.21,2.16-3.33l-37.5-17.17c-2.46-1.13-4.62,2.2-2.16,3.33Z"/><path class="e" d="M591.42,447.26l38,17.39c2.45,1.12,4.61-2.21,2.16-3.33l-38-17.4c-2.46-1.12-4.62,2.21-2.16,3.34Z"/><path class="e" d="M597.45,435.31l38,17.39c2.45,1.13,4.61-2.2,2.15-3.33l-38-17.39c-2.46-1.12-4.62,2.21-2.16,3.33Z"/><path class="e" d="M507.14,444c2.33-7.56,4-15.32,5.82-23l-3.57.85c6.93,6,14.1,11.88,20.39,18.4a2.3,2.3,0,0,0,3.36-.39c3.49-6.94,7.84-13.54,10.41-20.83l-3.57.85c6.8,5.61,12.07,13.06,20.09,17.38a2.28,2.28,0,0,0,2.59-.3c5.19-5.91,6.36-13.68,9.29-20.56,1-2.32-3.14-3.32-4.12-1-2.62,6.13-3.57,13.6-8.19,18.85l2.59-.3c-7.66-4.12-12.73-11.41-19.23-16.78a2.26,2.26,0,0,0-3.57.85c-2.46,7-6.65,13.28-10,19.91l3.36-.39c-6.3-6.52-13.47-12.43-20.39-18.4-1.11-.95-3.23-.61-3.58.85-1.82,7.68-3.49,15.44-5.82,23-.75,2.4,3.38,3.42,4.12,1Z"/><path class="e" d="M498,513.37c-6.74,7.12-9.73,17.46.13,23.55a15.29,15.29,0,0,0,12.47,1.31c4.85-1.75,7.74-6.52,10.18-10.38,1.37-2.16-2.33-4.11-3.69-2-3.43,5.42-6.83,10.54-14.53,8.7-10.39-2.48-6.32-13.45-1.54-18.5,1.78-1.88-1.23-4.62-3-2.73Z"/><path class="e" d="M480.09,576.59c5.59-3.81,14.22-1.83,20.46-.65,8.07,1.52,16,3.72,24.17,4.72,6.36.78,12.53.54,17.54-3.45a13.67,13.67,0,0,0,4.46-14.83c-1.89-5.41-8.24-7.77-14.1-7.29-7,.57-12.1,5.55-16,10.32-3.63,4.45-6.36,9.41-10,13.85-5.34,6.57-10,16-20.75,14.56-2.7-.36-3.86,3.36-1.14,3.72a19.3,19.3,0,0,0,17.52-6.17,111.9,111.9,0,0,0,11.15-14.08c3.36-4.87,6.28-9.93,10.77-14.06s13.28-6.9,17.66-1.15c3.56,4.68-.08,11.31-4.88,13.86-5.64,3-14.39.65-20.26-.53-7.39-1.49-14.68-3.4-22.19-4.34-5.49-.69-11.94-1-16.6,2.19-2.17,1.48,0,4.84,2.16,3.33Z"/><path class="e" d="M520,504.2a94.59,94.59,0,0,1,7.68-9.47c1.7-1.92-1.3-4.67-3-2.72a103.89,103.89,0,0,0-8.34,10.24c-1.44,2.13,2.26,4.07,3.69,1.95Z"/><path class="e" d="M410.82,556.31l38,17.4c2.45,1.12,4.61-2.21,2.16-3.34L413,553c-2.46-1.12-4.62,2.21-2.16,3.33Z"/><path class="e" d="M416.85,544.37l38,17.39c2.45,1.12,4.61-2.2,2.15-3.33L419,541c-2.46-1.12-4.62,2.2-2.16,3.33Z"/><path class="e" d="M381.26,486.08c-6.58,3-13.5,9-9.85,16.16,3.11,6.06,11.78,4.54,17.16,2.68,8-2.75,15.23-7,22.87-10.35a34.5,34.5,0,0,1,4.55-1.7c1.81-.53,2.15-.17,3.58,1.05,5.23,4.47-.6,10.1-5.11,12.42-2.39,1.24-.24,4.57,2.16,3.33,6.59-3.39,12.93-11.23,6.78-17.64-2.27-2.37-4.12-3.69-7.53-3.12-3.07.5-6.08,2.08-8.82,3.34-7.65,3.52-15.09,8-23.41,10.1-3.27.84-7.53.68-8.82-2.72-1.79-4.69,4.9-8.55,8.6-10.22,2.46-1.11.3-4.44-2.16-3.33Z"/><path class="d" d="M329.94,720.74a5.22,5.22,0,1,1-5.76,5.2A5.5,5.5,0,0,1,329.94,720.74Z"/><path class="d" d="M414.78,634.29a3.63,3.63,0,1,1-4,3.61A3.82,3.82,0,0,1,414.78,634.29Z"/><path class="d" d="M489,750.9c0,4.66-4.2,8.44-9.36,8.44s-9.36-3.78-9.36-8.44,4.2-8.44,9.36-8.44S489,746.25,489,750.9Zm-15.3,0c0,3,2.67,5.36,5.94,5.36s5.94-2.4,5.94-5.36-2.67-5.35-5.94-5.35S473.65,748,473.65,750.9Z"/><path class="e" d="M464.66,772c-7.94-.05-16.87-1.05-23.08-6-7.24-5.73-5.76-15.62.18-21.5,5-5,9.48-8,10.75-15,1.08-5.94-1.65-10.71-7.47-13.5-6.8-3.26-14.23-3.77-19.78-9.07-9.47-9.06,1.26-15.88,7.34-22.65a16.4,16.4,0,0,0,1.92-20c-4-6.39-12.66-9-20.34-9.11a34.39,34.39,0,0,0-6.16.61c-2.71.47-1.56,4.18,1.14,3.72,9.35-1.6,20.62,1.23,23.33,10.42,2.76,9.38-6.73,14.12-11.86,20.6-5.75,7.25-3.44,15,3.46,20.84,5.23,4.45,12.57,5.24,18.79,8,7.36,3.25,6.89,11.74,2,16.89-4.53,4.78-9.95,8.09-11.88,14.5-2.09,7,.78,14.66,7,19.1,5.92,4.24,13.9,5.51,21.24,5.92,1.15.07,2.3.08,3.44.09a1.93,1.93,0,1,0,0-3.86Z"/><path class="e" d="M293.16,644.17c12.35-1.64,24.7-.46,37,.78,10.46,1,20.82,2.64,31.16,4.44-.43-.95-.85-1.89-1.28-2.83-5.55,10.85-13,20.68-20.85,30.24-6.55,8-14.82,14.53-21.43,22.42h3.69c-12.91-17.05-20.7-37.67-27.24-57.31-.8-2.37-4.92-1.36-4.13,1,6.63,19.91,14.58,40.93,27.68,58.22a2.3,2.3,0,0,0,3.69,0c6.34-7.55,14.31-13.84,20.63-21.43,8.19-9.86,15.91-20,21.65-31.23a1.89,1.89,0,0,0-1.28-2.83c-10.15-1.77-20.35-3.39-30.63-4.41-13.33-1.32-26.47-2.58-39.83-.81-2.72.36-1.56,4.07,1.14,3.72Z"/><path class="e" d="M503.83,722.48a94.11,94.11,0,0,0,7.3-11c3.73-6,7.61-11.88,11.81-17.61a1.78,1.78,0,0,0-.33-2.34C513.84,684,501.22,681.43,490.5,677c-1-.4-2.41-.33-2.93.69a275.78,275.78,0,0,1-16.38,28.09c-1.42,2.14,2.28,4.08,3.69,1.94a277.6,277.6,0,0,0,16.39-28.08l-2.93.69c10.33,4.3,22.82,6.76,31.25,14l-.34-2.34c-4.2,5.73-8.07,11.63-11.81,17.62-2.31,3.69-4.46,7.56-7.3,11-1.67,2,2.05,3.91,3.69,2Z"/><path class="e" d="M383.08,810.49l40-11.78a2,2,0,1,0-1.13-3.72l-40,11.78a2,2,0,1,0,1.14,3.72Z"/><path class="e" d="M378.15,798.46l40.49-11.93a2,2,0,1,0-1.13-3.72L377,794.75a1.94,1.94,0,1,0,1.14,3.71Z"/><path class="e" d="M444.42,640.36l37.5,17.17c2.45,1.12,4.62-2.2,2.16-3.33L446.58,637c-2.46-1.12-4.62,2.2-2.16,3.33Z"/><path class="e" d="M450.51,628.58l38,17.39c2.45,1.12,4.61-2.2,2.15-3.33l-38-17.39c-2.45-1.12-4.61,2.2-2.15,3.33Z"/><path class="e" d="M456.54,616.64l38,17.39c2.45,1.12,4.61-2.21,2.15-3.33l-38-17.4c-2.45-1.12-4.61,2.21-2.15,3.34Z"/><path class="e" d="M366.23,625.28c2.33-7.56,4-15.32,5.82-23l-3.57.85c6.93,6,14.1,11.88,20.39,18.4a2.28,2.28,0,0,0,3.36-.39c3.49-6.94,7.84-13.54,10.41-20.83l-3.57.85c6.8,5.62,12.07,13.07,20.09,17.39a2.3,2.3,0,0,0,2.59-.31c5.19-5.9,6.36-13.68,9.29-20.56,1-2.32-3.14-3.32-4.12-1-2.62,6.14-3.57,13.6-8.19,18.86l2.59-.3c-7.66-4.13-12.73-11.42-19.23-16.78a2.25,2.25,0,0,0-3.57.85c-2.46,7-6.65,13.27-10,19.9l3.35-.39c-6.29-6.52-13.46-12.43-20.39-18.39-1.1-.95-3.22-.62-3.57.85-1.82,7.67-3.49,15.43-5.83,23-.74,2.4,3.39,3.42,4.13,1Z"/><path class="e" d="M357.07,694.69c-6.74,7.13-9.73,17.46.13,23.55a15.25,15.25,0,0,0,12.47,1.31c4.85-1.75,7.74-6.52,10.18-10.38,1.37-2.16-2.33-4.1-3.69-1.94-3.43,5.42-6.83,10.53-14.53,8.69-10.39-2.48-6.32-13.44-1.54-18.5,1.78-1.88-1.23-4.62-3-2.73Z"/><path class="e" d="M339.17,757.92c5.6-3.82,14.23-1.84,20.47-.66,8.07,1.53,16,3.72,24.17,4.73,6.36.78,12.53.53,17.54-3.46a13.67,13.67,0,0,0,4.46-14.83c-1.89-5.41-8.24-7.76-14.1-7.28-7,.56-12.1,5.54-16,10.32-3.62,4.44-6.35,9.4-10,13.85-5.34,6.56-10,16-20.75,14.55-2.7-.36-3.86,3.36-1.14,3.72,7.21,1,12.79-1.27,17.52-6.16a111,111,0,0,0,11.14-14.09c3.36-4.86,6.29-9.93,10.78-14.06s13.28-6.9,17.66-1.15c3.56,4.68-.08,11.31-4.88,13.87-5.65,3-14.39.64-20.27-.54-7.38-1.49-14.67-3.4-22.18-4.34-5.49-.69-11.94-1-16.6,2.2-2.17,1.48,0,4.83,2.15,3.33Z"/><path class="e" d="M379.12,685.52a94.48,94.48,0,0,1,7.68-9.46c1.7-1.92-1.3-4.67-3-2.73a101.46,101.46,0,0,0-8.34,10.25c-1.44,2.12,2.25,4.06,3.69,1.94Z"/><path class="e" d="M269.91,737.64l38,17.39c2.45,1.12,4.61-2.21,2.15-3.33l-38-17.39c-2.45-1.13-4.61,2.2-2.15,3.33Z"/><path class="e" d="M275.94,725.69l38,17.4c2.45,1.12,4.61-2.21,2.15-3.34l-38-17.39c-2.45-1.12-4.61,2.21-2.15,3.33Z"/><path class="e" d="M240.35,667.41c-6.58,3-13.5,9-9.85,16.15,3.1,6.07,11.78,4.54,17.16,2.68,8-2.75,15.23-7,22.87-10.35a36,36,0,0,1,4.55-1.7c1.81-.53,2.15-.17,3.58,1,5.23,4.47-.6,10.11-5.11,12.43-2.39,1.23-.24,4.56,2.16,3.33,6.59-3.4,12.92-11.24,6.78-17.65-2.27-2.36-4.12-3.68-7.54-3.12-3.06.51-6.08,2.08-8.82,3.34-7.64,3.53-15.08,8-23.4,10.11-3.27.83-7.53.67-8.83-2.73-1.79-4.69,4.91-8.54,8.61-10.21,2.46-1.12.29-4.45-2.16-3.33Z"/><path class="d" d="M492.16,879a5.22,5.22,0,1,1-5.75,5.19A5.5,5.5,0,0,1,492.16,879Z"/><path class="d" d="M577,792.56a3.63,3.63,0,1,1-4,3.62A3.83,3.83,0,0,1,577,792.56Z"/><path class="d" d="M651.17,909.18c0,4.65-4.2,8.44-9.36,8.44s-9.35-3.79-9.35-8.44,4.19-8.44,9.35-8.44S651.17,904.52,651.17,909.18Zm-15.29,0c0,3,2.66,5.35,5.93,5.35s5.94-2.4,5.94-5.35a6,6,0,0,0-11.87,0Z"/><path class="e" d="M626.88,930.24c-7.94,0-16.87-1-23.07-6-7.24-5.72-5.77-15.61.17-21.49,5-5,9.48-8,10.75-15,1.08-5.95-1.64-10.72-7.46-13.51-6.8-3.26-14.23-3.77-19.78-9.07-9.48-9.05,1.26-15.88,7.33-22.65a16.4,16.4,0,0,0,1.93-20c-4-6.39-12.67-9-20.34-9.11a34.51,34.51,0,0,0-6.17.62c-2.7.46-1.55,4.18,1.14,3.72,9.36-1.6,20.62,1.23,23.33,10.41,2.76,9.38-6.73,14.13-11.86,20.6-5.75,7.26-3.44,15,3.47,20.84,5.22,4.45,12.56,5.25,18.79,8,7.36,3.26,6.88,11.74,2,16.89-4.53,4.79-10,8.1-11.87,14.51-2.09,7,.78,14.66,7,19.09,5.92,4.24,13.89,5.52,21.24,5.93,1.14.06,2.29.07,3.43.08a1.93,1.93,0,1,0,0-3.86Z"/><path class="e" d="M455.38,802.44c12.36-1.64,24.7-.46,37,.78,10.47,1,20.83,2.64,31.16,4.44-.43-.94-.85-1.89-1.28-2.83-5.55,10.85-13,20.69-20.84,30.25-6.56,7.95-14.82,14.53-21.44,22.41h3.69c-12.91-17-20.7-37.67-27.24-57.3-.79-2.38-4.92-1.37-4.12,1,6.63,19.92,14.58,40.94,27.67,58.23a2.31,2.31,0,0,0,3.69,0C490,851.89,498,845.6,504.33,838c8.19-9.85,15.92-20,21.66-31.22a1.91,1.91,0,0,0-1.28-2.84c-10.16-1.77-20.35-3.39-30.64-4.41-13.32-1.32-26.47-2.58-39.83-.81-2.72.36-1.56,4.08,1.14,3.72Z"/><path class="e" d="M666.05,880.75a95.36,95.36,0,0,0,7.31-11c3.73-6,7.61-11.89,11.81-17.62a1.78,1.78,0,0,0-.34-2.33c-8.76-7.53-21.38-10.14-32.11-14.6-1-.4-2.4-.32-2.92.7A278.7,278.7,0,0,1,633.41,864c-1.42,2.14,2.28,4.08,3.7,2a279.55,279.55,0,0,0,16.38-28.09l-2.92.7c10.32,4.29,22.81,6.75,31.24,14l-.33-2.33c-4.2,5.73-8.08,11.63-11.81,17.61-2.31,3.7-4.47,7.57-7.31,11-1.66,2,2,3.91,3.69,2Z"/><path class="e" d="M545.3,968.76l40-11.78a2,2,0,1,0-1.14-3.72l-40,11.78a2,2,0,1,0,1.14,3.72Z"/><path class="e" d="M540.37,956.74l40.5-11.94a2,2,0,1,0-1.14-3.72L539.23,953a2,2,0,1,0,1.14,3.72Z"/><path class="e" d="M606.64,798.63l37.5,17.17c2.46,1.13,4.62-2.2,2.16-3.33L608.8,795.3c-2.45-1.12-4.62,2.21-2.16,3.33Z"/><path class="e" d="M612.73,786.85l38,17.4c2.45,1.12,4.62-2.21,2.16-3.34l-38-17.39c-2.45-1.12-4.62,2.21-2.16,3.33Z"/><path class="e" d="M618.76,774.91l38,17.39c2.45,1.12,4.62-2.2,2.16-3.33l-38-17.39c-2.45-1.12-4.62,2.2-2.16,3.33Z"/><path class="e" d="M528.45,783.55c2.34-7.56,4-15.32,5.83-23l-3.58.85c6.93,6,14.1,11.87,20.39,18.39a2.28,2.28,0,0,0,3.36-.39c3.49-6.93,7.84-13.54,10.41-20.82l-3.57.85c6.8,5.61,12.07,13.06,20.09,17.38a2.29,2.29,0,0,0,2.59-.3c5.2-5.91,6.36-13.68,9.29-20.56,1-2.33-3.14-3.32-4.12-1-2.61,6.14-3.57,13.6-8.19,18.86l2.59-.3c-7.65-4.12-12.72-11.42-19.23-16.78a2.26,2.26,0,0,0-3.57.85c-2.46,7-6.64,13.28-10,19.91l3.36-.39c-6.3-6.52-13.47-12.43-20.39-18.4-1.11-.95-3.23-.62-3.58.85-1.82,7.67-3.49,15.43-5.82,23-.74,2.4,3.38,3.41,4.12,1Z"/><path class="e" d="M519.29,853c-6.74,7.12-9.73,17.45.13,23.54a15.25,15.25,0,0,0,12.47,1.32c4.85-1.75,7.74-6.52,10.18-10.38,1.37-2.17-2.32-4.11-3.69-2-3.43,5.42-6.83,10.53-14.53,8.7-10.39-2.49-6.32-13.45-1.54-18.5,1.78-1.88-1.23-4.63-3-2.73Z"/><path class="e" d="M501.4,916.19c5.59-3.81,14.22-1.84,20.46-.66,8.07,1.53,16,3.73,24.17,4.73,6.36.78,12.53.54,17.54-3.45A13.67,13.67,0,0,0,568,902c-1.89-5.41-8.23-7.76-14.1-7.28-7,.57-12.1,5.54-16,10.32-3.63,4.44-6.36,9.4-10,13.85-5.34,6.57-10,16-20.75,14.56-2.7-.36-3.86,3.35-1.14,3.72A19.32,19.32,0,0,0,523.6,931a113.47,113.47,0,0,0,11.14-14.08C538.1,912,541,907,545.51,902.83s13.28-6.9,17.66-1.15c3.56,4.68-.08,11.31-4.87,13.86-5.65,3-14.4.65-20.27-.54-7.39-1.48-14.68-3.39-22.19-4.34-5.49-.69-11.93-1-16.6,2.2-2.17,1.48,0,4.83,2.16,3.33Z"/><path class="e" d="M541.34,843.8a94.59,94.59,0,0,1,7.68-9.47c1.7-1.92-1.3-4.67-3-2.73a102.69,102.69,0,0,0-8.35,10.25c-1.44,2.13,2.26,4.06,3.69,1.95Z"/><path class="e" d="M432.13,895.91l38,17.39c2.45,1.13,4.62-2.2,2.16-3.33l-38-17.39c-2.45-1.12-4.62,2.2-2.16,3.33Z"/><path class="e" d="M438.16,884l38,17.39c2.45,1.12,4.62-2.21,2.16-3.33l-38-17.39c-2.45-1.13-4.62,2.2-2.16,3.33Z"/><path class="e" d="M402.57,825.68c-6.57,3-13.5,9-9.85,16.16,3.11,6.06,11.79,4.53,17.16,2.68,8-2.75,15.23-7,22.87-10.35a36,36,0,0,1,4.55-1.71c1.81-.52,2.15-.17,3.58,1,5.23,4.48-.6,10.11-5.11,12.43-2.39,1.23-.24,4.57,2.16,3.33,6.59-3.39,12.93-11.24,6.78-17.64-2.27-2.37-4.11-3.69-7.53-3.12-3.07.5-6.08,2.07-8.82,3.34-7.65,3.52-15.08,8-23.41,10.1-3.27.84-7.52.68-8.82-2.73-1.79-4.69,4.91-8.54,8.6-10.21,2.46-1.12.3-4.44-2.16-3.33Z"/><ellipse class="d" cx="768.33" cy="515.71" rx="5.76" ry="5.19"/><path class="d" d="M853.17,424.06a3.63,3.63,0,1,1-4,3.61A3.82,3.82,0,0,1,853.17,424.06Z"/><path class="e" d="M903.05,561.74c-7.94,0-16.87-1-23.07-6-7.24-5.73-5.77-15.62.17-21.5,5-5,9.48-8,10.75-15,1.08-5.94-1.64-10.71-7.47-13.5-6.79-3.26-14.23-3.77-19.77-9.07-9.48-9.06,1.26-15.88,7.33-22.65a16.4,16.4,0,0,0,1.92-20c-4-6.39-12.66-9-20.33-9.11a34.41,34.41,0,0,0-6.17.61c-2.71.47-1.56,4.18,1.14,3.72,9.35-1.6,20.62,1.23,23.33,10.42,2.76,9.38-6.73,14.12-11.86,20.6-5.75,7.25-3.44,15,3.47,20.84,5.22,4.45,12.56,5.24,18.79,8,7.35,3.25,6.88,11.74,2,16.89-4.53,4.78-9.95,8.09-11.87,14.5-2.09,7,.77,14.66,7,19.1,5.92,4.24,13.89,5.51,21.24,5.92,1.14.07,2.29.08,3.43.08a1.93,1.93,0,1,0,0-3.85Z"/><path class="e" d="M731.55,433.94c12.36-1.64,24.7-.46,37,.78,10.46,1,20.82,2.64,31.16,4.44-.43-1-.85-1.89-1.28-2.83-5.55,10.85-13,20.68-20.84,30.24-6.56,7.95-14.83,14.53-21.44,22.42h3.69c-12.91-17.05-20.7-37.67-27.24-57.31-.79-2.37-4.92-1.36-4.12,1,6.63,19.91,14.58,40.93,27.67,58.22a2.3,2.3,0,0,0,3.69,0c6.34-7.55,14.31-13.84,20.63-21.43,8.19-9.86,15.92-20,21.65-31.23a1.9,1.9,0,0,0-1.27-2.83c-10.16-1.77-20.35-3.39-30.64-4.41-13.33-1.32-26.47-2.58-39.83-.81-2.72.36-1.56,4.07,1.14,3.72Z"/><path class="e" d="M821.47,600.26l40-11.78a2,2,0,1,0-1.13-3.72l-40,11.78a2,2,0,1,0,1.14,3.72Z"/><path class="e" d="M816.54,588.23,857,576.3a2,2,0,1,0-1.13-3.72l-40.5,11.94a1.94,1.94,0,1,0,1.14,3.71Z"/><path class="e" d="M804.62,415.05c2.34-7.56,4-15.32,5.83-23l-3.58.85c6.93,6,14.1,11.88,20.39,18.4a2.28,2.28,0,0,0,3.36-.39c3.49-6.94,7.84-13.54,10.41-20.83l-3.57.85c6.8,5.62,12.07,13.07,20.09,17.39a2.3,2.3,0,0,0,2.59-.31c5.19-5.9,6.36-13.68,9.29-20.56,1-2.32-3.14-3.32-4.12-1-2.61,6.14-3.57,13.6-8.19,18.86l2.59-.3c-7.66-4.13-12.72-11.42-19.23-16.78a2.25,2.25,0,0,0-3.57.85c-2.46,7-6.65,13.27-10,19.9l3.36-.39c-6.3-6.52-13.47-12.43-20.39-18.39-1.11-.95-3.23-.62-3.58.85-1.82,7.67-3.49,15.43-5.82,23-.75,2.4,3.38,3.42,4.12,1Z"/><path class="e" d="M795.46,484.46c-6.74,7.13-9.73,17.46.13,23.55a15.29,15.29,0,0,0,12.47,1.31c4.85-1.75,7.74-6.52,10.18-10.38,1.37-2.16-2.33-4.1-3.69-1.94-3.43,5.42-6.83,10.53-14.53,8.69-10.39-2.48-6.32-13.44-1.54-18.5,1.78-1.88-1.23-4.62-3-2.73Z"/><path class="e" d="M777.57,547.69c5.59-3.82,14.22-1.84,20.46-.66,8.07,1.53,16,3.72,24.17,4.73,6.36.78,12.53.53,17.54-3.46a13.67,13.67,0,0,0,4.46-14.83c-1.89-5.41-8.24-7.76-14.1-7.28-7,.56-12.1,5.54-16,10.32-3.63,4.44-6.36,9.4-10,13.85-5.34,6.56-10,16-20.75,14.55-2.7-.36-3.86,3.36-1.14,3.72,7.21,1,12.79-1.27,17.52-6.16a112,112,0,0,0,11.15-14.09c3.36-4.86,6.28-9.93,10.77-14.06s13.28-6.9,17.66-1.15c3.56,4.68-.08,11.31-4.88,13.87-5.64,3-14.39.64-20.26-.54-7.39-1.49-14.68-3.4-22.19-4.34-5.49-.69-11.94-1-16.6,2.2-2.17,1.48,0,4.83,2.16,3.33Z"/><path class="e" d="M817.51,475.29a94.48,94.48,0,0,1,7.68-9.46c1.7-1.92-1.3-4.67-3-2.73a102.85,102.85,0,0,0-8.34,10.25c-1.44,2.12,2.26,4.06,3.69,1.94Z"/><path class="e" d="M708.3,527.41l38,17.39c2.45,1.12,4.61-2.21,2.16-3.33l-38-17.39c-2.46-1.13-4.62,2.2-2.16,3.33Z"/><path class="e" d="M714.33,515.46l38,17.4c2.45,1.12,4.61-2.21,2.16-3.34l-38-17.39c-2.46-1.12-4.62,2.21-2.16,3.33Z"/><path class="e" d="M678.74,457.17c-6.58,3-13.5,9-9.85,16.16,3.11,6.07,11.78,4.54,17.16,2.68,8-2.75,15.23-7,22.87-10.35a36,36,0,0,1,4.55-1.7c1.81-.53,2.15-.17,3.58,1.05,5.23,4.47-.6,10.11-5.11,12.43-2.39,1.23-.24,4.56,2.16,3.33,6.59-3.4,12.93-11.24,6.78-17.65-2.27-2.36-4.12-3.68-7.53-3.12-3.07.51-6.08,2.08-8.82,3.34-7.65,3.53-15.09,8-23.41,10.11-3.27.83-7.53.67-8.82-2.73-1.79-4.69,4.9-8.54,8.6-10.21,2.46-1.12.3-4.45-2.16-3.34Z"/><path class="d" d="M624.14,694.79a5.22,5.22,0,1,1-5.75,5.2A5.5,5.5,0,0,1,624.14,694.79Z"/><path class="d" d="M709,608.34a3.63,3.63,0,1,1-4,3.61A3.83,3.83,0,0,1,709,608.34Z"/><path class="d" d="M783.15,725c0,4.66-4.2,8.44-9.36,8.44s-9.35-3.78-9.35-8.44,4.19-8.44,9.35-8.44S783.15,720.3,783.15,725Zm-15.29,0a6,6,0,0,0,11.87,0c0-3-2.66-5.35-5.94-5.35S767.86,722,767.86,725Z"/><path class="e" d="M758.86,746c-7.94,0-16.87-1-23.07-5.95-7.24-5.73-5.77-15.62.17-21.5,5-5,9.48-8,10.75-15,1.08-5.94-1.64-10.71-7.46-13.5-6.8-3.26-14.23-3.77-19.78-9.07-9.48-9.06,1.26-15.88,7.33-22.65a16.4,16.4,0,0,0,1.93-20c-4-6.39-12.67-9-20.34-9.11a34.5,34.5,0,0,0-6.17.61c-2.7.47-1.55,4.18,1.14,3.72,9.36-1.6,20.62,1.23,23.33,10.42,2.76,9.38-6.73,14.12-11.86,20.6-5.75,7.25-3.44,15,3.47,20.84,5.22,4.45,12.56,5.24,18.79,8,7.36,3.25,6.88,11.74,2,16.89-4.53,4.78-10,8.09-11.87,14.5-2.09,7,.78,14.66,7,19.1,5.92,4.24,13.89,5.51,21.24,5.92,1.14.07,2.29.08,3.43.08a1.93,1.93,0,1,0,0-3.85Z"/><path class="e" d="M587.36,618.22c12.36-1.64,24.7-.46,37,.78,10.47,1,20.82,2.64,31.16,4.44-.43-1-.85-1.89-1.28-2.83-5.55,10.85-13,20.68-20.84,30.24-6.56,7.95-14.82,14.53-21.44,22.42h3.69c-12.91-17-20.7-37.67-27.24-57.31-.79-2.37-4.92-1.36-4.12,1C591,636.9,598.9,657.92,612,675.21a2.3,2.3,0,0,0,3.69,0c6.34-7.55,14.31-13.84,20.63-21.43,8.19-9.86,15.92-20,21.65-31.23a1.9,1.9,0,0,0-1.27-2.83c-10.16-1.77-20.35-3.39-30.64-4.41-13.32-1.32-26.47-2.58-39.83-.81-2.72.36-1.56,4.07,1.14,3.72Z"/><path class="e" d="M798,696.53a95.48,95.48,0,0,0,7.31-11c3.73-6,7.61-11.88,11.81-17.61a1.79,1.79,0,0,0-.34-2.34c-8.76-7.52-21.38-10.13-32.11-14.59-1-.4-2.41-.33-2.92.69a278.85,278.85,0,0,1-16.39,28.09c-1.42,2.14,2.28,4.08,3.69,1.94a277.6,277.6,0,0,0,16.39-28.08l-2.92.69c10.32,4.29,22.81,6.76,31.24,14l-.33-2.34c-4.2,5.73-8.08,11.63-11.81,17.62a96.24,96.24,0,0,1-7.31,11c-1.66,2,2,3.91,3.69,1.95Z"/><path class="e" d="M677.28,784.54l40-11.78a2,2,0,1,0-1.14-3.72l-40,11.78a2,2,0,1,0,1.14,3.72Z"/><path class="e" d="M672.35,772.51l40.5-11.93a2,2,0,1,0-1.14-3.72l-40.5,11.94a1.94,1.94,0,1,0,1.14,3.71Z"/><path class="e" d="M738.62,614.41l37.5,17.17c2.46,1.12,4.62-2.2,2.16-3.33l-37.5-17.17c-2.45-1.12-4.62,2.2-2.16,3.33Z"/><path class="e" d="M744.71,602.63l38,17.39c2.45,1.12,4.62-2.2,2.16-3.33l-38-17.39c-2.45-1.12-4.62,2.2-2.16,3.33Z"/><path class="e" d="M750.74,590.69l38,17.39c2.45,1.12,4.62-2.21,2.16-3.33l-38-17.4c-2.46-1.12-4.62,2.21-2.16,3.34Z"/><path class="e" d="M660.43,599.33c2.34-7.56,4-15.32,5.83-23l-3.58.85c6.93,6,14.1,11.88,20.39,18.4a2.28,2.28,0,0,0,3.36-.39c3.49-6.94,7.84-13.54,10.41-20.83l-3.57.85c6.8,5.62,12.07,13.07,20.09,17.39a2.3,2.3,0,0,0,2.59-.31c5.2-5.9,6.36-13.68,9.29-20.56,1-2.32-3.14-3.32-4.12-1-2.61,6.13-3.57,13.6-8.19,18.86l2.59-.3c-7.65-4.13-12.72-11.42-19.23-16.78a2.25,2.25,0,0,0-3.57.85c-2.46,7-6.64,13.27-10,19.9l3.36-.39c-6.3-6.52-13.47-12.43-20.39-18.39-1.11-1-3.23-.62-3.58.85-1.82,7.67-3.49,15.43-5.82,23-.74,2.4,3.38,3.42,4.12,1Z"/><path class="e" d="M651.27,668.74c-6.74,7.13-9.73,17.46.13,23.55a15.29,15.29,0,0,0,12.47,1.31c4.85-1.75,7.74-6.52,10.18-10.38,1.37-2.16-2.32-4.1-3.69-1.94-3.43,5.42-6.83,10.53-14.53,8.69-10.39-2.48-6.32-13.44-1.54-18.5,1.78-1.88-1.23-4.62-3-2.73Z"/><path class="e" d="M633.38,732c5.59-3.82,14.22-1.84,20.46-.66,8.07,1.53,16,3.72,24.17,4.73,6.36.78,12.53.53,17.54-3.46A13.65,13.65,0,0,0,700,717.75c-1.89-5.41-8.24-7.76-14.1-7.28-7,.56-12.1,5.54-16,10.32-3.63,4.44-6.36,9.4-10,13.85-5.34,6.56-10,16-20.75,14.55-2.7-.36-3.86,3.36-1.14,3.72a19.31,19.31,0,0,0,17.52-6.16,112,112,0,0,0,11.15-14.09c3.36-4.86,6.28-9.93,10.77-14.06s13.28-6.9,17.66-1.15c3.56,4.68-.08,11.31-4.87,13.87-5.65,3-14.4.64-20.27-.54-7.39-1.49-14.68-3.4-22.19-4.34-5.49-.69-11.93-1-16.6,2.2-2.17,1.48,0,4.83,2.16,3.33Z"/><path class="e" d="M673.32,659.57a94.48,94.48,0,0,1,7.68-9.46c1.7-1.92-1.3-4.67-3-2.73a101.56,101.56,0,0,0-8.35,10.25c-1.44,2.12,2.26,4.06,3.69,1.94Z"/><path class="e" d="M564.11,711.69l38,17.39c2.45,1.12,4.62-2.21,2.16-3.33l-38-17.4c-2.45-1.12-4.62,2.21-2.16,3.34Z"/><path class="e" d="M570.14,699.74l38,17.39c2.45,1.13,4.62-2.2,2.16-3.33l-38-17.39c-2.46-1.12-4.62,2.21-2.16,3.33Z"/><path class="e" d="M534.55,641.45c-6.57,3-13.5,9-9.85,16.16,3.11,6.07,11.79,4.54,17.16,2.68,8-2.75,15.23-7,22.87-10.35a36,36,0,0,1,4.55-1.7c1.81-.53,2.15-.17,3.58,1,5.23,4.47-.6,10.11-5.11,12.43-2.39,1.23-.24,4.56,2.16,3.33,6.59-3.4,12.93-11.24,6.78-17.65-2.27-2.36-4.11-3.68-7.53-3.12-3.07.51-6.08,2.08-8.82,3.34-7.65,3.53-15.09,8-23.41,10.11-3.27.83-7.52.67-8.82-2.73-1.79-4.69,4.91-8.54,8.6-10.21,2.46-1.12.3-4.45-2.16-3.34Z"/><path class="d" d="M193.15,889.71a5.22,5.22,0,1,1-5.76,5.2A5.5,5.5,0,0,1,193.15,889.71Z"/><path class="d" d="M278,803.26a3.63,3.63,0,1,1-4,3.61A3.82,3.82,0,0,1,278,803.26Z"/><path class="d" d="M352.16,919.87c0,4.66-4.2,8.44-9.36,8.44s-9.35-3.78-9.35-8.44,4.19-8.44,9.35-8.44S352.16,915.22,352.16,919.87Zm-15.29,0a5.67,5.67,0,0,0,5.93,5.36c3.27,0,5.94-2.4,5.94-5.36s-2.67-5.35-5.94-5.35S336.87,916.92,336.87,919.87Z"/><path class="e" d="M327.87,940.94c-7.94-.05-16.87-1-23.07-6-7.24-5.73-5.77-15.62.17-21.49,5-5,9.48-8,10.75-15,1.08-5.94-1.64-10.71-7.47-13.5-6.79-3.26-14.23-3.77-19.77-9.07-9.48-9,1.26-15.88,7.33-22.65a16.4,16.4,0,0,0,1.92-20c-4-6.39-12.66-9-20.33-9.11a35.35,35.35,0,0,0-6.17.61c-2.71.47-1.56,4.18,1.14,3.72,9.35-1.6,20.62,1.24,23.33,10.42,2.76,9.38-6.73,14.12-11.86,20.6-5.75,7.26-3.44,15,3.47,20.84,5.22,4.45,12.56,5.24,18.79,8,7.35,3.25,6.88,11.74,2,16.89-4.53,4.78-10,8.09-11.87,14.5a17.53,17.53,0,0,0,7,19.1c5.92,4.24,13.89,5.51,21.24,5.92,1.14.07,2.29.08,3.43.09a1.93,1.93,0,1,0,0-3.86Z"/><path class="e" d="M156.37,813.14c12.36-1.64,24.7-.46,37,.78,10.46,1.05,20.82,2.64,31.16,4.44-.43-.94-.85-1.89-1.28-2.83-5.55,10.85-13,20.68-20.84,30.25-6.56,7.94-14.83,14.52-21.44,22.41h3.69c-12.91-17.05-20.7-37.67-27.24-57.31-.79-2.37-4.92-1.36-4.13,1,6.64,19.91,14.59,40.93,27.68,58.22a2.3,2.3,0,0,0,3.69,0C191,862.58,199,856.3,205.32,848.7c8.19-9.86,15.92-20,21.65-31.23a1.9,1.9,0,0,0-1.27-2.83c-10.16-1.77-20.35-3.39-30.64-4.41-13.33-1.32-26.47-2.58-39.83-.81-2.72.36-1.56,4.07,1.14,3.72Z"/><path class="e" d="M367,891.45a95.48,95.48,0,0,0,7.31-11c3.73-6,7.61-11.88,11.81-17.61a1.79,1.79,0,0,0-.34-2.34c-8.77-7.52-21.39-10.13-32.11-14.59-1-.4-2.41-.33-2.92.69a277.74,277.74,0,0,1-16.39,28.09c-1.42,2.14,2.28,4.08,3.69,1.95a278.85,278.85,0,0,0,16.39-28.09l-2.93.69c10.33,4.3,22.82,6.76,31.25,14l-.34-2.34c-4.2,5.73-8.07,11.63-11.81,17.62a94.84,94.84,0,0,1-7.3,11c-1.66,2,2,3.91,3.69,2Z"/><path class="e" d="M246.29,979.46l40-11.78a2,2,0,1,0-1.13-3.72l-40,11.78a2,2,0,1,0,1.14,3.72Z"/><path class="e" d="M241.36,967.44l40.49-11.94a2,2,0,1,0-1.13-3.72l-40.5,11.94a2,2,0,1,0,1.14,3.72Z"/><path class="e" d="M307.63,809.33l37.5,17.17c2.45,1.12,4.62-2.2,2.16-3.33L309.79,806c-2.46-1.12-4.62,2.21-2.16,3.33Z"/><path class="e" d="M313.72,797.55l38,17.39c2.45,1.13,4.61-2.2,2.16-3.33l-38-17.39c-2.46-1.12-4.62,2.2-2.16,3.33Z"/><path class="e" d="M319.75,785.61l38,17.39c2.45,1.12,4.61-2.21,2.16-3.33l-38-17.39c-2.46-1.13-4.62,2.2-2.16,3.33Z"/><path class="e" d="M229.44,794.25c2.34-7.56,4-15.32,5.83-23l-3.58.86c6.93,6,14.1,11.87,20.39,18.39a2.28,2.28,0,0,0,3.36-.39c3.49-6.93,7.84-13.54,10.41-20.83l-3.57.85c6.8,5.62,12.07,13.07,20.09,17.39a2.31,2.31,0,0,0,2.59-.3c5.19-5.91,6.36-13.68,9.29-20.56,1-2.33-3.14-3.33-4.12-1-2.62,6.14-3.57,13.6-8.19,18.86l2.59-.3c-7.66-4.13-12.72-11.42-19.23-16.78a2.25,2.25,0,0,0-3.57.85c-2.46,7-6.65,13.27-10,19.9l3.36-.39c-6.3-6.52-13.47-12.43-20.39-18.39-1.11-1-3.23-.62-3.58.85-1.82,7.67-3.49,15.43-5.82,23-.75,2.4,3.38,3.42,4.12,1Z"/><path class="e" d="M220.28,863.66c-6.74,7.13-9.73,17.46.13,23.55a15.21,15.21,0,0,0,12.47,1.31c4.85-1.75,7.74-6.52,10.18-10.38,1.37-2.16-2.33-4.1-3.69-1.94-3.43,5.42-6.83,10.53-14.53,8.69-10.39-2.48-6.32-13.44-1.54-18.5,1.78-1.88-1.23-4.62-3-2.73Z"/><path class="e" d="M202.39,926.89c5.59-3.82,14.22-1.84,20.46-.66,8.07,1.53,16,3.72,24.17,4.73,6.36.78,12.53.53,17.54-3.45A13.68,13.68,0,0,0,269,912.67c-1.89-5.41-8.24-7.76-14.1-7.28-7,.56-12.1,5.54-16,10.32-3.63,4.44-6.36,9.4-10,13.85-5.34,6.56-10,16-20.75,14.55-2.7-.36-3.86,3.36-1.14,3.72a19.26,19.26,0,0,0,17.52-6.16,112,112,0,0,0,11.15-14.09c3.36-4.86,6.28-9.93,10.77-14.06s13.28-6.89,17.66-1.14c3.56,4.67-.08,11.3-4.88,13.86-5.64,3-14.39.64-20.26-.54-7.39-1.49-14.68-3.4-22.19-4.34-5.49-.69-11.94-1-16.6,2.2-2.17,1.48,0,4.83,2.16,3.33Z"/><path class="e" d="M242.33,854.49A95.62,95.62,0,0,1,250,845c1.7-1.92-1.3-4.67-3-2.73a102.85,102.85,0,0,0-8.34,10.25c-1.44,2.12,2.26,4.06,3.69,1.94Z"/><path class="e" d="M133.12,906.61l38,17.39c2.45,1.12,4.61-2.21,2.16-3.33l-38-17.39c-2.46-1.13-4.62,2.2-2.16,3.33Z"/><path class="e" d="M139.15,894.66l38,17.4c2.45,1.12,4.61-2.21,2.16-3.33l-38-17.4c-2.46-1.12-4.62,2.21-2.16,3.33Z"/><path class="e" d="M103.56,836.38c-6.58,3-13.5,9-9.85,16.16,3.11,6.06,11.78,4.53,17.16,2.67,8-2.75,15.23-7,22.87-10.35a36,36,0,0,1,4.55-1.7c1.81-.52,2.15-.17,3.58,1.05,5.23,4.47-.6,10.11-5.11,12.43-2.39,1.23-.24,4.56,2.16,3.33,6.59-3.39,12.93-11.24,6.78-17.65-2.27-2.36-4.12-3.68-7.53-3.12-3.07.51-6.08,2.08-8.82,3.34-7.65,3.53-15.09,8-23.41,10.11-3.27.83-7.53.68-8.82-2.73-1.79-4.69,4.9-8.54,8.6-10.21,2.46-1.12.3-4.45-2.16-3.33Z"/><ellipse class="d" cx="48.6" cy="1083.46" rx="5.76" ry="5.19"/><path class="d" d="M133.44,991.81a3.63,3.63,0,1,1-4,3.61A3.82,3.82,0,0,1,133.44,991.81Z"/><path class="e" d="M183.32,1129.49c-7.94,0-16.88-1-23.08-6-7.24-5.73-5.76-15.62.18-21.49,5-5,9.48-8,10.75-15,1.07-6-1.65-10.72-7.47-13.51-6.8-3.26-14.23-3.77-19.78-9.07-9.47-9,1.26-15.88,7.34-22.65a16.4,16.4,0,0,0,1.92-20c-4-6.39-12.67-9-20.34-9.11a35.33,35.33,0,0,0-6.16.61c-2.71.47-1.56,4.18,1.14,3.72,9.35-1.6,20.62,1.24,23.32,10.42,2.77,9.38-6.72,14.12-11.86,20.6-5.75,7.26-3.43,15,3.47,20.84,5.23,4.45,12.57,5.24,18.79,8,7.36,3.25,6.89,11.74,2,16.89-4.53,4.78-10,8.09-11.88,14.5-2.09,7,.78,14.67,7,19.1,5.92,4.24,13.9,5.51,21.24,5.92,1.15.07,2.29.08,3.44.09a1.93,1.93,0,1,0,0-3.86Z"/><path class="e" d="M11.81,1001.69c12.36-1.64,24.71-.46,37,.78,10.46,1,20.82,2.64,31.16,4.44-.43-.94-.86-1.89-1.28-2.83-5.55,10.85-13,20.68-20.85,30.25-6.55,7.94-14.82,14.52-21.43,22.41h3.69c-12.91-17-20.71-37.67-27.25-57.31-.79-2.37-4.91-1.36-4.12,1,6.63,19.91,14.58,40.93,27.68,58.22a2.3,2.3,0,0,0,3.69,0c6.34-7.55,14.31-13.83,20.62-21.43,8.2-9.85,15.92-20,21.66-31.23a1.9,1.9,0,0,0-1.28-2.83c-10.15-1.77-20.35-3.39-30.63-4.41C37.18,997.46,24,996.2,10.68,998c-2.72.36-1.56,4.07,1.13,3.72Z"/><path class="e" d="M222.49,1080a94.11,94.11,0,0,0,7.3-11c3.73-6,7.61-11.88,11.81-17.61a1.79,1.79,0,0,0-.33-2.34c-8.77-7.52-21.39-10.13-32.11-14.59-1-.4-2.41-.33-2.93.69a277.65,277.65,0,0,1-16.38,28.09c-1.42,2.14,2.28,4.08,3.69,2a278.85,278.85,0,0,0,16.39-28.09l-2.93.69c10.32,4.3,22.82,6.76,31.25,14l-.34-2.34c-4.2,5.73-8.07,11.63-11.81,17.62-2.31,3.69-4.46,7.56-7.3,11-1.67,2,2,3.91,3.69,2Z"/><path class="e" d="M163.08,997.88l37.5,17.17c2.45,1.12,4.62-2.2,2.16-3.33l-37.51-17.17c-2.45-1.12-4.61,2.21-2.15,3.33Z"/><path class="e" d="M169.17,986.1l38,17.39c2.46,1.13,4.62-2.2,2.16-3.33l-38-17.39c-2.45-1.12-4.61,2.2-2.15,3.33Z"/><path class="e" d="M175.2,974.16l38,17.39c2.46,1.12,4.62-2.21,2.16-3.33l-38-17.39c-2.45-1.13-4.61,2.2-2.15,3.33Z"/><path class="e" d="M84.89,982.8c2.33-7.56,4-15.32,5.82-23l-3.57.86c6.92,6,14.1,11.87,20.39,18.39a2.28,2.28,0,0,0,3.36-.39c3.49-6.93,7.84-13.54,10.41-20.83l-3.58.85c6.81,5.62,12.08,13.07,20.1,17.39a2.31,2.31,0,0,0,2.59-.3c5.19-5.91,6.36-13.68,9.29-20.56,1-2.33-3.15-3.33-4.12-1-2.62,6.14-3.57,13.6-8.19,18.86l2.59-.3c-7.66-4.13-12.73-11.42-19.23-16.78a2.26,2.26,0,0,0-3.58.85c-2.45,7-6.64,13.27-10,19.9l3.35-.39c-6.29-6.52-13.46-12.43-20.39-18.39-1.1-.95-3.22-.62-3.57.85-1.82,7.67-3.49,15.43-5.83,23-.74,2.4,3.39,3.42,4.13,1Z"/><path class="e" d="M75.73,1052.22c-6.75,7.12-9.73,17.45.12,23.54a15.24,15.24,0,0,0,12.48,1.31c4.84-1.75,7.73-6.52,10.18-10.38,1.37-2.16-2.33-4.1-3.69-1.94-3.43,5.42-6.84,10.53-14.53,8.69C69.9,1071,74,1060,78.75,1054.94c1.78-1.88-1.23-4.62-3-2.72Z"/><path class="e" d="M97.78,1043a95.62,95.62,0,0,1,7.68-9.46c1.7-1.92-1.31-4.67-3-2.73a101.46,101.46,0,0,0-8.34,10.25c-1.45,2.12,2.25,4.06,3.69,1.94Z"/><path class="e" d="M-5.4,1083.21l38,17.4c2.46,1.12,4.62-2.21,2.16-3.33l-38-17.4c-2.45-1.12-4.61,2.21-2.15,3.33Z"/><path class="e" d="M-41,1024.93c-6.58,3-13.51,9-9.85,16.16,3.1,6.06,11.78,4.53,17.16,2.67,8-2.75,15.23-7,22.87-10.35a35.41,35.41,0,0,1,4.55-1.7c1.81-.52,2.15-.17,3.58,1,5.23,4.47-.6,10.11-5.11,12.43-2.39,1.23-.24,4.56,2.16,3.33,6.59-3.39,12.92-11.24,6.78-17.65-2.27-2.36-4.12-3.68-7.54-3.12-3.06.51-6.08,2.08-8.82,3.34-7.65,3.53-15.08,8-23.41,10.11-3.26.83-7.52.68-8.82-2.73-1.79-4.69,4.91-8.54,8.6-10.21,2.47-1.12.3-4.45-2.15-3.33Z"/><path class="d" d="M66.89,950.29c0,4.66-4.2,8.44-9.36,8.44s-9.36-3.78-9.36-8.44,4.2-8.44,9.36-8.44S66.89,945.64,66.89,950.29Zm-15.3,0c0,3,2.67,5.36,5.94,5.36s5.94-2.41,5.94-5.36-2.67-5.35-5.94-5.35S51.59,947.34,51.59,950.29Z"/><path class="e" d="M42.6,971.36c-7.94-.05-16.87-1.05-23.08-6-7.24-5.73-5.76-15.62.18-21.5,5-5,9.48-8,10.75-15,1.08-5.94-1.65-10.71-7.47-13.5-6.8-3.26-14.23-3.77-19.78-9.07-9.47-9.06,1.26-15.88,7.34-22.65a16.41,16.41,0,0,0,1.92-20c-4-6.38-12.66-9-20.34-9.1a34.39,34.39,0,0,0-6.16.61c-2.71.46-1.56,4.18,1.14,3.72,9.35-1.6,20.62,1.23,23.33,10.42,2.76,9.38-6.73,14.12-11.86,20.6-5.75,7.25-3.44,15,3.46,20.84,5.23,4.45,12.57,5.24,18.79,8,7.36,3.25,6.89,11.73,2,16.89-4.53,4.78-9.95,8.09-11.88,14.5-2.09,7,.78,14.66,7,19.1,5.92,4.24,13.9,5.51,21.24,5.92,1.15.06,2.3.08,3.44.08a1.93,1.93,0,1,0,0-3.85Z"/><path class="e" d="M81.77,921.87a94.11,94.11,0,0,0,7.3-11c3.73-6,7.61-11.88,11.81-17.61a1.78,1.78,0,0,0-.33-2.34c-8.77-7.53-21.39-10.13-32.11-14.59-1-.4-2.41-.33-2.93.69a276.87,276.87,0,0,1-16.38,28.09c-1.42,2.14,2.28,4.08,3.69,1.94A277.6,277.6,0,0,0,69.21,879l-2.93.69c10.33,4.29,22.82,6.75,31.25,14l-.34-2.34C93,897.07,89.12,903,85.38,909c-2.31,3.69-4.46,7.56-7.3,11-1.67,2,2,3.9,3.69,2Z"/><path class="e" d="M-39,1009.88,1,998.1a2,2,0,1,0-1.13-3.72l-40,11.78a2,2,0,1,0,1.14,3.72Z"/><path class="e" d="M22.36,839.75l37.5,17.17c2.45,1.12,4.62-2.21,2.16-3.33l-37.5-17.17c-2.46-1.12-4.62,2.2-2.16,3.33Z"/><path class="e" d="M28.45,828l38,17.39c2.45,1.12,4.61-2.2,2.15-3.33l-38-17.39c-2.45-1.13-4.61,2.2-2.15,3.33Z"/><path class="e" d="M34.48,816l38,17.4c2.45,1.12,4.61-2.21,2.15-3.33l-38-17.4c-2.45-1.12-4.61,2.21-2.15,3.33Z"/><path class="e" d="M-55.83,824.67c2.33-7.57,4-15.33,5.82-23l-3.57.85c6.92,6,14.1,11.88,20.39,18.4a2.29,2.29,0,0,0,3.36-.39C-26.34,813.59-22,807-19.42,799.7l-3.57.85c6.8,5.61,12.07,13.07,20.09,17.38a2.28,2.28,0,0,0,2.59-.3C4.88,811.73,6.05,804,9,797.07c1-2.32-3.15-3.32-4.12-1-2.62,6.13-3.57,13.6-8.19,18.86l2.59-.31C-8.4,810.48-13.47,803.19-20,797.82a2.26,2.26,0,0,0-3.57.86c-2.46,7-6.65,13.27-10,19.9l3.35-.39c-6.29-6.52-13.46-12.43-20.39-18.39-1.1-1-3.22-.62-3.57.85-1.82,7.67-3.49,15.43-5.83,23-.74,2.4,3.39,3.42,4.13,1Z"/><path class="d" d="M782.87,865.63a5.22,5.22,0,1,1-5.76,5.19A5.5,5.5,0,0,1,782.87,865.63Z"/><path class="d" d="M867.71,779.18a3.63,3.63,0,1,1-4,3.61A3.82,3.82,0,0,1,867.71,779.18Z"/><path class="e" d="M917.59,916.85c-7.94,0-16.88-1-23.08-5.94-7.24-5.73-5.76-15.62.18-21.5,5-5,9.48-8,10.75-15,1.07-5.94-1.65-10.72-7.47-13.51-6.8-3.26-14.23-3.76-19.78-9.07-9.47-9,1.26-15.87,7.34-22.64a16.42,16.42,0,0,0,1.92-20c-4-6.39-12.67-9-20.34-9.1a33.5,33.5,0,0,0-6.16.61c-2.71.46-1.56,4.18,1.14,3.72,9.35-1.6,20.62,1.23,23.32,10.42,2.77,9.37-6.72,14.12-11.86,20.59-5.75,7.26-3.43,15,3.47,20.84,5.23,4.45,12.57,5.25,18.79,8,7.36,3.26,6.89,11.74,2,16.89-4.53,4.79-10,8.1-11.88,14.51-2.09,7,.78,14.66,7,19.09,5.92,4.24,13.9,5.52,21.24,5.93,1.15.06,2.29.07,3.44.08a1.93,1.93,0,1,0,0-3.86Z"/><path class="e" d="M746.08,789.05c12.36-1.63,24.71-.45,37,.78,10.46,1,20.82,2.64,31.16,4.44-.43-.94-.86-1.88-1.28-2.83-5.55,10.85-13,20.69-20.85,30.25-6.55,7.95-14.82,14.53-21.43,22.41h3.69c-12.91-17.05-20.71-37.66-27.25-57.3-.79-2.38-4.91-1.36-4.12,1,6.63,19.92,14.58,40.94,27.68,58.23a2.31,2.31,0,0,0,3.69,0c6.34-7.55,14.31-13.84,20.63-21.43,8.19-9.86,15.91-20,21.65-31.23a1.91,1.91,0,0,0-1.28-2.84c-10.15-1.77-20.35-3.39-30.63-4.41-13.33-1.32-26.48-2.57-39.83-.81-2.72.36-1.56,4.08,1.13,3.72Z"/><path class="e" d="M836,955.37l40-11.78a2,2,0,1,0-1.14-3.72l-40,11.79a1.94,1.94,0,1,0,1.14,3.71Z"/><path class="e" d="M831.08,943.35l40.49-11.93a2,2,0,1,0-1.14-3.72l-40.49,11.93a2,2,0,1,0,1.14,3.72Z"/><path class="e" d="M819.16,770.16c2.33-7.56,4-15.32,5.82-23l-3.57.85c6.92,6,14.1,11.88,20.39,18.4a2.29,2.29,0,0,0,3.36-.4c3.49-6.93,7.84-13.53,10.41-20.82l-3.58.85c6.81,5.61,12.08,13.06,20.1,17.38a2.28,2.28,0,0,0,2.59-.3c5.19-5.91,6.36-13.68,9.29-20.56,1-2.33-3.15-3.32-4.12-1-2.62,6.14-3.57,13.6-8.19,18.86l2.59-.3c-7.66-4.12-12.73-11.41-19.23-16.78a2.27,2.27,0,0,0-3.58.85c-2.45,7-6.64,13.28-10,19.91l3.35-.39c-6.29-6.52-13.46-12.43-20.39-18.4-1.1-.95-3.22-.61-3.57.85-1.82,7.68-3.49,15.44-5.83,23-.74,2.4,3.39,3.42,4.13,1Z"/><path class="e" d="M810,839.58c-6.75,7.12-9.73,17.46.12,23.54a15.28,15.28,0,0,0,12.48,1.32c4.84-1.75,7.73-6.52,10.18-10.38,1.37-2.17-2.33-4.11-3.69-1.95-3.43,5.42-6.84,10.54-14.53,8.7-10.39-2.48-6.32-13.45-1.54-18.5,1.78-1.88-1.23-4.62-3-2.73Z"/><path class="e" d="M792.1,902.8c5.6-3.81,14.23-1.84,20.46-.66,8.08,1.53,16,3.73,24.18,4.73,6.35.78,12.53.54,17.54-3.45a13.67,13.67,0,0,0,4.46-14.83c-1.89-5.42-8.24-7.77-14.1-7.29-7,.57-12.1,5.55-16,10.32-3.62,4.45-6.35,9.41-10,13.85-5.35,6.57-10,16-20.76,14.56-2.69-.36-3.85,3.36-1.13,3.72,7.21,1,12.78-1.27,17.52-6.17a111.63,111.63,0,0,0,11.14-14.08c3.36-4.87,6.29-9.93,10.78-14.06s13.28-6.9,17.66-1.15c3.56,4.68-.08,11.31-4.88,13.86-5.65,3-14.39.65-20.27-.53-7.38-1.49-14.67-3.4-22.19-4.35-5.48-.68-11.93-1-16.59,2.2-2.17,1.48-.05,4.84,2.15,3.33Z"/><path class="e" d="M832.05,830.41a94.59,94.59,0,0,1,7.68-9.47c1.7-1.92-1.31-4.67-3-2.72a102.47,102.47,0,0,0-8.34,10.24c-1.45,2.13,2.25,4.07,3.69,1.95Z"/><path class="e" d="M722.84,882.52l38,17.39c2.46,1.13,4.62-2.2,2.16-3.33l-38-17.39c-2.45-1.12-4.61,2.21-2.15,3.33Z"/><path class="e" d="M728.87,870.58l38,17.39c2.46,1.12,4.62-2.2,2.16-3.33l-38-17.39c-2.45-1.13-4.61,2.2-2.15,3.33Z"/><path class="e" d="M693.28,812.29c-6.58,3-13.51,9-9.85,16.16,3.1,6.06,11.78,4.54,17.16,2.68,8-2.75,15.23-7,22.87-10.35a35.45,35.45,0,0,1,4.55-1.71c1.81-.52,2.15-.16,3.58,1.06,5.23,4.47-.6,10.1-5.11,12.42-2.39,1.24-.24,4.57,2.16,3.33,6.59-3.39,12.92-11.23,6.78-17.64-2.27-2.37-4.12-3.69-7.54-3.12-3.06.5-6.08,2.08-8.82,3.34-7.65,3.52-15.08,8-23.41,10.1-3.26.84-7.52.68-8.82-2.72-1.79-4.69,4.91-8.55,8.6-10.22,2.47-1.12.3-4.44-2.15-3.33Z"/><path class="e" d="M852.76,700.19l38,17.4c2.45,1.12,4.62-2.21,2.16-3.33l-38-17.4c-2.46-1.12-4.62,2.21-2.16,3.33Z"/><path class="e" d="M858.79,688.25l38,17.39c2.45,1.13,4.62-2.2,2.16-3.33l-38-17.39c-2.46-1.12-4.62,2.2-2.16,3.33Z"/><path class="e" d="M823.2,630c-6.57,3-13.5,9-9.85,16.16,3.11,6.06,11.78,4.54,17.16,2.68,8-2.75,15.23-7,22.87-10.35a34.5,34.5,0,0,1,4.55-1.7c1.81-.53,2.15-.17,3.58,1,5.23,4.47-.6,10.1-5.11,12.42-2.39,1.24-.24,4.57,2.16,3.34,6.59-3.4,12.93-11.24,6.78-17.65-2.27-2.36-4.11-3.68-7.53-3.12-3.07.51-6.08,2.08-8.82,3.34-7.65,3.53-15.09,8-23.41,10.1-3.27.84-7.52.68-8.82-2.72-1.79-4.69,4.91-8.54,8.6-10.22,2.46-1.11.3-4.44-2.16-3.33Z"/><ellipse class="d" cx="648.48" cy="1047.11" rx="5.76" ry="5.19"/><path class="d" d="M733.32,955.46a3.63,3.63,0,1,1-4,3.61A3.83,3.83,0,0,1,733.32,955.46Z"/><path class="d" d="M807.49,1072.07c0,4.66-4.2,8.44-9.36,8.44s-9.35-3.78-9.35-8.44,4.19-8.44,9.35-8.44S807.49,1067.42,807.49,1072.07Zm-15.29,0a6,6,0,0,0,11.87,0c0-3-2.66-5.35-5.94-5.35S792.2,1069.12,792.2,1072.07Z"/><path class="e" d="M783.2,1093.14c-7.94-.05-16.87-1.05-23.07-6-7.24-5.73-5.77-15.62.17-21.5,5-5,9.48-8,10.75-15,1.08-5.94-1.64-10.71-7.47-13.5-6.79-3.26-14.23-3.77-19.77-9.07-9.48-9,1.26-15.88,7.33-22.65a16.39,16.39,0,0,0,1.92-20c-4-6.39-12.66-9-20.33-9.11a34.5,34.5,0,0,0-6.17.61c-2.7.47-1.56,4.18,1.14,3.72,9.36-1.6,20.62,1.23,23.33,10.42,2.76,9.38-6.73,14.12-11.86,20.6-5.75,7.26-3.44,15,3.47,20.84,5.22,4.45,12.56,5.24,18.79,8,7.35,3.25,6.88,11.74,2,16.89-4.53,4.78-9.95,8.09-11.87,14.5a17.53,17.53,0,0,0,7,19.1c5.92,4.24,13.89,5.51,21.24,5.92,1.14.07,2.29.08,3.43.09a1.93,1.93,0,1,0,0-3.86Z"/><path class="e" d="M611.7,965.34c12.36-1.64,24.7-.46,37,.78,10.47,1,20.82,2.64,31.16,4.44-.43-.95-.85-1.89-1.28-2.83-5.55,10.85-13,20.68-20.84,30.25-6.56,7.94-14.82,14.52-21.44,22.41H640c-12.91-17-20.7-37.67-27.24-57.31-.79-2.37-4.92-1.36-4.12,1,6.63,19.91,14.58,40.93,27.67,58.22a2.3,2.3,0,0,0,3.69,0c6.34-7.55,14.31-13.83,20.63-21.43,8.19-9.86,15.92-20,21.65-31.23a1.9,1.9,0,0,0-1.27-2.83c-10.16-1.77-20.35-3.39-30.64-4.41-13.32-1.32-26.47-2.58-39.83-.81-2.72.36-1.56,4.07,1.14,3.72Z"/><path class="e" d="M822.37,1043.65a95.48,95.48,0,0,0,7.31-11c3.73-6,7.61-11.88,11.81-17.61a1.79,1.79,0,0,0-.34-2.34c-8.77-7.52-21.39-10.13-32.11-14.59-1-.4-2.41-.33-2.92.69a277.74,277.74,0,0,1-16.39,28.09c-1.42,2.14,2.28,4.08,3.69,1.95a278.85,278.85,0,0,0,16.39-28.09l-2.93.69c10.33,4.3,22.82,6.76,31.25,14l-.33-2.34c-4.21,5.73-8.08,11.63-11.82,17.62a94.84,94.84,0,0,1-7.3,11c-1.66,2,2.05,3.91,3.69,2Z"/><path class="e" d="M763,961.53l37.5,17.17c2.45,1.12,4.62-2.2,2.16-3.33l-37.5-17.17c-2.45-1.12-4.62,2.21-2.16,3.33Z"/><path class="e" d="M769.05,949.75l38,17.39c2.45,1.13,4.62-2.2,2.16-3.33l-38-17.39c-2.46-1.12-4.62,2.2-2.16,3.33Z"/><path class="e" d="M775.08,937.81l38,17.39c2.45,1.12,4.61-2.21,2.16-3.33l-38-17.39c-2.46-1.13-4.62,2.2-2.16,3.33Z"/><path class="e" d="M684.77,946.45c2.34-7.56,4-15.32,5.83-23l-3.58.85c6.93,6,14.1,11.88,20.39,18.4a2.28,2.28,0,0,0,3.36-.39c3.49-6.94,7.84-13.54,10.41-20.83l-3.57.85c6.8,5.62,12.07,13.07,20.09,17.39a2.31,2.31,0,0,0,2.59-.3c5.2-5.91,6.36-13.68,9.29-20.56,1-2.33-3.14-3.33-4.12-1-2.61,6.14-3.57,13.6-8.19,18.86l2.59-.3c-7.65-4.13-12.72-11.42-19.23-16.78a2.25,2.25,0,0,0-3.57.85c-2.46,7-6.64,13.27-10,19.9l3.36-.39c-6.3-6.52-13.47-12.43-20.39-18.39-1.11-1-3.23-.62-3.58.85-1.82,7.67-3.49,15.43-5.82,23-.74,2.4,3.38,3.42,4.12,1Z"/><path class="e" d="M675.61,1015.86c-6.74,7.13-9.73,17.46.13,23.55a15.25,15.25,0,0,0,12.47,1.31c4.85-1.75,7.74-6.52,10.18-10.38,1.37-2.16-2.32-4.1-3.69-1.94-3.43,5.42-6.83,10.53-14.53,8.69-10.39-2.48-6.32-13.44-1.54-18.5,1.78-1.88-1.23-4.62-3-2.73Z"/><path class="e" d="M657.72,1079.09c5.59-3.82,14.22-1.84,20.46-.66,8.07,1.53,16,3.72,24.17,4.73,6.36.78,12.53.53,17.54-3.45a13.67,13.67,0,0,0,4.46-14.84c-1.89-5.41-8.24-7.76-14.1-7.28-7,.56-12.1,5.54-16,10.32-3.63,4.44-6.36,9.4-10,13.85-5.34,6.56-10,16-20.75,14.55-2.7-.36-3.86,3.36-1.14,3.72,7.21,1,12.79-1.27,17.52-6.16a112,112,0,0,0,11.15-14.09c3.36-4.86,6.28-9.93,10.77-14.06s13.28-6.89,17.66-1.14c3.56,4.67-.08,11.3-4.87,13.86-5.65,3-14.4.64-20.27-.54-7.39-1.49-14.68-3.4-22.19-4.34-5.49-.69-11.94-1-16.6,2.2-2.17,1.48,0,4.83,2.16,3.33Z"/><path class="e" d="M697.66,1006.69a95.62,95.62,0,0,1,7.68-9.46c1.7-1.92-1.3-4.67-3-2.73a101.56,101.56,0,0,0-8.35,10.25c-1.44,2.12,2.26,4.06,3.69,1.94Z"/><path class="e" d="M588.45,1058.81l38,17.39c2.45,1.12,4.62-2.21,2.16-3.33l-38-17.39c-2.46-1.13-4.62,2.2-2.16,3.33Z"/><path class="e" d="M594.48,1046.86l38,17.4c2.45,1.12,4.61-2.21,2.16-3.33l-38-17.4c-2.46-1.12-4.62,2.21-2.16,3.33Z"/><path class="e" d="M558.89,988.58c-6.57,3-13.5,9-9.85,16.16,3.11,6.06,11.78,4.53,17.16,2.67,8-2.75,15.23-7,22.87-10.35a36,36,0,0,1,4.55-1.7c1.81-.53,2.15-.17,3.58,1,5.23,4.47-.6,10.11-5.11,12.43-2.39,1.23-.24,4.56,2.16,3.33,6.59-3.4,12.93-11.24,6.78-17.65-2.27-2.36-4.11-3.68-7.53-3.12-3.07.51-6.08,2.08-8.82,3.34-7.65,3.53-15.09,8-23.41,10.11-3.27.83-7.53.67-8.82-2.73-1.79-4.69,4.9-8.54,8.6-10.21,2.46-1.12.3-4.45-2.16-3.33Z"/><path class="d" d="M346.08,1049.36a5.22,5.22,0,1,1-5.76,5.19A5.5,5.5,0,0,1,346.08,1049.36Z"/><path class="d" d="M430.92,962.9a3.63,3.63,0,1,1-4,3.62A3.82,3.82,0,0,1,430.92,962.9Z"/><path class="d" d="M505.09,1079.52c0,4.65-4.2,8.44-9.36,8.44s-9.36-3.79-9.36-8.44,4.2-8.44,9.36-8.44S505.09,1074.86,505.09,1079.52Zm-15.3,0c0,3,2.67,5.35,5.94,5.35s5.93-2.4,5.93-5.35a5.67,5.67,0,0,0-5.93-5.36C492.46,1074.16,489.79,1076.56,489.79,1079.52Z"/><path class="e" d="M480.8,1100.58c-7.94,0-16.88-1-23.08-5.95-7.24-5.72-5.76-15.61.18-21.49,5-5,9.48-8,10.75-15,1.07-5.95-1.65-10.72-7.47-13.51-6.8-3.26-14.23-3.76-19.78-9.07-9.47-9,1.26-15.88,7.34-22.65a16.4,16.4,0,0,0,1.92-20c-4-6.39-12.67-9-20.34-9.11a34.4,34.4,0,0,0-6.16.62c-2.71.46-1.56,4.18,1.14,3.72,9.35-1.6,20.62,1.23,23.32,10.41,2.77,9.38-6.72,14.13-11.86,20.6-5.75,7.26-3.43,15,3.47,20.84,5.23,4.45,12.57,5.25,18.79,8,7.36,3.26,6.89,11.74,2,16.89-4.53,4.79-10,8.1-11.88,14.51-2.09,7,.78,14.66,7,19.09,5.92,4.24,13.9,5.52,21.24,5.93,1.15.06,2.29.07,3.44.08a1.93,1.93,0,1,0,0-3.86Z"/><path class="e" d="M309.3,972.78c12.35-1.63,24.7-.46,37,.78,10.46,1.05,20.82,2.64,31.16,4.44-.43-.94-.86-1.89-1.28-2.83-5.55,10.85-13,20.69-20.85,30.25-6.55,8-14.82,14.53-21.43,22.41h3.69c-12.91-17-20.71-37.67-27.24-57.3-.8-2.38-4.92-1.37-4.13,1,6.63,19.92,14.58,40.94,27.68,58.23a2.31,2.31,0,0,0,3.69,0c6.34-7.55,14.31-13.84,20.63-21.44,8.19-9.85,15.91-20,21.65-31.22a1.91,1.91,0,0,0-1.28-2.84c-10.15-1.77-20.35-3.39-30.63-4.41-13.33-1.32-26.48-2.58-39.83-.81-2.72.36-1.56,4.08,1.14,3.72Z"/><path class="e" d="M520,1051.09a94,94,0,0,0,7.3-11c3.73-6,7.61-11.89,11.81-17.62a1.78,1.78,0,0,0-.33-2.33c-8.77-7.53-21.39-10.14-32.11-14.6-1-.4-2.41-.32-2.93.7a275.63,275.63,0,0,1-16.38,28.08c-1.42,2.14,2.28,4.08,3.69,2a277.74,277.74,0,0,0,16.39-28.09l-2.93.7c10.33,4.29,22.82,6.75,31.25,14l-.34-2.33c-4.2,5.73-8.07,11.63-11.81,17.61-2.31,3.7-4.46,7.57-7.3,11-1.67,2,2.05,3.91,3.69,1.95Z"/><path class="e" d="M460.56,969l37.5,17.17c2.45,1.13,4.62-2.2,2.16-3.33l-37.51-17.17c-2.45-1.12-4.61,2.21-2.15,3.33Z"/><path class="e" d="M466.65,957.19l38,17.4c2.46,1.12,4.62-2.21,2.16-3.33l-38-17.4c-2.45-1.12-4.61,2.21-2.15,3.33Z"/><path class="e" d="M472.68,945.25l38,17.39c2.46,1.13,4.62-2.2,2.16-3.33l-38-17.39c-2.45-1.12-4.61,2.2-2.15,3.33Z"/><path class="e" d="M382.37,953.89c2.33-7.56,4-15.32,5.82-23l-3.57.85c6.92,6,14.1,11.87,20.39,18.39a2.28,2.28,0,0,0,3.36-.39c3.49-6.93,7.84-13.54,10.41-20.82l-3.58.85c6.81,5.61,12.08,13.06,20.1,17.38a2.3,2.3,0,0,0,2.59-.3c5.19-5.91,6.36-13.68,9.29-20.56,1-2.33-3.15-3.32-4.12-1-2.62,6.14-3.57,13.6-8.19,18.86l2.59-.3c-7.66-4.12-12.73-11.41-19.23-16.78a2.26,2.26,0,0,0-3.57.85c-2.46,7-6.65,13.28-10,19.91l3.35-.39c-6.29-6.52-13.46-12.43-20.39-18.4-1.1-.95-3.22-.61-3.57.85-1.82,7.67-3.49,15.43-5.83,23-.74,2.4,3.39,3.41,4.13,1Z"/><path class="e" d="M373.21,1023.31c-6.74,7.12-9.73,17.46.12,23.54a15.28,15.28,0,0,0,12.48,1.32c4.84-1.75,7.73-6.52,10.18-10.38,1.37-2.17-2.33-4.11-3.69-2-3.43,5.42-6.84,10.53-14.53,8.7-10.39-2.49-6.32-13.45-1.54-18.5,1.78-1.88-1.23-4.63-3-2.73Z"/><path class="e" d="M355.31,1086.53c5.6-3.81,14.23-1.84,20.46-.66,8.08,1.53,16,3.73,24.18,4.73,6.35.78,12.53.54,17.54-3.45a13.67,13.67,0,0,0,4.46-14.83c-1.89-5.42-8.24-7.77-14.1-7.29-7,.57-12.1,5.54-16,10.32-3.62,4.44-6.35,9.4-10,13.85-5.35,6.57-10,16-20.76,14.56-2.69-.36-3.85,3.35-1.13,3.72a19.3,19.3,0,0,0,17.52-6.17,111.63,111.63,0,0,0,11.14-14.08c3.36-4.87,6.29-9.93,10.78-14.06s13.28-6.9,17.66-1.15c3.56,4.68-.08,11.31-4.88,13.86-5.65,3-14.39.65-20.27-.54-7.38-1.48-14.67-3.39-22.19-4.34-5.48-.69-11.93-1-16.59,2.2-2.17,1.48-.05,4.83,2.15,3.33Z"/><path class="e" d="M395.26,1014.14a94.59,94.59,0,0,1,7.68-9.47c1.7-1.92-1.31-4.67-3-2.73a103.74,103.74,0,0,0-8.34,10.25c-1.45,2.13,2.25,4.06,3.69,1.95Z"/><path class="e" d="M286.05,1066.25l38,17.39c2.46,1.13,4.62-2.2,2.16-3.33l-38-17.39c-2.45-1.12-4.61,2.2-2.15,3.33Z"/><path class="e" d="M292.08,1054.31l38,17.39c2.46,1.12,4.62-2.21,2.16-3.33l-38-17.39c-2.45-1.13-4.61,2.2-2.15,3.33Z"/><path class="e" d="M256.49,996c-6.58,3-13.51,9-9.85,16.16,3.1,6.06,11.78,4.53,17.16,2.68,8-2.75,15.23-7,22.87-10.35a35.45,35.45,0,0,1,4.55-1.71c1.81-.52,2.15-.16,3.58,1.05,5.23,4.48-.6,10.11-5.11,12.43-2.39,1.23-.24,4.57,2.16,3.33,6.59-3.39,12.92-11.24,6.78-17.64-2.27-2.37-4.12-3.69-7.54-3.12-3.06.5-6.08,2.07-8.82,3.34-7.65,3.52-15.08,8-23.41,10.1-3.26.84-7.52.68-8.82-2.73-1.79-4.69,4.91-8.54,8.6-10.21,2.47-1.12.3-4.44-2.15-3.33Z"/></g><g class="f"><path class="g" d="M868.58,1050.08V30a30.09,30.09,0,0,0-30-30h-30.5a30.09,30.09,0,0,1,30,30V1050.08a30.09,30.09,0,0,1-30,30h30.5a30.09,30.09,0,0,0,30-30"/></g><rect class="h" x="733.31" width="24" height="1080"/></svg>