<svg xmlns="http://www.w3.org/2000/svg" xmlns:xlink="http://www.w3.org/1999/xlink" viewBox="0 0 613 793"><defs><style>.a,.d{fill:none;stroke:#424142;}.a{stroke-miterlimit:10;}.b{fill:#333;}.c{clip-path:url(#a);}.d{stroke-width:0.6px;}</style><clipPath id="a" transform="translate(0.5 0.5)"><rect class="a" width="612" height="792"/></clipPath></defs><title>Black</title><rect class="b" x="0.5" y="0.5" width="612" height="792"/><g class="c"><line class="d" x1="7.89" y1="0.5" x2="7.89" y2="792.5"/><line class="d" x1="14.97" y1="0.5" x2="14.97" y2="792.5"/><line class="d" x1="22.06" y1="0.5" x2="22.06" y2="792.5"/><line class="d" x1="29.15" y1="0.5" x2="29.15" y2="792.5"/><line class="d" x1="36.23" y1="0.5" x2="36.23" y2="792.5"/><line class="d" x1="43.32" y1="0.5" x2="43.32" y2="792.5"/><line class="d" x1="50.41" y1="0.5" x2="50.41" y2="792.5"/><line class="d" x1="57.49" y1="0.5" x2="57.49" y2="792.5"/><line class="d" x1="64.58" y1="0.5" x2="64.58" y2="792.5"/><line class="d" x1="71.67" y1="0.5" x2="71.67" y2="792.5"/><line class="d" x1="78.75" y1="0.5" x2="78.75" y2="792.5"/><line class="d" x1="85.84" y1="0.5" x2="85.84" y2="792.5"/><line class="d" x1="92.93" y1="0.5" x2="92.93" y2="792.5"/><line class="d" x1="100.01" y1="0.5" x2="100.01" y2="792.5"/><line class="d" x1="107.1" y1="0.5" x2="107.1" y2="792.5"/><line class="d" x1="114.19" y1="0.5" x2="114.19" y2="792.5"/><line class="d" x1="121.27" y1="0.5" x2="121.27" y2="792.5"/><line class="d" x1="128.36" y1="0.5" x2="128.36" y2="792.5"/><line class="d" x1="135.45" y1="0.5" x2="135.45" y2="792.5"/><line class="d" x1="142.53" y1="0.5" x2="142.53" y2="792.5"/><line class="d" x1="149.62" y1="0.5" x2="149.62" y2="792.5"/><line class="d" x1="156.71" y1="0.5" x2="156.71" y2="792.5"/><line class="d" x1="163.79" y1="0.5" x2="163.79" y2="792.5"/><line class="d" x1="170.88" y1="0.5" x2="170.88" y2="792.5"/><line class="d" x1="177.97" y1="0.5" x2="177.97" y2="792.5"/><line class="d" x1="185.05" y1="0.5" x2="185.05" y2="792.5"/><line class="d" x1="192.14" y1="0.5" x2="192.14" y2="792.5"/><line class="d" x1="199.23" y1="0.5" x2="199.23" y2="792.5"/><line class="d" x1="206.31" y1="0.5" x2="206.31" y2="792.5"/><line class="d" x1="213.4" y1="0.5" x2="213.4" y2="792.5"/><line class="d" x1="220.49" y1="0.5" x2="220.49" y2="792.5"/><line class="d" x1="227.57" y1="0.5" x2="227.57" y2="792.5"/><line class="d" x1="234.66" y1="0.5" x2="234.66" y2="792.5"/><line class="d" x1="241.74" y1="0.5" x2="241.74" y2="792.5"/><line class="d" x1="248.83" y1="0.5" x2="248.83" y2="792.5"/><line class="d" x1="255.92" y1="0.5" x2="255.92" y2="792.5"/><line class="d" x1="263" y1="0.5" x2="263" y2="792.5"/><line class="d" x1="270.09" y1="0.5" x2="270.09" y2="792.5"/><line class="d" x1="277.18" y1="0.5" x2="277.18" y2="792.5"/><line class="d" x1="284.26" y1="0.5" x2="284.26" y2="792.5"/><line class="d" x1="291.35" y1="0.5" x2="291.35" y2="792.5"/><line class="d" x1="298.44" y1="0.5" x2="298.44" y2="792.5"/><line class="d" x1="305.52" y1="0.5" x2="305.52" y2="792.5"/><line class="d" x1="312.61" y1="0.5" x2="312.61" y2="792.5"/><line class="d" x1="319.7" y1="0.5" x2="319.7" y2="792.5"/><line class="d" x1="326.78" y1="0.5" x2="326.78" y2="792.5"/><line class="d" x1="333.87" y1="0.5" x2="333.87" y2="792.5"/><line class="d" x1="340.96" y1="0.5" x2="340.96" y2="792.5"/><line class="d" x1="348.04" y1="0.5" x2="348.04" y2="792.5"/><line class="d" x1="355.13" y1="0.5" x2="355.13" y2="792.5"/><line class="d" x1="362.22" y1="0.5" x2="362.22" y2="792.5"/><line class="d" x1="369.3" y1="0.5" x2="369.3" y2="792.5"/><line class="d" x1="376.39" y1="0.5" x2="376.39" y2="792.5"/><line class="d" x1="383.48" y1="0.5" x2="383.48" y2="792.5"/><line class="d" x1="390.56" y1="0.5" x2="390.56" y2="792.5"/><line class="d" x1="397.65" y1="0.5" x2="397.65" y2="792.5"/><line class="d" x1="404.74" y1="0.5" x2="404.74" y2="792.5"/><line class="d" x1="411.82" y1="0.5" x2="411.82" y2="792.5"/><line class="d" x1="418.91" y1="0.5" x2="418.91" y2="792.5"/><line class="d" x1="426" y1="0.5" x2="426" y2="792.5"/><line class="d" x1="433.08" y1="0.5" x2="433.08" y2="792.5"/><line class="d" x1="440.17" y1="0.5" x2="440.17" y2="792.5"/><line class="d" x1="447.26" y1="0.5" x2="447.26" y2="792.5"/><line class="d" x1="454.34" y1="0.5" x2="454.34" y2="792.5"/><line class="d" x1="461.43" y1="0.5" x2="461.43" y2="792.5"/><line class="d" x1="468.52" y1="0.5" x2="468.52" y2="792.5"/><line class="d" x1="475.6" y1="0.5" x2="475.6" y2="792.5"/><line class="d" x1="482.69" y1="0.5" x2="482.69" y2="792.5"/><line class="d" x1="489.78" y1="0.5" x2="489.78" y2="792.5"/><line class="d" x1="496.86" y1="0.5" x2="496.86" y2="792.5"/><line class="d" x1="503.95" y1="0.5" x2="503.95" y2="792.5"/><line class="d" x1="511.04" y1="0.5" x2="511.04" y2="792.5"/><line class="d" x1="518.12" y1="0.5" x2="518.12" y2="792.5"/><line class="d" x1="525.21" y1="0.5" x2="525.21" y2="792.5"/><line class="d" x1="532.3" y1="0.5" x2="532.3" y2="792.5"/><line class="d" x1="539.38" y1="0.5" x2="539.38" y2="792.5"/><line class="d" x1="546.47" y1="0.5" x2="546.47" y2="792.5"/><line class="d" x1="553.56" y1="0.5" x2="553.56" y2="792.5"/><line class="d" x1="560.64" y1="0.5" x2="560.64" y2="792.5"/><line class="d" x1="567.73" y1="0.5" x2="567.73" y2="792.5"/><line class="d" x1="574.82" y1="0.5" x2="574.82" y2="792.5"/><line class="d" x1="581.9" y1="0.5" x2="581.9" y2="792.5"/><line class="d" x1="588.99" y1="0.5" x2="588.99" y2="792.5"/><line class="d" x1="596.08" y1="0.5" x2="596.08" y2="792.5"/><line class="d" x1="603.16" y1="0.5" x2="603.16" y2="792.5"/><line class="d" x1="610.25" y1="0.5" x2="610.25" y2="792.5"/><line class="d" x1="0.5" y1="7.29" x2="612.5" y2="7.29"/><line class="d" x1="0.5" y1="14.37" x2="612.5" y2="14.37"/><line class="d" x1="0.5" y1="21.46" x2="612.5" y2="21.46"/><line class="d" x1="0.5" y1="28.55" x2="612.5" y2="28.55"/><line class="d" x1="0.5" y1="35.63" x2="612.5" y2="35.63"/><line class="d" x1="0.5" y1="42.72" x2="612.5" y2="42.72"/><line class="d" x1="0.5" y1="49.81" x2="612.5" y2="49.81"/><line class="d" x1="0.5" y1="56.89" x2="612.5" y2="56.89"/><line class="d" x1="0.5" y1="63.98" x2="612.5" y2="63.98"/><line class="d" x1="0.5" y1="71.07" x2="612.5" y2="71.07"/><line class="d" x1="0.5" y1="78.15" x2="612.5" y2="78.15"/><line class="d" x1="0.5" y1="85.24" x2="612.5" y2="85.24"/><line class="d" x1="0.5" y1="92.33" x2="612.5" y2="92.33"/><line class="d" x1="0.5" y1="99.41" x2="612.5" y2="99.41"/><line class="d" x1="0.5" y1="106.5" x2="612.5" y2="106.5"/><line class="d" x1="0.5" y1="113.59" x2="612.5" y2="113.59"/><line class="d" x1="0.5" y1="120.67" x2="612.5" y2="120.67"/><line class="d" x1="0.5" y1="127.76" x2="612.5" y2="127.76"/><line class="d" x1="0.5" y1="134.85" x2="612.5" y2="134.85"/><line class="d" x1="0.5" y1="141.93" x2="612.5" y2="141.93"/><line class="d" x1="0.5" y1="149.02" x2="612.5" y2="149.02"/><line class="d" x1="0.5" y1="156.11" x2="612.5" y2="156.11"/><line class="d" x1="0.5" y1="163.19" x2="612.5" y2="163.19"/><line class="d" x1="0.5" y1="170.28" x2="612.5" y2="170.28"/><line class="d" x1="0.5" y1="177.37" x2="612.5" y2="177.37"/><line class="d" x1="0.5" y1="184.45" x2="612.5" y2="184.45"/><line class="d" x1="0.5" y1="191.54" x2="612.5" y2="191.54"/><line class="d" x1="0.5" y1="198.63" x2="612.5" y2="198.63"/><line class="d" x1="0.5" y1="205.71" x2="612.5" y2="205.71"/><line class="d" x1="0.5" y1="212.8" x2="612.5" y2="212.8"/><line class="d" x1="0.5" y1="219.89" x2="612.5" y2="219.89"/><line class="d" x1="0.5" y1="226.97" x2="612.5" y2="226.97"/><line class="d" x1="0.5" y1="234.06" x2="612.5" y2="234.06"/><line class="d" x1="0.5" y1="241.14" x2="612.5" y2="241.14"/><line class="d" x1="0.5" y1="248.23" x2="612.5" y2="248.23"/><line class="d" x1="0.5" y1="255.32" x2="612.5" y2="255.32"/><line class="d" x1="0.5" y1="262.4" x2="612.5" y2="262.4"/><line class="d" x1="0.5" y1="269.49" x2="612.5" y2="269.49"/><line class="d" x1="0.5" y1="276.58" x2="612.5" y2="276.58"/><line class="d" x1="0.5" y1="283.66" x2="612.5" y2="283.66"/><line class="d" x1="0.5" y1="290.75" x2="612.5" y2="290.75"/><line class="d" x1="0.5" y1="297.84" x2="612.5" y2="297.84"/><line class="d" x1="0.5" y1="304.92" x2="612.5" y2="304.92"/><line class="d" x1="0.5" y1="312.01" x2="612.5" y2="312.01"/><line class="d" x1="0.5" y1="319.1" x2="612.5" y2="319.1"/><line class="d" x1="0.5" y1="326.18" x2="612.5" y2="326.18"/><line class="d" x1="0.5" y1="333.27" x2="612.5" y2="333.27"/><line class="d" x1="0.5" y1="340.36" x2="612.5" y2="340.36"/><line class="d" x1="0.5" y1="347.44" x2="612.5" y2="347.44"/><line class="d" x1="0.5" y1="354.53" x2="612.5" y2="354.53"/><line class="d" x1="0.5" y1="361.62" x2="612.5" y2="361.62"/><line class="d" x1="0.5" y1="368.7" x2="612.5" y2="368.7"/><line class="d" x1="0.5" y1="375.79" x2="612.5" y2="375.79"/><line class="d" x1="0.5" y1="382.88" x2="612.5" y2="382.88"/><line class="d" x1="0.5" y1="389.96" x2="612.5" y2="389.96"/><line class="d" x1="0.5" y1="397.05" x2="612.5" y2="397.05"/><line class="d" x1="0.5" y1="404.14" x2="612.5" y2="404.14"/><line class="d" x1="0.5" y1="411.22" x2="612.5" y2="411.22"/><line class="d" x1="0.5" y1="418.31" x2="612.5" y2="418.31"/><line class="d" x1="0.5" y1="425.4" x2="612.5" y2="425.4"/><line class="d" x1="0.5" y1="432.48" x2="612.5" y2="432.48"/><line class="d" x1="0.5" y1="439.57" x2="612.5" y2="439.57"/><line class="d" x1="0.5" y1="446.66" x2="612.5" y2="446.66"/><line class="d" x1="0.5" y1="453.74" x2="612.5" y2="453.74"/><line class="d" x1="0.5" y1="460.83" x2="612.5" y2="460.83"/><line class="d" x1="0.5" y1="467.92" x2="612.5" y2="467.92"/><line class="d" x1="0.5" y1="475" x2="612.5" y2="475"/><line class="d" x1="0.5" y1="482.09" x2="612.5" y2="482.09"/><line class="d" x1="0.5" y1="489.18" x2="612.5" y2="489.18"/><line class="d" x1="0.5" y1="496.26" x2="612.5" y2="496.26"/><line class="d" x1="0.5" y1="503.35" x2="612.5" y2="503.35"/><line class="d" x1="0.5" y1="510.44" x2="612.5" y2="510.44"/><line class="d" x1="0.5" y1="517.52" x2="612.5" y2="517.52"/><line class="d" x1="0.5" y1="524.61" x2="612.5" y2="524.61"/><line class="d" x1="0.5" y1="531.7" x2="612.5" y2="531.7"/><line class="d" x1="0.5" y1="538.78" x2="612.5" y2="538.78"/><line class="d" x1="0.5" y1="545.87" x2="612.5" y2="545.87"/><line class="d" x1="0.5" y1="552.96" x2="612.5" y2="552.96"/><line class="d" x1="0.5" y1="560.04" x2="612.5" y2="560.04"/><line class="d" x1="0.5" y1="567.13" x2="612.5" y2="567.13"/><line class="d" x1="0.5" y1="574.22" x2="612.5" y2="574.22"/><line class="d" x1="0.5" y1="581.3" x2="612.5" y2="581.3"/><line class="d" x1="0.5" y1="588.39" x2="612.5" y2="588.39"/><line class="d" x1="0.5" y1="595.48" x2="612.5" y2="595.48"/><line class="d" x1="0.5" y1="602.56" x2="612.5" y2="602.56"/><line class="d" x1="0.5" y1="609.65" x2="612.5" y2="609.65"/><line class="d" x1="0.5" y1="616.74" x2="612.5" y2="616.74"/><line class="d" x1="0.5" y1="623.82" x2="612.5" y2="623.82"/><line class="d" x1="0.5" y1="630.91" x2="612.5" y2="630.91"/><line class="d" x1="0.5" y1="638" x2="612.5" y2="638"/><line class="d" x1="0.5" y1="645.08" x2="612.5" y2="645.08"/><line class="d" x1="0.5" y1="652.17" x2="612.5" y2="652.17"/><line class="d" x1="0.5" y1="659.26" x2="612.5" y2="659.26"/><line class="d" x1="0.5" y1="666.34" x2="612.5" y2="666.34"/><line class="d" x1="0.5" y1="673.43" x2="612.5" y2="673.43"/><line class="d" x1="0.5" y1="680.51" x2="612.5" y2="680.51"/><line class="d" x1="0.5" y1="687.6" x2="612.5" y2="687.6"/><line class="d" x1="0.5" y1="694.69" x2="612.5" y2="694.69"/><line class="d" x1="0.5" y1="701.77" x2="612.5" y2="701.77"/><line class="d" x1="0.5" y1="708.86" x2="612.5" y2="708.86"/><line class="d" x1="0.5" y1="715.95" x2="612.5" y2="715.95"/><line class="d" x1="0.5" y1="723.03" x2="612.5" y2="723.03"/><line class="d" x1="0.5" y1="730.12" x2="612.5" y2="730.12"/><line class="d" x1="0.5" y1="737.21" x2="612.5" y2="737.21"/><line class="d" x1="0.5" y1="744.29" x2="612.5" y2="744.29"/><line class="d" x1="0.5" y1="751.38" x2="612.5" y2="751.38"/><line class="d" x1="0.5" y1="758.47" x2="612.5" y2="758.47"/><line class="d" x1="0.5" y1="765.55" x2="612.5" y2="765.55"/><line class="d" x1="0.5" y1="772.64" x2="612.5" y2="772.64"/><line class="d" x1="0.5" y1="779.73" x2="612.5" y2="779.73"/><line class="d" x1="0.5" y1="786.81" x2="612.5" y2="786.81"/></g><rect class="a" x="0.5" y="0.5" width="612" height="792"/></svg>