<svg xmlns="http://www.w3.org/2000/svg" xmlns:xlink="http://www.w3.org/1999/xlink" viewBox="0 0 868 1080"><defs><style>.a{fill:none;}.b{clip-path:url(#a);}.c{fill:#e5e5e5;}.d{fill:#25408f;}.e{fill:#7578b0;}.f{fill:#82baa8;}.g{fill:#ff8052;}.h{fill:#fac2bf;}.i{fill:#c2e3d9;}</style><clipPath id="a" transform="translate(-10.26 -9.7)"><rect class="a" x="10.26" y="9.7" width="868" height="1080"/></clipPath></defs><title>05 Flowers</title><g class="b"><path class="c" d="M848.26,1089.7h-64V10h64a30.08,30.08,0,0,1,30,30V1059.7a30.09,30.09,0,0,1-30,30" transform="translate(-10.26 -9.7)"/><path class="d" d="M817.76,1089.7H10.26V10h807.5a30.08,30.08,0,0,1,30,30V1059.7a30.09,30.09,0,0,1-30,30" transform="translate(-10.26 -9.7)"/></g><rect class="e" x="733.25" width="24" height="1080"/><g class="b"><path class="f" d="M337.12,614.33c-.39-26.42-1.37-48.41-1.75-63.83s-.74-24.21-.74-24.21-.26,8.79-.74,24.21-1.36,37.41-1.74,63.83-.84,57.2-1.36,90.21c-.19,33-.39,68.24-.6,103.43.21,35.2.4,70.46.6,103.47.32,21.16.61,41.27.88,60-3.15-5.44-8.66-14.86-15.95-26.56-6-9.29-12.67-20.4-20.41-31.89s-16-23.76-24.23-36.06c-8.55-12.06-17.14-24.15-25.2-35.51s-16.06-21.57-22.68-30.51c-13.5-17.73-23.1-29.19-23.1-29.19s7.21,12.89,18.93,31.69c6,9.32,12.65,20.4,20.39,31.9s16,23.8,24.21,36.09c8.57,12.09,17.14,24.16,25.18,35.47s16.08,21.59,22.7,30.53c9.13,12,16.4,21,20.19,25.67.17,9.92.3,19.56.44,28.56.36,26.41,1.36,48.41,1.75,63.83s.74,24.21.74,24.21.27-8.79.74-24.21,1.39-37.42,1.76-63.83.87-57.2,1.33-90.22c.22-33,.39-68.27.61-103.47-.22-35.19-.41-70.41-.61-103.43-.49-33-.93-63.82-1.34-90.21" transform="translate(-10.26 -9.7)"/><path class="f" d="M451.94,810.94c-6.61,8.94-14.65,19.2-22.69,30.51S412.65,864.9,404.06,877L379.87,913c-7.77,11.49-14.42,22.6-20.41,31.89-11.72,18.82-18.94,31.71-18.94,31.71s9.61-11.45,23.11-29.18c6.63-9,14.7-19.18,22.69-30.53s16.63-23.39,25.21-35.48l24.2-36.09c7.73-11.5,14.42-22.57,20.4-31.9,11.72-18.8,18.95-31.69,18.95-31.69s-9.59,11.46-23.14,29.19" transform="translate(-10.26 -9.7)"/><path class="g" d="M308.11,527.59a423.89,423.89,0,0,0,35.23,171.53l0,0c25.05-19.83,151.45-137.69,11.94-403.51q5.67,10.89,10.79,21.51c-36.26,62.41-57.47,134.31-58,210.5" transform="translate(-10.26 -9.7)"/><path class="h" d="M339.22,702.2l.41-.3a1,1,0,0,0,.17-.12c.28-.21.7-.49,1.2-.87a2.94,2.94,0,0,0,.26-.2c.6-.44,1.25-.93,2.08-1.59a423.89,423.89,0,0,1-35.23-171.53c.53-76.19,21.74-148.09,58-210.5q-5.14-10.62-10.79-21.51c-4.1-7.89-8.39-15.89-13.05-24.06,0,0-167.19,268.66-14.45,419.91,3.67,3.62,7.33,7.26,11.4,10.77" transform="translate(-10.26 -9.7)"/><path class="g" d="M162.36,738.35A424.16,424.16,0,0,0,269,877.26l0,0c13.88-28.8,76.09-190-165.54-368.19q9.86,7.31,19.1,14.64c-5.35,72,7,145.92,39.79,214.68" transform="translate(-10.26 -9.7)"/><path class="h" d="M266.63,881.82l.25-.45a.81.81,0,0,1,.1-.18c.15-.31.41-.75.69-1.3a2.63,2.63,0,0,0,.14-.3c.35-.67.73-1.38,1.18-2.33A424.16,424.16,0,0,1,162.36,738.35c-32.81-68.76-45.14-142.71-39.79-214.68q-9.27-7.32-19.1-14.64c-7.15-5.3-14.48-10.63-22.26-15.94,0,0-33,314.71,170.46,384,4.88,1.65,9.76,3.32,15,4.7" transform="translate(-10.26 -9.7)"/><path class="g" d="M513.25,738.35A424,424,0,0,1,406.62,877.26l0,0c-13.88-28.8-76.09-190,165.54-368.19q-9.85,7.31-19.09,14.64c5.34,72-7,145.92-39.8,214.68" transform="translate(-10.26 -9.7)"/><path class="h" d="M409,881.82l-.25-.45a1.51,1.51,0,0,0-.09-.18c-.16-.31-.42-.75-.7-1.3a1.51,1.51,0,0,1-.13-.3c-.36-.67-.74-1.38-1.19-2.33A424,424,0,0,0,513.25,738.35c32.81-68.76,45.14-142.71,39.8-214.68q9.26-7.32,19.09-14.64c7.15-5.3,14.49-10.63,22.27-15.94,0,0,33,314.71-170.47,384-4.88,1.65-9.76,3.32-15,4.7" transform="translate(-10.26 -9.7)"/><path class="f" d="M476.4,299.38a19.82,19.82,0,1,1,27.66,4.45,19.84,19.84,0,0,1-27.66-4.45" transform="translate(-10.26 -9.7)"/><path class="i" d="M726.75,941.87c-.79-10.5-25-13.53-53-6.81-23.17,5.59-43,9.77-49.09,10.54,6.07.32,25.75,3,49.53,6.91,28.2,4.75,52.9-.07,52.52-10.64" transform="translate(-10.26 -9.7)"/><path class="i" d="M622.85,945.63h0Zm1.85,0a5.83,5.83,0,0,0-1.85,0s0,0,0,0,.13-.09.12-.1l-.13.06v0a6.78,6.78,0,0,0,.92-1.63,5.49,5.49,0,0,0-.92,1.51,9.86,9.86,0,0,0-.27-1.68,8.84,8.84,0,0,0,.17,1.64,1.57,1.57,0,0,1,0,.16c0-.12-.52-.64-1.38-1.35.74.87,1.25,1.42,1.36,1.38s-.11-.09-.14-.07l.1.07a8,8,0,0,0-2.15-.23,9.94,9.94,0,0,0,2.13.3h-.08s0,0,0,0a9,9,0,0,0-1.79,1.12,9.43,9.43,0,0,0,1.83-1h0l.05,0s0,0,.06,0h0c-.14,0-.42.77-.77,1.95a5.47,5.47,0,0,0,.79-1.89,8.85,8.85,0,0,0,.54,1.72,7.61,7.61,0,0,0-.48-1.73,7.67,7.67,0,0,0,1.45,1,6.88,6.88,0,0,0-1.41-1.09,6,6,0,0,0,1.79-.09" transform="translate(-10.26 -9.7)"/><path class="i" d="M659.28,982.75c19.71,21.23,41.44,32.14,47.88,23.72,6.26-8.47-11.74-26.21-37.79-38-22-10-39.82-18.61-45-21.71,4.64,4,18.83,18.58,35,36" transform="translate(-10.26 -9.7)"/><path class="i" d="M652,1045.39c10.22-3,7-27.4-6.46-53.08-11.08-21.06-19.95-39.08-22.19-44.83,1.22,6,3.37,25.58,5.47,49.66,2.44,28.48,13.11,51.6,23.18,48.25" transform="translate(-10.26 -9.7)"/><path class="i" d="M584.57,1042.52c10,3.45,22.48-17.62,27.52-45.92,4.13-23.34,8.18-43,9.93-49-2.82,5.52-13.22,22.51-26.1,42.39-15.64,24.12-21.06,48.31-11.35,52.48" transform="translate(-10.26 -9.7)"/><path class="i" d="M533.35,998.64c5,9.4,28.77-.28,49.89-19.41,17.73-16.07,32.41-28.71,37.62-32.44-5.89,2.78-24.45,9.8-46.55,17.44-27.41,9.54-46.4,25.21-41,34.41" transform="translate(-10.26 -9.7)"/><path class="i" d="M519.59,932.59C518.31,943.24,542,950,570.91,947.87c23.34-1.75,43.21-2.74,49.65-2.5-6.22-1.36-24.74-7.11-47.41-14.76-27-9.15-52.63-8.61-53.56,2" transform="translate(-10.26 -9.7)"/><path class="i" d="M549.18,872c-7.2,7.68,7.35,27.72,31.22,43.58,19.92,13.27,36.33,24.81,41,28.67-3.89-4.67-15.52-21.2-28.67-41.07-15.92-24-35.74-38.37-43.54-31.18" transform="translate(-10.26 -9.7)"/><path class="i" d="M625.1,893.77c2.13-28.87-4.68-52.63-15.18-51.25-10.6.92-11.18,26.41-2.1,53.5,7.67,23,13.49,41.78,14.75,47.75-.21-6.16.75-26.24,2.53-50" transform="translate(-10.26 -9.7)"/><path class="i" d="M676,856.27c-9.24-5.17-24.84,13.49-34.49,40.84-7.84,22.3-15.09,41.29-17.73,46.83,3.55-4.9,16.46-19.88,32.66-37.79C675.64,885,685.11,861.52,676,856.27" transform="translate(-10.26 -9.7)"/><path class="i" d="M626.45,944.35c-1.21.55-2,1-1.88,1.06s.83-.36,1.88-1.06" transform="translate(-10.26 -9.7)"/><path class="i" d="M626.45,944.35c5.6-2.55,24.56-9.49,47.1-17,27.26-9.16,46.18-24.54,41.3-33.88-5.3-9.16-28.8-.14-50.26,18.84-18,15.87-33.15,28.56-38.14,32.07" transform="translate(-10.26 -9.7)"/></g></svg>