<svg xmlns="http://www.w3.org/2000/svg" xmlns:xlink="http://www.w3.org/1999/xlink" viewBox="0 0 792 612"><defs><style>.a,.d{fill:none;}.b{fill:#fcfcfc;}.c{clip-path:url(#a);}.d{stroke:#d4d4d4;stroke-width:0.6px;}</style><clipPath id="a" transform="translate(0)"><rect class="a" width="792" height="612"/></clipPath></defs><title>White</title><rect class="b" width="792" height="612"/><g class="c"><line class="d" y1="13.87" x2="792" y2="13.87"/><line class="d" y1="28.05" x2="792" y2="28.05"/><line class="d" y1="42.22" x2="792" y2="42.22"/><line class="d" y1="56.39" x2="792" y2="56.39"/><line class="d" y1="70.57" x2="792" y2="70.57"/><line class="d" y1="84.74" x2="792" y2="84.74"/><line class="d" y1="98.91" x2="792" y2="98.91"/><line class="d" y1="113.09" x2="792" y2="113.09"/><line class="d" y1="127.26" x2="792" y2="127.26"/><line class="d" y1="141.43" x2="792" y2="141.43"/><line class="d" y1="155.61" x2="792" y2="155.61"/><line class="d" y1="169.78" x2="792" y2="169.78"/><line class="d" y1="183.95" x2="792" y2="183.95"/><line class="d" y1="198.13" x2="792" y2="198.13"/><line class="d" y1="212.3" x2="792" y2="212.3"/><line class="d" y1="226.47" x2="792" y2="226.47"/><line class="d" y1="240.64" x2="792" y2="240.64"/><line class="d" y1="254.82" x2="792" y2="254.82"/><line class="d" y1="268.99" x2="792" y2="268.99"/><line class="d" y1="283.16" x2="792" y2="283.16"/><line class="d" y1="297.34" x2="792" y2="297.34"/><line class="d" y1="311.51" x2="792" y2="311.51"/><line class="d" y1="325.68" x2="792" y2="325.68"/><line class="d" y1="339.86" x2="792" y2="339.86"/><line class="d" y1="354.03" x2="792" y2="354.03"/><line class="d" y1="368.2" x2="792" y2="368.2"/><line class="d" y1="382.38" x2="792" y2="382.38"/><line class="d" y1="396.55" x2="792" y2="396.55"/><line class="d" y1="410.72" x2="792" y2="410.72"/><line class="d" y1="424.9" x2="792" y2="424.9"/><line class="d" y1="439.07" x2="792" y2="439.07"/><line class="d" y1="453.24" x2="792" y2="453.24"/><line class="d" y1="467.42" x2="792" y2="467.42"/><line class="d" y1="481.59" x2="792" y2="481.59"/><line class="d" y1="495.76" x2="792" y2="495.76"/><line class="d" y1="509.94" x2="792" y2="509.94"/><line class="d" y1="524.11" x2="792" y2="524.11"/><line class="d" y1="538.28" x2="792" y2="538.28"/><line class="d" y1="552.46" x2="792" y2="552.46"/><line class="d" y1="566.63" x2="792" y2="566.63"/><line class="d" y1="580.8" x2="792" y2="580.8"/><line class="d" y1="594.98" x2="792" y2="594.98"/><line class="d" y1="609.15" x2="792" y2="609.15"/></g></svg>